<svg width="419" height="67" viewBox="0 0 419 67" fill="none" xmlns="http://www.w3.org/2000/svg">
<path d="M26 21.45V22.0781L25.4342 22.3508L2.30313 33.5L25.4342 44.6492L26 44.9219V45.55V53.6C26 57.0809 27.1288 60.1476 29.457 62.3486C31.7884 64.5526 35.4409 66 40.7 66H404.3C409.559 66 412.936 64.5539 415.007 62.3847C417.087 60.206 418 57.1405 418 53.6V13.4C418 9.85955 417.087 6.79403 415.007 4.61529C412.936 2.44607 409.559 1 404.3 1H40.7C35.4409 1 31.7884 2.44737 29.457 4.65144C27.1288 6.85244 26 9.91912 26 13.4V21.45Z" fill="#C82AC2" fill-opacity="0.2" stroke="#C82AC2" stroke-width="2"/>
</svg>
