<svg width="25" height="23" viewBox="0 0 25 23" fill="none" xmlns="http://www.w3.org/2000/svg">
<g opacity="0.9">
<mask id="path-1-outside-1_3310_30584" maskUnits="userSpaceOnUse" x="0" y="-1" width="25" height="24" fill="black">
<rect fill="white" y="-1" width="25" height="24"/>
<path d="M8.80934 14.4577C8.38707 12.2151 9.21718 10.6667 11.2634 9.80219C11.376 9.75463 11.481 9.58939 11.507 9.46224C11.5477 9.26327 11.5028 9.04878 11.5207 8.8432C11.5861 8.09335 11.5118 7.5282 10.7142 7.04166C9.61389 6.37033 9.34505 4.91891 9.84382 3.75506C10.3368 2.60459 11.5542 1.88383 12.7817 2.01544C14.0409 2.15053 15.0767 3.10461 15.3183 4.35189C15.5516 5.55615 14.936 6.82217 13.797 7.38901C13.5206 7.5266 13.4432 7.67721 13.4555 7.9605C13.4767 8.44794 13.447 8.9376 13.4712 9.42468C13.4776 9.55263 13.573 9.74063 13.6794 9.78961C15.8227 10.7756 16.5763 12.1635 16.1727 14.4593C16.8652 14.8671 17.5607 15.292 18.2752 15.6823C18.3895 15.7447 18.6113 15.6945 18.7461 15.6248C20.6709 14.6302 22.9317 15.9313 22.9987 18.0805C23.0439 19.5292 21.9074 20.7987 20.4012 20.9819C19.0257 21.1492 17.6036 20.137 17.3298 18.7645C17.2619 18.424 17.2696 18.0602 17.2987 17.7118C17.3182 17.4771 17.2959 17.3305 17.0723 17.2062C16.515 16.896 15.9789 16.5479 15.4174 16.2459C15.3057 16.1859 15.0749 16.2076 14.9734 16.2865C13.4084 17.5029 11.5654 17.5043 10.0099 16.2898C9.90802 16.2103 9.67756 16.1844 9.56682 16.2438C9.00519 16.5454 8.46867 16.8929 7.91198 17.2041C7.69236 17.3269 7.64627 17.4642 7.68905 17.7061C7.91395 18.9801 7.20194 20.2425 5.98847 20.7574C4.76712 21.2757 3.34516 20.8895 2.56392 19.8273C1.77228 18.7511 1.81792 17.324 2.67691 16.2963C3.50872 15.301 4.94763 14.9829 6.10971 15.5859C6.45029 15.7627 6.68318 15.7388 6.98905 15.5409C7.58458 15.1554 8.20781 14.8123 8.80934 14.4577ZM12.5053 15.2704C13.5702 15.2615 14.3834 14.4342 14.3744 13.3689C14.3658 12.3447 13.5257 11.512 12.4962 11.5073C11.451 11.5025 10.6034 12.3508 10.6047 13.4001C10.606 14.4576 11.4411 15.2793 12.5053 15.2704ZM13.4174 4.84976C13.4069 4.31959 13.0034 3.93413 12.4689 3.94386C11.9396 3.9535 11.5508 4.35893 11.561 4.8908C11.5708 5.40536 12.003 5.8241 12.5102 5.81053C13.0243 5.79679 13.4277 5.3695 13.4174 4.84976ZM4.84953 19.0602C5.37376 19.0695 5.78715 18.6795 5.80052 18.163C5.81424 17.6346 5.38524 17.1901 4.86468 17.1931C4.36511 17.1959 3.92911 17.6273 3.92328 18.1244C3.91746 18.6239 4.34045 19.0512 4.84953 19.0602ZM20.1278 19.0603C20.6369 19.0521 21.0607 18.6256 21.0559 18.1262C21.0512 17.6294 20.6155 17.1968 20.1163 17.1931C19.5959 17.1891 19.1662 17.6328 19.1787 18.1612C19.1909 18.6777 19.6036 19.0686 20.1278 19.0603Z"/>
</mask>
<path d="M8.80934 14.4577C8.38707 12.2151 9.21718 10.6667 11.2634 9.80219C11.376 9.75463 11.481 9.58939 11.507 9.46224C11.5477 9.26327 11.5028 9.04878 11.5207 8.8432C11.5861 8.09335 11.5118 7.5282 10.7142 7.04166C9.61389 6.37033 9.34505 4.91891 9.84382 3.75506C10.3368 2.60459 11.5542 1.88383 12.7817 2.01544C14.0409 2.15053 15.0767 3.10461 15.3183 4.35189C15.5516 5.55615 14.936 6.82217 13.797 7.38901C13.5206 7.5266 13.4432 7.67721 13.4555 7.9605C13.4767 8.44794 13.447 8.9376 13.4712 9.42468C13.4776 9.55263 13.573 9.74063 13.6794 9.78961C15.8227 10.7756 16.5763 12.1635 16.1727 14.4593C16.8652 14.8671 17.5607 15.292 18.2752 15.6823C18.3895 15.7447 18.6113 15.6945 18.7461 15.6248C20.6709 14.6302 22.9317 15.9313 22.9987 18.0805C23.0439 19.5292 21.9074 20.7987 20.4012 20.9819C19.0257 21.1492 17.6036 20.137 17.3298 18.7645C17.2619 18.424 17.2696 18.0602 17.2987 17.7118C17.3182 17.4771 17.2959 17.3305 17.0723 17.2062C16.515 16.896 15.9789 16.5479 15.4174 16.2459C15.3057 16.1859 15.0749 16.2076 14.9734 16.2865C13.4084 17.5029 11.5654 17.5043 10.0099 16.2898C9.90802 16.2103 9.67756 16.1844 9.56682 16.2438C9.00519 16.5454 8.46867 16.8929 7.91198 17.2041C7.69236 17.3269 7.64627 17.4642 7.68905 17.7061C7.91395 18.9801 7.20194 20.2425 5.98847 20.7574C4.76712 21.2757 3.34516 20.8895 2.56392 19.8273C1.77228 18.7511 1.81792 17.324 2.67691 16.2963C3.50872 15.301 4.94763 14.9829 6.10971 15.5859C6.45029 15.7627 6.68318 15.7388 6.98905 15.5409C7.58458 15.1554 8.20781 14.8123 8.80934 14.4577ZM12.5053 15.2704C13.5702 15.2615 14.3834 14.4342 14.3744 13.3689C14.3658 12.3447 13.5257 11.512 12.4962 11.5073C11.451 11.5025 10.6034 12.3508 10.6047 13.4001C10.606 14.4576 11.4411 15.2793 12.5053 15.2704ZM13.4174 4.84976C13.4069 4.31959 13.0034 3.93413 12.4689 3.94386C11.9396 3.9535 11.5508 4.35893 11.561 4.8908C11.5708 5.40536 12.003 5.8241 12.5102 5.81053C13.0243 5.79679 13.4277 5.3695 13.4174 4.84976ZM4.84953 19.0602C5.37376 19.0695 5.78715 18.6795 5.80052 18.163C5.81424 17.6346 5.38524 17.1901 4.86468 17.1931C4.36511 17.1959 3.92911 17.6273 3.92328 18.1244C3.91746 18.6239 4.34045 19.0512 4.84953 19.0602ZM20.1278 19.0603C20.6369 19.0521 21.0607 18.6256 21.0559 18.1262C21.0512 17.6294 20.6155 17.1968 20.1163 17.1931C19.5959 17.1891 19.1662 17.6328 19.1787 18.1612C19.1909 18.6777 19.6036 19.0686 20.1278 19.0603Z" fill="#B7B3BC"/>
<path d="M8.80934 14.4577C8.38707 12.2151 9.21718 10.6667 11.2634 9.80219C11.376 9.75463 11.481 9.58939 11.507 9.46224C11.5477 9.26327 11.5028 9.04878 11.5207 8.8432C11.5861 8.09335 11.5118 7.5282 10.7142 7.04166C9.61389 6.37033 9.34505 4.91891 9.84382 3.75506C10.3368 2.60459 11.5542 1.88383 12.7817 2.01544C14.0409 2.15053 15.0767 3.10461 15.3183 4.35189C15.5516 5.55615 14.936 6.82217 13.797 7.38901C13.5206 7.5266 13.4432 7.67721 13.4555 7.9605C13.4767 8.44794 13.447 8.9376 13.4712 9.42468C13.4776 9.55263 13.573 9.74063 13.6794 9.78961C15.8227 10.7756 16.5763 12.1635 16.1727 14.4593C16.8652 14.8671 17.5607 15.292 18.2752 15.6823C18.3895 15.7447 18.6113 15.6945 18.7461 15.6248C20.6709 14.6302 22.9317 15.9313 22.9987 18.0805C23.0439 19.5292 21.9074 20.7987 20.4012 20.9819C19.0257 21.1492 17.6036 20.137 17.3298 18.7645C17.2619 18.424 17.2696 18.0602 17.2987 17.7118C17.3182 17.4771 17.2959 17.3305 17.0723 17.2062C16.515 16.896 15.9789 16.5479 15.4174 16.2459C15.3057 16.1859 15.0749 16.2076 14.9734 16.2865C13.4084 17.5029 11.5654 17.5043 10.0099 16.2898C9.90802 16.2103 9.67756 16.1844 9.56682 16.2438C9.00519 16.5454 8.46867 16.8929 7.91198 17.2041C7.69236 17.3269 7.64627 17.4642 7.68905 17.7061C7.91395 18.9801 7.20194 20.2425 5.98847 20.7574C4.76712 21.2757 3.34516 20.8895 2.56392 19.8273C1.77228 18.7511 1.81792 17.324 2.67691 16.2963C3.50872 15.301 4.94763 14.9829 6.10971 15.5859C6.45029 15.7627 6.68318 15.7388 6.98905 15.5409C7.58458 15.1554 8.20781 14.8123 8.80934 14.4577ZM12.5053 15.2704C13.5702 15.2615 14.3834 14.4342 14.3744 13.3689C14.3658 12.3447 13.5257 11.512 12.4962 11.5073C11.451 11.5025 10.6034 12.3508 10.6047 13.4001C10.606 14.4576 11.4411 15.2793 12.5053 15.2704ZM13.4174 4.84976C13.4069 4.31959 13.0034 3.93413 12.4689 3.94386C11.9396 3.9535 11.5508 4.35893 11.561 4.8908C11.5708 5.40536 12.003 5.8241 12.5102 5.81053C13.0243 5.79679 13.4277 5.3695 13.4174 4.84976ZM4.84953 19.0602C5.37376 19.0695 5.78715 18.6795 5.80052 18.163C5.81424 17.6346 5.38524 17.1901 4.86468 17.1931C4.36511 17.1959 3.92911 17.6273 3.92328 18.1244C3.91746 18.6239 4.34045 19.0512 4.84953 19.0602ZM20.1278 19.0603C20.6369 19.0521 21.0607 18.6256 21.0559 18.1262C21.0512 17.6294 20.6155 17.1968 20.1163 17.1931C19.5959 17.1891 19.1662 17.6328 19.1787 18.1612C19.1909 18.6777 19.6036 19.0686 20.1278 19.0603Z" fill="white"/>
<path d="M8.80934 14.4577L9.82495 16.1806L11.0346 15.4676L10.7748 14.0876L8.80934 14.4577ZM11.2634 9.80219L12.0418 11.6445L12.0419 11.6445L11.2634 9.80219ZM11.507 9.46224L9.54759 9.06133L9.54756 9.06148L11.507 9.46224ZM11.5207 8.8432L13.5132 9.01703L13.5132 9.0169L11.5207 8.8432ZM10.7142 7.04166L9.67251 8.74897L9.67262 8.74904L10.7142 7.04166ZM9.84382 3.75506L11.6821 4.54286L11.6821 4.54286L9.84382 3.75506ZM12.7817 2.01544L12.995 0.0268511L12.9949 0.0268366L12.7817 2.01544ZM15.3183 4.35189L13.3548 4.73219L13.3548 4.73232L15.3183 4.35189ZM13.797 7.38901L12.9059 5.59848L12.9057 5.5986L13.797 7.38901ZM13.4555 7.9605L11.4574 8.04715L11.4574 8.04725L13.4555 7.9605ZM13.4712 9.42468L11.4737 9.52397L11.4737 9.52408L13.4712 9.42468ZM13.6794 9.78961L12.8433 11.6065L12.8435 11.6066L13.6794 9.78961ZM16.1727 14.4593L14.2029 14.113L13.9629 15.4788L15.1577 16.1826L16.1727 14.4593ZM18.2752 15.6823L17.3165 17.4375L17.3169 17.4377L18.2752 15.6823ZM18.7461 15.6248L17.828 13.848L17.8276 13.8482L18.7461 15.6248ZM22.9987 18.0805L20.9997 18.1428L20.9997 18.1428L22.9987 18.0805ZM20.4012 20.9819L20.1597 18.9965H20.1597L20.4012 20.9819ZM17.3298 18.7645L15.3684 19.1555L15.3684 19.1557L17.3298 18.7645ZM17.2987 17.7118L19.2918 17.878L19.2918 17.8778L17.2987 17.7118ZM17.0723 17.2062L16.0998 18.9538L16.1 18.9539L17.0723 17.2062ZM15.4174 16.2459L16.3647 14.4845L16.3642 14.4842L15.4174 16.2459ZM14.9734 16.2865L16.2008 17.8656L16.2012 17.8653L14.9734 16.2865ZM10.0099 16.2898L11.2407 14.7134L11.2404 14.7131L10.0099 16.2898ZM9.56682 16.2438L8.6212 14.4815L8.62065 14.4818L9.56682 16.2438ZM7.91198 17.2041L6.93604 15.4584L6.93603 15.4584L7.91198 17.2041ZM7.68905 17.7061L9.6586 17.3584L9.65849 17.3578L7.68905 17.7061ZM5.98847 20.7574L5.20723 18.9163L5.20717 18.9163L5.98847 20.7574ZM2.56392 19.8273L4.17503 18.6423L4.17501 18.6423L2.56392 19.8273ZM2.67691 16.2963L1.14234 15.0136L1.1423 15.0137L2.67691 16.2963ZM6.10971 15.5859L7.03099 13.8108L7.03096 13.8107L6.10971 15.5859ZM6.98905 15.5409L8.07548 17.2201L8.07578 17.2199L6.98905 15.5409ZM12.5053 15.2704L12.5219 17.2704L12.5221 17.2704L12.5053 15.2704ZM14.3744 13.3689L12.3745 13.3857V13.3857L14.3744 13.3689ZM12.4962 11.5073L12.487 13.5073L12.487 13.5073L12.4962 11.5073ZM10.6047 13.4001L12.6047 13.3976V13.3975L10.6047 13.4001ZM13.4174 4.84976L11.4178 4.88933L11.4178 4.88944L13.4174 4.84976ZM12.4689 3.94386L12.4325 1.94419L12.4325 1.94419L12.4689 3.94386ZM11.561 4.8908L13.5606 4.85247L13.5606 4.85237L11.561 4.8908ZM12.5102 5.81053L12.4567 3.81125L12.4567 3.81125L12.5102 5.81053ZM4.84953 19.0602L4.81413 21.0599H4.81413L4.84953 19.0602ZM5.80052 18.163L3.80119 18.1111L3.80118 18.1113L5.80052 18.163ZM4.86468 17.1931L4.85337 15.1931L4.85325 15.1931L4.86468 17.1931ZM3.92328 18.1244L1.92342 18.1009L1.92342 18.101L3.92328 18.1244ZM20.1278 19.0603L20.0959 17.0605L20.0958 17.0605L20.1278 19.0603ZM21.0559 18.1262L23.0558 18.1071L23.0558 18.107L21.0559 18.1262ZM20.1163 17.1931L20.1012 19.193H20.1013L20.1163 17.1931ZM19.1787 18.1612L17.1792 18.2084L17.1792 18.2084L19.1787 18.1612ZM10.7748 14.0876C10.6228 13.2803 10.7347 12.8202 10.8783 12.5489C11.0201 12.2811 11.3247 11.9475 12.0418 11.6445L10.4851 7.95986C9.1559 8.52142 8.02238 9.39424 7.34309 10.6774C6.66567 11.9571 6.57362 13.3925 6.84388 14.8278L10.7748 14.0876ZM12.0419 11.6445C12.5945 11.4109 12.9162 11.0118 13.0639 10.7979C13.2316 10.5548 13.3903 10.2355 13.4664 9.86301L9.54756 9.06148C9.59774 8.81616 9.69091 8.64303 9.77148 8.52626C9.81839 8.45827 9.88732 8.37128 9.98588 8.27995C10.0794 8.19326 10.2435 8.06196 10.4849 7.95993L12.0419 11.6445ZM13.4664 9.86316C13.5392 9.50737 13.5252 9.19242 13.521 9.08037C13.5177 8.99142 13.5169 8.98836 13.5163 8.95825C13.516 8.94355 13.5173 8.96982 13.5132 9.01703L9.52829 8.66938C9.5152 8.81937 9.51533 8.94954 9.51714 9.03909C9.51806 9.0846 9.51959 9.12589 9.52082 9.15665C9.52242 9.19679 9.52285 9.20464 9.5238 9.23002C9.52527 9.26936 9.52422 9.26328 9.52502 9.24061C9.52591 9.21504 9.52948 9.14984 9.54759 9.06133L13.4664 9.86316ZM13.5132 9.0169C13.5515 8.57749 13.5874 7.87671 13.3154 7.14606C13.0152 6.33943 12.4462 5.7555 11.7558 5.33428L9.67262 8.74904C9.73813 8.789 9.7286 8.79401 9.68981 8.75029C9.67019 8.72817 9.6467 8.69762 9.6234 8.6589C9.60003 8.62006 9.58107 8.58 9.56667 8.54132C9.53769 8.46347 9.53705 8.41786 9.53823 8.43688C9.53885 8.44698 9.53967 8.46994 9.53846 8.51001C9.53724 8.55029 9.53417 8.60185 9.52828 8.6695L13.5132 9.0169ZM11.7559 5.33435C11.7168 5.31051 11.6587 5.26009 11.6239 5.1155C11.5854 4.95506 11.5972 4.74103 11.6821 4.54286L8.00551 2.96726C7.22078 4.79841 7.51262 7.43115 9.67251 8.74897L11.7559 5.33435ZM11.6821 4.54286C11.8358 4.18429 12.2309 3.96784 12.5685 4.00404L12.9949 0.0268366C10.8775 -0.200176 8.8379 1.02489 8.00551 2.96726L11.6821 4.54286ZM12.5684 4.00403C12.9505 4.04502 13.2795 4.34332 13.3548 4.73219L17.2818 3.97158C16.874 1.8659 15.1313 0.256031 12.995 0.0268511L12.5684 4.00403ZM13.3548 4.73232C13.4159 5.04727 13.2466 5.42896 12.9059 5.59848L14.6881 9.17954C16.6255 8.21538 17.6874 6.06504 17.2818 3.97145L13.3548 4.73232ZM12.9057 5.5986C12.5924 5.75456 12.1163 6.05056 11.788 6.61659C11.4609 7.18045 11.4438 7.73257 11.4574 8.04715L15.4536 7.87385C15.455 7.90514 15.4704 8.24031 15.248 8.62364C15.0244 9.00915 14.7252 9.16105 14.6883 9.17943L12.9057 5.5986ZM11.4574 8.04725C11.4654 8.23101 11.4641 8.42253 11.4623 8.6784C11.4606 8.91617 11.4583 9.21524 11.4737 9.52397L15.4687 9.32539C15.4599 9.14704 15.4604 8.95774 15.4622 8.70704C15.4638 8.47446 15.4668 8.17742 15.4536 7.87375L11.4574 8.04725ZM11.4737 9.52408C11.4958 9.96792 11.6435 10.3422 11.7847 10.5994C11.8996 10.8087 12.2124 11.3161 12.8433 11.6065L14.5155 7.97276C14.8104 8.10847 14.9945 8.28713 15.0852 8.3873C15.1847 8.49714 15.2495 8.59872 15.2909 8.67407C15.3562 8.7931 15.453 9.00939 15.4687 9.32528L11.4737 9.52408ZM12.8435 11.6066C13.6878 11.995 13.9913 12.3411 14.1184 12.5781C14.2415 12.8079 14.3579 13.2314 14.2029 14.113L18.1425 14.8055C18.3911 13.3915 18.3325 11.9731 17.6439 10.6885C16.9592 9.41111 15.8143 8.57028 14.5153 7.97267L12.8435 11.6066ZM15.1577 16.1826C15.8131 16.5686 16.5641 17.0266 17.3165 17.4375L19.2339 13.9271C18.5573 13.5575 17.9173 13.1657 17.1877 12.736L15.1577 16.1826ZM17.3169 17.4377C17.9642 17.7911 18.5949 17.7128 18.8099 17.6794C19.1076 17.6331 19.4035 17.5364 19.6646 17.4014L17.8276 13.8482C17.9539 13.7829 18.0715 13.7461 18.196 13.7268C18.264 13.7162 18.38 13.7037 18.5306 13.7153C18.6708 13.726 18.9363 13.7646 19.2336 13.9268L17.3169 17.4377ZM19.6642 17.4016C20.3184 17.0636 20.9798 17.5049 20.9997 18.1428L24.9977 18.0182C24.8836 14.3577 21.0233 12.1969 17.828 13.848L19.6642 17.4016ZM20.9997 18.1428C21.0103 18.4825 20.7142 18.9291 20.1597 18.9965L20.6427 22.9673C23.1005 22.6683 25.0775 20.576 24.9977 18.0181L20.9997 18.1428ZM20.1597 18.9965C19.8106 19.039 19.358 18.7086 19.2912 18.3733L15.3684 19.1557C15.8491 21.5655 18.2408 23.2594 20.6427 22.9673L20.1597 18.9965ZM19.2912 18.3734C19.278 18.3074 19.2679 18.1636 19.2918 17.878L15.3056 17.5456C15.2713 17.9568 15.2458 18.5405 15.3684 19.1555L19.2912 18.3734ZM19.2918 17.8778C19.3043 17.7268 19.3489 17.2386 19.1455 16.7051C18.9021 16.0669 18.4433 15.6802 18.0447 15.4585L16.1 18.9539C15.9249 18.8565 15.589 18.6053 15.4079 18.1301C15.2666 17.7597 15.3125 17.4621 15.3056 17.5458L19.2918 17.8778ZM18.0449 15.4585C17.7992 15.3218 17.5565 15.1758 17.2718 15.0058C16.9984 14.8425 16.6893 14.659 16.3647 14.4845L14.4701 18.0074C14.707 18.1347 14.9467 18.2763 15.221 18.4401C15.4841 18.5972 15.7882 18.7804 16.0998 18.9538L18.0449 15.4585ZM16.3642 14.4842C15.8134 14.1882 15.2719 14.1982 15.0075 14.2226C14.737 14.2476 14.2215 14.3377 13.7456 14.7078L16.2012 17.8653C15.9881 18.0311 15.7918 18.1069 15.6862 18.1411C15.5683 18.1793 15.4636 18.1975 15.3756 18.2056C15.2879 18.2137 15.1791 18.2153 15.0519 18.1984C14.9383 18.1834 14.7208 18.1421 14.4706 18.0076L16.3642 14.4842ZM13.7461 14.7074C13.2704 15.0772 12.841 15.1995 12.4867 15.1997C12.1331 15.2 11.7087 15.0788 11.2407 14.7134L8.7791 17.8663C9.86658 18.7153 11.1414 19.2007 12.4895 19.1997C13.8368 19.1988 15.1115 18.7123 16.2008 17.8656L13.7461 14.7074ZM11.2404 14.7131C10.7784 14.3526 10.2778 14.2553 10.0043 14.226C9.74589 14.1984 9.18897 14.1768 8.6212 14.4815L10.5124 18.0061C10.2518 18.1459 10.0247 18.1862 9.90813 18.2003C9.77705 18.2161 9.66629 18.2127 9.57909 18.2034C9.49116 18.194 9.38881 18.1745 9.27486 18.1361C9.17259 18.1017 8.98451 18.0266 8.77943 17.8665L11.2404 14.7131ZM8.62065 14.4818C8.29598 14.6561 7.98702 14.8391 7.71257 15.0029C7.42695 15.1734 7.18345 15.3201 6.93604 15.4584L8.88791 18.9498C9.1972 18.7769 9.5003 18.5942 9.76253 18.4377C10.0359 18.2746 10.276 18.1331 10.513 18.0058L8.62065 14.4818ZM6.93603 15.4584C6.61127 15.64 6.12937 15.9915 5.85868 16.6347C5.60442 17.2389 5.67273 17.7893 5.7196 18.0544L9.65849 17.3578C9.66259 17.381 9.73256 17.7418 9.54555 18.1862C9.34212 18.6696 8.99307 18.891 8.88792 18.9498L6.93603 15.4584ZM5.7195 18.0538C5.77509 18.3687 5.60295 18.7484 5.20723 18.9163L6.76972 22.5985C8.80093 21.7366 10.0528 19.5916 9.6586 17.3584L5.7195 18.0538ZM5.20717 18.9163C4.83134 19.0758 4.40224 18.9512 4.17503 18.6423L0.952803 21.0124C2.28808 22.8277 4.70289 23.4756 6.76977 22.5985L5.20717 18.9163ZM4.17501 18.6423C3.93117 18.3108 3.94107 17.9024 4.21151 17.5788L1.1423 15.0137C-0.305222 16.7457 -0.386617 19.1914 0.952827 21.0124L4.17501 18.6423ZM4.21148 17.5789C4.46389 17.2769 4.88969 17.2061 5.18846 17.3611L7.03096 13.8107C5.00557 12.7596 2.55355 13.3252 1.14234 15.0136L4.21148 17.5789ZM5.18843 17.3611C5.55293 17.5503 6.06447 17.7386 6.68618 17.7001C7.29914 17.6621 7.76941 17.4181 8.07548 17.2201L5.90263 13.8617C5.90282 13.8616 6.10371 13.7285 6.43861 13.7077C6.78226 13.6864 7.00708 13.7983 7.03099 13.8108L5.18843 17.3611ZM8.07578 17.2199C8.62548 16.8641 9.15479 16.5757 9.82495 16.1806L7.79373 12.7347C7.26082 13.0489 6.54367 13.4468 5.90233 13.8619L8.07578 17.2199ZM12.5221 17.2704C14.6924 17.2522 16.3926 15.5211 16.3743 13.352L12.3745 13.3857C12.3745 13.3934 12.3734 13.3851 12.3807 13.3671C12.3876 13.35 12.3993 13.331 12.4162 13.3138C12.4331 13.2966 12.4519 13.2845 12.4692 13.2772C12.4873 13.2695 12.4959 13.2704 12.4886 13.2705L12.5221 17.2704ZM16.3743 13.3521C16.3565 11.224 14.6198 9.51701 12.5054 9.5073L12.487 13.5073C12.4552 13.5071 12.4265 13.4924 12.4102 13.4763C12.3938 13.4599 12.3748 13.4268 12.3745 13.3857L16.3743 13.3521ZM12.5054 9.5073C10.3434 9.49733 8.60194 11.2519 8.6047 13.4027L12.6047 13.3975C12.6048 13.4497 12.5586 13.5076 12.487 13.5073L12.5054 9.5073ZM8.6047 13.4026C8.60747 15.5825 10.36 17.2883 12.5219 17.2704L12.4887 13.2705C12.4842 13.2705 12.4933 13.27 12.5102 13.2768C12.5262 13.2833 12.5435 13.2941 12.5592 13.3096C12.575 13.3251 12.5874 13.3436 12.5955 13.3628C12.5995 13.3723 12.6019 13.3807 12.6033 13.3875C12.6047 13.3944 12.6047 13.398 12.6047 13.3976L8.6047 13.4026ZM15.417 4.81019C15.3844 3.16204 14.0552 1.91466 12.4325 1.94419L12.5053 5.94353C12.2704 5.9478 11.9881 5.86019 11.7583 5.64063C11.5276 5.4203 11.4227 5.13635 11.4178 4.88933L15.417 4.81019ZM12.4325 1.94419C10.7894 1.9741 9.53005 3.30081 9.56135 4.92924L13.5606 4.85237C13.5653 5.09623 13.4735 5.37906 13.2562 5.60572C13.0385 5.83279 12.7563 5.93896 12.5053 5.94353L12.4325 1.94419ZM9.56135 4.92914C9.59197 6.52667 10.9193 7.85379 12.5636 7.80982L12.4567 3.81125C13.0867 3.7944 13.5497 4.28406 13.5606 4.85247L9.56135 4.92914ZM12.5636 7.80982C14.1967 7.76617 15.4487 6.40848 15.417 4.81008L11.4178 4.88944C11.4067 4.33051 11.8518 3.82742 12.4567 3.81125L12.5636 7.80982ZM4.81413 21.0599C6.4086 21.0881 7.75737 19.8567 7.79985 18.2147L3.80118 18.1113C3.81694 17.5024 4.33891 17.0508 4.88492 17.0605L4.81413 21.0599ZM7.79984 18.2149C7.84211 16.5872 6.53269 15.1836 4.85337 15.1931L4.87599 19.193C4.23779 19.1966 3.78637 18.682 3.80119 18.1111L7.79984 18.2149ZM4.85325 15.1931C3.27149 15.2021 1.94215 16.5042 1.92342 18.1009L5.92315 18.1478C5.91922 18.4823 5.7746 18.7377 5.61546 18.8951C5.4562 19.0527 5.20303 19.1911 4.87611 19.193L4.85325 15.1931ZM1.92342 18.101C1.90434 19.7361 3.24153 21.032 4.81413 21.0599L4.88492 17.0605C5.43936 17.0703 5.93057 17.5116 5.92315 18.1477L1.92342 18.101ZM20.1597 21.06C21.7322 21.0349 23.0714 19.7418 23.0558 18.1071L19.056 18.1452C19.05 17.5095 19.5416 17.0694 20.0959 17.0605L20.1597 21.06ZM23.0558 18.107C23.0405 16.51 21.7127 15.205 20.1313 15.1931L20.1013 19.193C19.7734 19.1905 19.5206 19.0511 19.3622 18.8938C19.204 18.7367 19.0592 18.481 19.056 18.1453L23.0558 18.107ZM20.1314 15.1931C18.4515 15.1804 17.1409 16.5821 17.1792 18.2084L21.1781 18.1141C21.1916 18.6835 20.7403 19.1978 20.1012 19.193L20.1314 15.1931ZM17.1792 18.2084C17.218 19.8505 18.5646 21.0855 20.1598 21.06L20.0958 17.0605C20.6427 17.0518 21.1637 17.5049 21.1781 18.114L17.1792 18.2084Z" fill="black" mask="url(#path-1-outside-1_3310_30584)"/>
</g>
</svg>
