<svg width="47" height="77" viewBox="0 0 47 77" fill="none" xmlns="http://www.w3.org/2000/svg">
<path d="M43.8658 46.1219L43.8658 43.0624L40.8018 43.0624L40.8018 40.003L37.7377 40.003L37.7377 36.9435L34.6737 36.9435L34.6737 33.884L31.6096 33.884C31.6096 27.9227 31.6096 21.4793 31.6096 15.5211L34.6737 15.5211C34.6737 12.7954 34.6737 9.06532 34.6737 6.33962L31.6096 6.33962C31.6096 4.81299 31.6096 1.74426 31.6096 0.217621C26.6948 0.217621 21.198 0.217621 16.2832 0.217621C16.2832 1.74426 16.2832 4.81299 16.2832 6.33962L13.2191 6.33962C13.2191 9.06532 13.2191 12.7954 13.2191 15.5211L16.2832 15.5211C16.2832 21.4824 16.2832 27.9258 16.2832 33.884L13.2191 33.884L13.2191 36.9435L10.1551 36.9435L10.1551 40.003L7.09104 40.003L7.09104 43.0624L4.027 43.0624L4.027 46.1219L0.962952 46.1219C0.962952 53.1277 0.962952 60.5415 0.962952 67.5474L4.027 67.5474L4.027 70.6068L7.09104 70.6068L7.09104 73.6663L10.1551 73.6663L10.1551 76.7257C19.2451 76.7257 28.6539 76.7257 37.7408 76.7257L37.7408 73.6663L40.8048 73.6663L40.8048 70.6068L43.8689 70.6068L43.8689 67.5474L46.9329 67.5474C46.9329 60.5415 46.9329 53.1277 46.9329 46.1219L43.8658 46.1219Z" fill="black"/>
<path d="M40.8013 46.1225L40.8013 43.0631L37.7373 43.0631L37.7373 40.0036L34.6732 40.0036L34.6732 36.9442L31.6092 36.9442L31.6092 33.8847L28.5452 33.8847C28.5452 27.9234 28.5452 21.48 28.5452 15.5218L31.6092 15.5218C31.6092 13.9951 31.6092 10.9264 31.6092 9.39976L28.5452 9.39976C28.5452 7.87312 28.5452 8.10491 28.5452 6.58136C25.8154 6.58136 22.0797 6.58136 19.3499 6.58136C19.3499 8.108 19.3499 7.87621 19.3499 9.39976L16.2859 9.39976C16.2859 10.9264 16.2859 13.9951 16.2859 15.5218L19.3499 15.5218C19.3499 21.4831 19.3499 27.9265 19.3499 33.8847L16.2859 33.8847L16.2859 36.9442L13.2218 36.9442L13.2218 40.0036L10.1578 40.0036L10.1578 43.0631L7.09371 43.0631L7.09371 46.1225L4.02966 46.1225C4.02966 53.1284 4.02966 60.5422 4.02966 67.548L7.09371 67.548L7.09371 70.6075L10.1578 70.6075L10.1578 73.6669C19.2478 73.6669 28.6565 73.6669 37.7435 73.6669L37.7435 70.6075L40.8075 70.6075L40.8075 67.548L43.8716 67.548C43.8716 60.5422 43.8716 53.1284 43.8716 46.1225L40.8013 46.1225Z" fill="#8C0096"/>
<path d="M40.8022 46.1226L40.8022 43.0631L37.7381 43.0631L37.7381 40.0036L34.6741 40.0036L34.6741 36.9442L31.61 36.9442L31.61 33.8847L28.546 33.8847C28.546 27.9234 28.546 21.48 28.546 15.5218L31.61 15.5218C31.61 13.9951 31.61 10.9264 31.61 9.39976L28.546 9.39976C28.546 7.87312 28.546 8.10491 28.546 6.58136C25.8162 6.58136 22.0805 6.58136 19.3507 6.58136C19.3507 8.108 19.3507 7.87621 19.3507 9.39976L16.2867 9.39976C16.2867 10.9264 16.2867 13.9951 16.2867 15.5218L19.3507 15.5218C19.3507 21.4831 19.3507 27.9265 19.3507 33.8847L16.2867 33.8847L16.2867 36.9442L13.2226 36.9442C13.2226 38.4708 13.2226 41.5395 13.2226 43.0662L10.1586 43.0662L10.1586 46.1256L7.09454 46.1256C7.09454 53.1315 7.09454 60.5453 7.09454 67.5511L10.1586 67.5511L10.1586 70.6106L13.2226 70.6106L13.2226 73.67C21.2758 73.67 29.6911 73.67 37.7443 73.67L37.7443 70.6106L40.8083 70.6106L40.8083 67.5511L43.8724 67.5511C43.8724 60.5453 43.8724 53.1315 43.8724 46.1256L40.8022 46.1256L40.8022 46.1226Z" fill="#B600C8"/>
<path d="M40.799 49.1807L40.799 46.1212L37.7349 46.1212L37.7349 43.0618L34.6709 43.0618L34.6709 40.0023C30.83 40.0023 26.2525 40.0023 22.4085 40.0023L22.4085 43.0618L19.3445 43.0618L19.3445 46.1212L16.2804 46.1212L16.2804 49.1807L13.2164 49.1807C13.2164 54.0882 13.2164 59.5767 13.2164 64.4842L16.2804 64.4842L16.2804 67.5436L19.3445 67.5436L19.3445 70.6031C25.3147 70.6031 31.7678 70.6031 37.7349 70.6031L37.7349 67.5436L40.799 67.5436L40.799 64.4842L43.863 64.4842C43.863 59.5767 43.863 54.0882 43.863 49.1807L40.799 49.1807Z" fill="#FF00FF"/>
<path d="M31.6056 36.9436L31.6056 33.8841L28.5415 33.8841C28.5415 27.9228 28.5415 21.4794 28.5415 15.5212L31.6056 15.5212C31.6056 13.9946 31.6056 10.9258 31.6056 9.3992L28.5415 9.3992C28.5415 7.87256 28.5415 7.21123 28.5415 5.68768C25.8117 5.68768 22.0761 5.68768 19.3463 5.68768C19.3463 7.21432 19.3463 7.87565 19.3463 9.3992L16.2822 9.3992C16.2822 10.9258 16.2822 13.9946 16.2822 15.5212L19.3463 15.5212C19.3463 21.4825 19.3463 27.9259 19.3463 33.8841L16.2822 33.8841L16.2822 36.9436L13.2182 36.9436L13.2182 40.0031C20.2346 40.0031 27.6594 40.0031 34.6758 40.0031L34.6758 36.9436L31.6056 36.9436Z" fill="#70B3C4"/>
<path d="M16.2792 9.39633C16.2792 10.923 16.2792 13.9917 16.2792 15.5183C21.194 15.5183 26.6908 15.5183 31.6056 15.5183C31.6056 13.9917 31.6056 10.923 31.6056 9.39633C31.6056 9.39633 20.1201 9.39633 16.2792 9.39633Z" fill="#80849F"/>
<path d="M31.606 36.9416L31.606 33.8822L28.5419 33.8822C28.5419 27.9209 28.5419 21.4774 28.5419 15.5192C27.013 15.5192 23.9397 15.5192 22.4108 15.5192C22.4108 23.5603 22.4108 31.9631 22.4108 40.0042C26.2517 40.0042 30.8292 40.0042 34.6731 40.0042L34.6731 36.9447L31.606 36.9447L31.606 36.9416Z" fill="#B9DAE2"/>
<path d="M22.4109 9.39728C22.4109 10.9239 22.4109 13.9926 22.4109 15.5193C23.9397 15.5193 27.0128 15.5193 28.5416 15.5193C28.5416 13.9926 28.5416 10.9239 28.5416 9.39728L22.4109 9.39728Z" fill="#E1DCDC"/>
<path d="M19.3446 3.27335C19.3446 4.79999 19.3446 7.86871 19.3446 9.39535C22.0744 9.39535 25.8101 9.39535 28.5399 9.39535C28.5399 7.86871 28.5399 4.79999 28.5399 3.27335C28.5399 3.27335 20.8735 3.27335 19.3446 3.27335Z" fill="#874B00"/>
<path d="M22.4113 3.27335C22.4113 4.79999 22.4113 7.86871 22.4113 9.39535C23.9401 9.39535 27.0132 9.39535 28.542 9.39535C28.542 7.86871 28.542 4.79999 28.542 3.27335L22.4113 3.27335Z" fill="#AC824E"/>
<path d="M33.491 49.1822L33.491 47.2692C31.7857 47.2692 29.449 47.2692 27.7436 47.2692L27.7436 49.1822L25.8278 49.1822L25.8278 51.0951L23.912 51.0951L23.912 49.1822L21.9962 49.1822L21.9962 47.2692C20.2909 47.2692 17.9541 47.2692 16.2488 47.2692L16.2488 49.1822L14.333 49.1822C14.333 51.5803 14.333 54.4358 14.333 56.8339L16.2488 56.8339L16.2488 58.7468L18.1646 58.7468L18.1646 60.6598L20.0804 60.6598L20.0804 62.5727L21.9962 62.5727L21.9962 64.4856L23.912 64.4856L23.912 66.3986L25.8278 66.3986L25.8278 64.4856L27.7436 64.4856L27.7436 62.5727L29.6594 62.5727L29.6594 60.6598L31.5752 60.6598L31.5752 58.7468L33.491 58.7468L33.491 56.8339L35.4068 56.8339C35.4068 54.4358 35.4068 51.5803 35.4068 49.1822L33.491 49.1822Z" fill="white"/>
</svg>
