<svg width="18" height="25" viewBox="0 0 18 25" fill="none" xmlns="http://www.w3.org/2000/svg">
<g opacity="0.5">
<path d="M7.27854 2.3402L8.97982 2.3402L8.97982 4.0476L7.27854 4.0476L7.27854 2.3402ZM7.27854 7.46238L8.97982 7.46238L8.97982 9.16977L7.27854 9.16977L7.27854 7.46238ZM8.97982 5.75499L10.6811 5.75499L10.6811 7.46238L8.97982 7.46238L8.97982 5.75499ZM10.6811 0.632812L12.3824 0.632812L12.3824 2.3402L10.6811 2.3402L10.6811 0.632812ZM10.6811 9.16977L8.97982 9.16977L8.97982 10.8772L5.57726 10.8772L5.57726 14.2919L3.87598 14.2919L3.87598 19.4141L5.57726 19.4141L5.57726 21.1215L10.6811 21.1215L10.6811 19.4141L12.3824 19.4141L12.3824 14.2919L10.6811 14.2919L10.6811 9.16977Z" fill="#334A6B"/>
<path d="M14.0852 14.2937L14.0852 12.5863L12.3839 12.5863L12.3839 10.8789L10.6827 10.8789L10.6827 14.2937L12.3839 14.2937L12.3839 19.4159L10.6827 19.4159L10.6827 21.1233L5.57883 21.1233L5.57883 19.4159L3.87755 19.4159L3.87755 14.2937L2.17627 14.2937L2.17627 21.1233L3.87755 21.1233L3.87755 22.8306L14.0852 22.8306L14.0852 21.1233L15.7865 21.1233L15.7865 14.2937L14.0852 14.2937Z" fill="#26394F"/>
<path d="M3.87842 12.5859L5.5797 12.5859L5.5797 14.2933L3.87842 14.2933L3.87842 12.5859Z" fill="#26394F"/>
<path d="M2.17735 12.5858L3.87863 12.5858L3.87863 14.2932L2.17735 14.2932L2.17735 12.5858ZM2.17735 21.1227L3.87863 21.1227L3.87863 22.8301L2.17735 22.8301L2.17735 21.1227ZM5.57991 5.75622L12.385 5.75622L12.385 12.5858L14.0863 12.5858L14.0863 5.75622L15.7876 5.75622L15.7876 4.04883L2.17735 4.04883L2.17735 5.75622L3.87863 5.75622L3.87863 12.5858L5.57991 12.5858L5.57991 5.75622ZM0.476074 14.2932L2.17735 14.2932L2.17735 21.1227L0.476074 21.1227L0.476074 14.2932ZM15.7876 14.2932L17.4889 14.2932L17.4889 21.1227L15.7876 21.1227L15.7876 14.2932ZM14.0863 21.1227L15.7876 21.1227L15.7876 22.8301L14.0863 22.8301L14.0863 21.1227ZM14.0863 12.5858L15.7876 12.5858L15.7876 14.2932L14.0863 14.2932L14.0863 12.5858ZM3.87863 22.8301L14.0863 22.8301L14.0863 24.5375L3.87863 24.5375L3.87863 22.8301Z" fill="#040E26"/>
</g>
</svg>
