<svg width="18" height="25" viewBox="0 0 18 25" fill="none" xmlns="http://www.w3.org/2000/svg">
<path d="M9.27463 7.69567L9.27463 5.98828L5.87207 5.98828L5.87207 11.1105L9.27463 11.1105L9.27463 9.40307L7.57335 9.40307L7.57335 7.69567L9.27463 7.69567Z" fill="#B1D0EA"/>
<path d="M10.9757 5.98828L10.9757 7.69567L9.27441 7.69567L9.27441 9.40307L10.9757 9.40307L10.9757 11.1105L12.677 11.1105L12.677 5.98828L10.9757 5.98828Z" fill="#6EA8D8"/>
<path d="M7.57297 2.57458L9.27425 2.57458L9.27425 4.28197L7.57297 4.28197L7.57297 2.57458ZM7.57297 7.69676L9.27425 7.69676L9.27425 9.40415L7.57297 9.40415L7.57297 7.69676ZM9.27425 5.98936L10.9755 5.98936L10.9755 7.69676L9.27425 7.69676L9.27425 5.98936ZM10.9755 0.867187L12.6768 0.867187L12.6768 2.57458L10.9755 2.57458L10.9755 0.867187ZM10.9755 9.40415L9.27425 9.40415L9.27425 11.1115L5.87169 11.1115L5.87169 14.5263L4.17041 14.5263L4.17041 19.6485L5.87169 19.6485L5.87169 21.3559L10.9755 21.3559L10.9755 19.6485L12.6768 19.6485L12.6768 14.5263L10.9755 14.5263L10.9755 9.40415Z" fill="#FA34F3"/>
<path d="M14.3782 14.5242L14.3782 12.8168L12.6769 12.8168L12.6769 11.1094L10.9756 11.1094L10.9756 14.5242L12.6769 14.5242L12.6769 19.6463L10.9756 19.6463L10.9756 21.3537L5.8718 21.3537L5.8718 19.6463L4.17052 19.6463L4.17052 14.5242L2.46924 14.5242L2.46924 21.3537L4.17052 21.3537L4.17052 23.0611L14.3782 23.0611L14.3782 21.3537L16.0795 21.3537L16.0795 14.5242L14.3782 14.5242Z" fill="#BE00AF"/>
<path d="M4.17139 12.8164L5.87267 12.8164L5.87267 14.5238L4.17139 14.5238L4.17139 12.8164Z" fill="#BE00AF"/>
<path d="M2.47032 12.8182L4.1716 12.8182L4.1716 14.5256L2.47032 14.5256L2.47032 12.8182ZM2.47032 21.3552L4.1716 21.3552L4.1716 23.0626L2.47032 23.0626L2.47032 21.3552ZM5.87288 5.98864L12.678 5.98864L12.678 12.8182L14.3793 12.8182L14.3793 5.98864L16.0806 5.98864L16.0806 4.28125L2.47032 4.28125L2.47032 5.98864L4.1716 5.98864L4.1716 12.8182L5.87288 12.8182L5.87288 5.98864ZM0.769043 14.5256L2.47032 14.5256L2.47032 21.3552L0.769043 21.3552L0.769043 14.5256ZM16.0806 14.5256L17.7818 14.5256L17.7818 21.3552L16.0806 21.3552L16.0806 14.5256ZM14.3793 21.3552L16.0806 21.3552L16.0806 23.0626L14.3793 23.0626L14.3793 21.3552ZM14.3793 12.8182L16.0806 12.8182L16.0806 14.5256L14.3793 14.5256L14.3793 12.8182ZM4.1716 23.0626L14.3793 23.0626L14.3793 24.77L4.1716 24.77L4.1716 23.0626Z" fill="black"/>
</svg>
