<svg width="47" height="78" viewBox="0 0 47 78" fill="none" xmlns="http://www.w3.org/2000/svg">
<path d="M43.1274 46.9579L43.1274 43.8934L40.0593 43.8934L40.0593 40.829L36.9911 40.829L36.9911 37.7646L33.923 37.7646L33.923 34.7002L30.8548 34.7002C30.8548 28.7292 30.8548 22.2754 30.8548 16.3075L33.923 16.3075C33.923 13.5774 33.923 9.84128 33.923 7.11117L30.8548 7.11117C30.8548 5.58206 30.8548 2.50836 30.8548 0.979248C25.9334 0.979248 20.4293 0.979248 15.5079 0.979248C15.5079 2.50836 15.5079 5.58206 15.5079 7.11117L12.4397 7.11117C12.4397 9.84128 12.4397 13.5774 12.4397 16.3075L15.5079 16.3075C15.5079 22.2785 15.5079 28.7323 15.5079 34.7002L12.4397 34.7002L12.4397 37.7646L9.37157 37.7646L9.37157 40.829L6.30342 40.829L6.30342 43.8934L3.23527 43.8934L3.23527 46.9579L0.167114 46.9579C0.167114 53.9751 0.167114 61.4008 0.167114 68.418L3.23527 68.418L3.23527 71.4825L6.30342 71.4825L6.30342 74.5469L9.37157 74.5469L9.37157 77.6113C18.4737 77.6113 27.8951 77.6113 36.9942 77.6113L36.9942 74.5469L40.0624 74.5469L40.0624 71.4825L43.1305 71.4825L43.1305 68.418L46.1987 68.418C46.1987 61.4008 46.1987 53.9751 46.1987 46.9579L43.1274 46.9579Z" fill="black"/>
<path d="M40.0587 46.9567L40.0587 43.8923L36.9905 43.8923L36.9905 40.8279L33.9224 40.8279L33.9224 37.7635L30.8542 37.7635L30.8542 34.6991L27.7861 34.6991C27.7861 28.7281 27.7861 22.2742 27.7861 16.3064L30.8542 16.3064C30.8542 14.7773 30.8542 11.7035 30.8542 10.1744L27.7861 10.1744C27.7861 8.64533 27.7861 8.87749 27.7861 7.35147C25.0526 7.35147 21.312 7.35147 18.5785 7.35147C18.5785 8.88058 18.5785 8.64842 18.5785 10.1744L15.5104 10.1744C15.5104 11.7035 15.5104 14.7773 15.5104 16.3064L18.5785 16.3064C18.5785 22.2773 18.5785 28.7312 18.5785 34.6991L15.5104 34.6991L15.5104 37.7635L12.4422 37.7635L12.4422 40.8279L9.3741 40.8279L9.3741 43.8923L6.30594 43.8923L6.30594 46.9567L3.23779 46.9567C3.23779 53.9739 3.23779 61.3997 3.23779 68.4169L6.30594 68.4169L6.30594 71.4813L9.3741 71.4813L9.3741 74.5457C18.4763 74.5457 27.8977 74.5457 36.9967 74.5457L36.9967 71.4813L40.0649 71.4813L40.0649 68.4169L43.133 68.4169C43.133 61.3997 43.133 53.9739 43.133 46.9567L40.0587 46.9567Z" fill="#0064FF"/>
<path d="M40.0595 46.9567L40.0595 43.8923L36.9914 43.8923L36.9914 40.8279L33.9232 40.8279L33.9232 37.7635L30.8551 37.7635L30.8551 34.6991L27.7869 34.6991C27.7869 28.7281 27.7869 22.2742 27.7869 16.3064L30.8551 16.3064C30.8551 14.7773 30.8551 11.7036 30.8551 10.1744L27.7869 10.1744C27.7869 8.64533 27.7869 8.87749 27.7869 7.35147C25.0535 7.35147 21.3128 7.35147 18.5794 7.35147C18.5794 8.88058 18.5794 8.64842 18.5794 10.1744L15.5112 10.1744C15.5112 11.7036 15.5112 14.7773 15.5112 16.3064L18.5794 16.3064C18.5794 22.2773 18.5794 28.7312 18.5794 34.6991L15.5112 34.6991L15.5112 37.7635L12.4431 37.7635C12.4431 39.2926 12.4431 42.3663 12.4431 43.8954L9.37491 43.8954L9.37491 46.9598L6.30676 46.9598C6.30676 53.977 6.30676 61.4028 6.30676 68.42L9.37491 68.42L9.37491 71.4844L12.4431 71.4844L12.4431 74.5488C20.507 74.5488 28.9336 74.5488 36.9976 74.5488L36.9976 71.4844L40.0657 71.4844L40.0657 68.42L43.1339 68.42C43.1339 61.4028 43.1339 53.977 43.1339 46.9598L40.0595 46.9598L40.0595 46.9567Z" fill="#00AFFF"/>
<path d="M40.0586 50.0207L40.0586 46.9563L36.9905 46.9563L36.9905 43.8919L33.9223 43.8919L33.9223 40.8275C30.0763 40.8275 25.4927 40.8275 21.6435 40.8275L21.6435 43.8919L18.5754 43.8919L18.5754 46.9563L15.5072 46.9563L15.5072 50.0207L12.4391 50.0207C12.4391 54.9362 12.4391 60.4335 12.4391 65.349L15.5072 65.349L15.5072 68.4134L18.5754 68.4134L18.5754 71.4778C24.5536 71.4778 31.0153 71.4778 36.9905 71.4778L36.9905 68.4134L40.0586 68.4134L40.0586 65.349L43.1268 65.349C43.1268 60.4335 43.1268 54.9362 43.1268 50.0207L40.0586 50.0207Z" fill="#00FFFF"/>
<path d="M30.8494 37.7648L30.8494 34.7004L27.7812 34.7004C27.7812 28.7294 27.7812 22.2755 27.7812 16.3077L30.8494 16.3077C30.8494 14.7786 30.8494 11.7049 30.8494 10.1757L27.7812 10.1757C27.7812 8.64663 27.7812 7.98424 27.7812 6.45822C25.0478 6.45822 21.3071 6.45822 18.5737 6.45822C18.5737 7.98733 18.5737 8.64973 18.5737 10.1757L15.5055 10.1757C15.5055 11.7049 15.5055 14.7786 15.5055 16.3077L18.5737 16.3077C18.5737 22.2786 18.5737 28.7325 18.5737 34.7004L15.5055 34.7004L15.5055 37.7648L12.4374 37.7648L12.4374 40.8292C19.4631 40.8292 26.898 40.8292 33.9237 40.8292L33.9237 37.7648L30.8494 37.7648Z" fill="#70B3C4"/>
<path d="M15.5031 10.1729C15.5031 11.702 15.5031 14.7757 15.5031 16.3048C20.4245 16.3048 25.9286 16.3048 30.85 16.3048C30.85 14.7757 30.85 11.702 30.85 10.1729C30.85 10.1729 19.3522 10.1729 15.5031 10.1729Z" fill="#80849F"/>
<path d="M30.8504 37.7628L30.8504 34.6984L27.7822 34.6984C27.7822 28.7274 27.7822 22.2736 27.7822 16.3057C26.2513 16.3057 23.1738 16.3057 21.6428 16.3057C21.6428 24.3598 21.6428 32.7762 21.6428 40.8303C25.4889 40.8303 30.0725 40.8303 33.9216 40.8303L33.9216 37.7659L30.8504 37.7659L30.8504 37.7628Z" fill="#B9DAE2"/>
<path d="M21.6424 10.1738C21.6424 11.7029 21.6424 14.7766 21.6424 16.3057C23.1732 16.3057 26.2504 16.3057 27.7813 16.3057C27.7813 14.7766 27.7813 11.7029 27.7813 10.1738L21.6424 10.1738Z" fill="#E1DCDC"/>
<path d="M18.5732 4.03998C18.5732 5.56909 18.5732 8.64279 18.5732 10.1719C21.3067 10.1719 25.0474 10.1719 27.7808 10.1719C27.7808 8.64279 27.7808 5.56909 27.7808 4.03998C27.7808 4.03998 20.1011 4.03998 18.5732 4.03998Z" fill="#874B00"/>
<path d="M21.6412 4.03998C21.6412 5.56909 21.6412 8.64279 21.6412 10.1719C23.1721 10.1719 26.2493 10.1719 27.7801 10.1719C27.7801 8.64279 27.7801 5.56909 27.7801 4.03998L21.6412 4.03998Z" fill="#AC824E"/>
<path d="M33.3591 55.7712C30.2848 55.7712 26.8416 55.7712 23.7673 55.7712C23.7673 54.8147 23.7673 52.8956 23.7673 51.9391L25.6856 51.9391C25.6856 50.9827 25.6856 49.0635 25.6856 48.1071L23.7673 48.1071L23.7673 50.0231L21.8489 50.0231L21.8489 51.9391L19.9305 51.9391L19.9305 53.8552L18.0121 53.8552L18.0121 55.7712L16.0938 55.7712L16.0938 57.6872L14.1754 57.6872L14.1754 59.6033C17.913 59.6033 21.9481 59.6033 25.6856 59.6033C25.6856 60.5597 25.6856 62.4789 25.6856 63.4353L23.7673 63.4353C23.7673 64.3918 23.7673 66.3109 23.7673 67.2674L25.6856 67.2674L25.6856 65.3514L27.604 65.3514L27.604 63.4353L29.5224 63.4353L29.5224 61.5193L31.4407 61.5193L31.4407 59.6033L33.3591 59.6033L33.3591 57.6872L35.2775 57.6872L35.2775 55.7712L33.3591 55.7712Z" fill="white"/>
</svg>
