<svg width="18" height="25" viewBox="0 0 18 25" fill="none" xmlns="http://www.w3.org/2000/svg">
<path d="M9.03879 7.69763L9.03879 5.99023L5.63623 5.99023L5.63623 11.1124L9.03879 11.1124L9.03879 9.40502L7.33751 9.40502L7.33751 7.69763L9.03879 7.69763Z" fill="#B1D0EA"/>
<path d="M10.7399 5.99023L10.7399 7.69763L9.03857 7.69763L9.03857 9.40502L10.7399 9.40502L10.7399 11.1124L12.4411 11.1124L12.4411 5.99023L10.7399 5.99023Z" fill="#6EA8D8"/>
<path d="M7.33762 2.57458L9.0389 2.57458L9.0389 4.28197L7.33762 4.28197L7.33762 2.57458ZM7.33762 7.69676L9.0389 7.69676L9.0389 9.40415L7.33762 9.40415L7.33762 7.69676ZM9.0389 5.98936L10.7402 5.98936L10.7402 7.69676L9.0389 7.69676L9.0389 5.98936ZM10.7402 0.867187L12.4415 0.867187L12.4415 2.57458L10.7402 2.57458L10.7402 0.867187ZM10.7402 9.40415L9.0389 9.40415L9.0389 11.1115L5.63634 11.1115L5.63634 14.5263L3.93506 14.5263L3.93506 19.6485L5.63634 19.6485L5.63634 21.3559L10.7402 21.3559L10.7402 19.6485L12.4415 19.6485L12.4415 14.5263L10.7402 14.5263L10.7402 9.40415Z" fill="#F5433D"/>
<path d="M14.1443 14.5261L14.1443 12.8187L12.443 12.8187L12.443 11.1113L10.7417 11.1113L10.7417 14.5261L12.443 14.5261L12.443 19.6483L10.7417 19.6483L10.7417 21.3557L5.63791 21.3557L5.63791 19.6483L3.93663 19.6483L3.93663 14.5261L2.23535 14.5261L2.23535 21.3557L3.93663 21.3557L3.93663 23.0631L14.1443 23.0631L14.1443 21.3557L15.8456 21.3557L15.8456 14.5261L14.1443 14.5261Z" fill="#B92B26"/>
<path d="M3.9375 12.8184L5.63878 12.8184L5.63878 14.5258L3.9375 14.5258L3.9375 12.8184Z" fill="#B92B26"/>
<path d="M2.23448 12.8182L3.93576 12.8182L3.93576 14.5256L2.23448 14.5256L2.23448 12.8182ZM2.23448 21.3552L3.93576 21.3552L3.93576 23.0626L2.23448 23.0626L2.23448 21.3552ZM5.63704 5.98864L12.4422 5.98864L12.4422 12.8182L14.1434 12.8182L14.1434 5.98864L15.8447 5.98864L15.8447 4.28125L2.23448 4.28125L2.23448 5.98864L3.93576 5.98864L3.93576 12.8182L5.63704 12.8182L5.63704 5.98864ZM0.533203 14.5256L2.23448 14.5256L2.23448 21.3552L0.533203 21.3552L0.533203 14.5256ZM15.8447 14.5256L17.546 14.5256L17.546 21.3552L15.8447 21.3552L15.8447 14.5256ZM14.1434 21.3552L15.8447 21.3552L15.8447 23.0626L14.1434 23.0626L14.1434 21.3552ZM14.1434 12.8182L15.8447 12.8182L15.8447 14.5256L14.1434 14.5256L14.1434 12.8182ZM3.93576 23.0626L14.1434 23.0626L14.1434 24.77L3.93576 24.77L3.93576 23.0626Z" fill="black"/>
</svg>
