<?xml version="1.0" encoding="utf-8"?>
<!-- Generator: Adobe Illustrator 24.0.1, SVG Export Plug-In . SVG Version: 6.00 Build 0)  -->
<svg version="1.1" id="Layer_1" xmlns="http://www.w3.org/2000/svg" xmlns:xlink="http://www.w3.org/1999/xlink" x="0px" y="0px"
	 viewBox="0 0 225 126" style="enable-background:new 0 0 225 126;" xml:space="preserve">
<style type="text/css">
	.st0{fill:#111F36;}
	.st1{fill:#B87D00;}
	.st2{fill:#618CD1;}
	.st3{fill:#8BACE1;}
	.st4{fill:#3F5984;}
	.st5{fill:#274069;}
	.st6{fill:#5F7DAC;}
	.st7{fill:#102A54;}
	.st8{fill:#2D4E85;}
	.st9{fill:#314361;}
	.st10{fill:#9D6B00;}
	.st11{fill:#C28708;}
	.st12{fill:#975304;}
	.st13{fill:#DE9C0E;}
	.st14{fill:#7C4B00;}
	.st15{fill:#AC790B;}
</style>
<path class="st0" d="M59,90l18,0v9l-18,0V90z"/>
<rect x="59" y="99" class="st1" width="117" height="27"/>
<path class="st0" d="M0,27h225v9H0L0,27z"/>
<polygon class="st0" points="216,18 216,9 176,9 176,9 194,9 194,0 50,0 50,9 50,9 27,9 27,18 9,18 9,45 27,45 27,54 41,54 41,63 
	50,63 50,72 77,72 77,90 59,90 59,99 77,99 77,99 158,99 158,99 176,99 176,90 158,90 158,72 176,72 176,63 194,63 194,54 203.5,54 
	203.5,45 216,45 225,45 225,18 "/>
<rect x="194" y="18" class="st2" width="22" height="9"/>
<polygon class="st3" points="50,9 50,18 27,18 27,27 50,27 194,27 194,18 194,9 "/>
<polygon class="st4" points="9,27 9,36 36,36 36,45 216,45 216,36 216,27 "/>
<path class="st5" d="M41,45h135v18H41v-9h-5v-9H41z"/>
<polygon class="st6" points="194,18 185,18 50,18 50,36 50,54 185,54 185,36 194,36 "/>
<g>
	<rect x="185" y="45" class="st7" width="18" height="9"/>
	<rect x="50" y="54" class="st7" width="18" height="9"/>
	<rect x="68" y="63" class="st7" width="90" height="9"/>
</g>
<rect x="86" y="72" class="st4" width="63" height="18"/>
<rect x="77" y="90" class="st8" width="81" height="9"/>
<rect x="86" y="90" class="st6" width="72" height="9"/>
<rect x="122" y="72" class="st8" width="27" height="9"/>
<rect x="104" y="72" class="st9" width="27" height="9"/>
<rect x="50" y="108" class="st10" width="135" height="18"/>
<rect x="95" y="108" class="st11" width="45" height="9"/>
<path class="st12" d="M167,108h18v9h-18V108z"/>
<path class="st12" d="M50,108h18v9H50V108z"/>
<rect x="104" y="99" class="st13" width="9" height="9"/>
<path class="st14" d="M158,99h18v9h-18V99z"/>
<path class="st14" d="M59,99h21v9H59V99z"/>
<polygon class="st15" points="167,117 167,108 149,108 149,117 126,117 126,126 149,126 167,126 176,126 176,117 "/>
</svg>
