<svg width="141" height="83" viewBox="0 0 141 83" fill="none" xmlns="http://www.w3.org/2000/svg">
<g clip-path="url(#clip0_8091_68779)">
<path d="M92.5218 69.5274C92.5249 68.0851 92.3159 67.5499 92.6598 65.0198C93.0782 61.939 92.8148 58.8439 92.8246 55.7551C92.8255 55.3675 92.7064 54.9886 92.3901 54.6872C92.2315 54.5665 92.0649 54.5577 91.8911 54.66C91.4324 55.1053 91.4091 55.664 91.418 56.2156C91.4449 57.7831 91.2989 59.3531 91.5013 60.9158C91.5255 61.3883 91.4341 61.8575 91.4243 62.3315C91.3911 63.7975 90.0517 64.4842 88.5905 63.8047C88.319 63.6784 88.1111 63.5186 88.0941 63.2236C87.8827 59.4274 87.2636 55.6288 88.3298 51.8479C88.5779 50.967 88.6111 50.0341 88.0233 49.2172C87.673 48.7303 87.8307 48.218 87.7752 47.7128C87.656 45.5952 88.0207 43.4657 87.5584 41.3578C86.2082 40.325 84.7147 40.7335 83.2328 41.0149C82.4883 42.0605 82.9999 43.2307 82.8207 44.3314C82.7562 44.9278 82.4274 45.4873 82.4578 46.094C82.5089 47.1244 81.9176 47.4242 80.8496 47.3834C79.4305 47.3299 79.4529 47.214 79.2979 45.9861C78.9798 43.4649 79.1259 40.9429 79.0255 38.4234C79.013 38.1148 78.9046 37.8342 78.6331 37.6192C77.4263 37.0868 76.1944 37.1771 74.9526 37.4961C73.7566 38.5369 73.4 40.094 74.0262 41.5193C74.1696 45.9613 74.2081 50.4034 74.0029 54.8439C73.9366 56.2683 74.0164 57.692 73.9528 59.1149C73.899 60.3219 73.555 60.5441 72.1403 60.5737C70.9729 60.5977 70.4748 60.1684 70.4775 59.1181C70.4873 54.9342 70.2427 50.7519 70.3216 46.5665C70.3323 45.9781 70.4802 45.3466 69.9793 44.8271C69.8082 44.7111 69.6425 44.7159 69.4803 44.8406C68.9992 45.345 69.0261 45.959 69.0243 46.5617C69.0162 51.0029 68.8164 55.4522 69.0664 59.8831C69.543 68.3299 69.1515 76.776 69.3119 85.2205C69.3181 85.565 69.2984 85.9111 69.3459 86.254C69.5072 87.4243 69.9883 87.8552 71.3125 87.8871C73.2952 87.9343 75.2796 87.9023 77.2632 87.9023C81.3755 87.9031 85.4879 87.9143 89.6002 87.8975C91.8472 87.8879 92.7135 87.302 92.3623 85.3548C91.6581 81.4507 91.9359 77.5442 91.8454 73.6369C91.7768 70.6198 92.5169 71.689 92.5218 69.5274Z" fill="#852A0D"/>
<path d="M57.9797 91.1492C70.3838 91.3459 82.7871 91.6081 95.1903 91.1444C95.8515 90.8878 96.0701 90.4362 96.0683 89.8015C96.0567 84.2331 96.0612 78.6648 96.0621 73.0964C96.0621 72.3842 95.9241 71.7759 94.9404 71.7335C94.014 71.6935 93.0535 71.5984 92.7238 72.6975C92.5348 73.3274 92.4264 73.9541 92.4273 74.6088C92.4354 78.4506 92.4407 82.2923 92.4282 86.134C92.4228 87.8423 91.8396 88.4074 89.9357 88.4154C83.7359 88.4394 77.5298 88.5617 71.338 88.3611C68.5884 88.2723 65.837 88.2364 63.0865 88.1652C61.3726 88.1213 60.7517 87.5793 60.7481 86.0197C60.7338 80.0197 60.7428 74.0197 60.7428 68.0197C60.7428 67.7175 60.749 67.4154 60.741 67.1132C60.706 65.8646 60.0842 65.1731 58.9805 65.1492C57.8274 65.1244 57.2594 65.7367 57.2585 67.0684C57.2513 74.1908 57.2486 81.3131 57.2639 88.4362C57.2639 89.3786 56.7388 90.457 57.9797 91.1492Z" fill="#030304"/>
<path d="M57.9807 91.1493C57.3822 90.1844 57.6859 89.1524 57.6868 88.1397C57.6931 81.1508 57.6949 74.162 57.6841 67.1732C57.6832 66.3562 57.6384 65.5361 58.908 65.5185C60.2106 65.5001 60.3128 66.3091 60.3119 67.2043C60.3029 73.4162 60.3047 79.6288 60.3083 85.8407C60.3092 87.911 61.0233 88.4826 63.324 88.5649C72.0253 88.8767 80.7292 88.8015 89.4332 88.8087C89.9618 88.8095 90.5047 88.8023 91.0154 88.7C92.2401 88.4562 92.9022 87.8487 92.8852 86.6161C92.8314 82.648 92.8691 78.6784 92.861 74.7096C92.8601 74.102 92.9909 73.5185 93.0957 72.923C93.2695 71.9358 93.9952 71.947 94.807 71.9837C95.6751 72.0237 95.7737 72.5489 95.7728 73.1604C95.7692 78.6824 95.7629 84.2044 95.7844 89.7264C95.7862 90.2931 95.5129 90.7128 95.1913 91.1437C95.9349 91.2092 96.3748 91.0277 96.373 90.2436C96.3533 84.2124 96.3614 78.182 96.3605 72.1508C96.3605 71.8854 96.3041 71.6376 96.0738 71.4458C94.9091 71.4514 93.7453 71.4569 92.5806 71.4625C91.7456 71.9494 91.8513 72.7199 91.8531 73.4434C91.8629 77.5369 91.7698 81.6304 92.1165 85.7224C92.258 87.389 91.7348 87.7719 89.8516 87.7743C83.7028 87.7823 77.5379 88.0022 71.4116 87.6744C68.6924 87.5289 65.9589 87.3331 63.2263 87.2316C62.0885 87.1892 61.7669 86.5785 61.7678 85.6768C61.7696 83.5625 61.7678 81.4482 61.7669 79.3339C61.7642 75.1916 61.7705 71.0493 61.7633 66.907C61.7624 66.1756 61.8117 65.4298 61.2795 64.7951C60.5851 64.1268 59.6623 64.345 58.8246 64.3538C57.8669 64.3642 57.0426 64.1772 56.7389 63.3186C56.4549 62.5153 56.7111 61.7895 57.642 61.3722C58.4931 61.1084 59.3774 61.2811 60.2402 61.2003C61.4166 61.09 61.8556 60.5209 61.8439 59.1524C61.8341 58.106 61.3942 57.6903 60.182 57.6136C59.4097 57.5648 58.6347 57.6192 57.8597 57.568C57.0453 57.5137 56.6637 57.1987 56.6646 56.4273C56.6744 49.6519 56.6547 42.8765 56.6861 36.1011C56.6914 34.8613 57.1304 34.5496 58.7557 34.5424C63.1135 34.524 67.4722 34.54 71.83 34.5328C72.5046 34.532 73.1873 34.5959 73.8521 34.4169C74.2857 34.2258 74.5984 33.9245 74.8474 33.5624C75.2408 31.6799 75.4146 29.7997 74.7283 27.9332C74.5437 27.7366 74.3036 27.6255 74.0277 27.5703C73.1138 27.5328 72.1973 27.5352 71.2825 27.5559C69.8706 27.5879 69.4522 27.8589 69.3751 29.1443C69.3124 30.197 68.8599 30.6047 67.697 30.5432C67.0385 30.508 66.3289 30.4944 65.8254 31.0236C63.3554 31.03 60.8844 31.0747 58.4161 31.0252C57.2299 31.0012 56.7721 31.3609 56.7945 32.444C56.8303 34.1835 56.5158 34.3985 54.4901 34.4161C52.1679 34.4361 52.1661 34.4361 52.1652 36.464C52.1643 43.0244 52.1634 49.5848 52.1643 56.1452C52.1643 57.9781 52.1679 57.9781 54.285 57.9845C54.5269 57.9853 54.7697 57.9845 55.0116 57.9869C56.0347 57.9957 56.6932 58.4457 56.781 59.3506C56.867 60.2419 56.5579 60.9837 55.3637 61.1028C54.4901 62.4289 54.5815 63.4953 55.653 64.4585C56.8321 64.64 56.816 65.4298 56.8151 66.2355C56.8106 74.0645 56.8133 81.8934 56.8133 89.7224C56.8151 90.4506 56.6439 91.2875 57.9807 91.1493Z" fill="#100505"/>
<path d="M92.2781 54.6212C92.236 58.4429 92.4546 67.7373 92.0309 71.5582C91.8427 73.2537 92.004 73.2865 93.9338 73.2825C95.1678 73.2797 96.2147 73.4145 96.2147 73.4145C96.2147 73.4145 96.2147 74.2106 96.3645 65.2655C96.3618 62.3758 96.3546 59.4861 96.3663 56.5964C96.3734 54.7219 96.5096 54.6124 98.5774 54.6076C100.921 54.6028 101 54.53 101 52.3981C100.998 47.1359 100.998 41.8745 100.996 36.6123C100.995 34.4021 100.993 34.4005 98.4896 34.4061C97.8642 34.4077 97.2228 34.3325 96.6646 34.685C96.1037 35.0575 96.2238 35.6091 96.222 36.1103C96.2086 39.7714 96.119 43.4349 96.2569 47.0912C96.3232 48.8497 96.3161 50.5948 96.222 52.3478C96.1915 52.9185 96.1566 53.4685 95.6621 53.8921C94.6953 54.59 93.4321 53.9257 92.4322 54.4509C92.3794 54.5068 92.3283 54.5636 92.2781 54.6212Z" fill="#070405"/>
<path d="M87.9073 31.016C86.3699 30.9233 84.8002 31.3318 83.2914 30.7802C83.9482 30.0991 83.8845 29.3437 83.5844 28.562C82.8838 27.6259 80.3877 27.1495 79.3449 27.7466C78.9865 27.952 78.8297 28.2622 78.8127 28.6163C78.7356 30.207 78.7428 31.7978 78.8055 33.3885C78.8342 34.1127 79.3046 34.4964 80.1019 34.5044C85.2177 34.554 90.3334 34.55 95.4492 34.5076C95.7968 34.5044 96.114 34.4085 96.3559 34.1679C96.3326 30.5452 96.8379 31.0816 92.8188 31.04C91.1819 31.0232 89.5441 31.0232 87.9073 31.016Z" fill="#0F0505"/>
<path d="M78.6235 1C77.3612 1 76.0988 1.0008 74.8355 1.0008C74.2774 1.98482 74.6922 3.05196 74.5031 4.06636C75.8918 4.05596 77.2805 4.04557 78.6701 4.03518C78.8072 3.02239 78.8708 2.0088 78.6235 1Z" fill="#0D0607"/>
<path d="M55.6543 64.4557C55.0979 63.3685 55.476 62.2174 55.3649 61.0999C55.0764 61.0959 54.7879 61.0887 54.5003 61.0879C52.2148 61.0815 51.6549 61.737 52.1853 63.7394C52.3205 64.2518 52.661 64.4533 53.2039 64.4565C54.0201 64.4613 54.8372 64.4564 55.6543 64.4557Z" fill="#090507"/>
<path d="M65.5403 25.0863C65.543 25.2574 65.5457 25.4284 65.5484 25.5995C65.8978 27.5619 65.9005 27.5036 68.143 27.5667C69.2486 27.5979 69.6294 27.2829 69.4672 26.3397C69.3812 25.8409 69.5917 25.3173 69.3265 24.8297L69.3095 24.8169C68.195 24.5523 67.0607 24.749 65.9363 24.7074C65.6649 24.697 65.4902 24.8089 65.5403 25.0863Z" fill="#0E0806"/>
<path d="M69.326 24.8301C69.3234 25.0443 69.3189 25.2577 69.318 25.472C69.3099 27.5 69.1003 27.6047 66.8578 27.4304C65.3759 27.3153 66.158 26.1027 65.5479 25.6007C65.5443 25.9876 65.556 26.3744 65.5327 26.7597C65.4942 27.408 65.8041 27.7014 66.5522 27.687C67.5638 27.6678 68.5753 27.6998 69.5877 27.7102C69.4918 26.7509 69.9299 25.7533 69.326 24.8301Z" fill="#231006"/>
<path d="M65.5394 25.0873C66.7534 24.5254 68.0588 24.977 69.3086 24.8179C67.9853 24.3303 66.5903 24.7412 65.242 24.5605C65.2662 24.7316 65.2912 24.9027 65.3163 25.0737C65.3907 25.0785 65.4651 25.0833 65.5394 25.0873Z" fill="#231006"/>
<path d="M60.8884 64.7123C61.2494 65.2663 61.1813 65.877 61.1813 66.4781C61.1822 72.9434 61.1804 79.4078 61.1831 85.8731C61.184 87.4646 61.5012 87.7156 63.2859 87.7787C71.9782 88.0857 80.6741 88.0385 89.37 88.0353C92.1249 88.0345 92.2817 87.8922 92.2817 85.3774C92.2817 81.2831 92.2808 77.1888 92.2817 73.0944C92.2817 72.5357 92.2208 71.9681 92.5801 71.4613C91.5704 71.6108 91.3983 72.3198 91.4342 73.0161C91.634 76.877 90.9791 80.7515 91.9198 84.6077C92.4968 86.9738 91.8132 87.5221 89.086 87.5221C83.3762 87.5221 77.6664 87.5237 71.9567 87.5221C69.9086 87.5213 69.9041 87.5189 69.9032 85.7491C69.9014 78.16 70.1218 70.5637 69.8324 62.9825C69.6004 56.9073 69.7034 50.8402 69.63 44.7698C69.3352 43.8585 68.4375 44 67.7404 44.0264C66.4494 44.0744 66.0337 43.582 66.1027 42.4932C66.1681 41.4684 66.1421 40.4357 66.0982 39.4069C66.0686 38.7162 66.0122 38.0224 65.2883 37.5667C64.2248 37.1391 63.1282 37.1998 62.0235 37.3893C60.6787 37.7106 60.6214 38.6907 60.6097 39.6563C60.5784 42.3733 60.5999 45.0912 60.5981 47.809C60.5963 50.2678 60.5999 52.7267 60.5972 55.1855C60.5945 57.0256 60.4565 57.2039 59.0723 57.1983C57.6487 57.1927 57.4095 56.9025 57.4041 55.0872C57.3933 50.9033 57.3916 46.7187 57.4041 42.5348C57.4104 40.5532 57.4032 38.5731 57.5501 36.5899C57.6299 35.5164 57.9865 35.0975 59.1673 35.1791C59.7416 35.2182 60.3302 35.2134 60.8991 35.0703C61.0783 35.0496 61.2566 35.024 61.4358 35.0008C64.0824 34.5707 66.7513 34.8841 69.4078 34.801C70.5205 34.7658 71.6368 34.8257 72.7496 34.777C73.2423 34.7554 73.8784 34.8577 73.9689 34.1607C68.7448 34.1575 63.5197 34.1463 58.2955 34.1567C56.5834 34.1599 56.2358 34.4836 56.2349 35.9608C56.2313 42.7722 56.2618 49.5844 56.2053 56.3957C56.1946 57.6555 56.6757 58.1463 58.0519 58.0049C58.4335 57.9657 58.825 57.9985 59.2121 57.9985C61.5406 57.9985 61.7162 58.1863 61.2942 60.1927C61.1598 60.8314 60.6268 60.8002 60.0784 60.845C59.0876 60.9265 58.0501 60.5756 57.1066 61.0912C57.508 61.5892 58.1128 61.4493 58.6584 61.4725C59.2632 61.4981 59.8921 61.4046 60.3813 61.8386C60.9054 62.5005 60.5443 63.2703 60.7101 63.9737C60.737 64.2255 60.711 64.4885 60.8884 64.7123Z" fill="#602200"/>
<path d="M62.0415 37.7668C63.1032 37.7788 64.1648 37.7908 65.2265 37.8028C65.9047 38.1649 66.6278 38.3215 67.4287 38.3088C69.1641 38.2824 70.9004 38.2872 72.6368 38.3064C73.4332 38.3151 74.1697 38.2032 74.8237 37.778C76.0834 37.7892 77.344 37.8004 78.6036 37.8123C78.979 39.4247 78.7147 41.0538 78.7551 42.6749C78.8079 44.8068 79.2747 45.2136 81.6767 45.0162C82.113 44.9802 82.5386 44.9203 82.9005 44.6789C83.3082 44.2224 83.1594 43.6749 83.1057 43.1873C82.9552 41.8291 83.465 40.5534 83.6155 39.2352C83.7131 38.3831 84.4245 38.2816 85.2129 38.2896C85.9727 38.2976 86.4529 38.3919 86.8337 39.1952C87.9571 41.5646 87.5576 44.0122 87.6274 46.4391C87.6731 48.0202 88.0118 48.3815 89.7732 48.2352C90.9576 48.1369 91.462 48.5046 91.5624 49.5414C91.7657 51.6365 94.1525 52.4447 96.1889 51.1345C96.2302 45.9131 96.1961 40.6933 96.206 35.4726C96.2069 35.216 96.24 34.953 96.0985 34.7108C92.3768 34.4926 88.6506 34.6541 84.9262 34.6165C83.3772 34.6005 81.8209 34.5286 80.2799 34.6261C79.0516 34.7044 78.7434 34.2424 78.833 33.2824C78.8724 32.8563 78.8016 32.4222 78.781 31.9922C78.2426 32.0154 78.1736 32.4302 78.1655 32.7316C78.136 33.8163 77.3861 33.957 76.4113 33.9386C75.6928 33.925 74.9518 33.8875 74.2969 34.2584C73.8552 34.6381 73.3006 34.535 72.7783 34.5358C69.3899 34.5414 66.0024 34.5342 62.614 34.5438C62.1374 34.5454 61.6446 34.447 61.185 34.6517L61.1572 34.6605C60.1645 36.2376 60.4844 37.3599 62.0415 37.7668Z" fill="#E34E0C"/>
<path d="M96.0987 34.7109C96.0826 40.2185 96.0656 45.7262 96.0494 51.2346C94.9008 51.5471 93.7209 51.5831 92.549 51.44C91.8305 51.3521 91.5841 50.8868 91.5384 50.229C91.4112 48.4248 91.172 48.2617 89.1167 48.4184C88.7593 48.4456 88.6007 48.2705 88.3677 48.1314C88.0801 47.9604 87.8562 47.5375 87.3974 47.8844C87.0462 48.7933 87.7961 49.5183 87.935 50.3513C88.1213 51.4736 87.3616 52.4064 87.3634 53.4752C87.3679 55.7981 87.3598 58.1211 87.3285 60.444C87.315 61.4496 88.0219 62.4201 87.4055 63.472C87.1788 63.8589 87.625 64.1595 88.0891 64.2922C89.1302 64.5903 90.1874 64.5192 91.2329 64.3673C91.7776 64.2882 92.007 63.9141 91.9918 63.4145C91.9676 62.6407 91.9667 61.8669 91.9559 61.0931C91.3476 60.5168 90.5305 60.6071 89.7734 60.6007C88.8444 60.5935 88.4743 60.225 88.4806 59.4152C88.4896 58.2937 88.4958 57.1714 88.4797 56.0499C88.4663 55.1419 88.9402 54.8381 89.9069 54.8597C90.6058 54.8757 91.3673 55.1315 91.9945 54.6103C92.0894 54.6103 92.1844 54.6143 92.2794 54.6223L92.2937 54.6095C93.5148 54.2482 94.8175 54.7406 96.0342 54.3281C96.3164 53.9996 96.3343 53.6191 96.3352 53.225C96.3451 47.3736 96.3621 41.5215 96.3746 35.6702C96.3738 35.332 96.449 34.9715 96.0987 34.7109Z" fill="#A11F32"/>
<path d="M74.8242 37.7773C71.6249 37.7853 68.4264 37.7933 65.227 37.8013C65.83 39.4872 65.4976 41.2218 65.4779 42.9268C65.4644 44.1531 65.8156 44.6463 67.2554 44.5312C68.0277 44.4696 68.8985 44.2418 69.6287 44.7686C69.704 44.775 69.7792 44.7862 69.8527 44.8013C69.9181 44.7638 69.9826 44.7254 70.0489 44.6886C70.5202 44.1323 70.4485 43.472 70.4333 42.8445C70.4136 41.9884 70.7818 41.5879 71.7772 41.6223C72.4876 41.6463 73.2115 41.6742 73.9122 41.4888C74.1523 41.4288 74.3404 41.2977 74.5106 41.1435C73.5869 39.9452 74.7848 38.9044 74.8242 37.7773Z" fill="#A11F32"/>
<path d="M74.5122 41.1445C74.325 41.1477 74.1386 41.1509 73.9514 41.1541C73.3386 41.7041 73.3941 42.4107 73.3923 43.0974C73.3807 46.1989 73.3995 49.3004 73.3789 52.402C73.3753 52.9032 73.473 53.4683 72.7813 53.7377C71.8612 54.0958 71.1086 53.641 71.0817 52.6378C71.0307 50.7001 71.0719 48.7609 71.062 46.8224C71.0593 46.3492 71.0898 45.868 70.9223 45.4123C70.7726 45.0047 70.6302 44.5458 69.9439 44.7377C69.9439 44.7377 69.8543 44.8032 69.8534 44.8032C69.8758 49.6761 69.8964 54.5491 69.9224 59.4212C69.9305 60.9647 70.0908 61.0982 71.8486 61.1078C74.3071 61.1206 74.5338 60.9919 74.5346 59.3828C74.5382 53.3028 74.5221 47.2237 74.5122 41.1445Z" fill="#A12133"/>
<path d="M91.9922 54.61C91.0434 54.4949 90.1063 54.3359 89.1333 54.3598C88.2669 54.3814 87.922 54.7084 87.9309 55.4566C87.9489 56.957 87.9507 58.4582 87.9247 59.9586C87.9112 60.7667 88.275 61.1464 89.2121 61.1089C90.1242 61.0721 91.0398 61.0953 91.9537 61.0921C91.9662 58.9314 91.9796 56.7707 91.9922 54.61Z" fill="#E34E0C"/>
<path d="M87.3968 47.8825C87.5724 47.9464 87.8851 47.988 87.9039 48.0775C88.1933 49.4676 88.7363 49.271 89.8445 48.5644C90.6061 48.0791 90.9411 48.9992 91.0737 49.5612C91.6426 51.968 91.6256 51.988 94.4738 51.6587C94.8895 51.6107 95.2165 51.6947 95.5865 51.785C96.2029 51.9353 95.9996 51.4884 96.0488 51.2326C95.6618 51.2342 95.2756 51.2374 94.8895 51.2358C92.2671 51.2254 92.2564 51.2262 92.0082 48.9297C91.8944 47.8777 91.0925 47.7194 90.1626 47.785C87.9631 47.9401 87.938 47.9353 87.9344 46.02C87.9326 45.0296 87.809 44.0232 87.9631 43.0519C88.2211 41.422 87.2759 39.9568 87.3252 38.3693C87.3386 37.932 86.9793 37.7881 86.5466 37.7833C85.725 37.7754 84.9017 37.7474 84.0828 37.7841C82.9378 37.8353 83.0525 38.6866 83.0229 39.3229C82.945 41.0431 82.9611 42.7666 82.9405 44.4892C83.0184 44.5723 83.1018 44.5779 83.1922 44.5052C83.2254 43.3965 83.2585 42.287 83.2917 41.1782C84.6544 41.0384 86.0601 40.279 87.3359 41.3997C87.3565 43.5627 87.3771 45.7226 87.3968 47.8825Z" fill="#A12134"/>
<path d="M83.1914 44.5068C83.1072 44.5052 83.0239 44.4996 82.9396 44.4908C78.9133 44.5636 78.9492 44.5636 78.9017 40.9265C78.8883 39.8905 79.2869 38.801 78.6025 37.8105C78.6186 40.7586 78.6517 43.7066 78.641 46.6547C78.6383 47.4261 78.8623 47.8418 79.837 47.8937C82.6995 48.0456 82.6977 48.0728 83.0391 45.6475C83.0929 45.2678 83.1412 44.8873 83.1914 44.5068Z" fill="#A01F31"/>
<path d="M80.7898 54.3744C83.0099 54.3744 83.0099 54.3744 83.0117 52.7213C83.0126 51.0003 83.0126 51.0035 80.926 51.0019C79.8007 51.0011 78.6207 50.8572 78.6324 52.4008C78.6467 54.3736 78.61 54.3744 80.7898 54.3744Z" fill="#A01E31"/>
<path d="M76.6625 38.0872C75.0982 37.8035 74.8554 38.4989 74.7972 39.6644C74.7211 41.1992 75.7155 41.0889 76.8991 41.1704C78.5673 41.2855 78.2788 40.3494 78.3621 39.4534C78.4777 38.2087 77.9186 37.7811 76.6625 38.0872Z" fill="#602200"/>
<path d="M87.3359 41.4039C87.0179 40.6405 86.8047 39.6933 85.5799 40.7069C85.2529 40.9778 84.8668 40.762 84.4976 40.6981C83.9923 40.6109 83.4127 40.4678 83.2926 41.1817C84.6437 41.1953 86.018 40.8931 87.3359 41.4039Z" fill="#A11F32"/>
<path d="M55.365 46.1348C55.365 42.9853 55.3623 39.8366 55.3668 36.6871C55.3677 35.9285 55.434 35.1995 54.1752 35.1691C53.0849 35.1427 52.8233 35.5736 52.7014 36.4705C52.3628 38.9629 52.5348 41.4297 52.6665 43.9261C52.8672 47.7543 52.722 51.5992 52.6575 55.4362C52.6414 56.3874 52.5993 57.1636 54.0166 57.2139C55.1679 57.2547 55.3838 56.7127 55.3758 55.8414C55.348 52.6056 55.3641 49.3706 55.365 46.1348Z" fill="#060304"/>
<path d="M65.5515 17.9081C65.5604 19.5012 65.6608 21.0999 65.5506 22.6867C65.4628 23.9465 65.8113 24.4509 67.3568 24.3829C69.826 24.2742 69.869 24.3645 69.9344 26.5116C69.9604 27.367 70.4119 27.618 71.263 27.6787C72.1545 27.7419 73.0871 27.4117 73.9356 27.8857C74.13 27.9169 74.3244 27.9481 74.5197 27.9793C76.015 28.2391 77.5086 28.4661 78.934 27.7331C79.8532 27.7163 80.7778 27.6339 81.689 27.6987C82.8134 27.7786 83.1896 27.363 83.0445 26.4229C83.0051 26.1687 83.0642 25.9033 83.0311 25.6475C82.9101 24.7139 83.3124 24.3494 84.4126 24.3422C87.4256 24.3222 87.4256 24.2838 87.4274 21.5772C87.4283 20.7139 87.3763 19.8481 87.4373 18.9888C87.5 18.1047 87.1532 17.7706 86.122 17.7642C85.1903 17.7586 84.2038 18.0448 83.3088 17.5596L83.281 17.5364C83.1977 17.5396 83.1144 17.5348 83.032 17.5212C82.9827 17.5636 82.9334 17.6059 82.8832 17.6483C82.8608 18.5955 83.7245 18.5076 84.3203 18.498C85.8273 18.4756 86.1238 19.5868 86.4177 20.4141C86.7546 21.3621 86.8047 22.4812 85.6176 23.2055C84.5846 23.8354 83.9566 23.5972 83.7738 22.4733C83.712 22.0904 83.7182 21.6915 83.4486 21.3645C83.2425 21.1151 82.9961 21.056 82.7444 21.3366C82.5813 21.5596 82.5141 21.8082 82.4702 22.0648C82.1799 23.7554 82.1799 23.8554 80.1856 23.8546C77.0552 23.853 73.9239 23.7778 70.7945 23.8018C70.359 23.773 70.0535 23.6235 70.0526 23.1799C70.0473 21.6739 70.0195 20.1671 70.0679 18.6611C70.0786 18.327 70.4289 18.1639 70.5597 17.8873C70.6018 17.7362 70.5696 17.6011 70.4639 17.478C70.2515 17.3302 70.0043 17.3094 69.748 17.3126C68.7974 17.2958 67.8478 17.295 66.9008 17.3549C66.3874 17.3893 65.8427 17.4157 65.5515 17.9081Z" fill="#EC8417"/>
<path d="M65.3125 33.3684C67.4439 33.3676 69.5753 33.402 71.705 33.354C72.8759 33.3276 73.5927 32.0319 73.3768 30.5267C73.2316 29.5155 72.5982 29.1118 71.4774 29.2285C70.8431 29.2948 70.5591 29.4627 70.654 30.1358C70.835 31.4155 70.4086 31.796 68.8667 31.8088C65.6297 31.836 62.3909 31.8736 59.1629 31.5674C58.697 31.5235 58.1755 31.4875 57.8503 31.9263C57.3495 32.6018 57.8682 33.3452 58.9201 33.3596C61.0497 33.3908 63.1811 33.37 65.3125 33.3684Z" fill="#060304"/>
<path d="M78.9336 27.7318C77.458 27.7598 75.9519 27.3473 74.5194 27.978C74.5131 29.8861 74.5068 31.7934 74.5005 33.7015C74.299 33.9717 74.2963 34.2155 74.617 34.4177C75.4314 34.4209 76.253 34.3625 77.0575 34.4417C78.3468 34.568 78.8126 34.094 78.663 32.9844C78.6191 32.6607 78.7356 32.3202 78.7795 31.9892C78.8315 30.5712 78.8825 29.1515 78.9336 27.7318Z" fill="#DE9E58"/>
<path d="M60.8892 64.7138C60.9851 64.5428 61.0819 64.3709 61.1777 64.1998C60.521 63.6019 59.6555 63.7618 58.8591 63.7154C58.1334 63.6731 57.6675 63.482 57.6881 62.7314C57.7069 62.0376 58.1674 61.8921 58.8161 61.8425C59.6117 61.7818 60.4771 61.9648 61.1473 61.3861C59.8482 60.7682 58.4496 61.2374 57.1075 61.0911C56.0342 61.8074 56.0261 62.809 56.4257 63.7602C56.8244 64.7066 57.8341 64.7954 58.86 64.7258C59.5328 64.6795 60.2128 64.7154 60.8892 64.7138Z" fill="#671722"/>
<path d="M74.6191 34.4195C74.5806 34.1796 74.5412 33.9406 74.5027 33.7016C74.0914 33.6393 74.0789 33.943 73.9705 34.1597C73.5602 34.6057 72.9921 34.4219 72.4913 34.4243C69.2301 34.4402 65.9689 34.4275 62.7078 34.4378C62.1935 34.4394 61.6443 34.3179 61.1838 34.6529C65.2486 34.6609 69.3134 34.6697 73.3783 34.6777C73.8155 34.6784 74.2572 34.7 74.6191 34.4195Z" fill="#A01F30"/>
<path d="M96.0329 54.3285C94.7939 54.5036 93.4921 54.0208 92.2924 54.6099C93.5431 54.6011 94.7939 54.5915 96.0446 54.5819C96.0482 54.4972 96.0446 54.4133 96.0329 54.3285Z" fill="#681415"/>
<path d="M69.9511 17.561C70.1284 17.569 70.3067 17.5762 70.4841 17.5842C71.3469 18.1805 72.3342 17.9647 73.2723 17.8672C73.9881 17.792 74.3089 17.2932 74.3671 16.6737C74.4235 16.0718 74.3931 15.4683 74.4029 14.8696C74.3778 13.7744 75.2908 12.8008 74.927 11.6449C74.8661 11.4523 75.1734 11.2548 75.4332 11.326C76.6311 11.6537 77.9266 11.2205 79.0994 11.7193C80.3967 11.8304 81.6958 12.0534 82.9707 11.609C82.8569 10.8608 82.1903 11.1637 81.7289 11.1014C80.8491 10.9831 79.9075 11.3188 79.0779 10.8152C78.5842 9.21806 78.8593 7.58736 78.8727 5.97665C78.8826 4.78959 78.5636 4.2748 77.0979 4.33475C74.5203 4.44027 74.5176 4.36833 74.5176 6.6673C74.5176 7.74164 74.5319 8.81678 74.5024 9.89113C74.4934 10.2269 74.7273 10.7249 74.0132 10.7712C73.9756 10.804 73.9379 10.8376 73.9003 10.8703C73.1531 11.2892 72.3217 11.0806 71.5333 11.083C70.4143 11.0854 69.874 11.4179 69.917 12.509C69.9752 13.9951 69.8767 15.4859 69.8453 16.9751C69.6805 17.1981 69.719 17.3931 69.9511 17.561Z" fill="#E15518"/>
<path d="M69.9512 17.5623C69.9162 17.3672 69.8813 17.1722 69.8463 16.9756C69.3769 15.5063 69.755 14.0043 69.6233 12.5231C69.5794 12.0267 69.7962 11.4799 69.2954 11.0643C68.2417 10.9036 67.189 10.902 66.1363 11.0659C65.9311 11.161 65.7269 11.2561 65.5217 11.352C64.7485 12.882 65.1203 14.4703 65.2673 16.0363C65.3076 16.4624 65.4644 16.8708 65.2816 17.2937C65.1723 17.3912 65.063 17.4887 64.9537 17.5863C64.8883 17.6486 64.8632 17.7126 64.8802 17.7789C64.8972 17.8461 64.9152 17.8796 64.9358 17.8796C65.0567 17.938 65.166 17.9284 65.2646 17.8397C65.3604 17.862 65.4572 17.8836 65.5531 17.9068C66.9901 17.5047 68.5186 18.0171 69.9512 17.5623Z" fill="#231006"/>
<path d="M65.2637 17.8411C65.1562 17.8355 65.0486 17.8299 64.942 17.8243C63.7881 17.6157 62.6332 17.6349 61.4775 17.8147C60.8441 19.3959 61.3279 21.0298 61.1953 22.6357C61.1496 23.1873 61.1944 23.7452 61.1979 24.3008C62.5383 24.5526 63.8839 24.4542 65.2296 24.3503C65.2404 22.1809 65.252 20.0106 65.2637 17.8411Z" fill="#080707"/>
<path d="M79.2593 10.7709C80.5907 10.6182 82.0448 11.2913 83.2507 10.2985C84.2156 8.49273 84.1923 6.68457 83.2677 4.87481C82.1603 3.89 80.8182 4.45275 79.5783 4.47513C79.1294 4.48313 79.185 5.00751 79.1885 5.34164C79.2038 7.1514 79.2342 8.96116 79.2593 10.7709Z" fill="#0A0404"/>
<path d="M88.2162 17.582C88.2153 19.4765 88.2404 21.371 88.1992 23.2647C88.1821 24.0465 88.5083 24.3806 89.3845 24.3119C89.7679 24.2815 90.1621 24.2719 90.542 24.3167C91.6969 24.4534 92.0687 24.0209 92.0203 23.0033C91.9388 21.2839 91.9943 19.5597 91.9925 17.8378L91.9836 17.8298C90.8448 17.4765 89.6371 17.913 88.4966 17.5876C88.4034 17.5884 88.3103 17.586 88.2162 17.582Z" fill="#060505"/>
<path d="M70.472 4.60599C69.8753 4.69472 69.9004 5.1032 69.8995 5.49568C69.8968 6.95772 69.9219 8.41975 69.8843 9.88099C69.8654 10.6212 70.2229 10.8634 71.0113 10.8402C71.9736 10.813 72.9385 10.857 73.9016 10.8714C73.9616 10.8602 73.9984 10.8274 74.0127 10.7731C74.0002 9.06884 73.9267 7.3622 73.9966 5.66115C74.0369 4.66355 73.7 4.20471 72.5443 4.35659C71.8535 4.44772 71.1045 4.14956 70.4693 4.60759C70.6772 4.79225 70.911 4.92974 71.2013 5.00168C72.9268 5.42854 73.0191 5.53325 73.123 7.13438C73.1598 7.69233 73.1687 8.25269 73.0809 8.80665C72.9671 9.52367 72.4538 9.8674 71.6761 9.82423C70.868 9.77867 71.0624 9.15917 71.0319 8.73231C70.971 7.87539 71.0257 7.01447 71.0024 6.15596C70.988 5.5972 70.9988 5.02646 70.472 4.60599Z" fill="#231006"/>
<path d="M65.2497 11.3532C65.2497 12.9927 65.2497 14.6321 65.2497 16.2716C65.2595 16.6122 65.2703 16.9535 65.2801 17.294C65.8284 15.3284 65.4136 13.3316 65.5202 11.3516C65.4306 11.3516 65.3401 11.3524 65.2497 11.3532Z" fill="#24313B"/>
<path d="M65.2306 24.3484C63.8867 24.3316 62.5428 24.3148 61.199 24.2988C61.1918 24.3884 61.1846 24.4779 61.1775 24.5674C62.5312 24.5634 63.8849 24.5586 65.2387 24.5546C65.2423 24.4851 65.2396 24.4163 65.2306 24.3484Z" fill="#24313B"/>
<path d="M91.1188 17.5571C91.023 17.5619 90.928 17.5611 90.8321 17.5547C90.0536 17.5643 89.275 17.5747 88.4964 17.5851C89.6235 18.0687 90.8241 17.7146 91.9834 17.8273C91.7693 17.5507 91.4342 17.5803 91.1188 17.5571Z" fill="#4F2E1F"/>
<path d="M61.4769 17.814C62.6318 17.8172 63.7866 17.8204 64.9415 17.8235C64.946 17.7444 64.9504 17.6653 64.9531 17.5869C63.7956 17.6821 62.6013 17.3239 61.4769 17.814Z" fill="#24313B"/>
<path d="M78.6231 1C78.6383 2.01279 78.6535 3.02479 78.6688 4.03678C79.0379 3.01919 79.0836 2.0064 78.6231 1Z" fill="#24313B"/>
<path d="M66.1369 11.0668C67.1905 11.0668 68.2442 11.066 69.2969 11.066C68.2433 10.7111 67.1896 10.7135 66.1369 11.0668Z" fill="#24313B"/>
<path d="M83.3102 17.5574C84.2724 17.5503 85.2373 17.5039 86.1978 17.5471C87.0919 17.5878 87.3822 17.2537 87.358 16.4887C87.3132 15.0738 87.3222 13.6574 87.3517 12.2417C87.3687 11.4167 86.9665 11.089 86.0517 11.0938C82.6535 11.113 83.3657 10.8852 83.3039 13.416C83.2699 14.7885 83.2878 16.1618 83.2824 17.5343L83.3102 17.5574Z" fill="#060405"/>
<path d="M82.9714 11.6091C81.6517 11.1143 80.2666 11.458 78.9164 11.3613C78.3179 11.8217 78.4165 12.4836 78.4595 13.0408C78.5643 14.3981 78.8349 15.7434 78.8196 17.1127C78.8143 17.5788 79.092 17.9672 79.6547 18.0088C80.7862 18.0927 81.9545 18.323 82.9723 17.6131L83.0332 17.5204C83.0126 15.55 82.992 13.5795 82.9714 11.6091Z" fill="#E95719"/>
<path d="M85.3035 24.8248C83.2787 24.8232 83.3557 24.8264 83.2751 26.3971C83.2204 27.4579 83.6765 27.8048 84.7767 27.6753C84.9191 27.6585 85.066 27.6729 85.2103 27.6729C87.296 27.6737 87.2476 27.6242 87.374 26.1214C87.5119 24.4978 86.3024 24.8584 85.3035 24.8248Z" fill="#0A0606"/>
<path d="M62.041 37.7675C61.2203 37.4806 61.1164 36.897 61.1747 36.2064C61.2177 35.6948 61.1666 35.1768 61.1567 34.6612C57.014 34.5221 56.9288 34.5213 56.8858 38.1057C56.8142 44.0969 56.8572 50.0889 56.8715 56.0809C56.8733 56.6645 56.7712 57.4966 57.5067 57.6581C58.6105 57.9003 59.829 57.9483 60.9256 57.5749C61.4049 57.4119 61.2051 56.798 61.2051 56.3823C61.2132 50.6924 61.206 45.0018 61.2123 39.3119C61.2132 38.694 60.9973 37.9546 62.041 37.7675Z" fill="#A01F30"/>
<path d="M61.1473 61.3838C60.3293 61.3727 59.5077 61.4038 58.6942 61.3407C57.5143 61.2496 57.0717 61.6484 57.0744 62.7316C57.0771 63.8195 57.4202 64.3463 58.7247 64.2304C59.5355 64.1584 60.3598 64.2048 61.1777 64.1984C61.1679 63.2608 61.158 62.3223 61.1473 61.3838Z" fill="#A11E2F"/>
<path d="M69.9437 44.7374C70.6336 44.9692 70.4481 45.5064 70.4508 45.954C70.4661 48.3689 70.5297 50.7862 70.4347 53.1978C70.3818 54.5392 71.3002 54.3617 72.2212 54.3673C73.1592 54.3729 74.0301 54.5064 74.0023 53.1842C73.9199 49.1754 73.9593 45.1642 73.9503 41.1538C72.9442 41.1474 71.9372 41.1522 70.931 41.1315C70.2089 41.1163 69.8756 41.3904 69.9016 42.0483C69.9375 42.9444 69.9321 43.8413 69.9437 44.7374Z" fill="#E34E0C"/>
<path d="M70.47 24.313C74.2329 24.3298 77.9958 24.3322 81.7578 24.3738C82.6618 24.3841 83.1134 24.1427 83.0462 23.273C82.9933 22.588 83.0453 21.8957 83.0507 21.2067C82.6502 20.7239 82.0454 20.7566 81.4756 20.7183C79.6094 20.5936 79.6058 20.5968 79.4481 19.002C79.4096 18.6143 79.3783 18.2291 79.1265 17.8917C78.6606 16.8246 79.0781 15.6991 78.8532 14.6159C78.795 14.4673 78.6929 14.3497 78.5495 14.2594C77.2988 13.8517 76.0373 13.8997 74.7696 14.1899C74.6137 14.2546 74.4874 14.3505 74.3888 14.476C74.1514 15.1307 74.2679 15.8062 74.2732 16.4713C74.2777 17.0252 74.1075 17.4529 73.5646 17.743C73.1883 17.8526 72.8003 17.8222 72.416 17.827C70.074 17.8573 70.0498 17.8765 70.0472 19.9029C70.0463 20.9333 70.0543 21.9637 70.0445 22.9941C70.0382 23.4761 70.0624 23.9413 70.47 24.313Z" fill="#FDEB43"/>
<path d="M78.9006 17.8444C78.7994 21.1018 78.7994 21.1018 82.4727 21.1681C82.6653 21.1713 82.857 21.1921 83.0497 21.2049C83.4125 21.6749 83.2521 22.2089 83.2674 22.7157C83.3041 23.9819 83.778 24.356 85.1354 23.9987C85.9776 23.7772 86.938 23.2265 86.9425 22.5182C86.9496 21.4807 87.816 20.2081 86.3619 19.3608C86.2822 19.3144 86.1173 19.2672 86.1218 19.2393C86.4954 17.1153 84.6381 18.4367 83.8658 18.1098C83.5344 17.9691 83.0971 18.0386 82.9717 17.6126C82.2523 17.5998 81.514 17.4894 80.817 17.5942C79.3539 17.814 79.0502 17.2608 79.1712 16.0786C79.3324 14.5062 78.7017 12.9483 78.9158 11.3607C77.7072 10.7045 76.3293 11.2664 75.058 10.9531C74.7668 10.8811 74.2597 11.3256 74.4039 11.6469C74.8725 12.6869 74.111 13.5262 73.9694 14.4591C74.1647 14.6125 74.3636 14.6125 74.567 14.4719L74.5607 14.4743C75.411 14.0874 76.1152 13.6477 75.9342 12.6189C75.8222 11.9834 76.4099 11.9754 76.9027 11.9906C77.4295 12.0066 77.7207 12.2272 77.5522 12.7372C77.2584 13.6293 77.8309 14.0962 78.6094 14.4647L78.6148 14.4671C79.0359 15.5718 78.5145 16.7388 78.9006 17.8444Z" fill="#EE8415"/>
<path d="M65.8307 21.1713C65.8307 21.6022 65.7707 22.041 65.845 22.4607C65.9445 23.0202 65.3899 23.8748 66.5403 24.021C67.6933 24.1673 69.0086 23.7165 69.1671 22.8715C69.435 21.4399 69.8866 19.8116 68.3151 18.5278C67.6503 17.9842 66.9909 18.0306 66.319 18.1601C65.6076 18.2968 65.8656 18.9243 65.8397 19.3639C65.8047 19.9651 65.8307 20.5686 65.8307 21.1713Z" fill="#ED8414"/>
<path d="M70.469 24.3104C70.4708 22.6381 70.5255 20.9642 70.4547 19.2952C70.4135 18.3231 70.814 18.0106 71.873 18.0513C72.5539 18.0777 73.3217 18.3207 73.9336 17.79C72.785 17.6237 71.6337 17.6717 70.4825 17.7628C69.8795 17.9035 69.6304 18.2528 69.6358 18.8043C69.6511 20.3095 69.6394 21.8147 69.6421 23.3199C69.643 23.8291 69.7362 24.284 70.469 24.3104Z" fill="#FCC937"/>
<path d="M70.4819 17.7675C71.6323 17.777 72.7836 17.7858 73.934 17.7954C74.8317 17.3838 74.4957 16.6332 74.5414 15.9953C74.5781 15.4901 74.5602 14.9825 74.5674 14.4757C74.3685 14.4717 74.1696 14.4669 73.9698 14.4629C73.9071 17.4437 73.9071 17.4437 70.4837 17.5884C70.4828 17.6476 70.4828 17.7075 70.4819 17.7675Z" fill="#ED8515"/>
<path d="M70.4714 4.60742C70.475 6.06386 70.449 7.5203 70.4956 8.97594C70.5135 9.55468 70.1641 10.378 71.2616 10.5075C72.3923 10.641 73.5391 9.95036 73.6439 9.07426C73.8034 7.74812 73.6376 6.42997 73.3563 5.12301C73.2613 4.67936 72.8913 4.6298 72.4881 4.62501C71.8153 4.61701 71.1424 4.61462 70.4696 4.60982C70.4687 4.60902 70.4714 4.60742 70.4714 4.60742Z" fill="#0C0505"/>
<path d="M78.6094 14.4659C78.1847 13.7936 77.4223 13.1917 78.2528 12.3148C78.4651 12.0902 78.2546 11.7201 77.8326 11.6409C77.1185 11.5066 76.4 11.5082 75.6806 11.6273C75.341 11.6833 75.0516 11.9271 75.2281 12.1453C76.0793 13.1941 75.0893 13.772 74.5598 14.4747C75.9099 14.4715 77.2592 14.4683 78.6094 14.4659Z" fill="#ED8515"/>
<path d="M78.9006 17.8453C78.7698 16.7222 79.2438 15.5583 78.6148 14.4688C78.8218 15.5871 78.3685 16.7493 78.9006 17.8453Z" fill="#ED8515"/>
</g>
<g clip-path="url(#clip1_8091_68779)">
<path d="M40.5218 97.5274C40.5249 96.0851 40.3159 95.5499 40.6598 93.0198C41.0782 89.939 40.8148 86.8439 40.8246 83.7551C40.8255 83.3675 40.7064 82.9886 40.3901 82.6872C40.2315 82.5665 40.0649 82.5577 39.8911 82.66C39.4324 83.1053 39.4091 83.664 39.418 84.2156C39.4449 85.7831 39.2989 87.3531 39.5013 88.9158C39.5255 89.3883 39.4341 89.8575 39.4243 90.3315C39.3911 91.7975 38.0517 92.4842 36.5905 91.8047C36.319 91.6784 36.1111 91.5186 36.0941 91.2236C35.8827 87.4274 35.2636 83.6288 36.3298 79.8479C36.5779 78.967 36.6111 78.0341 36.0233 77.2172C35.673 76.7303 35.8307 76.218 35.7752 75.7128C35.656 73.5952 36.0207 71.4657 35.5584 69.3578C34.2082 68.325 32.7147 68.7335 31.2328 69.0149C30.4883 70.0605 30.9999 71.2307 30.8207 72.3314C30.7562 72.9278 30.4274 73.4873 30.4578 74.094C30.5089 75.1244 29.9176 75.4242 28.8496 75.3834C27.4305 75.3299 27.4529 75.214 27.2979 73.9861C26.9798 71.4649 27.1259 68.9429 27.0255 66.4234C27.013 66.1148 26.9046 65.8342 26.6331 65.6192C25.4263 65.0868 24.1944 65.1771 22.9526 65.4961C21.7566 66.5369 21.4 68.094 22.0262 69.5193C22.1696 73.9613 22.2081 78.4034 22.0029 82.8439C21.9366 84.2683 22.0164 85.692 21.9528 87.1149C21.899 88.3219 21.555 88.5441 20.1403 88.5737C18.9729 88.5977 18.4748 88.1684 18.4775 87.1181C18.4873 82.9342 18.2427 78.7519 18.3216 74.5665C18.3323 73.9781 18.4802 73.3466 17.9793 72.8271C17.8082 72.7111 17.6425 72.7159 17.4803 72.8406C16.9992 73.345 17.0261 73.959 17.0243 74.5617C17.0162 79.0029 16.8164 83.4522 17.0664 87.8831C17.543 96.3299 17.1515 104.776 17.3119 113.22C17.3181 113.565 17.2984 113.911 17.3459 114.254C17.5072 115.424 17.9883 115.855 19.3125 115.887C21.2952 115.934 23.2796 115.902 25.2632 115.902C29.3755 115.903 33.4879 115.914 37.6002 115.898C39.8472 115.888 40.7135 115.302 40.3623 113.355C39.6581 109.451 39.9359 105.544 39.8454 101.637C39.7768 98.6198 40.5169 99.689 40.5218 97.5274Z" fill="#852A0D"/>
<path d="M5.98067 119.149C5.38219 118.184 5.68592 117.152 5.68681 116.14C5.69308 109.151 5.69488 102.162 5.68412 95.1732C5.68323 94.3562 5.63843 93.5361 6.90796 93.5185C8.21064 93.5001 8.31278 94.3091 8.31189 95.2043C8.30293 101.416 8.30471 107.629 8.3083 113.841C8.3092 115.911 9.02325 116.483 11.324 116.565C20.0253 116.877 28.7292 116.802 37.4332 116.809C37.9618 116.81 38.5047 116.802 39.0154 116.7C40.2401 116.456 40.9022 115.849 40.8852 114.616C40.8314 110.648 40.8691 106.678 40.861 102.71C40.8601 102.102 40.9909 101.519 41.0957 100.923C41.2695 99.9358 41.9952 99.947 42.807 99.9837C43.6751 100.024 43.7737 100.549 43.7728 101.16C43.7692 106.682 43.7629 112.204 43.7844 117.726C43.7862 118.293 43.5129 118.713 43.1913 119.144C43.9349 119.209 44.3748 119.028 44.373 118.244C44.3533 112.212 44.3614 106.182 44.3605 100.151C44.3605 99.8854 44.3041 99.6376 44.0738 99.4458C42.9091 99.4514 41.7453 99.4569 40.5806 99.4625C39.7456 99.9494 39.8513 100.72 39.8531 101.443C39.8629 105.537 39.7698 109.63 40.1165 113.722C40.258 115.389 39.7348 115.772 37.8516 115.774C31.7028 115.782 25.5379 116.002 19.4116 115.674C16.6924 115.529 13.9589 115.333 11.2263 115.232C10.0885 115.189 9.76687 114.578 9.76777 113.677C9.76956 111.562 9.76777 109.448 9.76687 107.334C9.76419 103.192 9.77045 99.0493 9.76329 94.907C9.76239 94.1756 9.81167 93.4298 9.27949 92.7951C8.58514 92.1268 7.66233 92.345 6.82464 92.3538C5.86689 92.3642 5.04264 92.1772 4.73892 91.3186C4.45491 90.5153 4.71114 89.7895 5.64201 89.3722C6.49315 89.1084 7.37743 89.2811 8.24021 89.2003C9.41656 89.09 9.85557 88.5209 9.84392 87.1524C9.83407 86.106 9.39417 85.6903 8.18197 85.6136C7.40968 85.5648 6.6347 85.6192 5.85973 85.568C5.04533 85.5137 4.66366 85.1987 4.66456 84.4273C4.67441 77.6519 4.6547 70.8765 4.68606 64.1011C4.69143 62.8613 5.13044 62.5496 6.75566 62.5424C11.1135 62.524 15.4722 62.54 19.83 62.5328C20.5046 62.532 21.1873 62.5959 21.8521 62.4169C22.2857 62.2258 22.5984 61.9245 22.8474 61.5624C23.2408 59.6799 23.4146 57.7997 22.7283 55.9332C22.5437 55.7366 22.3036 55.6255 22.0277 55.5703C21.1138 55.5328 20.1973 55.5352 19.2825 55.5559C17.8706 55.5879 17.4522 55.8589 17.3751 57.1443C17.3124 58.197 16.8599 58.6047 15.697 58.5432C15.0385 58.508 14.3289 58.4944 13.8254 59.0236C11.3554 59.03 8.88438 59.0747 6.4161 59.0252C5.22989 59.0012 4.77207 59.3609 4.79447 60.444C4.8303 62.1835 4.51583 62.3985 2.49014 62.4161C0.167885 62.4361 0.166096 62.4361 0.165199 64.464C0.164303 71.0244 0.163406 77.5848 0.164303 84.1452C0.164303 85.9781 0.167885 85.9781 2.28497 85.9845C2.52687 85.9853 2.76966 85.9845 3.01157 85.9869C4.03472 85.9957 4.69323 86.4457 4.78103 87.3506C4.86704 88.2419 4.55794 88.9837 3.36367 89.1028C2.49014 90.4289 2.58152 91.4953 3.65305 92.4585C4.83209 92.64 4.81597 93.4298 4.81507 94.2355C4.81059 102.064 4.81328 109.893 4.81328 117.722C4.81507 118.451 4.64395 119.288 5.98067 119.149Z" fill="#100505"/>
<path d="M40.2781 82.6212C40.236 86.4429 40.4546 95.7373 40.0309 99.5582C39.8427 101.254 40.004 101.286 41.9338 101.282C43.1678 101.28 44.2147 101.415 44.2147 101.415C44.2147 101.415 44.2147 102.211 44.3645 93.2655C44.3618 90.3758 44.3546 87.4861 44.3663 84.5964C44.3734 82.7219 44.5096 82.6124 46.5774 82.6076C48.9212 82.6028 49 82.53 49 80.3981C48.9982 75.1359 48.9982 69.8745 48.9955 64.6123C48.9946 62.4021 48.9928 62.4005 46.4896 62.4061C45.8642 62.4077 45.2228 62.3325 44.6646 62.685C44.1037 63.0575 44.2238 63.6091 44.222 64.1103C44.2086 67.7714 44.119 71.4349 44.2569 75.0912C44.3232 76.8497 44.3161 78.5948 44.222 80.3478C44.1915 80.9185 44.1566 81.4685 43.6621 81.8921C42.6953 82.59 41.4321 81.9257 40.4322 82.4509C40.3794 82.5068 40.3283 82.5636 40.2781 82.6212Z" fill="#070405"/>
<path d="M35.9073 59.016C34.3699 58.9233 32.8002 59.3318 31.2914 58.7802C31.9482 58.0991 31.8845 57.3437 31.5844 56.562C30.8838 55.6259 28.3877 55.1495 27.3449 55.7466C26.9865 55.952 26.8297 56.2622 26.8127 56.6163C26.7356 58.207 26.7428 59.7978 26.8055 61.3885C26.8342 62.1127 27.3046 62.4964 28.1019 62.5044C33.2177 62.554 38.3334 62.55 43.4492 62.5076C43.7968 62.5044 44.114 62.4085 44.3559 62.1679C44.3326 58.5452 44.8379 59.0816 40.8188 59.04C39.1819 59.0232 37.5441 59.0232 35.9073 59.016Z" fill="#0F0505"/>
<path d="M26.6235 29C25.3612 29 24.0988 29.0008 22.8355 29.0008C22.2774 29.9848 22.6922 31.052 22.5031 32.0664C23.8918 32.056 25.2805 32.0456 26.6701 32.0352C26.8072 31.0224 26.8708 30.0088 26.6235 29Z" fill="#0D0607"/>
<path d="M13.5403 53.0863C13.543 53.2574 13.5457 53.4284 13.5484 53.5995C13.8978 55.5619 13.9005 55.5036 16.143 55.5667C17.2486 55.5979 17.6294 55.2829 17.4672 54.3397C17.3812 53.8409 17.5917 53.3173 17.3265 52.8297L17.3095 52.8169C16.195 52.5523 15.0607 52.749 13.9363 52.7074C13.6649 52.697 13.4902 52.8089 13.5403 53.0863Z" fill="#0E0806"/>
<path d="M17.326 52.8301C17.3234 53.0443 17.3189 53.2577 17.318 53.472C17.3099 55.5 17.1003 55.6047 14.8578 55.4304C13.3759 55.3153 14.158 54.1027 13.5479 53.6007C13.5443 53.9876 13.556 54.3744 13.5327 54.7597C13.4942 55.408 13.8041 55.7014 14.5522 55.687C15.5638 55.6678 16.5753 55.6998 17.5877 55.7102C17.4918 54.7509 17.9299 53.7533 17.326 52.8301Z" fill="#231006"/>
<path d="M13.5394 53.0873C14.7534 52.5254 16.0588 52.977 17.3086 52.8179C15.9853 52.3303 14.5903 52.7412 13.242 52.5605C13.2662 52.7316 13.2912 52.9027 13.3163 53.0737C13.3907 53.0785 13.4651 53.0833 13.5394 53.0873Z" fill="#231006"/>
<path d="M8.88837 92.7123C9.24943 93.2663 9.18134 93.877 9.18134 94.4781C9.18224 100.943 9.18044 107.408 9.18313 113.873C9.18403 115.465 9.50119 115.716 11.2859 115.779C19.9782 116.086 28.6741 116.039 37.37 116.035C40.1249 116.035 40.2817 115.892 40.2817 113.377C40.2817 109.283 40.2808 105.189 40.2817 101.094C40.2817 100.536 40.2208 99.9681 40.5801 99.4613C39.5704 99.6108 39.3983 100.32 39.4342 101.016C39.634 104.877 38.9791 108.752 39.9198 112.608C40.4968 114.974 39.8132 115.522 37.086 115.522C31.3762 115.522 25.6664 115.524 19.9567 115.522C17.9086 115.521 17.9041 115.519 17.9032 113.749C17.9014 106.16 18.1218 98.5637 17.8324 90.9825C17.6004 84.9073 17.7034 78.8402 17.63 72.7698C17.3352 71.8585 16.4375 72 15.7404 72.0264C14.4494 72.0744 14.0337 71.582 14.1027 70.4932C14.1681 69.4684 14.1421 68.4357 14.0982 67.4069C14.0686 66.7162 14.0122 66.0224 13.2883 65.5667C12.2248 65.1391 11.1282 65.1998 10.0235 65.3893C8.67872 65.7106 8.62138 66.6907 8.60974 67.6563C8.57838 70.3733 8.59988 73.0912 8.59809 75.809C8.5963 78.2678 8.59988 80.7267 8.59719 83.1855C8.59451 85.0256 8.45653 85.2039 7.07232 85.1983C5.64869 85.1927 5.40948 84.9025 5.4041 83.0872C5.39335 78.9033 5.39156 74.7187 5.4041 70.5348C5.41037 68.5532 5.40321 66.5731 5.55014 64.5899C5.62988 63.5164 5.98645 63.0975 7.16729 63.1791C7.74158 63.2182 8.3302 63.2134 8.89912 63.0703C9.07831 63.0496 9.25659 63.024 9.43578 63.0008C12.0824 62.5707 14.7513 62.8841 17.4078 62.801C18.5205 62.7658 19.6368 62.8257 20.7496 62.777C21.2423 62.7554 21.8784 62.8577 21.9689 62.1607C16.7448 62.1575 11.5197 62.1463 6.29555 62.1567C4.58343 62.1599 4.23581 62.4836 4.23491 63.9608C4.23133 70.7722 4.26179 77.5844 4.20535 84.3957C4.1946 85.6555 4.67571 86.1463 6.05185 86.0049C6.43352 85.9657 6.82504 85.9985 7.21208 85.9985C9.5406 85.9985 9.71621 86.1863 9.29423 88.1927C9.15984 88.8314 8.62676 88.8002 8.07845 88.845C7.08755 88.9265 6.05006 88.5756 5.10665 89.0912C5.50802 89.5892 6.11278 89.4493 6.6584 89.4725C7.26315 89.4981 7.89209 89.4046 8.38127 89.8386C8.90539 90.5005 8.54433 91.2703 8.71008 91.9737C8.73696 92.2255 8.71097 92.4885 8.88837 92.7123Z" fill="#602200"/>
<path d="M10.0415 65.7668C11.1032 65.7788 12.1648 65.7908 13.2265 65.8028C13.9047 66.1649 14.6278 66.3215 15.4287 66.3088C17.1641 66.2824 18.9004 66.2872 20.6368 66.3064C21.4332 66.3151 22.1697 66.2032 22.8237 65.778C24.0834 65.7892 25.344 65.8004 26.6036 65.8123C26.979 67.4247 26.7147 69.0538 26.7551 70.6749C26.8079 72.8068 27.2747 73.2136 29.6767 73.0162C30.113 72.9802 30.5386 72.9203 30.9005 72.6789C31.3082 72.2224 31.1594 71.6749 31.1057 71.1873C30.9552 69.8291 31.465 68.5534 31.6155 67.2352C31.7131 66.3831 32.4245 66.2816 33.2129 66.2896C33.9727 66.2976 34.4529 66.3919 34.8337 67.1952C35.9571 69.5646 35.5576 72.0122 35.6274 74.4391C35.6731 76.0202 36.0118 76.3815 37.7732 76.2352C38.9576 76.1369 39.462 76.5046 39.5624 77.5414C39.7657 79.6365 42.1525 80.4447 44.1889 79.1345C44.2302 73.9131 44.1961 68.6933 44.206 63.4726C44.2069 63.216 44.24 62.953 44.0985 62.7108C40.3768 62.4926 36.6506 62.6541 32.9262 62.6165C31.3772 62.6005 29.8209 62.5286 28.2799 62.6261C27.0516 62.7044 26.7434 62.2424 26.833 61.2824C26.8724 60.8563 26.8016 60.4222 26.781 59.9922C26.2426 60.0154 26.1736 60.4302 26.1655 60.7316C26.136 61.8163 25.3861 61.957 24.4113 61.9386C23.6928 61.925 22.9518 61.8875 22.2969 62.2584C21.8552 62.6381 21.3006 62.535 20.7783 62.5358C17.3899 62.5414 14.0024 62.5342 10.614 62.5438C10.1374 62.5454 9.6446 62.447 9.18499 62.6517L9.15722 62.6605C8.16452 64.2376 8.48437 65.3599 10.0415 65.7668Z" fill="#E34E0C"/>
<path d="M44.0987 62.7109C44.0826 68.2185 44.0656 73.7262 44.0494 79.2346C42.9008 79.5471 41.7209 79.5831 40.549 79.44C39.8305 79.3521 39.5841 78.8868 39.5384 78.229C39.4112 76.4248 39.172 76.2617 37.1167 76.4184C36.7593 76.4456 36.6007 76.2705 36.3677 76.1314C36.0801 75.9604 35.8562 75.5375 35.3974 75.8844C35.0462 76.7933 35.7961 77.5183 35.935 78.3513C36.1213 79.4736 35.3616 80.4064 35.3634 81.4752C35.3679 83.7981 35.3598 86.1211 35.3285 88.444C35.315 89.4496 36.0219 90.4201 35.4055 91.472C35.1788 91.8589 35.625 92.1595 36.0891 92.2922C37.1302 92.5903 38.1874 92.5192 39.2329 92.3673C39.7776 92.2882 40.007 91.9141 39.9918 91.4145C39.9676 90.6407 39.9667 89.8669 39.9559 89.0931C39.3476 88.5168 38.5305 88.6071 37.7734 88.6007C36.8444 88.5935 36.4743 88.225 36.4806 87.4152C36.4896 86.2937 36.4958 85.1714 36.4797 84.0499C36.4663 83.1419 36.9402 82.8381 37.9069 82.8597C38.6058 82.8757 39.3673 83.1315 39.9945 82.6103C40.0894 82.6103 40.1844 82.6143 40.2794 82.6223L40.2937 82.6095C41.5148 82.2482 42.8175 82.7406 44.0342 82.3281C44.3164 81.9996 44.3343 81.6191 44.3352 81.225C44.3451 75.3736 44.3621 69.5215 44.3746 63.6702C44.3738 63.332 44.449 62.9715 44.0987 62.7109Z" fill="#A11F32"/>
<path d="M22.8242 65.7773C19.6249 65.7853 16.4264 65.7933 13.227 65.8013C13.83 67.4872 13.4976 69.2218 13.4779 70.9268C13.4644 72.1531 13.8156 72.6463 15.2554 72.5312C16.0277 72.4696 16.8985 72.2418 17.6287 72.7686C17.704 72.775 17.7792 72.7862 17.8527 72.8013C17.9181 72.7638 17.9826 72.7254 18.0489 72.6886C18.5202 72.1323 18.4485 71.472 18.4333 70.8445C18.4136 69.9884 18.7818 69.5879 19.7772 69.6223C20.4876 69.6463 21.2115 69.6742 21.9122 69.4888C22.1523 69.4288 22.3404 69.2977 22.5106 69.1435C21.5869 67.9452 22.7848 66.9044 22.8242 65.7773Z" fill="#A11F32"/>
<path d="M22.5122 69.1445C22.325 69.1477 22.1386 69.1509 21.9514 69.1541C21.3386 69.7041 21.3941 70.4107 21.3923 71.0974C21.3807 74.1989 21.3995 77.3004 21.3789 80.402C21.3753 80.9032 21.473 81.4683 20.7813 81.7377C19.8612 82.0958 19.1086 81.641 19.0817 80.6378C19.0307 78.7001 19.0719 76.7609 19.062 74.8224C19.0593 74.3492 19.0898 73.868 18.9223 73.4123C18.7726 73.0047 18.6302 72.5458 17.9439 72.7377C17.9439 72.7377 17.8543 72.8032 17.8534 72.8032C17.8758 77.6761 17.8964 82.5491 17.9224 87.4212C17.9305 88.9647 18.0908 89.0982 19.8486 89.1078C22.3071 89.1206 22.5338 88.9919 22.5346 87.3828C22.5382 81.3028 22.5221 75.2237 22.5122 69.1445Z" fill="#A12133"/>
<path d="M39.9922 82.61C39.0434 82.4949 38.1063 82.3359 37.1333 82.3598C36.2669 82.3814 35.922 82.7084 35.9309 83.4566C35.9489 84.957 35.9507 86.4582 35.9247 87.9586C35.9112 88.7667 36.275 89.1464 37.2121 89.1089C38.1242 89.0721 39.0398 89.0953 39.9537 89.0921C39.9662 86.9314 39.9796 84.7707 39.9922 82.61Z" fill="#E34E0C"/>
<path d="M35.3968 75.8825C35.5724 75.9464 35.8851 75.988 35.9039 76.0775C36.1933 77.4676 36.7363 77.271 37.8445 76.5644C38.6061 76.0791 38.9411 76.9992 39.0737 77.5612C39.6426 79.968 39.6256 79.988 42.4738 79.6587C42.8895 79.6107 43.2165 79.6947 43.5865 79.785C44.2029 79.9353 43.9996 79.4884 44.0488 79.2326C43.6618 79.2342 43.2756 79.2374 42.8895 79.2358C40.2671 79.2254 40.2564 79.2262 40.0082 76.9297C39.8944 75.8777 39.0925 75.7194 38.1626 75.785C35.9631 75.9401 35.938 75.9353 35.9344 74.02C35.9326 73.0296 35.809 72.0232 35.9631 71.0519C36.2211 69.422 35.2759 67.9568 35.3252 66.3693C35.3386 65.932 34.9793 65.7881 34.5466 65.7833C33.725 65.7754 32.9017 65.7474 32.0828 65.7841C30.9378 65.8353 31.0525 66.6866 31.0229 67.3229C30.945 69.0431 30.9611 70.7666 30.9405 72.4892C31.0184 72.5723 31.1018 72.5779 31.1922 72.5052C31.2254 71.3965 31.2585 70.287 31.2917 69.1782C32.6544 69.0384 34.0601 68.279 35.3359 69.3997C35.3565 71.5627 35.3771 73.7226 35.3968 75.8825Z" fill="#A12134"/>
<path d="M31.1914 72.5068C31.1072 72.5052 31.0239 72.4996 30.9396 72.4908C26.9133 72.5636 26.9492 72.5636 26.9017 68.9265C26.8883 67.8905 27.2869 66.801 26.6025 65.8105C26.6186 68.7586 26.6517 71.7066 26.641 74.6547C26.6383 75.4261 26.8623 75.8418 27.837 75.8937C30.6995 76.0456 30.6977 76.0728 31.0391 73.6475C31.0929 73.2678 31.1412 72.8873 31.1914 72.5068Z" fill="#A01F31"/>
<path d="M28.7898 82.3744C31.0099 82.3744 31.0099 82.3744 31.0117 80.7213C31.0126 79.0003 31.0126 79.0035 28.926 79.0019C27.8007 79.0011 26.6207 78.8572 26.6324 80.4008C26.6467 82.3736 26.61 82.3744 28.7898 82.3744Z" fill="#A01E31"/>
<path d="M24.6625 66.0872C23.0982 65.8035 22.8554 66.4989 22.7972 67.6644C22.7211 69.1992 23.7155 69.0889 24.8991 69.1704C26.5673 69.2855 26.2788 68.3494 26.3621 67.4534C26.4777 66.2087 25.9186 65.7811 24.6625 66.0872Z" fill="#602200"/>
<path d="M35.3359 69.4039C35.0179 68.6405 34.8047 67.6933 33.5799 68.7069C33.2529 68.9778 32.8668 68.762 32.4976 68.6981C31.9923 68.6109 31.4127 68.4678 31.2926 69.1817C32.6437 69.1953 34.018 68.8931 35.3359 69.4039Z" fill="#A11F32"/>
<path d="M3.36501 74.1348C3.36501 70.9853 3.36232 67.8366 3.3668 64.6871C3.3677 63.9285 3.434 63.1995 2.17522 63.1691C1.08487 63.1427 0.82326 63.5736 0.701413 64.4705C0.362752 66.9629 0.534769 69.4297 0.666471 71.9261C0.867159 75.7543 0.72202 79.5992 0.657513 83.4362C0.641386 84.3874 0.599276 85.1636 2.01664 85.2139C3.16791 85.2547 3.38383 84.7127 3.37576 83.8414C3.34799 80.6056 3.36411 77.3706 3.36501 74.1348Z" fill="#060304"/>
<path d="M13.5515 45.9081C13.5604 47.5012 13.6608 49.0999 13.5506 50.6867C13.4628 51.9465 13.8113 52.4509 15.3568 52.3829C17.826 52.2742 17.869 52.3645 17.9344 54.5116C17.9604 55.367 18.4119 55.618 19.263 55.6787C20.1545 55.7419 21.0871 55.4117 21.9356 55.8857C22.13 55.9169 22.3244 55.9481 22.5197 55.9793C24.015 56.2391 25.5086 56.4661 26.934 55.7331C27.8532 55.7163 28.7778 55.6339 29.689 55.6987C30.8134 55.7786 31.1896 55.363 31.0445 54.4229C31.0051 54.1687 31.0642 53.9033 31.0311 53.6475C30.9101 52.7139 31.3124 52.3494 32.4126 52.3422C35.4256 52.3222 35.4256 52.2838 35.4274 49.5772C35.4283 48.7139 35.3763 47.8481 35.4373 46.9888C35.5 46.1047 35.1532 45.7706 34.122 45.7642C33.1903 45.7586 32.2038 46.0448 31.3088 45.5596L31.281 45.5364C31.1977 45.5396 31.1144 45.5348 31.032 45.5212C30.9827 45.5636 30.9334 45.6059 30.8832 45.6483C30.8608 46.5955 31.7245 46.5076 32.3203 46.498C33.8273 46.4756 34.1238 47.5868 34.4177 48.4141C34.7546 49.3621 34.8047 50.4812 33.6176 51.2055C32.5846 51.8354 31.9566 51.5972 31.7738 50.4733C31.712 50.0904 31.7182 49.6915 31.4486 49.3645C31.2425 49.1151 30.9961 49.056 30.7444 49.3366C30.5813 49.5596 30.5141 49.8082 30.4702 50.0648C30.1799 51.7554 30.1799 51.8554 28.1856 51.8546C25.0552 51.853 21.9239 51.7778 18.7945 51.8018C18.359 51.773 18.0535 51.6235 18.0526 51.1799C18.0473 49.6739 18.0195 48.1671 18.0679 46.6611C18.0786 46.327 18.4289 46.1639 18.5597 45.8873C18.6018 45.7362 18.5696 45.6011 18.4639 45.478C18.2515 45.3302 18.0043 45.3094 17.748 45.3126C16.7974 45.2958 15.8478 45.295 14.9008 45.3549C14.3874 45.3893 13.8427 45.4157 13.5515 45.9081Z" fill="#EC8417"/>
<path d="M13.3125 61.3684C15.4439 61.3676 17.5753 61.402 19.705 61.354C20.8759 61.3276 21.5927 60.0319 21.3768 58.5267C21.2316 57.5155 20.5982 57.1118 19.4774 57.2285C18.8431 57.2948 18.5591 57.4627 18.654 58.1358C18.835 59.4155 18.4086 59.796 16.8667 59.8088C13.6297 59.836 10.3909 59.8736 7.16285 59.5674C6.69697 59.5235 6.17554 59.4875 5.85032 59.9263C5.34949 60.6018 5.86823 61.3452 6.92005 61.3596C9.04968 61.3908 11.1811 61.37 13.3125 61.3684Z" fill="#060304"/>
<path d="M26.9336 55.7318C25.458 55.7598 23.9519 55.3473 22.5194 55.978C22.5131 57.8861 22.5068 59.7934 22.5005 61.7015C22.299 61.9717 22.2963 62.2155 22.617 62.4177C23.4314 62.4209 24.253 62.3625 25.0575 62.4417C26.3468 62.568 26.8126 62.094 26.663 60.9844C26.6191 60.6607 26.7356 60.3202 26.7795 59.9892C26.8315 58.5712 26.8825 57.1515 26.9336 55.7318Z" fill="#DE9E58"/>
<path d="M22.6191 62.4195C22.5806 62.1796 22.5412 61.9406 22.5027 61.7016C22.0914 61.6393 22.0789 61.943 21.9705 62.1597C21.5602 62.6057 20.9921 62.4219 20.4913 62.4243C17.2301 62.4402 13.9689 62.4275 10.7078 62.4378C10.1935 62.4394 9.64429 62.3179 9.18378 62.6529C13.2486 62.6609 17.3134 62.6697 21.3783 62.6777C21.8155 62.6784 22.2572 62.7 22.6191 62.4195Z" fill="#A01F30"/>
<path d="M44.0329 82.3285C42.7939 82.5036 41.4921 82.0208 40.2924 82.6099C41.5431 82.6011 42.7939 82.5915 44.0446 82.5819C44.0482 82.4972 44.0446 82.4133 44.0329 82.3285Z" fill="#681415"/>
<path d="M17.9511 45.561C18.1284 45.569 18.3067 45.5762 18.4841 45.5842C19.3469 46.1805 20.3342 45.9647 21.2723 45.8672C21.9881 45.792 22.3089 45.2932 22.3671 44.6737C22.4235 44.0718 22.3931 43.4683 22.4029 42.8696C22.3778 41.7744 23.2908 40.8008 22.927 39.6449C22.8661 39.4523 23.1734 39.2548 23.4332 39.326C24.6311 39.6537 25.9266 39.2205 27.0994 39.7193C28.3967 39.8304 29.6958 40.0534 30.9707 39.609C30.8569 38.8608 30.1903 39.1637 29.7289 39.1014C28.8491 38.9831 27.9075 39.3188 27.0779 38.8152C26.5842 37.2181 26.8593 35.5874 26.8727 33.9766C26.8826 32.7896 26.5636 32.2748 25.0979 32.3348C22.5203 32.4403 22.5176 32.3683 22.5176 34.6673C22.5176 35.7416 22.5319 36.8168 22.5024 37.8911C22.4934 38.2269 22.7273 38.7249 22.0132 38.7712C21.9756 38.804 21.9379 38.8376 21.9003 38.8703C21.1531 39.2892 20.3217 39.0806 19.5333 39.083C18.4143 39.0854 17.874 39.4179 17.917 40.509C17.9752 41.9951 17.8767 43.4859 17.8453 44.9751C17.6805 45.1981 17.719 45.3931 17.9511 45.561Z" fill="#E15518"/>
<path d="M17.9512 45.5623C17.9162 45.3672 17.8813 45.1722 17.8463 44.9756C17.3769 43.5063 17.755 42.0043 17.6233 40.5231C17.5794 40.0267 17.7962 39.4799 17.2954 39.0643C16.2417 38.9036 15.189 38.902 14.1363 39.0659C13.9311 39.161 13.7269 39.2561 13.5217 39.352C12.7485 40.882 13.1203 42.4703 13.2673 44.0363C13.3076 44.4624 13.4644 44.8708 13.2816 45.2937C13.1723 45.3912 13.063 45.4887 12.9537 45.5863C12.8883 45.6486 12.8632 45.7126 12.8802 45.7789C12.8972 45.8461 12.9152 45.8796 12.9358 45.8796C13.0567 45.938 13.166 45.9284 13.2646 45.8397C13.3604 45.862 13.4572 45.8836 13.5531 45.9068C14.9901 45.5047 16.5186 46.0171 17.9512 45.5623Z" fill="#231006"/>
<path d="M13.2637 45.8411C13.1562 45.8355 13.0486 45.8299 12.942 45.8243C11.7881 45.6157 10.6332 45.6349 9.47747 45.8147C8.84405 47.3959 9.32785 49.0298 9.19526 50.6357C9.14956 51.1873 9.19436 51.7452 9.19795 52.3008C10.5383 52.5526 11.8839 52.4542 13.2296 52.3503C13.2404 50.1809 13.252 48.0106 13.2637 45.8411Z" fill="#080707"/>
<path d="M27.2593 38.7709C28.5907 38.6182 30.0448 39.2913 31.2507 38.2985C32.2156 36.4927 32.1923 34.6846 31.2677 32.8748C30.1603 31.89 28.8182 32.4527 27.5783 32.4751C27.1294 32.4831 27.185 33.0075 27.1885 33.3416C27.2038 35.1514 27.2342 36.9612 27.2593 38.7709Z" fill="#0A0404"/>
<path d="M36.2162 45.582C36.2153 47.4765 36.2404 49.371 36.1992 51.2647C36.1821 52.0465 36.5083 52.3806 37.3845 52.3119C37.7679 52.2815 38.1621 52.2719 38.542 52.3167C39.6969 52.4534 40.0687 52.0209 40.0203 51.0033C39.9388 49.2839 39.9943 47.5597 39.9925 45.8378L39.9836 45.8298C38.8448 45.4765 37.6371 45.913 36.4966 45.5876C36.4034 45.5884 36.3103 45.586 36.2162 45.582Z" fill="#060505"/>
<path d="M18.472 32.606C17.8753 32.6947 17.9004 33.1032 17.8995 33.4957C17.8968 34.9577 17.9219 36.4198 17.8843 37.881C17.8654 38.6212 18.2229 38.8634 19.0113 38.8402C19.9736 38.813 20.9385 38.857 21.9016 38.8714C21.9616 38.8602 21.9984 38.8274 22.0127 38.7731C22.0002 37.0688 21.9267 35.3622 21.9966 33.6612C22.0369 32.6635 21.7 32.2047 20.5443 32.3566C19.8535 32.4477 19.1045 32.1496 18.4693 32.6076C18.6772 32.7922 18.911 32.9297 19.2013 33.0017C20.9268 33.4285 21.0191 33.5333 21.123 35.1344C21.1598 35.6923 21.1687 36.2527 21.0809 36.8066C20.9671 37.5237 20.4538 37.8674 19.6761 37.8242C18.868 37.7787 19.0624 37.1592 19.0319 36.7323C18.971 35.8754 19.0257 35.0145 19.0024 34.156C18.988 33.5972 18.9988 33.0265 18.472 32.606Z" fill="#231006"/>
<path d="M13.2497 39.3532C13.2497 40.9927 13.2497 42.6321 13.2497 44.2716C13.2595 44.6122 13.2703 44.9535 13.2801 45.294C13.8284 43.3284 13.4136 41.3316 13.5202 39.3516C13.4306 39.3516 13.3401 39.3524 13.2497 39.3532Z" fill="#24313B"/>
<path d="M13.2306 52.3484C11.8867 52.3316 10.5428 52.3148 9.19895 52.2988C9.19179 52.3884 9.18462 52.4779 9.17745 52.5674C10.5312 52.5634 11.8849 52.5586 13.2387 52.5546C13.2423 52.4851 13.2396 52.4163 13.2306 52.3484Z" fill="#24313B"/>
<path d="M39.1188 45.5571C39.023 45.5619 38.928 45.5611 38.8321 45.5547C38.0536 45.5643 37.275 45.5747 36.4964 45.5851C37.6235 46.0687 38.8241 45.7146 39.9834 45.8273C39.7693 45.5507 39.4342 45.5803 39.1188 45.5571Z" fill="#4F2E1F"/>
<path d="M9.47692 45.814C10.6318 45.8172 11.7866 45.8204 12.9415 45.8235C12.946 45.7444 12.9504 45.6653 12.9531 45.5869C11.7956 45.6821 10.6013 45.3239 9.47692 45.814Z" fill="#24313B"/>
<path d="M26.6231 29C26.6383 30.0128 26.6535 31.0248 26.6688 32.0368C27.0379 31.0192 27.0836 30.0064 26.6231 29Z" fill="#24313B"/>
<path d="M14.1369 39.0668C15.1905 39.0668 16.2442 39.066 17.2969 39.066C16.2433 38.7111 15.1896 38.7135 14.1369 39.0668Z" fill="#24313B"/>
<path d="M31.3102 45.5574C32.2724 45.5503 33.2373 45.5039 34.1978 45.5471C35.0919 45.5878 35.3822 45.2537 35.358 44.4887C35.3132 43.0738 35.3222 41.6574 35.3517 40.2417C35.3687 39.4167 34.9665 39.089 34.0517 39.0938C30.6535 39.113 31.3657 38.8852 31.3039 41.416C31.2699 42.7885 31.2878 44.1618 31.2824 45.5343L31.3102 45.5574Z" fill="#060405"/>
<path d="M30.9714 39.6091C29.6517 39.1143 28.2666 39.458 26.9164 39.3613C26.3179 39.8217 26.4165 40.4836 26.4595 41.0408C26.5643 42.3981 26.8349 43.7434 26.8196 45.1127C26.8143 45.5788 27.092 45.9672 27.6547 46.0088C28.7862 46.0927 29.9545 46.323 30.9723 45.6131L31.0332 45.5204C31.0126 43.55 30.992 41.5795 30.9714 39.6091Z" fill="#E95719"/>
<path d="M33.3035 52.8248C31.2787 52.8232 31.3557 52.8264 31.2751 54.3971C31.2204 55.4579 31.6765 55.8048 32.7767 55.6753C32.9191 55.6585 33.066 55.6729 33.2103 55.6729C35.296 55.6737 35.2476 55.6242 35.374 54.1214C35.5119 52.4978 34.3024 52.8584 33.3035 52.8248Z" fill="#0A0606"/>
<path d="M10.041 65.7675C9.22034 65.4806 9.11642 64.897 9.17465 64.2064C9.21766 63.6948 9.16659 63.1768 9.15673 62.6612C5.01396 62.5221 4.92884 62.5213 4.88584 66.1057C4.81416 72.0969 4.85717 78.0889 4.8715 84.0809C4.87329 84.6645 4.77116 85.4966 5.50672 85.6581C6.6105 85.9003 7.82897 85.9483 8.92558 85.5749C9.40491 85.4119 9.20511 84.798 9.20511 84.3823C9.21318 78.6924 9.20601 73.0018 9.21228 67.3119C9.21318 66.694 8.99726 65.9546 10.041 65.7675Z" fill="#A01F30"/>
<path d="M17.9437 72.7374C18.6336 72.9692 18.4481 73.5064 18.4508 73.954C18.4661 76.3689 18.5297 78.7862 18.4347 81.1978C18.3818 82.5392 19.3002 82.3617 20.2212 82.3673C21.1592 82.3729 22.0301 82.5064 22.0023 81.1842C21.9199 77.1754 21.9593 73.1642 21.9503 69.1538C20.9442 69.1474 19.9372 69.1522 18.931 69.1315C18.2089 69.1163 17.8756 69.3904 17.9016 70.0483C17.9375 70.9444 17.9321 71.8413 17.9437 72.7374Z" fill="#E34E0C"/>
<path d="M18.47 52.313C22.2329 52.3298 25.9958 52.3322 29.7578 52.3738C30.6618 52.3841 31.1134 52.1427 31.0462 51.273C30.9933 50.588 31.0453 49.8957 31.0507 49.2067C30.6502 48.7239 30.0454 48.7566 29.4756 48.7183C27.6094 48.5936 27.6058 48.5968 27.4481 47.002C27.4096 46.6143 27.3783 46.2291 27.1265 45.8917C26.6606 44.8246 27.0781 43.6991 26.8532 42.6159C26.795 42.4673 26.6929 42.3497 26.5495 42.2594C25.2988 41.8517 24.0373 41.8997 22.7696 42.1899C22.6137 42.2546 22.4874 42.3505 22.3888 42.476C22.1514 43.1307 22.2679 43.8062 22.2732 44.4713C22.2777 45.0252 22.1075 45.4529 21.5646 45.743C21.1883 45.8526 20.8003 45.8222 20.416 45.827C18.074 45.8573 18.0498 45.8765 18.0472 47.9029C18.0463 48.9333 18.0543 49.9637 18.0445 50.9941C18.0382 51.4761 18.0624 51.9413 18.47 52.313Z" fill="#FDEB43"/>
<path d="M26.9006 45.8444C26.7994 49.1018 26.7994 49.1018 30.4727 49.1681C30.6653 49.1713 30.857 49.1921 31.0497 49.2049C31.4125 49.6749 31.2521 50.2089 31.2674 50.7157C31.3041 51.9819 31.778 52.356 33.1354 51.9987C33.9776 51.7772 34.938 51.2265 34.9425 50.5182C34.9496 49.4807 35.816 48.2081 34.3619 47.3608C34.2822 47.3144 34.1173 47.2672 34.1218 47.2393C34.4954 45.1153 32.6381 46.4367 31.8658 46.1098C31.5344 45.9691 31.0971 46.0386 30.9717 45.6126C30.2523 45.5998 29.514 45.4894 28.817 45.5942C27.3539 45.814 27.0502 45.2608 27.1712 44.0786C27.3324 42.5062 26.7017 40.9483 26.9158 39.3607C25.7072 38.7045 24.3293 39.2664 23.058 38.9531C22.7668 38.8811 22.2597 39.3256 22.4039 39.6469C22.8725 40.6869 22.111 41.5262 21.9694 42.4591C22.1647 42.6125 22.3636 42.6125 22.567 42.4719L22.5607 42.4743C23.411 42.0874 24.1152 41.6477 23.9342 40.6189C23.8222 39.9834 24.4099 39.9754 24.9027 39.9906C25.4295 40.0066 25.7207 40.2272 25.5522 40.7372C25.2584 41.6293 25.8309 42.0962 26.6094 42.4647L26.6148 42.4671C27.0359 43.5718 26.5145 44.7388 26.9006 45.8444Z" fill="#EE8415"/>
<path d="M13.8307 49.1713C13.8307 49.6022 13.7707 50.041 13.845 50.4607C13.9445 51.0202 13.3899 51.8748 14.5403 52.021C15.6933 52.1673 17.0086 51.7165 17.1671 50.8715C17.435 49.4399 17.8866 47.8116 16.3151 46.5278C15.6503 45.9842 14.9909 46.0306 14.319 46.1601C13.6076 46.2968 13.8656 46.9243 13.8397 47.3639C13.8047 47.9651 13.8307 48.5686 13.8307 49.1713Z" fill="#ED8414"/>
<path d="M18.469 52.3104C18.4708 50.6381 18.5255 48.9642 18.4547 47.2952C18.4135 46.3231 18.814 46.0106 19.873 46.0513C20.5539 46.0777 21.3217 46.3207 21.9336 45.79C20.785 45.6237 19.6337 45.6717 18.4825 45.7628C17.8795 45.9035 17.6304 46.2528 17.6358 46.8043C17.6511 48.3095 17.6394 49.8147 17.6421 51.3199C17.643 51.8291 17.7362 52.284 18.469 52.3104Z" fill="#FCC937"/>
<path d="M18.4819 45.7675C19.6323 45.777 20.7836 45.7858 21.934 45.7954C22.8317 45.3838 22.4957 44.6332 22.5414 43.9953C22.5781 43.4901 22.5602 42.9825 22.5674 42.4757C22.3685 42.4717 22.1696 42.4669 21.9698 42.4629C21.9071 45.4437 21.9071 45.4437 18.4837 45.5884C18.4828 45.6476 18.4828 45.7075 18.4819 45.7675Z" fill="#ED8515"/>
<path d="M18.4714 32.6074C18.475 34.0639 18.449 35.5203 18.4956 36.9759C18.5135 37.5547 18.1641 38.378 19.2616 38.5075C20.3923 38.641 21.5391 37.9504 21.6439 37.0743C21.8034 35.7481 21.6376 34.43 21.3563 33.123C21.2613 32.6794 20.8913 32.6298 20.4881 32.625C19.8153 32.617 19.1424 32.6146 18.4696 32.6098C18.4687 32.609 18.4714 32.6074 18.4714 32.6074Z" fill="#0C0505"/>
<path d="M26.6094 42.4659C26.1847 41.7936 25.4223 41.1917 26.2528 40.3148C26.4651 40.0902 26.2546 39.7201 25.8326 39.6409C25.1185 39.5066 24.4 39.5082 23.6806 39.6273C23.341 39.6833 23.0516 39.9271 23.2281 40.1453C24.0793 41.1941 23.0893 41.772 22.5598 42.4747C23.9099 42.4715 25.2592 42.4683 26.6094 42.4659Z" fill="#ED8515"/>
<path d="M26.9006 45.8453C26.7698 44.7222 27.2438 43.5583 26.6148 42.4688C26.8218 43.5871 26.3685 44.7493 26.9006 45.8453Z" fill="#ED8515"/>
</g>
<g clip-path="url(#clip2_8091_68779)">
<path d="M134.945 94.9451C134.947 93.2245 134.797 92.586 135.043 89.5676C135.342 85.8923 135.154 82.1999 135.161 78.5151C135.162 78.0526 135.076 77.6006 134.85 77.2411C134.737 77.0971 134.618 77.0866 134.494 77.2086C134.166 77.7398 134.15 78.4064 134.156 79.0644C134.175 80.9344 134.071 82.8074 134.216 84.6717C134.233 85.2353 134.168 85.7951 134.161 86.3606C134.137 88.1095 133.18 88.9287 132.136 88.1181C131.943 87.9674 131.794 87.7767 131.782 87.4248C131.631 82.8961 131.189 78.3644 131.95 73.8538C132.128 72.8029 132.151 71.69 131.731 70.7154C131.481 70.1346 131.594 69.5234 131.554 68.9207C131.469 66.3945 131.729 63.8541 131.399 61.3393C130.435 60.1073 129.368 60.5946 128.31 60.9302C127.778 62.1776 128.143 63.5737 128.015 64.8868C127.969 65.5982 127.734 66.2658 127.756 66.9896C127.792 68.2188 127.37 68.5764 126.607 68.5278C125.594 68.4639 125.61 68.3256 125.499 66.8608C125.272 63.8531 125.376 60.8444 125.304 57.8386C125.295 57.4705 125.218 57.1358 125.024 56.8792C124.162 56.2441 123.282 56.3519 122.395 56.7324C121.541 57.974 121.286 59.8317 121.733 61.532C121.836 66.8313 121.863 72.1306 121.717 77.428C121.669 79.1273 121.726 80.8257 121.681 82.5232C121.643 83.9632 121.397 84.2283 120.386 84.2636C119.552 84.2922 119.197 83.7801 119.199 82.527C119.206 77.5357 119.031 72.5464 119.087 67.5532C119.095 66.8513 119.201 66.0979 118.843 65.4781C118.721 65.3398 118.602 65.3455 118.486 65.4943C118.143 66.096 118.162 66.8284 118.161 67.5474C118.155 72.8458 118.012 78.1537 118.191 83.4396C118.531 93.5166 118.251 103.593 118.366 113.667C118.371 114.078 118.356 114.491 118.39 114.9C118.506 116.296 118.849 116.81 119.795 116.848C121.211 116.904 122.629 116.866 124.046 116.866C126.983 116.867 129.92 116.88 132.858 116.86C134.463 116.849 135.082 116.15 134.831 113.827C134.328 109.169 134.526 104.509 134.461 99.8477C134.412 96.2484 134.941 97.5239 134.945 94.9451Z" fill="#852A0D"/>
<path d="M110.272 120.739C109.845 119.588 110.062 118.357 110.062 117.149C110.067 108.811 110.068 100.473 110.06 92.1359C110.06 91.1613 110.028 90.1829 110.935 90.1619C111.865 90.14 111.938 91.1051 111.937 92.1731C111.931 99.5837 111.932 106.995 111.935 114.406C111.935 116.876 112.445 117.558 114.089 117.656C120.304 118.028 126.521 117.938 132.738 117.947C133.116 117.948 133.504 117.939 133.868 117.817C134.743 117.526 135.216 116.801 135.204 115.331C135.166 110.597 135.192 105.861 135.187 101.127C135.186 100.402 135.279 99.7058 135.354 98.9954C135.479 97.8176 135.997 97.831 136.577 97.8748C137.197 97.9225 137.267 98.5491 137.267 99.2786C137.264 105.866 137.26 112.454 137.275 119.042C137.276 119.718 137.081 120.218 136.851 120.732C137.382 120.811 137.697 120.594 137.695 119.659C137.681 112.463 137.687 105.269 137.686 98.0742C137.686 97.7575 137.646 97.4619 137.482 97.2331C136.65 97.2397 135.818 97.2464 134.986 97.2531C134.39 97.8338 134.465 98.7531 134.467 99.6162C134.474 104.5 134.407 109.383 134.655 114.265C134.756 116.253 134.382 116.71 133.037 116.713C128.645 116.722 124.242 116.985 119.866 116.594C117.923 116.42 115.971 116.186 114.019 116.065C113.206 116.015 112.977 115.286 112.977 114.21C112.979 111.688 112.977 109.166 112.977 106.643C112.975 101.702 112.979 96.7601 112.974 91.8184C112.973 90.9458 113.009 90.0561 112.628 89.2989C112.133 88.5017 111.473 88.762 110.875 88.7725C110.191 88.7849 109.602 88.5617 109.385 87.5375C109.182 86.5791 109.365 85.7133 110.03 85.2155C110.638 84.9008 111.27 85.1067 111.886 85.0104C112.726 84.8788 113.04 84.1999 113.032 82.5672C113.025 81.3189 112.71 80.8231 111.845 80.7315C111.293 80.6733 110.739 80.7382 110.186 80.6772C109.604 80.6123 109.331 80.2366 109.332 79.3163C109.339 71.2334 109.325 63.1505 109.347 55.0675C109.351 53.5885 109.665 53.2165 110.826 53.208C113.938 53.186 117.052 53.2051 120.165 53.1965C120.646 53.1956 121.134 53.2719 121.609 53.0582C121.919 52.8303 122.142 52.4708 122.32 52.0388C122.601 49.793 122.725 47.5501 122.235 45.3234C122.103 45.0888 121.931 44.9562 121.734 44.8904C121.082 44.8456 120.427 44.8485 119.774 44.8733C118.765 44.9114 118.466 45.2347 118.411 46.7681C118.366 48.0241 118.043 48.5104 117.212 48.437C116.742 48.395 116.235 48.3788 115.876 49.0101C114.111 49.0177 112.346 49.0711 110.583 49.012C109.736 48.9834 109.409 49.4125 109.425 50.7047C109.45 52.7798 109.226 53.0363 107.779 53.0573C106.12 53.0811 106.119 53.0811 106.118 55.5005C106.118 63.3269 106.117 71.1533 106.118 78.9797C106.118 81.1664 106.12 81.1664 107.632 81.174C107.805 81.1749 107.979 81.174 108.151 81.1769C108.882 81.1873 109.353 81.7242 109.415 82.8037C109.477 83.867 109.256 84.752 108.403 84.8941C107.779 86.4762 107.844 87.7483 108.61 88.8974C109.452 89.1139 109.44 90.0561 109.44 91.0173C109.436 100.357 109.438 109.697 109.438 119.037C109.44 119.906 109.317 120.904 110.272 120.739Z" fill="#100505"/>
<path d="M134.77 77.1621C134.74 81.7214 134.896 92.8094 134.593 97.3677C134.459 99.3904 134.574 99.4295 135.953 99.4247C136.834 99.4214 137.582 99.5822 137.582 99.5822C137.582 99.5822 137.582 100.532 137.689 89.8605C137.687 86.4132 137.682 82.9658 137.69 79.5185C137.695 77.2822 137.793 77.1516 139.27 77.1459C140.944 77.1401 141 77.0534 141 74.51C140.999 68.2323 140.999 61.9556 140.997 55.6778C140.996 53.0411 140.995 53.0392 139.207 53.0458C138.76 53.0477 138.302 52.9581 137.903 53.3786C137.503 53.823 137.588 54.481 137.587 55.079C137.578 59.4466 137.514 63.817 137.612 68.1789C137.659 70.2769 137.654 72.3587 137.587 74.45C137.565 75.1308 137.54 75.7869 137.187 76.2924C136.497 77.1249 135.594 76.3324 134.88 76.9589C134.842 77.0257 134.806 77.0934 134.77 77.1621Z" fill="#070405"/>
<path d="M131.648 49.0016C130.55 48.891 129.429 49.3783 128.351 48.7203C128.82 47.9078 128.775 47.0066 128.56 46.074C128.06 44.9573 126.277 44.3889 125.532 45.1013C125.276 45.3464 125.164 45.7164 125.152 46.1389C125.097 48.0366 125.102 49.9343 125.147 51.832C125.167 52.696 125.503 53.1537 126.073 53.1633C129.727 53.2224 133.381 53.2176 137.035 53.1671C137.283 53.1633 137.51 53.0488 137.683 52.7618C137.666 48.4399 138.027 49.0798 135.156 49.0302C133.987 49.0102 132.817 49.0102 131.648 49.0016Z" fill="#0F0505"/>
<path d="M125.017 13.1929C124.115 13.1929 123.214 13.1938 122.311 13.1938C121.913 14.3677 122.209 15.6408 122.074 16.851C123.066 16.8386 124.058 16.8262 125.05 16.8138C125.148 15.6055 125.194 14.3963 125.017 13.1929Z" fill="#0D0607"/>
<path d="M115.672 41.9272C115.673 42.1313 115.675 42.3354 115.677 42.5395C115.927 44.8806 115.929 44.811 117.531 44.8863C118.32 44.9235 118.592 44.5478 118.476 43.4225C118.415 42.8275 118.565 42.2028 118.376 41.6211L118.364 41.6059C117.568 41.2902 116.758 41.5248 115.954 41.4752C115.76 41.4628 115.636 41.5963 115.672 41.9272Z" fill="#0E0806"/>
<path d="M118.375 41.6221C118.373 41.8776 118.37 42.1323 118.37 42.3878C118.364 44.8072 118.214 44.9321 116.612 44.7242C115.554 44.5869 116.112 43.1402 115.677 42.5414C115.674 43.0029 115.682 43.4645 115.666 43.9241C115.638 44.6975 115.86 45.0475 116.394 45.0303C117.117 45.0074 117.839 45.0456 118.562 45.058C118.494 43.9136 118.807 42.7235 118.375 41.6221Z" fill="#231006"/>
<path d="M115.671 41.9282C116.538 41.2578 117.471 41.7966 118.363 41.6069C117.418 41.0252 116.422 41.5153 115.459 41.2998C115.476 41.5039 115.494 41.708 115.512 41.912C115.565 41.9178 115.618 41.9235 115.671 41.9282Z" fill="#231006"/>
<path d="M112.348 89.2007C112.606 89.8615 112.558 90.5901 112.558 91.3072C112.558 99.0202 112.557 106.732 112.559 114.445C112.56 116.344 112.786 116.643 114.061 116.719C120.27 117.085 126.481 117.028 132.692 117.025C134.66 117.024 134.772 116.854 134.772 113.854C134.772 108.969 134.772 104.085 134.772 99.2004C134.772 98.5338 134.729 97.8567 134.985 97.2521C134.264 97.4305 134.141 98.2763 134.167 99.1069C134.31 103.713 133.842 108.335 134.514 112.935C134.926 115.758 134.438 116.412 132.49 116.412C128.411 116.412 124.333 116.414 120.254 116.412C118.791 116.411 118.788 116.409 118.788 114.297C118.786 105.244 118.944 96.1812 118.737 87.137C118.571 79.8895 118.645 72.6514 118.592 65.4096C118.382 64.3225 117.741 64.4913 117.243 64.5227C116.321 64.58 116.024 63.9925 116.073 62.6937C116.12 61.4711 116.101 60.2391 116.07 59.0117C116.049 58.1878 116.008 57.3601 115.491 56.8165C114.732 56.3063 113.948 56.3788 113.159 56.6048C112.199 56.9881 112.158 58.1573 112.149 59.3093C112.127 62.5506 112.142 65.793 112.141 69.0353C112.14 71.9687 112.142 74.902 112.14 77.8354C112.139 80.0306 112.04 80.2433 111.051 80.2366C110.034 80.2299 109.863 79.8838 109.86 77.7181C109.852 72.7268 109.851 67.7346 109.86 62.7433C109.864 60.3792 109.859 58.0171 109.964 55.6512C110.021 54.3704 110.276 53.8707 111.119 53.968C111.529 54.0147 111.95 54.009 112.356 53.8383C112.484 53.8135 112.611 53.783 112.739 53.7554C114.63 53.2423 116.536 53.6161 118.434 53.5169C119.229 53.475 120.026 53.5465 120.821 53.4883C121.173 53.4626 121.627 53.5847 121.692 52.7531C117.96 52.7493 114.228 52.7359 110.496 52.7483C109.273 52.7521 109.025 53.1384 109.025 54.9007C109.022 63.0265 109.044 71.1533 109.003 79.2791C108.996 80.7821 109.339 81.3676 110.322 81.1988C110.595 81.1521 110.875 81.1912 111.151 81.1912C112.814 81.1912 112.94 81.4153 112.638 83.8089C112.542 84.5708 112.162 84.5336 111.77 84.587C111.062 84.6843 110.321 84.2657 109.647 84.8807C109.934 85.4749 110.366 85.308 110.756 85.3356C111.188 85.3661 111.637 85.2546 111.986 85.7724C112.361 86.562 112.103 87.4803 112.221 88.3195C112.24 88.6199 112.222 88.9337 112.348 89.2007Z" fill="#602200"/>
<path d="M113.172 57.055C113.93 57.0693 114.689 57.0836 115.447 57.0979C115.932 57.5299 116.448 57.7168 117.02 57.7016C118.26 57.6701 119.5 57.6758 120.74 57.6987C121.309 57.7092 121.835 57.5757 122.302 57.0684C123.202 57.0817 124.102 57.0951 125.002 57.1094C125.27 59.0328 125.082 60.9763 125.11 62.9103C125.148 65.4536 125.482 65.939 127.197 65.7034C127.509 65.6605 127.813 65.589 128.071 65.301C128.363 64.7565 128.256 64.1033 128.218 63.5215C128.11 61.9013 128.475 60.3793 128.582 58.8068C128.652 57.7903 129.16 57.6691 129.723 57.6787C130.266 57.6882 130.609 57.8007 130.881 58.7591C131.683 61.5857 131.398 64.5057 131.448 67.4009C131.48 69.2872 131.722 69.7182 132.98 69.5437C133.826 69.4264 134.187 69.8651 134.258 71.1019C134.404 73.6014 136.109 74.5655 137.563 73.0025C137.593 66.7734 137.568 60.5462 137.575 54.3181C137.576 54.012 137.6 53.6982 137.498 53.4093C134.84 53.149 132.179 53.3416 129.518 53.2968C128.412 53.2777 127.3 53.1919 126.2 53.3082C125.322 53.4017 125.102 52.8505 125.166 51.7052C125.194 51.1969 125.144 50.6791 125.129 50.166C124.744 50.1937 124.695 50.6886 124.689 51.0481C124.668 52.3422 124.132 52.51 123.436 52.4881C122.923 52.4719 122.394 52.4271 121.926 52.8695C121.61 53.3225 121.214 53.1995 120.841 53.2005C118.421 53.2071 116.001 53.1985 113.581 53.21C113.241 53.2119 112.889 53.0946 112.56 53.3387L112.54 53.3492C111.831 55.2307 112.06 56.5696 113.172 57.055Z" fill="#E34E0C"/>
<path d="M137.499 53.4092C137.487 59.9797 137.475 66.5501 137.463 73.1216C136.643 73.4944 135.8 73.5374 134.963 73.3667C134.45 73.2618 134.274 72.7068 134.241 71.9219C134.15 69.7696 133.98 69.5751 132.512 69.762C132.256 69.7944 132.143 69.5855 131.977 69.4196C131.771 69.2155 131.611 68.7111 131.283 69.1249C131.033 70.2092 131.568 71.0741 131.667 72.0678C131.801 73.4067 131.258 74.5196 131.259 75.7946C131.262 78.5658 131.257 81.3371 131.234 84.1083C131.225 85.308 131.73 86.4657 131.289 87.7206C131.127 88.1822 131.446 88.5408 131.778 88.6991C132.521 89.0548 133.276 88.9699 134.023 88.7887C134.412 88.6943 134.576 88.248 134.565 87.652C134.548 86.7289 134.547 85.8058 134.54 84.8826C134.105 84.1951 133.521 84.3028 132.981 84.2952C132.317 84.2866 132.053 83.847 132.057 82.881C132.064 81.5431 132.068 80.2042 132.057 78.8662C132.047 77.7829 132.385 77.4205 133.076 77.4463C133.575 77.4653 134.119 77.7705 134.567 77.1488C134.635 77.1488 134.703 77.1535 134.771 77.1631L134.781 77.1478C135.653 76.7167 136.584 77.3042 137.453 76.8121C137.654 76.4202 137.667 75.9663 137.668 75.4961C137.675 68.5156 137.687 61.5341 137.696 54.5535C137.695 54.1501 137.749 53.7201 137.499 53.4092Z" fill="#A11F32"/>
<path d="M122.303 57.0674C120.017 57.0769 117.733 57.0865 115.448 57.096C115.878 59.1072 115.641 61.1766 115.627 63.2106C115.617 64.6735 115.868 65.2619 116.896 65.1246C117.448 65.0511 118.07 64.7794 118.592 65.4078C118.645 65.4154 118.699 65.4288 118.752 65.4469C118.798 65.4021 118.844 65.3563 118.892 65.3124C119.228 64.6487 119.177 63.861 119.166 63.1124C119.152 62.0911 119.415 61.6133 120.126 61.6543C120.634 61.6829 121.151 61.7163 121.651 61.4951C121.823 61.4235 121.957 61.2671 122.079 61.0831C121.419 59.6536 122.275 58.412 122.303 57.0674Z" fill="#A11F32"/>
<path d="M122.079 61.085C121.946 61.0888 121.812 61.0926 121.679 61.0964C121.241 61.7525 121.281 62.5955 121.279 63.4147C121.271 67.1147 121.285 70.8148 121.27 74.5149C121.267 75.1128 121.337 75.787 120.843 76.1084C120.186 76.5356 119.648 75.993 119.629 74.7962C119.592 72.4846 119.622 70.1711 119.615 67.8586C119.613 67.294 119.635 66.7199 119.515 66.1764C119.408 65.69 119.306 65.1426 118.816 65.3715C118.816 65.3715 118.752 65.4497 118.752 65.4497C118.768 71.263 118.782 77.0763 118.801 82.8887C118.807 84.7301 118.921 84.8894 120.177 84.9008C121.933 84.9161 122.095 84.7625 122.095 82.8429C122.098 75.5896 122.086 68.3373 122.079 61.085Z" fill="#A12133"/>
<path d="M134.566 77.149C133.889 77.0117 133.219 76.8219 132.524 76.8505C131.905 76.8763 131.659 77.2663 131.666 78.1589C131.678 79.9489 131.68 81.7398 131.661 83.5297C131.651 84.4939 131.911 84.9468 132.581 84.902C133.232 84.8581 133.886 84.8858 134.539 84.882C134.548 82.3043 134.557 79.7267 134.566 77.149Z" fill="#E34E0C"/>
<path d="M131.283 69.123C131.408 69.1993 131.632 69.2488 131.645 69.3556C131.852 71.014 132.24 70.7794 133.031 69.9364C133.575 69.3576 133.815 70.4552 133.909 71.1256C134.316 73.9969 134.303 74.0208 136.338 73.6279C136.635 73.5707 136.868 73.6708 137.133 73.7786C137.573 73.9578 137.428 73.4248 137.463 73.1196C137.186 73.1215 136.911 73.1253 136.635 73.1234C134.762 73.111 134.754 73.112 134.577 70.3722C134.495 69.1172 133.923 68.9284 133.258 69.0066C131.687 69.1916 131.669 69.1859 131.667 66.901C131.666 65.7195 131.577 64.5189 131.687 63.3602C131.872 61.4158 131.197 59.6678 131.232 57.7739C131.241 57.2522 130.985 57.0806 130.676 57.0749C130.089 57.0653 129.501 57.0319 128.916 57.0758C128.098 57.1368 128.18 58.1524 128.159 58.9115C128.103 60.9637 128.115 63.0198 128.1 65.0748C128.155 65.174 128.215 65.1807 128.28 65.0939C128.303 63.7712 128.327 62.4476 128.351 61.1249C129.324 60.958 130.328 60.0521 131.239 61.3891C131.254 63.9696 131.269 66.5463 131.283 69.123Z" fill="#A12134"/>
<path d="M128.28 65.0959C128.22 65.094 128.161 65.0874 128.1 65.0769C125.225 65.1637 125.25 65.1637 125.216 60.8247C125.207 59.5888 125.491 58.289 125.002 57.1074C125.014 60.6244 125.038 64.1414 125.03 67.6583C125.028 68.5786 125.188 69.0745 125.884 69.1365C127.929 69.3176 127.928 69.3501 128.171 66.4568C128.21 66.0038 128.244 65.5499 128.28 65.0959Z" fill="#A01F31"/>
<path d="M126.563 76.8678C128.149 76.8678 128.149 76.8678 128.15 74.8957C128.151 72.8426 128.151 72.8464 126.661 72.8445C125.857 72.8435 125.014 72.6719 125.022 74.5133C125.033 76.8669 125.006 76.8678 126.563 76.8678Z" fill="#A01E31"/>
<path d="M123.616 57.4376C122.499 57.0991 122.325 57.9287 122.284 59.3191C122.229 61.1501 122.94 61.0185 123.785 61.1158C124.977 61.2531 124.771 60.1364 124.83 59.0674C124.913 57.5826 124.513 57.0724 123.616 57.4376Z" fill="#602200"/>
<path d="M131.239 61.3941C131.012 60.4834 130.86 59.3533 129.985 60.5625C129.751 60.8858 129.476 60.6283 129.212 60.552C128.851 60.4481 128.437 60.2774 128.351 61.129C129.316 61.1452 130.298 60.7847 131.239 61.3941Z" fill="#A11F32"/>
<path d="M108.403 67.0383C108.403 63.281 108.401 59.5247 108.405 55.7674C108.405 54.8624 108.453 53.9927 107.553 53.9564C106.775 53.925 106.588 54.439 106.501 55.5089C106.259 58.4824 106.382 61.4252 106.476 64.4034C106.619 68.9703 106.515 73.5573 106.469 78.1347C106.458 79.2695 106.428 80.1955 107.44 80.2555C108.263 80.3042 108.417 79.6576 108.411 78.6182C108.391 74.7579 108.403 70.8986 108.403 67.0383Z" fill="#060304"/>
<path d="M115.68 33.3638C115.686 35.2644 115.758 37.1716 115.679 39.0646C115.616 40.5675 115.865 41.1692 116.969 41.0882C118.733 40.9585 118.764 41.0662 118.81 43.6277C118.829 44.648 119.151 44.9475 119.759 45.02C120.396 45.0953 121.062 44.7014 121.668 45.2669C121.807 45.3041 121.946 45.3413 122.086 45.3785C123.154 45.6884 124.22 45.9593 125.239 45.0848C125.895 45.0648 126.556 44.9665 127.206 45.0438C128.01 45.1392 128.278 44.6433 128.175 43.5218C128.146 43.2185 128.189 42.9019 128.165 42.5968C128.079 41.483 128.366 41.0481 129.152 41.0395C131.304 41.0157 131.304 40.9699 131.305 37.7409C131.306 36.711 131.269 35.6782 131.312 34.6531C131.357 33.5984 131.109 33.1998 130.373 33.1921C129.707 33.1855 129.003 33.5269 128.363 32.948L128.344 32.9203C128.284 32.9242 128.225 32.9184 128.166 32.9022C128.13 32.9528 128.095 33.0033 128.059 33.0539C128.043 34.1839 128.66 34.079 129.086 34.0676C130.162 34.0409 130.374 35.3664 130.584 36.3534C130.825 37.4844 130.861 38.8195 130.013 39.6835C129.275 40.4349 128.826 40.1507 128.696 38.8099C128.651 38.3532 128.656 37.8773 128.463 37.4873C128.316 37.1897 128.14 37.1192 127.96 37.4539C127.844 37.7199 127.796 38.0165 127.764 38.3226C127.557 40.3396 127.557 40.4588 126.133 40.4578C123.897 40.4559 121.66 40.3663 119.425 40.3949C119.114 40.3605 118.895 40.1822 118.895 39.6529C118.891 37.8563 118.871 36.0587 118.906 34.2621C118.913 33.8635 119.164 33.6689 119.257 33.339C119.287 33.1588 119.264 32.9976 119.188 32.8507C119.037 32.6743 118.86 32.6495 118.677 32.6533C117.998 32.6333 117.32 32.6324 116.643 32.7039C116.277 32.7449 115.888 32.7763 115.68 33.3638Z" fill="#EC8417"/>
<path d="M115.509 51.8078C117.032 51.8069 118.554 51.8479 120.075 51.7906C120.912 51.7592 121.424 50.2133 121.27 48.4177C121.166 47.2113 120.713 46.7297 119.913 46.869C119.46 46.9481 119.257 47.1484 119.325 47.9513C119.454 49.4781 119.149 49.932 118.048 49.9473C115.736 49.9797 113.422 50.0245 111.117 49.6593C110.784 49.6068 110.412 49.5639 110.179 50.0875C109.821 50.8933 110.192 51.7802 110.943 51.7973C112.464 51.8345 113.987 51.8097 115.509 51.8078Z" fill="#060304"/>
<path d="M125.238 45.0835C124.184 45.1169 123.109 44.6248 122.085 45.3772C122.081 47.6535 122.076 49.9289 122.072 52.2052C121.928 52.5275 121.926 52.8184 122.155 53.0596C122.737 53.0634 123.324 52.9938 123.898 53.0882C124.819 53.2389 125.152 52.6734 125.045 51.3498C125.014 50.9636 125.097 50.5573 125.128 50.1625C125.165 48.4708 125.202 46.7771 125.238 45.0835Z" fill="#DE9E58"/>
<path d="M122.156 53.0615C122.129 52.7754 122.101 52.4903 122.073 52.2052C121.779 52.1308 121.77 52.4932 121.693 52.7516C121.4 53.2837 120.994 53.0644 120.636 53.0673C118.307 53.0863 115.978 53.0711 113.648 53.0835C113.281 53.0854 112.888 52.9404 112.56 53.34C115.463 53.3495 118.366 53.36 121.27 53.3696C121.582 53.3705 121.898 53.3963 122.156 53.0615Z" fill="#A01F30"/>
<path d="M137.452 76.8132C136.567 77.0221 135.637 76.4461 134.78 77.1489C135.673 77.1384 136.567 77.127 137.46 77.1155C137.463 77.0144 137.46 76.9143 137.452 76.8132Z" fill="#681415"/>
<path d="M118.822 32.9498C118.949 32.9593 119.076 32.9679 119.203 32.9775C119.819 33.6889 120.525 33.4314 121.195 33.315C121.706 33.2254 121.935 32.6303 121.977 31.8913C122.017 31.1732 121.995 30.4532 122.002 29.7389C121.984 28.4325 122.636 27.271 122.377 25.892C122.333 25.6622 122.553 25.4266 122.738 25.5115C123.594 25.9025 124.519 25.3856 125.357 25.9807C126.283 26.1133 127.211 26.3793 128.122 25.8491C128.041 24.9565 127.565 25.3179 127.235 25.2435C126.607 25.1024 125.934 25.5029 125.341 24.9022C124.989 22.9968 125.185 21.0514 125.195 19.1299C125.202 17.7137 124.974 17.0996 123.927 17.1711C122.086 17.297 122.084 17.2112 122.084 19.9538C122.084 21.2355 122.094 22.5181 122.073 23.7998C122.067 24.2003 122.234 24.7944 121.724 24.8497C121.697 24.8888 121.67 24.9289 121.643 24.968C121.11 25.4677 120.516 25.2188 119.952 25.2216C119.153 25.2245 118.767 25.6212 118.798 26.9229C118.84 28.6957 118.769 30.4742 118.747 32.2508C118.629 32.5169 118.657 32.7495 118.822 32.9498Z" fill="#E15518"/>
<path d="M118.822 32.9509C118.797 32.7183 118.772 32.4856 118.747 32.251C118.412 30.4982 118.682 28.7064 118.588 26.9393C118.557 26.3471 118.712 25.6948 118.354 25.1989C117.601 25.0072 116.849 25.0053 116.097 25.2008C115.951 25.3143 115.805 25.4278 115.658 25.5422C115.106 27.3675 115.372 29.2623 115.477 31.1305C115.505 31.6388 115.617 32.1261 115.487 32.6305C115.409 32.7469 115.331 32.8632 115.253 32.9796C115.206 33.0539 115.188 33.1302 115.2 33.2094C115.212 33.2895 115.225 33.3295 115.24 33.3295C115.326 33.3992 115.404 33.3877 115.475 33.2819C115.543 33.3086 115.612 33.3343 115.681 33.362C116.707 32.8823 117.799 33.4936 118.822 32.9509Z" fill="#231006"/>
<path d="M115.475 33.2845C115.398 33.2779 115.321 33.2712 115.245 33.2645C114.421 33.0156 113.596 33.0385 112.77 33.2531C112.318 35.1393 112.663 37.0885 112.569 39.0044C112.536 39.6624 112.568 40.328 112.571 40.9908C113.528 41.2912 114.489 41.1739 115.45 41.0499C115.458 38.4618 115.466 35.8727 115.475 33.2845Z" fill="#080707"/>
<path d="M125.471 24.8493C126.422 24.6671 127.46 25.4701 128.322 24.2857C129.011 22.1314 128.994 19.9743 128.334 17.8153C127.543 16.6405 126.584 17.3118 125.699 17.3385C125.378 17.3481 125.418 17.9736 125.42 18.3723C125.431 20.5313 125.453 22.6903 125.471 24.8493Z" fill="#0A0404"/>
<path d="M131.869 32.9746C131.868 35.2347 131.886 37.4948 131.857 39.7539C131.844 40.6866 132.077 41.0852 132.703 41.0032C132.977 40.9669 133.259 40.9555 133.53 41.0089C134.355 41.172 134.62 40.6561 134.586 39.4421C134.528 37.3909 134.567 35.3339 134.566 33.2798L134.56 33.2702C133.746 32.8487 132.884 33.3694 132.069 32.9813C132.002 32.9822 131.936 32.9794 131.869 32.9746Z" fill="#060505"/>
<path d="M119.195 17.4946C118.768 17.6004 118.786 18.0877 118.786 18.556C118.784 20.3001 118.802 22.0443 118.775 23.7876C118.761 24.6706 119.017 24.9596 119.58 24.9319C120.267 24.8995 120.956 24.9519 121.644 24.9691C121.687 24.9557 121.713 24.9166 121.724 24.8518C121.715 22.8187 121.662 20.7827 121.712 18.7534C121.741 17.5632 121.5 17.0159 120.675 17.197C120.181 17.3058 119.646 16.9501 119.193 17.4965C119.341 17.7168 119.508 17.8808 119.715 17.9666C120.948 18.4759 121.014 18.6008 121.088 20.5109C121.114 21.1765 121.121 21.845 121.058 22.5059C120.977 23.3613 120.61 23.7713 120.055 23.7198C119.477 23.6655 119.616 22.9264 119.595 22.4172C119.551 21.3949 119.59 20.3679 119.573 19.3437C119.563 18.6771 119.571 17.9962 119.195 17.4946Z" fill="#231006"/>
<path d="M115.464 25.5439C115.464 27.4998 115.464 29.4557 115.464 31.4116C115.471 31.8178 115.478 32.225 115.485 32.6312C115.877 30.2863 115.581 27.9041 115.657 25.542C115.593 25.542 115.528 25.5429 115.464 25.5439Z" fill="#24313B"/>
<path d="M115.45 41.0474C114.49 41.0274 113.53 41.0074 112.57 40.9883C112.565 41.0951 112.56 41.2019 112.555 41.3087C113.522 41.3039 114.489 41.2982 115.456 41.2934C115.458 41.2105 115.457 41.1285 115.45 41.0474Z" fill="#24313B"/>
<path d="M133.942 32.9452C133.874 32.951 133.806 32.95 133.737 32.9424C133.181 32.9538 132.625 32.9662 132.069 32.9786C132.874 33.5556 133.731 33.1331 134.56 33.2676C134.407 32.9376 134.167 32.9729 133.942 32.9452Z" fill="#4F2E1F"/>
<path d="M112.77 33.2518C113.595 33.2557 114.42 33.2595 115.245 33.2633C115.248 33.1689 115.251 33.0745 115.253 32.981C114.426 33.0945 113.573 32.6673 112.77 33.2518Z" fill="#24313B"/>
<path d="M125.016 13.1929C125.027 14.4011 125.038 15.6084 125.049 16.8157C125.313 15.6017 125.345 14.3935 125.016 13.1929Z" fill="#24313B"/>
<path d="M116.097 25.2021C116.85 25.2021 117.603 25.2011 118.354 25.2011C117.602 24.7777 116.849 24.7806 116.097 25.2021Z" fill="#24313B"/>
<path d="M128.364 32.9455C129.051 32.9369 129.74 32.8816 130.426 32.9331C131.065 32.9817 131.272 32.5831 131.255 31.6705C131.223 29.9825 131.229 28.2927 131.25 26.6038C131.263 25.6197 130.975 25.2287 130.322 25.2344C127.894 25.2573 128.403 24.9855 128.359 28.0047C128.335 29.6421 128.348 31.2804 128.344 32.9178L128.364 32.9455Z" fill="#060405"/>
<path d="M128.123 25.8497C127.18 25.2594 126.191 25.6695 125.226 25.5541C124.799 26.1034 124.869 26.893 124.9 27.5577C124.975 29.1769 125.168 30.7819 125.157 32.4154C125.153 32.9714 125.352 33.4348 125.754 33.4844C126.562 33.5846 127.396 33.8592 128.123 33.0124L128.167 32.9018C128.152 30.5511 128.138 28.2004 128.123 25.8497Z" fill="#E95719"/>
<path d="M129.788 41.6152C128.341 41.6133 128.397 41.6171 128.339 43.491C128.3 44.7565 128.626 45.1704 129.411 45.0159C129.513 44.9958 129.618 45.013 129.721 45.013C131.211 45.014 131.176 44.9548 131.267 43.162C131.365 41.2252 130.501 41.6553 129.788 41.6152Z" fill="#0A0606"/>
<path d="M113.172 57.0558C112.586 56.7134 112.511 56.0173 112.553 55.1934C112.584 54.583 112.547 53.9651 112.54 53.35C109.581 53.1841 109.52 53.1831 109.49 57.4592C109.438 64.6066 109.469 71.755 109.479 78.9034C109.481 79.5995 109.408 80.5922 109.933 80.7849C110.722 81.0738 111.592 81.131 112.375 80.6857C112.718 80.4911 112.575 79.7588 112.575 79.2629C112.581 72.475 112.575 65.6861 112.58 58.8982C112.581 58.161 112.426 57.2789 113.172 57.0558Z" fill="#A01F30"/>
<path d="M118.817 65.3709C119.31 65.6474 119.178 66.2883 119.18 66.8223C119.19 69.7032 119.236 72.587 119.168 75.4641C119.13 77.0642 119.786 76.8525 120.444 76.8592C121.114 76.8659 121.736 77.0251 121.716 75.4478C121.657 70.6654 121.686 65.8801 121.679 61.0958C120.961 61.0881 120.241 61.0939 119.523 61.0691C119.007 61.051 118.769 61.378 118.787 62.1629C118.813 63.2319 118.809 64.3019 118.817 65.3709Z" fill="#E34E0C"/>
<path d="M119.192 41.0047C121.88 41.0248 124.568 41.0276 127.255 41.0772C127.9 41.0896 128.223 40.8016 128.175 39.7641C128.137 38.9468 128.174 38.121 128.178 37.2989C127.892 36.723 127.46 36.762 127.053 36.7163C125.72 36.5675 125.718 36.5713 125.605 34.6688C125.577 34.2063 125.555 33.7467 125.375 33.3443C125.042 32.0712 125.341 30.7285 125.18 29.4363C125.138 29.2589 125.065 29.1187 124.963 29.011C124.07 28.5246 123.169 28.5818 122.263 28.928C122.152 29.0053 122.062 29.1197 121.991 29.2694C121.822 30.0504 121.905 30.8562 121.909 31.6497C121.912 32.3105 121.79 32.8207 121.402 33.1669C121.134 33.2975 120.857 33.2613 120.582 33.267C118.909 33.3032 118.892 33.3261 118.89 35.7436C118.889 36.9728 118.895 38.202 118.888 39.4312C118.884 40.0063 118.901 40.5613 119.192 41.0047Z" fill="#FDEB43"/>
<path d="M125.215 33.2881C125.142 37.1741 125.142 37.1741 127.766 37.2532C127.904 37.2571 128.041 37.2819 128.178 37.2971C128.438 37.8578 128.323 38.4949 128.334 39.0995C128.36 40.61 128.699 41.0563 129.668 40.63C130.27 40.3659 130.956 39.7088 130.959 38.8639C130.964 37.6261 131.583 36.1079 130.544 35.0971C130.487 35.0418 130.37 34.9855 130.373 34.9521C130.64 32.4184 129.313 33.9947 128.761 33.6047C128.525 33.4368 128.212 33.5198 128.123 33.0115C127.609 32.9963 127.081 32.8647 126.584 32.9896C125.539 33.2518 125.322 32.5919 125.408 31.1815C125.523 29.3057 125.073 27.4471 125.226 25.5532C124.362 24.7703 123.378 25.4407 122.47 25.0669C122.262 24.981 121.9 25.5113 122.003 25.8946C122.338 27.1353 121.794 28.1366 121.692 29.2495C121.832 29.4326 121.974 29.4326 122.119 29.2647L122.115 29.2676C122.722 28.806 123.225 28.2815 123.096 27.0542C123.016 26.2961 123.436 26.2865 123.788 26.3047C124.164 26.3237 124.372 26.5869 124.252 27.1954C124.042 28.2596 124.451 28.8165 125.007 29.2561L125.011 29.259C125.311 30.5769 124.939 31.9692 125.215 33.2881Z" fill="#EE8415"/>
<path d="M115.878 37.2569C115.878 37.7709 115.835 38.2944 115.889 38.7951C115.96 39.4626 115.564 40.4821 116.385 40.6566C117.209 40.8311 118.148 40.2932 118.262 39.2853C118.453 37.5773 118.775 35.6348 117.653 34.1033C117.178 33.4548 116.707 33.5101 116.227 33.6646C115.719 33.8277 115.903 34.5762 115.885 35.1007C115.86 35.8179 115.878 36.5379 115.878 37.2569Z" fill="#ED8414"/>
<path d="M119.192 41.0021C119.194 39.0071 119.233 37.0102 119.182 35.019C119.153 33.8594 119.439 33.4865 120.195 33.5352C120.681 33.5667 121.23 33.8566 121.667 33.2233C120.847 33.025 120.024 33.0822 119.202 33.1909C118.771 33.3588 118.593 33.7755 118.597 34.4335C118.608 36.2292 118.6 38.0249 118.602 39.8205C118.602 40.428 118.669 40.9706 119.192 41.0021Z" fill="#FCC937"/>
<path d="M119.201 33.1962C120.023 33.2076 120.845 33.2181 121.667 33.2296C122.308 32.7385 122.068 31.843 122.101 31.082C122.127 30.4793 122.114 29.8738 122.119 29.2692C121.977 29.2644 121.835 29.2587 121.692 29.2539C121.647 32.81 121.647 32.81 119.202 32.9826C119.202 33.0532 119.202 33.1247 119.201 33.1962Z" fill="#ED8515"/>
<path d="M119.193 17.4966C119.196 19.2341 119.177 20.9716 119.211 22.7081C119.224 23.3986 118.974 24.3808 119.758 24.5353C120.565 24.6945 121.385 23.8706 121.459 22.8254C121.573 21.2434 121.455 19.6708 121.254 18.1117C121.186 17.5824 120.922 17.5233 120.634 17.5176C120.153 17.508 119.673 17.5052 119.192 17.4994C119.192 17.4985 119.193 17.4966 119.193 17.4966Z" fill="#0C0505"/>
<path d="M125.007 29.2573C124.703 28.4553 124.159 27.7372 124.752 26.6911C124.904 26.4231 124.753 25.9816 124.452 25.8872C123.942 25.7269 123.429 25.7289 122.915 25.8709C122.672 25.9377 122.466 26.2286 122.592 26.4889C123.2 27.7401 122.492 28.4295 122.114 29.2678C123.079 29.2639 124.042 29.2601 125.007 29.2573Z" fill="#ED8515"/>
<path d="M125.215 33.2889C125.121 31.949 125.46 30.5605 125.01 29.2607C125.158 30.5949 124.834 31.9814 125.215 33.2889Z" fill="#ED8515"/>
</g>
<defs>
<clipPath id="clip0_8091_68779">
<rect width="82" height="49" fill="white" transform="translate(52 82) rotate(-90)"/>
</clipPath>
<clipPath id="clip1_8091_68779">
<rect width="55" height="49" fill="white" transform="translate(0 83) rotate(-90)"/>
</clipPath>
<clipPath id="clip2_8091_68779">
<rect width="68" height="35" fill="white" transform="translate(106 80) rotate(-90)"/>
</clipPath>
</defs>
</svg>
