<svg width="36" height="58" viewBox="0 0 36 58" fill="none" xmlns="http://www.w3.org/2000/svg">
<g clip-path="url(#clip0_8091_69078)">
<path d="M6.24957 48.5284C6.24733 47.5178 6.40137 47.1428 6.14787 45.37C5.83944 43.2114 6.03361 41.0427 6.02635 38.8785C6.02568 38.6069 6.11352 38.3414 6.34666 38.1303C6.46356 38.0457 6.5864 38.0395 6.71452 38.1112C7.05267 38.4232 7.06984 38.8147 7.06323 39.2012C7.04342 40.2995 7.15107 41.3995 7.00181 42.4945C6.98398 42.8255 7.05135 43.1543 7.05861 43.4864C7.08305 44.5136 8.0704 44.9947 9.14758 44.5187C9.34769 44.4302 9.50091 44.3181 9.51346 44.1115C9.66933 41.4516 10.1257 38.79 9.33977 36.1408C9.15683 35.5236 9.13239 34.87 9.56564 34.2976C9.82387 33.9565 9.70763 33.5974 9.74858 33.2435C9.83642 31.7598 9.56762 30.2677 9.9084 28.7907C10.9037 28.0671 12.0046 28.3533 13.097 28.5505C13.6458 29.2831 13.2687 30.103 13.4008 30.8743C13.4484 31.2921 13.6907 31.6842 13.6683 32.1093C13.6306 32.8312 14.0665 33.0413 14.8538 33.0127C15.8999 32.9752 15.8834 32.894 15.9977 32.0337C16.2321 30.2671 16.1245 28.5001 16.1984 26.7346C16.2077 26.5185 16.2876 26.3219 16.4877 26.1712C17.3773 25.7982 18.2854 25.8615 19.2008 26.0849C20.0825 26.8142 20.3453 27.9052 19.8837 28.9039C19.778 32.0163 19.7496 35.1287 19.9008 38.24C19.9497 39.2381 19.8909 40.2356 19.9378 41.2326C19.9775 42.0783 20.2311 42.234 21.2739 42.2548C22.1345 42.2716 22.5017 41.9708 22.4997 41.2348C22.4924 38.3033 22.6727 35.3729 22.6146 32.4403C22.6067 32.0281 22.4977 31.5856 22.8669 31.2215C22.993 31.1403 23.1152 31.1437 23.2347 31.2311C23.5894 31.5845 23.5696 32.0146 23.5709 32.4369C23.5769 35.5488 23.7241 38.6663 23.5399 41.7709C23.1885 47.6893 23.4771 53.6073 23.3589 59.5241C23.3543 59.7655 23.3688 60.008 23.3338 60.2483C23.2149 61.0682 22.8603 61.3701 21.8841 61.3925C20.4226 61.4256 18.9597 61.4032 17.4975 61.4032C14.4661 61.4037 11.4347 61.4116 8.40326 61.3998C6.74688 61.3931 6.10824 60.9825 6.36713 59.6182C6.88624 56.8827 6.6815 54.1455 6.7482 51.4078C6.79877 49.2938 6.25316 50.043 6.24957 48.5284Z" fill="#852A0D"/>
<path d="M31.712 63.6751C22.5682 63.8128 13.4251 63.9966 4.282 63.6717C3.7946 63.4919 3.63345 63.1755 3.63477 62.7307C3.64336 58.8292 3.64006 54.9276 3.6394 51.026C3.6394 50.5269 3.7411 50.1007 4.46627 50.071C5.14916 50.043 5.85715 49.9764 6.10019 50.7465C6.23955 51.1878 6.31946 51.6269 6.3188 52.0857C6.31285 54.7775 6.30889 57.4693 6.31814 60.1611C6.3221 61.358 6.75205 61.7539 8.15548 61.7596C12.7257 61.7764 17.3006 61.862 21.8649 61.7215C23.8918 61.6593 25.92 61.6341 27.9475 61.5842C29.2109 61.5534 29.6686 61.1737 29.6713 60.081C29.6818 55.8769 29.6752 51.6729 29.6752 47.4688C29.6752 47.2571 29.6706 47.0454 29.6765 46.8337C29.7023 45.9588 30.1606 45.4743 30.9743 45.4575C31.8243 45.4402 32.243 45.8692 32.2437 46.8023C32.249 51.7927 32.2509 56.7831 32.2397 61.7741C32.2397 62.4345 32.6267 63.19 31.712 63.6751Z" fill="#030304"/>
<path d="M31.7123 63.6759C32.1534 62.9999 31.9296 62.2768 31.9289 61.5672C31.9243 56.6703 31.9229 51.7734 31.9309 46.8766C31.9345 43.7117 29.9981 57.3003 29.9965 59.9564C29.9958 61.407 29.4694 61.8075 27.7734 61.8652C21.3592 62.0836 14.9431 62.0309 8.5269 62.036C8.13724 62.0365 7.73701 62.0315 7.36056 61.9598C6.45774 61.789 5.96968 61.3633 5.98223 60.4997C6.02185 57.7194 5.99411 54.938 6.00006 52.1571C6.00072 51.7314 5.90429 51.3226 5.82702 50.9053C5.6989 50.2136 5.16394 50.2214 4.56558 50.2472C3.92562 50.2752 3.85297 50.6432 3.85363 51.0716C3.85627 54.9407 3.8609 58.8099 3.84505 62.679C3.84372 63.0761 4.04516 63.3701 4.28226 63.672C3.73409 63.7179 3.40982 63.5908 3.41114 63.0413C3.42567 58.8155 3.41972 54.5901 3.42038 50.3642C3.42038 50.1783 3.46199 50.0047 3.63172 49.8702C4.49029 49.8742 5.3482 49.8781 6.20678 49.882C6.8223 50.2231 6.74437 50.763 6.74305 51.2699C6.73579 54.1381 6.80447 57.0064 6.54888 59.8735C6.44453 61.0413 6.83023 61.3095 8.21847 61.3112C12.7511 61.3168 17.2955 61.4709 21.8116 61.2412C23.8161 61.1393 25.8311 61.0021 27.8454 60.9309C28.6842 60.9012 28.9213 60.4733 28.9206 59.8415C28.9193 58.3601 28.9206 56.8787 28.9213 55.3972C28.9232 52.4948 28.9186 49.5924 28.9239 46.69C28.9283 43.2885 28.8337 44.6874 28.8645 41.2566C28.8717 40.5234 29.196 40.2322 30.0896 40.1784C30.6589 40.1443 31.2301 40.1823 31.8014 40.1465C32.4018 40.1084 32.6831 39.8877 32.6825 39.3473C32.6752 34.5999 32.6897 29.8526 32.6666 25.1053C32.6626 24.2366 32.339 24.0181 31.141 24.0131C27.9286 24.0002 24.7156 24.0114 21.5032 24.0064C21.0059 24.0058 20.5026 24.0506 20.0126 23.9251C19.6929 23.7913 19.4624 23.5801 19.2788 23.3264C18.9889 22.0074 18.8608 20.6901 19.3667 19.3822C19.5027 19.2445 19.6797 19.1666 19.8831 19.128C20.5568 19.1016 21.2324 19.1033 21.9067 19.1179C22.9476 19.1403 23.256 19.3302 23.3128 20.2308C23.359 20.9684 23.6926 21.2541 24.5498 21.2109C25.0352 21.1863 25.5583 21.1768 25.9295 21.5476C27.7503 21.552 29.5718 21.5834 31.3913 21.5487C32.2657 21.5319 32.6032 21.7839 32.5867 22.5428C32.5603 23.7616 32.7921 23.9123 34.2853 23.9246C35.9972 23.9386 35.9985 23.9386 35.9992 25.3595C35.9998 29.9562 36.0005 34.5529 35.9998 39.1495C35.9998 40.4338 35.9972 40.4338 34.4366 40.4383C34.2583 40.4389 34.0793 40.4383 33.901 40.44C33.1467 40.4461 32.6613 40.7615 32.5966 41.3955C32.4699 42.643 32.5697 44.6437 32.5715 46.2196C32.5748 51.7051 32.5728 57.1906 32.5728 62.6762C32.5715 63.1864 32.6976 63.7728 31.7123 63.6759Z" fill="#100505"/>
<path d="M6.42937 38.0822C6.46041 40.76 6.29927 47.2723 6.61165 49.9495C6.75035 51.1375 6.63147 51.1605 5.20888 51.1577C4.29922 51.1557 3.52748 51.2502 3.52748 51.2502C3.52748 51.2502 3.52748 51.808 3.41711 45.5404C3.41909 43.5156 3.42438 41.4909 3.41579 39.4662C3.41051 38.1528 3.31012 38.076 1.78583 38.0727C0.0581186 38.0693 3.36328e-08 38.0183 3.00708e-08 36.5246C0.0013209 32.8375 0.00132089 29.151 0.0033022 25.4639C0.00396263 23.9152 0.00528354 23.9141 1.85055 23.918C2.31154 23.9192 2.78441 23.8665 3.19586 24.1135C3.6093 24.3745 3.5208 24.761 3.52212 25.1122C3.53203 27.6774 3.59807 30.2443 3.49636 32.8061C3.44749 34.0383 3.45278 35.261 3.52212 36.4893C3.54458 36.8892 3.57033 37.2745 3.9349 37.5714C4.64751 38.0603 5.57873 37.5949 6.31578 37.9629C6.35474 38.0021 6.39239 38.0419 6.42937 38.0822Z" fill="#070405"/>
<path d="M9.65183 21.5442C10.7851 21.4793 11.9422 21.7655 13.0544 21.379C12.5703 20.9018 12.6172 20.3725 12.8384 19.8248C13.3549 19.1689 15.1949 18.8351 15.9636 19.2535C16.2278 19.3974 16.3434 19.6147 16.3559 19.8628C16.4127 20.9774 16.4075 22.092 16.3612 23.2066C16.3401 23.714 15.9934 23.9829 15.4056 23.9885C11.6345 24.0232 7.86336 24.0204 4.09225 23.9907C3.836 23.9885 3.6022 23.9213 3.42389 23.7527C3.44106 21.2143 3.06857 21.5902 6.0313 21.561C7.23792 21.5493 8.4452 21.5493 9.65183 21.5442Z" fill="#0F0505"/>
<path d="M16.4946 0.511719C17.4251 0.511719 18.3557 0.512279 19.2869 0.512279C19.6984 1.20175 19.3926 1.94947 19.5319 2.66023C18.5082 2.65295 17.4846 2.64567 16.4602 2.63838C16.3592 1.92875 16.3123 1.21855 16.4946 0.511719Z" fill="#0D0607"/>
<path d="M26.1398 17.3892C26.1378 17.5091 26.1358 17.6289 26.1339 17.7488C25.8763 19.1238 25.8743 19.0829 24.2212 19.1272C23.4062 19.149 23.1256 18.9283 23.2451 18.2674C23.3085 17.9179 23.1533 17.5511 23.3488 17.2094L23.3613 17.2004C24.1829 17.0151 25.019 17.1528 25.8479 17.1237C26.048 17.1164 26.1768 17.1948 26.1398 17.3892Z" fill="#0E0806"/>
<path d="M23.348 17.2109C23.3499 17.361 23.3532 17.5106 23.3539 17.6607C23.3598 19.0816 23.5144 19.155 25.1675 19.0329C26.2598 18.9523 25.6833 18.1026 26.133 17.7509C26.1357 18.0219 26.1271 18.293 26.1443 18.563C26.1727 19.0172 25.9441 19.2228 25.3927 19.2127C24.647 19.1993 23.9014 19.2217 23.1551 19.2289C23.2258 18.5568 22.9028 17.8578 23.348 17.2109Z" fill="#231006"/>
<path d="M26.1388 17.3906C25.2439 16.9968 24.2817 17.3133 23.3604 17.2018C24.3358 16.8602 25.3641 17.1481 26.3581 17.0215C26.3403 17.1413 26.3218 17.2612 26.3033 17.3811C26.2484 17.3844 26.1936 17.3878 26.1388 17.3906Z" fill="#231006"/>
<path d="M29.3518 46.39C29.3511 50.92 29.3525 55.4495 29.3505 59.9795C29.3498 61.0946 29.116 61.2705 27.8004 61.3147C21.3929 61.5298 14.9826 61.4968 8.57241 61.4945C6.54156 61.494 6.42598 61.3943 6.42598 59.6322C6.42598 56.7634 6.42664 53.8947 6.42598 51.0259C6.42598 50.6344 6.47089 50.2367 6.20605 49.8816C6.95037 49.9863 7.07717 50.4831 7.05076 50.971C6.90348 53.6762 7.38626 56.391 6.6928 59.0929C6.26748 60.7507 6.77139 61.1349 8.78177 61.1349C12.9907 61.1349 17.1997 61.1361 21.4087 61.1349C22.9185 61.1344 22.9218 61.1327 22.9224 59.8927C22.9237 54.5752 22.7613 49.2526 22.9746 43.9407C23.1457 39.684 23.0697 35.4329 23.1239 31.1796C23.3411 30.5411 24.0029 30.6402 24.5167 30.6587C25.4684 30.6923 25.7749 30.3473 25.724 29.5845C25.6758 28.8664 25.695 28.1428 25.7273 27.4219C25.7491 26.938 25.7907 26.4519 26.3243 26.1326C27.1083 25.833 27.9167 25.8755 28.731 26.0083C29.7223 26.2334 29.7646 26.9201 29.7732 27.5967C29.7963 29.5004 29.7804 31.4048 29.7817 33.3091C29.7831 35.0319 29.7804 36.7547 29.7824 38.4776C29.7844 39.7669 29.8861 39.8918 30.9065 39.8879C31.9559 39.884 32.1322 39.6807 32.1362 38.4087C32.1441 35.4772 32.1455 32.5451 32.1362 29.6136C32.1316 28.2251 32.1369 26.8378 32.0286 25.4482C31.9698 24.696 31.7069 24.4025 30.8365 24.4596C30.4131 24.4871 29.9792 24.4837 29.5598 24.3834C29.4278 24.3689 29.2963 24.351 29.1642 24.3347C27.2133 24.0334 25.2459 24.2529 23.2876 24.1947C22.4674 24.1701 21.6445 24.2121 20.8242 24.1779C20.461 24.1628 19.9921 24.2345 19.9254 23.7461C23.7764 23.7438 27.6281 23.736 31.4791 23.7433C32.7412 23.7455 32.9974 23.9723 32.9981 25.0074C33.0007 29.7799 32.9783 34.553 33.0199 39.3256C33.0278 40.2083 32.6732 40.5522 31.6587 40.453C31.3774 40.4256 31.0888 40.4485 30.8034 40.4485C29.087 40.4485 28.9575 40.5802 29.2686 41.986C29.6476 43.6983 29.3518 44.7424 29.3518 46.39Z" fill="#602200"/>
<path d="M28.7187 26.2707C27.9361 26.2791 27.1535 26.2875 26.3709 26.2959C25.8709 26.5496 25.3379 26.6594 24.7475 26.6504C23.4682 26.632 22.1883 26.6353 20.9084 26.6488C20.3212 26.6549 19.7783 26.5765 19.2962 26.2785C18.3677 26.2864 17.4384 26.2942 16.5098 26.3026C16.2331 27.4323 16.4279 28.5738 16.3982 29.7097C16.3593 31.2034 16.0152 31.4885 14.2445 31.3502C13.9229 31.325 13.6092 31.283 13.3424 31.1138C13.0419 30.794 13.1515 30.4103 13.1911 30.0687C13.3021 29.1171 12.9263 28.2232 12.8153 27.2996C12.7434 26.7025 12.219 26.6314 11.6378 26.637C11.0777 26.6426 10.7237 26.7087 10.443 27.2716C9.61485 28.9317 9.90941 30.6467 9.85789 32.3471C9.82421 33.455 9.57457 33.7082 8.27614 33.6057C7.40304 33.5368 7.03122 33.7944 6.95725 34.5209C6.80733 35.9888 5.04792 36.5551 3.54674 35.6371C3.51636 31.9786 3.54146 28.3212 3.53419 24.6632C3.53353 24.4835 3.50909 24.2992 3.61344 24.1295C6.35691 23.9766 9.10367 24.0897 11.8491 24.0634C12.991 24.0522 14.1382 24.0018 15.2742 24.0701C16.1796 24.125 16.4068 23.8013 16.3408 23.1286C16.3117 22.8301 16.3639 22.5259 16.3791 22.2246C16.776 22.2409 16.8268 22.5315 16.8328 22.7427C16.8546 23.5027 17.4074 23.6013 18.1259 23.5884C18.6556 23.5789 19.2018 23.5526 19.6846 23.8125C20.0102 24.0785 20.419 24.0063 20.804 24.0068C23.3018 24.0107 25.7989 24.0057 28.2967 24.0124C28.648 24.0135 29.0113 23.9446 29.3501 24.088L29.3706 24.0942C30.1023 25.1993 29.8666 25.9856 28.7187 26.2707Z" fill="#E34E0C"/>
<path d="M3.61327 24.1309C3.62515 27.9899 3.6377 31.8489 3.64959 35.7085C4.49627 35.9275 5.36607 35.9527 6.22993 35.8524C6.7596 35.7908 6.94122 35.4649 6.9749 35.0039C7.06868 33.7398 7.24502 33.6255 8.76007 33.7353C9.02358 33.7543 9.14048 33.6317 9.3122 33.5342C9.5242 33.4144 9.68931 33.1181 10.0275 33.3612C10.2863 33.998 9.73356 34.506 9.63119 35.0896C9.49382 35.876 10.0539 36.5296 10.0525 37.2784C10.0492 38.9061 10.0552 40.5337 10.0783 42.1613C10.0882 42.8659 9.56712 43.5459 10.0215 44.2829C10.1886 44.554 9.8597 44.7646 9.51759 44.8576C8.75016 45.0665 7.97084 45.0167 7.20011 44.9102C6.79856 44.8548 6.62949 44.5927 6.64072 44.2426C6.65855 43.7004 6.65921 43.1583 6.66714 42.6161C7.11558 42.2123 7.7179 42.2756 8.27597 42.2711C8.96084 42.2661 9.2336 42.0078 9.22898 41.4405C9.22238 40.6547 9.21775 39.8683 9.22964 39.0825C9.23955 38.4462 8.89017 38.2334 8.17756 38.2485C7.66242 38.2597 7.10105 38.439 6.63874 38.0738C6.56873 38.0738 6.49872 38.0766 6.42872 38.0822L6.41815 38.0732C5.51797 37.82 4.55769 38.1651 3.66082 37.8761C3.45278 37.6459 3.43957 37.3793 3.43891 37.1031C3.43165 33.0033 3.4191 28.9028 3.40985 24.803C3.41051 24.5661 3.35503 24.3134 3.61327 24.1309Z" fill="#A11F32"/>
<path d="M19.2949 26.2812C21.6533 26.2869 24.0111 26.2925 26.3695 26.2981C25.9251 27.4793 26.1701 28.6947 26.1846 29.8894C26.1945 30.7485 25.9356 31.0941 24.8743 31.0135C24.305 30.9703 23.6631 30.8107 23.1248 31.1798C23.0693 31.1843 23.0139 31.1921 22.9597 31.2028C22.9115 31.1764 22.8639 31.1496 22.8151 31.1238C22.4677 30.734 22.5205 30.2713 22.5317 29.8317C22.5463 29.2318 22.2748 28.9512 21.5411 28.9753C21.0173 28.9921 20.4837 29.0117 19.9672 28.8818C19.7903 28.8397 19.6516 28.7479 19.5261 28.6398C20.207 27.8002 19.324 27.071 19.2949 26.2812Z" fill="#A11F32"/>
<path d="M19.5267 28.6387C19.6647 28.6409 19.8021 28.6432 19.9401 28.6454C20.3918 29.0307 20.3509 29.5259 20.3522 30.007C20.3608 32.1801 20.3469 34.3533 20.3621 36.5264C20.3648 36.8776 20.2928 37.2736 20.8026 37.4623C21.4809 37.7133 22.0357 37.3946 22.0555 36.6917C22.0931 35.334 22.0627 33.9752 22.07 32.617C22.072 32.2854 22.0495 31.9483 22.173 31.629C22.2833 31.3434 22.3883 31.0219 22.8942 31.1563C22.8942 31.1563 22.9603 31.2022 22.9609 31.2022C22.9444 34.6165 22.9292 38.0308 22.9101 41.4446C22.9041 42.5261 22.7859 42.6197 21.4901 42.6264C19.6779 42.6354 19.5108 42.5452 19.5101 41.4177C19.5075 37.1577 19.5194 32.8982 19.5267 28.6387Z" fill="#A12133"/>
<path d="M6.63965 38.0774C7.33905 37.9967 8.02987 37.8853 8.74711 37.9021C9.38575 37.9172 9.64002 38.1463 9.63342 38.6705C9.62021 39.7218 9.61889 40.7737 9.63804 41.825C9.64795 42.3912 9.37981 42.6573 8.68899 42.6309C8.01666 42.6052 7.3417 42.6214 6.66805 42.6192C6.6588 41.1052 6.64889 39.5913 6.63965 38.0774Z" fill="#E34E0C"/>
<path d="M10.0283 33.362C9.89881 33.4069 9.66831 33.436 9.65444 33.4987C9.44112 34.4727 9.04089 34.3349 8.22393 33.8398C7.66256 33.4998 7.41555 34.1445 7.31781 34.5382C6.89843 36.2247 6.91098 36.2387 4.81144 36.0079C4.505 35.9743 4.26394 36.0331 3.99118 36.0964C3.53679 36.2017 3.68671 35.8886 3.65039 35.7094C3.9357 35.7105 4.22035 35.7128 4.505 35.7116C6.4381 35.7043 6.44603 35.7049 6.62897 34.0958C6.71285 33.3587 7.30394 33.2478 7.98948 33.2937C9.61085 33.4024 9.62935 33.399 9.63199 32.057C9.63331 31.3631 9.72445 30.6579 9.61085 29.9774C9.42065 28.8354 10.1174 27.8087 10.0811 26.6964C10.0712 26.39 10.336 26.2892 10.655 26.2859C11.2606 26.2803 11.8676 26.2606 12.4712 26.2864C13.3153 26.3223 13.2307 26.9188 13.2525 27.3646C13.31 28.5699 13.2981 29.7775 13.3133 30.9845C13.2558 31.0427 13.1944 31.0466 13.1277 30.9957C13.1033 30.2188 13.0788 29.4414 13.0544 28.6646C12.0499 28.5665 11.0136 28.0345 10.0732 28.8197C10.058 30.3353 10.0428 31.8487 10.0283 33.362Z" fill="#A12134"/>
<path d="M13.127 31.0005C13.189 30.9994 13.2505 30.9954 13.3125 30.9893C16.2805 31.0402 16.2541 31.0402 16.2891 28.4918C16.299 27.766 16.0051 27.0025 16.5097 26.3086C16.4978 28.3742 16.4734 30.4398 16.4813 32.5054C16.4833 33.0459 16.3182 33.3372 15.5996 33.3736C13.4895 33.48 13.4909 33.499 13.2392 31.7997C13.1996 31.5337 13.1639 31.2671 13.127 31.0005Z" fill="#A01F31"/>
<path d="M14.8987 37.9087C13.2621 37.9087 13.2621 37.9087 13.2608 36.7504C13.2601 35.5446 13.2601 35.5468 14.7983 35.5457C15.6278 35.5451 16.4976 35.4443 16.489 36.5258C16.4784 37.9081 16.5055 37.9087 14.8987 37.9087Z" fill="#A01E31"/>
<path d="M5.34996 61.4341C3.72985 61.4341 3.72985 61.4341 3.72854 59.2612C3.72789 56.9991 3.72789 57.0033 5.25058 57.0012C6.07175 57.0001 6.93281 56.811 6.92431 58.8399C6.91385 61.4331 6.94065 61.4341 5.34996 61.4341Z" fill="#852A0D"/>
<path d="M17.9405 26.4963C19.0937 26.2975 19.2727 26.7847 19.3156 27.6014C19.3717 28.6767 18.6386 28.5994 17.7662 28.6566C16.5365 28.7372 16.7491 28.0813 16.6877 27.4535C16.6025 26.5814 17.0146 26.2818 17.9405 26.4963Z" fill="#602200"/>
<path d="M10.0723 28.821C10.3067 28.2861 10.4639 27.6224 11.3667 28.3326C11.6078 28.5225 11.8924 28.3712 12.1645 28.3264C12.537 28.2654 12.9643 28.1651 13.0528 28.6653C12.0569 28.6748 11.0438 28.4631 10.0723 28.821Z" fill="#A11F32"/>
<path d="M33.6399 32.1392C33.6399 29.9325 33.6419 27.7263 33.6386 25.5195C33.6379 24.988 33.5891 24.4772 34.517 24.4559C35.3207 24.4374 35.5136 24.7393 35.6034 25.3677C35.8531 27.1141 35.7262 28.8425 35.6292 30.5917C35.4812 33.274 35.5882 35.968 35.6358 38.6564C35.6477 39.3229 35.6787 39.8668 34.6339 39.9021C33.7852 39.9306 33.626 39.5509 33.632 38.9404C33.6525 36.6731 33.6406 34.4065 33.6399 32.1392Z" fill="#060304"/>
<path d="M26.1306 12.3597C26.124 13.476 26.05 14.5961 26.1313 15.7079C26.196 16.5906 25.9391 16.9441 24.7998 16.8964C22.9797 16.8203 22.948 16.8836 22.8997 18.388C22.8806 18.9873 22.5477 19.1631 21.9203 19.2057C21.2632 19.2499 20.5757 19.0186 19.9502 19.3508C19.8069 19.3726 19.6636 19.3944 19.5196 19.4163C18.4173 19.5983 17.3164 19.7574 16.2656 19.2438C15.588 19.232 14.9065 19.1743 14.2348 19.2197C13.4059 19.2757 13.1286 18.9845 13.2355 18.3258C13.2646 18.1477 13.221 17.9617 13.2455 17.7825C13.3346 17.1283 13.0381 16.8729 12.2271 16.8679C10.006 16.8539 10.006 16.827 10.0047 14.9305C10.004 14.3256 10.0423 13.719 9.99741 13.1169C9.95118 12.4975 10.2068 12.2634 10.9669 12.2589C11.6538 12.255 12.3809 12.4555 13.0407 12.1155L13.0612 12.0993C13.1226 12.1015 13.184 12.0981 13.2448 12.0886C13.2811 12.1183 13.3174 12.148 13.3544 12.1777C13.3709 12.8414 12.7343 12.7798 12.2951 12.7731C11.1842 12.7574 10.9656 13.5359 10.749 14.1156C10.5007 14.7799 10.4637 15.564 11.3388 16.0714C12.1002 16.5128 12.5632 16.3459 12.6979 15.5584C12.7435 15.2901 12.7389 15.0106 12.9377 14.7815C13.0896 14.6068 13.2712 14.5653 13.4568 14.7619C13.577 14.9182 13.6265 15.0924 13.6589 15.2722C13.8729 16.4568 13.8729 16.5268 15.343 16.5262C17.6506 16.5251 19.9588 16.4725 22.2657 16.4893C22.5867 16.4691 22.8119 16.3644 22.8126 16.0535C22.8165 14.9983 22.837 13.9425 22.8013 12.8873C22.7934 12.6532 22.5352 12.5389 22.4388 12.3451C22.4077 12.2393 22.4315 12.1446 22.5094 12.0584C22.666 11.9548 22.8482 11.9402 23.0371 11.9424C23.7378 11.9307 24.4379 11.9301 25.136 11.9721C25.5144 11.9962 25.916 12.0147 26.1306 12.3597Z" fill="#EC8417"/>
<path d="M26.3068 23.1898C24.7356 23.1892 23.1644 23.2133 21.5946 23.1797C20.7314 23.1612 20.203 22.2533 20.3622 21.1986C20.4692 20.4901 20.9361 20.2073 21.7623 20.2891C22.2299 20.3355 22.4393 20.4532 22.3693 20.9248C22.2359 21.8215 22.5502 22.0881 23.6868 22.097C26.073 22.1161 28.4605 22.1424 30.8401 21.9279C31.1835 21.8971 31.5679 21.8719 31.8076 22.1794C32.1768 22.6526 31.7944 23.1735 31.019 23.1836C29.4492 23.2055 27.878 23.1909 26.3068 23.1898Z" fill="#060304"/>
<path d="M16.2656 19.2428C17.3534 19.2624 18.4636 18.9734 19.5196 19.4153C19.5242 20.7523 19.5289 22.0886 19.5335 23.4256C19.6821 23.6149 19.6841 23.7857 19.4476 23.9274C18.8473 23.9297 18.2417 23.8888 17.6486 23.9442C16.6982 24.0327 16.3548 23.7006 16.4651 22.9232C16.4974 22.6963 16.4116 22.4577 16.3792 22.2259C16.3409 21.2323 16.3033 20.2375 16.2656 19.2428Z" fill="#DE9E58"/>
<path d="M19.4482 23.9267C19.4766 23.7587 19.5057 23.5912 19.5341 23.4238C19.8372 23.3801 19.8465 23.5929 19.9264 23.7447C20.2289 24.0572 20.6476 23.9284 21.0168 23.9301C23.4208 23.9413 25.8248 23.9323 28.2288 23.9396C28.6079 23.9407 29.0127 23.8556 29.3522 24.0903C26.3558 24.0959 23.3594 24.102 20.363 24.1076C20.0407 24.1082 19.7151 24.1233 19.4482 23.9267Z" fill="#A01F30"/>
<path d="M3.66093 37.8786C4.57432 38.0013 5.53394 37.663 6.41827 38.0758C5.49629 38.0696 4.57432 38.0629 3.65235 38.0562C3.64971 37.9968 3.65235 37.938 3.66093 37.8786Z" fill="#681415"/>
<path d="M22.8885 12.1162C22.7577 12.1218 22.6263 12.1269 22.4956 12.1325C21.8596 12.5503 21.1317 12.3991 20.4403 12.3308C19.9126 12.2781 19.6761 11.9286 19.6332 11.4945C19.5916 11.0728 19.6141 10.6499 19.6068 10.2304C19.6253 9.4631 18.9523 8.78091 19.2204 7.97101C19.2653 7.83603 19.0388 7.69769 18.8473 7.74754C17.9643 7.97717 17.0093 7.6736 16.1448 8.0231C15.1885 8.10095 14.2308 8.25722 13.291 7.94581C13.3749 7.42156 13.8663 7.63384 14.2064 7.59015C14.8549 7.50726 15.5491 7.7425 16.1606 7.38964C16.5245 6.27058 16.3218 5.12799 16.3119 3.99941C16.3046 3.16767 16.5397 2.80697 17.6202 2.84898C19.5203 2.92291 19.5223 2.8725 19.5223 4.48333C19.5223 5.23609 19.5117 5.98941 19.5335 6.74217C19.5401 6.97741 19.3677 7.32635 19.8941 7.35883C19.9218 7.3818 19.9496 7.40532 19.9773 7.42829C20.5281 7.72177 21.141 7.57559 21.7222 7.57727C22.5471 7.57895 22.9453 7.81195 22.9136 8.57647C22.8707 9.61768 22.9433 10.6623 22.9664 11.7057C23.088 11.862 23.0596 11.9986 22.8885 12.1162Z" fill="#E15518"/>
<path d="M22.8887 12.1182C22.9144 11.9815 22.9402 11.8448 22.9659 11.7071C23.312 10.6776 23.0333 9.6252 23.1304 8.58735C23.1628 8.23953 23.0029 7.85643 23.3721 7.56518C24.1488 7.4526 24.9248 7.45148 25.7008 7.5663C25.8521 7.63295 26.0026 7.6996 26.1539 7.76681C26.7238 8.83883 26.4498 9.95173 26.3414 11.0489C26.3117 11.3475 26.1961 11.6337 26.3309 11.93C26.4115 11.9983 26.492 12.0666 26.5726 12.135C26.6208 12.1787 26.6393 12.2235 26.6268 12.2699C26.6142 12.317 26.601 12.3405 26.5858 12.3405C26.4967 12.3814 26.4161 12.3747 26.3434 12.3125C26.2728 12.3282 26.2014 12.3433 26.1308 12.3596C25.0714 12.0778 23.9447 12.4369 22.8887 12.1182Z" fill="#231006"/>
<path d="M26.3428 12.3086C26.422 12.3047 26.5013 12.3008 26.5799 12.2969C27.4305 12.1507 28.2818 12.1641 29.1338 12.2901C29.6007 13.398 29.2441 14.5428 29.3418 15.668C29.3755 16.0545 29.3425 16.4455 29.3398 16.8347C28.3518 17.0111 27.3598 16.9423 26.3679 16.8694C26.3599 15.3494 26.3514 13.8287 26.3428 12.3086Z" fill="#080707"/>
<path d="M16.0265 7.35786C15.0451 7.25088 13.9732 7.72248 13.0843 7.02684C12.373 5.7616 12.3901 4.49467 13.0717 3.22663C13.888 2.53659 14.8774 2.9309 15.7914 2.94658C16.1223 2.95218 16.0813 3.3196 16.0787 3.55372C16.0675 4.82177 16.045 6.08981 16.0265 7.35786Z" fill="#0A0404"/>
<path d="M9.42444 12.1289C9.4251 13.4563 9.40661 14.7837 9.43699 16.1106C9.44954 16.6584 9.20914 16.8925 8.56323 16.8443C8.28056 16.823 7.98997 16.8163 7.70994 16.8477C6.85864 16.9435 6.58455 16.6404 6.62022 15.9274C6.68032 14.7227 6.63937 13.5146 6.64069 12.3081L6.6473 12.3025C7.48671 12.055 8.37699 12.3608 9.21773 12.1328C9.28641 12.1334 9.3551 12.1317 9.42444 12.1289Z" fill="#060505"/>
<path d="M22.5036 3.03454C22.9435 3.09671 22.925 3.38292 22.9256 3.65792C22.9276 4.68233 22.9091 5.70673 22.9369 6.73058C22.9507 7.24922 22.6872 7.41893 22.106 7.40269C21.3967 7.38365 20.6854 7.41445 19.9754 7.42453C19.9312 7.41669 19.9041 7.39373 19.8936 7.35564C19.9028 6.16153 19.957 4.96573 19.9054 3.77386C19.8757 3.07487 20.124 2.75337 20.976 2.85979C21.4852 2.92364 22.0373 2.71473 22.5056 3.03566C22.3524 3.16504 22.18 3.26138 21.966 3.31178C20.694 3.61087 20.626 3.68424 20.5494 4.80611C20.5223 5.19705 20.5157 5.58967 20.5804 5.97782C20.6643 6.48022 21.0427 6.72106 21.616 6.69081C22.2117 6.65889 22.0684 6.22482 22.0908 5.92573C22.1357 5.32531 22.0955 4.72209 22.1126 4.12056C22.1232 3.72905 22.1153 3.32915 22.5036 3.03454Z" fill="#231006"/>
<path d="M26.3543 7.7687C26.3543 8.91745 26.3543 10.0662 26.3543 11.2149C26.347 11.4535 26.3391 11.6927 26.3318 11.9313C25.9276 10.554 26.2334 9.15492 26.1548 7.76758C26.2209 7.76758 26.2876 7.76814 26.3543 7.7687Z" fill="#24313B"/>
<path d="M26.3684 16.8687C27.3591 16.8569 28.3497 16.8452 29.3404 16.834C29.3457 16.8967 29.3509 16.9594 29.3562 17.0222C28.3583 17.0194 27.3604 17.016 26.3625 17.0132C26.3598 16.9645 26.3618 16.9163 26.3684 16.8687Z" fill="#24313B"/>
<path d="M7.28381 12.115C7.35448 12.1183 7.42448 12.1178 7.49515 12.1133C8.06907 12.12 8.64299 12.1273 9.21691 12.1346C8.38608 12.4734 7.50109 12.2253 6.64648 12.3043C6.80433 12.1105 7.05133 12.1312 7.28381 12.115Z" fill="#4F2E1F"/>
<path d="M29.1338 12.2951C28.2825 12.2974 27.4312 12.2996 26.5799 12.3019C26.5766 12.2464 26.5733 12.191 26.5713 12.1361C27.4246 12.2027 28.3049 11.9518 29.1338 12.2951Z" fill="#24313B"/>
<path d="M16.4942 0.511719C16.483 1.22135 16.4718 1.93043 16.4605 2.63951C16.1884 1.92651 16.1548 1.21687 16.4942 0.511719Z" fill="#24313B"/>
<path d="M25.7005 7.56528C24.9238 7.56528 24.1471 7.56472 23.3711 7.56472C24.1478 7.31604 24.9244 7.31772 25.7005 7.56528Z" fill="#24313B"/>
<path d="M13.0405 12.1149C12.3312 12.1098 11.6199 12.0773 10.9119 12.1076C10.2528 12.1362 10.0388 11.902 10.0567 11.366C10.0897 10.3747 10.0831 9.38219 10.0613 8.39026C10.0488 7.81225 10.3453 7.58261 11.0196 7.58597C13.5246 7.59942 12.9996 7.43979 13.0452 9.21304C13.0703 10.1747 13.0571 11.137 13.061 12.0986L13.0405 12.1149Z" fill="#060405"/>
<path d="M13.2907 7.94863C14.2635 7.60194 15.2846 7.84278 16.2798 7.77501C16.721 8.09762 16.6484 8.56137 16.6167 8.95176C16.5394 9.90279 16.3399 10.8454 16.3512 11.8049C16.3551 12.1314 16.1504 12.4036 15.7356 12.4327C14.9015 12.4915 14.0403 12.6528 13.29 12.1555L13.2451 12.0905C13.2603 10.7099 13.2755 9.32926 13.2907 7.94863Z" fill="#E95719"/>
<path d="M11.5704 17.2039C13.063 17.2028 13.0062 17.205 13.0656 18.3056C13.1059 19.0489 12.7697 19.2919 11.9587 19.2012C11.8537 19.1894 11.7454 19.1995 11.6391 19.1995C10.1016 19.2001 10.1372 19.1654 10.0441 18.1124C9.9424 16.9748 10.834 17.2274 11.5704 17.2039Z" fill="#0A0606"/>
<path d="M28.7188 26.2744C29.3237 26.0733 29.4003 25.6644 29.3574 25.1805C29.3257 24.822 29.3633 24.4591 29.3706 24.0978C32.4245 24.0004 32.4872 23.9998 32.5189 26.5113C32.5718 30.7092 32.5401 34.9076 32.5295 39.106C32.5282 39.5149 32.6035 40.098 32.0612 40.2111C31.2476 40.3808 30.3494 40.4144 29.541 40.1529C29.1877 40.0386 29.3349 39.6084 29.3349 39.3172C29.329 35.3305 29.3343 31.3432 29.3297 27.3564C29.329 26.9235 29.4882 26.4054 28.7188 26.2744Z" fill="#A01F30"/>
<path d="M22.8936 31.1559C22.3851 31.3183 22.5218 31.6947 22.5198 32.0084C22.5086 33.7004 22.4617 35.3941 22.5317 37.0839C22.5707 38.0237 21.8937 37.8994 21.2148 37.9033C20.5233 37.9072 19.8814 38.0008 19.9018 37.0744C19.9626 34.2655 19.9335 31.455 19.9401 28.645C20.6818 28.6405 21.4242 28.6439 22.1658 28.6293C22.6981 28.6187 22.9438 28.8108 22.9247 29.2717C22.8983 29.8996 22.9022 30.528 22.8936 31.1559Z" fill="#E34E0C"/>
<path d="M22.5049 16.8458C19.7311 16.8575 16.9572 16.8592 14.184 16.8884C13.5176 16.8956 13.1848 16.7265 13.2343 16.1171C13.2733 15.6371 13.235 15.1521 13.231 14.6693C13.5262 14.331 13.972 14.3539 14.3921 14.3271C15.7678 14.2397 15.7704 14.2419 15.8866 13.1245C15.915 12.8529 15.9382 12.5829 16.1237 12.3466C16.4672 11.5989 16.1594 10.8102 16.3252 10.0513C16.3681 9.94714 16.4434 9.86481 16.5491 9.80152C17.471 9.51587 18.4009 9.54948 19.3355 9.75279C19.4504 9.79816 19.5435 9.86537 19.6161 9.9533C19.7912 10.412 19.7053 10.8853 19.7013 11.3513C19.698 11.7394 19.8235 12.0391 20.2237 12.2424C20.5011 12.3191 20.7871 12.2978 21.0704 12.3012C22.7968 12.3225 22.8146 12.3359 22.8166 13.7558C22.8173 14.4777 22.8113 15.1997 22.8186 15.9216C22.8232 16.2594 22.8054 16.5853 22.5049 16.8458Z" fill="#FDEB43"/>
<path d="M16.2906 12.3164C16.3653 14.5988 16.3653 14.5988 13.6575 14.6453C13.5155 14.6475 13.3741 14.6621 13.2321 14.671C12.9647 15.0004 13.0829 15.3745 13.0717 15.7296C13.0446 16.6168 12.6952 16.8789 11.6946 16.6285C11.0738 16.4734 10.3658 16.0875 10.3625 15.5912C10.3572 14.8643 9.7186 13.9726 10.7905 13.3789C10.8493 13.3464 10.9708 13.3134 10.9675 13.2938C10.6921 11.8056 12.0612 12.7314 12.6305 12.5023C12.8748 12.4038 13.1971 12.4525 13.2896 12.154C13.8199 12.145 14.3641 12.0677 14.878 12.1411C15.9564 12.2951 16.1803 11.9075 16.0912 11.0792C15.9723 9.97746 16.4372 8.88584 16.2794 7.7735C17.1703 7.31366 18.1861 7.70741 19.1233 7.48785C19.3379 7.43744 19.7117 7.74885 19.6054 7.97401C19.26 8.70269 19.8213 9.29078 19.9257 9.94441C19.7817 10.0519 19.6351 10.0519 19.4852 9.95337L19.4898 9.95505C18.863 9.68397 18.3439 9.37592 18.4773 8.65508C18.5599 8.20981 18.1267 8.20421 17.7634 8.21485C17.3751 8.22605 17.1604 8.38064 17.2846 8.73797C17.5012 9.36304 17.0792 9.69013 16.5053 9.94833L16.5013 9.95001C16.1909 10.7241 16.5753 11.5418 16.2906 12.3164Z" fill="#EE8415"/>
<path d="M25.9249 14.6452C25.9249 14.9471 25.9691 15.2546 25.9143 15.5487C25.841 15.9407 26.2498 16.5395 25.4018 16.642C24.5518 16.7445 23.5823 16.4286 23.4654 15.8365C23.2679 14.8334 22.9351 13.6925 24.0935 12.793C24.5835 12.4122 25.0696 12.4446 25.5649 12.5354C26.0893 12.6311 25.8991 13.0708 25.9183 13.3789C25.944 13.8001 25.9249 14.2229 25.9249 14.6452Z" fill="#ED8414"/>
<path d="M22.5061 16.8471C22.5047 15.6754 22.4645 14.5026 22.5166 13.3331C22.547 12.652 22.2518 12.433 21.4712 12.4616C20.9692 12.4801 20.4032 12.6503 19.9521 12.2784C20.7988 12.1619 21.6475 12.1955 22.4962 12.2594C22.9406 12.358 23.1242 12.6027 23.1203 12.9892C23.109 14.0438 23.1176 15.0985 23.1157 16.1531C23.115 16.5099 23.0463 16.8286 22.5061 16.8471Z" fill="#FCC937"/>
<path d="M22.497 12.2588C21.6489 12.2655 20.8003 12.2717 19.9523 12.2784C19.2905 11.9899 19.5382 11.464 19.5045 11.0171C19.4774 10.6631 19.4906 10.3074 19.4854 9.95232C19.632 9.94952 19.7786 9.94616 19.9259 9.94336C19.9721 12.0319 19.9721 12.0319 22.4956 12.1333C22.4963 12.1748 22.4963 12.2168 22.497 12.2588Z" fill="#ED8515"/>
<path d="M22.5036 3.03906C22.5009 4.05955 22.5201 5.08003 22.4858 6.09996C22.4725 6.50547 22.7301 7.08236 21.9211 7.1731C21.0876 7.26663 20.2422 6.78271 20.165 6.16885C20.0474 5.23966 20.1696 4.31607 20.377 3.40032C20.447 3.08947 20.7197 3.05475 21.0169 3.05138C21.5129 3.04578 22.0089 3.0441 22.5049 3.04074C22.5056 3.04018 22.5036 3.03906 22.5036 3.03906Z" fill="#0C0505"/>
<path d="M16.5039 9.94918C16.817 9.47814 17.379 9.05639 16.7668 8.44197C16.6102 8.28459 16.7654 8.02527 17.0765 7.96982C17.6029 7.87572 18.1325 7.87684 18.6629 7.96029C18.9132 7.9995 19.1265 8.17033 18.9964 8.32323C18.369 9.05807 19.0988 9.46302 19.4891 9.95534C18.4938 9.9531 17.4992 9.95086 16.5039 9.94918Z" fill="#ED8515"/>
<path d="M16.2914 12.315C16.3878 11.5281 16.0385 10.7126 16.5021 9.94922C16.3495 10.7328 16.6837 11.5472 16.2914 12.315Z" fill="#ED8515"/>
</g>
<defs>
<clipPath id="clip0_8091_69078">
<rect width="58" height="36" fill="white" transform="translate(0 58) rotate(-90)"/>
</clipPath>
</defs>
</svg>
