<svg width="57" height="72" viewBox="0 0 57 72" fill="none" xmlns="http://www.w3.org/2000/svg">
<path d="M40.0003 51.0002C40.0024 49.926 39.7744 49.8846 40.0003 48.0002C40.2752 45.7056 39.9939 43.3007 40.0003 41.0002C40.0009 40.7114 40.2081 40.2246 40.0003 40.0002C39.8962 39.9103 39.1145 39.924 39.0003 40.0002C38.699 40.3318 38.9945 40.5894 39.0003 41.0002C39.018 42.1677 38.8673 43.8362 39.0003 45.0002C39.0162 45.3521 39.0068 45.6471 39.0003 46.0002C38.9786 47.0921 37.9604 47.5063 37.0003 47.0002C36.822 46.9061 37.0115 46.2199 37.0003 46.0002C36.8614 43.1728 36.2999 40.8163 37.0003 38.0002C37.1634 37.3441 37.3865 36.6087 37.0003 36.0002C36.7702 35.6376 37.0368 35.3765 37.0003 35.0002C36.9221 33.423 36.3041 31.5702 36.0003 30.0002C35.1133 29.231 34.9739 29.7906 34.0003 30.0002C33.5112 30.7789 33.1181 31.1804 33.0003 32.0002C32.958 32.4443 32.9803 33.5483 33.0003 34.0002C33.0339 34.7676 32.702 35.0306 32.0003 35.0002C31.068 34.9603 31.1022 34.9147 31.0003 34.0002C30.7914 32.1224 31.0663 29.8768 31.0003 28.0002C30.9921 27.7704 30.1787 27.1603 30.0003 27.0002C29.2075 26.6037 28.8162 26.7626 28.0003 27.0002C27.2146 27.7754 26.5889 28.9386 27.0003 30.0002C27.0945 33.3087 27.1351 36.6929 27.0003 40.0002C26.9568 41.0611 27.0421 41.9404 27.0003 43.0002C26.965 43.8992 26.9298 43.9782 26.0003 44.0002C25.2334 44.0181 24.9986 43.7825 25.0003 43.0002C25.0068 39.884 24.9486 37.1176 25.0003 34.0002C25.0074 33.562 25.3294 33.3872 25.0003 33.0002C24.8879 32.9139 24.1069 32.9073 24.0003 33.0002C23.6843 33.3759 24.0015 33.5513 24.0003 34.0002C23.9951 37.3081 23.8361 40.7 24.0003 44.0002C24.3135 50.2915 23.895 56.7107 24.0003 63.0002C24.0045 63.2568 23.9692 63.7448 24.0003 64.0002C24.1063 64.8718 25.1304 64.9764 26.0003 65.0002C27.303 65.0353 28.6972 65.0002 30.0003 65.0002C32.7021 65.0008 35.2986 65.0127 38.0003 65.0002C39.4766 64.9931 40.2311 64.4505 40.0003 63.0002C39.5377 60.0924 39.0598 56.9104 39.0003 54.0002C38.9553 51.7531 39.9972 52.6102 40.0003 51.0002Z" fill="#852A0D"/>
<path d="M17 67.9998C25.2857 68.1481 32.7149 68.3495 41 67.9998C41.4417 67.8063 42.0012 67.4785 42 66.9998C41.9922 62.8 41.9994 58.1996 42 53.9998C42 53.4626 41.6571 53.0317 41 52.9998C40.3812 52.9696 40.2202 53.1708 40 53.9998C39.8737 54.4749 39.9994 54.506 40 54.9998C40.0054 57.8973 40.0084 61.1022 40 63.9998C39.9964 65.2882 39.2717 65.9938 38 65.9998C33.8586 66.0179 29.136 66.1511 25 65.9998C23.1633 65.9329 21.8373 66.0535 20 65.9998C18.8551 65.9666 18.0024 65.1761 18 63.9998C17.9904 59.4744 18 54.5252 18 49.9998C18 49.7719 18.0054 49.2277 18 48.9998C17.9767 48.0581 17.7373 48.0179 17 47.9998C16.2298 47.9811 16.0006 47.9954 16 48.9998C15.9952 54.3716 15.9898 60.6273 16 65.9998C16 66.7106 16.1711 67.4777 17 67.9998Z" fill="#030304"/>
<path d="M16.0002 67.9999C15.5958 67.2731 15.9996 66.7629 16.0002 65.9999C16.0044 60.735 16.0075 55.2648 16.0002 49.9999C15.9996 49.3845 16.1425 49.0132 17.0002 48.9999C17.8803 48.9861 18.0008 49.3255 18.0002 49.9999C17.9941 54.6795 17.9978 59.3203 18.0002 63.9999C18.0008 65.5596 18.4458 65.9379 20.0002 65.9999C25.879 66.2348 31.1196 65.9945 37.0002 65.9999C37.3573 66.0005 37.6552 66.077 38.0002 65.9999C38.8277 65.8162 40.0117 65.9285 40.0002 64.9999C39.9639 62.0106 40.0056 58.9898 40.0002 55.9999C39.9996 55.5422 39.9294 54.4485 40.0002 53.9999C40.1176 53.2562 40.4518 53.9722 41.0002 53.9999C41.5867 54.03 42.0008 53.5392 42.0002 53.9999C41.9978 58.1598 41.9857 62.84 42.0002 66.9999C42.0014 67.4269 41.2175 67.6753 41.0002 67.9999C41.5026 68.0493 42.0014 67.5907 42.0002 66.9999C41.9869 62.4564 42.0008 58.5434 42.0002 53.9999C42.0002 53.8 42.1558 53.1444 42.0002 52.9999C41.2133 53.0041 39.7871 52.9957 39.0002 52.9999C38.436 53.3666 38.999 54.4549 39.0002 54.9999C39.0069 58.0837 38.7659 60.9173 39.0002 63.9999C39.0958 65.2555 39.2726 64.9981 38.0002 64.9999C33.8459 65.0059 29.1393 65.2468 25.0002 64.9999C23.1631 64.8903 21.8464 65.0764 20.0002 64.9999C19.2315 64.968 18.9996 64.6792 19.0002 63.9999C19.0014 62.4071 19.0008 60.5927 19.0002 58.9999C18.9984 55.8794 19.005 53.1205 19.0002 49.9999C18.9996 49.4489 18.3598 48.478 18.0002 47.9999C17.5311 47.4965 17.5662 47.9933 17.0002 47.9999C16.3531 48.0077 15.2054 47.6467 15.0002 46.9999C14.8083 46.3947 15.3713 46.3143 16.0002 45.9999C16.5752 45.8012 16.4173 45.0607 17.0002 44.9999C17.795 44.9168 19.0081 45.0309 19.0002 43.9999C18.9935 43.2116 17.8192 43.0577 17.0002 42.9999C16.4784 42.9632 16.5238 43.0384 16.0002 42.9999C15.45 42.959 14.9996 42.581 15.0002 41.9999C15.0069 36.8958 14.979 31.1041 15.0002 25.9999C15.0038 25.0659 14.9022 25.0053 16.0002 24.9999C18.9444 24.9861 22.056 25.0053 25.0002 24.9999C25.456 24.9993 26.5511 25.1348 27.0002 24.9999C27.2932 24.856 26.8319 25.2727 27.0002 24.9999C27.2659 23.5818 27.4639 21.406 27.0002 19.9999C26.8755 19.8518 27.1866 20.0415 27.0002 19.9999C26.3828 19.9716 25.6182 19.9843 25.0002 19.9999C24.0462 20.024 24.0523 20.0316 24.0002 20.9999C23.9578 21.793 23.7859 22.0463 23.0002 21.9999C22.5553 21.9734 21.3404 22.6013 21.0002 22.9999C19.3314 23.0047 17.6678 23.0372 16.0002 22.9999C15.1988 22.9818 14.9851 23.1839 15.0002 23.9999C15.0244 25.3103 15.3688 24.9867 14.0002 24.9999C12.4312 25.015 12.0008 25.4722 12.0002 26.9999C11.9996 31.9421 11.9996 37.0577 12.0002 41.9999C12.0002 43.3807 11.5698 42.9951 13.0002 42.9999C13.1636 43.0005 13.8368 42.9981 14.0002 42.9999C14.6915 43.0065 14.9409 43.3182 15.0002 43.9999C15.0583 44.6713 14.8071 44.9102 14.0002 44.9999C13.41 45.9989 13.2762 47.2743 14.0002 47.9999C14.7968 48.1366 15.0008 48.3929 15.0002 48.9999C14.9972 54.8977 15.0002 61.1021 15.0002 66.9999C15.0014 67.5485 15.0971 68.1041 16.0002 67.9999Z" fill="#100505"/>
<path d="M39.0004 40.0004C38.9728 42.8262 39.2782 50.1751 39.0004 53.0004C38.8771 54.254 38.7353 54.0033 40.0004 54.0004C40.8093 53.9983 42.0004 54.0004 42.0004 54.0004C42.0004 54.0004 41.9022 54.6146 42.0004 48.0004C41.9986 45.8637 41.9928 43.137 42.0004 41.0004C42.0051 39.6143 41.6449 40.0039 43.0004 40.0004C44.5368 39.9968 45.0004 39.5767 45.0004 38.0004C44.9992 34.1094 45.0022 30.8913 45.0004 27.0004C44.9998 25.3661 44.6414 24.9962 43.0004 25.0004C42.5905 25.0015 42.3663 24.7397 42.0004 25.0004C41.6327 25.2758 42.0016 25.6298 42.0004 26.0004C41.9916 28.7074 41.91 31.2968 42.0004 34.0004C42.0439 35.3007 42.0621 36.7042 42.0004 38.0004C41.9804 38.4224 41.3246 38.6871 41.0004 39.0004C40.3667 39.5163 39.6558 39.612 39.0004 40.0004C38.9657 40.0417 39.0333 39.9578 39.0004 40.0004Z" fill="#070405"/>
<path d="M36.0004 23.0003C34.969 22.9371 34.0126 22.3762 33.0004 22.0003C33.441 21.5362 33.2017 21.5331 33.0004 21.0003C32.5304 20.3624 30.7 19.5934 30.0004 20.0003C29.76 20.1403 30.0118 20.759 30.0004 21.0003C29.9487 22.0844 29.9583 22.9162 30.0004 24.0003C30.0196 24.4939 30.4654 24.9949 31.0004 25.0003C34.4324 25.0341 37.5683 25.0292 41.0004 25.0003C41.2336 24.9981 41.8381 25.1643 42.0004 25.0003C41.9848 22.5314 42.6967 23.0287 40.0004 23.0003C38.9022 22.9889 37.0985 23.0052 36.0004 23.0003Z" fill="#0F0505"/>
<path d="M29.9998 0C29.1847 0 27.8155 0 26.9998 0C26.6394 0.641187 27.1219 1.33902 26.9998 2C27.8965 1.99323 29.1025 2.00677 29.9998 2C30.0883 1.34006 30.1595 0.657334 29.9998 0Z" fill="#0D0607"/>
<path d="M14.0004 48.0005C13.7178 47.034 14.0568 45.9939 14.0004 45.0005C13.8539 44.9969 13.1464 45.0012 13.0004 45.0005C11.8398 44.9948 11.731 45.2203 12.0004 47.0005C12.0691 47.456 12.7247 47.9976 13.0004 48.0005C13.4148 48.0047 13.5855 48.0012 14.0004 48.0005Z" fill="#090507"/>
<path d="M21.0003 18.0003C21.0022 18.1124 20.9983 18.8882 21.0003 19.0003C21.2496 20.2864 21.4003 19.9589 23.0003 20.0003C23.7891 20.0207 24.116 19.6184 24.0003 19.0003C23.9389 18.6734 24.1895 18.3198 24.0003 18.0003V18.0003C23.205 17.8269 21.8025 18.0275 21.0003 18.0003C20.8066 17.9935 20.9645 17.8185 21.0003 18.0003Z" fill="#0E0806"/>
<path d="M23.9996 17.9998C23.9977 18.1445 24.0002 17.8551 23.9996 17.9998C23.994 19.3696 23.5381 20.1175 21.9996 19.9998C20.9829 19.922 21.4182 19.3389 20.9996 18.9998C20.9971 19.2611 21.0155 18.7395 20.9996 18.9998C20.9731 19.4377 21.4863 20.0095 21.9996 19.9998C22.6935 19.9868 23.305 19.9928 23.9996 19.9998C23.9338 19.3519 24.4139 18.6234 23.9996 17.9998Z" fill="#231006"/>
<path d="M21 17.9999C21.8909 17.5772 23.0828 18.1195 24 17.9999C23.0289 17.6331 21.9895 18.1358 21 17.9999C21.0178 18.1286 20.9816 17.8712 21 17.9999C21.0546 18.0035 20.9454 17.9969 21 17.9999Z" fill="#231006"/>
<path d="M17.9998 47.9999C18.2368 48.4202 17.9998 49.5438 17.9998 49.9999C18.0003 54.9057 17.998 59.0941 17.9998 63.9999C18.0003 65.2075 18.8279 65.952 19.9998 65.9999C25.7075 66.2328 31.2897 66.0023 36.9998 65.9999C38.8088 65.9993 38.9998 65.9081 38.9998 63.9999C38.9998 60.8932 38.9992 58.1066 38.9998 54.9999C38.9998 54.5759 38.7638 53.3845 38.9998 52.9999C38.3367 53.1133 37.9762 54.4716 37.9998 54.9999C38.1309 57.9295 38.382 60.0739 38.9998 62.9999C39.3786 64.7953 38.7905 65.9999 36.9998 65.9999C33.2505 65.9999 28.749 66.0011 24.9998 65.9999C23.6549 65.9993 24.0003 65.3428 23.9998 63.9999C23.9986 58.2413 24.1898 52.7524 23.9998 46.9999C23.8474 42.3901 24.048 37.606 23.9998 32.9999C23.8062 32.3084 23.4575 32.9799 22.9998 32.9999C22.152 33.0363 21.9545 31.826 21.9998 30.9999C22.0427 30.2223 22.0286 29.7805 21.9998 28.9999C21.9803 28.4758 21.4751 28.3456 20.9998 27.9999C20.3014 27.6754 19.7251 26.8562 18.9998 26.9999C18.1167 27.2437 18.0074 28.2672 17.9998 28.9999C17.9792 31.0616 18.0009 32.9376 17.9998 34.9999C17.9986 36.8656 18.0015 39.1342 17.9998 40.9999C17.998 42.3962 17.9087 43.0042 16.9998 42.9999C16.0649 42.9957 16.0033 42.3774 15.9998 40.9999C15.9927 37.8252 15.9915 34.1746 15.9998 30.9999C16.0039 29.4963 15.9033 28.5048 15.9998 26.9999C16.0521 26.1853 16.2244 25.938 16.9998 25.9999C17.3769 26.0296 17.6262 26.1085 17.9998 25.9999C18.1174 25.9841 17.8821 26.0175 17.9998 25.9999C19.7376 25.6736 22.2554 25.063 23.9998 24.9999C24.7304 24.9732 25.2691 25.0369 25.9998 24.9999C26.3233 24.9835 26.9403 25.5288 26.9998 24.9999C23.5694 24.9975 19.4301 24.992 15.9998 24.9999C14.8755 25.0023 15.0003 24.879 14.9998 25.9999C14.9974 31.1683 15.0368 36.8315 14.9998 41.9999C14.9927 42.9558 15.0961 43.1073 15.9998 42.9999C16.2504 42.9702 16.7456 42.9999 16.9998 42.9999C18.5287 42.9999 18.2768 43.4775 17.9998 44.9999C17.9115 45.4845 18.3598 44.9659 17.9998 44.9999C17.3491 45.0618 16.6192 44.6087 15.9998 44.9999C16.2633 45.3778 16.6415 45.9823 16.9998 45.9999C17.3969 46.0193 17.6785 45.6706 17.9998 45.9999C18.3439 46.5021 17.8909 47.4661 17.9998 47.9999C18.0174 48.191 17.8833 47.8301 17.9998 47.9999Z" fill="#602200"/>
<path d="M19 27C19.7059 27.0089 20.2941 26.9911 21 27C21.451 27.2687 22.4675 28.0095 23 28C24.1539 27.9804 24.8455 27.9858 26 28C26.5296 28.0065 27.5652 27.3156 28 27C28.8376 27.0083 29.1625 26.9911 30 27C30.2496 28.1964 29.9732 29.7971 30 31C30.0352 32.5819 30.4029 33.1465 32 33C32.2901 32.9733 32.7594 33.1791 33 33C33.2711 32.6613 33.0358 31.3618 33 31C32.8999 29.9922 33.8999 28.9781 34 28C34.065 27.3677 34.4758 27.9941 35 28C35.5052 28.0059 35.7469 27.4039 36 28C36.747 29.7581 35.9536 32.1992 36 34C36.0304 35.1732 36.8289 35.1085 38 35C38.7876 34.927 38.9333 35.2307 39 36C39.1353 37.5546 40.646 38.9722 42 38C42.0274 34.1256 41.9935 29.8738 42 26C42.0006 25.8096 42.0941 25.1797 42 25C39.5255 24.8381 36.4764 25.0279 34 25C32.97 24.9881 32.0246 24.9276 31 25C30.1833 25.0581 29.9405 24.7124 30 24C30.0262 23.6839 30.0137 23.3191 30 23C29.642 23.0172 30.0054 23.7764 30 24C29.9804 24.8049 29.6482 24.0136 29 24C28.5223 23.9899 27.4355 24.7248 27 25C26.7063 25.2817 26.3473 24.9994 26 25C23.7471 25.0042 21.253 24.9929 19 25C18.6831 25.0012 18.3056 24.8482 18 25V25C17.34 26.1703 17.9647 26.6981 19 27Z" fill="#E34E0C"/>
<path d="M41.9996 25C41.9894 29.0442 42.0099 32.9552 41.9996 37C41.2683 37.2295 39.7458 37.1051 38.9996 37C38.5421 36.9354 39.0287 36.4831 38.9996 36C38.9186 34.6752 38.3082 34.885 36.9996 35C36.772 35.02 37.1479 35.1021 36.9996 35C36.8165 34.8744 36.2917 34.7453 35.9996 35C35.776 35.6674 35.9112 36.3884 35.9996 37C36.1183 37.8241 35.9985 38.2152 35.9996 39C36.0025 40.7057 36.0196 42.2943 35.9996 44C35.9911 44.7384 36.3921 45.2275 35.9996 46C35.8553 46.2841 36.7041 46.9026 36.9996 47C37.6625 47.2189 38.3339 47.1115 38.9996 47C39.3465 46.9419 39.0093 46.3669 38.9996 46C38.9842 45.4318 39.0065 44.5682 38.9996 44C38.6123 43.5768 38.4817 44.0047 37.9996 44C37.4081 43.9947 36.9956 43.5946 36.9996 43C37.0053 42.1765 37.0099 41.8235 36.9996 41C36.9911 40.3332 37.3841 39.9842 37.9996 40C38.4446 40.0117 38.6003 40.3827 38.9996 40C39.0601 40 38.9392 39.9941 38.9996 40V40C39.7772 39.7347 41.225 39.3029 41.9996 39C42.1793 38.7588 41.9991 39.2894 41.9996 39C42.0059 34.7034 41.9916 30.2966 41.9996 26C41.9991 25.7517 42.2227 25.1914 41.9996 25Z" fill="#A11F32"/>
<path d="M27 27.9997C25 28.0054 23 27.994 21 27.9997C21.3769 29.1954 21.0123 30.7903 21 31.9997C20.9916 32.8694 21.1 33.0813 22 32.9997C22.4828 32.956 23.5435 32.626 24 32.9997C24.047 33.0042 23.9541 32.9889 24 32.9997C24.0409 32.973 23.9586 33.0258 24 32.9997C24.2946 32.6051 24.0095 32.4448 24 31.9997C23.9877 31.3924 24.3778 30.9753 25 30.9997C25.4441 31.0167 25.562 31.1312 26 30.9997C26.1501 30.9572 26.8936 30.1091 27 29.9997C26.4226 29.1498 26.9754 28.7991 27 27.9997Z" fill="#A11F32"/>
<path d="M27 29.9997C26.8816 30.0021 27.1184 29.9973 27 29.9997C26.6124 30.4124 26.0011 30.4844 26 30.9997C25.9926 33.3272 26.013 35.6723 26 37.9997C25.9977 38.3758 26.4374 38.7976 26 38.9997C25.4181 39.2685 25.017 39.7525 25 38.9997C24.9677 37.5457 25.0062 35.4544 25 33.9997C24.9983 33.6446 25.1059 33.3416 25 32.9997C24.9054 32.6938 24.434 32.8558 24 32.9997C24 32.9997 24.0006 32.9997 24 32.9997C24.0142 36.6565 23.9836 40.3436 24 43.9997C24.0051 45.158 23.8883 44.9925 25 44.9997C26.5548 45.0093 26.9994 45.2072 27 43.9997C27.0023 39.4372 27.0062 34.5616 27 29.9997Z" fill="#A12133"/>
<path d="M39.0003 39.9998C38.3012 39.9153 37.7171 39.9822 37.0003 39.9998C36.3619 40.0156 35.9937 40.4507 36.0003 40.9998C36.0135 42.101 36.0194 42.8986 36.0003 43.9998C35.9904 44.5929 36.3098 45.0274 37.0003 44.9998C37.6722 44.9728 38.327 45.0021 39.0003 44.9998C39.0095 43.414 38.991 41.5856 39.0003 39.9998Z" fill="#E34E0C"/>
<path d="M35.9999 36.0002C36.1178 36.0491 35.9873 35.9318 35.9999 36.0002C36.1943 37.0623 37.2557 36.5401 37.9999 36.0002C38.5113 35.6295 38.9109 36.5709 38.9999 37.0002C39.382 38.8391 39.0873 39.2518 40.9999 39.0002C41.2791 38.9636 41.7514 38.9312 41.9999 39.0002C42.4139 39.115 41.9668 39.1956 41.9999 39.0002C41.74 39.0014 41.2592 39.0014 40.9999 39.0002C39.2389 38.9923 39.1666 38.7548 38.9999 37.0002C38.9235 36.1965 38.6244 35.9501 37.9999 36.0002C36.5229 36.1187 36.0023 35.4635 35.9999 34.0002C35.9987 33.2435 35.8964 32.7422 35.9999 32.0002C36.1732 30.7549 35.9668 29.2131 35.9999 28.0002C36.0089 27.6661 35.2905 28.0039 34.9999 28.0002C34.4482 27.9941 34.5498 27.9721 33.9999 28.0002C33.231 28.0393 33.0198 28.5141 32.9999 29.0002C32.9476 30.3145 33.0138 31.6841 32.9999 33.0002C33.0523 33.0637 32.9392 33.0558 32.9999 33.0002C33.0222 32.1531 32.9777 31.8473 32.9999 31.0002C33.915 30.8933 35.1432 30.144 35.9999 31.0002C36.0138 32.6528 35.9867 34.35 35.9999 36.0002Z" fill="#A12134"/>
<path d="M32.9998 33C32.9451 32.9987 33.0546 33.0069 32.9998 33C30.3816 33.0572 30.0307 32.8595 29.9998 30C29.9911 29.1855 30.4449 28.7787 29.9998 28C30.0103 30.3178 30.0068 32.6822 29.9998 35C29.9981 35.6065 30.3659 35.9591 30.9998 36C32.8612 36.1194 32.7778 35.9068 32.9998 34C33.0348 33.7015 32.9672 33.2991 32.9998 33Z" fill="#A01F31"/>
<path d="M30.9996 41.0002C32.4552 41.0002 32.9985 41.4137 32.9996 40.0002C33.0002 38.5286 33.3676 38.0016 31.9996 38.0002C31.2619 37.9995 29.992 37.6803 29.9996 39.0002C30.009 40.6871 29.5705 41.0002 30.9996 41.0002Z" fill="#A01E31"/>
<path d="M28.9996 27.9999C28.1312 27.8265 28.032 28.2878 27.9996 28.9999C27.9574 29.9376 28.3426 29.95 28.9996 29.9999C29.9257 30.0702 29.9534 29.5474 29.9996 28.9999C30.0638 28.2394 29.6969 27.8128 28.9996 27.9999Z" fill="#602200"/>
<path d="M36 31.0001C35.764 30.4897 35.9087 29.3224 35 30.0001C34.7574 30.1813 34.2739 30.0428 34 30.0001C33.6251 29.9418 33.0891 30.5228 33 31.0001C34.0024 31.0092 35.0222 30.6586 36 31.0001Z" fill="#A11F32"/>
<path d="M13.9999 33.9999C13.9999 31.5719 13.997 29.4279 13.9999 26.9999C14.0005 26.4151 13.8236 26.0233 12.9999 25.9999C12.2864 25.9796 12.0797 26.3085 11.9999 26.9999C11.7783 28.9213 11.9137 31.0754 11.9999 32.9999C12.1312 35.9511 12.0421 39.042 11.9999 41.9999C11.9894 42.7332 12.0724 42.9611 12.9999 42.9999C13.7533 43.0313 14.0052 42.6716 13.9999 41.9999C13.9817 39.5054 13.9993 36.4945 13.9999 33.9999Z" fill="#060304"/>
<path d="M21.0003 12.0002C21.0064 13.1057 21.0756 14.8991 21.0003 16.0002C20.9403 16.8744 20.9438 17.0474 22.0003 17.0002C23.6883 16.9248 23.9556 17.5103 24.0003 19.0002C24.018 19.5937 24.4184 19.9581 25.0003 20.0002C25.6097 20.044 26.4203 19.6713 27.0003 20.0002C27.1332 20.0218 26.8668 19.9786 27.0003 20.0002C28.0225 20.1805 29.0258 20.5089 30.0003 20.0002C30.6287 19.9886 31.3774 19.9553 32.0003 20.0002C32.7689 20.0557 33.0995 19.6525 33.0003 19.0002C32.9733 18.8238 33.0229 18.1777 33.0003 18.0002C32.9176 17.3523 33.2482 17.0052 34.0003 17.0002C36.06 16.9863 35.9991 16.8784 36.0003 15.0002C36.0009 14.4011 35.9586 13.5965 36.0003 13.0002C36.0432 12.3867 35.7052 12.0047 35.0003 12.0002C34.3633 11.9963 33.6121 12.3369 33.0003 12.0002V12.0002C32.9433 12.0024 33.0566 12.0096 33.0003 12.0002C32.9666 12.0296 33.0346 11.9708 33.0003 12.0002C32.985 12.6575 33.593 13.0069 34.0003 13.0002C35.0305 12.9847 34.7994 13.4261 35.0003 14.0002C35.2306 14.6581 35.8118 15.4977 35.0003 16.0002C34.2941 16.4373 33.1252 16.7801 33.0003 16.0002C32.958 15.7345 33.1846 15.2271 33.0003 15.0002C32.8594 14.8272 33.1724 14.8055 33.0003 15.0002C32.8888 15.155 33.0303 14.8222 33.0003 15.0002C32.8018 16.1734 32.3637 17.0008 31.0003 17.0002C28.8603 16.9991 27.1397 16.9836 25.0003 17.0002C24.7026 16.9802 24.0009 16.3081 24.0003 16.0002C23.9966 14.9552 23.9672 14.0453 24.0003 13.0002C24.0076 12.7684 23.9109 12.1921 24.0003 12.0002C24.0291 11.8954 24.0726 12.0856 24.0003 12.0002C23.8551 11.8976 24.1755 11.998 24.0003 12.0002C23.3504 11.9886 22.6477 11.9586 22.0003 12.0002C21.6493 12.0241 21.1993 11.6585 21.0003 12.0002Z" fill="#EC8417"/>
<path d="M20.0002 24C21.4699 23.9994 23.5317 24.0342 25.0002 24C25.8077 23.9812 26.1491 23.073 26.0002 22C25.9001 21.2792 25.7731 20.9168 25.0002 21C24.5628 21.0473 23.9347 21.5202 24.0002 22C24.125 22.9123 24.0634 22.9909 23.0002 23C20.768 23.0194 18.2261 23.2182 16.0002 23C15.6789 22.9687 15.2244 22.6872 15.0002 23C14.6548 23.4815 15.2749 23.9897 16.0002 24C17.4687 24.0222 18.5304 24.0011 20.0002 24Z" fill="#060304"/>
<path d="M29.9997 19.9998C29.0778 20.0194 27.8947 19.5577 26.9997 19.9998C26.9957 21.3371 27.0036 22.6624 26.9997 23.9998C26.8737 24.1892 26.7993 24.8581 26.9997 24.9998C27.5085 25.002 28.497 24.9443 28.9997 24.9998C29.8051 25.0883 30.0931 24.7774 29.9997 23.9998C29.9722 23.7729 29.9722 23.2317 29.9997 22.9998C30.0321 22.0059 29.9678 20.9948 29.9997 19.9998Z" fill="#DE9E58"/>
<path d="M18.0004 47.9999C18.0566 47.871 17.9441 48.1288 18.0004 47.9999C17.615 47.5494 17.4677 47.0349 17.0004 46.9999C16.5746 46.968 15.9883 46.5654 16.0004 45.9999C16.0114 45.4772 16.6198 46.0373 17.0004 45.9999C17.4672 45.9542 17.6072 45.436 18.0004 44.9999C17.2381 44.5344 16.7878 45.1101 16.0004 44.9999C15.3706 45.5396 14.7659 46.2832 15.0004 46.9999C15.2343 47.713 16.3985 48.0523 17.0004 47.9999C17.3951 47.965 17.6035 48.0011 18.0004 47.9999Z" fill="#671722"/>
<path d="M26.9996 25.9996C26.9738 25.8033 27.0253 25.1953 26.9996 24.9996C26.7244 24.9486 27.0721 24.8223 26.9996 24.9996C26.725 25.3648 26.3347 25.9977 25.9996 25.9996C23.8175 26.0127 21.1817 25.9911 18.9996 25.9996C18.6555 26.0009 18.3077 25.7254 17.9996 25.9996C20.7194 26.0062 23.2797 25.9931 25.9996 25.9996C26.2921 26.0003 26.7574 26.2293 26.9996 25.9996Z" fill="#A01F30"/>
<path d="M42 40.0003C41.0113 40.1316 39.9573 39.5585 39 40.0003C39.9981 39.9937 41.002 40.0075 42 40.0003C42.0029 39.9368 42.0093 40.0639 42 40.0003Z" fill="#681415"/>
<path d="M24 12.9997C24.1194 13.0055 24.8806 12.994 25 12.9997C25.5805 13.4271 25.3689 13.0696 26 12.9997C26.4817 12.9459 26.9608 12.4437 27 11.9997C27.038 11.5683 26.9934 11.4288 27 10.9997C26.9831 10.2149 28.2447 8.82815 28 7.99974C27.959 7.86167 27.8252 7.94875 28 7.99974C28.806 8.23463 29.2109 7.64225 30 7.99974C30.8729 8.07937 32.1422 8.31827 33 7.99974C32.9234 7.46351 32.3105 8.04443 32 7.99974C31.408 7.91495 30.5582 8.36067 30 7.99974C29.6678 6.85509 29.991 5.15413 30 3.99974C30.0066 3.14898 29.9862 2.95677 29 2.99974C27.2657 3.07536 27 3.35208 27 4.99974C27 5.76972 27.0199 6.22976 27 6.99974C26.994 7.24036 27.4804 7.96651 27 7.99974C26.9747 8.02323 27.0253 7.97625 27 7.99974C26.4973 8.29994 25.5305 7.99802 25 7.99974C24.2471 8.00146 23.9711 8.21773 24 8.99974C24.0392 10.0648 24.0211 10.9324 24 11.9997C23.8891 12.1596 23.8439 12.8794 24 12.9997Z" fill="#E15518"/>
<path d="M24.0005 12.0002C23.982 11.8653 24.019 11.1361 24.0005 11.0002C23.752 9.98435 24.0702 9.02426 24.0005 8.00016C23.9772 7.65695 24.2655 7.28755 24.0005 7.00016C23.4428 6.88907 22.5577 6.88686 22.0005 7.00016C21.8919 7.06593 21.1091 6.93384 21.0005 7.00016C20.5912 8.05797 20.9227 9.91748 21.0005 11.0002C21.0218 11.2947 21.0972 11.7078 21.0005 12.0002C20.9426 12.0676 21.0583 11.9327 21.0005 12.0002C20.9658 12.0433 20.9915 11.9543 21.0005 12.0002C21.0095 12.0466 20.9896 12.0002 21.0005 12.0002C21.0645 12.0405 20.9483 12.0615 21.0005 12.0002C21.0512 12.0156 20.9497 11.9841 21.0005 12.0002C21.7611 11.7222 23.2422 12.3146 24.0005 12.0002Z" fill="#231006"/>
<path d="M20.9996 12.9996C20.9264 12.9957 21.0722 13.0036 20.9996 12.9996C20.214 12.8521 18.7865 12.8725 17.9996 12.9996C17.5684 14.1178 18.0899 15.864 17.9996 16.9997C17.9685 17.3897 17.9972 17.6068 17.9996 17.9997C18.9121 18.1777 20.0835 18.0731 20.9996 17.9997C21.0069 16.4654 20.9917 14.5339 20.9996 12.9996Z" fill="#080707"/>
<path d="M30.0001 8.00003C30.9356 7.87642 33.1526 8.80384 34.0001 8.00003C34.6781 6.53804 34.6498 3.46526 34.0001 2.00003C33.2219 1.2027 30.8714 1.98191 30.0001 2.00003C29.6846 2.0065 29.9975 2.72951 30.0001 3.00003C30.0108 4.46526 29.9824 6.53481 30.0001 8.00003Z" fill="#0A0404"/>
<path d="M36.0004 12.0001C35.9997 13.3754 36.0325 14.6253 36.0004 16.0001C35.9872 16.5676 36.3194 17.05 37.0004 17.0001C37.2985 16.978 37.7052 16.9676 38.0004 17.0001C38.898 17.0993 39.038 16.7388 39.0004 16.0001C38.9371 14.7518 39.0018 13.2501 39.0004 12.0001V12.0001C38.1154 11.7436 36.8869 12.2363 36.0004 12.0001C35.928 12.0007 36.0736 12.003 36.0004 12.0001Z" fill="#060505"/>
<path d="M24.0005 3.00015C23.5953 3.06588 24.0011 3.70942 24.0005 4.00015C23.9986 5.08316 24.026 5.91774 24.0005 7.00015C23.9877 7.54847 24.4651 8.01733 25.0005 8.00015C25.6539 7.98002 26.3464 7.9895 27.0005 8.00015C27.0412 7.99186 26.9907 8.04042 27.0005 8.00015C26.9919 6.73774 26.953 5.2602 27.0005 4.00015C27.0278 3.26118 26.7853 2.88765 26.0005 3.00015C25.5314 3.06766 24.4318 2.66086 24.0005 3.00015C24.1416 3.13694 24.8033 3.94686 25.0005 4.00015C26.1722 4.31635 25.9299 3.81412 26.0005 5.00015C26.0254 5.41346 26.0601 5.58981 26.0005 6.00015C25.9232 6.53129 25.5285 7.03213 25.0005 7.00015C24.4517 6.9664 25.0211 6.31635 25.0005 6.00015C24.9591 5.36539 25.0163 4.6361 25.0005 4.00015C24.9907 3.58626 24.3582 3.31161 24.0005 3.00015Z" fill="#231006"/>
<path d="M21.0001 8.00024C21.0001 9.10375 21.0001 9.89673 21.0001 11.0002C21.0068 11.2294 20.9935 11.771 21.0001 12.0002C21.3694 10.6772 20.9283 9.33295 21.0001 8.00024C20.9398 8.00024 21.0611 7.9997 21.0001 8.00024Z" fill="#24313B"/>
<path d="M21.0003 17.9998C20.0096 17.9873 18.9909 18.0118 18.0003 17.9998C17.995 18.067 18.0056 17.9327 18.0003 17.9998C18.9982 17.9969 20.0024 18.0028 21.0003 17.9998C21.0029 17.9477 21.0069 18.0508 21.0003 17.9998Z" fill="#24313B"/>
<path d="M39.0002 11.9996C38.9468 12.0032 38.0536 12.0044 38.0002 11.9996C37.5665 12.0068 37.434 11.9918 37.0002 11.9996C37.6281 12.3622 38.3543 11.915 39.0002 11.9996C38.8809 11.7922 39.1759 12.017 39.0002 11.9996Z" fill="#4F2E1F"/>
<path d="M19.0001 12.0001C19.6643 12.0025 20.336 11.9977 21.0001 12.0001C21.0027 11.9408 20.9986 12.0589 21.0001 12.0001C20.3344 12.0715 19.6467 11.6327 19.0001 12.0001Z" fill="#24313B"/>
<path d="M29.9998 0C30.0101 0.667018 29.9895 1.33351 29.9998 2C30.2484 1.32982 30.3099 0.662806 29.9998 0Z" fill="#24313B"/>
<path d="M22 6.99994C22.6669 6.99994 23.3337 6.99994 24 6.99994C23.3331 6.7338 22.6663 6.73499 22 6.99994Z" fill="#24313B"/>
<path d="M33.0004 13C33.7031 12.9945 34.2989 12.9666 35.0004 13C35.6534 13.0316 36.018 12.5916 36.0004 12C35.9676 10.9059 35.9788 10.0948 36.0004 9.00003C36.0128 8.3621 35.6684 7.99632 35.0004 8.00003C32.5186 8.01486 33.0455 8.04297 33.0004 10C32.9755 11.0614 33.0043 11.9387 33.0004 13C33.0004 13 33.0004 13 33.0004 13Z" fill="#060405"/>
<path d="M33.0003 7.99998C32.1905 7.66168 30.8287 8.06611 30.0003 7.99998C29.633 8.31479 29.9739 8.61905 30.0003 8.99998C30.0646 9.928 30.0096 11.0638 30.0003 12C29.997 12.3186 30.655 12.9716 31.0003 13C31.6946 13.0574 32.3757 13.4853 33.0003 13V13C32.9876 11.6528 33.0129 9.3472 33.0003 7.99998Z" fill="#E95719"/>
<path d="M33.9999 17.9997C32.549 17.9986 33.0576 17.9206 32.9999 18.9997C32.9607 19.7284 33.2115 20.0886 33.9999 19.9997C34.1019 19.9881 33.8965 19.9997 33.9999 19.9997C35.4943 20.0002 35.9093 20.0321 35.9999 18.9997C36.0987 17.8843 34.7156 18.0227 33.9999 17.9997Z" fill="#0A0606"/>
<path d="M18.9996 27.0001C18.5539 26.7923 17.968 26.5002 17.9996 26.0001C18.023 25.6297 18.005 25.3734 17.9996 25.0001C15.7499 24.8994 16.023 25.4048 15.9996 28.0001C15.9607 32.3381 15.9918 36.6615 15.9996 41.0001C16.0006 41.4226 15.6002 41.8832 15.9996 42.0001C16.599 42.1755 17.4041 42.2704 17.9996 42.0001C18.2599 41.882 18.9996 41.3011 18.9996 41.0001C19.004 36.8803 18.9962 32.1199 18.9996 28.0001C19.0001 27.5527 18.4328 27.1355 18.9996 27.0001Z" fill="#A01F30"/>
<path d="M17.9996 44.9996C17.4021 44.992 16.5939 45.0424 15.9996 44.9996C15.1376 44.9377 14.9977 45.2642 14.9996 45.9996C15.0016 46.7382 15.0467 47.0783 15.9996 46.9996C16.5919 46.9507 17.4021 47.0039 17.9996 46.9996C17.9924 46.363 18.0075 45.6367 17.9996 44.9996Z" fill="#A11E2F"/>
<path d="M24.0001 32.9998C24.5042 33.1748 23.9981 33.6618 24.0001 33.9998C24.0112 35.8231 24.0695 37.1789 24.0001 38.9998C23.9615 40.0125 25.3271 39.9956 26.0001 39.9998C26.6855 40.004 27.0204 39.9981 27.0001 38.9998C26.9399 35.973 27.0067 33.0278 27.0001 29.9998C26.265 29.995 25.7353 30.0155 25.0001 29.9998C24.4725 29.9883 23.9811 30.5031 24.0001 30.9998C24.0263 31.6764 23.9916 32.3232 24.0001 32.9998Z" fill="#E34E0C"/>
<path d="M23.9996 18.0002C26.5658 18.0127 29.4339 17.969 31.9996 18.0002C32.6161 18.008 33.0454 17.6518 32.9996 17.0002C32.9635 16.4869 32.9959 16.5164 32.9996 16.0002C32.7265 15.6384 32.3882 15.0289 31.9996 15.0002C30.7268 14.9067 31.1071 15.195 30.9996 14.0002C30.9733 13.7097 30.1713 13.2529 29.9996 13.0002C29.6819 12.2006 30.1529 11.8117 29.9996 11.0002C29.9599 10.8888 30.0973 10.0678 29.9996 10.0002C29.1466 9.69473 27.8642 9.78277 26.9996 10.0002C26.8933 10.0487 27.0668 9.90614 26.9996 10.0002C26.8377 10.4907 26.9959 11.5019 26.9996 12.0002C27.0026 12.4152 26.3699 12.7828 25.9996 13.0002C25.743 13.0822 26.2617 12.9966 25.9996 13.0002C24.4024 13.0229 24.0014 13.482 23.9996 15.0002C23.999 15.7721 24.0063 16.2282 23.9996 17.0002C23.9953 17.3613 23.7216 17.7217 23.9996 18.0002Z" fill="#FDEB43"/>
<path d="M29.9996 12.0005C29.9311 14.4064 30.5131 14.9515 32.9996 15.0005C33.13 15.0028 32.8692 14.991 32.9996 15.0005C33.2452 15.3476 32.9893 15.6261 32.9996 16.0005C33.0244 16.9357 34.0808 17.2644 34.9996 17.0005C35.5696 16.8369 35.9965 16.5236 35.9996 16.0005C36.0044 15.2341 35.9839 13.6263 34.9996 13.0005C34.9456 12.9662 34.9965 13.0211 34.9996 13.0005C35.2525 11.4318 34.5223 12.2419 33.9996 12.0005C33.7752 11.8966 33.0845 12.3152 32.9996 12.0005C32.5126 11.991 32.4714 11.9231 31.9996 12.0005C31.0092 12.1628 30.9177 11.8737 30.9996 11.0005C31.1087 9.83913 29.8546 8.17302 29.9996 7.00047C29.1815 6.51574 28.8601 7.23191 27.9996 7.00047C27.8025 6.94733 26.9019 7.76312 26.9996 8.00047C27.3168 8.76859 27.0954 9.31146 26.9996 10.0005C27.1318 10.1138 26.8619 10.1044 26.9996 10.0005V10.0005C27.5751 9.71471 28.1221 8.76032 27.9996 8.00047C27.9238 7.53109 28.666 7.98925 28.9996 8.00047C29.3562 8.01228 29.1136 7.62379 28.9996 8.00047C28.8007 8.65936 29.4726 9.72829 29.9996 10.0005V10.0005C30.2846 10.8164 29.7382 11.1839 29.9996 12.0005Z" fill="#EE8415"/>
<path d="M22 14.9996C22 15.2748 21.9646 15.7315 22 15.9996C22.0474 16.357 21.4522 16.9061 22 16.9996C22.5491 17.093 23.9245 16.5392 24 15.9996C24.1276 15.0852 23.7484 13.8195 23 12.9996C22.6835 12.6524 22.32 12.9169 22 12.9996C21.6613 13.0869 22.0124 13.7188 22 13.9996C21.9834 14.3835 22 14.6146 22 14.9996Z" fill="#ED8414"/>
<path d="M25 17.9999C25.0013 16.7574 25.0494 15.2401 25 13.9999C24.9712 13.2777 25.2609 12.9697 26 12.9999C26.4753 13.0195 26.5729 13.3943 27 12.9999C26.1983 12.8764 25.8036 12.9322 25 12.9999C24.5791 13.1045 23.9962 13.5901 24 13.9999C24.0106 15.1184 23.9981 15.8815 24 16.9999C24.0006 17.3783 24.4885 17.9803 25 17.9999Z" fill="#FCC937"/>
<path d="M23.9999 13.0001C24.7712 13.0086 26.2287 12.9915 26.9999 13.0001C27.6018 12.6315 26.9693 11.5712 26.9999 11.0001C27.0246 10.5477 26.9951 10.4538 26.9999 10.0001C26.8666 9.99648 27.1339 10.0036 26.9999 10.0001C26.9579 12.6689 26.2951 12.8705 23.9999 13.0001C23.9993 13.053 24.0005 12.9464 23.9999 13.0001Z" fill="#ED8515"/>
<path d="M24.9996 3.00007C25.0015 3.95067 24.9758 5.04999 24.9996 6.00007C25.0088 6.37781 24.4371 6.91555 24.9996 7.00007C25.5792 7.0872 26.9459 6.57189 26.9996 6.00007C27.0814 5.13451 27.1438 3.85311 26.9996 3.00007C26.951 2.71051 26.2063 3.0032 25.9996 3.00007C25.6548 2.99485 25.3445 3.0032 24.9996 3.00007C24.9992 2.99955 24.9996 3.00007 24.9996 3.00007Z" fill="#0C0505"/>
<path d="M29.9996 10.0003C29.6884 9.55671 29.391 9.57881 29.9996 9.00025C30.1552 8.85205 29.3089 8.05246 28.9996 8.00025C28.4763 7.91165 28.5269 7.92167 27.9996 8.00025C27.7508 8.03717 26.8703 7.85627 26.9996 8.00025C27.6234 8.6922 27.3877 9.53667 26.9996 10.0003C27.9891 9.99814 29.0101 10.0018 29.9996 10.0003Z" fill="#ED8515"/>
<path d="M29.9996 13C29.9119 12.0021 30.4212 10.968 29.9996 10C30.1383 10.9936 29.6428 12.0263 29.9996 13Z" fill="#ED8515"/>
<rect width="15" height="7" transform="matrix(-1 0 0 1 39 65)" fill="#852A0D"/>
<rect width="6" height="7" transform="matrix(-1 0 0 1 24 65)" fill="#602200"/>
<g clip-path="url(#clip0_4395_43035)">
<path d="M18 76.0001C18.0014 75.2651 17.8447 74.2895 18 73.0001C18.189 71.4302 17.9955 70.5742 18 69.0001C18.0004 68.8026 18.1428 68.1537 18 68.0001C17.9284 67.9386 18.0785 67.948 18 68.0001C17.7928 68.227 16.9959 68.7191 17 69.0001C17.0121 69.799 16.9085 70.2037 17 71.0001C17.0109 71.2409 17.0044 71.7586 17 72.0001C16.985 72.7472 16.66 73.3464 16 73.0001C15.8774 72.9358 16.0077 72.1504 16 72.0001C15.9045 70.0656 15.5184 67.9269 16 66.0001C16.1121 65.5512 16.2655 65.4165 16 65.0001C15.8418 64.752 16.0251 64.2576 16 64.0001C15.9462 62.921 16.2088 62.0743 16 61.0001C15.3902 60.4738 14.6693 60.8567 14 61.0001C13.6637 61.533 13.0809 62.4392 13 63.0001C12.9709 63.304 12.9862 63.6909 13 64.0001C13.0231 64.5252 12.4824 64.0209 12 64.0001C11.359 63.9728 12.07 63.6258 12 63.0001C11.8563 61.7153 12.0453 61.2841 12 60.0001C11.9943 59.8429 11.1226 59.1097 11 59.0001C10.4549 58.7288 10.5609 58.8376 10 59.0001C9.45976 59.5305 8.71713 60.2738 9 61.0001C9.06474 63.2638 9.09267 65.7372 9 68.0001C8.97005 68.726 9.02873 69.275 9 70.0001C8.97572 70.6152 8.63897 70.9851 8 71.0001C7.47271 71.0124 7.99878 70.5354 8 70.0001C8.00445 67.868 7.96439 66.1331 8 64.0001C8.00485 63.7003 7.22621 63.2649 7 63.0001C6.9227 62.9411 7.07324 62.9366 7 63.0001C6.78269 63.2572 7.00081 63.693 7 64.0001C6.99635 66.2634 6.88709 68.7421 7 71.0001C7.21528 75.3047 6.92756 79.6968 7 84.0001C7.00283 84.1757 6.97855 83.8254 7 84.0001C7.07284 84.5965 7.40189 84.9838 8 85.0001C8.89553 85.0242 10.1041 85.0001 11 85.0001C12.8574 85.0005 14.1426 85.0087 16 85.0001C17.0149 84.9952 18.1586 84.9925 18 84.0001C17.6819 82.0106 18.0409 79.9913 18 78.0001C17.969 76.4626 17.9978 77.1017 18 76.0001Z" fill="#852A0D"/>
<path d="M3.00069 87.0001C2.73057 86.5181 2.00028 85.506 2.00069 85.0001C2.00352 81.5091 2.00554 78.491 2.00069 75.0001C2.00028 74.592 2.42769 74.0088 3.00069 74.0001C3.58864 73.9909 4.00109 74.5529 4.00069 75.0001C3.99664 78.1029 3.99907 80.8972 4.00069 84.0001C4.00109 85.0342 3.96226 85.9589 5.00069 86.0001C8.92795 86.1558 13.0722 85.9965 17.0007 86.0001C17.2393 86.0005 17.7702 86.0512 18.0007 86.0001C18.5535 85.8783 18.0084 85.6158 18.0007 85.0001C17.9764 83.018 18.0043 80.9825 18.0007 79.0001C18.0003 78.6966 18.9534 78.2975 19.0007 78.0001C19.0791 77.5069 18.6343 76.9817 19.0007 77.0001C19.3925 77.02 20.0011 77.6946 20.0007 78.0001C19.9991 80.7583 19.991 83.2418 20.0007 86.0001C20.0015 86.2832 19.1459 86.7848 19.0007 87.0001C19.3363 87.0328 20.0015 87.3918 20.0007 87.0001C19.9918 83.9874 20.0011 80.0127 20.0007 77.0001C20.0007 76.8675 20.1046 77.0959 20.0007 77.0001C19.475 77.0029 18.5264 76.9973 18.0007 77.0001C17.6238 77.2432 17.9999 77.6387 18.0007 78.0001C18.0051 80.0448 17.8442 81.9561 18.0007 84.0001C18.0646 84.8326 17.8507 84.9989 17.0007 85.0001C14.2255 85.0041 11.7658 85.1638 9.00069 85.0001C7.77342 84.9274 6.23402 85.0508 5.00069 85.0001C4.48713 84.9789 4.00028 84.4505 4.00069 84.0001C4.0015 82.9439 4.00109 82.0562 4.00069 81.0001C3.99947 78.931 4.00392 77.0692 4.00069 75.0001C4.00028 74.6347 4.24088 74.3171 4.00069 74.0001C3.6873 73.6663 3.37877 73.9957 3.00069 74.0001C2.56841 74.0052 2.13777 73.4289 2.00069 73.0001C1.8725 72.5988 1.58054 72.2085 2.00069 72.0001C2.38484 71.8683 3.61128 72.0404 4.00069 72.0001C4.53163 71.945 4.00594 71.6836 4.00069 71.0001C3.99624 70.4774 4.5478 70.0384 4.00069 70.0001C3.65212 69.9757 3.35047 70.0256 3.00069 70.0001C2.63311 69.9729 2.00028 70.3854 2.00069 70.0001C2.00513 66.6157 1.98653 62.3844 2.00069 59.0001C2.00311 58.3808 2.26716 59.0037 3.00069 59.0001C4.96755 58.9909 7.03382 59.0037 9.00069 59.0001C9.30518 58.9997 9.70064 58.0895 10.0007 58.0001C10.1964 57.9046 9.88827 58.1809 10.0007 58.0001C10.1782 57.0597 10.3104 55.9324 10.0007 55.0001C9.91739 54.9018 10.1252 55.0276 10.0007 55.0001C9.58823 54.9813 9.41355 54.9897 9.00069 55.0001C8.3634 55.016 8.03546 55.358 8.00069 56.0001C7.97238 56.5259 7.52556 57.0308 7.00069 57.0001C6.70347 56.9825 6.22794 56.7357 6.00069 57.0001C4.88583 57.0033 4.11473 57.0248 3.00069 57.0001C2.4653 56.9881 1.99058 56.459 2.00069 57.0001C2.01686 57.8689 1.91497 57.9913 1.00069 58.0001C-0.0474459 58.01 0.00109101 57.9871 0.000686631 59.0001C0.000282247 62.277 0.000282234 65.7231 0.000686594 69.0001C0.000686591 69.9156 0.0451554 69.9969 1.00069 70.0001C1.10987 70.0005 0.891506 69.9989 1.00069 70.0001C1.46248 70.0044 1.96106 70.5481 2.00069 71.0001C2.03951 71.4453 1.53971 71.9406 1.00069 72.0001C0.606424 72.6625 1.51706 73.5189 2.00069 74.0001C2.53284 74.0907 2.00109 73.5976 2.00069 74.0001C1.99866 77.9107 2.00069 82.0894 2.00069 86.0001C2.0015 86.3638 2.39736 87.0691 3.00069 87.0001Z" fill="#100505"/>
<path d="M18.0005 67.9996C17.9819 69.9477 18.1873 75.0519 18.0005 76.9996C17.9175 77.8638 18.1495 78.0016 19.0005 77.9996C19.5446 77.9982 20.0005 77.9996 20.0005 77.9996C20.0005 77.9996 19.9344 78.5593 20.0005 73.9996C19.9993 72.5266 19.9953 70.4726 20.0005 68.9996C20.0036 68.0441 20.0887 68.002 21.0005 67.9996C22.0339 67.9972 22.0005 68.0863 22.0005 66.9996C21.9997 64.3172 22.0016 61.682 22.0005 58.9996C22.0001 57.873 22.1043 57.9968 21.0005 57.9996C20.7247 58.0004 20.2466 57.8199 20.0005 57.9996C19.7532 58.1895 20.0013 58.7441 20.0005 58.9996C19.9945 60.8658 19.9396 63.1358 20.0005 64.9996C20.0297 65.896 20.0419 66.106 20.0005 66.9996C19.987 67.2905 20.2185 67.7836 20.0005 67.9996C19.5742 68.3553 18.4413 67.7319 18.0005 67.9996C17.9772 68.0281 18.0226 67.9703 18.0005 67.9996Z" fill="#070405"/>
<path d="M16.0003 56C15.3123 55.9492 14.6755 56.302 14.0003 56C14.2942 55.6271 14.1346 55.428 14.0003 55C13.6868 54.4875 12.467 53.6731 12.0003 54C11.8399 54.1125 12.0079 54.8061 12.0003 55C11.9658 55.8709 11.9722 56.1291 12.0003 57C12.0131 57.3965 12.6435 57.9956 13.0003 58C15.2896 58.0271 17.711 58.0232 20.0003 58C20.1559 57.9982 19.8921 58.1317 20.0003 58C19.9899 56.0166 19.7989 56.0227 18.0003 56C17.2678 55.9908 16.7328 56.0039 16.0003 56Z" fill="#0F0505"/>
<path d="M12.0002 41C11.4568 41 10.544 41 10.0002 41C9.75992 41.6412 10.0816 42.339 10.0002 43C10.598 42.9932 11.402 43.0068 12.0002 43C12.0592 42.3401 12.1067 41.6573 12.0002 41Z" fill="#0D0607"/>
<path d="M5.99984 53.0003C6.00112 53.05 5.99856 52.9507 5.99984 53.0003C6.16604 53.57 5.93318 53.982 6.99984 54.0003C7.52572 54.0094 8.07698 54.2741 7.99984 54.0003C7.95893 53.8555 8.12598 53.1419 7.99984 53.0003V53.0003C7.46971 52.9235 6.53467 53.0124 5.99984 53.0003C5.87072 52.9973 5.97598 52.9198 5.99984 53.0003Z" fill="#0E0806"/>
<path d="M8.00008 52.9996C7.99894 53.0659 8.00046 52.9333 8.00008 52.9996C7.99666 53.6268 7.95184 54.0535 7.00008 53.9996C6.37116 53.964 6.25903 53.1549 6.00008 52.9996C5.99856 53.1193 6.00997 53.8804 6.00008 53.9996C5.98373 54.2001 5.68258 54.004 6.00008 53.9996C6.42938 53.9937 7.5704 53.9964 8.00008 53.9996C7.9594 53.7029 8.25637 53.2851 8.00008 52.9996Z" fill="#231006"/>
<path d="M6 53.0001C6.59391 52.7153 7.38855 53.0807 8 53.0001C7.35261 52.753 6.65966 53.0917 6 53.0001C6.01183 53.0868 5.98773 52.9134 6 53.0001C6.03638 53.0025 5.96362 52.9981 6 53.0001Z" fill="#231006"/>
<path d="M4.00024 73.9997C4.00064 77.2205 3.99906 80.779 4.00024 83.9997C4.00064 84.7926 4.21709 84.9683 5.00024 84.9997C8.81458 85.1527 13.1843 85.0013 17.0002 84.9997C18.2092 84.9993 18.0002 85.2525 18.0002 83.9997C18.0002 81.9601 17.9999 80.0394 18.0002 77.9997C18.0002 77.7214 17.8426 77.2522 18.0002 76.9997C17.5572 77.0742 16.9845 76.6529 17.0002 76.9997C17.0879 78.9231 17.5874 81.0787 18.0002 82.9997C18.2534 84.1785 17.197 84.9997 16.0002 84.9997C13.4947 84.9997 11.5058 85.0005 9.00024 84.9997C8.1015 84.9993 8.00064 84.8814 8.00024 83.9997C7.99946 80.2191 8.12723 75.7764 8.00024 71.9997C7.89842 68.9733 8.03248 66.0238 8.00024 62.9997C7.8709 62.5458 7.30611 62.9866 7.00024 62.9997C6.43371 63.0236 5.96997 62.5421 6.00024 61.9997C6.02894 61.4892 6.01951 61.5123 6.00024 60.9997C5.98727 60.6557 6.31791 60.2267 6.00024 59.9997C5.53357 59.7867 5.485 59.9054 5.00024 59.9997C4.41013 60.1598 4.00535 60.5187 4.00024 60.9997C3.98648 62.3533 4.00103 63.6458 4.00024 64.9997C3.99946 66.2247 4.00142 67.7748 4.00024 68.9997C3.99906 69.9164 3.60766 70.0025 3.00024 69.9997C2.37553 69.997 3.0026 68.9041 3.00024 67.9997C2.99553 65.9155 2.99474 64.084 3.00024 61.9997C3.003 61.0126 2.93577 59.9877 3.00024 58.9997C3.03523 58.4649 2.48207 58.9591 3.00024 58.9997C3.25225 59.0193 3.75059 58.071 4.00024 57.9997C4.07887 57.9894 3.92161 58.0113 4.00024 57.9997C5.16161 57.7855 6.83455 58.0412 8.00024 57.9997C8.48854 57.9822 8.51195 58.024 9.00024 57.9997C9.21648 57.989 9.96054 58.347 10.0002 57.9997C7.70779 57.9982 5.2927 57.9946 3.00024 57.9997C2.24893 58.0013 2.00064 58.2638 2.00024 58.9997C1.99867 62.393 2.02501 65.6065 2.00024 68.9997C1.99553 69.6273 2.39637 70.0702 3.00024 69.9997C3.16772 69.9802 2.8304 69.9997 3.00024 69.9997C4.02204 69.9997 4.18542 70.0002 4.00024 70.9997C3.77459 72.2172 4.00024 72.8284 4.00024 73.9997Z" fill="#602200"/>
<path d="M5.00026 59.9996C5.47234 60.0054 5.52818 59.9937 6.00026 59.9996C6.30183 60.1766 6.6441 60.0058 7.00026 59.9996C7.77192 59.9867 8.22819 59.9902 9.00026 59.9996C9.35442 60.0039 9.70944 60.2075 10.0003 59.9996C10.5604 60.005 11.4401 59.9937 12.0003 59.9996C12.1672 60.7878 11.9823 61.207 12.0003 61.9996C12.0238 63.0419 11.9322 64.0961 13.0003 63.9996C13.1943 63.982 13.8393 63.1176 14.0003 62.9996C14.1815 62.7764 14.0242 63.238 14.0003 62.9996C13.9333 62.3356 13.9333 61.644 14.0003 60.9996C14.0437 60.5829 14.6497 59.9957 15.0003 59.9996C15.3381 60.0035 15.8309 60.6068 16.0003 60.9996C16.4998 62.1579 15.9692 62.813 16.0003 63.9996C16.0206 64.7726 16.217 65.0711 17.0003 64.9996C17.5269 64.9515 17.9556 65.4927 18.0003 65.9996C18.0907 67.0239 19.0947 67.6401 20.0003 66.9996C20.0186 64.4467 19.9959 61.552 20.0003 58.9996C20.0007 58.8741 20.0632 58.118 20.0003 57.9996C18.3454 57.8929 16.6563 58.0179 15.0003 57.9996C14.3115 57.9917 13.6855 57.9519 13.0003 57.9996C12.4541 58.0379 11.9604 58.4689 12.0003 57.9996C12.0178 57.7913 12.0094 57.2098 12.0003 56.9996C11.7608 57.0109 12.0038 56.8522 12.0003 56.9996C11.9871 57.5299 11.4337 58.0085 11.0003 57.9996C10.6808 57.9929 10.2915 57.8182 10.0003 57.9996C9.80385 58.1852 9.23251 57.9992 9.00026 57.9996C7.49358 58.0023 6.50693 57.9949 5.00026 57.9996C4.78832 58.0003 4.20462 57.8995 4.00026 57.9996V57.9996C3.55885 58.7706 4.30787 59.8006 5.00026 59.9996Z" fill="#E34E0C"/>
<path d="M19.9999 58.0004C19.9932 60.7481 20.0067 63.2523 19.9999 66.0004C19.5162 66.1563 18.4935 66.0718 17.9999 66.0004C17.6973 65.9565 18.0192 66.3286 17.9999 66.0004C17.9464 65.1003 17.8655 64.9222 16.9999 65.0004C16.8494 65.014 16.098 65.0698 15.9999 65.0004C15.8788 64.9151 16.1931 64.8273 15.9999 65.0004C15.852 65.4538 15.9415 65.5849 15.9999 66.0004C16.0784 66.5603 15.9992 66.4672 15.9999 67.0004C16.0018 68.1593 16.0132 69.8415 15.9999 71.0004C15.9943 71.5021 16.2595 71.4756 15.9999 72.0004C15.9045 72.1934 15.8045 72.9342 15.9999 73.0004C16.4384 73.1491 17.5596 73.0762 17.9999 73.0004C18.2294 72.9609 18.0064 72.2496 17.9999 72.0004C17.9898 71.6144 18.0045 71.3864 17.9999 71.0004C17.7437 70.7129 17.3188 71.0036 16.9999 71.0004C16.6087 70.9968 16.9973 70.4044 16.9999 70.0004C17.0037 69.4409 17.0067 69.5599 16.9999 69.0004C16.9943 68.5474 16.5928 67.9896 16.9999 68.0004C17.2943 68.0084 17.7358 68.2604 17.9999 68.0004C18.0399 68.0004 17.9599 67.9964 17.9999 68.0004V68.0004C18.5142 67.8201 19.4875 68.2062 19.9999 68.0004C20.1188 67.8365 19.9996 67.197 19.9999 67.0004C20.0041 64.0813 19.9947 60.9195 19.9999 58.0004C19.9996 57.8317 20.1475 58.1304 19.9999 58.0004Z" fill="#A11F32"/>
<path d="M10.0002 60.0003C8.67743 60.0049 7.32294 59.9958 6.00018 60.0003C6.24947 60.9583 6.00833 62.0315 6.00018 63.0003C5.99463 63.6971 6.40492 64.0657 7.00018 64.0003C7.31948 63.9654 7.69829 63.701 8.00018 64.0003C8.0313 64.004 7.96981 63.9917 8.00018 64.0003C8.02722 63.979 7.97277 64.0212 8.00018 64.0003C8.19502 63.6842 8.00648 63.3569 8.00018 63.0003C7.99203 62.5139 8.58865 61.9808 9.00018 62.0003C9.29392 62.014 9.71052 62.1057 10.0002 62.0003C10.0995 61.9663 9.9298 62.088 10.0002 62.0003C9.61828 61.3195 9.98389 60.6408 10.0002 60.0003Z" fill="#A11F32"/>
<path d="M9.99972 61.0005C9.92095 61.0021 10.0785 60.9989 9.99972 61.0005C9.74192 61.2759 10.0005 61.6565 9.99972 62.0005C9.99482 63.5539 10.0084 65.447 9.99972 67.0005C9.99821 67.2515 9.29069 66.8655 8.99972 67.0005C8.61264 67.1798 9.01103 67.5029 8.99972 67.0005C8.97824 66.0299 9.00387 64.9714 8.99972 64.0005C8.99859 63.7634 8.0702 63.2287 7.99972 63.0005C7.93678 62.7963 8.28843 62.9044 7.99972 63.0005C7.99972 63.0005 8.0001 63.0005 7.99972 63.0005C8.00914 65.4412 7.98879 67.5602 7.99972 70.0005C8.00311 70.7736 8.26023 70.9957 8.99972 71.0005C10.034 71.0069 9.99934 70.8064 9.99972 70.0005C10.0012 66.9552 10.0039 64.0453 9.99972 61.0005Z" fill="#A12133"/>
<path d="M18.0002 68.0002C17.5341 67.9514 17.4781 67.99 17.0002 68.0002C16.5746 68.0093 15.9958 67.6832 16.0002 68.0002C16.009 68.6357 16.0129 69.3646 16.0002 70.0002C15.9936 70.3425 16.5398 71.0161 17.0002 71.0002C17.4482 70.9846 17.5513 71.0015 18.0002 71.0002C18.0063 70.085 17.994 68.9154 18.0002 68.0002Z" fill="#E34E0C"/>
<path d="M16.0003 65.0001C16.0789 65.0312 15.9919 64.9566 16.0003 65.0001C16.1298 65.6754 16.5041 65.3434 17.0003 65.0001C17.3412 64.7644 17.9409 65.7272 18.0003 66.0001C18.255 67.1693 17.7252 67.1601 19.0003 67.0001C19.1864 66.9768 19.8346 66.9563 20.0003 67.0001C20.2762 67.0731 19.9782 67.1244 20.0003 67.0001C19.827 67.0009 19.1731 67.0009 19.0003 67.0001C17.8263 66.9951 18.1114 67.1158 18.0003 66.0001C17.9493 65.4891 17.4166 64.9683 17.0003 65.0001C16.0156 65.0755 16.0019 64.9305 16.0003 64.0001C15.9995 63.519 15.9313 63.4719 16.0003 63.0001C16.1158 62.2084 15.9782 60.7713 16.0003 60.0001C16.0063 59.7877 16.194 60.0025 16.0003 60.0001C15.6325 59.9963 15.3669 59.9823 15.0003 60.0001C14.4877 60.025 14.0135 60.691 14.0003 61.0001C13.9654 61.8358 14.0095 62.1633 14.0003 63.0001C14.0352 63.0405 13.9598 63.0355 14.0003 63.0001C14.0151 62.4616 13.9854 62.5387 14.0003 62.0001C14.6103 61.9322 15.4291 61.4557 16.0003 62.0001C16.0095 63.0509 15.9915 63.9509 16.0003 65.0001Z" fill="#A12134"/>
<path d="M14.0002 63C13.9637 62.9992 14.0367 63.0043 14.0002 63C12.2547 63.0356 12.0208 63.7777 12.0002 62C11.9944 61.4937 12.2969 60.4841 12.0002 60C12.0072 61.4409 12.0049 62.5591 12.0002 64C11.999 64.377 12.5776 64.9746 13.0002 65C14.2411 65.0742 13.8522 65.1854 14.0002 64C14.0235 63.8144 13.9785 63.186 14.0002 63Z" fill="#A01F31"/>
<path d="M13 68C14.0139 68 13.9992 67.9751 14 67C14.0004 65.9848 13.9529 66.0009 13 66C12.4861 65.9995 11.9947 66.0895 12 67C12.0065 68.1637 12.0045 68 13 68Z" fill="#A01E31"/>
<path d="M10.9996 59.9999C10.1312 59.8265 10.032 60.2878 9.99963 60.9999C9.95736 61.9376 10.3426 61.95 10.9996 61.9999C11.9257 62.0702 11.9534 61.5474 11.9996 60.9999C12.0638 60.2394 11.6969 59.8128 10.9996 59.9999Z" fill="#602200"/>
<path d="M16 62.0001C15.8427 61.4897 15.6058 60.3224 15 61.0001C14.8382 61.1813 15.1826 61.0428 15 61.0001C14.7501 60.9418 14.0594 61.5228 14 62.0001C14.6683 62.0092 15.3481 61.6586 16 62.0001Z" fill="#A11F32"/>
<path d="M0.999519 63.0002C0.999519 61.429 0.99828 60.5714 0.999519 59.0002C0.999767 58.6218 1.34765 58.0154 0.999519 58.0002C0.697974 57.9871 0.0332165 58.5528 -0.000481132 59.0002C-0.0941408 60.2436 -0.0369043 60.7548 -0.000481143 62.0002C0.0550209 63.91 0.0173588 66.0861 -0.000481165 68.0002C-0.00494115 68.4748 0.607536 68.9751 0.999519 69.0002C1.31791 69.0206 1.00175 68.4349 0.999519 68.0002C0.991838 66.386 0.999271 64.6145 0.999519 63.0002Z" fill="#060304"/>
<path d="M6.00011 48.9997C6.00418 49.8288 6.05016 51.1739 6.00011 51.9997C5.96022 52.6553 6.2981 53.035 7.00011 52.9997C8.12169 52.9431 7.9704 52.8822 8.00011 53.9997C8.01191 54.4448 8.61349 54.9681 9.00011 54.9997C9.40503 55.0325 9.61471 54.753 10.0001 54.9997C10.0884 55.0159 9.91139 54.9834 10.0001 54.9997C10.6793 55.1349 11.3526 55.3812 12.0001 54.9997C12.4176 54.9909 12.5862 54.966 13.0001 54.9997C13.5108 55.0413 14.066 54.4889 14.0001 53.9997C13.9822 53.8674 14.0152 54.1328 14.0001 53.9997C13.9452 53.5138 14.5004 53.0034 15.0001 52.9997C16.3687 52.9893 15.9993 52.4083 16.0001 50.9997C16.0005 50.5504 15.9724 50.4469 16.0001 49.9997C16.0286 49.5396 15.4685 49.003 15.0001 48.9997C14.5769 48.9968 14.4067 49.2522 14.0001 48.9997V48.9997C13.9623 49.0013 14.0375 49.0067 14.0001 48.9997C13.9777 49.0217 14.0229 48.9776 14.0001 48.9997C13.9899 49.4927 14.7295 50.0047 15.0001 49.9997C15.6846 49.988 15.8666 50.5691 16.0001 50.9997C16.1531 51.4931 15.5393 51.6228 15.0001 51.9997C14.5309 52.3275 14.0831 52.5846 14.0001 51.9997C13.972 51.8004 14.1226 51.1698 14.0001 50.9997C13.9065 50.8699 14.1145 50.8536 14.0001 50.9997C13.926 51.1157 14.02 51.8661 14.0001 51.9997C13.8683 52.8796 13.906 53.0001 13.0001 52.9997C11.5782 52.9988 9.42162 52.9872 8.00011 52.9997C7.80232 52.9847 8.00051 52.2306 8.00011 51.9997C7.99766 51.2159 7.97813 50.7835 8.00011 49.9997C8.00499 49.8258 7.94069 49.1436 8.00011 48.9997C8.01923 48.921 8.04813 49.0637 8.00011 48.9997C7.90366 48.9227 8.1165 48.998 8.00011 48.9997C7.56832 48.9909 7.43026 48.9685 7.00011 48.9997C6.76692 49.0176 6.13237 48.7434 6.00011 48.9997Z" fill="#EC8417"/>
<path d="M6.00037 57.0003C6.94044 57 8.0611 57.0218 9.00037 57.0003C9.51684 56.9886 10.0956 56.6728 10.0004 56.0003C9.93636 55.5486 9.49471 54.9482 9.00037 55.0003C8.72061 55.03 8.95849 54.6996 9.00037 55.0003C9.0802 55.5721 8.68043 55.9946 8.00037 56.0003C6.57269 56.0125 5.42411 56.1371 4.00037 56.0003C3.7949 55.9807 3.14381 55.8043 3.00037 56.0003C2.77949 56.3021 3.53647 56.9939 4.00037 57.0003C4.93965 57.0143 5.06031 57.0011 6.00037 57.0003Z" fill="#060304"/>
<path d="M11.9996 55C11.383 55.0117 10.5981 54.7371 9.99955 55C9.99693 55.7955 10.0022 57.2046 9.99955 58C9.91532 58.1127 9.86553 57.9157 9.99955 58C10.3398 58.0014 10.6634 57.9671 10.9996 58C11.5383 58.0527 12.0621 57.4626 11.9996 57C11.9812 56.8651 11.9812 57.138 11.9996 57C12.0213 56.4089 11.9782 55.5919 11.9996 55Z" fill="#DE9E58"/>
<path d="M10 58.9996C9.98285 58.8033 10.0172 58.1953 10 57.9996C9.8166 57.9486 10.0484 57.8223 10 57.9996C9.81699 58.3648 9.22344 58.9977 9.00004 58.9996C7.5453 59.0127 6.45477 58.9911 5.00004 58.9996C4.77063 59.0009 4.20546 58.7254 4.00004 58.9996C5.81326 59.0062 7.18681 58.9931 9.00004 58.9996C9.19507 59.0003 9.83858 59.2293 10 58.9996Z" fill="#A01F30"/>
<path d="M19.9997 67.9998C19.3405 68.0886 18.6379 67.7012 17.9997 67.9998C18.6651 67.9954 19.3343 68.0047 19.9997 67.9998C20.0016 67.9569 20.0059 68.0428 19.9997 67.9998Z" fill="#681415"/>
<path d="M8 49.9995C8.07957 50.0035 7.92043 49.9955 8 49.9995C8.38701 50.2988 9.57923 50.0485 10 49.9995C10.3211 49.9618 9.97388 49.3104 10 48.9995C10.0253 48.6974 9.99558 48.3 10 47.9995C9.98875 47.4499 10.1632 47.5796 10 46.9995C9.97267 46.9028 10.8835 46.9638 11 46.9995C11.5373 47.164 11.4739 46.7492 12 46.9995C12.5819 47.0553 13.4281 47.2226 14 46.9995C13.949 46.624 13.207 46.0308 13 45.9995C12.6054 45.9401 12.3721 46.2523 12 45.9995C11.7786 45.198 11.994 44.8079 12 43.9995C12.0044 43.4038 11.6575 42.9694 11 42.9995C9.8438 43.0525 10 42.8457 10 43.9995C10 44.5387 10.0133 45.4603 10 45.9995C9.99598 46.168 10.3203 45.9763 10 45.9995C9.98312 46.016 10.0169 45.9831 10 45.9995C9.66483 46.2097 9.35365 45.9983 9 45.9995C8.49805 46.0007 7.98071 46.4519 8 46.9995C8.02612 47.7453 8.01407 48.2521 8 48.9995C7.92605 49.1114 7.89591 49.9153 8 49.9995Z" fill="#E15518"/>
<path d="M7.99998 49.9999C7.98765 49.8921 8.01231 49.1087 7.99998 48.9999C7.83433 48.1873 8.04646 47.8192 7.99998 46.9999C7.98449 46.7254 8.1767 46.2298 7.99998 45.9999C7.62821 45.9111 6.37145 45.9093 5.99998 45.9999C5.92759 46.0525 6.07238 45.9469 5.99998 45.9999C5.72716 46.8462 5.94814 48.1338 5.99998 48.9999C6.01421 49.2356 6.06448 49.766 5.99998 49.9999C5.96141 50.0539 6.03855 49.946 5.99998 49.9999C5.97691 50.0344 5.99398 49.9632 5.99998 49.9999C6.00599 50.0371 5.99271 49.9999 5.99998 49.9999C6.04266 50.0322 5.96521 50.049 5.99998 49.9999C6.03381 50.0123 5.96616 49.9871 5.99998 49.9999C6.50707 49.7775 7.49448 50.2515 7.99998 49.9999Z" fill="#231006"/>
<path d="M5.99975 49.0004C5.95095 48.998 6.04814 49.0028 5.99975 49.0004C5.47599 48.9119 4.52431 48.9241 3.99975 49.0004C3.71225 49.6713 4.05993 50.319 3.99975 51.0004C3.97901 51.2344 3.99812 51.7646 3.99975 52.0004C4.60808 52.1072 5.38897 52.0445 5.99975 52.0004C6.00463 51.0799 5.99446 49.9209 5.99975 49.0004Z" fill="#080707"/>
<path d="M12 45.9995C12.4678 45.9377 13.5763 46.4014 14 45.9995C14.3391 45.2685 14.3249 43.7321 14 42.9995C13.6109 42.6009 12.4357 42.9905 12 42.9995C11.8423 43.0028 11.9988 42.8643 12 42.9995C12.0054 43.7321 11.9912 45.2669 12 45.9995Z" fill="#0A0404"/>
<path d="M15.9999 48.9997C15.9995 49.786 16.0213 51.2136 15.9999 51.9997C15.9911 52.3242 16.5453 52.0282 16.9999 51.9997C17.1989 51.987 16.8028 51.9811 16.9999 51.9997C17.5991 52.0564 18.025 51.422 17.9999 50.9997C17.9576 50.2859 18.0009 49.7143 17.9999 48.9997V48.9997C17.4091 48.853 16.5917 49.1347 15.9999 48.9997C15.9516 49 16.0487 49.0013 15.9999 48.9997Z" fill="#060505"/>
<path d="M7.99964 43.0004C7.73102 43.0381 8.00004 43.8336 7.99964 44.0004C7.99843 44.6214 8.01658 45.3796 7.99964 46.0004C7.99117 46.3148 8.64471 46.0102 8.99964 46.0004C9.43282 45.9888 9.56606 45.9943 9.99964 46.0004C10.0267 45.9956 9.99319 46.0235 9.99964 46.0004C9.99399 45.2764 9.96818 44.723 9.99964 44.0004C10.0178 43.5766 9.51994 42.9358 8.99964 43.0004C8.68867 43.0391 8.2856 42.8058 7.99964 43.0004C8.09321 43.0788 8.86896 42.9698 8.99964 43.0004C9.77645 43.1817 9.95285 43.3202 9.99964 44.0004C10.0162 44.2374 10.0392 44.765 9.99964 45.0004C9.94842 45.305 9.34973 46.0187 8.99964 46.0004C8.63584 45.981 9.01335 45.1817 8.99964 45.0004C8.97221 44.6364 9.01013 44.3651 8.99964 44.0004C8.99319 43.763 8.2368 43.179 7.99964 43.0004Z" fill="#231006"/>
<path d="M6.00006 46.0002C6.00006 46.8278 6.00006 47.1725 6.00006 48.0002C6.00448 48.1721 5.99563 48.8283 6.00006 49.0002C6.24631 48.0079 5.95217 46.9997 6.00006 46.0002C5.95982 46.0002 6.0407 45.9998 6.00006 46.0002Z" fill="#24313B"/>
<path d="M5.99954 53.0004C5.33911 52.9919 4.65997 53.0085 3.99954 53.0004C3.99602 53.0458 4.00307 52.955 3.99954 53.0004C4.66482 52.9984 5.33427 53.0024 5.99954 53.0004C6.0013 52.9652 6.00395 53.0348 5.99954 53.0004Z" fill="#24313B"/>
<path d="M18.0002 49.0002C17.9468 49.0026 17.0536 49.0034 17.0002 49.0002C16.5665 49.0051 16.434 48.9949 16.0002 49.0002C16.6281 49.2453 17.3543 48.9431 18.0002 49.0002C17.8809 48.86 18.1759 49.012 18.0002 49.0002Z" fill="#4F2E1F"/>
<path d="M4.00011 48.9998C4.66425 49.0015 5.33596 48.9982 6.00011 48.9998C6.00268 48.9597 5.99856 49.0395 6.00011 48.9998C5.33442 49.048 4.64673 48.7515 4.00011 48.9998Z" fill="#24313B"/>
<path d="M12.0005 41C12.0073 41.667 11.9936 42.3335 12.0005 43C12.1663 42.3298 12.2073 41.6628 12.0005 41Z" fill="#24313B"/>
<path d="M7 45.9998C7.33343 45.9998 7.66686 45.9998 8 45.9998C7.66657 45.82 7.33314 45.8208 7 45.9998Z" fill="#24313B"/>
<path d="M13.9998 49.0003C14.4451 48.9972 14.5554 48.9814 14.9998 49.0003C15.4136 49.0183 16.011 49.3366 15.9998 49.0003C15.9791 48.3784 15.9862 47.6226 15.9998 47.0003C16.0077 46.6377 15.4232 45.9982 14.9998 46.0003C13.4273 46.0088 14.0285 45.8879 13.9998 47.0003C13.9841 47.6036 14.0023 48.397 13.9998 49.0003C13.9998 49.0003 13.9998 49.0003 13.9998 49.0003Z" fill="#060405"/>
<path d="M13.9995 46C13.4597 45.797 12.5518 46.0397 11.9995 46C11.7547 46.1889 11.9819 46.7714 11.9995 47C12.0424 47.5568 12.0058 48.4383 11.9995 49C11.9973 49.1912 12.7694 48.9829 12.9995 49C13.4624 49.0344 13.5832 49.2912 13.9995 49V49C13.9911 48.1917 14.0079 46.8083 13.9995 46Z" fill="#E95719"/>
<path d="M14.9996 53.0002C14.0184 52.9998 14.0387 53.6175 13.9996 54.0002C13.9731 54.2586 14.4665 54.0317 14.9996 54.0002C15.0686 53.9961 14.9297 54.0002 14.9996 54.0002C16.0104 54.0004 15.9384 53.3663 15.9996 53.0002C16.0665 52.6046 15.4837 53.0084 14.9996 53.0002Z" fill="#0A0606"/>
<path d="M3.99993 60C3.71373 59.8534 3.97962 59.3529 3.99993 59C4.01492 58.7386 4.00336 58.2635 3.99993 58C2.55519 57.9289 2.01492 58.1685 1.99993 60C1.97493 63.0614 1.99493 65.9382 1.99993 69C2.00055 69.2982 1.74341 69.9175 1.99993 70C2.38486 70.1238 3.61749 70.1908 3.99993 70C4.16708 69.9167 3.99993 69.2124 3.99993 69C4.00274 66.0926 3.99774 62.9075 3.99993 60C4.00024 59.6843 3.63593 60.0956 3.99993 60Z" fill="#A01F30"/>
<path d="M7.99969 62.9996C8.33578 63.1195 7.99839 63.7682 7.99969 63.9996C8.00711 65.2482 8.04596 65.7527 7.99969 66.9996C7.97394 67.6931 8.55099 67.9967 8.99969 67.9996C9.45669 68.0025 10.0132 67.6832 9.99969 66.9996C9.95954 64.9269 10.0041 63.0732 9.99969 60.9996C9.50953 60.9963 9.48986 61.0104 8.99969 60.9996C8.64789 60.9918 7.98704 60.6595 7.99969 60.9996C8.01715 61.4629 7.99402 62.5363 7.99969 62.9996Z" fill="#E34E0C"/>
<path d="M7.99989 53.0003C9.71107 53.0082 11.2891 52.9809 12.9999 53.0003C13.411 53.0052 14.0304 52.4076 13.9999 52.0003C13.9758 51.6796 13.9974 51.323 13.9999 51.0003C13.8178 50.7743 13.259 51.0183 12.9999 51.0003C12.1512 50.942 12.0716 50.7471 11.9999 50.0003C11.9824 49.8188 12.1144 50.1583 11.9999 50.0003C11.788 49.5006 12.1022 48.5075 11.9999 48.0003C11.9734 47.9307 12.0651 48.0426 11.9999 48.0003C11.4311 47.8095 10.5764 47.8645 9.99989 48.0003C9.929 48.0307 10.0447 47.9416 9.99989 48.0003C9.89192 48.3069 9.99744 48.6889 9.99989 49.0003C10.0019 49.2597 10.2468 49.8645 9.99989 50.0003C9.82877 50.0516 9.17467 49.9981 8.99989 50.0003C7.93488 50.0146 8.00111 50.0515 7.99989 51.0003C7.99948 51.4828 8.00437 51.5179 7.99989 52.0003C7.99704 52.2261 7.81451 52.8263 7.99989 53.0003Z" fill="#FDEB43"/>
<path d="M11.9997 50C11.9565 51.6903 12.4312 50.9656 13.9997 51C14.082 51.0016 13.9175 50.9933 13.9997 51C14.1547 51.2439 13.9932 51.737 13.9997 52C14.0154 52.657 14.4201 53.1854 14.9997 53C15.3593 52.8851 15.9978 52.3675 15.9997 52C16.0028 51.4616 16.6206 50.4397 15.9997 50C15.9657 49.9759 15.9978 50.0145 15.9997 50C16.1593 48.8979 14.3295 50.1696 13.9997 50C13.8582 49.927 14.0533 50.2211 13.9997 50C13.6925 49.9933 13.2974 49.9456 12.9997 50C12.375 50.1141 11.9481 49.6135 11.9997 49C12.0686 48.1841 11.9083 46.8238 11.9997 46C11.4836 45.6594 10.5426 46.1626 9.99973 46C9.87539 45.9627 9.93813 45.8332 9.99973 46C10.1998 46.5396 10.0602 47.5159 9.99973 48C10.0831 48.0796 9.91288 48.073 9.99973 48V48C10.3628 47.7992 11.077 47.5338 10.9997 47C10.9519 46.6702 10.7893 46.9921 10.9997 47C11.2247 47.0083 12.0716 46.7353 11.9997 47C11.8742 47.4629 11.6673 47.8088 11.9997 48V48C12.1795 48.5732 11.8348 49.4263 11.9997 50Z" fill="#EE8415"/>
<path d="M6.00005 52.0001C6.00005 52.2066 5.96464 51.7988 6.00005 52.0001C6.04741 52.2684 5.45224 52.9299 6.00005 53.0001C6.54914 53.0702 7.92453 52.4052 8.00005 52.0001C8.12762 51.3136 7.74839 50.6156 7.00005 50.0001C6.68348 49.7394 6.32003 49.938 6.00005 50.0001C5.66129 50.0656 6.01242 50.7892 6.00005 51.0001C5.98341 51.2883 6.00005 51.711 6.00005 52.0001Z" fill="#ED8414"/>
<path d="M8 51.9996C8.00078 51.2777 8.03062 50.72 8 49.9996C7.98217 49.58 8.5419 48.982 9 48.9996C9.29455 49.0109 9.73529 49.2287 10 48.9996C9.50314 48.9278 8.49802 48.9602 8 48.9996C7.73917 49.0603 7.99767 49.7615 8 49.9996C8.00659 50.6493 7.99884 51.3498 8 51.9996C8.00039 52.2194 7.68297 51.9882 8 51.9996Z" fill="#FCC937"/>
<path d="M7.99995 49.9997C8.51412 50.0054 9.48579 49.994 9.99995 49.9997C10.4012 49.754 9.97953 49.3805 9.99995 48.9997C10.0164 48.6982 9.99675 48.3022 9.99995 47.9997C9.91105 47.9973 10.0892 48.0021 9.99995 47.9997C9.97192 49.7789 9.53003 49.9134 7.99995 49.9997C7.99955 50.035 8.00035 49.9639 7.99995 49.9997Z" fill="#ED8515"/>
<path d="M8.99982 43.0004C9.00074 43.714 8.98788 44.2872 8.99982 45.0004C9.00442 45.284 8.71854 45.9369 8.99982 46.0004C9.2896 46.0658 9.97296 45.4297 9.99982 45.0004C10.0407 44.3506 10.0719 43.6408 9.99982 43.0004C9.97548 42.783 10.1032 43.0027 9.99982 43.0004C9.82738 42.9965 9.17227 43.0027 8.99982 43.0004C8.99959 43 8.99982 43.0004 8.99982 43.0004Z" fill="#0C0505"/>
<path d="M11.9999 47.0001C11.8026 46.7784 11.6141 46.2894 11.9999 46.0001C12.0985 45.926 12.1959 46.0262 11.9999 46.0001C11.6682 45.9558 11.3341 45.9608 10.9999 46.0001C10.8422 46.0186 9.91792 45.9281 9.99991 46.0001C10.3953 46.3461 10.2459 46.7683 9.99991 47.0001C10.6271 46.9991 11.3727 47.0009 11.9999 47.0001Z" fill="#ED8515"/>
<path d="M11.9998 50C11.9411 49.3348 12.2823 48.6454 11.9998 48C12.0928 48.6624 11.7608 49.3509 11.9998 50Z" fill="#ED8515"/>
</g>
<path d="M54.0007 63.0001C54.002 62.2651 53.8595 61.2895 54.0007 60.0001C54.1725 58.4302 53.9967 57.5742 54.0007 56.0001C54.0011 55.8026 54.1306 55.1537 54.0007 55.0001C53.9356 54.9386 54.0721 54.948 54.0007 55.0001C53.8124 55.227 52.997 55.7191 53.0007 56.0001C53.0117 56.799 52.9176 57.2037 53.0007 58.0001C53.0106 58.2409 53.0048 58.7586 53.0007 59.0001C52.9871 59.7472 52.6007 60.3464 52.0007 60.0001C51.8892 59.9358 52.0077 59.1504 52.0007 59.0001C51.9139 57.0656 51.5629 54.9269 52.0007 53.0001C52.1026 52.5512 52.242 52.4165 52.0007 52.0001C51.8569 51.752 52.0235 51.2576 52.0007 51.0001C51.9518 49.921 52.1905 49.0743 52.0007 48.0001C51.4463 47.4738 50.6092 47.8567 50.0007 48.0001C49.695 48.533 50.0743 49.4392 50.0007 50.0001C49.9742 50.304 49.9882 50.6909 50.0007 51.0001C50.0217 51.5252 49.4392 51.0209 49.0007 51.0001C48.418 50.9728 48.0644 50.6258 48.0007 50.0001C47.8701 48.7153 48.0419 48.2841 48.0007 47.0001C47.9956 46.8429 48.1122 46.1097 48.0007 46.0001C47.5052 45.7288 47.5106 45.8376 47.0007 46.0001C46.5096 46.5305 45.7436 47.2738 46.0007 48.0001C46.0596 50.2638 46.085 52.7372 46.0007 55.0001C45.9735 55.726 46.0268 56.275 46.0007 57.0001C45.9786 57.6152 45.5816 57.9851 45.0007 58.0001C44.5214 58.0124 44.9996 57.5354 45.0007 57.0001C45.0048 54.868 44.9683 53.1331 45.0007 51.0001C45.0051 50.7003 44.2064 50.2649 44.0007 50.0001C43.9304 49.9411 44.0673 49.9366 44.0007 50.0001C43.8032 50.2572 44.0014 50.693 44.0007 51.0001C43.9974 53.2634 43.8981 55.7421 44.0007 58.0001C44.1964 62.3047 43.9349 66.6968 44.0007 71.0001C44.0033 71.1757 43.9812 70.8254 44.0007 71.0001C44.0669 71.5965 44.457 71.9838 45.0007 72.0001C45.8148 72.0242 46.1862 72.0001 47.0007 72.0001C48.6893 72.0005 51.3121 72.0087 53.0007 72.0001C53.9234 71.9952 54.1449 71.9925 54.0007 71.0001C53.7116 69.0106 54.0379 66.9913 54.0007 65.0001C53.9725 63.4626 53.9987 64.1017 54.0007 63.0001Z" fill="#852A0D"/>
<path d="M38.0003 74.0003C43.2848 74.0967 49.7161 74.2276 55.0003 74.0003C55.2819 73.8745 55.001 73.3115 55.0003 73.0003C54.9953 70.2699 54.9999 67.7307 55.0003 65.0003C55.0003 64.6511 55.4194 64.0211 55.0003 64.0003C54.6056 63.9807 54.1407 64.4614 54.0003 65.0003C53.9197 65.3092 52.9999 65.6793 53.0003 66.0003C53.0037 67.884 53.0056 69.1166 53.0003 71.0003C52.998 71.8379 52.8114 72.9964 52.0003 73.0003C49.359 73.0121 46.6381 72.0987 44.0003 72.0003C42.8288 71.9568 42.172 72.0352 41.0003 72.0003C40.2701 71.9787 40.0018 71.765 40.0003 71.0003C39.9942 68.0583 40.0003 64.9423 40.0003 62.0003C40.0003 61.8521 40.0037 62.1485 40.0003 62.0003C39.9854 61.3881 39.4705 61.0121 39.0003 61.0003C38.509 60.9881 38.0006 61.3473 38.0003 62.0003C37.9972 65.4926 37.9938 69.5076 38.0003 73.0003C38.0003 73.4624 37.4716 73.6609 38.0003 74.0003Z" fill="#030304"/>
<path d="M38.0001 74.0001C37.7435 73.5181 37.9997 72.506 38.0001 72.0001C38.0028 68.5091 38.0047 65.491 38.0001 62.0001C37.9997 61.592 38.4557 61.0088 39.0001 61.0001C39.5586 60.9909 40.0005 61.5529 40.0001 62.0001C39.9962 65.1029 39.9985 67.8972 40.0001 71.0001C40.0005 72.0342 40.0136 72.9589 41.0001 73.0001C44.731 73.1558 48.268 72.9965 52.0001 73.0001C52.2267 73.0005 52.7811 73.0512 53.0001 73.0001C53.5252 72.8783 54.0074 72.6158 54.0001 72.0001C53.977 70.018 53.0035 67.9825 53.0001 66.0001C52.9997 65.6966 53.9551 65.2975 54.0001 65.0001C54.0746 64.5069 53.652 63.9817 54.0001 64.0001C54.3723 64.02 55.0005 64.6946 55.0001 65.0001C54.9985 67.7583 54.9908 70.2418 55.0001 73.0001C55.0008 73.2832 54.138 73.7848 54.0001 74.0001C54.3189 74.0328 55.0008 74.3918 55.0001 74.0001C54.9916 70.9874 55.0005 67.0127 55.0001 64.0001C55.0001 63.8675 55.0988 64.0959 55.0001 64.0001C54.5007 64.0029 53.4995 63.9973 53.0001 64.0001C52.642 64.2432 52.9993 64.6387 53.0001 65.0001C53.0043 67.0448 52.8514 68.9561 53.0001 71.0001C53.0608 71.8326 52.8076 71.9989 52.0001 72.0001C49.3636 72.0041 46.6269 72.1638 44.0001 72.0001C42.8342 71.9274 42.1717 72.0508 41.0001 72.0001C40.5122 71.9789 39.9997 71.4505 40.0001 71.0001C40.0008 69.9439 40.0005 69.0562 40.0001 68.0001C39.9989 65.931 40.0031 64.0692 40.0001 62.0001C39.9997 61.6347 40.2283 61.3171 40.0001 61.0001C39.7023 60.6663 39.3593 60.9957 39.0001 61.0001C38.5894 61.0052 38.1303 60.4289 38.0001 60.0001C37.8783 59.5988 37.6009 59.2085 38.0001 59.0001C38.365 58.8683 38.6301 59.0404 39.0001 59.0001C39.5045 58.945 40.0051 58.6836 40.0001 58.0001C39.9958 57.4774 39.5198 57.0384 39.0001 57.0001C38.6689 56.9757 38.3324 57.0256 38.0001 57.0001C37.6509 56.9729 37.9997 57.3854 38.0001 57.0001C38.0043 53.6157 37.9866 49.3844 38.0001 46.0001C38.0024 45.3808 38.3032 46.0037 39.0001 46.0001C40.8686 45.9909 42.1315 46.0037 44.0001 46.0001C44.2893 45.9997 44.715 45.0895 45.0001 45.0001C45.186 44.9046 45.8933 45.1809 46.0001 45.0001C46.1687 44.0597 46.2943 42.9324 46.0001 42.0001C45.9209 41.9018 45.1184 42.0276 45.0001 42.0001C44.6082 41.9813 44.3923 41.9897 44.0001 42.0001C43.3946 42.016 43.0331 42.358 43.0001 43.0001C42.9732 43.5259 43.4987 44.0308 43.0001 44.0001C42.7177 43.9825 42.216 43.7357 42.0001 44.0001C40.941 44.0033 40.0584 44.0248 39.0001 44.0001C38.4914 43.9881 37.9905 43.459 38.0001 44.0001C38.0154 44.8689 37.8686 44.9913 37.0001 45.0001C36.0043 45.01 36.0005 44.9871 36.0001 46.0001C35.9997 49.277 35.9997 52.7231 36.0001 56.0001C36.0001 56.9156 36.0923 56.9969 37.0001 57.0001C37.1038 57.0005 36.8963 56.9989 37.0001 57.0001C37.4388 57.0044 37.9624 57.5481 38.0001 58.0001C38.0369 58.4453 37.5121 58.9406 37.0001 59.0001C36.6255 59.6625 36.5406 60.5189 37.0001 61.0001C37.5056 61.0907 38.0005 60.5976 38.0001 61.0001C37.9981 64.9107 38.0001 69.0894 38.0001 73.0001C38.0008 73.3638 37.4269 74.0691 38.0001 74.0001Z" fill="#100505"/>
<path d="M53.0005 54.9996C52.9819 56.9477 53.1873 62.0519 53.0005 63.9996C52.9175 64.8638 53.1495 65.0016 54.0005 64.9996C54.5446 64.9982 55.0005 64.9996 55.0005 64.9996C55.0005 64.9996 54.9344 65.5593 55.0005 60.9996C54.9993 59.5266 54.9953 57.4726 55.0005 55.9996C55.0036 55.0441 55.0887 55.002 56.0005 54.9996C57.0339 54.9972 57.0005 55.0863 57.0005 53.9996C56.9997 51.3172 57.0016 48.682 57.0005 45.9996C57.0001 44.873 57.1043 44.9968 56.0005 44.9996C55.7247 45.0004 55.2466 44.8199 55.0005 44.9996C54.7532 45.1895 55.0013 45.7441 55.0005 45.9996C54.9945 47.8658 54.9396 50.1358 55.0005 51.9996C55.0297 52.896 55.0419 53.106 55.0005 53.9996C54.987 54.2905 55.2185 54.7836 55.0005 54.9996C54.5742 55.3553 53.4413 54.7319 53.0005 54.9996C52.9772 55.0281 53.0226 54.9703 53.0005 54.9996Z" fill="#070405"/>
<path d="M51.0003 43C50.3123 42.9492 49.6755 43.302 49.0003 43C49.2942 42.6271 49.1346 42.428 49.0003 42C48.6868 41.4875 47.467 40.6731 47.0003 41C46.8399 41.1125 47.0079 41.8061 47.0003 42C46.9658 42.8709 46.9722 43.1291 47.0003 44C47.0131 44.3965 47.6435 44.9956 48.0003 45C50.2896 45.0271 52.711 45.0232 55.0003 45C55.1559 44.9982 54.8921 45.1317 55.0003 45C54.9899 43.0166 54.7989 43.0227 53.0003 43C52.2678 42.9908 51.7328 43.0039 51.0003 43Z" fill="#0F0505"/>
<path d="M47.0002 28C46.4568 28 45.544 28 45.0002 28C44.7599 28.6412 45.0816 29.339 45.0002 30C45.598 29.9932 46.402 30.0068 47.0002 30C47.0592 29.3401 47.1067 28.6573 47.0002 28Z" fill="#0D0607"/>
<path d="M40.9998 40.0003C41.0011 40.05 40.9986 39.9507 40.9998 40.0003C41.166 40.57 40.9332 40.982 41.9998 41.0003C42.5257 41.0094 43.077 41.2741 42.9998 41.0003C42.9589 40.8555 43.126 40.1419 42.9998 40.0003V40.0003C42.4697 39.9235 41.5347 40.0124 40.9998 40.0003C40.8707 39.9973 40.976 39.9198 40.9998 40.0003Z" fill="#0E0806"/>
<path d="M44.0001 39.9996C43.9989 40.0659 44.0005 39.9333 44.0001 39.9996C43.9967 40.6268 43.9518 41.0535 43.0001 40.9996C42.3712 40.964 42.259 40.1549 42.0001 39.9996C41.9986 40.1193 42.01 40.8804 42.0001 40.9996C41.9837 41.2001 41.6826 41.004 42.0001 40.9996C42.4294 40.9937 43.5704 40.9964 44.0001 40.9996C43.9594 40.7029 44.2564 40.2851 44.0001 39.9996Z" fill="#231006"/>
<path d="M41 40.0001C41.5939 39.7153 42.3886 40.0807 43 40.0001C42.3526 39.753 41.6597 40.0917 41 40.0001C41.0118 40.0868 40.9877 39.9134 41 40.0001C41.0364 40.0025 40.9636 39.9981 41 40.0001Z" fill="#231006"/>
<path d="M39.0002 60.9997C39.0006 64.2205 38.9991 67.779 39.0002 70.9997C39.0006 71.7926 39.2171 71.9683 40.0002 71.9997C43.8146 72.1527 48.1843 72.0013 52.0002 71.9997C53.2092 71.9993 53.0002 72.2525 53.0002 70.9997C53.0002 68.9601 52.9999 67.0394 53.0002 64.9997C53.0002 64.7214 52.8426 64.2522 53.0002 63.9997C52.5572 64.0742 51.9845 63.6529 52.0002 63.9997C52.0879 65.9231 52.5874 68.0787 53.0002 69.9997C53.2534 71.1785 52.197 71.9997 51.0002 71.9997C48.4947 71.9997 46.5058 72.0005 44.0002 71.9997C43.1015 71.9993 43.0006 71.8814 43.0002 70.9997C42.9995 67.2191 43.1272 62.7764 43.0002 58.9997C42.8984 55.9733 43.0325 53.0238 43.0002 49.9997C42.8709 49.5458 42.3061 49.9866 42.0002 49.9997C41.4337 50.0236 40.97 49.5421 41.0002 48.9997C41.0289 48.4892 41.0195 48.5123 41.0002 47.9997C40.9873 47.6557 41.3179 47.2267 41.0002 46.9997C40.5336 46.7867 40.485 46.9054 40.0002 46.9997C39.4101 47.1598 39.0054 47.5187 39.0002 47.9997C38.9865 49.3533 39.001 50.6458 39.0002 51.9997C38.9995 53.2247 39.0014 54.7748 39.0002 55.9997C38.9991 56.9164 38.6077 57.0025 38.0002 56.9997C37.3755 56.997 38.0026 55.9041 38.0002 54.9997C37.9955 52.9155 37.9947 51.084 38.0002 48.9997C38.003 48.0126 37.9358 46.9877 38.0002 45.9997C38.0352 45.4649 37.4821 45.9591 38.0002 45.9997C38.2523 46.0193 38.7506 45.071 39.0002 44.9997C39.0789 44.9894 38.9216 45.0113 39.0002 44.9997C40.1616 44.7855 41.8346 45.0412 43.0002 44.9997C43.4885 44.9822 43.512 45.024 44.0002 44.9997C44.2165 44.989 44.9605 45.347 45.0002 44.9997C42.7078 44.9982 40.2927 44.9946 38.0002 44.9997C37.2489 45.0013 37.0006 45.2638 37.0002 45.9997C36.9987 49.393 37.025 52.6065 37.0002 55.9997C36.9955 56.6273 37.3964 57.0702 38.0002 56.9997C38.1677 56.9802 37.8304 56.9997 38.0002 56.9997C39.022 56.9997 39.1854 57.0002 39.0002 57.9997C38.7746 59.2172 39.0002 59.8284 39.0002 60.9997Z" fill="#602200"/>
<path d="M41 46.9996C41.4428 47.0054 41.5573 46.9937 42 46.9996C42.2829 47.1766 42.666 47.0058 43 46.9996C43.7238 46.9867 44.2759 46.9902 45 46.9996C45.3322 47.0039 45.7273 47.2075 46 46.9996C46.5254 47.005 47.4747 46.9937 48 46.9996C48.1566 47.7878 47.9832 48.207 48 48.9996C48.0221 50.0419 47.9983 51.0961 49 50.9996C49.182 50.982 48.8491 50.1176 49 49.9996C49.1701 49.7764 49.0225 50.238 49 49.9996C48.9373 49.3356 49.9373 48.644 50 47.9996C50.0408 47.5829 49.6712 46.9957 50 46.9996C50.3169 47.0035 50.8412 47.6068 51 47.9996C51.4686 49.1579 50.9709 49.813 51 50.9996C51.0191 51.7726 51.2655 52.0711 52 51.9996C52.494 51.9515 52.9582 52.4927 53 52.9996C53.0849 54.0239 54.1507 54.6401 55 53.9996C55.0172 51.4467 54.9959 48.552 55 45.9996C55.0004 45.8741 55.0591 45.118 55 44.9996C53.4479 44.8929 51.5533 45.0179 50 44.9996C49.354 44.9917 48.6427 44.9519 48 44.9996C47.4878 45.0379 47.9627 45.4689 48 44.9996C48.0165 44.7913 48.0086 44.2098 48 43.9996C47.7755 44.0109 47.0034 43.8522 47 43.9996C46.9877 44.5299 47.4066 45.0085 47 44.9996C46.7004 44.9929 46.2732 44.8182 46 44.9996C45.8158 45.1852 45.2179 44.9992 45 44.9996C43.5869 45.0023 42.4132 44.9949 41 44.9996C40.8013 45.0003 40.1917 44.8995 40 44.9996V44.9996C39.586 45.7706 40.3506 46.8006 41 46.9996Z" fill="#E34E0C"/>
<path d="M54.9999 45.0004C54.9932 47.7481 55.0067 50.2523 54.9999 53.0004C54.5162 53.1563 53.4935 53.0718 52.9999 53.0004C52.6973 52.9565 53.0192 53.3286 52.9999 53.0004C52.9464 52.1003 52.8655 51.9222 51.9999 52.0004C51.8494 52.014 51.098 52.0698 50.9999 52.0004C50.8788 51.9151 51.1931 51.8273 50.9999 52.0004C50.852 52.4538 50.9415 52.5849 50.9999 53.0004C51.0784 53.5603 50.9992 53.4672 50.9999 54.0004C51.0018 55.1593 51.0132 56.8415 50.9999 58.0004C50.9943 58.5021 51.2595 58.4756 50.9999 59.0004C50.9045 59.1934 50.8045 59.9342 50.9999 60.0004C51.4384 60.1491 52.5596 60.0762 52.9999 60.0004C53.2294 59.9609 53.0064 59.2496 52.9999 59.0004C52.9898 58.6144 53.0045 58.3864 52.9999 58.0004C52.7437 57.7129 52.3188 58.0036 51.9999 58.0004C51.6087 57.9968 51.9973 57.4044 51.9999 57.0004C52.0037 56.4409 52.0067 56.5599 51.9999 56.0004C51.9943 55.5474 51.5928 54.9896 51.9999 55.0004C52.2943 55.0084 52.7358 55.2604 52.9999 55.0004C53.0399 55.0004 52.9599 54.9964 52.9999 55.0004V55.0004C53.5142 54.8201 54.4875 55.2062 54.9999 55.0004C55.1188 54.8365 54.9996 54.197 54.9999 54.0004C55.0041 51.0813 54.9947 47.9195 54.9999 45.0004C54.9996 44.8317 55.1475 45.1304 54.9999 45.0004Z" fill="#A11F32"/>
<path d="M46.0002 47.0003C44.6774 47.0049 43.3229 46.9958 42.0002 47.0003C42.2495 47.9583 42.0083 49.0315 42.0002 50.0003C41.9946 50.6971 42.4049 51.0657 43.0002 51.0003C43.3195 50.9654 43.6983 50.701 44.0002 51.0003C44.0313 51.004 43.9698 50.9917 44.0002 51.0003C44.0272 50.979 43.9728 51.0212 44.0002 51.0003C44.195 50.6842 44.0065 50.3569 44.0002 50.0003C43.992 49.5139 44.5887 48.9808 45.0002 49.0003C45.2939 49.014 45.7105 49.1057 46.0002 49.0003C46.0995 48.9663 45.9298 49.088 46.0002 49.0003C45.6183 48.3195 45.9839 47.6408 46.0002 47.0003Z" fill="#A11F32"/>
<path d="M45.9997 48.0005C45.9209 48.0021 46.0785 47.9989 45.9997 48.0005C45.7419 48.2759 46.0005 48.6565 45.9997 49.0005C45.9948 50.5539 46.0084 52.447 45.9997 54.0005C45.9982 54.2515 45.2907 53.8655 44.9997 54.0005C44.6126 54.1798 45.011 54.5029 44.9997 54.0005C44.9782 53.0299 45.0039 51.9714 44.9997 51.0005C44.9986 50.7634 44.0702 50.2287 43.9997 50.0005C43.9368 49.7963 44.2884 49.9044 43.9997 50.0005C43.9997 50.0005 44.0001 50.0005 43.9997 50.0005C44.0091 52.4412 43.9888 54.5602 43.9997 57.0005C44.0031 57.7736 44.2602 57.9957 44.9997 58.0005C46.034 58.0069 45.9993 57.8064 45.9997 57.0005C46.0012 53.9552 46.0039 51.0453 45.9997 48.0005Z" fill="#A12133"/>
<path d="M53.0002 55.0002C52.5341 54.9514 52.4781 54.99 52.0002 55.0002C51.5746 55.0093 50.9958 54.6832 51.0002 55.0002C51.009 55.6357 51.0129 56.3646 51.0002 57.0002C50.9936 57.3425 51.5398 58.0161 52.0002 58.0002C52.4482 57.9846 52.5513 58.0015 53.0002 58.0002C53.0063 57.085 52.994 55.9154 53.0002 55.0002Z" fill="#E34E0C"/>
<path d="M51.0003 52.0001C51.0789 52.0312 50.9919 51.9566 51.0003 52.0001C51.1298 52.6754 51.5041 52.3434 52.0003 52.0001C52.3412 51.7644 52.9409 52.7272 53.0003 53.0001C53.255 54.1693 52.7252 54.1601 54.0003 54.0001C54.1864 53.9768 54.8346 53.9563 55.0003 54.0001C55.2762 54.0731 54.9782 54.1244 55.0003 54.0001C54.827 54.0009 54.1731 54.0009 54.0003 54.0001C52.8263 53.9951 53.1114 54.1158 53.0003 53.0001C52.9493 52.4891 52.4166 51.9683 52.0003 52.0001C51.0156 52.0755 51.0019 51.9305 51.0003 51.0001C50.9995 50.519 50.9313 50.4719 51.0003 50.0001C51.1158 49.2084 50.9782 47.7713 51.0003 47.0001C51.0063 46.7877 51.194 47.0025 51.0003 47.0001C50.6325 46.9963 50.3669 46.9823 50.0003 47.0001C49.4877 47.025 49.0135 47.691 49.0003 48.0001C48.9654 48.8358 49.0095 49.1633 49.0003 50.0001C49.0352 50.0405 48.9598 50.0355 49.0003 50.0001C49.0151 49.4616 48.9854 49.5387 49.0003 49.0001C49.6103 48.9322 50.4291 48.4557 51.0003 49.0001C51.0095 50.0509 50.9915 50.9509 51.0003 52.0001Z" fill="#A12134"/>
<path d="M49.0002 50C48.9637 49.9992 49.0367 50.0043 49.0002 50C47.2547 50.0356 47.0208 50.7777 47.0002 49C46.9944 48.4937 47.2969 47.4841 47.0002 47C47.0072 48.4409 47.0049 49.5591 47.0002 51C46.999 51.377 47.5776 51.9746 48.0002 52C49.2411 52.0742 48.8522 52.1854 49.0002 51C49.0235 50.8144 48.9785 50.186 49.0002 50Z" fill="#A01F31"/>
<path d="M48 55C49.0139 55 48.9992 54.9751 49 54C49.0004 52.9848 48.9529 53.0009 48 53C47.4861 52.9995 46.9947 53.0895 47 54C47.0065 55.1637 47.0045 55 48 55Z" fill="#A01E31"/>
<path d="M54 72.0002C55.0139 72.0002 54.9992 72.4137 55 71.0002C55.0004 69.5286 54.9529 69.0016 54 69.0002C53.4861 68.9995 52.9947 68.6803 53 70.0002C53.0065 71.6871 53.0045 72.0002 54 72.0002Z" fill="#852A0D"/>
<path d="M45.9996 46.9999C45.1312 46.8265 45.032 47.2878 44.9996 47.9999C44.9574 48.9376 45.3426 48.95 45.9996 48.9999C46.9257 49.0702 46.9534 48.5474 46.9996 47.9999C47.0638 47.2394 46.6969 46.8128 45.9996 46.9999Z" fill="#602200"/>
<path d="M51 49.0001C50.8427 48.4897 50.6058 47.3224 50 48.0001C49.8382 48.1813 50.1826 48.0428 50 48.0001C49.7501 47.9418 49.0594 48.5228 49 49.0001C49.6683 49.0092 50.3481 48.6586 51 49.0001Z" fill="#A11F32"/>
<path d="M36.9995 50.0002C36.9995 48.429 36.9983 47.5714 36.9995 46.0002C36.9998 45.6218 37.3476 45.0154 36.9995 45.0002C36.698 44.9871 36.0332 45.5528 35.9995 46.0002C35.9059 47.2436 35.9631 47.7548 35.9995 49.0002C36.055 50.91 36.0174 53.0861 35.9995 55.0002C35.9951 55.4748 36.6075 55.9751 36.9995 56.0002C37.3179 56.0206 37.0017 55.4349 36.9995 55.0002C36.9918 53.386 36.9993 51.6145 36.9995 50.0002Z" fill="#060304"/>
<path d="M41.9998 35.9997C42.0034 36.8288 42.0449 38.1739 41.9998 38.9997C41.9638 39.6553 42.3663 40.035 42.9998 39.9997C44.0118 39.9431 43.9729 39.8822 43.9998 40.9997C44.0104 41.4448 43.6509 41.9681 43.9998 41.9997C44.3651 42.0325 44.652 41.753 44.9998 41.9997C45.0794 42.0159 45.9197 41.9834 45.9998 41.9997C46.6126 42.1349 47.4155 42.3812 47.9998 41.9997C48.3765 41.9909 48.6263 41.966 48.9998 41.9997C49.4606 42.0413 49.0592 41.4889 48.9998 40.9997C48.9836 40.8674 49.0133 41.1328 48.9998 40.9997C48.9502 40.5138 49.5488 40.0034 49.9998 39.9997C51.2347 39.9893 50.999 39.4083 50.9998 37.9997C51.0001 37.5504 50.9748 37.4469 50.9998 36.9997C51.0255 36.5396 50.4224 36.003 49.9998 35.9997C49.6178 35.9968 49.3666 36.2522 48.9998 35.9997V35.9997C48.9656 36.0013 49.0335 36.0067 48.9998 35.9997C48.9796 36.0217 49.0203 35.9776 48.9998 35.9997C48.9906 36.4927 49.7555 37.0047 49.9998 36.9997C50.6174 36.988 50.8793 37.5691 50.9998 37.9997C51.1378 38.4931 50.4863 38.6228 49.9998 38.9997C49.5763 39.3275 49.0747 39.5846 48.9998 38.9997C48.9744 38.8004 49.1103 38.1698 48.9998 37.9997C48.9153 37.8699 49.1029 37.8536 48.9998 37.9997C48.9329 38.1157 49.0177 38.8661 48.9998 38.9997C48.8808 39.8796 48.8172 40.0001 47.9998 39.9997C46.7167 39.9988 45.2825 39.9872 43.9998 39.9997C43.8213 39.9847 44.0001 39.2306 43.9998 38.9997C43.9975 38.2159 43.9799 37.7835 43.9998 36.9997C44.0042 36.8258 43.9461 36.1436 43.9998 35.9997C44.017 35.921 44.0431 36.0637 43.9998 35.9997C43.9127 35.9227 44.1048 35.998 43.9998 35.9997C43.6101 35.9909 43.3879 35.9685 42.9998 35.9997C42.7893 36.0176 42.1191 35.7434 41.9998 35.9997Z" fill="#EC8417"/>
<path d="M41.0004 44.0003C41.9404 44 43.0611 44.0218 44.0004 44.0003C44.5168 43.9886 45.0956 43.6728 45.0004 43.0003C44.9364 42.5486 44.4947 41.9482 44.0004 42.0003C43.7206 42.03 43.9585 41.6996 44.0004 42.0003C44.0802 42.5721 43.6804 42.9946 43.0004 43.0003C41.5727 43.0125 40.4241 43.1371 39.0004 43.0003C38.7949 42.9807 38.1438 42.8043 38.0004 43.0003C37.7795 43.3021 38.5365 43.9939 39.0004 44.0003C39.9397 44.0143 40.0603 44.0011 41.0004 44.0003Z" fill="#060304"/>
<path d="M47.9996 42C47.383 42.0117 46.5981 41.7371 45.9996 42C45.9969 42.7955 46.0022 44.2046 45.9996 45C45.9153 45.1127 45.8655 44.9157 45.9996 45C46.3398 45.0014 46.6634 44.9671 46.9996 45C47.5383 45.0527 48.0621 44.4626 47.9996 44C47.9812 43.8651 47.9812 44.138 47.9996 44C48.0213 43.4089 47.9782 42.5919 47.9996 42Z" fill="#DE9E58"/>
<path d="M46 45.9996C45.9829 45.8033 46.0172 45.1953 46 44.9996C45.8166 44.9486 46.0484 44.8223 46 44.9996C45.817 45.3648 45.2234 45.9977 45 45.9996C43.5453 46.0127 42.4548 45.9911 41 45.9996C40.7706 46.0009 40.2055 45.7254 40 45.9996C41.8133 46.0062 43.1868 45.9931 45 45.9996C45.1951 46.0003 45.8386 46.2293 46 45.9996Z" fill="#A01F30"/>
<path d="M54.9997 54.9998C54.3405 55.0886 53.6379 54.7012 52.9997 54.9998C53.6651 54.9954 54.3343 55.0047 54.9997 54.9998C55.0016 54.9569 55.0059 55.0428 54.9997 54.9998Z" fill="#681415"/>
<path d="M43 36.9995C43.0796 37.0035 42.9204 36.9955 43 36.9995C43.387 37.2988 44.5792 37.0485 45 36.9995C45.3211 36.9618 44.9739 36.3104 45 35.9995C45.0253 35.6974 44.9956 35.3 45 34.9995C44.9887 34.4499 45.1632 34.5796 45 33.9995C44.9727 33.9028 45.8835 33.9638 46 33.9995C46.5373 34.164 46.4739 33.7492 47 33.9995C47.5819 34.0553 48.4281 34.2226 49 33.9995C48.949 33.624 48.207 33.0308 48 32.9995C47.6054 32.9401 47.3721 33.2523 47 32.9995C46.7786 32.198 46.994 31.8079 47 30.9995C47.0044 30.4038 46.6575 29.9694 46 29.9995C44.8438 30.0525 45 29.8457 45 30.9995C45 31.5387 45.0133 32.4603 45 32.9995C44.996 33.168 45.3203 32.9763 45 32.9995C44.9831 33.016 45.0169 32.9831 45 32.9995C44.6648 33.2097 44.3537 32.9983 44 32.9995C43.4981 33.0007 42.9807 33.4519 43 33.9995C43.0261 34.7453 43.0141 35.2521 43 35.9995C42.9261 36.1114 42.8959 36.9153 43 36.9995Z" fill="#E15518"/>
<path d="M44 36.9999C43.9877 36.8921 44.0123 36.1087 44 35.9999C43.8343 35.1873 44.0465 34.8192 44 33.9999C43.9845 33.7254 44.1767 33.2298 44 32.9999C43.6282 32.9111 42.3714 32.9093 42 32.9999C41.9276 33.0525 42.0724 32.9469 42 32.9999C41.7272 33.8462 41.9481 35.1338 42 35.9999C42.0142 36.2356 42.0645 36.766 42 36.9999C41.9614 37.0539 42.0386 36.946 42 36.9999C41.9769 37.0344 41.994 36.9632 42 36.9999C42.006 37.0371 41.9927 36.9999 42 36.9999C42.0427 37.0322 41.9652 37.049 42 36.9999C42.0338 37.0123 41.9662 36.9871 42 36.9999C42.5071 36.7775 43.4945 37.2515 44 36.9999Z" fill="#231006"/>
<path d="M41.9997 36.0004C41.9509 35.998 42.0481 36.0028 41.9997 36.0004C41.476 35.9119 40.5243 35.9241 39.9997 36.0004C39.7122 36.6713 40.0599 37.319 39.9997 38.0004C39.979 38.2344 39.9981 38.7646 39.9997 39.0004C40.6081 39.1072 41.389 39.0445 41.9997 39.0004C42.0046 38.0799 41.9945 36.9209 41.9997 36.0004Z" fill="#080707"/>
<path d="M48 32.9995C48.4678 32.9377 49.5763 33.4014 50 32.9995C50.3391 32.2685 50.3249 30.7321 50 29.9995C49.6109 29.6009 48.4357 29.9905 48 29.9995C47.8423 30.0028 47.9988 29.8643 48 29.9995C48.0054 30.7321 47.9912 32.2669 48 32.9995Z" fill="#0A0404"/>
<path d="M50.9999 35.9997C50.9995 36.786 51.0213 38.2136 50.9999 38.9997C50.9911 39.3242 51.5453 39.0282 51.9999 38.9997C52.1989 38.987 51.8028 38.9811 51.9999 38.9997C52.5991 39.0564 53.025 38.422 52.9999 37.9997C52.9576 37.2859 53.0009 36.7143 52.9999 35.9997V35.9997C52.4091 35.853 51.5917 36.1347 50.9999 35.9997C50.9516 36 51.0487 36.0013 50.9999 35.9997Z" fill="#060505"/>
<path d="M42.9996 30.0004C42.731 30.0381 43 30.8336 42.9996 31.0004C42.9984 31.6214 43.0166 32.3796 42.9996 33.0004C42.9912 33.3148 43.6447 33.0102 43.9996 33.0004C44.4328 32.9888 44.5661 32.9943 44.9996 33.0004C45.0267 32.9956 44.9932 33.0235 44.9996 33.0004C44.994 32.2764 44.9682 31.723 44.9996 31.0004C45.0178 30.5766 44.5199 29.9358 43.9996 30.0004C43.6887 30.0391 43.2856 29.8058 42.9996 30.0004C43.0932 30.0788 43.869 29.9698 43.9996 30.0004C44.7765 30.1817 44.9529 30.3202 44.9996 31.0004C45.0162 31.2374 45.0392 31.765 44.9996 32.0004C44.9484 32.305 44.3497 33.0187 43.9996 33.0004C43.6358 32.981 44.0134 32.1817 43.9996 32.0004C43.9722 31.6364 44.0101 31.3651 43.9996 31.0004C43.9932 30.763 43.2368 30.179 42.9996 30.0004Z" fill="#231006"/>
<path d="M41.9997 33.0002C41.9997 33.8278 41.9997 34.1725 41.9997 35.0002C42.0039 35.1721 41.9955 35.8283 41.9997 36.0002C42.2347 35.0079 41.954 33.9997 41.9997 33.0002C41.9613 33.0002 42.0385 32.9998 41.9997 33.0002Z" fill="#24313B"/>
<path d="M41.9995 40.0004C41.3391 39.9919 40.66 40.0085 39.9995 40.0004C39.996 40.0458 40.0031 39.955 39.9995 40.0004C40.6648 39.9984 41.3343 40.0024 41.9995 40.0004C42.0013 39.9652 42.0039 40.0348 41.9995 40.0004Z" fill="#24313B"/>
<path d="M52.9996 36.0002C52.9729 36.0026 53.0263 36.0034 52.9996 36.0002C52.7827 36.0051 52.2165 35.9949 51.9996 36.0002C52.3136 36.2453 52.6767 35.9431 52.9996 36.0002C52.94 35.86 53.0875 36.012 52.9996 36.0002Z" fill="#4F2E1F"/>
<path d="M40.9996 35.9998C41.3316 36.0015 41.6675 35.9982 41.9996 35.9998C42.0009 35.9597 41.9988 36.0395 41.9996 35.9998C41.6667 36.048 41.3229 35.7515 40.9996 35.9998Z" fill="#24313B"/>
<path d="M48 28C48.0066 28.667 47.9935 29.3335 48 30C48.1583 29.3298 48.1974 28.6628 48 28Z" fill="#24313B"/>
<path d="M42 32.9998C42.3334 32.9998 42.6669 32.9998 43 32.9998C42.6666 32.82 42.3331 32.8208 42 32.9998Z" fill="#24313B"/>
<path d="M48.9998 36.0003C49.4451 35.9972 49.5554 35.9814 49.9998 36.0003C50.4136 36.0183 51.011 36.3366 50.9998 36.0003C50.9791 35.3784 50.9862 34.6226 50.9998 34.0003C51.0077 33.6377 50.4232 32.9982 49.9998 33.0003C48.4273 33.0088 49.0285 32.8879 48.9998 34.0003C48.9841 34.6036 49.0023 35.397 48.9998 36.0003C48.9998 36.0003 48.9998 36.0003 48.9998 36.0003Z" fill="#060405"/>
<path d="M48.9995 33C48.4597 32.797 47.5518 33.0397 46.9995 33C46.7547 33.1889 46.9819 33.7714 46.9995 34C47.0424 34.5568 47.0058 35.4383 46.9995 36C46.9973 36.1912 47.7694 35.9829 47.9995 36C48.4624 36.0344 48.5832 36.2912 48.9995 36V36C48.9911 35.1917 49.0079 33.8083 48.9995 33Z" fill="#E95719"/>
<path d="M49.9996 40.0002C49.0184 39.9998 49.0387 40.6175 48.9996 41.0002C48.9731 41.2586 49.4665 41.0317 49.9996 41.0002C50.0686 40.9961 49.9297 41.0002 49.9996 41.0002C51.0104 41.0004 50.9384 40.3663 50.9996 40.0002C51.0665 39.6046 50.4837 40.0084 49.9996 40.0002Z" fill="#0A0606"/>
<path d="M39.9999 47C39.7137 46.8534 39.9796 46.3529 39.9999 46C40.0149 45.7386 40.0034 45.2635 39.9999 45C38.5552 44.9289 38.0149 45.1685 37.9999 47C37.9749 50.0614 37.9949 52.9382 37.9999 56C38.0006 56.2982 37.7434 56.9175 37.9999 57C38.3849 57.1238 39.6175 57.1908 39.9999 57C40.1671 56.9167 39.9999 56.2124 39.9999 56C40.0027 53.0926 39.9977 49.9075 39.9999 47C40.0002 46.6843 39.6359 47.0956 39.9999 47Z" fill="#A01F30"/>
<path d="M42.9997 49.9996C43.3358 50.1195 42.9984 50.7682 42.9997 50.9996C43.0071 52.2482 43.046 52.7527 42.9997 53.9996C42.9739 54.6931 43.551 54.9967 43.9997 54.9996C44.4567 55.0025 45.0132 54.6832 44.9997 53.9996C44.9595 51.9269 45.0041 50.0732 44.9997 47.9996C44.5095 47.9963 44.4899 48.0104 43.9997 47.9996C43.6479 47.9918 42.987 47.6595 42.9997 47.9996C43.0172 48.4629 42.994 49.5363 42.9997 49.9996Z" fill="#E34E0C"/>
<path d="M42.9999 40.0003C44.7111 40.0082 46.2891 39.9809 47.9999 40.0003C48.411 40.0052 49.0304 39.4076 48.9999 39.0003C48.9758 38.6796 48.9974 38.323 48.9999 38.0003C48.8178 37.7743 48.259 38.0183 47.9999 38.0003C47.1512 37.942 47.0716 37.7471 46.9999 37.0003C46.9824 36.8188 47.1144 37.1583 46.9999 37.0003C46.788 36.5006 47.1022 35.5075 46.9999 35.0003C46.9734 34.9307 47.0651 35.0426 46.9999 35.0003C46.4311 34.8095 45.5764 34.8645 44.9999 35.0003C44.929 35.0307 45.0447 34.9416 44.9999 35.0003C44.8919 35.3069 44.9974 35.6889 44.9999 36.0003C45.0019 36.2597 45.2468 36.8645 44.9999 37.0003C44.8288 37.0516 44.1747 36.9981 43.9999 37.0003C42.9349 37.0146 43.0011 37.0515 42.9999 38.0003C42.9995 38.4828 43.0044 38.5179 42.9999 39.0003C42.997 39.2261 42.8145 39.8263 42.9999 40.0003Z" fill="#FDEB43"/>
<path d="M46.9997 37C46.9565 38.6903 47.4312 37.9656 48.9997 38C49.082 38.0016 48.9175 37.9933 48.9997 38C49.1547 38.2439 48.9932 38.737 48.9997 39C49.0154 39.657 49.4201 40.1854 49.9997 40C50.3593 39.8851 50.9978 39.3675 50.9997 39C51.0028 38.4616 51.6206 37.4397 50.9997 37C50.9657 36.9759 50.9978 37.0145 50.9997 37C51.1593 35.8979 49.3295 37.1696 48.9997 37C48.8582 36.927 49.0533 37.2211 48.9997 37C48.6925 36.9933 48.2974 36.9456 47.9997 37C47.375 37.1141 46.9481 36.6135 46.9997 36C47.0686 35.1841 46.9083 33.8238 46.9997 33C46.4836 32.6594 45.5426 33.1626 44.9997 33C44.8754 32.9627 44.9381 32.8332 44.9997 33C45.1998 33.5396 45.0602 34.5159 44.9997 35C45.0831 35.0796 44.9129 35.073 44.9997 35V35C45.3628 34.7992 46.077 34.5338 45.9997 34C45.9519 33.6702 45.7893 33.9921 45.9997 34C46.2247 34.0083 47.0716 33.7353 46.9997 34C46.8742 34.4629 46.6673 34.8088 46.9997 35V35C47.1795 35.5732 46.8348 36.4263 46.9997 37Z" fill="#EE8415"/>
<path d="M41 39.0001C41 39.2066 40.9646 38.7988 41 39.0001C41.0474 39.2684 40.4522 39.9299 41 40.0001C41.5491 40.0702 42.9245 39.4052 43 39.0001C43.1276 38.3136 42.7484 37.6156 42 37.0001C41.6835 36.7394 41.32 36.938 41 37.0001C40.6613 37.0656 41.0124 37.7892 41 38.0001C40.9834 38.2883 41 38.711 41 39.0001Z" fill="#ED8414"/>
<path d="M43 38.9996C43.0008 38.2777 43.0306 37.72 43 36.9996C42.9822 36.58 43.5419 35.982 44 35.9996C44.2945 36.0109 44.7353 36.2287 45 35.9996C44.5031 35.9278 43.498 35.9602 43 35.9996C42.7392 36.0603 42.9977 36.7615 43 36.9996C43.0066 37.6493 42.9988 38.3498 43 38.9996C43.0004 39.2194 42.683 38.9882 43 38.9996Z" fill="#FCC937"/>
<path d="M44 36.9997C44.5141 37.0054 45.4858 36.994 46 36.9997C46.4012 36.754 45.9795 36.3805 46 35.9997C46.0164 35.6982 45.9967 35.3022 46 34.9997C45.9111 34.9973 46.0892 35.0021 46 34.9997C45.9719 36.7789 45.53 36.9134 44 36.9997C43.9996 37.035 44.0004 36.9639 44 36.9997Z" fill="#ED8515"/>
<path d="M43.9998 30.0004C44.0007 30.714 43.9879 31.2872 43.9998 32.0004C44.0044 32.284 43.7185 32.9369 43.9998 33.0004C44.2896 33.0658 44.973 32.4297 44.9998 32.0004C45.0407 31.3506 45.0719 30.6408 44.9998 30.0004C44.9755 29.783 45.1032 30.0027 44.9998 30.0004C44.8274 29.9965 44.1723 30.0027 43.9998 30.0004C43.9996 30 43.9998 30.0004 43.9998 30.0004Z" fill="#0C0505"/>
<path d="M46.9999 34.0001C46.8026 33.7784 46.6141 33.2894 46.9999 33.0001C47.0985 32.926 47.1959 33.0262 46.9999 33.0001C46.6682 32.9558 46.3341 32.9608 45.9999 33.0001C45.8422 33.0186 44.9179 32.9281 44.9999 33.0001C45.3953 33.3461 45.2459 33.7683 44.9999 34.0001C45.6271 33.9991 46.3727 34.0009 46.9999 34.0001Z" fill="#ED8515"/>
<path d="M48.0001 37C47.944 36.3348 48.2697 35.6454 48.0001 35C48.0888 35.6624 47.772 36.3509 48.0001 37Z" fill="#ED8515"/>
<defs>
<clipPath id="clip0_4395_43035">
<rect width="30" height="22" fill="white" transform="translate(0 71) rotate(-90)"/>
</clipPath>
</defs>
</svg>
