<svg width="32" height="31" viewBox="0 0 32 31" fill="none" xmlns="http://www.w3.org/2000/svg">
<g clip-path="url(#clip0_8091_67566)">
<path d="M27.0004 33.9996C27.0024 33.2929 26.7744 33.2394 27.0004 31.9996C27.2752 30.4901 26.9939 28.5131 27.0004 26.9996C27.0009 26.8097 27.2081 27.1473 27.0004 26.9996C26.8962 26.9405 26.1145 26.9495 26.0004 26.9996C25.699 27.2178 25.9945 26.7294 26.0004 26.9996C26.018 27.7677 25.8673 29.2339 26.0004 29.9996C26.0162 30.2311 26.0068 29.7674 26.0004 29.9996C25.9786 30.718 24.9604 31.3326 24.0004 30.9996C23.822 30.9378 24.0115 31.1442 24.0004 30.9996C23.8614 29.1395 23.2999 26.8523 24.0004 24.9996C24.1634 24.568 24.3865 24.3999 24.0004 23.9996C23.7702 23.7611 24.0368 23.2472 24.0004 22.9996C23.9221 21.962 23.3041 21.0325 23.0004 19.9996C22.1133 19.4936 21.9739 19.8618 21.0004 19.9996C20.5112 20.512 20.1181 20.4603 20.0004 20.9996C19.958 21.2918 19.9803 21.7023 20.0004 21.9996C20.0339 22.5045 19.702 23.0196 19.0004 22.9996C18.068 22.9734 18.1022 22.6013 18.0004 21.9996C17.7914 20.7642 18.0663 20.2343 18.0004 18.9996C17.9921 18.8484 17.1787 18.105 17.0003 17.9996C16.2075 17.7388 15.8162 17.8434 15.0003 17.9996C14.2146 18.5096 13.5889 19.3012 14.0004 19.9996C14.0945 22.1763 14.1351 24.8238 14.0004 26.9996C13.9568 27.6976 14.0421 28.3024 14.0004 28.9996C13.965 29.5911 13.9298 29.9851 13.0004 29.9996C12.2334 30.0114 11.9986 29.5143 12.0004 28.9996C12.0068 26.9495 11.9486 25.0505 12.0004 22.9996C12.0074 22.7114 12.3294 22.2542 12.0004 21.9996C11.8879 21.9428 11.1069 21.9385 11.0003 21.9996C10.6843 22.2468 11.0015 22.7043 11.0003 22.9996C10.9951 25.1759 10.8361 26.8285 11.0003 28.9996C11.3135 33.1387 10.895 37.8618 11.0003 41.9996C11.0045 42.1685 10.9692 41.8316 11.0003 41.9996C11.1063 42.5731 12.1304 42.984 13.0004 42.9996C14.303 43.0227 15.6972 42.9996 17.0004 42.9996C19.7021 43 22.2986 43.0079 25.0004 42.9996C26.4766 42.9949 27.2311 42.9538 27.0004 41.9996C26.5377 40.0866 26.0598 37.9142 26.0004 35.9996C25.9553 34.5213 26.9972 35.0589 27.0004 33.9996Z" fill="#852A0D"/>
<path d="M5 44.0003C12.967 44.0967 20.0336 44.2276 28 44.0003C28.4247 43.8745 29.0011 43.3115 29 43.0003C28.9925 40.2699 28.9994 37.7307 29 35.0003C29 34.6511 28.6318 34.0211 28 34.0003C27.405 33.9807 27.2118 34.4614 27 35.0003C26.8786 35.3092 26.9994 35.6793 27 36.0003C27.0052 37.884 27.0081 39.1166 27 41.0003C26.9965 41.8379 26.2228 42.9964 25 43.0003C21.0179 43.0121 16.9769 42.0987 13 42.0003C11.234 41.9568 9.76661 42.0352 8 42.0003C6.89918 41.9787 6.0023 41.765 6 41.0003C5.99079 38.0583 6 34.9423 6 32.0003C6 31.8521 6.00518 32.1485 6 32.0003C5.97756 31.3881 5.70894 31.0121 5 31.0003C4.2594 30.9881 4.00057 31.3473 4 32.0003C3.99539 35.4926 3.99022 39.5076 4 43.0003C4 43.4624 4.20301 43.6609 5 44.0003Z" fill="#030304"/>
<path d="M4.00052 43.9998C3.60952 43.533 3.99994 43.4899 4.00052 42.9998C4.00462 39.618 4.00755 35.3817 4.00052 31.9998C3.99994 31.6045 3.1711 32.0084 4.00052 31.9998C4.85161 31.9909 5.00111 31.5666 5.00052 31.9998C4.99467 35.0057 4.99818 37.9939 5.00052 40.9998C5.00111 42.0017 5.49737 42.96 7.00052 42.9998C12.6853 43.1507 18.3139 42.9964 24.0005 42.9998C24.3459 43.0002 24.6669 43.0494 25.0005 42.9998C25.8007 42.8819 27.0116 42.5963 27.0005 41.9998C26.9654 40.0797 27.0058 37.9203 27.0005 35.9998C26.9999 35.7059 26.932 35.288 27.0005 34.9998C27.1141 34.5221 27.4702 34.982 28.0005 34.9998C28.5677 35.0192 29.0011 34.7039 29.0005 34.9998C28.9982 37.6719 28.9865 40.3278 29.0005 42.9998C29.0017 43.2741 28.2107 43.7914 28.0005 43.9998C28.4864 44.0316 29.0017 44.3793 29.0005 43.9998C28.9876 41.0814 29.0011 37.9183 29.0005 34.9998C29.0005 34.8714 29.151 34.0927 29.0005 33.9998C28.2396 34.0026 27.7615 33.9971 27.0005 33.9998C26.455 34.2354 25.9994 34.6498 26.0005 34.9998C26.007 36.9807 25.774 39.0198 26.0005 40.9998C26.093 41.8063 26.2309 41.9987 25.0005 41.9998C20.9833 42.0037 17.0031 42.1584 13.0005 41.9998C11.224 41.9294 8.78581 42.049 7.00052 41.9998C6.25714 41.9793 5.99994 41.4362 6.00052 40.9998C6.0017 39.9767 6.00111 39.023 6.00052 37.9998C5.99877 35.9954 6.00521 34.0043 6.00052 31.9998C5.99994 31.6459 6.34822 31.307 6.00052 30.9998C5.54689 30.6765 4.54782 30.9956 4.00052 30.9998C3.3748 31.0049 3.19896 30.4153 3.00052 29.9998C2.81497 29.6111 3.39236 29.2018 4.00052 28.9998C4.5566 28.8722 4.43684 29.0389 5.00052 28.9998C5.76908 28.9465 6.00813 28.6621 6.00052 27.9998C5.99409 27.4935 5.79249 28.037 5.00052 27.9998C4.49596 27.9762 4.50684 28.0246 4.00052 27.9998C3.46845 27.9735 2.99994 27.3731 3.00052 26.9998C3.00696 23.7212 2.98004 20.2784 3.00052 16.9998C3.00404 16.3999 2.93872 16.0033 4.00052 15.9998C6.84762 15.9909 10.1534 16.0033 13.0005 15.9998C13.4413 15.9995 13.5662 16.0865 14.0005 15.9998C14.2838 15.9074 14.8378 16.1751 15.0005 15.9998C15.2575 15.0889 15.4489 13.903 15.0005 12.9998C14.8799 12.9047 14.1808 13.0265 14.0005 12.9998C13.4035 12.9817 13.5982 12.9898 13.0005 12.9998C12.078 13.0153 11.0509 13.3779 11.0005 13.9998C10.9596 14.5093 10.7603 14.0296 10.0005 13.9998C9.5703 13.9828 9.32948 14.7438 9.00052 14.9998C7.38674 15.0029 5.61314 15.0238 4.00052 14.9998C3.22553 14.9882 2.98589 14.4757 3.00052 14.9998C3.02394 15.8415 3.32398 15.9913 2.00052 15.9998C0.483324 16.0095 0.0011101 16.0185 0.000524556 16.9998C-6.09731e-05 20.1744 -6.09417e-05 23.8253 0.000524642 26.9998C0.000524649 27.8868 -0.382633 27.9967 1.00052 27.9998C1.15857 28.0002 1.84248 27.9987 2.00052 27.9998C2.66898 28.0041 2.94316 27.562 3.00052 27.9998C3.05672 28.4311 2.78078 28.9422 2.00052 28.9998C1.42982 29.6416 1.30046 30.5337 2.00052 30.9998C2.77083 31.0876 3.00111 31.6099 3.00052 31.9998C2.9976 35.7882 3.00052 39.2114 3.00052 42.9998C3.0017 43.3522 3.1272 44.0668 4.00052 43.9998Z" fill="#100505"/>
<path d="M26.0004 25.9996C25.9728 27.8518 26.2782 32.1477 26.0004 33.9996C25.8771 34.8213 25.7353 35.0015 27.0004 34.9996C27.8093 34.9982 29.0004 34.9996 29.0004 34.9996C29.0004 34.9996 28.9022 35.3349 29.0004 30.9996C28.9986 29.5991 28.9928 28.4001 29.0004 26.9996C29.0051 26.0911 28.6449 26.0019 30.0004 25.9996C31.5368 25.9973 32.0004 26.0328 32.0004 24.9996C31.9992 22.4492 32.0022 19.55 32.0004 16.9996C31.9998 15.9284 31.6414 15.9969 30.0004 15.9996C29.5905 16.0004 29.3663 15.8287 29.0004 15.9996C28.6327 16.1801 29.0016 16.7567 29.0004 16.9996C28.9916 18.774 28.91 20.2275 29.0004 21.9996C29.0439 22.8519 29.0621 24.15 29.0004 24.9996C28.9804 25.2762 28.3246 24.7943 28.0004 24.9996C27.3667 25.3378 26.6558 25.7451 26.0004 25.9996C26.0333 25.9717 25.9657 26.0267 26.0004 25.9996Z" fill="#070405"/>
<path d="M23.0004 14.9995C21.969 14.9646 21.0126 14.2074 20.0004 13.9995C20.441 13.7429 20.2017 13.2942 20.0004 12.9995C19.5304 12.6468 17.7 12.7745 17.0004 12.9995C16.76 13.077 17.0118 12.8661 17.0004 12.9995C16.9487 13.5991 16.9583 15.4 17.0004 15.9995C17.0196 16.2725 17.4654 15.9965 18.0004 15.9995C21.4324 16.0182 24.5683 16.0155 28.0004 15.9995C28.2336 15.9983 28.8381 16.0902 29.0004 15.9995C28.9848 14.6342 29.6967 15.0152 27.0004 14.9995C25.9022 14.9932 24.0985 15.0023 23.0004 14.9995Z" fill="#0F0505"/>
<path d="M16.9998 -3.7597e-10C16.1847 -3.60499e-09 14.8155 -9.0285e-09 13.9998 -1.22598e-08C13.6394 0.320594 14.1219 0.66951 13.9998 1C14.8965 0.996614 16.1025 1.00339 16.9998 1C17.0883 0.670031 17.1595 0.328667 16.9998 -3.7597e-10Z" fill="#0D0607"/>
<path d="M8.00025 12.0003C8.00217 12.05 7.99833 11.9507 8.00025 12.0003C8.24955 12.57 8.40025 12.982 10.0003 13.0003C10.7891 13.0094 11.116 13.2741 11.0003 13.0003C10.9389 12.8555 11.1895 12.1419 11.0003 12.0003C10.205 11.9235 8.80249 12.0124 8.00025 12.0003C7.96446 11.9198 7.80656 11.9973 8.00025 12.0003Z" fill="#0E0806"/>
<path d="M10.9996 11.9996C10.9977 12.0659 11.0002 11.9333 10.9996 11.9996C10.994 12.6268 10.5381 13.0535 8.99956 12.9996C7.9829 12.964 8.41815 12.1549 7.99956 11.9996C7.99711 12.1193 8.01555 12.8804 7.99956 12.9996C7.97313 13.2001 8.48632 13.004 8.99956 12.9996C9.69353 12.9937 10.305 12.9964 10.9996 12.9996C10.9338 12.7029 11.4139 12.2851 10.9996 11.9996Z" fill="#231006"/>
<path d="M8 11.0002C8.89087 10.7278 10.0828 11.0773 11 11.0002C10.0289 10.7638 8.98949 11.0878 8 11.0002C7.98159 10.9173 8.01775 11.0831 8 11.0002C7.94543 10.9983 8.05457 11.0025 8 11.0002Z" fill="#231006"/>
<path d="M4.99975 32.0004C5.00034 35.1019 4.99799 37.8989 4.99975 41.0004C5.00034 41.7639 5.82785 41.9701 6.99975 42.0004C12.7075 42.1477 18.2897 42.002 23.9998 42.0004C25.8088 42.0001 25.9998 42.2068 25.9998 41.0004C25.9998 39.0363 25.9992 36.9646 25.9998 35.0004C25.9998 34.7324 25.7638 34.2436 25.9998 34.0004C25.3367 34.0721 24.9762 34.6664 24.9998 35.0004C25.1309 36.8526 25.382 38.1506 25.9998 40.0004C26.3786 41.1355 25.7905 42.0004 23.9998 42.0004C20.2505 42.0004 15.749 42.0012 11.9998 42.0004C10.6549 42.0001 11.0003 41.8494 10.9998 41.0004C10.9986 37.3598 11.1898 33.6373 10.9998 30.0004C10.8474 27.0861 11.048 23.9125 10.9998 21.0004C10.8062 20.5633 10.4575 20.9878 9.99975 21.0004C9.15201 21.0234 8.95445 20.5227 8.99975 20.0004C9.0427 19.5088 9.02858 19.494 8.99975 19.0004C8.98034 18.6691 8.4751 18.219 7.99975 18.0004C7.30144 17.7953 6.72513 17.9096 5.99975 18.0004C5.11671 18.1546 5.0074 18.5372 4.99975 19.0004C4.97916 20.3039 5.00093 21.6966 4.99975 23.0004C4.99858 24.18 5.00152 24.8209 4.99975 26.0004C4.99799 26.8832 4.90868 27.0031 3.99975 27.0004C3.06494 26.9978 3.00328 26.8713 2.99975 26.0004C2.99269 23.9934 2.99152 22.0075 2.99975 20.0004C3.00387 19.0498 2.90327 17.9518 2.99975 17.0004C3.05211 16.4854 3.22437 15.9613 3.99975 16.0004C4.37685 16.0192 4.62618 16.0691 4.99975 16.0004C5.11741 15.9905 4.88209 16.0116 4.99975 16.0004C6.7376 15.7941 9.25544 16.0403 10.9998 16.0004C11.7304 15.9836 12.2691 16.0238 12.9998 16.0004C13.3233 15.9901 13.9403 16.3348 13.9998 16.0004C10.5694 15.9989 6.43014 15.9955 2.99975 16.0004C1.87551 16.002 2.00034 16.2918 1.99975 17.0004C1.9974 20.268 2.03682 23.7329 1.99975 27.0004C1.99269 27.6048 2.09612 28.0683 2.99975 28.0004C3.25037 27.9817 3.74561 28.0004 3.99975 28.0004C5.52875 28.0004 5.27684 28.0379 4.99975 29.0004C4.66209 30.1728 4.99975 30.8724 4.99975 32.0004Z" fill="#602200"/>
<path d="M6.99981 17.9996C7.67655 18.0054 8.32307 17.9937 8.99981 17.9996C9.43212 18.1766 9.48926 18.0058 9.99981 17.9996C11.106 17.9867 12.893 17.9902 13.9998 17.9996C14.5075 18.0039 14.5829 18.2075 14.9998 17.9996C15.8028 18.005 17.1969 17.9937 17.9998 17.9996C18.2391 18.7878 17.9741 19.207 17.9998 19.9996C18.0335 21.0419 18.4687 22.0961 19.9998 21.9996C20.2779 21.982 19.7691 21.1176 19.9998 20.9996C20.2597 20.7764 21.0341 21.238 20.9998 20.9996C20.9039 20.3356 20.9039 19.644 20.9998 18.9996C21.0621 18.5829 21.4973 17.9957 21.9998 17.9996C22.4841 18.0035 22.7571 18.6068 22.9998 18.9996C23.716 20.1579 22.9553 20.813 22.9998 21.9996C23.0289 22.7726 23.8771 23.0711 24.9998 22.9996C25.7548 22.9515 25.9358 23.4927 25.9998 23.9996C26.1294 25.0239 27.7017 25.6401 28.9998 24.9996C29.0261 22.4467 28.9935 19.552 28.9998 16.9996C29.0004 16.8741 29.09 16.118 28.9998 15.9996C26.6275 15.8929 24.3738 16.0179 21.9998 15.9996C21.0124 15.9917 19.9821 15.9519 18.9998 15.9996C18.2169 16.0379 17.9427 16.4689 17.9998 15.9996C18.0249 15.7913 18.0129 15.2098 17.9998 14.9996C17.6566 15.0109 17.0049 14.8522 16.9998 14.9996C16.981 15.5299 16.6212 16.0085 15.9998 15.9996C15.5418 15.9929 15.4173 15.8182 14.9998 15.9996C14.7183 16.1852 14.3328 15.9992 13.9998 15.9996C11.84 16.0023 9.15966 15.9949 6.99981 15.9996C6.69599 16.0003 6.29278 15.8995 5.99981 15.9996C5.36705 16.7706 6.00726 17.8006 6.99981 17.9996Z" fill="#E34E0C"/>
<path d="M28.9996 15.9998C28.9894 18.5643 29.0099 21.4349 28.9996 23.9998C28.2683 24.1453 26.7458 24.0664 25.9996 23.9998C25.5421 23.9588 26.0287 23.3061 25.9996 22.9998C25.9186 22.1597 25.3082 21.9268 23.9996 21.9998C23.772 22.0124 24.1479 22.0645 23.9996 21.9998C23.8165 21.9201 23.2917 21.8382 22.9996 21.9998C22.776 22.423 22.9112 22.6119 22.9996 22.9998C23.1183 23.5224 22.9985 24.5021 22.9996 24.9998C23.0025 26.0814 23.0196 26.9182 22.9996 27.9998C22.9911 28.468 23.3921 29.51 22.9996 29.9998C22.8553 30.1799 23.7041 29.938 23.9996 29.9998C24.6625 30.1386 25.3339 30.0705 25.9996 29.9998C26.3465 29.9629 26.0093 29.2324 25.9996 28.9998C25.9842 28.6395 26.0065 28.3601 25.9996 27.9998C25.6123 27.7314 25.4817 28.0028 24.9996 27.9998C24.4081 27.9964 23.9956 28.3768 23.9996 27.9998C24.0053 27.4776 24.0099 26.522 23.9996 25.9998C23.9911 25.577 24.3841 24.9897 24.9996 24.9998C25.4446 25.0072 25.6003 25.2425 25.9996 24.9998C26.0601 24.9998 25.9392 24.9961 25.9996 24.9998C26.7772 24.8315 28.225 25.1918 28.9996 24.9998C29.1793 24.8468 28.9991 25.1833 28.9996 24.9998C29.0059 22.2752 28.9916 18.7243 28.9996 15.9998C29.2227 16.1211 28.9991 15.8423 28.9996 15.9998Z" fill="#A11F32"/>
<path d="M15 18C13 18.0034 11 17.9966 9 18C9.37693 18.7187 9.01232 19.2731 9 20C8.9916 20.5228 9.09995 21.0491 10 21C10.4828 20.9738 11.5435 20.7754 12 21C12.047 21.0027 11.9541 20.9935 12 21C12.0409 20.984 11.9586 21.0157 12 21C12.2946 20.7628 12.0095 20.2675 12 20C11.9877 19.635 12.3778 19.9854 13 20C13.4441 20.0102 13.562 20.0791 14 20C14.1501 19.9744 14.8936 19.0658 15 19C14.4226 18.4892 14.9754 18.4805 15 18Z" fill="#A11F32"/>
<path d="M15 20.0005C14.8816 20.0021 15.1184 19.9989 15 20.0005C14.6124 20.2759 14.0011 20.6565 14 21.0005C13.9926 22.5539 14.013 24.447 14 26.0005C13.9977 26.2515 14.4374 25.8655 14 26.0005C13.4181 26.1798 13.017 26.5029 13 26.0005C12.9677 25.0299 13.0062 23.9714 13 23.0005C12.9983 22.7634 13.1059 22.2287 13 22.0005C12.9054 21.7963 12.434 21.9044 12 22.0005C12 22.0005 12.0006 22.0005 12 22.0005C12.0142 24.4412 11.9836 26.5602 12 29.0005C12.0051 29.7736 11.8883 29.9957 13 30.0005C14.5548 30.0069 14.9994 29.8064 15 29.0005C15.0023 25.9552 15.0062 23.0453 15 20.0005Z" fill="#A12133"/>
<path d="M26.0003 26.0002C25.3012 25.9514 24.7171 25.99 24.0003 26.0002C23.3619 26.0093 22.9937 25.6832 23.0003 26.0002C23.0135 26.6357 23.0194 27.3646 23.0003 28.0002C22.9904 28.3425 23.3098 29.0161 24.0003 29.0002C24.6722 28.9846 25.327 29.0015 26.0003 29.0002C26.0095 28.085 25.991 26.9154 26.0003 26.0002Z" fill="#E34E0C"/>
<path d="M22.9999 23.0001C23.1178 23.0312 22.9873 22.9566 22.9999 23.0001C23.1943 23.6754 24.2557 23.3434 24.9999 23.0001C25.5113 22.7644 25.9109 23.7272 25.9999 24.0001C26.382 25.1693 26.0873 25.1601 27.9999 25.0001C28.2791 24.9768 28.7514 24.9563 28.9999 25.0001C29.4139 25.0731 28.9668 25.1244 28.9999 25.0001C28.74 25.0009 28.2592 25.0009 27.9999 25.0001C26.2389 24.9951 26.1666 25.1158 25.9999 24.0001C25.9235 23.4891 25.6244 22.9683 24.9999 23.0001C23.5229 23.0755 23.0023 22.9305 22.9999 22.0001C22.9987 21.519 22.8964 21.4719 22.9999 21.0001C23.1732 20.2084 22.9668 18.7713 22.9999 18.0001C23.0089 17.7877 22.2905 18.0025 21.9999 18.0001C21.4482 17.9963 21.5498 17.9823 20.9999 18.0001C20.231 18.025 20.0198 18.691 19.9999 19.0001C19.9476 19.8358 20.0138 20.1633 19.9999 21.0001C20.0523 21.0405 19.9392 21.0355 19.9999 21.0001C20.0222 20.4616 19.9777 20.5387 19.9999 20.0001C20.915 19.9322 22.1432 19.4557 22.9999 20.0001C23.0138 21.0509 22.9867 21.9509 22.9999 23.0001Z" fill="#A12134"/>
<path d="M19.9998 21C19.9451 20.9992 20.0546 21.0043 19.9998 21C17.3816 21.0356 17.0307 21.7777 16.9998 20C16.9911 19.4937 17.4449 18.4841 16.9998 18C17.0103 19.4409 17.0068 20.5591 16.9998 22C16.9981 22.377 17.3659 22.9746 17.9998 23C19.8612 23.0742 19.7778 23.1854 19.9998 22C20.0348 21.8144 19.9672 21.186 19.9998 21Z" fill="#A01F31"/>
<path d="M17.9996 26C19.4552 26 19.9985 25.9751 19.9996 25C20.0002 23.9848 20.3676 24.0009 18.9996 24C18.2619 23.9995 16.992 24.0895 16.9996 25C17.009 26.1637 16.5705 26 17.9996 26Z" fill="#A01E31"/>
<path d="M15.9996 17.9999C15.1312 17.8265 15.032 18.2878 14.9996 18.9999C14.9574 19.9376 15.3426 19.95 15.9996 19.9999C16.9257 20.0702 16.9534 19.5474 16.9996 18.9999C17.0638 18.2394 16.6969 17.8128 15.9996 17.9999Z" fill="#602200"/>
<path d="M23 20.0001C22.764 19.4897 22.9087 18.3224 22 19.0001C21.7574 19.1813 21.2739 19.0428 21 19.0001C20.6251 18.9418 20.0891 19.5228 20 20.0001C21.0024 20.0092 22.0222 19.6586 23 20.0001Z" fill="#A11F32"/>
<path d="M1.99992 22.0002C1.99992 20.429 1.99699 19.5714 1.99992 18.0002C2.00051 17.6218 1.82363 17.0154 0.999919 17.0002C0.286429 16.9871 0.0796518 17.5528 -8.08153e-05 18.0002C-0.221691 19.2436 -0.0862624 19.7548 -8.07895e-05 21.0002C0.131244 22.91 0.0421307 25.0861 -8.07379e-05 27.0002C-0.0106336 27.4748 0.072441 27.9751 0.999919 28.0002C1.75328 28.0206 2.0052 27.4349 1.99992 27.0002C1.98174 25.386 1.99933 23.6145 1.99992 22.0002Z" fill="#060304"/>
<path d="M9.00006 7.99989C9.00578 8.69083 9.07041 9.31172 9.00006 9.99989C8.94402 10.5463 9.01357 11.0294 10.0001 10.9999C11.5762 10.9527 11.9583 11.0687 12.0001 11.9999C12.0166 12.3708 12.4568 12.9735 13.0001 12.9999C13.5691 13.0273 13.4585 12.7943 14.0001 12.9999C14.1242 13.0134 14.8754 12.9864 15.0001 12.9999C15.9545 13.1126 17.0902 13.3178 18.0001 12.9999C18.5868 12.9926 18.4185 12.9718 19.0001 12.9999C19.7178 13.0346 20.0927 12.4076 20.0001 11.9999C19.9749 11.8896 20.0212 12.1108 20.0001 11.9999C19.9229 11.595 20.2978 11.003 21.0001 10.9999C22.9233 10.9912 22.9989 11.1738 23.0001 9.99989C23.0006 9.62547 22.9612 9.37258 23.0001 8.99989C23.0401 8.61646 22.6583 8.00266 22.0001 7.99989C21.4053 7.99746 20.5714 8.21033 20.0001 7.99989C19.9469 8.00128 20.0527 8.00578 20.0001 7.99989C19.9686 8.01826 20.0321 7.98152 20.0001 7.99989C19.9858 8.41071 20.6198 9.00405 21.0001 8.99989C21.962 8.99018 21.8125 8.64107 22.0001 8.99989C22.2151 9.41106 22.7578 10.6858 22.0001 10.9999C21.3407 11.2731 21.1167 10.4873 21.0001 9.99989C20.9606 9.83383 20.1722 10.1417 20.0001 9.99989C19.8685 9.89173 20.1608 9.8782 20.0001 9.99989C19.896 10.0966 20.0281 9.8886 20.0001 9.99989C19.8148 10.7331 19.2731 11.0002 18.0001 10.9999C16.0019 10.9992 13.9976 10.9895 12.0001 10.9999C11.7221 10.9874 12.0006 11.1923 12.0001 10.9999C11.9966 10.3467 11.9692 9.65304 12.0001 8.99989C12.0069 8.85498 11.9166 8.11984 12.0001 7.99989C12.0269 7.93437 12.0675 8.05328 12.0001 7.99989C11.8645 7.93575 12.1636 7.9985 12.0001 7.99989C11.3933 7.99261 10.6045 7.97389 10.0001 7.99989C9.67238 8.0148 9.18593 7.78633 9.00006 7.99989Z" fill="#EC8417"/>
<path d="M9.00024 16.0003C10.3382 16 11.6634 16.0218 13.0002 16.0003C13.7353 15.9886 14.1358 15.6728 14.0002 15.0003C13.9091 14.5486 13.7038 13.9482 13.0002 14.0003C12.6021 14.03 11.9406 13.6996 12.0002 14.0003C12.1138 14.5721 11.9681 14.9946 11.0002 15.0003C8.96829 15.0125 7.02656 15.1371 5.00024 15.0003C4.70779 14.9807 4.20439 14.8043 4.00024 15.0003C3.68586 15.3021 4.33998 15.9939 5.00024 16.0003C6.33706 16.0143 7.66229 16.0011 9.00024 16.0003Z" fill="#060304"/>
<path d="M17.9997 13C17.0778 13.0117 15.8947 12.7371 14.9997 13C14.9957 13.7955 15.0036 15.2046 14.9997 16C14.8737 16.1127 14.7993 15.9157 14.9997 16C15.5085 16.0014 16.497 15.9671 16.9997 16C17.8051 16.0527 18.0931 15.4626 17.9997 15C17.9722 14.8651 17.9722 15.138 17.9997 15C18.0321 14.4089 17.9678 13.5919 17.9997 13Z" fill="#DE9E58"/>
<path d="M14.9996 15.9997C14.9738 15.8835 15.0253 16.1156 14.9996 15.9997C14.7244 15.9695 15.0721 15.8947 14.9996 15.9997C14.725 16.216 14.3347 15.9986 13.9996 15.9997C11.8175 16.0075 9.18167 15.9947 6.99957 15.9997C6.65546 16.0005 6.3077 15.8374 5.99957 15.9997C8.71941 16.0036 11.2797 15.9958 13.9996 15.9997C14.2921 16.0001 14.7574 16.1357 14.9996 15.9997Z" fill="#A01F30"/>
<path d="M28.9997 25.9997C28.3405 26.0846 27.6379 25.7141 26.9997 25.9997C27.6651 25.9954 28.3343 26.0044 28.9997 25.9997C29.0059 26.0408 29.0016 25.9586 28.9997 25.9997Z" fill="#681415"/>
<path d="M11 8.99952C11.1194 9.00353 11.8806 8.99551 12 8.99952C12.5805 9.2988 12.3689 9.04846 13 8.99952C13.4817 8.96181 13.9608 8.31044 14 7.99952C14.038 7.69743 13.9934 7.30001 14 6.99952C13.9831 6.4499 15.2447 6.57963 15 5.99952C14.959 5.90283 14.8252 5.96381 15 5.99952C15.806 6.164 16.2109 5.74918 17 5.99952C17.8729 6.05528 19.1422 6.22258 20 5.99952C19.9234 5.62401 19.3105 5.03081 19 4.99952C18.408 4.94014 17.5582 5.25227 17 4.99952C16.6678 4.19795 16.991 3.80791 17 2.99952C17.0066 2.40376 16.9862 1.96943 16 1.99952C14.2657 2.05248 14 1.84571 14 2.99952C14 3.53871 14.0199 4.46033 14 4.99952C13.994 5.16802 14.4804 4.97625 14 4.99952C13.9747 5.01597 14.0253 4.98307 14 4.99952C13.4973 5.20974 12.5305 4.99832 12 4.99952C11.2471 5.00072 10.9711 5.4519 11 5.99952C11.0392 6.74532 11.0211 7.25211 11 7.99952C10.8891 8.11145 10.8439 8.91527 11 8.99952Z" fill="#E15518"/>
<path d="M12.0005 7.99971C11.982 7.9188 12.019 8.08128 12.0005 7.99971C11.752 7.39022 12.0702 6.61417 12.0005 5.99971C11.9772 5.79378 12.2655 5.17214 12.0005 4.99971C11.4428 4.93305 10.5577 4.93173 10.0005 4.99971C9.89187 5.03917 9.10906 4.95991 9.00046 4.99971C8.59122 5.63439 8.92269 6.3501 9.00046 6.99971C9.0218 7.17645 9.0972 7.82429 9.00046 7.99971C8.94261 8.04016 9.05832 7.95925 9.00046 7.99971C8.96585 8.02557 8.99145 7.97218 9.00046 7.99971C9.00947 8.02756 8.98956 7.99971 9.00046 7.99971C9.06448 8.02391 8.9483 8.03651 9.00046 7.99971C9.0512 8.00899 8.94972 7.99009 9.00046 7.99971C9.76109 7.83291 11.2422 8.18839 12.0005 7.99971Z" fill="#231006"/>
<path d="M8.99962 8.00038C8.92642 7.998 9.0722 8.00275 8.99962 8.00038C8.21399 7.91185 6.78647 7.92406 5.99962 8.00038C5.56837 8.67126 6.08989 9.31897 5.99962 10.0004C5.96851 10.2344 5.99718 10.7646 5.99962 11.0004C6.91212 11.1072 8.08345 11.0445 8.99962 11.0004C9.00694 10.0799 8.99169 8.9209 8.99962 8.00038Z" fill="#080707"/>
<path d="M17.0001 4.99953C17.9356 4.93772 20.1526 5.40143 21.0001 4.99953C21.6781 4.26853 21.6498 2.73214 21.0001 1.99953C20.2219 1.60086 17.8714 1.99047 17.0001 1.99953C16.6846 2.00276 16.9975 1.86427 17.0001 1.99953C17.0108 2.73214 16.9824 4.26691 17.0001 4.99953Z" fill="#0A0404"/>
<path d="M23.0004 7.99965C22.9997 8.78602 23.0325 10.2136 23.0004 10.9997C22.9872 11.3242 23.3194 11.0282 24.0004 10.9997C24.2985 10.987 24.7052 10.9811 25.0004 10.9997C25.898 11.0564 26.038 10.422 26.0004 9.99965C25.9371 9.28595 26.0018 8.71435 26.0004 7.99965C25.1154 7.853 23.8869 8.13469 23.0004 7.99965C23.0736 8.00131 22.928 7.99998 23.0004 7.99965Z" fill="#060505"/>
<path d="M11.0005 2.00037C10.5953 2.03806 11.0011 2.83364 11.0005 3.00037C10.9986 3.62143 11.026 4.37964 11.0005 5.00037C10.9877 5.3148 11.4651 5.01021 12.0005 5.00037C12.6539 4.98882 13.3464 4.99425 14.0005 5.00037C14.0412 4.99561 13.9907 5.02346 14.0005 5.00037C13.9919 4.27642 13.953 3.72296 14.0005 3.00037C14.0278 2.57659 13.7853 1.93585 13.0005 2.00037C12.5314 2.03908 11.4318 1.8058 11.0005 2.00037C11.1416 2.07881 11.8033 1.96981 12.0005 2.00037C13.1722 2.18169 12.9299 2.32022 13.0005 3.00037C13.0254 3.23738 13.0601 3.76505 13.0005 4.00037C12.9232 4.30496 12.5285 5.0187 12.0005 5.00037C11.4517 4.98101 12.0211 4.18169 12.0005 4.00037C11.9591 3.63635 12.0163 3.36506 12.0005 3.00037C11.9907 2.76301 11.3582 2.17898 11.0005 2.00037Z" fill="#231006"/>
<path d="M8.99987 5.00018C8.99987 5.82781 8.99987 6.17255 8.99987 7.00018C9.0063 7.17208 8.99344 7.82828 8.99987 8.00018C9.3577 7.00791 8.93029 5.99972 8.99987 5.00018C9.05892 4.99978 8.9414 5.00018 8.99987 5.00018Z" fill="#24313B"/>
<path d="M9.00029 10.9998C8.00965 10.9917 6.99094 11.0076 6.00029 10.9998C5.99501 11.0432 6.00558 10.9564 6.00029 10.9998C6.9982 10.9979 8.00238 11.0018 9.00029 10.9998C9.0069 11.0328 9.00293 10.9661 9.00029 10.9998Z" fill="#24313B"/>
<path d="M26.0002 7.99955C25.9468 8.00188 25.0536 8.00265 25.0002 7.99955C24.5665 8.0042 24.434 7.99452 24.0002 7.99955C24.6281 8.23399 25.3543 7.94491 26.0002 7.99955C26.1759 8.01079 25.8809 7.86548 26.0002 7.99955Z" fill="#4F2E1F"/>
<path d="M6.00011 8.00034C6.66425 8.00189 7.33596 7.99879 8.00011 8.00034C8.00268 7.96198 7.99856 8.03832 8.00011 8.00034C7.33442 8.04646 6.64673 7.7628 6.00011 8.00034Z" fill="#24313B"/>
<path d="M18.0005 -8.06699e-10C18.0104 0.333509 17.9905 0.666754 18.0005 1C18.2413 0.664912 18.301 0.331403 18.0005 -8.06699e-10Z" fill="#24313B"/>
<path d="M9 4.99984C9.66686 4.99984 10.3337 4.99984 11 4.99984C10.3331 4.82779 9.66629 4.82857 9 4.99984Z" fill="#24313B"/>
<path d="M20.0004 8.00034C20.7031 7.99717 21.2989 7.98136 22.0004 8.00034C22.6534 8.01826 23.018 8.3366 23.0004 8.00034C22.9676 7.37841 22.9788 6.62262 23.0004 6.00034C23.0128 5.63772 22.6684 4.99823 22.0004 5.00034C19.5186 5.00877 20.0455 4.88789 20.0004 6.00034C19.9755 6.60364 20.0043 7.39703 20.0004 8.00034Z" fill="#060405"/>
<path d="M20.0003 4.99999C19.1905 4.79701 17.8287 5.03967 17.0003 4.99999C16.633 5.18887 16.9739 5.77143 17.0003 5.99999C17.0646 6.5568 17.0096 7.43826 17.0003 7.99999C16.997 8.19117 17.655 7.98294 18.0003 7.99999C18.6946 8.03442 19.3757 8.29118 20.0003 7.99999C19.9876 7.19166 20.0129 5.80832 20.0003 4.99999Z" fill="#E95719"/>
<path d="M20.9999 12.0002C19.549 11.9998 20.0576 12.6175 19.9999 13.0002C19.9607 13.2586 20.2115 13.0317 20.9999 13.0002C21.1019 12.9961 20.8965 13.0002 20.9999 13.0002C22.4943 13.0004 22.9093 12.3663 22.9999 12.0002C23.0987 11.6046 21.7156 12.0084 20.9999 12.0002Z" fill="#0A0606"/>
<path d="M5.9996 16.9999C5.55395 16.8655 4.96798 17.3235 4.9996 16.9999C5.02295 16.7602 5.00495 16.2415 4.9996 15.9999C2.74992 15.9348 3.02295 16.3205 2.9996 17.9999C2.96068 20.8071 2.99182 23.1924 2.9996 25.9999C3.00057 26.2734 2.60017 26.9243 2.9996 26.9999C3.599 27.1134 4.4041 27.1748 4.9996 26.9999C5.25989 26.9235 5.9996 26.1947 5.9996 25.9999C6.00398 23.334 5.9962 20.6659 5.9996 17.9999C6.00009 17.7104 5.4328 17.0876 5.9996 16.9999Z" fill="#A01F30"/>
<path d="M11.0001 22.0002C11.5042 22.103 10.9981 21.8018 11.0001 22.0002C11.0112 23.0705 11.0695 23.9314 11.0001 25.0002C10.9615 25.5947 12.3271 25.9978 13.0001 26.0002C13.6855 26.0027 14.0204 25.5862 14.0001 25.0002C13.9399 23.2236 14.0067 21.7776 14.0001 20.0002C13.265 19.9974 12.7353 20.0094 12.0001 20.0002C11.4725 19.9935 10.9811 19.7087 11.0001 20.0002C11.0263 20.3974 10.9916 21.6031 11.0001 22.0002Z" fill="#E34E0C"/>
<path d="M10.9996 11.0003C13.5658 11.0082 16.4339 10.9809 18.9996 11.0003C19.6161 11.0052 20.0454 10.4076 19.9996 10.0003C19.9635 9.67957 19.9959 9.323 19.9996 9.00035C19.7265 8.77427 19.3882 9.01832 18.9996 9.00035C17.7268 8.94196 18.1071 8.7471 17.9996 8.00035C17.9733 7.81881 17.1713 8.15831 16.9996 8.00035C16.6819 7.50065 17.1529 6.50754 16.9996 6.00035C16.9599 5.93073 17.0973 6.04265 16.9996 6.00035C16.1466 5.80945 14.8642 5.86447 13.9996 6.00035C13.8933 6.03067 14.0668 5.94158 13.9996 6.00035C13.8377 6.30691 13.9959 6.68892 13.9996 7.00035C14.0026 7.25975 13.3699 7.86447 12.9996 8.00035C12.743 8.05163 13.2617 7.9981 12.9996 8.00035C11.4024 8.01457 11.0014 8.05147 10.9996 9.00035C10.999 9.48283 11.0063 9.51786 10.9996 10.0003C10.9953 10.2261 10.7216 10.8263 10.9996 11.0003Z" fill="#FDEB43"/>
<path d="M16.9996 8.00038C16.9311 9.4507 17.5131 9.97083 19.9996 10.0004C20.13 10.0018 19.8692 9.99468 19.9996 10.0004C20.2452 10.2096 19.9893 9.77473 19.9996 10.0004C20.0244 10.5641 21.0808 11.1595 21.9996 11.0004C22.5696 10.9018 22.9965 10.3157 22.9996 10.0004C23.0044 9.53841 22.9839 9.37764 21.9996 9.00038C21.9456 8.97973 21.9965 9.01283 21.9996 9.00038C22.2525 8.05473 21.5223 8.14594 20.9996 8.00038C20.7752 7.93774 20.0845 8.19007 19.9996 8.00038C19.5126 7.99468 19.4714 7.95375 18.9996 8.00038C18.0092 8.09825 17.9177 7.52676 17.9996 7.00038C18.1087 6.3003 16.8546 5.70721 16.9996 5.00038C16.1815 4.70817 15.8601 5.13989 14.9996 5.00038C14.8025 4.96834 13.9019 4.8573 13.9996 5.00038C14.3168 5.46341 14.0954 6.58503 13.9996 7.00038C14.1318 7.06871 13.8619 7.06302 13.9996 7.00038C14.5751 6.82812 15.1221 6.45843 14.9996 6.00038C14.9238 5.71743 15.666 4.99361 15.9996 5.00038C16.3562 5.00749 16.1136 5.77331 15.9996 6.00038C15.8007 6.39757 16.4726 6.8363 16.9996 7.00038C17.2846 7.49224 16.7382 7.50815 16.9996 8.00038Z" fill="#EE8415"/>
<path d="M9.00005 10.0001C9.00005 10.2066 8.96464 9.79882 9.00005 10.0001C9.04741 10.2684 8.45224 10.9299 9.00005 11.0001C9.54914 11.0702 10.9245 10.4052 11 10.0001C11.1276 9.31358 10.7484 8.61562 10 8.00005C9.68348 7.73941 9.32003 7.93796 9.00005 8.00005C8.66129 8.06559 9.01242 8.78924 9.00005 9.00005C8.98341 9.28829 9.00005 9.71105 9.00005 10.0001Z" fill="#ED8414"/>
<path d="M12 10.9996C12.0013 10.2777 12.0494 9.72004 12 8.99955C11.9712 8.57995 12.2609 7.98195 13 7.99955C13.4753 8.01094 13.5729 8.22867 14 7.99955C13.1983 7.92778 12.8036 7.96021 12 7.99955C11.5791 8.06028 10.9962 8.76146 11 8.99955C11.0106 9.6493 10.9981 10.3498 11 10.9996C11.0006 11.2194 11.4885 10.9882 12 10.9996Z" fill="#FCC937"/>
<path d="M11.9999 8.99971C12.7712 9.00544 14.2287 8.99399 14.9999 8.99971C15.6018 8.75399 14.9693 8.38046 14.9999 7.99971C15.0246 7.69816 14.9951 7.30221 14.9999 6.99971C14.8666 6.99733 15.1339 7.0021 14.9999 6.99971C14.9579 8.77894 14.2951 8.91335 11.9999 8.99971C12.0005 8.96393 11.9993 9.03502 11.9999 8.99971Z" fill="#ED8515"/>
<path d="M11.9996 2.00039C12.0015 2.714 11.9758 3.28717 11.9996 4.00039C12.0088 4.28395 11.4371 4.93694 11.9996 5.00039C12.5792 5.0658 13.9459 4.42965 13.9996 4.00039C14.0814 3.35061 14.1438 2.64076 13.9996 2.00039C13.951 1.78301 13.2063 2.00274 12.9996 2.00039C12.6548 1.99647 12.3445 2.00274 11.9996 2.00039C11.9996 2.00039 11.9992 2 11.9996 2.00039Z" fill="#0C0505"/>
<path d="M16.9996 6.00013C16.6884 5.77835 16.391 5.2894 16.9996 5.00013C17.1552 4.92603 16.3089 5.02623 15.9996 5.00013C15.4763 4.95582 15.5269 4.96083 14.9996 5.00013C14.7508 5.01858 13.8703 4.92814 13.9996 5.00013C14.6234 5.3461 14.3877 5.76833 13.9996 6.00013C14.9891 5.99907 16.0101 6.00092 16.9996 6.00013Z" fill="#ED8515"/>
<path d="M18.0002 9C17.9148 8.33475 18.4106 7.64536 18.0002 7C18.1352 7.66241 17.6529 8.35085 18.0002 9Z" fill="#ED8515"/>
</g>
<defs>
<clipPath id="clip0_8091_67566">
<rect width="31" height="32" fill="white" transform="translate(0 31) rotate(-90)"/>
</clipPath>
</defs>
</svg>
