<svg width="55" height="51" viewBox="0 0 55 51" fill="none" xmlns="http://www.w3.org/2000/svg">
<g clip-path="url(#clip0_8091_69132)">
<path d="M6.24957 48.5284C6.24733 47.5178 6.40137 47.1428 6.14787 45.37C5.83944 43.2114 6.03361 41.0427 6.02635 38.8785C6.02568 38.6069 6.11352 38.3414 6.34666 38.1303C6.46356 38.0457 6.5864 38.0395 6.71452 38.1112C7.05267 38.4232 7.06984 38.8147 7.06323 39.2012C7.04342 40.2995 7.15107 41.3995 7.00181 42.4945C6.98398 42.8255 7.05135 43.1543 7.05861 43.4864C7.08305 44.5136 8.0704 44.9947 9.14758 44.5187C9.34769 44.4302 9.50091 44.3181 9.51346 44.1115C9.66933 41.4516 10.1257 38.79 9.33977 36.1408C9.15683 35.5236 9.13239 34.87 9.56564 34.2976C9.82387 33.9565 9.70763 33.5974 9.74858 33.2435C9.83642 31.7598 9.56762 30.2677 9.9084 28.7907C10.9037 28.0671 12.0046 28.3533 13.097 28.5505C13.6458 29.2831 13.2687 30.103 13.4008 30.8743C13.4484 31.2921 13.6907 31.6842 13.6683 32.1093C13.6306 32.8312 14.0665 33.0413 14.8538 33.0127C15.8999 32.9752 15.8834 32.894 15.9977 32.0337C16.2321 30.2671 16.1245 28.5001 16.1984 26.7346C16.2077 26.5185 16.2876 26.3219 16.4877 26.1712C17.3773 25.7982 18.2854 25.8615 19.2008 26.0849C20.0825 26.8142 20.3453 27.9052 19.8837 28.9039C19.778 32.0163 19.7496 35.1287 19.9008 38.24C19.9497 39.2381 19.8909 40.2356 19.9378 41.2326C19.9775 42.0783 20.2311 42.234 21.2739 42.2548C22.1345 42.2716 22.5017 41.9708 22.4997 41.2348C22.4924 38.3033 22.6727 35.3729 22.6146 32.4403C22.6067 32.0281 22.4977 31.5856 22.8669 31.2215C22.993 31.1403 23.1152 31.1437 23.2347 31.2311C23.5894 31.5845 23.5696 32.0146 23.5709 32.4369C23.5769 35.5488 23.7241 38.6663 23.5399 41.7709C23.1885 47.6893 23.4771 53.6073 23.3589 59.5241C23.3543 59.7655 23.3688 60.008 23.3338 60.2483C23.2149 61.0682 22.8603 61.3701 21.8841 61.3925C20.4226 61.4256 18.9597 61.4032 17.4975 61.4032C14.4661 61.4037 11.4347 61.4116 8.40326 61.3998C6.74688 61.3931 6.10824 60.9825 6.36713 59.6182C6.88624 56.8827 6.6815 54.1455 6.7482 51.4078C6.79877 49.2938 6.25316 50.043 6.24957 48.5284Z" fill="#852A0D"/>
<path d="M31.712 63.6751C22.5682 63.8128 13.4251 63.9966 4.282 63.6717C3.7946 63.4919 3.63345 63.1755 3.63477 62.7307C3.64336 58.8292 3.64006 54.9276 3.6394 51.026C3.6394 50.5269 3.7411 50.1007 4.46627 50.071C5.14916 50.043 5.85715 49.9764 6.10019 50.7465C6.23955 51.1878 6.31946 51.6269 6.3188 52.0857C6.31285 54.7775 6.30889 57.4693 6.31814 60.1611C6.3221 61.358 6.75205 61.7539 8.15548 61.7596C12.7257 61.7764 17.3006 61.862 21.8649 61.7215C23.8918 61.6593 25.92 61.6341 27.9475 61.5842C29.2109 61.5534 29.6686 61.1737 29.6713 60.081C29.6818 55.8769 29.6752 51.6729 29.6752 47.4688C29.6752 47.2571 29.6706 47.0454 29.6765 46.8337C29.7023 45.9588 30.1606 45.4743 30.9743 45.4575C31.8243 45.4402 32.243 45.8692 32.2437 46.8023C32.249 51.7927 32.2509 56.7831 32.2397 61.7741C32.2397 62.4345 32.6267 63.19 31.712 63.6751Z" fill="#030304"/>
<path d="M31.7123 63.6759C32.1534 62.9999 31.9296 62.2768 31.9289 61.5672C31.9243 56.6703 31.9229 51.7734 31.9309 46.8766C31.9345 43.7117 29.9981 57.3003 29.9965 59.9564C29.9958 61.407 29.4694 61.8075 27.7734 61.8652C21.3592 62.0836 14.9431 62.0309 8.5269 62.036C8.13724 62.0365 7.73701 62.0315 7.36056 61.9598C6.45774 61.789 5.96968 61.3633 5.98223 60.4997C6.02185 57.7194 5.99411 54.938 6.00006 52.1571C6.00072 51.7314 5.90429 51.3226 5.82702 50.9053C5.6989 50.2136 5.16394 50.2214 4.56558 50.2472C3.92562 50.2752 3.85297 50.6432 3.85363 51.0716C3.85627 54.9407 3.8609 58.8099 3.84505 62.679C3.84372 63.0761 4.04516 63.3701 4.28226 63.672C3.73409 63.7179 3.40982 63.5908 3.41114 63.0413C3.42567 58.8155 3.41972 54.5901 3.42038 50.3642C3.42038 50.1783 3.46199 50.0047 3.63172 49.8702C4.49029 49.8742 5.3482 49.8781 6.20678 49.882C6.8223 50.2231 6.74437 50.763 6.74305 51.2699C6.73579 54.1381 6.80447 57.0064 6.54888 59.8735C6.44453 61.0413 6.83023 61.3095 8.21847 61.3112C12.7511 61.3168 17.2955 61.4709 21.8116 61.2412C23.8161 61.1393 25.8311 61.0021 27.8454 60.9309C28.6842 60.9012 28.9213 60.4733 28.9206 59.8415C28.9193 58.3601 28.9206 56.8787 28.9213 55.3972C28.9232 52.4948 28.9186 49.5924 28.9239 46.69C28.9283 43.2885 28.8337 44.6874 28.8645 41.2566C28.8717 40.5234 29.196 40.2322 30.0896 40.1784C30.6589 40.1443 31.2301 40.1823 31.8014 40.1465C32.4018 40.1084 32.6831 39.8877 32.6825 39.3473C32.6752 34.5999 32.6897 29.8526 32.6666 25.1053C32.6626 24.2366 32.339 24.0181 31.141 24.0131C27.9286 24.0002 24.7156 24.0114 21.5032 24.0064C21.0059 24.0058 20.5026 24.0506 20.0126 23.9251C19.6929 23.7913 19.4624 23.5801 19.2788 23.3264C18.9889 22.0074 18.8608 20.6901 19.3667 19.3822C19.5027 19.2445 19.6797 19.1666 19.8831 19.128C20.5568 19.1016 21.2324 19.1033 21.9067 19.1179C22.9476 19.1403 23.256 19.3302 23.3128 20.2308C23.359 20.9684 23.6926 21.2541 24.5498 21.2109C25.0352 21.1863 25.5583 21.1768 25.9295 21.5476C27.7503 21.552 29.5718 21.5834 31.3913 21.5487C32.2657 21.5319 32.6032 21.7839 32.5867 22.5428C32.5603 23.7616 32.7921 23.9123 34.2853 23.9246C35.9972 23.9386 35.9985 23.9386 35.9992 25.3595C35.9998 29.9562 36.0005 34.5529 35.9998 39.1495C35.9998 40.4338 35.9972 40.4338 34.4366 40.4383C34.2583 40.4389 34.0793 40.4383 33.901 40.44C33.1467 40.4461 32.6613 40.7615 32.5966 41.3955C32.4699 42.643 32.5697 44.6437 32.5715 46.2196C32.5748 51.7051 32.5728 57.1906 32.5728 62.6762C32.5715 63.1864 32.6976 63.7728 31.7123 63.6759Z" fill="#100505"/>
<path d="M6.42937 38.0822C6.46041 40.76 6.29927 47.2723 6.61165 49.9495C6.75035 51.1375 6.63147 51.1605 5.20888 51.1577C4.29922 51.1557 3.52748 51.2502 3.52748 51.2502C3.52748 51.2502 3.52748 51.808 3.41711 45.5404C3.41909 43.5156 3.42438 41.4909 3.41579 39.4662C3.41051 38.1528 3.31012 38.076 1.78583 38.0727C0.0581186 38.0693 3.36328e-08 38.0183 3.00708e-08 36.5246C0.0013209 32.8375 0.00132089 29.151 0.0033022 25.4639C0.00396263 23.9152 0.00528354 23.9141 1.85055 23.918C2.31154 23.9192 2.78441 23.8665 3.19586 24.1135C3.6093 24.3745 3.5208 24.761 3.52212 25.1122C3.53203 27.6774 3.59807 30.2443 3.49636 32.8061C3.44749 34.0383 3.45278 35.261 3.52212 36.4893C3.54458 36.8892 3.57033 37.2745 3.9349 37.5714C4.64751 38.0603 5.57873 37.5949 6.31578 37.9629C6.35474 38.0021 6.39239 38.0419 6.42937 38.0822Z" fill="#070405"/>
<path d="M9.65183 21.5442C10.7851 21.4793 11.9422 21.7655 13.0544 21.379C12.5703 20.9018 12.6172 20.3725 12.8384 19.8248C13.3549 19.1689 15.1949 18.8351 15.9636 19.2535C16.2278 19.3974 16.3434 19.6147 16.3559 19.8628C16.4127 20.9774 16.4075 22.092 16.3612 23.2066C16.3401 23.714 15.9934 23.9829 15.4056 23.9885C11.6345 24.0232 7.86336 24.0204 4.09225 23.9907C3.836 23.9885 3.6022 23.9213 3.42389 23.7527C3.44106 21.2143 3.06857 21.5902 6.0313 21.561C7.23792 21.5493 8.4452 21.5493 9.65183 21.5442Z" fill="#0F0505"/>
<path d="M16.4946 0.511719C17.4251 0.511719 18.3557 0.512279 19.2869 0.512279C19.6984 1.20175 19.3926 1.94947 19.5319 2.66023C18.5082 2.65295 17.4846 2.64567 16.4602 2.63838C16.3592 1.92875 16.3123 1.21855 16.4946 0.511719Z" fill="#0D0607"/>
<path d="M26.1398 17.3892C26.1378 17.5091 26.1358 17.6289 26.1339 17.7488C25.8763 19.1238 25.8743 19.0829 24.2212 19.1272C23.4062 19.149 23.1256 18.9283 23.2451 18.2674C23.3085 17.9179 23.1533 17.5511 23.3488 17.2094L23.3613 17.2004C24.1829 17.0151 25.019 17.1528 25.8479 17.1237C26.048 17.1164 26.1768 17.1948 26.1398 17.3892Z" fill="#0E0806"/>
<path d="M23.348 17.2109C23.3499 17.361 23.3532 17.5106 23.3539 17.6607C23.3598 19.0816 23.5144 19.155 25.1675 19.0329C26.2598 18.9523 25.6833 18.1026 26.133 17.7509C26.1357 18.0219 26.1271 18.293 26.1443 18.563C26.1727 19.0172 25.9441 19.2228 25.3927 19.2127C24.647 19.1993 23.9014 19.2217 23.1551 19.2289C23.2258 18.5568 22.9028 17.8578 23.348 17.2109Z" fill="#231006"/>
<path d="M26.1388 17.3906C25.2439 16.9968 24.2817 17.3133 23.3604 17.2018C24.3358 16.8602 25.3641 17.1481 26.3581 17.0215C26.3403 17.1413 26.3218 17.2612 26.3033 17.3811C26.2484 17.3844 26.1936 17.3878 26.1388 17.3906Z" fill="#231006"/>
<path d="M29.3518 46.39C29.3511 50.92 29.3525 55.4495 29.3505 59.9795C29.3498 61.0946 29.116 61.2705 27.8004 61.3147C21.3929 61.5298 14.9826 61.4968 8.57241 61.4945C6.54156 61.494 6.42598 61.3943 6.42598 59.6322C6.42598 56.7634 6.42664 53.8947 6.42598 51.0259C6.42598 50.6344 6.47089 50.2367 6.20605 49.8816C6.95037 49.9863 7.07717 50.4831 7.05076 50.971C6.90348 53.6762 7.38626 56.391 6.6928 59.0929C6.26748 60.7507 6.77139 61.1349 8.78177 61.1349C12.9907 61.1349 17.1997 61.1361 21.4087 61.1349C22.9185 61.1344 22.9218 61.1327 22.9224 59.8927C22.9237 54.5752 22.7613 49.2526 22.9746 43.9407C23.1457 39.684 23.0697 35.4329 23.1239 31.1796C23.3411 30.5411 24.0029 30.6402 24.5167 30.6587C25.4684 30.6923 25.7749 30.3473 25.724 29.5845C25.6758 28.8664 25.695 28.1428 25.7273 27.4219C25.7491 26.938 25.7907 26.4519 26.3243 26.1326C27.1083 25.833 27.9167 25.8755 28.731 26.0083C29.7223 26.2334 29.7646 26.9201 29.7732 27.5967C29.7963 29.5004 29.7804 31.4048 29.7817 33.3091C29.7831 35.0319 29.7804 36.7547 29.7824 38.4776C29.7844 39.7669 29.8861 39.8918 30.9065 39.8879C31.9559 39.884 32.1322 39.6807 32.1362 38.4087C32.1441 35.4772 32.1455 32.5451 32.1362 29.6136C32.1316 28.2251 32.1369 26.8378 32.0286 25.4482C31.9698 24.696 31.7069 24.4025 30.8365 24.4596C30.4131 24.4871 29.9792 24.4837 29.5598 24.3834C29.4278 24.3689 29.2963 24.351 29.1642 24.3347C27.2133 24.0334 25.2459 24.2529 23.2876 24.1947C22.4674 24.1701 21.6445 24.2121 20.8242 24.1779C20.461 24.1628 19.9921 24.2345 19.9254 23.7461C23.7764 23.7438 27.6281 23.736 31.4791 23.7433C32.7412 23.7455 32.9974 23.9723 32.9981 25.0074C33.0007 29.7799 32.9783 34.553 33.0199 39.3256C33.0278 40.2083 32.6732 40.5522 31.6587 40.453C31.3774 40.4256 31.0888 40.4485 30.8034 40.4485C29.087 40.4485 28.9575 40.5802 29.2686 41.986C29.6476 43.6983 29.3518 44.7424 29.3518 46.39Z" fill="#602200"/>
<path d="M28.7187 26.2707C27.9361 26.2791 27.1535 26.2875 26.3709 26.2959C25.8709 26.5496 25.3379 26.6594 24.7475 26.6504C23.4682 26.632 22.1883 26.6353 20.9084 26.6488C20.3212 26.6549 19.7783 26.5765 19.2962 26.2785C18.3677 26.2864 17.4384 26.2942 16.5098 26.3026C16.2331 27.4323 16.4279 28.5738 16.3982 29.7097C16.3593 31.2034 16.0152 31.4885 14.2445 31.3502C13.9229 31.325 13.6092 31.283 13.3424 31.1138C13.0419 30.794 13.1515 30.4103 13.1911 30.0687C13.3021 29.1171 12.9263 28.2232 12.8153 27.2996C12.7434 26.7025 12.219 26.6314 11.6378 26.637C11.0777 26.6426 10.7237 26.7087 10.443 27.2716C9.61485 28.9317 9.90941 30.6467 9.85789 32.3471C9.82421 33.455 9.57457 33.7082 8.27614 33.6057C7.40304 33.5368 7.03122 33.7944 6.95725 34.5209C6.80733 35.9888 5.04792 36.5551 3.54674 35.6371C3.51636 31.9786 3.54146 28.3212 3.53419 24.6632C3.53353 24.4835 3.50909 24.2992 3.61344 24.1295C6.35691 23.9766 9.10367 24.0897 11.8491 24.0634C12.991 24.0522 14.1382 24.0018 15.2742 24.0701C16.1796 24.125 16.4068 23.8013 16.3408 23.1286C16.3117 22.8301 16.3639 22.5259 16.3791 22.2246C16.776 22.2409 16.8268 22.5315 16.8328 22.7427C16.8546 23.5027 17.4074 23.6013 18.1259 23.5884C18.6556 23.5789 19.2018 23.5526 19.6846 23.8125C20.0102 24.0785 20.419 24.0063 20.804 24.0068C23.3018 24.0107 25.7989 24.0057 28.2967 24.0124C28.648 24.0135 29.0113 23.9446 29.3501 24.088L29.3706 24.0942C30.1023 25.1993 29.8666 25.9856 28.7187 26.2707Z" fill="#E34E0C"/>
<path d="M3.61327 24.1309C3.62515 27.9899 3.6377 31.8489 3.64959 35.7085C4.49627 35.9275 5.36607 35.9527 6.22993 35.8524C6.7596 35.7908 6.94122 35.4649 6.9749 35.0039C7.06868 33.7398 7.24502 33.6255 8.76007 33.7353C9.02358 33.7543 9.14048 33.6317 9.3122 33.5342C9.5242 33.4144 9.68931 33.1181 10.0275 33.3612C10.2863 33.998 9.73356 34.506 9.63119 35.0896C9.49382 35.876 10.0539 36.5296 10.0525 37.2784C10.0492 38.9061 10.0552 40.5337 10.0783 42.1613C10.0882 42.8659 9.56712 43.5459 10.0215 44.2829C10.1886 44.554 9.8597 44.7646 9.51759 44.8576C8.75016 45.0665 7.97084 45.0167 7.20011 44.9102C6.79856 44.8548 6.62949 44.5927 6.64072 44.2426C6.65855 43.7004 6.65921 43.1583 6.66714 42.6161C7.11558 42.2123 7.7179 42.2756 8.27597 42.2711C8.96084 42.2661 9.2336 42.0078 9.22898 41.4405C9.22238 40.6547 9.21775 39.8683 9.22964 39.0825C9.23955 38.4462 8.89017 38.2334 8.17756 38.2485C7.66242 38.2597 7.10105 38.439 6.63874 38.0738C6.56873 38.0738 6.49872 38.0766 6.42872 38.0822L6.41815 38.0732C5.51797 37.82 4.55769 38.1651 3.66082 37.8761C3.45278 37.6459 3.43957 37.3793 3.43891 37.1031C3.43165 33.0033 3.4191 28.9028 3.40985 24.803C3.41051 24.5661 3.35503 24.3134 3.61327 24.1309Z" fill="#A11F32"/>
<path d="M19.2949 26.2812C21.6533 26.2869 24.0111 26.2925 26.3695 26.2981C25.9251 27.4793 26.1701 28.6947 26.1846 29.8894C26.1945 30.7485 25.9356 31.0941 24.8743 31.0135C24.305 30.9703 23.6631 30.8107 23.1248 31.1798C23.0693 31.1843 23.0139 31.1921 22.9597 31.2028C22.9115 31.1764 22.8639 31.1496 22.8151 31.1238C22.4677 30.734 22.5205 30.2713 22.5317 29.8317C22.5463 29.2318 22.2748 28.9512 21.5411 28.9753C21.0173 28.9921 20.4837 29.0117 19.9672 28.8818C19.7903 28.8397 19.6516 28.7479 19.5261 28.6398C20.207 27.8002 19.324 27.071 19.2949 26.2812Z" fill="#A11F32"/>
<path d="M19.5267 28.6387C19.6647 28.6409 19.8021 28.6432 19.9401 28.6454C20.3918 29.0307 20.3509 29.5259 20.3522 30.007C20.3608 32.1801 20.3469 34.3533 20.3621 36.5264C20.3648 36.8776 20.2928 37.2736 20.8026 37.4623C21.4809 37.7133 22.0357 37.3946 22.0555 36.6917C22.0931 35.334 22.0627 33.9752 22.07 32.617C22.072 32.2854 22.0495 31.9483 22.173 31.629C22.2833 31.3434 22.3883 31.0219 22.8942 31.1563C22.8942 31.1563 22.9603 31.2022 22.9609 31.2022C22.9444 34.6165 22.9292 38.0308 22.9101 41.4446C22.9041 42.5261 22.7859 42.6197 21.4901 42.6264C19.6779 42.6354 19.5108 42.5452 19.5101 41.4177C19.5075 37.1577 19.5194 32.8982 19.5267 28.6387Z" fill="#A12133"/>
<path d="M6.63965 38.0774C7.33905 37.9967 8.02987 37.8853 8.74711 37.9021C9.38575 37.9172 9.64002 38.1463 9.63342 38.6705C9.62021 39.7218 9.61889 40.7737 9.63804 41.825C9.64795 42.3912 9.37981 42.6573 8.68899 42.6309C8.01666 42.6052 7.3417 42.6214 6.66805 42.6192C6.6588 41.1052 6.64889 39.5913 6.63965 38.0774Z" fill="#E34E0C"/>
<path d="M10.0283 33.362C9.89881 33.4069 9.66831 33.436 9.65444 33.4987C9.44112 34.4727 9.04089 34.3349 8.22393 33.8398C7.66256 33.4998 7.41555 34.1445 7.31781 34.5382C6.89843 36.2247 6.91098 36.2387 4.81144 36.0079C4.505 35.9743 4.26394 36.0331 3.99118 36.0964C3.53679 36.2017 3.68671 35.8886 3.65039 35.7094C3.9357 35.7105 4.22035 35.7128 4.505 35.7116C6.4381 35.7043 6.44603 35.7049 6.62897 34.0958C6.71285 33.3587 7.30394 33.2478 7.98948 33.2937C9.61085 33.4024 9.62935 33.399 9.63199 32.057C9.63331 31.3631 9.72445 30.6579 9.61085 29.9774C9.42065 28.8354 10.1174 27.8087 10.0811 26.6964C10.0712 26.39 10.336 26.2892 10.655 26.2859C11.2606 26.2803 11.8676 26.2606 12.4712 26.2864C13.3153 26.3223 13.2307 26.9188 13.2525 27.3646C13.31 28.5699 13.2981 29.7775 13.3133 30.9845C13.2558 31.0427 13.1944 31.0466 13.1277 30.9957C13.1033 30.2188 13.0788 29.4414 13.0544 28.6646C12.0499 28.5665 11.0136 28.0345 10.0732 28.8197C10.058 30.3353 10.0428 31.8487 10.0283 33.362Z" fill="#A12134"/>
<path d="M13.127 31.0005C13.189 30.9994 13.2505 30.9954 13.3125 30.9893C16.2805 31.0402 16.2541 31.0402 16.2891 28.4918C16.299 27.766 16.0051 27.0025 16.5097 26.3086C16.4978 28.3742 16.4734 30.4398 16.4813 32.5054C16.4833 33.0459 16.3182 33.3372 15.5996 33.3736C13.4895 33.48 13.4909 33.499 13.2392 31.7997C13.1996 31.5337 13.1639 31.2671 13.127 31.0005Z" fill="#A01F31"/>
<path d="M14.8987 37.9087C13.2621 37.9087 13.2621 37.9087 13.2608 36.7504C13.2601 35.5446 13.2601 35.5468 14.7983 35.5457C15.6278 35.5451 16.4976 35.4443 16.489 36.5258C16.4784 37.9081 16.5055 37.9087 14.8987 37.9087Z" fill="#A01E31"/>
<path d="M17.9405 26.4963C19.0937 26.2975 19.2727 26.7847 19.3156 27.6014C19.3717 28.6767 18.6386 28.5994 17.7662 28.6566C16.5365 28.7372 16.7491 28.0813 16.6877 27.4535C16.6025 26.5814 17.0146 26.2818 17.9405 26.4963Z" fill="#602200"/>
<path d="M10.0723 28.821C10.3067 28.2861 10.4639 27.6224 11.3667 28.3326C11.6078 28.5225 11.8924 28.3712 12.1645 28.3264C12.537 28.2654 12.9643 28.1651 13.0528 28.6653C12.0569 28.6748 11.0438 28.4631 10.0723 28.821Z" fill="#A11F32"/>
<path d="M33.6399 32.1392C33.6399 29.9325 33.6419 27.7263 33.6386 25.5195C33.6379 24.988 33.5891 24.4772 34.517 24.4559C35.3207 24.4374 35.5136 24.7393 35.6034 25.3677C35.8531 27.1141 35.7262 28.8425 35.6292 30.5917C35.4812 33.274 35.5882 35.968 35.6358 38.6564C35.6477 39.3229 35.6787 39.8668 34.6339 39.9021C33.7852 39.9306 33.626 39.5509 33.632 38.9404C33.6525 36.6731 33.6406 34.4065 33.6399 32.1392Z" fill="#060304"/>
<path d="M26.1306 12.3597C26.124 13.476 26.05 14.5961 26.1313 15.7079C26.196 16.5906 25.9391 16.9441 24.7998 16.8964C22.9797 16.8203 22.948 16.8836 22.8997 18.388C22.8806 18.9873 22.5477 19.1631 21.9203 19.2057C21.2632 19.2499 20.5757 19.0186 19.9502 19.3508C19.8069 19.3726 19.6636 19.3944 19.5196 19.4163C18.4173 19.5983 17.3164 19.7574 16.2656 19.2438C15.588 19.232 14.9065 19.1743 14.2348 19.2197C13.4059 19.2757 13.1286 18.9845 13.2355 18.3258C13.2646 18.1477 13.221 17.9617 13.2455 17.7825C13.3346 17.1283 13.0381 16.8729 12.2271 16.8679C10.006 16.8539 10.006 16.827 10.0047 14.9305C10.004 14.3256 10.0423 13.719 9.99741 13.1169C9.95118 12.4975 10.2068 12.2634 10.9669 12.2589C11.6538 12.255 12.3809 12.4555 13.0407 12.1155L13.0612 12.0993C13.1226 12.1015 13.184 12.0981 13.2448 12.0886C13.2811 12.1183 13.3174 12.148 13.3544 12.1777C13.3709 12.8414 12.7343 12.7798 12.2951 12.7731C11.1842 12.7574 10.9656 13.5359 10.749 14.1156C10.5007 14.7799 10.4637 15.564 11.3388 16.0714C12.1002 16.5128 12.5632 16.3459 12.6979 15.5584C12.7435 15.2901 12.7389 15.0106 12.9377 14.7815C13.0896 14.6068 13.2712 14.5653 13.4568 14.7619C13.577 14.9182 13.6265 15.0924 13.6589 15.2722C13.8729 16.4568 13.8729 16.5268 15.343 16.5262C17.6506 16.5251 19.9588 16.4725 22.2657 16.4893C22.5867 16.4691 22.8119 16.3644 22.8126 16.0535C22.8165 14.9983 22.837 13.9425 22.8013 12.8873C22.7934 12.6532 22.5352 12.5389 22.4388 12.3451C22.4077 12.2393 22.4315 12.1446 22.5094 12.0584C22.666 11.9548 22.8482 11.9402 23.0371 11.9424C23.7378 11.9307 24.4379 11.9301 25.136 11.9721C25.5144 11.9962 25.916 12.0147 26.1306 12.3597Z" fill="#EC8417"/>
<path d="M26.3068 23.1898C24.7356 23.1892 23.1644 23.2133 21.5946 23.1797C20.7314 23.1612 20.203 22.2533 20.3622 21.1986C20.4692 20.4901 20.9361 20.2073 21.7623 20.2891C22.2299 20.3355 22.4393 20.4532 22.3693 20.9248C22.2359 21.8215 22.5502 22.0881 23.6868 22.097C26.073 22.1161 28.4605 22.1424 30.8401 21.9279C31.1835 21.8971 31.5679 21.8719 31.8076 22.1794C32.1768 22.6526 31.7944 23.1735 31.019 23.1836C29.4492 23.2055 27.878 23.1909 26.3068 23.1898Z" fill="#060304"/>
<path d="M16.2656 19.2428C17.3534 19.2624 18.4636 18.9734 19.5196 19.4153C19.5242 20.7523 19.5289 22.0886 19.5335 23.4256C19.6821 23.6149 19.6841 23.7857 19.4476 23.9274C18.8473 23.9297 18.2417 23.8888 17.6486 23.9442C16.6982 24.0327 16.3548 23.7006 16.4651 22.9232C16.4974 22.6963 16.4116 22.4577 16.3792 22.2259C16.3409 21.2323 16.3033 20.2375 16.2656 19.2428Z" fill="#DE9E58"/>
<path d="M19.4482 23.9267C19.4766 23.7587 19.5057 23.5912 19.5341 23.4238C19.8372 23.3801 19.8465 23.5929 19.9264 23.7447C20.2289 24.0572 20.6476 23.9284 21.0168 23.9301C23.4208 23.9413 25.8248 23.9323 28.2288 23.9396C28.6079 23.9407 29.0127 23.8556 29.3522 24.0903C26.3558 24.0959 23.3594 24.102 20.363 24.1076C20.0407 24.1082 19.7151 24.1233 19.4482 23.9267Z" fill="#A01F30"/>
<path d="M3.66093 37.8786C4.57432 38.0013 5.53394 37.663 6.41827 38.0758C5.49629 38.0696 4.57432 38.0629 3.65235 38.0562C3.64971 37.9968 3.65235 37.938 3.66093 37.8786Z" fill="#681415"/>
<path d="M22.8885 12.1162C22.7577 12.1218 22.6263 12.1269 22.4956 12.1325C21.8596 12.5503 21.1317 12.3991 20.4403 12.3308C19.9126 12.2781 19.6761 11.9286 19.6332 11.4945C19.5916 11.0728 19.6141 10.6499 19.6068 10.2304C19.6253 9.4631 18.9523 8.78091 19.2204 7.97101C19.2653 7.83603 19.0388 7.69769 18.8473 7.74754C17.9643 7.97717 17.0093 7.6736 16.1448 8.0231C15.1885 8.10095 14.2308 8.25722 13.291 7.94581C13.3749 7.42156 13.8663 7.63384 14.2064 7.59015C14.8549 7.50726 15.5491 7.7425 16.1606 7.38964C16.5245 6.27058 16.3218 5.12799 16.3119 3.99941C16.3046 3.16767 16.5397 2.80697 17.6202 2.84898C19.5203 2.92291 19.5223 2.8725 19.5223 4.48333C19.5223 5.23609 19.5117 5.98941 19.5335 6.74217C19.5401 6.97741 19.3677 7.32635 19.8941 7.35883C19.9218 7.3818 19.9496 7.40532 19.9773 7.42829C20.5281 7.72177 21.141 7.57559 21.7222 7.57727C22.5471 7.57895 22.9453 7.81195 22.9136 8.57647C22.8707 9.61768 22.9433 10.6623 22.9664 11.7057C23.088 11.862 23.0596 11.9986 22.8885 12.1162Z" fill="#E15518"/>
<path d="M22.8887 12.1182C22.9144 11.9815 22.9402 11.8448 22.9659 11.7071C23.312 10.6776 23.0333 9.6252 23.1304 8.58735C23.1628 8.23953 23.0029 7.85643 23.3721 7.56518C24.1488 7.4526 24.9248 7.45148 25.7008 7.5663C25.8521 7.63295 26.0026 7.6996 26.1539 7.76681C26.7238 8.83883 26.4498 9.95173 26.3414 11.0489C26.3117 11.3475 26.1961 11.6337 26.3309 11.93C26.4115 11.9983 26.492 12.0666 26.5726 12.135C26.6208 12.1787 26.6393 12.2235 26.6268 12.2699C26.6142 12.317 26.601 12.3405 26.5858 12.3405C26.4967 12.3814 26.4161 12.3747 26.3434 12.3125C26.2728 12.3282 26.2014 12.3433 26.1308 12.3596C25.0714 12.0778 23.9447 12.4369 22.8887 12.1182Z" fill="#231006"/>
<path d="M26.3428 12.3086C26.422 12.3047 26.5013 12.3008 26.5799 12.2969C27.4305 12.1507 28.2818 12.1641 29.1338 12.2901C29.6007 13.398 29.2441 14.5428 29.3418 15.668C29.3755 16.0545 29.3425 16.4455 29.3398 16.8347C28.3518 17.0111 27.3598 16.9423 26.3679 16.8694C26.3599 15.3494 26.3514 13.8287 26.3428 12.3086Z" fill="#080707"/>
<path d="M16.0265 7.35786C15.0451 7.25088 13.9732 7.72248 13.0843 7.02684C12.373 5.7616 12.3901 4.49467 13.0717 3.22663C13.888 2.53659 14.8774 2.9309 15.7914 2.94658C16.1223 2.95218 16.0813 3.3196 16.0787 3.55372C16.0675 4.82177 16.045 6.08981 16.0265 7.35786Z" fill="#0A0404"/>
<path d="M9.42444 12.1289C9.4251 13.4563 9.40661 14.7837 9.43699 16.1106C9.44954 16.6584 9.20914 16.8925 8.56323 16.8443C8.28056 16.823 7.98997 16.8163 7.70994 16.8477C6.85864 16.9435 6.58455 16.6404 6.62022 15.9274C6.68032 14.7227 6.63937 13.5146 6.64069 12.3081L6.6473 12.3025C7.48671 12.055 8.37699 12.3608 9.21773 12.1328C9.28641 12.1334 9.3551 12.1317 9.42444 12.1289Z" fill="#060505"/>
<path d="M22.5036 3.03454C22.9435 3.09671 22.925 3.38292 22.9256 3.65792C22.9276 4.68233 22.9091 5.70673 22.9369 6.73058C22.9507 7.24922 22.6872 7.41893 22.106 7.40269C21.3967 7.38365 20.6854 7.41445 19.9754 7.42453C19.9312 7.41669 19.9041 7.39373 19.8936 7.35564C19.9028 6.16153 19.957 4.96573 19.9054 3.77386C19.8757 3.07487 20.124 2.75337 20.976 2.85979C21.4852 2.92364 22.0373 2.71473 22.5056 3.03566C22.3524 3.16504 22.18 3.26138 21.966 3.31178C20.694 3.61087 20.626 3.68424 20.5494 4.80611C20.5223 5.19705 20.5157 5.58967 20.5804 5.97782C20.6643 6.48022 21.0427 6.72106 21.616 6.69081C22.2117 6.65889 22.0684 6.22482 22.0908 5.92573C22.1357 5.32531 22.0955 4.72209 22.1126 4.12056C22.1232 3.72905 22.1153 3.32915 22.5036 3.03454Z" fill="#231006"/>
<path d="M26.3543 7.7687C26.3543 8.91745 26.3543 10.0662 26.3543 11.2149C26.347 11.4535 26.3391 11.6927 26.3318 11.9313C25.9276 10.554 26.2334 9.15492 26.1548 7.76758C26.2209 7.76758 26.2876 7.76814 26.3543 7.7687Z" fill="#24313B"/>
<path d="M26.3684 16.8687C27.3591 16.8569 28.3497 16.8452 29.3404 16.834C29.3457 16.8967 29.3509 16.9594 29.3562 17.0222C28.3583 17.0194 27.3604 17.016 26.3625 17.0132C26.3598 16.9645 26.3618 16.9163 26.3684 16.8687Z" fill="#24313B"/>
<path d="M7.28381 12.115C7.35448 12.1183 7.42448 12.1178 7.49515 12.1133C8.06907 12.12 8.64299 12.1273 9.21691 12.1346C8.38608 12.4734 7.50109 12.2253 6.64648 12.3043C6.80433 12.1105 7.05133 12.1312 7.28381 12.115Z" fill="#4F2E1F"/>
<path d="M29.1338 12.2951C28.2825 12.2974 27.4312 12.2996 26.5799 12.3019C26.5766 12.2464 26.5733 12.191 26.5713 12.1361C27.4246 12.2027 28.3049 11.9518 29.1338 12.2951Z" fill="#24313B"/>
<path d="M16.4942 0.511719C16.483 1.22135 16.4718 1.93043 16.4605 2.63951C16.1884 1.92651 16.1548 1.21687 16.4942 0.511719Z" fill="#24313B"/>
<path d="M25.7005 7.56528C24.9238 7.56528 24.1471 7.56472 23.3711 7.56472C24.1478 7.31604 24.9244 7.31772 25.7005 7.56528Z" fill="#24313B"/>
<path d="M13.0405 12.1149C12.3312 12.1098 11.6199 12.0773 10.9119 12.1076C10.2528 12.1362 10.0388 11.902 10.0567 11.366C10.0897 10.3747 10.0831 9.38219 10.0613 8.39026C10.0488 7.81225 10.3453 7.58261 11.0196 7.58597C13.5246 7.59942 12.9996 7.43979 13.0452 9.21304C13.0703 10.1747 13.0571 11.137 13.061 12.0986L13.0405 12.1149Z" fill="#060405"/>
<path d="M13.2907 7.94863C14.2635 7.60194 15.2846 7.84278 16.2798 7.77501C16.721 8.09762 16.6484 8.56137 16.6167 8.95176C16.5394 9.90279 16.3399 10.8454 16.3512 11.8049C16.3551 12.1314 16.1504 12.4036 15.7356 12.4327C14.9015 12.4915 14.0403 12.6528 13.29 12.1555L13.2451 12.0905C13.2603 10.7099 13.2755 9.32926 13.2907 7.94863Z" fill="#E95719"/>
<path d="M11.5704 17.2039C13.063 17.2028 13.0062 17.205 13.0656 18.3056C13.1059 19.0489 12.7697 19.2919 11.9587 19.2012C11.8537 19.1894 11.7454 19.1995 11.6391 19.1995C10.1016 19.2001 10.1372 19.1654 10.0441 18.1124C9.9424 16.9748 10.834 17.2274 11.5704 17.2039Z" fill="#0A0606"/>
<path d="M28.7188 26.2744C29.3237 26.0733 29.4003 25.6644 29.3574 25.1805C29.3257 24.822 29.3633 24.4591 29.3706 24.0978C32.4245 24.0004 32.4872 23.9998 32.5189 26.5113C32.5718 30.7092 32.5401 34.9076 32.5295 39.106C32.5282 39.5149 32.6035 40.098 32.0612 40.2111C31.2476 40.3808 30.3494 40.4144 29.541 40.1529C29.1877 40.0386 29.3349 39.6084 29.3349 39.3172C29.329 35.3305 29.3343 31.3432 29.3297 27.3564C29.329 26.9235 29.4882 26.4054 28.7188 26.2744Z" fill="#A01F30"/>
<path d="M22.8936 31.1559C22.3851 31.3183 22.5218 31.6947 22.5198 32.0084C22.5086 33.7004 22.4617 35.3941 22.5317 37.0839C22.5707 38.0237 21.8937 37.8994 21.2148 37.9033C20.5233 37.9072 19.8814 38.0008 19.9018 37.0744C19.9626 34.2655 19.9335 31.455 19.9401 28.645C20.6818 28.6405 21.4242 28.6439 22.1658 28.6293C22.6981 28.6187 22.9438 28.8108 22.9247 29.2717C22.8983 29.8996 22.9022 30.528 22.8936 31.1559Z" fill="#E34E0C"/>
<path d="M22.5049 16.8458C19.7311 16.8575 16.9572 16.8592 14.184 16.8884C13.5176 16.8956 13.1848 16.7265 13.2343 16.1171C13.2733 15.6371 13.235 15.1521 13.231 14.6693C13.5262 14.331 13.972 14.3539 14.3921 14.3271C15.7678 14.2397 15.7704 14.2419 15.8866 13.1245C15.915 12.8529 15.9382 12.5829 16.1237 12.3466C16.4672 11.5989 16.1594 10.8102 16.3252 10.0513C16.3681 9.94714 16.4434 9.86481 16.5491 9.80152C17.471 9.51587 18.4009 9.54948 19.3355 9.75279C19.4504 9.79816 19.5435 9.86537 19.6161 9.9533C19.7912 10.412 19.7053 10.8853 19.7013 11.3513C19.698 11.7394 19.8235 12.0391 20.2237 12.2424C20.5011 12.3191 20.7871 12.2978 21.0704 12.3012C22.7968 12.3225 22.8146 12.3359 22.8166 13.7558C22.8173 14.4777 22.8113 15.1997 22.8186 15.9216C22.8232 16.2594 22.8054 16.5853 22.5049 16.8458Z" fill="#FDEB43"/>
<path d="M16.2906 12.3164C16.3653 14.5988 16.3653 14.5988 13.6575 14.6453C13.5155 14.6475 13.3741 14.6621 13.2321 14.671C12.9647 15.0004 13.0829 15.3745 13.0717 15.7296C13.0446 16.6168 12.6952 16.8789 11.6946 16.6285C11.0738 16.4734 10.3658 16.0875 10.3625 15.5912C10.3572 14.8643 9.7186 13.9726 10.7905 13.3789C10.8493 13.3464 10.9708 13.3134 10.9675 13.2938C10.6921 11.8056 12.0612 12.7314 12.6305 12.5023C12.8748 12.4038 13.1971 12.4525 13.2896 12.154C13.8199 12.145 14.3641 12.0677 14.878 12.1411C15.9564 12.2951 16.1803 11.9075 16.0912 11.0792C15.9723 9.97746 16.4372 8.88584 16.2794 7.7735C17.1703 7.31366 18.1861 7.70741 19.1233 7.48785C19.3379 7.43744 19.7117 7.74885 19.6054 7.97401C19.26 8.70269 19.8213 9.29078 19.9257 9.94441C19.7817 10.0519 19.6351 10.0519 19.4852 9.95337L19.4898 9.95505C18.863 9.68397 18.3439 9.37592 18.4773 8.65508C18.5599 8.20981 18.1267 8.20421 17.7634 8.21485C17.3751 8.22605 17.1604 8.38064 17.2846 8.73797C17.5012 9.36304 17.0792 9.69013 16.5053 9.94833L16.5013 9.95001C16.1909 10.7241 16.5753 11.5418 16.2906 12.3164Z" fill="#EE8415"/>
<path d="M25.9249 14.6452C25.9249 14.9471 25.9691 15.2546 25.9143 15.5487C25.841 15.9407 26.2498 16.5395 25.4018 16.642C24.5518 16.7445 23.5823 16.4286 23.4654 15.8365C23.2679 14.8334 22.9351 13.6925 24.0935 12.793C24.5835 12.4122 25.0696 12.4446 25.5649 12.5354C26.0893 12.6311 25.8991 13.0708 25.9183 13.3789C25.944 13.8001 25.9249 14.2229 25.9249 14.6452Z" fill="#ED8414"/>
<path d="M22.5061 16.8471C22.5047 15.6754 22.4645 14.5026 22.5166 13.3331C22.547 12.652 22.2518 12.433 21.4712 12.4616C20.9692 12.4801 20.4032 12.6503 19.9521 12.2784C20.7988 12.1619 21.6475 12.1955 22.4962 12.2594C22.9406 12.358 23.1242 12.6027 23.1203 12.9892C23.109 14.0438 23.1176 15.0985 23.1157 16.1531C23.115 16.5099 23.0463 16.8286 22.5061 16.8471Z" fill="#FCC937"/>
<path d="M22.497 12.2588C21.6489 12.2655 20.8003 12.2717 19.9523 12.2784C19.2905 11.9899 19.5382 11.464 19.5045 11.0171C19.4774 10.6631 19.4906 10.3074 19.4854 9.95232C19.632 9.94952 19.7786 9.94616 19.9259 9.94336C19.9721 12.0319 19.9721 12.0319 22.4956 12.1333C22.4963 12.1748 22.4963 12.2168 22.497 12.2588Z" fill="#ED8515"/>
<path d="M22.5046 3.03906C22.5019 4.05955 22.5211 5.08003 22.4867 6.09996C22.4735 6.50547 22.7311 7.08236 21.9221 7.1731C21.0886 7.26663 20.2432 6.78271 20.166 6.16885C20.0484 5.23966 20.1706 4.31607 20.378 3.40032C20.448 3.08947 20.7207 3.05475 21.0179 3.05138C21.5139 3.04578 22.0099 3.0441 22.5059 3.04074C22.5065 3.04018 22.5046 3.03906 22.5046 3.03906Z" fill="#0C0505"/>
<path d="M16.5039 9.94918C16.817 9.47814 17.379 9.05639 16.7668 8.44197C16.6102 8.28459 16.7654 8.02527 17.0765 7.96982C17.6029 7.87572 18.1325 7.87684 18.6629 7.96029C18.9132 7.9995 19.1265 8.17033 18.9964 8.32323C18.369 9.05807 19.0988 9.46302 19.4891 9.95534C18.4938 9.9531 17.4992 9.95086 16.5039 9.94918Z" fill="#ED8515"/>
<path d="M16.2914 12.315C16.3878 11.5281 16.0385 10.7126 16.5021 9.94922C16.3495 10.7328 16.6837 11.5472 16.2914 12.315Z" fill="#ED8515"/>
</g>
<g clip-path="url(#clip1_8091_69132)">
<path d="M32.6872 53.666C32.6855 52.9025 32.801 52.6191 32.6109 51.2797C32.3796 49.6487 32.5252 48.0102 32.5198 46.375C32.5193 46.1698 32.5851 45.9692 32.76 45.8097C32.8477 45.7458 32.9398 45.7411 33.0359 45.7953C33.2895 46.031 33.3024 46.3268 33.2974 46.6188C33.2826 47.4486 33.3633 48.2798 33.2514 49.1071C33.238 49.3572 33.2885 49.6056 33.294 49.8565C33.3123 50.6326 34.0528 50.9962 34.8607 50.6365C35.0108 50.5696 35.1257 50.485 35.1351 50.3288C35.252 48.3191 35.5943 46.3082 35.0048 44.3065C34.8676 43.8402 34.8493 43.3463 35.1742 42.9138C35.3679 42.6561 35.2807 42.3849 35.3114 42.1174C35.3773 40.9964 35.1757 39.8691 35.4313 38.7531C36.1778 38.2064 37.0035 38.4226 37.8228 38.5716C38.2344 39.1251 37.9515 39.7446 38.0506 40.3274C38.0863 40.6431 38.2681 40.9393 38.2512 41.2605C38.223 41.806 38.5499 41.9646 39.1403 41.9431C39.9249 41.9147 39.9125 41.8534 39.9982 41.2033C40.1741 39.8686 40.0933 38.5335 40.1488 37.1996C40.1558 37.0363 40.2157 36.8878 40.3658 36.7739C41.033 36.4921 41.7141 36.5399 42.4006 36.7088C43.0619 37.2597 43.259 38.0841 42.9128 38.8386C42.8335 41.1902 42.8122 43.5418 42.9256 45.8926C42.9623 46.6467 42.9182 47.4004 42.9534 48.1537C42.9831 48.7927 43.1733 48.9103 43.9554 48.926C44.6008 48.9387 44.8762 48.7114 44.8748 48.1553C44.8693 45.9404 45.0045 43.7263 44.9609 41.5106C44.955 41.1991 44.8733 40.8648 45.1502 40.5897C45.2448 40.5284 45.3364 40.5309 45.4261 40.5969C45.692 40.864 45.6772 41.189 45.6782 41.508C45.6826 43.8592 45.7931 46.2146 45.6549 48.5603C45.3914 53.0321 45.6078 57.5034 45.5192 61.9739C45.5157 62.1563 45.5266 62.3395 45.5004 62.521C45.4112 63.1406 45.1452 63.3687 44.4131 63.3856C43.3169 63.4106 42.2198 63.3936 41.1231 63.3936C38.8496 63.3941 36.576 63.4 34.3024 63.3911C33.0602 63.386 32.5812 63.0758 32.7753 62.045C33.1647 59.9782 33.0111 57.9101 33.0612 55.8416C33.0991 54.2444 32.6899 54.8104 32.6872 53.666Z" fill="#852A0D"/>
<path d="M51.7844 65.1095C52.1153 64.5988 51.9474 64.0524 51.9469 63.5163C51.9434 59.8164 51.9425 56.1165 51.9484 52.4167C51.9511 50.0254 50.4988 60.2924 50.4976 62.2992C50.4971 63.3952 50.1023 63.6978 48.8303 63.7414C44.0197 63.9064 39.2075 63.8667 34.3954 63.8705C34.1032 63.8709 33.803 63.8671 33.5207 63.8129C32.8436 63.6838 32.4775 63.3622 32.4869 62.7097C32.5166 60.609 32.4958 58.5075 32.5003 56.4064C32.5008 56.0848 32.4285 55.7759 32.3705 55.4606C32.2744 54.938 31.8732 54.9439 31.4244 54.9634C30.9445 54.9845 30.89 55.2626 30.8905 55.5863C30.8924 58.5096 30.8959 61.4329 30.884 64.3563C30.883 64.6563 31.0341 64.8785 31.2119 65.1066C30.8008 65.1413 30.5576 65.0452 30.5586 64.6301C30.5695 61.4372 30.565 58.2447 30.5655 55.0518C30.5655 54.9113 30.5967 54.7801 30.724 54.6786C31.368 54.6815 32.0114 54.6845 32.6553 54.6875C33.117 54.9452 33.0585 55.3531 33.0575 55.7361C33.0521 57.9032 33.1036 60.0703 32.9119 62.2366C32.8336 63.1189 33.1229 63.3216 34.1641 63.3229C37.5635 63.3271 40.9719 63.4435 44.359 63.27C45.8623 63.193 47.3735 63.0893 48.8843 63.0355C49.5134 63.0131 49.6912 62.6898 49.6907 62.2124C49.6897 61.0931 49.6907 59.9738 49.6912 58.8545C49.6927 56.6616 49.6892 54.4687 49.6932 52.2758C49.6965 49.7057 49.6255 50.7626 49.6486 48.1705C49.654 47.6165 49.8972 47.3965 50.5674 47.3559C50.9944 47.33 51.4229 47.3588 51.8513 47.3317C52.3016 47.303 52.5126 47.1362 52.5121 46.7279C52.5066 43.141 52.5175 39.5541 52.5002 35.9672C52.4972 35.3109 52.2545 35.1458 51.356 35.142C48.9467 35.1323 46.5369 35.1408 44.1276 35.137C43.7547 35.1365 43.3772 35.1704 43.0097 35.0756C42.7699 34.9745 42.5971 34.8149 42.4594 34.6232C42.2419 33.6266 42.1458 32.6313 42.5253 31.6432C42.6273 31.5391 42.76 31.4803 42.9126 31.4511C43.4178 31.4312 43.9246 31.4324 44.4303 31.4434C45.2109 31.4604 45.4422 31.6038 45.4848 32.2843C45.5195 32.8416 45.7697 33.0575 46.4126 33.0249C46.7767 33.0063 47.169 32.9991 47.4473 33.2792C48.813 33.2826 50.1791 33.3063 51.5437 33.28C52.1995 33.2674 52.4526 33.4578 52.4403 34.0312C52.4205 34.952 52.5943 35.0659 53.7143 35.0752C54.9981 35.0858 54.9991 35.0858 54.9996 36.1594C55.0001 39.6324 55.0006 43.1054 55.0001 46.5785C55.0001 47.5488 54.9981 47.5488 53.8277 47.5522C53.6939 47.5526 53.5597 47.5522 53.426 47.5535C52.8603 47.5581 52.4962 47.7964 52.4477 48.2754C52.3527 49.218 52.4275 50.7296 52.4289 51.9203C52.4313 56.0649 52.4299 60.2095 52.4299 64.3542C52.4289 64.7397 52.5235 65.1827 51.7844 65.1095Z" fill="#100505"/>
<path d="M32.822 45.7722C32.8453 47.7954 32.7245 52.7158 32.9587 54.7386C33.0628 55.6362 32.9736 55.6535 31.9067 55.6514C31.2244 55.6499 30.6456 55.7213 30.6456 55.7213C30.6456 55.7213 30.6456 56.1428 30.5628 51.4072C30.5643 49.8775 30.5683 48.3477 30.5618 46.8179C30.5579 45.8255 30.4826 45.7675 29.3394 45.765C28.0436 45.7624 28 45.7239 28 44.5953C28.001 41.8095 28.001 39.0242 28.0025 36.2384C28.003 35.0683 28.004 35.0674 29.3879 35.0704C29.7337 35.0712 30.0883 35.0315 30.3969 35.2181C30.707 35.4153 30.6406 35.7073 30.6416 35.9726C30.649 37.9108 30.6986 39.8502 30.6223 41.7858C30.5856 42.7168 30.5896 43.6406 30.6416 44.5687C30.6584 44.8708 30.6778 45.162 30.9512 45.3862C31.4856 45.7557 32.184 45.404 32.7368 45.682C32.7661 45.7117 32.7943 45.7417 32.822 45.7722Z" fill="#070405"/>
<path d="M35.2386 33.2769C36.0886 33.2278 36.9564 33.4441 37.7906 33.1521C37.4275 32.7915 37.4627 32.3916 37.6286 31.9778C38.0159 31.4822 39.3959 31.23 39.9725 31.5461C40.1706 31.6549 40.2573 31.8191 40.2667 32.0065C40.3093 32.8487 40.3053 33.6908 40.2707 34.5329C40.2548 34.9163 39.9948 35.1194 39.5539 35.1237C36.7256 35.1499 33.8973 35.1478 31.0689 35.1254C30.8768 35.1237 30.7014 35.0729 30.5677 34.9455C30.5805 33.0277 30.3012 33.3116 32.5232 33.2896C33.4282 33.2807 34.3337 33.2807 35.2386 33.2769Z" fill="#0F0505"/>
<path d="M40.3709 17.3857C41.0688 17.3857 41.7668 17.3862 42.4652 17.3862C42.7738 17.9071 42.5444 18.472 42.6489 19.0091C41.8812 19.0036 41.1134 18.9981 40.3452 18.9926C40.2694 18.4564 40.2342 17.9198 40.3709 17.3857Z" fill="#0D0607"/>
<path d="M47.6049 30.1382C47.6034 30.2288 47.6019 30.3193 47.6004 30.4099C47.4072 31.4488 47.4057 31.4179 46.1659 31.4513C45.5547 31.4679 45.3442 31.3011 45.4338 30.8018C45.4814 30.5377 45.365 30.2605 45.5116 30.0024L45.521 29.9956C46.1372 29.8555 46.7643 29.9596 47.3859 29.9376C47.536 29.9321 47.6326 29.9914 47.6049 30.1382Z" fill="#0E0806"/>
<path d="M45.5115 30.0029C45.5129 30.1163 45.5154 30.2293 45.5159 30.3427C45.5204 31.4164 45.6363 31.4718 46.8761 31.3795C47.6954 31.3186 47.2629 30.6766 47.6003 30.4109C47.6022 30.6157 47.5958 30.8205 47.6087 31.0245C47.63 31.3677 47.4586 31.523 47.045 31.5154C46.4858 31.5052 45.9265 31.5221 45.3668 31.5276C45.4198 31.0198 45.1776 30.4917 45.5115 30.0029Z" fill="#231006"/>
<path d="M47.6044 30.1383C46.9332 29.8408 46.2115 30.0799 45.5205 29.9956C46.2521 29.7375 47.0233 29.955 47.7688 29.8594C47.7554 29.9499 47.7416 30.0405 47.7277 30.1311C47.6866 30.1336 47.6455 30.1361 47.6044 30.1383Z" fill="#231006"/>
<path d="M50.0136 52.0497C50.0131 55.4724 50.0141 58.8946 50.0126 62.3173C50.0121 63.1598 49.8368 63.2927 48.8501 63.3262C44.0444 63.4887 39.2367 63.4637 34.4291 63.462C32.9059 63.4616 32.8192 63.3862 32.8192 62.0549C32.8192 59.8874 32.8197 57.7199 32.8192 55.5523C32.8192 55.2565 32.8529 54.9561 32.6543 54.6878C33.2125 54.7669 33.3076 55.1423 33.2878 55.5109C33.1774 57.5548 33.5395 59.606 33.0194 61.6474C32.7004 62.9 33.0783 63.1903 34.5861 63.1903C37.7428 63.1903 40.8995 63.1912 44.0563 63.1903C45.1886 63.1899 45.1911 63.1886 45.1916 62.2517C45.1926 58.234 45.0707 54.2125 45.2307 50.1991C45.359 46.9829 45.302 43.771 45.3427 40.5574C45.5056 40.0749 46.0019 40.1499 46.3873 40.1638C47.1011 40.1892 47.3309 39.9285 47.2928 39.3522C47.2566 38.8096 47.271 38.2629 47.2952 37.7183C47.3116 37.3526 47.3428 36.9853 47.743 36.7441C48.331 36.5177 48.9373 36.5499 49.548 36.6502C50.2915 36.8203 50.3232 37.3391 50.3296 37.8503C50.347 39.2887 50.3351 40.7275 50.3361 42.1663C50.3371 43.468 50.3351 44.7697 50.3366 46.0714C50.338 47.0456 50.4143 47.1399 51.1796 47.137C51.9667 47.134 52.0989 46.9804 52.1019 46.0194C52.1079 43.8044 52.1089 41.5891 52.1019 39.3742C52.0984 38.3251 52.1024 37.2769 52.0212 36.227C51.9771 35.6586 51.78 35.4369 51.1271 35.4801C50.8096 35.5008 50.4842 35.4983 50.1696 35.4225C50.0706 35.4115 49.972 35.398 49.8729 35.3857C48.4097 35.158 46.9341 35.3239 45.4655 35.2799C44.8503 35.2613 44.2331 35.293 43.6179 35.2672C43.3455 35.2558 42.9938 35.3099 42.9438 34.9409C45.832 34.9392 48.7208 34.9333 51.6091 34.9388C52.5556 34.9405 52.7478 35.1119 52.7483 35.8939C52.7503 39.4998 52.7335 43.1062 52.7647 46.7121C52.7706 47.379 52.5046 47.6389 51.7438 47.564C51.5328 47.5432 51.3163 47.5606 51.1023 47.5606C49.815 47.5606 49.7179 47.66 49.9512 48.7222C50.2355 50.016 50.0136 50.8049 50.0136 52.0497Z" fill="#602200"/>
<path d="M49.539 36.849C48.9521 36.8554 48.3651 36.8617 47.7781 36.8681C47.4032 37.0598 47.0034 37.1427 46.5606 37.136C45.6012 37.122 44.6412 37.1245 43.6813 37.1347C43.2409 37.1393 42.8338 37.0801 42.4722 36.855C41.7757 36.8609 41.0788 36.8668 40.3824 36.8732C40.1748 37.7267 40.321 38.5892 40.2987 39.4474C40.2694 40.576 40.0114 40.7914 38.6834 40.6869C38.4422 40.6678 38.2069 40.6361 38.0068 40.5083C37.7814 40.2666 37.8636 39.9768 37.8933 39.7186C37.9766 38.9996 37.6947 38.3242 37.6115 37.6264C37.5575 37.1753 37.1642 37.1216 36.7283 37.1258C36.3083 37.13 36.0428 37.18 35.8323 37.6053C35.2111 38.8596 35.4321 40.1553 35.3934 41.4401C35.3682 42.2772 35.1809 42.4685 34.2071 42.391C33.5523 42.339 33.2734 42.5336 33.2179 43.0825C33.1055 44.1916 31.7859 44.6195 30.6601 43.9259C30.6373 41.1617 30.6561 38.3983 30.6506 35.6345C30.6501 35.4987 30.6318 35.3594 30.7101 35.2312C32.7677 35.1157 34.8278 35.2012 36.8868 35.1813C37.7433 35.1728 38.6036 35.1347 39.4556 35.1864C40.1347 35.2278 40.3051 34.9832 40.2556 34.475C40.2338 34.2494 40.2729 34.0197 40.2843 33.792C40.582 33.8043 40.6201 34.0239 40.6246 34.1834C40.6409 34.7577 41.0555 34.8322 41.5944 34.8224C41.9917 34.8152 42.4013 34.7954 42.7634 34.9917C43.0076 35.1927 43.3142 35.1381 43.603 35.1386C45.4763 35.1415 47.3492 35.1377 49.2225 35.1428C49.486 35.1436 49.7585 35.0916 50.0126 35.1999L50.0279 35.2046C50.5767 36.0395 50.3999 36.6336 49.539 36.849Z" fill="#E34E0C"/>
<path d="M30.7097 35.2314C30.7186 38.1472 30.728 41.0629 30.7369 43.979C31.372 44.1445 32.0243 44.1635 32.6722 44.0878C33.0695 44.0412 33.2057 43.7949 33.2309 43.4466C33.3013 42.4915 33.4335 42.4052 34.5698 42.4881C34.7674 42.5025 34.8551 42.4098 34.9839 42.3362C35.1429 42.2457 35.2667 42.0218 35.5203 42.2055C35.7145 42.6866 35.2999 43.0704 35.2231 43.5114C35.1201 44.1055 35.5402 44.5994 35.5392 45.1652C35.5367 46.3949 35.5411 47.6247 35.5585 48.8545C35.5659 49.3868 35.1751 49.9006 35.5159 50.4575C35.6412 50.6623 35.3945 50.8214 35.138 50.8916C34.5624 51.0495 33.9779 51.0118 33.3998 50.9314C33.0987 50.8895 32.9719 50.6915 32.9803 50.427C32.9937 50.0174 32.9942 49.6077 33.0001 49.1981C33.3364 48.893 33.7882 48.9408 34.2067 48.9374C34.7204 48.9336 34.925 48.7385 34.9215 48.3098C34.9165 47.7161 34.9131 47.122 34.922 46.5282C34.9294 46.0475 34.6674 45.8867 34.1329 45.8981C33.7466 45.9066 33.3255 46.042 32.9788 45.7661C32.9263 45.7661 32.8738 45.7682 32.8213 45.7724L32.8134 45.7657C32.1382 45.5744 31.418 45.8351 30.7454 45.6167C30.5893 45.4428 30.5794 45.2413 30.5789 45.0327C30.5735 41.935 30.5641 38.8369 30.5571 35.7393C30.5576 35.5603 30.516 35.3694 30.7097 35.2314Z" fill="#A11F32"/>
<path d="M42.4707 36.8564C44.2395 36.8607 46.0078 36.8649 47.7767 36.8691C47.4433 37.7616 47.6271 38.6799 47.638 39.5826C47.6454 40.2317 47.4512 40.4928 46.6552 40.4319C46.2283 40.3993 45.7468 40.2787 45.3431 40.5576C45.3015 40.561 45.2599 40.5669 45.2193 40.5749C45.1831 40.555 45.1475 40.5347 45.1108 40.5153C44.8503 40.2207 44.8899 39.8712 44.8983 39.539C44.9092 39.0858 44.7056 38.8737 44.1553 38.8919C43.7625 38.9046 43.3623 38.9194 42.9749 38.8213C42.8422 38.7895 42.7382 38.7201 42.6441 38.6385C43.1548 38.0041 42.4925 37.4531 42.4707 36.8564Z" fill="#A11F32"/>
<path d="M42.6455 38.6377C42.749 38.6394 42.852 38.6411 42.9556 38.6428C43.2944 38.9339 43.2636 39.308 43.2646 39.6715C43.2711 41.3135 43.2607 42.9554 43.2721 44.5973C43.2741 44.8627 43.2201 45.1619 43.6025 45.3045C44.1112 45.4941 44.5272 45.2533 44.5421 44.7222C44.5703 43.6964 44.5475 42.6698 44.553 41.6435C44.5545 41.393 44.5376 41.1383 44.6303 40.8971C44.713 40.6812 44.7917 40.4383 45.1712 40.5399C45.1712 40.5399 45.2207 40.5746 45.2212 40.5746C45.2088 43.1543 45.1974 45.734 45.183 48.3133C45.1786 49.1304 45.0899 49.2011 44.1181 49.2062C42.7589 49.213 42.6336 49.1448 42.6331 48.293C42.6311 45.0743 42.64 41.856 42.6455 38.6377Z" fill="#A12133"/>
<path d="M32.9795 45.7685C33.504 45.7076 34.0222 45.6234 34.5601 45.636C35.0391 45.6475 35.2298 45.8206 35.2248 46.2167C35.2149 47.011 35.2139 47.8057 35.2283 48.6C35.2357 49.0278 35.0346 49.2288 34.5165 49.209C34.0123 49.1895 33.506 49.2018 33.0008 49.2001C32.9939 48.0562 32.9864 46.9124 32.9795 45.7685Z" fill="#E34E0C"/>
<path d="M35.5207 42.2054C35.4236 42.2393 35.2507 42.2613 35.2403 42.3087C35.0804 43.0446 34.7802 42.9405 34.1675 42.5664C33.7464 42.3095 33.5612 42.7966 33.4879 43.0941C33.1733 44.3683 33.1827 44.3789 31.6081 44.2046C31.3783 44.1792 31.1975 44.2236 30.9929 44.2714C30.6521 44.351 30.7645 44.1144 30.7373 43.979C30.9513 43.9798 31.1648 43.9815 31.3783 43.9807C32.8281 43.9752 32.834 43.9756 32.9712 42.7598C33.0341 42.2029 33.4775 42.1191 33.9916 42.1538C35.2077 42.2359 35.2215 42.2334 35.2235 41.2194C35.2245 40.6951 35.2928 40.1623 35.2077 39.6482C35.065 38.7853 35.5876 38.0096 35.5603 37.1692C35.5529 36.9377 35.7515 36.8615 35.9908 36.859C36.445 36.8548 36.9002 36.8399 37.3529 36.8594C37.986 36.8865 37.9226 37.3372 37.9389 37.674C37.982 38.5847 37.9731 39.4971 37.9845 40.409C37.9414 40.4531 37.8953 40.456 37.8453 40.4175C37.827 39.8306 37.8086 39.2432 37.7903 38.6562C37.0369 38.5822 36.2597 38.1802 35.5544 38.7735C35.543 39.9186 35.5316 41.062 35.5207 42.2054Z" fill="#A12134"/>
<path d="M37.8447 40.421C37.8913 40.4201 37.9374 40.4171 37.9839 40.4125C40.2099 40.451 40.1901 40.451 40.2164 38.5255C40.2238 37.9771 40.0034 37.4003 40.3818 36.876C40.3729 38.4367 40.3546 39.9974 40.3605 41.558C40.362 41.9664 40.2382 42.1865 39.6992 42.214C38.1167 42.2944 38.1177 42.3088 37.9289 41.0248C37.8992 40.8238 37.8725 40.6224 37.8447 40.421Z" fill="#A01F31"/>
<path d="M39.1737 45.641C37.9463 45.641 37.9463 45.641 37.9453 44.7658C37.9448 43.8547 37.9448 43.8564 39.0985 43.8556C39.7206 43.8551 40.3729 43.779 40.3665 44.5961C40.3586 45.6405 40.3789 45.641 39.1737 45.641Z" fill="#A01E31"/>
<path d="M41.4557 37.0191C42.3205 36.8688 42.4547 37.237 42.4869 37.854C42.529 38.6665 41.9792 38.6081 41.3249 38.6513C40.4026 38.7122 40.5621 38.2167 40.516 37.7423C40.4521 37.0834 40.7612 36.857 41.4557 37.0191Z" fill="#602200"/>
<path d="M35.5547 38.7755C35.7305 38.3713 35.8484 37.8698 36.5255 38.4064C36.7063 38.5499 36.9198 38.4356 37.1239 38.4018C37.4033 38.3557 37.7237 38.2799 37.7901 38.6578C37.0432 38.665 36.2833 38.505 35.5547 38.7755Z" fill="#A11F32"/>
<path d="M53.2297 41.2824C53.2297 39.615 53.2312 37.9481 53.2287 36.2808C53.2282 35.8792 53.1916 35.4932 53.8875 35.4772C54.4903 35.4632 54.6349 35.6913 54.7023 36.1661C54.8895 37.4856 54.7944 38.7915 54.7216 40.1131C54.6107 42.1397 54.6909 44.1752 54.7266 46.2065C54.7355 46.7101 54.7588 47.121 53.9752 47.1476C53.3387 47.1692 53.2193 46.8823 53.2238 46.421C53.2391 44.708 53.2302 42.9954 53.2297 41.2824Z" fill="#060304"/>
<path d="M47.598 26.3371C47.593 27.1805 47.5375 28.0268 47.5985 28.8668C47.647 29.5338 47.4543 29.8008 46.5999 29.7648C45.2347 29.7073 45.211 29.7551 45.1748 30.8918C45.1604 31.3446 44.9108 31.4774 44.4402 31.5096C43.9474 31.543 43.4317 31.3683 42.9627 31.6192C42.8552 31.6357 42.7477 31.6522 42.6397 31.6687C41.813 31.8063 40.9873 31.9264 40.1992 31.5384C39.691 31.5295 39.1798 31.4859 38.6761 31.5202C38.0545 31.5625 37.8464 31.3424 37.9267 30.8448C37.9485 30.7102 37.9158 30.5697 37.9341 30.4343C38.001 29.94 37.7786 29.7471 37.1703 29.7433C35.5045 29.7327 35.5045 29.7124 35.5035 28.2795C35.503 27.8224 35.5317 27.3641 35.4981 26.9092C35.4634 26.4412 35.6551 26.2643 36.2252 26.2609C36.7403 26.2579 37.2857 26.4094 37.7805 26.1526L37.7959 26.1403C37.842 26.142 37.888 26.1395 37.9336 26.1323C37.9608 26.1547 37.9881 26.1771 38.0158 26.1995C38.0282 26.701 37.5507 26.6545 37.2213 26.6494C36.3882 26.6375 36.2242 27.2258 36.0617 27.6637C35.8755 28.1656 35.8478 28.7581 36.5041 29.1415C37.0752 29.475 37.4224 29.3488 37.5235 28.7539C37.5576 28.5512 37.5542 28.34 37.7033 28.1669C37.8172 28.0349 37.9534 28.0036 38.0926 28.1521C38.1827 28.2702 38.2199 28.4018 38.2442 28.5376C38.4047 29.4326 38.4047 29.4855 39.5073 29.4851C41.2379 29.4843 42.9691 29.4445 44.6993 29.4572C44.94 29.4419 45.1089 29.3628 45.1094 29.1279C45.1124 28.3307 45.1278 27.533 45.101 26.7357C45.0951 26.5588 44.9014 26.4725 44.8291 26.3261C44.8058 26.2461 44.8236 26.1746 44.8821 26.1094C44.9995 26.0311 45.1362 26.0201 45.2778 26.0218C45.8034 26.0129 46.3284 26.0125 46.852 26.0442C47.1358 26.0624 47.437 26.0764 47.598 26.3371Z" fill="#EC8417"/>
<path d="M47.7296 34.5203C46.5512 34.5199 45.3728 34.5381 44.1954 34.5127C43.548 34.4988 43.1518 33.8128 43.2712 33.0159C43.3514 32.4806 43.7016 32.2669 44.3213 32.3287C44.6719 32.3638 44.829 32.4527 44.7765 32.809C44.6764 33.4865 44.9122 33.6879 45.7646 33.6947C47.5543 33.7091 49.3449 33.729 51.1296 33.5669C51.3871 33.5436 51.6754 33.5246 51.8552 33.7569C52.1321 34.1145 51.8453 34.5081 51.2638 34.5157C50.0864 34.5322 48.908 34.5212 47.7296 34.5203Z" fill="#060304"/>
<path d="M40.1992 31.538C41.015 31.5528 41.8477 31.3344 42.6397 31.6683C42.6432 32.6785 42.6466 33.6882 42.6501 34.6983C42.7616 34.8413 42.763 34.9704 42.5857 35.0775C42.1355 35.0792 41.6812 35.0483 41.2364 35.0902C40.5237 35.157 40.2661 34.9061 40.3488 34.3187C40.3731 34.1473 40.3087 33.9671 40.2844 33.7919C40.2557 33.0411 40.2275 32.2896 40.1992 31.538Z" fill="#DE9E58"/>
<path d="M42.5859 35.0778C42.6072 34.9508 42.629 34.8243 42.6503 34.6977C42.8777 34.6647 42.8846 34.8255 42.9446 34.9402C43.1714 35.1764 43.4855 35.079 43.7623 35.0803C45.5653 35.0888 47.3683 35.082 49.1713 35.0875C49.4557 35.0883 49.7593 35.024 50.0139 35.2013C47.7666 35.2056 45.5193 35.2102 43.272 35.2144C43.0302 35.2149 42.7861 35.2263 42.5859 35.0778Z" fill="#A01F30"/>
<path d="M30.7455 45.618C31.4305 45.7107 32.1502 45.4551 32.8135 45.767C32.122 45.7623 31.4305 45.7573 30.739 45.7522C30.737 45.7073 30.739 45.6629 30.7455 45.618Z" fill="#681415"/>
<path d="M45.1659 26.1538C45.0678 26.1581 44.9693 26.1619 44.8712 26.1661C44.3942 26.4818 43.8483 26.3675 43.3297 26.3159C42.9339 26.2761 42.7566 26.0121 42.7244 25.6841C42.6932 25.3654 42.7101 25.0459 42.7046 24.729C42.7185 24.1492 42.2137 23.6338 42.4148 23.0219C42.4485 22.9199 42.2786 22.8154 42.135 22.853C41.4727 23.0265 40.7565 22.7972 40.1081 23.0612C39.3909 23.12 38.6726 23.2381 37.9678 23.0028C38.0307 22.6067 38.3992 22.7671 38.6543 22.7341C39.1407 22.6715 39.6613 22.8492 40.12 22.5826C40.3929 21.7371 40.2408 20.8738 40.2334 20.0211C40.228 19.3927 40.4043 19.1202 41.2147 19.1519C42.6397 19.2077 42.6412 19.1697 42.6412 20.3867C42.6412 20.9555 42.6333 21.5247 42.6496 22.0934C42.6546 22.2711 42.5253 22.5348 42.9201 22.5593C42.9409 22.5767 42.9617 22.5945 42.9825 22.6118C43.3956 22.8336 43.8553 22.7231 44.2911 22.7244C44.9098 22.7256 45.2085 22.9017 45.1847 23.4793C45.1525 24.266 45.207 25.0553 45.2243 25.8436C45.3155 25.9617 45.2942 26.065 45.1659 26.1538Z" fill="#E15518"/>
<path d="M45.166 26.1554C45.1853 26.0521 45.2047 25.9489 45.224 25.8448C45.4835 25.067 45.2745 24.2718 45.3473 23.4877C45.3716 23.2249 45.2517 22.9354 45.5286 22.7154C46.1111 22.6303 46.6931 22.6295 47.2751 22.7162C47.3886 22.7666 47.5015 22.8169 47.6149 22.8677C48.0424 23.6777 47.8368 24.5185 47.7556 25.3476C47.7333 25.5731 47.6466 25.7894 47.7477 26.0132C47.8081 26.0648 47.8685 26.1165 47.929 26.1681C47.9651 26.2011 47.979 26.235 47.9696 26.2701C47.9602 26.3056 47.9503 26.3234 47.9389 26.3234C47.872 26.3543 47.8116 26.3492 47.7571 26.3022C47.7041 26.3141 47.6506 26.3255 47.5976 26.3378C46.8031 26.1249 45.958 26.3962 45.166 26.1554Z" fill="#231006"/>
<path d="M47.7568 26.2995C47.8163 26.2965 47.8757 26.2936 47.9347 26.2906C48.5726 26.1802 49.2111 26.1903 49.8501 26.2855C50.2003 27.1226 49.9328 27.9876 50.0061 28.8377C50.0314 29.1297 50.0066 29.4251 50.0046 29.7192C49.2636 29.8525 48.5196 29.8005 47.7757 29.7455C47.7697 28.5969 47.7633 27.448 47.7568 26.2995Z" fill="#080707"/>
<path d="M40.0201 22.5583C39.2841 22.4774 38.4802 22.8337 37.8134 22.3082C37.28 21.3522 37.2929 20.395 37.804 19.4369C38.4163 18.9155 39.1583 19.2134 39.8438 19.2253C40.092 19.2295 40.0612 19.5071 40.0593 19.684C40.0508 20.6421 40.034 21.6002 40.0201 22.5583Z" fill="#0A0404"/>
<path d="M35.0683 26.1641C35.0688 27.167 35.055 28.1699 35.0777 29.1724C35.0872 29.5863 34.9069 29.7632 34.4224 29.7268C34.2104 29.7107 33.9925 29.7057 33.7825 29.7294C33.144 29.8017 32.9384 29.5728 32.9652 29.0341C33.0102 28.1238 32.9795 27.211 32.9805 26.2995L32.9855 26.2952C33.615 26.1082 34.2827 26.3393 34.9133 26.167C34.9648 26.1674 35.0163 26.1662 35.0683 26.1641Z" fill="#060505"/>
<path d="M44.8775 19.2926C45.2074 19.3396 45.1935 19.5558 45.194 19.7636C45.1955 20.5376 45.1816 21.3116 45.2024 22.0852C45.2128 22.477 45.0152 22.6053 44.5793 22.593C44.0473 22.5786 43.5138 22.6019 42.9813 22.6095C42.9482 22.6036 42.9278 22.5862 42.9199 22.5574C42.9269 21.6552 42.9675 20.7517 42.9288 19.8512C42.9065 19.3231 43.0928 19.0802 43.7318 19.1606C44.1137 19.2088 44.5278 19.051 44.8789 19.2935C44.764 19.3912 44.6348 19.464 44.4743 19.5021C43.5203 19.7281 43.4692 19.7835 43.4118 20.6311C43.3915 20.9265 43.3865 21.2232 43.4351 21.5164C43.498 21.896 43.7818 22.078 44.2117 22.0551C44.6585 22.031 44.551 21.703 44.5679 21.4771C44.6016 21.0234 44.5714 20.5677 44.5842 20.1132C44.5922 19.8174 44.5862 19.5152 44.8775 19.2926Z" fill="#231006"/>
<path d="M47.7657 22.869C47.7657 23.737 47.7657 24.6049 47.7657 25.4728C47.7603 25.6531 47.7543 25.8338 47.7489 26.0141C47.4457 24.9735 47.6751 23.9164 47.6161 22.8682C47.6657 22.8682 47.7157 22.8686 47.7657 22.869Z" fill="#24313B"/>
<path d="M47.7758 29.744C48.5188 29.7351 49.2618 29.7262 50.0048 29.7178C50.0088 29.7652 50.0127 29.8126 50.0167 29.86C49.2682 29.8578 48.5198 29.8553 47.7714 29.8532C47.7694 29.8164 47.7709 29.78 47.7758 29.744Z" fill="#24313B"/>
<path d="M33.4633 26.1526C33.5163 26.1552 33.5688 26.1548 33.6218 26.1514C34.0523 26.1564 34.4827 26.1619 34.9132 26.1674C34.29 26.4235 33.6263 26.236 32.9854 26.2957C33.1037 26.1493 33.289 26.1649 33.4633 26.1526Z" fill="#4F2E1F"/>
<path d="M49.8506 26.2878C49.2121 26.2895 48.5736 26.2912 47.9352 26.2929C47.9327 26.251 47.9302 26.2091 47.9287 26.1676C48.5687 26.218 49.229 26.0284 49.8506 26.2878Z" fill="#24313B"/>
<path d="M40.3712 17.3857C40.3627 17.9219 40.3543 18.4577 40.3459 18.9934C40.1418 18.4547 40.1166 17.9185 40.3712 17.3857Z" fill="#24313B"/>
<path d="M47.2753 22.715C46.6928 22.715 46.1103 22.7146 45.5283 22.7146C46.1108 22.5267 46.6933 22.528 47.2753 22.715Z" fill="#24313B"/>
<path d="M37.7807 26.1533C37.2487 26.1495 36.7152 26.125 36.1842 26.1478C35.6899 26.1694 35.5294 25.9925 35.5428 25.5875C35.5675 24.8385 35.5626 24.0886 35.5462 23.3392C35.5368 22.9024 35.7592 22.7289 36.2649 22.7315C38.1437 22.7416 37.7499 22.621 37.7841 23.9608C37.8029 24.6874 37.793 25.4144 37.796 26.141L37.7807 26.1533Z" fill="#060405"/>
<path d="M37.9678 23.005C38.6974 22.7431 39.4632 22.925 40.2096 22.8738C40.5405 23.1176 40.486 23.468 40.4622 23.7629C40.4043 24.4815 40.2547 25.1937 40.2631 25.9186C40.2661 26.1653 40.1125 26.371 39.8015 26.393C39.1759 26.4374 38.53 26.5593 37.9673 26.1835L37.9336 26.1344C37.945 25.0913 37.9564 24.0482 37.9678 23.005Z" fill="#E95719"/>
<path d="M36.678 29.9967C37.7975 29.9959 37.7549 29.9976 37.7995 30.8291C37.8297 31.3907 37.5775 31.5744 36.9693 31.5058C36.8905 31.4969 36.8093 31.5045 36.7295 31.5045C35.5764 31.505 35.6032 31.4787 35.5333 30.6831C35.457 29.8237 36.1257 30.0145 36.678 29.9967Z" fill="#0A0606"/>
<path d="M49.5391 36.8513C49.9928 36.6994 50.0502 36.3905 50.018 36.0249C49.9943 35.754 50.0225 35.4798 50.028 35.2068C52.3184 35.1332 52.3654 35.1328 52.3892 37.0303C52.4288 40.2021 52.405 43.3742 52.3971 46.5464C52.3961 46.8553 52.4526 47.2958 52.0459 47.3813C51.4357 47.5095 50.762 47.5349 50.1557 47.3373C49.8907 47.251 50.0012 46.926 50.0012 46.7059C49.9967 43.6937 50.0007 40.6811 49.9972 37.6689C49.9967 37.3418 50.1161 36.9503 49.5391 36.8513Z" fill="#A01F30"/>
<path d="M45.17 40.5401C44.7886 40.6629 44.8911 40.9472 44.8896 41.1842C44.8812 42.4626 44.846 43.7423 44.8985 45.0191C44.9278 45.7292 44.4201 45.6352 43.9109 45.6382C43.3922 45.6412 42.9108 45.7118 42.9261 45.0119C42.9717 42.8896 42.9499 40.7661 42.9549 38.643C43.5111 38.6396 44.0679 38.6422 44.6241 38.6312C45.0234 38.6231 45.2076 38.7683 45.1933 39.1166C45.1734 39.5909 45.1764 40.0658 45.17 40.5401Z" fill="#E34E0C"/>
<path d="M44.8784 29.7274C42.798 29.7362 40.7177 29.7375 38.6378 29.7595C38.138 29.765 37.8883 29.6372 37.9255 29.1768C37.9547 28.8141 37.926 28.4477 37.923 28.0829C38.1444 27.8273 38.4788 27.8446 38.7938 27.8243C39.8256 27.7583 39.8276 27.76 39.9147 26.9158C39.936 26.7105 39.9534 26.5065 40.0926 26.328C40.3501 25.763 40.1193 25.1672 40.2436 24.5938C40.2758 24.5151 40.3323 24.4528 40.4116 24.405C41.103 24.1892 41.8005 24.2146 42.5013 24.3682C42.5875 24.4025 42.6574 24.4533 42.7119 24.5197C42.8431 24.8663 42.7787 25.2239 42.7758 25.576C42.7733 25.8692 42.8674 26.0956 43.1676 26.2492C43.3756 26.3072 43.5901 26.2911 43.8026 26.2937C45.0974 26.3098 45.1107 26.3199 45.1122 27.3927C45.1127 27.9382 45.1083 28.4836 45.1137 29.0291C45.1172 29.2843 45.1038 29.5306 44.8784 29.7274Z" fill="#FDEB43"/>
<path d="M40.2182 26.3047C40.2742 28.0291 40.2742 28.0291 38.2433 28.0643C38.1368 28.066 38.0308 28.077 37.9243 28.0837C37.7237 28.3326 37.8124 28.6152 37.804 28.8835C37.7837 29.5539 37.5216 29.7519 36.7712 29.5627C36.3056 29.4455 35.7746 29.154 35.7721 28.779C35.7682 28.2297 35.2892 27.556 36.0931 27.1075C36.1372 27.0829 36.2283 27.0579 36.2259 27.0431C36.0193 25.9187 37.0461 26.6183 37.4731 26.4452C37.6564 26.3707 37.8981 26.4075 37.9674 26.182C38.3652 26.1752 38.7733 26.1168 39.1587 26.1722C39.9676 26.2886 40.1355 25.9958 40.0686 25.3699C39.9795 24.5375 40.3282 23.7127 40.2098 22.8723C40.878 22.5248 41.6398 22.8223 42.3427 22.6564C42.5037 22.6184 42.784 22.8536 42.7043 23.0238C42.4452 23.5743 42.8662 24.0187 42.9445 24.5125C42.8365 24.5938 42.7266 24.5938 42.6141 24.5193L42.6176 24.5206C42.1475 24.3157 41.7582 24.083 41.8583 23.5384C41.9202 23.2019 41.5952 23.1977 41.3228 23.2057C41.0315 23.2142 40.8706 23.331 40.9637 23.601C41.1262 24.0733 40.8096 24.3204 40.3792 24.5155L40.3762 24.5167C40.1434 25.1016 40.4317 25.7194 40.2182 26.3047Z" fill="#EE8415"/>
<path d="M47.4434 28.0643C47.4434 28.2924 47.4766 28.5248 47.4355 28.7469C47.3805 29.0431 47.6871 29.4955 47.0511 29.573C46.4136 29.6504 45.6865 29.4117 45.5988 28.9644C45.4507 28.2065 45.201 27.3445 46.0699 26.6649C46.4374 26.3771 46.8019 26.4017 47.1734 26.4702C47.5667 26.5426 47.4241 26.8748 47.4384 27.1075C47.4578 27.4258 47.4434 27.7453 47.4434 28.0643Z" fill="#ED8414"/>
<path d="M44.8803 29.728C44.8793 28.8427 44.8491 27.9566 44.8882 27.073C44.911 26.5584 44.6896 26.3929 44.1041 26.4145C43.7277 26.4285 43.3032 26.5571 42.9648 26.2761C43.5999 26.1881 44.2364 26.2135 44.8729 26.2618C45.2062 26.3362 45.3439 26.5212 45.3409 26.8132C45.3325 27.61 45.339 28.4069 45.3375 29.2037C45.337 29.4733 45.2855 29.7141 44.8803 29.728Z" fill="#FCC937"/>
<path d="M44.872 26.2611C44.236 26.2662 43.5995 26.2709 42.9635 26.276C42.4672 26.058 42.6529 25.6607 42.6276 25.323C42.6073 25.0555 42.6172 24.7868 42.6133 24.5185C42.7232 24.5164 42.8332 24.5138 42.9437 24.5117C42.9783 26.0898 42.9783 26.0898 44.871 26.1664C44.8715 26.1977 44.8715 26.2294 44.872 26.2611Z" fill="#ED8515"/>
<path d="M44.8782 19.2959C44.8762 20.0669 44.8906 20.838 44.8648 21.6086C44.8549 21.915 45.0481 22.3508 44.4413 22.4194C43.8162 22.4901 43.1822 22.1244 43.1242 21.6606C43.0361 20.9586 43.1277 20.2607 43.2832 19.5688C43.3357 19.334 43.5403 19.3077 43.7632 19.3052C44.1352 19.301 44.5072 19.2997 44.8792 19.2972C44.8797 19.2967 44.8782 19.2959 44.8782 19.2959Z" fill="#0C0505"/>
<path d="M40.3779 24.5172C40.6127 24.1613 41.0342 23.8427 40.5751 23.3784C40.4577 23.2595 40.5741 23.0636 40.8074 23.0217C41.2022 22.9506 41.5994 22.9515 41.9972 23.0145C42.1849 23.0441 42.3449 23.1732 42.2473 23.2887C41.7767 23.8439 42.3241 24.1499 42.6168 24.5219C41.8704 24.5202 41.1244 24.5185 40.3779 24.5172Z" fill="#ED8515"/>
<path d="M40.2188 26.3031C40.2911 25.7086 40.0291 25.0924 40.3768 24.5156C40.2624 25.1077 40.513 25.723 40.2188 26.3031Z" fill="#ED8515"/>
</g>
<defs>
<clipPath id="clip0_8091_69132">
<rect width="51" height="36" fill="white" transform="translate(0 51) rotate(-90)"/>
</clipPath>
<clipPath id="clip1_8091_69132">
<rect width="34" height="27" fill="white" transform="translate(28 51) rotate(-90)"/>
</clipPath>
</defs>
</svg>
