<svg width="1007" height="176" viewBox="0 0 1007 176" fill="none" xmlns="http://www.w3.org/2000/svg">
<path d="M80.73 135.69H17.94C13.984 135.69 10.58 134.264 7.728 131.412C4.876 128.56 3.45 125.156 3.45 121.2V37.71H25.53V114.99H80.73V135.69ZM164.959 135.69H102.169C98.2125 135.69 94.8085 134.264 91.9565 131.412C89.1045 128.56 87.6785 125.156 87.6785 121.2V52.2C87.6785 48.244 89.1045 44.84 91.9565 41.988C94.8085 39.136 98.2125 37.71 102.169 37.71H164.959V58.41H109.759V70.83H164.959V91.53H109.759V114.99H164.959V135.69ZM272.923 135.69H248.083L239.251 113.61H201.163L192.331 135.69H167.491L206.683 37.71H233.731L272.923 135.69ZM230.971 92.91L220.207 66L209.443 92.91H230.971ZM359.587 121.2C359.587 125.156 358.161 128.56 355.309 131.412C352.457 134.264 349.053 135.69 345.097 135.69H275.407V37.71H345.097C349.053 37.71 352.457 39.136 355.309 41.988C358.161 44.84 359.587 48.244 359.587 52.2V121.2ZM337.507 114.99V58.41H297.487V114.99H337.507ZM443.789 135.69H380.999C377.043 135.69 373.639 134.264 370.787 131.412C367.935 128.56 366.509 125.156 366.509 121.2V52.2C366.509 48.244 367.935 44.84 370.787 41.988C373.639 39.136 377.043 37.71 380.999 37.71H443.789V58.41H388.589V70.83H443.789V91.53H388.589V114.99H443.789V135.69ZM534.917 135.69H512.837V91.53H472.817V135.69H450.737V37.71H520.427C524.383 37.71 527.787 39.136 530.639 41.988C533.491 44.84 534.917 48.244 534.917 52.2V67.38C534.917 70.6 533.951 73.498 532.019 76.074C530.179 78.558 527.787 80.26 524.843 81.18C527.787 82.1 530.179 83.848 532.019 86.424C533.951 88.908 534.917 91.76 534.917 94.98V135.69ZM512.837 70.83V58.41H472.817V70.83H512.837ZM626.019 121.2C626.019 125.156 624.593 128.56 621.741 131.412C618.889 134.264 615.485 135.69 611.529 135.69H541.839V37.71H611.529C615.485 37.71 618.889 39.136 621.741 41.988C624.593 44.84 626.019 48.244 626.019 52.2V67.38C626.019 70.6 625.053 73.498 623.121 76.074C621.281 78.558 618.889 80.26 615.945 81.18C618.889 82.1 621.281 83.848 623.121 86.424C625.053 88.908 626.019 91.76 626.019 94.98V121.2ZM603.939 70.83V58.41H563.919V70.83H603.939ZM603.939 114.99V91.53H563.919V114.99H603.939ZM717.12 121.2C717.12 125.156 715.694 128.56 712.842 131.412C709.99 134.264 706.586 135.69 702.63 135.69H647.43C643.474 135.69 640.07 134.264 637.218 131.412C634.366 128.56 632.94 125.156 632.94 121.2V52.2C632.94 48.244 634.366 44.84 637.218 41.988C640.07 39.136 643.474 37.71 647.43 37.71H702.63C706.586 37.71 709.99 39.136 712.842 41.988C715.694 44.84 717.12 48.244 717.12 52.2V121.2ZM695.04 114.99V58.41H655.02V114.99H695.04ZM825.058 135.69H800.218L791.386 113.61H753.298L744.466 135.69H719.626L758.818 37.71H785.866L825.058 135.69ZM783.106 92.91L772.342 66L761.578 92.91H783.106ZM911.722 135.69H889.642V91.53H849.622V135.69H827.542V37.71H897.232C901.188 37.71 904.592 39.136 907.444 41.988C910.296 44.84 911.722 48.244 911.722 52.2V67.38C911.722 70.6 910.756 73.498 908.824 76.074C906.984 78.558 904.592 80.26 901.648 81.18C904.592 82.1 906.984 83.848 908.824 86.424C910.756 88.908 911.722 91.76 911.722 94.98V135.69ZM889.642 70.83V58.41H849.622V70.83H889.642ZM1002.82 121.2C1002.82 125.156 1001.4 128.56 998.545 131.412C995.693 134.264 992.289 135.69 988.333 135.69H918.643V37.71H988.333C992.289 37.71 995.693 39.136 998.545 41.988C1001.4 44.84 1002.82 48.244 1002.82 52.2V121.2ZM980.743 114.99V58.41H940.723V114.99H980.743Z" fill="white"/>
<path d="M162.706 18.2857H160.412V13.7143H155.824V11.4286H151.235V9.14286H146.647V4.57143H137.471V0H114.529V4.57143H105.353V9.14286H100.765V11.4286H96.1765V13.7143H91.5882V18.2857H89.2941V25.1429H162.706V18.2857Z" fill="#F31CED"/>
<path d="M160.412 0V4.57143H155.824V9.14286H151.235L151.235 13.7143H146.647V18.2857H142.059V13.7143H137.471V9.14286H132.882V4.57143H128.294V0H123.706V4.57143H119.118V9.14286H114.529V13.7143H109.941V18.2857H105.353V13.7143H100.765L100.765 9.14286H96.1765V4.57143H91.5882V0H87V30H165V0H160.412Z" fill="#FFC03C"/>
<path d="M128.294 9.14286V6.85714H123.706V9.14286H128.294ZM121.412 11.4286H119.118V16H121.412V11.4286ZM121.412 9.14286H123.706V11.4286H121.412V9.14286ZM130.588 11.4286V16H132.882V11.4286H130.588ZM128.294 9.14286H130.588V11.4286H128.294V9.14286ZM121.412 16H123.706V18.2857H121.412V16ZM128.294 16H130.588V18.2857H128.294V16ZM123.706 18.2857V20.5714H128.294V18.2857H123.706Z" fill="#FFD781"/>
<path d="M162.706 25.1429L87 25.1429V30H165V25.1429L162.706 25.1429Z" fill="#F31CED"/>
<path d="M123.706 11.4286H121.412V16H123.706L123.706 13.7143L123.706 11.4286ZM128.294 13.7143L128.294 16H130.588V11.4286H128.294L128.294 13.7143ZM128.294 11.4286V9.14286H123.706V11.4286H128.294ZM123.706 16V18.2857H128.294V16H123.706ZM112.235 22.8571H114.529V25.1429H112.235V22.8571ZM116.824 22.8571H119.118V25.1429H116.824V22.8571ZM121.412 22.8571V25.1429H130.588V22.8571H121.412ZM132.882 22.8571H135.176V25.1429H132.882V22.8571ZM107.647 22.8571H109.941V25.1429H107.647V22.8571ZM103.059 22.8571H105.353V25.1429H103.059V22.8571ZM98.4706 22.8571H100.765V25.1429H98.4706V22.8571ZM137.471 22.8571H139.765V25.1429H137.471V22.8571ZM142.059 22.8571H144.353V25.1429H142.059V22.8571ZM146.647 22.8571H148.941V25.1429H146.647V22.8571ZM151.235 22.8571H153.529V25.1429H151.235V22.8571ZM160.412 22.8571L162.706 22.8571V25.1429L160.412 25.1429V22.8571ZM155.824 22.8571H158.118V25.1429H155.824V22.8571ZM93.8824 22.8571H96.1765V25.1429H93.8824V22.8571ZM89.2941 22.8571H91.5882V25.1429H89.2941V22.8571Z" fill="#F31CED"/>
<path d="M123.706 11.4286V16H128.294V11.4286H123.706Z" fill="#C4BAFF"/>
<path d="M123.706 11.4286L123.706 13.7143H128.294L128.294 11.4286H123.706Z" fill="#C4BAFF"/>
</svg>
