<svg width="153" height="198" viewBox="0 0 153 198" fill="none" xmlns="http://www.w3.org/2000/svg">
<g filter="url(#filter0_dd_8091_70087)">
<path d="M24.1762 69.7393H129.018V173.834H24.1762V69.7393Z" fill="#FF8F51"/>
<path d="M129.018 92.957C128.544 93.5031 129.019 93.8511 129.018 94.4548C129.004 104.793 128.973 115.57 129.018 125.908C129.023 127.16 128.144 127.458 126.771 127.406C124.085 127.303 121.97 127.335 119.283 127.406C118.148 127.436 117.762 126.978 117.785 125.908C117.845 123.037 117.815 120.541 117.785 117.67C117.779 117.155 117.799 116.486 117.036 116.172C117.389 119.768 116.954 123.058 117.036 126.657C117.057 127.591 116.837 127.404 116.287 127.406C113.331 127.415 110.253 127.509 107.301 127.406C105.932 127.358 105.777 127.643 105.803 128.904C105.871 132.194 105.819 136.096 105.803 139.388C105.77 139.575 105.229 139.541 105.054 139.388C103.675 139.397 102.689 139.378 101.31 139.388C101.109 139.635 100.762 139.634 100.561 139.388C99.0724 139.388 97.556 139.388 96.0677 139.388C95.8663 139.635 95.5209 139.634 95.3189 139.388C94.9999 139.388 94.8893 139.388 94.57 139.388C93.9647 139.702 93.8164 140.281 93.8211 140.886C93.8475 144.205 93.8148 147.301 93.8211 150.621C94.0267 150.637 94.3647 150.606 94.57 150.621C94.9151 150.284 94.9068 150.621 95.3189 150.621C101.801 150.617 108.307 150.617 114.789 150.621C115.202 150.621 115.942 150.284 116.287 150.621C116.504 150.617 116.819 150.625 117.036 150.621C117.035 147.418 117.018 144.089 117.036 140.886C117.039 140.34 116.556 139.861 117.036 139.388C117.097 139.306 117.05 139.489 117.036 139.388C113.713 139.376 110.622 139.323 107.301 139.388C106.092 139.411 105.773 139.041 105.803 137.89C105.877 135.072 105.86 131.723 105.803 128.904C105.782 127.879 106.262 127.386 107.301 127.406C110.201 127.462 113.388 127.48 116.287 127.406C117.472 127.376 117.047 127.886 117.036 128.904C117.001 132.193 117.023 136.098 117.036 139.388C120.934 139.376 125.12 139.4 129.018 139.388C129.018 124.642 129.021 109.201 129.018 94.4548C129.018 93.8307 129.037 93.5808 129.018 92.957Z" fill="#F5703C"/>
<path d="M36.9067 140.135C36.9861 139.969 36.827 139.553 36.9067 139.386C36.8068 139.355 36.9941 139.478 36.9067 139.386C36.8798 139.485 36.9032 139.277 36.9067 139.386C36.877 139.545 36.8254 140.047 36.9067 140.135Z" fill="#CF5723"/>
<path d="M60.3013 83.3217C60.4051 81.8975 59.4051 81.0801 58.0547 81.075C54.8258 81.0631 51.5477 81.1863 48.3194 81.075C48.0172 88.7665 47.8724 96.5984 47.5706 104.29C51.4007 104.476 54.9738 104.854 58.8036 105.039C62.2626 104.893 65.839 104.885 69.2877 105.039C70.6224 105.099 71.5282 104.848 71.5343 103.542C71.5481 100.718 71.327 98.1198 71.5343 95.3039C71.6237 94.0895 71.2018 93.072 70.0366 93.0572C67.1115 93.0203 63.975 93.1007 61.0502 93.0572C59.9065 93.0402 59.4589 92.7902 59.5524 91.5594C59.7665 88.7441 60.1763 86.143 60.3013 83.3217Z" fill="#FF8F51"/>
<path d="M105.803 104.19C103.686 104.674 101.195 104.106 99.0628 104.19C97.2972 104.261 95.5889 104.166 93.8207 104.19C93.7449 108.08 93.8963 112.282 93.8207 116.173C94.3407 115.648 94.6947 116.178 95.3185 116.173C98.6901 116.147 102.43 115.438 105.803 115.424C105.8 111.572 105.806 108.043 105.803 104.19Z" fill="#FF8F51"/>
<path d="M59.3736 104.937C55.6595 104.9 51.8549 104.975 48.1406 104.937C48.117 108.656 48.1642 112.451 48.1406 116.171C51.8667 116.186 55.6468 116.155 59.3736 116.171C59.3851 112.473 59.3627 108.635 59.3736 104.937Z" fill="#FF8F51"/>
<path d="M94.5707 81.7244C94.9846 81.3303 95.5202 80.9799 96.0684 80.9755C99.27 80.9498 102.603 80.9946 105.804 80.9755C103.565 80.6696 101.312 81.0335 99.0639 80.9755C97.5731 80.9371 96.0634 80.9819 94.5707 80.9755C94.587 81.1408 94.5547 81.5591 94.5707 81.7244Z" fill="#CF5723"/>
<path d="M36.1588 126.651C36.1775 123.157 36.1401 119.662 36.1588 116.167C35.6972 116.58 36.1373 117.174 36.1588 117.665C36.2895 120.674 35.6048 123.653 36.1588 126.651Z" fill="#F5703C"/>
<path d="M36.1593 116.172C36.4088 116.08 36.6582 116.264 36.9082 116.172C36.6594 116.264 36.4094 116.08 36.1593 116.172Z" fill="#F5703C"/>
<path d="M101.311 139.387C101.061 139.387 100.811 139.387 100.562 139.387C100.812 139.633 101.061 139.634 101.311 139.387Z" fill="#CF5723"/>
<path d="M96.8174 139.387C96.5675 139.387 96.318 139.386 96.0685 139.387C96.3188 139.632 96.5683 139.634 96.8174 139.387Z" fill="#CF5723"/>
<path d="M105.804 139.387C105.695 139.391 105.6 139.43 105.52 139.503C105.694 139.657 105.77 139.574 105.804 139.387Z" fill="#CF5723"/>
<path d="M48.2764 139.35C48.1951 139.281 48.1014 139.243 47.9957 139.234C48.0283 139.42 48.1049 139.499 48.2764 139.35Z" fill="#CF5723"/>
<path d="M81.0742 139.364C80.6642 139.364 80.2541 139.364 79.8444 139.364C80.2548 139.677 80.6645 139.678 81.0742 139.364Z" fill="#CF5723"/>
<path d="M78.8662 139.364C78.4562 139.364 78.0465 139.364 77.6367 139.364C78.0465 139.678 78.4562 139.677 78.8662 139.364Z" fill="#CF5723"/>
<path d="M76.3428 139.364C75.9327 139.364 75.523 139.364 75.1133 139.364C75.5233 139.678 75.9331 139.677 76.3428 139.364Z" fill="#CF5723"/>
<path d="M73.8193 139.364C73.5134 139.364 73.2078 139.364 72.9021 139.364C73.2081 139.654 73.5137 139.655 73.8193 139.364Z" fill="#CF5723"/>
<path d="M106.519 128.334V139.938H48.7466V128.334H106.519Z" fill="#112630"/>
<path d="M129.341 69.7705H141V185.821H129.341V69.7705Z" fill="#112630"/>
<path d="M12.9447 69.7705H24.6035V185.821H12.9447V69.7705Z" fill="#112630"/>
<path d="M117.719 174.188H129.378V185.793H117.719V174.188Z" fill="#112630"/>
<path d="M24.4818 58.1621H36.1406V69.767H24.4818V58.1621Z" fill="#112630"/>
<path d="M117.743 58.1621H129.401V69.767H117.743V58.1621Z" fill="#112630"/>
<path d="M92.9691 137.787H104.628V149.392H92.9691V137.787Z" fill="#112630"/>
<path d="M37.2025 128.336H48.8613V139.941H37.2025V128.336Z" fill="#112630"/>
<path d="M86.3529 101.867H98.0117V113.472H86.3529V101.867Z" fill="#112630"/>
<path d="M97.6947 101.867H109.354V113.472H97.6947V101.867Z" fill="#112630"/>
<path d="M69.6549 101.867H57.9961V113.472H69.6549V101.867Z" fill="#112630"/>
<path d="M58.3131 101.867H46.6543V113.472H58.3131V101.867Z" fill="#112630"/>
<path d="M97.6947 90.5254H109.354V102.13H97.6947V90.5254Z" fill="#112630"/>
<path d="M58.3131 90.5254H46.6543V102.13H58.3131V90.5254Z" fill="#112630"/>
<path d="M71.0971 58.1621H82.7559V69.767H71.0971V58.1621Z" fill="#112630"/>
<path d="M71.0971 69.7705H82.7559V81.3754H71.0971V69.7705Z" fill="#CF5723"/>
<path d="M94.351 150.979H106.01V162.584H94.351V150.979Z" fill="#CF5723"/>
<path d="M106.024 150.979H117.683V162.584H106.024V150.979Z" fill="#CF5723"/>
<path d="M117.669 127.628H129.328V139.233H117.669V127.628Z" fill="#F5703C"/>
<path d="M24.6674 127.628H36.3262V139.233H24.6674V127.628Z" fill="#F5703C"/>
<path d="M47.9877 150.799H59.6465V162.404H47.9877V150.799Z" fill="#CF5723"/>
<path d="M36.3021 150.799H47.9609V162.404H36.3021V150.799Z" fill="#CF5723"/>
<path d="M82.6752 150.979H94.334V174.19H82.6752V150.979Z" fill="#CF5723"/>
<path d="M117.669 150.799H129.328V174.009H117.669V150.799Z" fill="#CF5723"/>
<path d="M24.6674 150.799H36.3262V174.009H24.6674V150.799Z" fill="#CF5723"/>
<path d="M117.692 139.364V150.969H82.7157V139.364H117.692Z" fill="#F5703C"/>
<path d="M129.217 127.734H117.559V81.5208H129.217V127.734Z" fill="#F5703C"/>
<path d="M36.3258 127.734H24.667L24.667 81.5208H36.3258L36.3258 127.734Z" fill="#F5703C"/>
<path d="M71.1436 139.364V150.969H36.1668V139.364H71.1436Z" fill="#F5703C"/>
<path d="M59.5472 150.799H71.2061V174.009H59.5472V150.799Z" fill="#CF5723"/>
<path d="M24.6029 69.7705H36.2617V81.3754H24.6029V69.7705Z" fill="#CF5723"/>
<path d="M117.743 69.7705H129.401V81.3754H117.743V69.7705Z" fill="#CF5723"/>
<path d="M71.0971 34.9355H82.7559V46.5404H71.0971V34.9355Z" fill="#112630"/>
<path d="M82.807 34.9355H94.4658V46.5404H82.807V34.9355Z" fill="#758428"/>
<path d="M94.4906 23.332H106.149V34.9369H94.4906V23.332Z" fill="#758428"/>
<path d="M71.3334 150.801H82.9922V174.011H71.3334V150.801Z" fill="#F5703C"/>
<path d="M71.1439 46.5381H82.8027V58.143H71.1439V46.5381Z" fill="#758428"/>
<path d="M94.4906 34.9355H106.149V46.5404H94.4906V34.9355Z" fill="#112630"/>
<path d="M94.4906 12.0762H106.149V23.6811H94.4906V12.0762Z" fill="#112630"/>
<path d="M106.341 23.6475H118V35.2523H106.341V23.6475Z" fill="#112630"/>
<path d="M82.807 23.332H94.4658V34.9369H82.807V23.332Z" fill="#112630"/>
<path d="M36.1668 46.5381H71.1436V58.143H36.1668V46.5381Z" fill="#112630"/>
<path d="M82.7254 46.5381H117.702V58.143H82.7254V46.5381Z" fill="#112630"/>
<path d="M70.1359 162.416H82.9922V174.021H70.1359V162.416Z" fill="#CF5723"/>
<path d="M59.2586 127.39H95.1758V138.732H59.2586V127.39Z" fill="#FF8F51"/>
<path d="M117.743 139.276H129.401V150.881H117.743V139.276Z" fill="#CF5723"/>
<path d="M24.4818 139.276H36.1406V150.881H24.4818V139.276Z" fill="#CF5723"/>
<path d="M82.7254 58.1621H117.702V69.767H82.7254V58.1621Z" fill="#CF5723"/>
<path d="M36.1668 58.1621H71.1436V69.767H36.1668V58.1621Z" fill="#CF5723"/>
<path d="M94.352 162.584H117.67V174.189H94.352V162.584Z" fill="#112630"/>
<path d="M36.3032 162.584H59.6211V174.189H36.3032V162.584Z" fill="#112630"/>
<path d="M13.143 174.188H36.4609V185.793H13.143V174.188Z" fill="#112630"/>
<path d="M59.4901 174.188H94.4668V185.793H59.4901V174.188Z" fill="#112630"/>
<path d="M47.9877 58.1621H59.6465V69.767H47.9877V58.1621Z" fill="#F5703C"/>
<path d="M94.2875 58.1621H105.946V69.767H94.2875V58.1621Z" fill="#F5703C"/>
<path d="M36.3041 150.979H47.9629V162.584H36.3041V150.979Z" fill="#F5703C"/>
<path d="M106.011 150.979H117.67V162.584H106.011V150.979Z" fill="#F5703C"/>
<path d="M105.256 128.336H116.915V139.941H105.256V128.336Z" fill="#112630"/>
<path d="M106.519 138.731V150.073H48.8621V138.731H106.519Z" fill="#112630"/>
<path d="M71.2289 127.39H82.8877V138.995H71.2289V127.39Z" fill="#112630"/>
</g>
<defs>
<filter id="filter0_dd_8091_70087" x="0.944336" y="0.0761719" width="152.056" height="197.744" filterUnits="userSpaceOnUse" color-interpolation-filters="sRGB">
<feFlood flood-opacity="0" result="BackgroundImageFix"/>
<feColorMatrix in="SourceAlpha" type="matrix" values="0 0 0 0 0 0 0 0 0 0 0 0 0 0 0 0 0 0 127 0" result="hardAlpha"/>
<feOffset/>
<feGaussianBlur stdDeviation="6"/>
<feComposite in2="hardAlpha" operator="out"/>
<feColorMatrix type="matrix" values="0 0 0 0 0.92549 0 0 0 0 0.380392 0 0 0 0 0.0745098 0 0 0 1 0"/>
<feBlend mode="normal" in2="BackgroundImageFix" result="effect1_dropShadow_8091_70087"/>
<feColorMatrix in="SourceAlpha" type="matrix" values="0 0 0 0 0 0 0 0 0 0 0 0 0 0 0 0 0 0 127 0" result="hardAlpha"/>
<feOffset/>
<feGaussianBlur stdDeviation="6"/>
<feComposite in2="hardAlpha" operator="out"/>
<feColorMatrix type="matrix" values="0 0 0 0 0.92549 0 0 0 0 0.380392 0 0 0 0 0.0745098 0 0 0 1 0"/>
<feBlend mode="normal" in2="effect1_dropShadow_8091_70087" result="effect2_dropShadow_8091_70087"/>
<feBlend mode="normal" in="SourceGraphic" in2="effect2_dropShadow_8091_70087" result="shape"/>
</filter>
</defs>
</svg>
