<svg width="130" height="168" viewBox="0 0 130 168" fill="none" xmlns="http://www.w3.org/2000/svg">
<g filter="url(#filter0_dd_8091_70013)">
<path d="M108.702 59.7324H21.918V145.899H108.702V59.7324Z" fill="#FF8F51"/>
<path d="M21.9181 78.9502C22.31 79.4022 21.9176 79.6903 21.9181 80.19C21.9297 88.7474 21.9552 97.6684 21.9181 106.226C21.9137 107.262 22.6413 107.509 23.7778 107.466C26.001 107.381 27.7519 107.407 29.9767 107.466C30.9159 107.49 31.2351 107.112 31.2164 106.226C31.1665 103.85 31.1912 101.784 31.2164 99.4069C31.2209 98.9801 31.2046 98.4267 31.8363 98.1671C31.5439 101.143 31.9039 103.867 31.8363 106.846C31.8187 107.619 32.0009 107.464 32.4562 107.466C34.9032 107.473 37.4507 107.551 39.8948 107.466C41.0281 107.426 41.1562 107.662 41.1346 108.705C41.0781 111.429 41.1217 114.659 41.1346 117.384C41.1622 117.539 41.6096 117.511 41.7545 117.384C42.8959 117.392 43.7125 117.376 44.8539 117.384C45.0201 117.588 45.3073 117.588 45.4738 117.384C46.706 117.384 47.9612 117.384 49.1931 117.384C49.3599 117.589 49.6457 117.587 49.813 117.384C50.0771 117.384 50.1686 117.384 50.4329 117.384C50.9339 117.644 51.0567 118.123 51.0528 118.624C51.0309 121.372 51.058 123.935 51.0528 126.682C50.8826 126.695 50.6028 126.67 50.4329 126.682C50.1473 126.403 50.1541 126.683 49.813 126.682C44.4474 126.679 39.0616 126.679 33.696 126.682C33.3549 126.683 32.7418 126.403 32.4562 126.682C32.2763 126.679 32.016 126.686 31.8363 126.682C31.8371 124.031 31.8516 121.276 31.8363 118.624C31.8337 118.173 32.2335 117.776 31.8363 117.384C31.7858 117.317 31.825 117.467 31.8363 117.384C34.5874 117.374 37.1453 117.331 39.8948 117.384C40.8953 117.404 41.1596 117.096 41.1346 116.144C41.0733 113.811 41.0878 111.039 41.1346 108.705C41.1517 107.858 40.7549 107.449 39.8948 107.466C37.4938 107.512 34.8564 107.527 32.4562 107.466C31.4754 107.441 31.8271 107.864 31.8363 108.705C31.8655 111.428 31.8471 114.661 31.8363 117.384C28.61 117.374 25.1445 117.394 21.9181 117.384C21.9184 105.178 21.9153 92.3963 21.9181 80.19C21.9181 79.6734 21.9024 79.4666 21.9181 78.9502Z" fill="#F5703C"/>
<path d="M98.1643 118.003C98.0986 117.866 98.2303 117.521 98.1643 117.384C98.2471 117.358 98.0921 117.46 98.1643 117.384C98.1866 117.465 98.1672 117.293 98.1643 117.384C98.189 117.515 98.2316 117.93 98.1643 118.003Z" fill="#CF5723"/>
<path d="M78.9485 70.8907C78.8625 69.7117 79.6903 69.0351 80.8081 69.031C83.4809 69.021 86.1944 69.123 88.8667 69.031C89.1168 75.3976 89.2367 81.8807 89.4865 88.2479C86.3161 88.4012 83.3584 88.7147 80.1883 88.8678C77.325 88.7462 74.3646 88.7402 71.5099 88.8678C70.405 88.9171 69.6552 88.7096 69.6502 87.628C69.6388 85.291 69.8218 83.14 69.6502 80.8091C69.5762 79.8039 69.9255 78.9616 70.89 78.9494C73.3113 78.9188 75.9075 78.9854 78.3286 78.9494C79.2753 78.9353 79.6458 78.7283 79.5684 77.7096C79.3912 75.3791 79.0519 73.2261 78.9485 70.8907Z" fill="#FF8F51"/>
<path d="M41.1347 88.2465C42.8868 88.6471 44.949 88.1765 46.7137 88.2465C48.1751 88.3046 49.5893 88.2263 51.0529 88.2465C51.1157 91.4666 50.9903 94.9446 51.0529 98.1649C50.6224 97.7303 50.3294 98.1691 49.8131 98.1649C47.0222 98.1434 43.9261 97.5572 41.1347 97.545C41.1371 94.3566 41.1317 91.4352 41.1347 88.2465Z" fill="#FF8F51"/>
<path d="M79.5673 88.8681C82.6416 88.8376 85.7909 88.8992 88.8655 88.8681C88.8851 91.9463 88.846 95.088 88.8655 98.1666C85.7812 98.1794 82.6522 98.1537 79.5673 98.1666C79.5577 95.1061 79.5762 91.9287 79.5673 88.8681Z" fill="#FF8F51"/>
<path d="M50.433 69.6512C50.0905 69.325 49.647 69.0349 49.1933 69.0313C46.5431 69.01 43.7844 69.0471 41.1348 69.0313C42.9875 68.7781 44.8527 69.0793 46.7137 69.0313C47.9478 68.9995 49.1975 69.0366 50.433 69.0313C50.4195 69.1682 50.4463 69.5143 50.433 69.6512Z" fill="#CF5723"/>
<path d="M98.7836 106.844C98.7681 103.951 98.799 101.058 98.7836 98.165C99.1657 98.5071 98.8014 98.9987 98.7836 99.4048C98.6754 101.896 99.2421 104.362 98.7836 106.844Z" fill="#F5703C"/>
<path d="M98.7839 98.1666C98.5775 98.0902 98.371 98.243 98.1641 98.1666C98.37 98.243 98.577 98.0902 98.7839 98.1666Z" fill="#F5703C"/>
<path d="M44.8535 117.383C45.0603 117.383 45.267 117.383 45.4734 117.383C45.2663 117.587 45.0599 117.587 44.8535 117.383Z" fill="#CF5723"/>
<path d="M48.5732 117.383C48.7801 117.383 48.9866 117.383 49.1931 117.383C48.986 117.586 48.7794 117.588 48.5732 117.383Z" fill="#CF5723"/>
<path d="M41.1348 117.383C41.2249 117.387 41.3034 117.419 41.3699 117.479C41.2256 117.606 41.1623 117.538 41.1348 117.383Z" fill="#CF5723"/>
<path d="M88.7529 117.353C88.8202 117.297 88.8978 117.265 88.9852 117.258C88.9583 117.412 88.8949 117.477 88.7529 117.353Z" fill="#CF5723"/>
<path d="M61.6045 117.363C61.9439 117.363 62.2833 117.363 62.6225 117.363C62.2828 117.622 61.9436 117.623 61.6045 117.363Z" fill="#CF5723"/>
<path d="M63.4316 117.363C63.7711 117.363 64.1102 117.363 64.4494 117.363C64.1102 117.623 63.7711 117.622 63.4316 117.363Z" fill="#CF5723"/>
<path d="M65.5215 117.363C65.8609 117.363 66.2 117.363 66.5392 117.363C66.1998 117.623 65.8606 117.622 65.5215 117.363Z" fill="#CF5723"/>
<path d="M67.6094 117.363C67.8626 117.363 68.1156 117.363 68.3686 117.363C68.1154 117.603 67.8624 117.604 67.6094 117.363Z" fill="#CF5723"/>
<path d="M50.6284 68.3633H40.7168V91.4205H50.6284V68.3633Z" fill="#112630"/>
<path d="M34.3682 74.9585V84.8242H56.9766V74.9585H34.3682Z" fill="#112630"/>
<path d="M31.3076 98.1664V107.772H50.6094V98.1664H31.3076Z" fill="#112630"/>
<path d="M40.9316 107.65V117.256H88.7532V107.65H40.9316Z" fill="#112630"/>
<path d="M79.3818 98.1664V107.772H98.6836V98.1664H79.3818Z" fill="#112630"/>
<path d="M89.2573 68.3623H79.3457V91.4196H89.2573V68.3623Z" fill="#112630"/>
<path d="M72.9971 74.9565V84.8223H95.6055V74.9565H72.9971Z" fill="#112630"/>
<path d="M21.6507 59.7559H12V155.818H21.6507V59.7559Z" fill="#112630"/>
<path d="M118 59.7559H108.35V155.818H118V59.7559Z" fill="#112630"/>
<path d="M31.2718 146.191H21.6211V155.798H31.2718V146.191Z" fill="#112630"/>
<path d="M108.45 50.1484H98.7988V59.7545H108.45V50.1484Z" fill="#112630"/>
<path d="M31.2513 50.1484H21.6006V59.7545H31.2513V50.1484Z" fill="#112630"/>
<path d="M69.8626 50.1484H60.2119V59.7545H69.8626V50.1484Z" fill="#112630"/>
<path d="M69.8626 59.7559H60.2119V69.362H69.8626V59.7559Z" fill="#CF5723"/>
<path d="M50.6136 126.979H40.9629V136.586H50.6136V126.979Z" fill="#CF5723"/>
<path d="M40.9515 126.979H31.3008V136.586H40.9515V126.979Z" fill="#CF5723"/>
<path d="M31.3128 107.651H21.6621V117.257H31.3128V107.651Z" fill="#F5703C"/>
<path d="M108.296 107.651H98.6455V117.257H108.296V107.651Z" fill="#F5703C"/>
<path d="M88.9925 126.829H79.3418V136.435H88.9925V126.829Z" fill="#CF5723"/>
<path d="M98.6654 126.829H89.0146V136.435H98.6654V126.829Z" fill="#CF5723"/>
<path d="M60.2787 126.979H50.6279V146.192H60.2787V126.979Z" fill="#CF5723"/>
<path d="M31.3128 126.829H21.6621V146.042H31.3128V126.829Z" fill="#CF5723"/>
<path d="M108.296 126.829H98.6455V146.042H108.296V126.829Z" fill="#CF5723"/>
<path d="M31.293 117.365V126.971H60.2454V117.365H31.293Z" fill="#F5703C"/>
<path d="M21.7536 107.737H31.4043L31.4043 69.4834H21.7536L21.7536 107.737Z" fill="#F5703C"/>
<path d="M98.6452 107.737H108.296V69.4834H98.6452V107.737Z" fill="#F5703C"/>
<path d="M69.8252 117.365V126.971H98.7777V117.365H69.8252Z" fill="#F5703C"/>
<path d="M79.4232 126.829H69.7725V146.042H79.4232V126.829Z" fill="#CF5723"/>
<path d="M108.35 59.7559H98.6992V69.362H108.35V59.7559Z" fill="#CF5723"/>
<path d="M31.2513 59.7559H21.6006V69.362H31.2513V59.7559Z" fill="#CF5723"/>
<path d="M69.8626 30.9219H60.2119V40.528H69.8626V30.9219Z" fill="#112630"/>
<path d="M69.6507 30.9219H60V40.528H69.6507V30.9219Z" fill="#758428"/>
<path d="M60.4984 21.3164H50.8477V30.9225H60.4984V21.3164Z" fill="#758428"/>
<path d="M69.6673 126.832H60.0166V146.044H69.6673V126.832Z" fill="#F5703C"/>
<path d="M69.8246 40.5283H60.1738V50.1344H69.8246V40.5283Z" fill="#758428"/>
<path d="M59.6507 30.9219H50V40.528H59.6507V30.9219Z" fill="#112630"/>
<path d="M79.6507 30.9219H70V40.528H79.6507V30.9219Z" fill="#112630"/>
<path d="M60.4984 12H50.8477V21.6061H60.4984V12Z" fill="#112630"/>
<path d="M50.6898 21.5781H41.0391V31.1842H50.6898V21.5781Z" fill="#112630"/>
<path d="M69.6507 21.3164H60V30.9225H69.6507V21.3164Z" fill="#112630"/>
<path d="M98.7777 40.5283H69.8252V50.1344H98.7777V40.5283Z" fill="#112630"/>
<path d="M59.9525 40.5283H31V50.1344H59.9525V40.5283Z" fill="#112630"/>
<path d="M70.6586 136.445H60.0166V146.051H70.6586V136.445Z" fill="#CF5723"/>
<path d="M31.2513 117.291H21.6006V126.897H31.2513V117.291Z" fill="#CF5723"/>
<path d="M108.45 117.291H98.7988V126.897H108.45V117.291Z" fill="#CF5723"/>
<path d="M60.2376 50.1484H31.2852V59.7545H60.2376V50.1484Z" fill="#CF5723"/>
<path d="M98.7777 50.1484H69.8252V59.7545H98.7777V50.1484Z" fill="#CF5723"/>
<path d="M50.6142 136.586H31.3125V146.192H50.6142V136.586Z" fill="#112630"/>
<path d="M98.664 136.586H79.3623V146.192H98.664V136.586Z" fill="#112630"/>
<path d="M117.836 146.191H98.5342V155.798H117.836V146.191Z" fill="#112630"/>
<path d="M79.471 146.191H50.5186V155.798H79.471V146.191Z" fill="#112630"/>
<path d="M88.9925 50.1484H79.3418V59.7545H88.9925V50.1484Z" fill="#F5703C"/>
<path d="M50.6664 50.1484H41.0156V59.7545H50.6664V50.1484Z" fill="#F5703C"/>
<path d="M98.6634 126.979H89.0127V136.586H98.6634V126.979Z" fill="#F5703C"/>
<path d="M40.9632 126.979H31.3125V136.586H40.9632V126.979Z" fill="#F5703C"/>
</g>
<defs>
<filter id="filter0_dd_8091_70013" x="0" y="0" width="130" height="167.818" filterUnits="userSpaceOnUse" color-interpolation-filters="sRGB">
<feFlood flood-opacity="0" result="BackgroundImageFix"/>
<feColorMatrix in="SourceAlpha" type="matrix" values="0 0 0 0 0 0 0 0 0 0 0 0 0 0 0 0 0 0 127 0" result="hardAlpha"/>
<feOffset/>
<feGaussianBlur stdDeviation="6"/>
<feComposite in2="hardAlpha" operator="out"/>
<feColorMatrix type="matrix" values="0 0 0 0 0.92549 0 0 0 0 0.380392 0 0 0 0 0.0745098 0 0 0 1 0"/>
<feBlend mode="normal" in2="BackgroundImageFix" result="effect1_dropShadow_8091_70013"/>
<feColorMatrix in="SourceAlpha" type="matrix" values="0 0 0 0 0 0 0 0 0 0 0 0 0 0 0 0 0 0 127 0" result="hardAlpha"/>
<feOffset/>
<feGaussianBlur stdDeviation="6"/>
<feComposite in2="hardAlpha" operator="out"/>
<feColorMatrix type="matrix" values="0 0 0 0 0.92549 0 0 0 0 0.380392 0 0 0 0 0.0745098 0 0 0 1 0"/>
<feBlend mode="normal" in2="effect1_dropShadow_8091_70013" result="effect2_dropShadow_8091_70013"/>
<feBlend mode="normal" in="SourceGraphic" in2="effect2_dropShadow_8091_70013" result="shape"/>
</filter>
</defs>
</svg>
