<svg width="122" height="147" viewBox="0 0 122 147" fill="none" xmlns="http://www.w3.org/2000/svg">
<mask id="path-1-outside-1_8091_69241" maskUnits="userSpaceOnUse" x="-4.37114e-08" y="-4.37114e-08" width="122" height="147" fill="black">
<rect fill="white" x="-4.37114e-08" y="-4.37114e-08" width="122" height="147"/>
<path d="M121 1.52177C120.65 2.27929 119.989 2.80676 119.229 3.28241C118.838 3.52698 118.538 3.87258 118.179 4.15548C116.797 5.24461 115.394 6.31561 114.026 7.41615C113.345 7.96486 112.736 8.5773 112.066 9.13637C110.489 10.4509 107.861 11.7685 105.198 13.0535C100.651 16.6826 94.5254 17.9465 89.0911 20.5558C87.0599 21.531 84.9898 22.4507 82.9173 23.3631C82.2992 23.6352 81.6133 23.7989 80.9576 24.0108C80.7016 24.0937 80.4241 24.1429 80.189 24.2564C77.8143 25.4015 75.2692 26.1544 72.6292 26.7471C70.7423 27.171 68.9375 27.8513 67.0543 28.2896C62.8642 29.2653 58.5951 29.8777 54.2354 29.9513C53.1177 29.9705 51.9988 29.9383 50.8804 29.9295C50.7768 29.9285 50.6732 29.9259 50.5702 29.928C49.9034 29.943 49.7726 30.1285 50.0934 30.6306C50.4332 31.1622 50.7984 31.6824 51.1352 32.2156C51.5867 32.9301 51.9895 33.6679 52.4712 34.3679C53.9948 36.5835 55.3926 38.8478 56.5584 41.2167C57.4386 43.0048 58.3885 44.7701 59.376 46.5178C60.1421 47.8743 61.0267 49.1832 61.8328 50.5241C62.2202 51.1682 62.8377 51.5448 63.6346 51.7226C65.6677 52.1754 67.7205 52.5485 69.8424 52.4454C71.3209 52.3734 72.7951 52.2516 74.2718 52.1542C80.0669 51.7733 85.0133 49.5609 89.827 47.0645C91.7645 46.0598 93.4126 44.7655 94.9627 43.38C95.6813 42.738 96.3277 42.038 97.0605 41.4084C97.9408 40.652 98.2492 39.7084 98.4959 38.7219C98.7648 37.6483 99.0153 36.5674 99.3866 35.5182C99.6481 34.7793 100.137 34.0995 100.459 33.3726C102.642 28.4321 105.777 25.2273 108.058 20.3194C109.64 16.9157 112.682 13.6577 114.616 10.3799C116.719 8.59751 118.066 6.97935 119.141 5.2213C119.529 4.58917 120.072 4.02232 120.613 3.45288C120.872 4.28916 120.727 5.08036 120.418 5.84048C120.191 6.39696 119.908 6.95448 119.533 7.44827C117.276 10.4214 114.453 13.6038 111.718 16.8199C108.481 23.0101 104.404 27.5067 101.782 33.9016C101.124 35.5084 100.607 37.1612 100.135 38.8151C99.8844 39.6955 100.242 39.7281 100.966 39.8504C104.929 40.5183 108.85 40.2478 112.738 39.4576C114.107 39.1794 115.448 38.81 116.799 38.4747C117.115 38.3965 117.445 38.3157 117.564 38.6654C117.67 38.9763 117.376 39.0768 117.078 39.1613C113.141 40.2753 109.121 41.0375 104.942 40.9354C103.299 40.8955 101.662 40.6634 99.9325 40.511C99.3471 41.2717 98.8888 42.2069 98.6001 43.1857C97.4732 47.0106 96.3876 50.8443 95.2767 54.6729C94.5118 57.3097 93.7272 59.9418 92.9599 62.5781C92.7427 63.3243 92.5478 64.0782 92.7933 64.8476C92.868 65.0823 92.9623 65.3222 93.1079 65.5305C97.5448 71.8809 103.857 76.4193 111.944 79.2167C113.465 79.7431 115.056 80.126 116.608 80.5898C116.909 80.6794 117.226 80.7975 117.448 80.9784C117.581 81.0862 117.626 81.368 117.555 81.5214C117.502 81.6375 117.19 81.7535 117.017 81.7318C116.408 81.6556 115.799 81.5489 115.208 81.4033C110.48 80.2385 106.046 78.5649 102.122 76.0198C98.5866 73.727 95.6628 70.986 93.4774 67.7031C93.1918 67.2741 92.8926 66.8518 92.5966 66.4279C92.5626 66.3797 92.5114 66.3404 92.4559 66.2844C92.0013 66.4015 91.9452 66.745 91.8761 67.0388C91.6793 67.8746 91.5331 68.7186 91.3536 69.5575C90.9237 71.5617 90.4469 73.5596 90.0669 75.5705C89.835 76.797 89.7709 78.0452 89.5889 79.2794C89.3866 80.6556 89.0924 82.023 88.9227 83.4017C88.8191 84.2432 88.8493 85.0986 88.8832 85.9463C88.8906 86.1251 89.1343 86.3557 89.3422 86.4614C91.812 87.7163 94.4853 88.4899 97.3727 88.6039C98.9838 88.6676 100.593 88.522 102.089 87.9039C102.593 87.6956 103.151 87.5805 103.679 87.4101C103.934 87.3282 104.226 87.2624 104.414 87.1121C105.145 86.5272 106.072 86.3298 106.993 86.0842C109.564 85.3987 112.117 84.6681 114.684 83.9722C115.611 83.7209 116.556 83.5178 117.485 83.2945C117.881 84.1126 117.608 84.6126 116.661 84.8852C114.437 85.5261 112.192 86.122 109.991 86.8168C107.981 87.4515 106.014 88.1862 104.036 88.8914C103.659 89.0256 103.304 89.2117 102.961 89.4013C102.603 89.5982 102.517 89.822 102.845 90.1412C104.215 91.4775 105.905 92.4267 107.722 93.2956C109.905 94.3402 112.263 94.8195 114.672 95.2179C115.261 95.3154 115.865 95.3485 116.462 95.4117C116.564 95.4226 116.679 95.4154 116.766 95.4527C117.029 95.5667 117.281 95.6988 117.538 95.8237C117.385 96.0376 117.288 96.3143 117.067 96.4527C116.465 96.832 115.849 97.2232 115.17 97.4864C110.451 99.319 107.072 102.382 104.194 105.897C102.517 107.945 101.264 110.18 100.348 112.543C100.073 113.254 99.8011 113.978 99.6673 114.714C99.592 115.129 99.6851 115.626 99.9004 116.007C101.743 119.27 103.62 122.519 105.51 125.763C106.319 127.152 107.18 128.519 108.026 129.892C108.094 130.002 108.221 130.086 108.321 130.182C108.38 130.183 108.439 130.184 108.498 130.185C108.533 129.988 108.632 129.781 108.591 129.596C108.504 129.2 108.248 128.818 108.236 128.426C108.21 127.607 108.273 126.785 108.344 125.966C108.455 124.668 108.589 123.371 108.74 122.075C108.905 120.647 109.17 119.23 109.892 117.916C110.533 116.75 110.873 115.517 111.229 114.282C111.326 113.948 111.44 113.603 111.636 113.304C112.206 112.43 112.792 111.568 113.005 110.566C113.042 110.393 113.21 110.236 113.333 110.08C113.788 109.501 114.227 108.912 114.718 108.355C115.02 108.012 115.429 107.737 115.746 107.403C116.085 107.044 116.381 106.655 116.68 106.27C116.857 106.042 117.093 105.933 117.375 106.067C117.686 106.215 117.694 106.455 117.502 106.702C117.416 106.811 117.338 106.923 117.262 107.036C116.266 108.52 115.199 109.975 114.291 111.495C112.255 114.905 110.937 118.509 110.368 122.302C109.848 125.768 109.868 129.233 110.402 132.694C110.699 134.621 111.505 136.406 112.607 138.117C114.166 140.537 115.284 143.12 116.367 145.711C116.383 145.748 116.369 145.794 116.369 145.858C115.882 146.026 115.493 145.903 115.219 145.552C115.032 145.312 114.916 145.034 114.752 144.781C114.538 144.454 114.37 144.085 114.073 143.821C113.411 143.232 113.104 142.534 112.987 141.757C112.875 141.019 112.574 140.367 111.911 139.84C111.398 139.432 111.065 138.928 111.002 138.323C110.925 137.578 110.397 137.204 109.568 137.059C107.953 136.778 106.35 136.435 104.723 136.215C101.74 135.811 98.7321 135.699 95.7097 135.78C91.8095 135.886 88.0228 136.455 84.3656 137.615C84.0004 137.731 83.5958 137.756 83.2189 137.851C82.5971 138.006 81.9291 138.101 81.3758 138.365C79.13 139.433 76.9026 140.532 74.703 141.667C73.2608 142.411 71.9569 143.306 70.8373 144.393C70.3346 144.881 69.7196 145.296 69.109 145.695C68.2867 146.231 67.1388 146.049 66.7564 145.242C66.2629 144.203 65.717 143.211 64.8442 142.358C64.735 142.251 64.6666 142.108 64.6098 141.973C63.9732 140.453 62.7334 139.336 61.2691 138.35C60.3827 137.753 59.5901 137.055 58.6858 136.479C57.6057 135.79 56.4788 135.146 55.3222 134.553C54.1786 133.966 53.0011 133.411 51.7829 132.944C50.8385 132.583 49.8022 132.394 48.8184 132.1C48.1935 131.914 47.5915 131.674 46.9753 131.467C46.789 131.404 46.5923 131.343 46.3955 131.326C45.0977 131.214 43.7974 131.127 42.5008 131.008C40.8385 130.854 39.1749 130.693 37.515 130.976C37.0185 131.061 36.509 131.198 36.0735 131.411C32.8734 132.97 29.6301 134.476 26.52 136.156C23.8572 137.593 21.3473 139.232 18.7789 140.793C16.2067 142.355 13.4945 143.726 10.7243 145.023C9.23528 145.72 7.65681 146.027 5.96177 145.927C5.79461 145.917 5.62931 145.892 5.44549 145.797C6.36519 145.426 7.28733 145.059 8.20456 144.683C11.1678 143.468 14.0274 142.116 16.5743 140.332C17.1128 139.955 17.7475 139.676 18.3403 139.353C18.8455 139.079 19.4203 138.866 19.8497 138.525C21.8593 136.927 24.2365 135.778 26.5626 134.566C28.4785 133.567 30.3993 132.574 32.3478 131.622C32.9937 131.306 33.7252 131.11 34.4309 130.887C34.8565 130.752 35.2303 130.576 35.3506 130.194C35.6769 129.154 36.3566 128.264 37.0333 127.376C38.4174 125.56 39.054 123.529 39.4716 121.438C39.9324 119.131 40.0156 116.802 39.8781 114.468C39.7535 112.351 39.3075 110.277 38.6537 108.233C38.6272 108.149 38.6173 108.048 38.5544 107.989C37.9523 107.427 38.0479 106.694 37.8333 106.036C37.6865 105.588 37.4206 105.151 37.1184 104.758C36.6601 104.161 36.1568 103.602 36.0809 102.852C36.0581 102.625 35.8477 102.409 35.7108 102.194C35.5159 101.889 35.271 101.601 35.1168 101.283C34.8855 100.806 34.6165 100.37 34.1138 100.049C33.9565 99.9481 33.856 99.7822 33.7394 99.6403C33.381 99.205 33.0825 98.7242 32.6606 98.3382C31.7292 97.4853 30.7373 96.6786 29.767 95.8558C29.4333 95.5729 29.0287 95.4527 28.55 95.476C25.4548 95.6247 22.4002 95.2091 19.3328 94.9863C16.1253 94.7532 12.9184 94.5174 9.71271 94.2646C8.99534 94.2081 8.28597 94.0775 7.57292 93.9806C7.47114 93.9666 7.36999 93.9444 7.2676 93.9366C6.49163 93.8791 6.32384 94.0267 6.60265 94.6299C7.10043 95.7055 7.69321 96.7506 8.16878 97.833C9.46597 100.786 10.3086 103.842 10.715 106.965C11.0944 109.882 11.3306 112.814 11.5842 115.742C11.8457 118.76 11.4886 121.75 10.9562 124.736C10.2851 128.5 9.33459 132.207 7.93439 135.828C7.0406 138.14 5.96485 140.387 4.65101 142.556C4.16001 143.366 3.75291 144.212 3.28227 145.032C2.76722 145.927 2.73823 145.928 1.55453 145.849C1.41821 145.839 1.28128 145.837 1.00001 145.826C1.24612 145.481 1.40774 145.164 1.66434 144.917C2.20406 144.395 2.69998 143.884 2.7006 143.132C2.7006 142.929 2.94177 142.728 3.05958 142.522C3.26437 142.162 3.47657 141.803 3.65483 141.434C3.89169 140.941 4.02678 140.405 4.33581 139.949C4.88725 139.136 5.37208 138.321 5.45165 137.369C5.46337 137.229 5.49236 137.048 5.59969 136.964C6.14188 136.538 6.08945 135.942 6.30472 135.421C6.66619 134.546 6.7254 133.598 7.07453 132.761C8.19037 130.085 8.71653 127.304 9.39504 124.553C9.68557 123.374 9.69728 122.141 9.75773 120.929C9.84594 119.164 9.93846 117.395 9.8885 115.631C9.84656 114.16 9.59056 112.693 9.45116 111.223C9.34322 110.085 9.30683 108.942 9.1699 107.808C9.03173 106.662 8.88739 105.509 8.60488 104.384C8.17618 102.679 7.62659 100.995 7.12572 99.3014C7.09673 99.204 7.06774 99.1009 7.00544 99.018C5.98953 97.6563 5.72429 96.077 5.24871 94.5692C5.04639 93.9273 5.21479 93.2029 5.21479 92.4682C5.501 92.4682 5.68481 92.4552 5.86493 92.4702C9.64917 92.7775 13.0855 91.921 16.2875 90.2775C18.4186 89.1837 20.3073 87.8308 22.0647 86.3536C23.8313 84.8691 25.5405 83.3364 27.267 81.8183C27.5039 81.61 27.6871 81.3597 27.9073 81.1375C28.5562 80.4836 29.165 79.7949 29.8774 79.1939C30.6294 78.5592 31.2579 77.8695 31.7464 77.0783C32.1116 76.4866 32.5057 75.9291 33.2287 75.5566C33.5062 75.4135 33.6234 75.041 33.7943 74.7643C34.0676 74.3213 34.2304 73.8016 34.6079 73.4368C35.5325 72.543 36.2943 71.5741 36.9037 70.513C38.212 68.2357 39.5246 65.9601 40.8249 63.6792C40.9723 63.4212 41.0723 63.1403 41.1586 62.8621C41.3141 62.3595 41.5873 61.9367 42.0512 61.5735C42.7476 61.0289 42.9653 60.2579 43.2219 59.5284C43.6648 58.2688 43.8437 56.9123 44.5105 55.7496C45.1785 54.5853 45.3321 53.3257 45.9107 52.1687C46.422 51.1454 46.7255 50.0899 46.8735 48.992C47.0173 47.9293 47.1647 46.8645 47.3837 45.8116C47.5187 45.1608 47.8679 44.5401 47.9814 43.8883C48.1454 42.9458 48.1812 41.9882 48.2737 41.0369C48.4144 39.5955 48.613 38.1561 48.6833 36.712C48.7604 35.1363 48.7437 33.556 48.7172 31.9783C48.7067 31.3606 48.5124 30.7461 48.4853 30.1275C48.4508 29.3254 48.6346 29.271 49.5734 29.2907C50.2796 29.3057 50.9896 29.13 51.7014 29.0689C53.1911 28.9414 54.6832 28.8342 56.1741 28.7186C56.2598 28.7119 56.3517 28.7228 56.4307 28.7C58.2559 28.1798 60.2087 28.2762 62.066 27.7917C64.4044 27.1813 66.8464 26.857 69.2323 26.3684C69.8411 26.2435 70.395 25.9388 70.9934 25.7626C71.6824 25.5595 72.393 25.4088 73.0937 25.2336C73.5871 25.1103 74.1028 25.029 74.5685 24.8528C77.9241 23.5859 81.2858 22.3284 84.6092 21.003C85.6412 20.5916 86.551 19.9672 87.5355 19.4667C87.9395 19.2615 88.3941 19.1268 88.824 18.9569C89.5661 18.6636 90.376 18.4506 91.036 18.0594C94.0751 16.2563 98.2316 16.2904 101.024 14.209C102.287 13.2675 103.552 12.3281 104.824 11.3955C105.069 11.2157 105.337 11.0499 105.618 10.9131C107.643 10.4411 109.534 9.85918 110.067 9.00788C110.115 8.93171 110.175 8.85554 110.251 8.79803C111.289 8.00009 112.336 7.20993 113.369 6.40681C113.718 6.13478 114.086 5.8612 114.352 5.53477C114.664 5.14824 115.016 4.84565 115.534 4.66844C115.769 4.58813 115.993 4.46688 116.191 4.33217C117.137 3.68915 118.107 3.06687 118.996 2.371C119.496 1.98032 119.854 1.46115 120.276 1C120.517 1 120.759 1 121 1C121 1.1741 121 1.34767 121 1.52177ZM11.9721 93.1811C12.2898 93.2951 12.4483 93.3817 12.6204 93.4081C13.0935 93.4811 13.5697 93.5563 14.0484 93.5822C15.509 93.6609 16.9722 93.7122 18.434 93.7827C21.2369 93.9179 24.0398 94.0495 26.8408 94.2003C28.5926 94.2946 30.3419 94.419 32.0919 94.5356C32.903 94.5894 33.7277 94.8076 34.4666 94.2931C34.5906 94.2065 34.8293 94.2381 35.0144 94.2107C35.1982 94.1837 35.4085 94.1905 35.559 94.1143C36.7791 93.4962 37.9943 92.8697 39.1971 92.2277C39.6363 91.9935 40.0422 91.736 40.6066 91.7583C40.7509 91.764 40.9273 91.6661 41.0476 91.5759C41.9981 90.8635 42.9197 90.1236 43.8856 89.4267C46.2382 87.7308 48.1917 85.7168 50.2735 83.8054C50.5258 83.5738 50.6899 83.2769 50.9088 83.0183C51.3153 82.5385 51.7335 82.066 52.1437 81.5888C52.3133 81.3913 52.573 81.2053 52.6218 80.9872C52.7914 80.2307 53.2818 79.6188 53.8073 79.0338C55.9853 76.6115 57.4577 73.8933 58.4391 71C59.2668 68.5591 59.8979 66.0715 60.622 63.6056C61.092 62.004 61.5275 60.4009 61.5719 58.7387C61.6065 57.4371 61.7138 56.1371 61.7403 54.8356C61.7502 54.3366 61.7594 53.7894 61.5399 53.3438C60.7318 51.7034 59.8029 50.1055 58.9665 48.4743C58.0079 46.6049 57.1178 44.7111 56.1574 42.8421C55.8404 42.2256 55.3926 41.6572 55.0181 41.0608C54.8275 40.7571 54.6542 40.4452 54.4963 40.1286C54.2989 39.7328 54.1546 39.3172 53.935 38.9307C53.5599 38.2695 53.1263 37.6317 52.7507 36.9706C51.9081 35.4866 51.0896 33.9933 50.2482 32.5088C50.1699 32.3705 50.0015 32.2674 49.793 32.0705C49.7517 32.2897 49.7276 32.3601 49.7264 32.4306C49.7079 33.5301 49.7042 34.6296 49.6715 35.7286C49.6468 36.5524 49.5759 37.3758 49.5432 38.1996C49.4605 40.2675 49.4975 42.3432 49.2878 44.4012C48.9115 48.0982 47.9197 51.6993 46.5719 55.233C44.7023 60.1325 42.0894 64.7668 39.442 69.3891C38.7789 70.5472 38.0683 71.6866 37.3485 72.8202C36.995 73.3767 36.6441 73.9539 36.1617 74.4286C35.2833 75.2923 34.5172 76.2001 33.8893 77.2099C33.5204 77.8027 32.9795 78.3229 32.4903 78.8592C32.2189 79.1561 31.8871 79.4136 31.5959 79.6986C29.8275 81.4266 28.431 83.4276 26.24 84.8468C26.0784 84.9515 25.955 85.0981 25.8162 85.2271C22.1665 88.6163 17.977 91.3495 12.7493 92.8231C12.5199 92.8879 12.3182 93.0195 11.9721 93.1811ZM37.6199 129.278C38.0288 129.168 38.4119 129.119 38.7283 128.971C41.055 127.88 43.476 126.919 45.5597 125.488C45.8755 125.271 46.2277 125.034 46.6077 124.951C47.4823 124.762 48.1399 124.318 48.7894 123.84C49.1391 123.583 49.4815 123.316 49.8547 123.083C53.7857 120.635 57.7174 118.188 61.6601 115.753C63.4779 114.631 65.3179 113.532 67.1561 112.434C67.9697 111.948 68.5353 111.336 68.3638 110.466C68.0659 108.959 67.7624 107.451 66.971 106.044C64.8313 102.239 61.2919 99.5102 57.3121 97.1216C56.2629 96.4921 55.0551 96.2138 53.7536 96.2568C52.549 96.2967 51.3437 96.3625 50.139 96.3584C46.5201 96.3459 42.8993 96.3641 39.2841 96.2522C37.1406 96.1858 35.0082 95.8879 32.8678 95.7185C32.5347 95.692 32.1868 95.7983 31.8464 95.8433C32.0283 96.0905 32.1517 96.3936 32.4009 96.576C34.0053 97.7475 35.2858 99.1403 36.4171 100.637C39.9928 105.367 41.9346 110.49 41.7113 116.14C41.5781 119.526 40.7441 122.787 39.3026 125.94C38.7986 127.041 38.2096 128.114 37.6199 129.278ZM70.2014 143.295C70.2643 143.321 70.3272 143.346 70.3895 143.371C70.6486 143.17 70.9107 142.972 71.1649 142.767C71.7983 142.256 72.3812 141.693 73.0665 141.237C76.4739 138.969 80.2773 137.303 84.4131 136.204C86.456 135.662 88.5298 135.081 90.64 134.866C93.5169 134.574 96.4419 134.541 99.3471 134.536C102.189 134.532 105.013 134.783 107.708 135.655C108.114 135.787 108.581 135.826 109.022 135.834C109.467 135.842 109.613 135.614 109.435 135.311C108.509 133.73 107.594 132.145 106.655 130.57C105.769 129.085 104.789 127.638 103.98 126.124C103.329 124.906 102.72 123.688 101.695 122.648C101.294 122.243 101.064 121.77 101.021 121.222C100.998 120.933 100.838 120.638 100.678 120.373C100.166 119.523 99.6494 118.675 99.0813 117.852C98.9061 117.599 98.5718 117.416 98.2886 117.223C98.0123 117.034 97.6071 116.926 97.4356 116.691C96.9162 115.983 96.123 115.59 95.2853 115.253C90.4759 113.321 85.7491 113.692 81.0902 115.651C80.5283 115.888 80.2199 116.287 80.0706 116.79C79.8837 117.42 79.7147 118.055 79.4828 118.674C78.2337 122.005 76.9945 125.339 75.6979 128.657C74.6857 131.246 73.8752 133.897 72.4331 136.36C72.2381 136.693 72.1505 137.071 72.0253 137.431C71.5732 138.731 71.126 140.032 70.6776 141.333C70.5437 141.721 70.3914 142.107 70.2883 142.5C70.2211 142.758 70.2279 143.03 70.2014 143.295ZM68.0758 144.522C68.2294 144.222 68.3281 144.072 68.3836 143.913C68.7648 142.819 69.1447 141.725 69.5093 140.626C69.9497 139.299 70.0502 137.884 70.949 136.674C71.0014 136.603 71.0174 136.51 71.0316 136.425C71.2235 135.252 71.7447 134.171 72.2881 133.09C72.4701 132.728 72.5176 132.316 72.6064 131.923C72.6792 131.601 72.6625 131.256 72.789 130.952C73.7901 128.541 74.8467 126.146 75.825 123.729C76.5652 121.899 77.2153 120.043 77.9056 118.199C78.1319 117.593 78.3836 116.993 78.5791 116.38C78.8444 115.547 78.6359 114.85 77.8217 114.238C76.3135 113.103 74.5741 112.403 72.6064 112.1C71.4245 111.918 70.297 111.911 69.2237 112.59C63.9097 115.949 58.5717 119.283 53.2158 122.596C49.6388 124.808 46.0791 127.047 42.2115 128.904C42.0191 128.996 41.8371 129.115 41.6823 129.247C41.5824 129.333 41.4522 129.506 41.4923 129.568C41.5571 129.668 41.744 129.741 41.8927 129.766C42.1949 129.816 42.5064 129.829 42.8148 129.851C43.74 129.919 44.6739 129.94 45.5899 130.059C49.949 130.627 53.9134 132.038 57.5286 134.14C59.9848 135.569 62.4182 137.052 64.1386 139.144C65.3186 140.579 66.2814 142.139 67.3498 143.638C67.5428 143.91 67.7772 144.162 68.0758 144.522ZM96.8903 43.6582C96.4653 43.494 96.2254 43.6007 95.9897 43.808C95.4426 44.2893 94.8967 44.7733 94.3218 45.2308C91.0144 47.8629 87.3369 50.0184 83.0345 51.3552C79.4994 52.4537 75.841 53.1257 72.0932 53.363C70.4592 53.4666 68.7901 53.3599 67.1548 53.2102C66.0063 53.105 64.8905 52.7589 63.7561 52.5345C63.1313 52.4107 62.9413 52.5811 63.1868 53.0842C63.4594 53.6444 63.8147 54.176 64.1151 54.7273C66.0976 58.3646 68.077 62.003 70.0527 65.643C70.5517 66.5627 71.0248 67.4922 71.5294 68.4098C71.7447 68.8015 72.0426 69.1129 72.6323 69.1539C73.2473 69.1964 73.8703 69.2513 74.4655 69.3803C76.6238 69.8466 78.7753 69.8824 80.9496 69.456C84.3964 68.7798 87.3017 67.2145 90.1212 65.5191C90.4599 65.3155 90.7047 64.9087 90.8195 64.5564C91.0452 63.8626 91.1032 63.131 91.3105 62.432C92.7088 57.7294 94.1318 53.0319 95.5382 48.3308C96.0021 46.78 96.4375 45.224 96.8903 43.6582ZM38.2349 94.7739C38.3231 94.7848 38.3872 94.7988 38.4514 94.7998C41.1389 94.8495 43.8264 94.8972 46.5133 94.948C48.3737 94.9832 50.2334 95.0304 52.0937 95.0573C52.8962 95.0692 53.7209 95.1371 54.3742 94.5884C54.4963 94.4858 54.7233 94.4754 54.8905 94.4045C55.3117 94.2262 55.7923 94.0988 56.1315 93.8418C56.9081 93.2537 57.7408 92.762 58.6938 92.3998C59.0325 92.2708 59.384 92.0987 59.6265 91.8697C60.643 90.9096 61.6509 89.9407 62.6014 88.9344C63.1578 88.3458 63.6044 87.6893 64.4032 87.2852C64.616 87.1774 64.8134 87.0013 64.9318 86.8178C65.957 85.2328 66.9957 83.6525 67.9635 82.0421C68.5902 80.9991 69.1312 79.9203 69.2989 78.7333C69.3711 78.2234 69.5074 77.7027 69.7412 77.2312C70.0496 76.6089 70.3272 76.0016 70.2692 75.3125C70.255 75.1446 70.321 74.969 70.371 74.8016C70.5844 74.0918 70.8515 73.3912 71.0143 72.6736C71.3302 71.2757 71.1254 69.9384 70.1896 68.7155C69.8825 68.314 69.558 67.9191 69.2928 67.4984C68.8844 66.8502 68.3725 66.2124 68.1738 65.5155C67.9061 64.5745 67.4219 63.7657 66.8113 62.9678C66.4769 62.5315 66.3092 62.0046 66.0754 61.5154C65.9101 61.1693 65.8281 60.7797 65.5893 60.4755C64.8528 59.5356 64.3606 58.5102 63.9109 57.4605C63.7907 57.1796 63.5563 56.9335 63.3743 56.6713C63.304 56.6838 63.2331 56.6962 63.1627 56.7086C63.1165 56.9646 63.0536 57.2195 63.0277 57.4765C62.9185 58.5574 62.8913 59.6475 62.7032 60.718C62.4016 62.432 62.0117 64.1362 61.6293 65.8398C60.9835 68.716 60.073 71.5218 58.5408 74.171C58.1232 74.8928 57.8734 75.6825 57.5366 76.4379C57.3325 76.8954 57.1795 77.3825 56.8834 77.7954C55.4875 79.7395 54.0571 81.6665 52.6199 83.5898C52.4133 83.8665 52.1585 84.1805 51.8316 84.3178C51.2327 84.5681 50.936 85.0049 50.5486 85.4085C49.1453 86.8722 47.7155 88.3184 46.2666 89.751C46.0205 89.9946 45.6386 90.1438 45.3105 90.3251C44.9885 90.5034 44.5758 90.6117 44.3408 90.8479C43.5612 91.6314 42.5835 92.1873 41.5602 92.7013C40.7478 93.1096 39.92 93.4962 39.1083 93.9055C38.7147 94.1045 38.3231 94.321 38.2349 94.7739ZM67.8167 95.3195C68.8925 95.3325 69.6567 95.2164 70.358 94.8542C70.664 94.6967 71.0045 94.5863 71.3302 94.4563C72.8981 93.8309 74.4994 93.2573 76.0267 92.5677C77.5805 91.8661 78.8795 90.8966 79.6234 89.5023C79.9818 88.8308 80.342 88.1567 80.619 87.4603C80.7331 87.1743 80.7454 86.7842 80.6048 86.5152C79.9553 85.2727 79.2626 84.0453 78.5341 82.8338C77.7988 81.611 76.968 80.4286 76.2457 79.2012C75.5375 77.9986 74.9423 76.7488 74.241 75.5426C73.7969 74.7783 73.2584 74.0514 72.739 73.3197C72.6557 73.2021 72.4503 73.1456 72.3017 73.0607C72.2024 73.1871 72.0963 73.3104 72.0062 73.4415C71.9741 73.4881 71.9797 73.5539 71.9723 73.6114C71.8643 74.4586 71.8033 75.3125 71.6417 76.1524C70.9656 79.6753 69.4809 82.9504 67.2603 85.9883C64.9491 89.1505 62.3103 92.0521 58.3151 93.8734C57.9339 94.0469 57.6304 94.3501 57.3171 94.6148C57.2276 94.6905 57.182 94.8521 57.2103 94.9568C57.2252 95.0128 57.4373 95.0501 57.565 95.062C57.7525 95.0796 57.9438 95.0666 58.1331 95.0666C60.4074 95.0651 62.6816 95.0345 64.9546 95.0744C66.0001 95.0931 67.0414 95.2496 67.8167 95.3195ZM89.9288 66.8518C89.5525 67.0699 89.1738 67.285 88.8 67.5062C87.7033 68.1559 86.6781 68.9186 85.4999 69.4373C82.7057 70.6679 79.6536 70.7612 76.5862 70.557C75.5992 70.4912 74.6296 70.2492 73.6482 70.1062C73.3768 70.0663 73.0918 70.0922 72.813 70.0876C72.8691 70.3606 72.8531 70.6637 72.995 70.9005C73.3805 71.5451 73.8801 72.1425 74.2502 72.7923C75.3173 74.6679 76.3006 76.5778 77.3967 78.4416C78.4323 80.2017 79.5654 81.9219 80.6634 83.6561C81.1155 84.3696 81.5504 85.094 82.0636 85.7759C82.4109 86.237 82.929 86.5748 83.6482 86.509C84.5537 86.4261 85.458 86.3292 86.3573 86.2101C86.5146 86.1893 86.6972 86.0551 86.7817 85.9313C87.2739 85.2106 87.2215 84.3986 87.2783 83.6095C87.3566 82.5204 87.1777 81.4022 87.8544 80.3851C87.9235 80.281 87.8556 80.1115 87.8482 79.9727C87.8279 79.5742 87.7261 79.1649 87.8013 78.7794C87.9765 77.8835 88.28 77.0053 88.4521 76.1094C88.7556 74.5265 88.9622 72.9306 89.2817 71.3503C89.5173 70.1855 89.8807 69.0389 90.1619 67.8803C90.2403 67.5518 90.3445 67.1932 89.9288 66.8518ZM98.9524 113.911C99.0066 113.805 99.0578 113.719 99.0955 113.63C99.5229 112.616 99.2719 111.473 99.9325 110.498C99.9923 110.41 99.9128 110.262 99.9522 110.156C100.073 109.834 100.144 109.472 100.372 109.21C100.739 108.79 101.009 108.361 101.097 107.845C101.189 107.303 101.492 106.851 101.881 106.407C102.314 105.912 102.626 105.344 103.01 104.818C103.231 104.514 103.469 104.216 103.737 103.942C104.182 103.488 104.657 103.056 105.12 102.614C105.3 102.443 105.441 102.181 105.663 102.117C106.41 101.904 106.808 101.4 107.255 100.925C108.377 99.7325 109.678 98.7159 111.275 97.9776C112.194 97.5527 113.099 97.1055 113.988 96.6371C114.257 96.4946 114.449 96.2475 114.778 95.9604C114.152 95.8413 113.691 95.7464 113.226 95.6666C111.675 95.4008 110.11 95.163 108.712 94.4993C108.286 94.2972 107.892 94.2542 107.436 94.3324C106.763 94.447 106.084 94.5361 105.411 94.6454C104.979 94.7153 104.503 94.7267 104.133 94.8967C102.793 95.5128 101.473 96.1641 100.18 96.848C99.8017 97.0485 99.4205 97.3573 99.2441 97.6926C98.8987 98.3491 98.3405 98.8423 97.8032 99.3693C97.335 99.8284 96.9008 100.319 96.5122 100.828C95.4494 102.222 94.8794 103.758 94.5149 105.386C94.2725 106.468 94.4433 107.394 95.0534 108.339C95.9293 109.697 96.7262 111.09 97.567 112.464C97.9037 113.015 98.2516 113.567 98.9524 113.911ZM58.7518 96.5045C58.7358 96.5651 58.7197 96.6263 58.7037 96.6869C58.943 96.8615 59.1682 97.0532 59.4248 97.2076C61.6028 98.5201 63.679 99.9325 65.3223 101.73C67.5157 104.129 68.7901 106.861 69.3051 109.848C69.3872 110.323 69.732 110.498 70.2563 110.289C70.5178 110.184 70.7719 110.05 70.9915 109.892C72.8525 108.559 74.7307 107.24 76.5485 105.866C77.3368 105.269 78.0302 104.576 78.6957 103.878C78.9307 103.632 79.1472 103.185 79.0374 102.932C78.7111 102.177 78.3441 101.39 77.7637 100.767C76.7811 99.7113 75.6332 98.7625 74.534 97.7853C73.37 96.7496 71.9458 96.263 70.2297 96.3366C68.8542 96.3957 67.4744 96.3889 66.0964 96.3895C63.9769 96.3905 61.8575 96.3662 59.7387 96.3693C59.4093 96.3687 59.0806 96.4568 58.7518 96.5045ZM101.137 90.0396C100.791 90.1614 100.397 90.2681 100.04 90.4308C99.2231 90.8023 98.4503 91.2464 97.6138 91.5801C94.8048 92.7018 91.9803 93.7956 89.1534 94.8853C87.8649 95.3822 87.8155 95.3936 88.4095 96.4677C89.7345 98.8646 91.0952 101.248 92.4485 103.634C92.5885 103.88 92.7569 104.12 92.9506 104.339C93.0549 104.457 93.2418 104.523 93.391 104.613C93.5039 104.477 93.6637 104.353 93.7204 104.203C93.9166 103.68 94.0591 103.144 94.254 102.621C95.8799 98.2584 99.1719 95.2687 104.443 93.9184C104.741 93.8418 105.121 93.7951 105.087 93.4775C105.062 93.2526 104.876 92.9925 104.667 92.8412C104.305 92.5796 103.846 92.4143 103.471 92.163C103.196 91.979 102.974 91.7324 102.759 91.4946C102.371 91.064 102.017 90.6117 101.622 90.1863C101.545 90.1023 101.347 90.0992 101.137 90.0396ZM81.4714 114.3C81.5344 114.326 81.5973 114.352 81.6596 114.378C82.1765 114.19 82.6915 113.998 83.2109 113.814C87.3208 112.36 91.3425 112.514 95.2791 114.279C95.5333 114.393 95.8152 114.496 96.0952 114.523C96.2599 114.539 96.4764 114.42 96.6109 114.311C96.675 114.26 96.646 114.071 96.5874 113.975C95.2181 111.727 93.692 109.542 92.7082 107.142C92.4602 106.537 91.981 106.127 91.2889 105.907C89.6407 105.382 87.9901 104.861 86.3253 104.374C85.4327 104.113 85.1965 104.234 84.8362 104.963C84.7702 105.096 84.7061 105.23 84.653 105.367C83.8937 107.328 83.1097 109.283 82.3887 111.254C82.0241 112.253 81.7737 113.283 81.4714 114.3ZM79.2724 114.395C79.5019 113.969 79.7641 113.642 79.856 113.284C80.3334 111.424 81.2389 109.691 82.0124 107.916C82.5188 106.753 82.8858 105.548 83.2917 104.356C83.3299 104.243 83.251 104.024 83.1424 103.966C82.5941 103.672 81.0668 103.84 80.6153 104.238C80.0089 104.771 79.4698 105.365 78.824 105.861C76.7663 107.444 74.6697 108.99 72.599 110.561C72.3973 110.714 72.2708 110.937 72.0519 111.195C74.9306 111.615 77.3239 112.509 79.2724 114.395ZM74.6142 94.8055C74.632 94.8723 74.6506 94.9387 74.6684 95.0055C75.2322 95.0532 75.7966 95.1438 76.3604 95.1413C78.6834 95.1319 81.0063 95.0941 83.3293 95.0677C83.7938 95.0625 84.2626 95.0941 84.7221 95.0532C85.4956 94.9843 85.7158 94.4812 85.305 93.9236C84.8313 93.2801 84.3786 92.6205 83.9918 91.9381C83.4101 90.9101 82.9216 89.8448 82.3368 88.8179C82.1197 88.437 81.7428 88.121 81.4387 87.7754C81.3752 87.794 81.3123 87.8132 81.2488 87.8318C81.0261 88.3116 80.8213 88.7977 80.5777 89.2697C79.8584 90.6624 79.0923 92.0443 77.6533 93.0293C76.9513 93.5096 76.1377 93.8744 75.3833 94.3019C75.1144 94.4542 74.8695 94.6366 74.6142 94.8055ZM75.0182 96.5801C76.0982 97.5703 77.2079 98.3973 78.0283 99.3926C78.8468 100.385 79.3755 101.546 80.1058 102.756C80.5752 102.405 81.0409 102.13 81.3919 101.777C82.1197 101.043 82.842 100.298 83.4638 99.5014C84.1386 98.6361 84.7277 97.7201 85.2908 96.7988C85.5511 96.3724 85.4191 96.2397 84.8443 96.1952C84.3138 96.1537 83.7771 96.1211 83.2454 96.1376C80.854 96.2123 78.4625 96.3009 76.0723 96.3988C75.7479 96.4123 75.4284 96.5076 75.0182 96.5801ZM97.9118 89.4272C94.5044 89.237 91.4505 88.3691 88.5835 86.9189C88.5273 87.107 88.4681 87.2443 88.4472 87.3852C88.1646 89.3205 87.8754 91.2547 87.6138 93.192C87.4867 94.1335 87.6477 94.2589 88.6501 93.8236C91.5202 92.5775 94.3595 91.2801 97.1993 89.9863C97.4763 89.8604 97.6768 89.6163 97.9118 89.4272ZM85.6418 102.767C85.6116 102.787 85.5807 102.807 85.5505 102.828C85.7195 103.039 85.8398 103.381 86.0662 103.441C87.5046 103.821 88.9647 104.143 90.4222 104.469C90.5647 104.5 90.7387 104.43 90.8984 104.408C90.8688 104.272 90.8694 104.126 90.8053 104.004C90.3026 103.04 89.7894 102.081 89.2756 101.122C88.8388 100.307 88.4212 99.4828 87.9426 98.6853C87.7939 98.4377 87.4738 98.262 87.2326 98.0537C87.0519 98.3169 86.7928 98.5636 86.704 98.847C86.3629 99.9336 86.0742 101.031 85.772 102.126C85.7134 102.337 85.6844 102.553 85.6418 102.767ZM86.1223 92.0122C86.4468 91.7044 86.8496 87.2764 86.6318 86.6588C85.4913 86.7753 84.3533 86.8914 83.2134 87.008C83.069 87.7142 85.2834 91.5568 86.1223 92.0122ZM82.8371 102.43C83.0931 102.568 83.3108 102.732 83.3577 102.702C83.5347 102.591 83.7056 102.432 83.7765 102.261C83.8074 102.187 83.5896 102.04 83.4848 101.926C83.3003 102.069 83.1165 102.213 82.8371 102.43Z"/>
</mask>
<path d="M121 1.52177C120.65 2.27929 119.989 2.80676 119.229 3.28241C118.838 3.52698 118.538 3.87258 118.179 4.15548C116.797 5.24461 115.394 6.31561 114.026 7.41615C113.345 7.96486 112.736 8.5773 112.066 9.13637C110.489 10.4509 107.861 11.7685 105.198 13.0535C100.651 16.6826 94.5254 17.9465 89.0911 20.5558C87.0599 21.531 84.9898 22.4507 82.9173 23.3631C82.2992 23.6352 81.6133 23.7989 80.9576 24.0108C80.7016 24.0937 80.4241 24.1429 80.189 24.2564C77.8143 25.4015 75.2692 26.1544 72.6292 26.7471C70.7423 27.171 68.9375 27.8513 67.0543 28.2896C62.8642 29.2653 58.5951 29.8777 54.2354 29.9513C53.1177 29.9705 51.9988 29.9383 50.8804 29.9295C50.7768 29.9285 50.6732 29.9259 50.5702 29.928C49.9034 29.943 49.7726 30.1285 50.0934 30.6306C50.4332 31.1622 50.7984 31.6824 51.1352 32.2156C51.5867 32.9301 51.9895 33.6679 52.4712 34.3679C53.9948 36.5835 55.3926 38.8478 56.5584 41.2167C57.4386 43.0048 58.3885 44.7701 59.376 46.5178C60.1421 47.8743 61.0267 49.1832 61.8328 50.5241C62.2202 51.1682 62.8377 51.5448 63.6346 51.7226C65.6677 52.1754 67.7205 52.5485 69.8424 52.4454C71.3209 52.3734 72.7951 52.2516 74.2718 52.1542C80.0669 51.7733 85.0133 49.5609 89.827 47.0645C91.7645 46.0598 93.4126 44.7655 94.9627 43.38C95.6813 42.738 96.3277 42.038 97.0605 41.4084C97.9408 40.652 98.2492 39.7084 98.4959 38.7219C98.7648 37.6483 99.0153 36.5674 99.3866 35.5182C99.6481 34.7793 100.137 34.0995 100.459 33.3726C102.642 28.4321 105.777 25.2273 108.058 20.3194C109.64 16.9157 112.682 13.6577 114.616 10.3799C116.719 8.59751 118.066 6.97935 119.141 5.2213C119.529 4.58917 120.072 4.02232 120.613 3.45288C120.872 4.28916 120.727 5.08036 120.418 5.84048C120.191 6.39696 119.908 6.95448 119.533 7.44827C117.276 10.4214 114.453 13.6038 111.718 16.8199C108.481 23.0101 104.404 27.5067 101.782 33.9016C101.124 35.5084 100.607 37.1612 100.135 38.8151C99.8844 39.6955 100.242 39.7281 100.966 39.8504C104.929 40.5183 108.85 40.2478 112.738 39.4576C114.107 39.1794 115.448 38.81 116.799 38.4747C117.115 38.3965 117.445 38.3157 117.564 38.6654C117.67 38.9763 117.376 39.0768 117.078 39.1613C113.141 40.2753 109.121 41.0375 104.942 40.9354C103.299 40.8955 101.662 40.6634 99.9325 40.511C99.3471 41.2717 98.8888 42.2069 98.6001 43.1857C97.4732 47.0106 96.3876 50.8443 95.2767 54.6729C94.5118 57.3097 93.7272 59.9418 92.9599 62.5781C92.7427 63.3243 92.5478 64.0782 92.7933 64.8476C92.868 65.0823 92.9623 65.3222 93.1079 65.5305C97.5448 71.8809 103.857 76.4193 111.944 79.2167C113.465 79.7431 115.056 80.126 116.608 80.5898C116.909 80.6794 117.226 80.7975 117.448 80.9784C117.581 81.0862 117.626 81.368 117.555 81.5214C117.502 81.6375 117.19 81.7535 117.017 81.7318C116.408 81.6556 115.799 81.5489 115.208 81.4033C110.48 80.2385 106.046 78.5649 102.122 76.0198C98.5866 73.727 95.6628 70.986 93.4774 67.7031C93.1918 67.2741 92.8926 66.8518 92.5966 66.4279C92.5626 66.3797 92.5114 66.3404 92.4559 66.2844C92.0013 66.4015 91.9452 66.745 91.8761 67.0388C91.6793 67.8746 91.5331 68.7186 91.3536 69.5575C90.9237 71.5617 90.4469 73.5596 90.0669 75.5705C89.835 76.797 89.7709 78.0452 89.5889 79.2794C89.3866 80.6556 89.0924 82.023 88.9227 83.4017C88.8191 84.2432 88.8493 85.0986 88.8832 85.9463C88.8906 86.1251 89.1343 86.3557 89.3422 86.4614C91.812 87.7163 94.4853 88.4899 97.3727 88.6039C98.9838 88.6676 100.593 88.522 102.089 87.9039C102.593 87.6956 103.151 87.5805 103.679 87.4101C103.934 87.3282 104.226 87.2624 104.414 87.1121C105.145 86.5272 106.072 86.3298 106.993 86.0842C109.564 85.3987 112.117 84.6681 114.684 83.9722C115.611 83.7209 116.556 83.5178 117.485 83.2945C117.881 84.1126 117.608 84.6126 116.661 84.8852C114.437 85.5261 112.192 86.122 109.991 86.8168C107.981 87.4515 106.014 88.1862 104.036 88.8914C103.659 89.0256 103.304 89.2117 102.961 89.4013C102.603 89.5982 102.517 89.822 102.845 90.1412C104.215 91.4775 105.905 92.4267 107.722 93.2956C109.905 94.3402 112.263 94.8195 114.672 95.2179C115.261 95.3154 115.865 95.3485 116.462 95.4117C116.564 95.4226 116.679 95.4154 116.766 95.4527C117.029 95.5667 117.281 95.6988 117.538 95.8237C117.385 96.0376 117.288 96.3143 117.067 96.4527C116.465 96.832 115.849 97.2232 115.17 97.4864C110.451 99.319 107.072 102.382 104.194 105.897C102.517 107.945 101.264 110.18 100.348 112.543C100.073 113.254 99.8011 113.978 99.6673 114.714C99.592 115.129 99.6851 115.626 99.9004 116.007C101.743 119.27 103.62 122.519 105.51 125.763C106.319 127.152 107.18 128.519 108.026 129.892C108.094 130.002 108.221 130.086 108.321 130.182C108.38 130.183 108.439 130.184 108.498 130.185C108.533 129.988 108.632 129.781 108.591 129.596C108.504 129.2 108.248 128.818 108.236 128.426C108.21 127.607 108.273 126.785 108.344 125.966C108.455 124.668 108.589 123.371 108.74 122.075C108.905 120.647 109.17 119.23 109.892 117.916C110.533 116.75 110.873 115.517 111.229 114.282C111.326 113.948 111.44 113.603 111.636 113.304C112.206 112.43 112.792 111.568 113.005 110.566C113.042 110.393 113.21 110.236 113.333 110.08C113.788 109.501 114.227 108.912 114.718 108.355C115.02 108.012 115.429 107.737 115.746 107.403C116.085 107.044 116.381 106.655 116.68 106.27C116.857 106.042 117.093 105.933 117.375 106.067C117.686 106.215 117.694 106.455 117.502 106.702C117.416 106.811 117.338 106.923 117.262 107.036C116.266 108.52 115.199 109.975 114.291 111.495C112.255 114.905 110.937 118.509 110.368 122.302C109.848 125.768 109.868 129.233 110.402 132.694C110.699 134.621 111.505 136.406 112.607 138.117C114.166 140.537 115.284 143.12 116.367 145.711C116.383 145.748 116.369 145.794 116.369 145.858C115.882 146.026 115.493 145.903 115.219 145.552C115.032 145.312 114.916 145.034 114.752 144.781C114.538 144.454 114.37 144.085 114.073 143.821C113.411 143.232 113.104 142.534 112.987 141.757C112.875 141.019 112.574 140.367 111.911 139.84C111.398 139.432 111.065 138.928 111.002 138.323C110.925 137.578 110.397 137.204 109.568 137.059C107.953 136.778 106.35 136.435 104.723 136.215C101.74 135.811 98.7321 135.699 95.7097 135.78C91.8095 135.886 88.0228 136.455 84.3656 137.615C84.0004 137.731 83.5958 137.756 83.2189 137.851C82.5971 138.006 81.9291 138.101 81.3758 138.365C79.13 139.433 76.9026 140.532 74.703 141.667C73.2608 142.411 71.9569 143.306 70.8373 144.393C70.3346 144.881 69.7196 145.296 69.109 145.695C68.2867 146.231 67.1388 146.049 66.7564 145.242C66.2629 144.203 65.717 143.211 64.8442 142.358C64.735 142.251 64.6666 142.108 64.6098 141.973C63.9732 140.453 62.7334 139.336 61.2691 138.35C60.3827 137.753 59.5901 137.055 58.6858 136.479C57.6057 135.79 56.4788 135.146 55.3222 134.553C54.1786 133.966 53.0011 133.411 51.7829 132.944C50.8385 132.583 49.8022 132.394 48.8184 132.1C48.1935 131.914 47.5915 131.674 46.9753 131.467C46.789 131.404 46.5923 131.343 46.3955 131.326C45.0977 131.214 43.7974 131.127 42.5008 131.008C40.8385 130.854 39.1749 130.693 37.515 130.976C37.0185 131.061 36.509 131.198 36.0735 131.411C32.8734 132.97 29.6301 134.476 26.52 136.156C23.8572 137.593 21.3473 139.232 18.7789 140.793C16.2067 142.355 13.4945 143.726 10.7243 145.023C9.23528 145.72 7.65681 146.027 5.96177 145.927C5.79461 145.917 5.62931 145.892 5.44549 145.797C6.36519 145.426 7.28733 145.059 8.20456 144.683C11.1678 143.468 14.0274 142.116 16.5743 140.332C17.1128 139.955 17.7475 139.676 18.3403 139.353C18.8455 139.079 19.4203 138.866 19.8497 138.525C21.8593 136.927 24.2365 135.778 26.5626 134.566C28.4785 133.567 30.3993 132.574 32.3478 131.622C32.9937 131.306 33.7252 131.11 34.4309 130.887C34.8565 130.752 35.2303 130.576 35.3506 130.194C35.6769 129.154 36.3566 128.264 37.0333 127.376C38.4174 125.56 39.054 123.529 39.4716 121.438C39.9324 119.131 40.0156 116.802 39.8781 114.468C39.7535 112.351 39.3075 110.277 38.6537 108.233C38.6272 108.149 38.6173 108.048 38.5544 107.989C37.9523 107.427 38.0479 106.694 37.8333 106.036C37.6865 105.588 37.4206 105.151 37.1184 104.758C36.6601 104.161 36.1568 103.602 36.0809 102.852C36.0581 102.625 35.8477 102.409 35.7108 102.194C35.5159 101.889 35.271 101.601 35.1168 101.283C34.8855 100.806 34.6165 100.37 34.1138 100.049C33.9565 99.9481 33.856 99.7822 33.7394 99.6403C33.381 99.205 33.0825 98.7242 32.6606 98.3382C31.7292 97.4853 30.7373 96.6786 29.767 95.8558C29.4333 95.5729 29.0287 95.4527 28.55 95.476C25.4548 95.6247 22.4002 95.2091 19.3328 94.9863C16.1253 94.7532 12.9184 94.5174 9.71271 94.2646C8.99534 94.2081 8.28597 94.0775 7.57292 93.9806C7.47114 93.9666 7.36999 93.9444 7.2676 93.9366C6.49163 93.8791 6.32384 94.0267 6.60265 94.6299C7.10043 95.7055 7.69321 96.7506 8.16878 97.833C9.46597 100.786 10.3086 103.842 10.715 106.965C11.0944 109.882 11.3306 112.814 11.5842 115.742C11.8457 118.76 11.4886 121.75 10.9562 124.736C10.2851 128.5 9.33459 132.207 7.93439 135.828C7.0406 138.14 5.96485 140.387 4.65101 142.556C4.16001 143.366 3.75291 144.212 3.28227 145.032C2.76722 145.927 2.73823 145.928 1.55453 145.849C1.41821 145.839 1.28128 145.837 1.00001 145.826C1.24612 145.481 1.40774 145.164 1.66434 144.917C2.20406 144.395 2.69998 143.884 2.7006 143.132C2.7006 142.929 2.94177 142.728 3.05958 142.522C3.26437 142.162 3.47657 141.803 3.65483 141.434C3.89169 140.941 4.02678 140.405 4.33581 139.949C4.88725 139.136 5.37208 138.321 5.45165 137.369C5.46337 137.229 5.49236 137.048 5.59969 136.964C6.14188 136.538 6.08945 135.942 6.30472 135.421C6.66619 134.546 6.7254 133.598 7.07453 132.761C8.19037 130.085 8.71653 127.304 9.39504 124.553C9.68557 123.374 9.69728 122.141 9.75773 120.929C9.84594 119.164 9.93846 117.395 9.8885 115.631C9.84656 114.16 9.59056 112.693 9.45116 111.223C9.34322 110.085 9.30683 108.942 9.1699 107.808C9.03173 106.662 8.88739 105.509 8.60488 104.384C8.17618 102.679 7.62659 100.995 7.12572 99.3014C7.09673 99.204 7.06774 99.1009 7.00544 99.018C5.98953 97.6563 5.72429 96.077 5.24871 94.5692C5.04639 93.9273 5.21479 93.2029 5.21479 92.4682C5.501 92.4682 5.68481 92.4552 5.86493 92.4702C9.64917 92.7775 13.0855 91.921 16.2875 90.2775C18.4186 89.1837 20.3073 87.8308 22.0647 86.3536C23.8313 84.8691 25.5405 83.3364 27.267 81.8183C27.5039 81.61 27.6871 81.3597 27.9073 81.1375C28.5562 80.4836 29.165 79.7949 29.8774 79.1939C30.6294 78.5592 31.2579 77.8695 31.7464 77.0783C32.1116 76.4866 32.5057 75.9291 33.2287 75.5566C33.5062 75.4135 33.6234 75.041 33.7943 74.7643C34.0676 74.3213 34.2304 73.8016 34.6079 73.4368C35.5325 72.543 36.2943 71.5741 36.9037 70.513C38.212 68.2357 39.5246 65.9601 40.8249 63.6792C40.9723 63.4212 41.0723 63.1403 41.1586 62.8621C41.3141 62.3595 41.5873 61.9367 42.0512 61.5735C42.7476 61.0289 42.9653 60.2579 43.2219 59.5284C43.6648 58.2688 43.8437 56.9123 44.5105 55.7496C45.1785 54.5853 45.3321 53.3257 45.9107 52.1687C46.422 51.1454 46.7255 50.0899 46.8735 48.992C47.0173 47.9293 47.1647 46.8645 47.3837 45.8116C47.5187 45.1608 47.8679 44.5401 47.9814 43.8883C48.1454 42.9458 48.1812 41.9882 48.2737 41.0369C48.4144 39.5955 48.613 38.1561 48.6833 36.712C48.7604 35.1363 48.7437 33.556 48.7172 31.9783C48.7067 31.3606 48.5124 30.7461 48.4853 30.1275C48.4508 29.3254 48.6346 29.271 49.5734 29.2907C50.2796 29.3057 50.9896 29.13 51.7014 29.0689C53.1911 28.9414 54.6832 28.8342 56.1741 28.7186C56.2598 28.7119 56.3517 28.7228 56.4307 28.7C58.2559 28.1798 60.2087 28.2762 62.066 27.7917C64.4044 27.1813 66.8464 26.857 69.2323 26.3684C69.8411 26.2435 70.395 25.9388 70.9934 25.7626C71.6824 25.5595 72.393 25.4088 73.0937 25.2336C73.5871 25.1103 74.1028 25.029 74.5685 24.8528C77.9241 23.5859 81.2858 22.3284 84.6092 21.003C85.6412 20.5916 86.551 19.9672 87.5355 19.4667C87.9395 19.2615 88.3941 19.1268 88.824 18.9569C89.5661 18.6636 90.376 18.4506 91.036 18.0594C94.0751 16.2563 98.2316 16.2904 101.024 14.209C102.287 13.2675 103.552 12.3281 104.824 11.3955C105.069 11.2157 105.337 11.0499 105.618 10.9131C107.643 10.4411 109.534 9.85918 110.067 9.00788C110.115 8.93171 110.175 8.85554 110.251 8.79803C111.289 8.00009 112.336 7.20993 113.369 6.40681C113.718 6.13478 114.086 5.8612 114.352 5.53477C114.664 5.14824 115.016 4.84565 115.534 4.66844C115.769 4.58813 115.993 4.46688 116.191 4.33217C117.137 3.68915 118.107 3.06687 118.996 2.371C119.496 1.98032 119.854 1.46115 120.276 1C120.517 1 120.759 1 121 1C121 1.1741 121 1.34767 121 1.52177ZM11.9721 93.1811C12.2898 93.2951 12.4483 93.3817 12.6204 93.4081C13.0935 93.4811 13.5697 93.5563 14.0484 93.5822C15.509 93.6609 16.9722 93.7122 18.434 93.7827C21.2369 93.9179 24.0398 94.0495 26.8408 94.2003C28.5926 94.2946 30.3419 94.419 32.0919 94.5356C32.903 94.5894 33.7277 94.8076 34.4666 94.2931C34.5906 94.2065 34.8293 94.2381 35.0144 94.2107C35.1982 94.1837 35.4085 94.1905 35.559 94.1143C36.7791 93.4962 37.9943 92.8697 39.1971 92.2277C39.6363 91.9935 40.0422 91.736 40.6066 91.7583C40.7509 91.764 40.9273 91.6661 41.0476 91.5759C41.9981 90.8635 42.9197 90.1236 43.8856 89.4267C46.2382 87.7308 48.1917 85.7168 50.2735 83.8054C50.5258 83.5738 50.6899 83.2769 50.9088 83.0183C51.3153 82.5385 51.7335 82.066 52.1437 81.5888C52.3133 81.3913 52.573 81.2053 52.6218 80.9872C52.7914 80.2307 53.2818 79.6188 53.8073 79.0338C55.9853 76.6115 57.4577 73.8933 58.4391 71C59.2668 68.5591 59.8979 66.0715 60.622 63.6056C61.092 62.004 61.5275 60.4009 61.5719 58.7387C61.6065 57.4371 61.7138 56.1371 61.7403 54.8356C61.7502 54.3366 61.7594 53.7894 61.5399 53.3438C60.7318 51.7034 59.8029 50.1055 58.9665 48.4743C58.0079 46.6049 57.1178 44.7111 56.1574 42.8421C55.8404 42.2256 55.3926 41.6572 55.0181 41.0608C54.8275 40.7571 54.6542 40.4452 54.4963 40.1286C54.2989 39.7328 54.1546 39.3172 53.935 38.9307C53.5599 38.2695 53.1263 37.6317 52.7507 36.9706C51.9081 35.4866 51.0896 33.9933 50.2482 32.5088C50.1699 32.3705 50.0015 32.2674 49.793 32.0705C49.7517 32.2897 49.7276 32.3601 49.7264 32.4306C49.7079 33.5301 49.7042 34.6296 49.6715 35.7286C49.6468 36.5524 49.5759 37.3758 49.5432 38.1996C49.4605 40.2675 49.4975 42.3432 49.2878 44.4012C48.9115 48.0982 47.9197 51.6993 46.5719 55.233C44.7023 60.1325 42.0894 64.7668 39.442 69.3891C38.7789 70.5472 38.0683 71.6866 37.3485 72.8202C36.995 73.3767 36.6441 73.9539 36.1617 74.4286C35.2833 75.2923 34.5172 76.2001 33.8893 77.2099C33.5204 77.8027 32.9795 78.3229 32.4903 78.8592C32.2189 79.1561 31.8871 79.4136 31.5959 79.6986C29.8275 81.4266 28.431 83.4276 26.24 84.8468C26.0784 84.9515 25.955 85.0981 25.8162 85.2271C22.1665 88.6163 17.977 91.3495 12.7493 92.8231C12.5199 92.8879 12.3182 93.0195 11.9721 93.1811ZM37.6199 129.278C38.0288 129.168 38.4119 129.119 38.7283 128.971C41.055 127.88 43.476 126.919 45.5597 125.488C45.8755 125.271 46.2277 125.034 46.6077 124.951C47.4823 124.762 48.1399 124.318 48.7894 123.84C49.1391 123.583 49.4815 123.316 49.8547 123.083C53.7857 120.635 57.7174 118.188 61.6601 115.753C63.4779 114.631 65.3179 113.532 67.1561 112.434C67.9697 111.948 68.5353 111.336 68.3638 110.466C68.0659 108.959 67.7624 107.451 66.971 106.044C64.8313 102.239 61.2919 99.5102 57.3121 97.1216C56.2629 96.4921 55.0551 96.2138 53.7536 96.2568C52.549 96.2967 51.3437 96.3625 50.139 96.3584C46.5201 96.3459 42.8993 96.3641 39.2841 96.2522C37.1406 96.1858 35.0082 95.8879 32.8678 95.7185C32.5347 95.692 32.1868 95.7983 31.8464 95.8433C32.0283 96.0905 32.1517 96.3936 32.4009 96.576C34.0053 97.7475 35.2858 99.1403 36.4171 100.637C39.9928 105.367 41.9346 110.49 41.7113 116.14C41.5781 119.526 40.7441 122.787 39.3026 125.94C38.7986 127.041 38.2096 128.114 37.6199 129.278ZM70.2014 143.295C70.2643 143.321 70.3272 143.346 70.3895 143.371C70.6486 143.17 70.9107 142.972 71.1649 142.767C71.7983 142.256 72.3812 141.693 73.0665 141.237C76.4739 138.969 80.2773 137.303 84.4131 136.204C86.456 135.662 88.5298 135.081 90.64 134.866C93.5169 134.574 96.4419 134.541 99.3471 134.536C102.189 134.532 105.013 134.783 107.708 135.655C108.114 135.787 108.581 135.826 109.022 135.834C109.467 135.842 109.613 135.614 109.435 135.311C108.509 133.73 107.594 132.145 106.655 130.57C105.769 129.085 104.789 127.638 103.98 126.124C103.329 124.906 102.72 123.688 101.695 122.648C101.294 122.243 101.064 121.77 101.021 121.222C100.998 120.933 100.838 120.638 100.678 120.373C100.166 119.523 99.6494 118.675 99.0813 117.852C98.9061 117.599 98.5718 117.416 98.2886 117.223C98.0123 117.034 97.6071 116.926 97.4356 116.691C96.9162 115.983 96.123 115.59 95.2853 115.253C90.4759 113.321 85.7491 113.692 81.0902 115.651C80.5283 115.888 80.2199 116.287 80.0706 116.79C79.8837 117.42 79.7147 118.055 79.4828 118.674C78.2337 122.005 76.9945 125.339 75.6979 128.657C74.6857 131.246 73.8752 133.897 72.4331 136.36C72.2381 136.693 72.1505 137.071 72.0253 137.431C71.5732 138.731 71.126 140.032 70.6776 141.333C70.5437 141.721 70.3914 142.107 70.2883 142.5C70.2211 142.758 70.2279 143.03 70.2014 143.295ZM68.0758 144.522C68.2294 144.222 68.3281 144.072 68.3836 143.913C68.7648 142.819 69.1447 141.725 69.5093 140.626C69.9497 139.299 70.0502 137.884 70.949 136.674C71.0014 136.603 71.0174 136.51 71.0316 136.425C71.2235 135.252 71.7447 134.171 72.2881 133.09C72.4701 132.728 72.5176 132.316 72.6064 131.923C72.6792 131.601 72.6625 131.256 72.789 130.952C73.7901 128.541 74.8467 126.146 75.825 123.729C76.5652 121.899 77.2153 120.043 77.9056 118.199C78.1319 117.593 78.3836 116.993 78.5791 116.38C78.8444 115.547 78.6359 114.85 77.8217 114.238C76.3135 113.103 74.5741 112.403 72.6064 112.1C71.4245 111.918 70.297 111.911 69.2237 112.59C63.9097 115.949 58.5717 119.283 53.2158 122.596C49.6388 124.808 46.0791 127.047 42.2115 128.904C42.0191 128.996 41.8371 129.115 41.6823 129.247C41.5824 129.333 41.4522 129.506 41.4923 129.568C41.5571 129.668 41.744 129.741 41.8927 129.766C42.1949 129.816 42.5064 129.829 42.8148 129.851C43.74 129.919 44.6739 129.94 45.5899 130.059C49.949 130.627 53.9134 132.038 57.5286 134.14C59.9848 135.569 62.4182 137.052 64.1386 139.144C65.3186 140.579 66.2814 142.139 67.3498 143.638C67.5428 143.91 67.7772 144.162 68.0758 144.522ZM96.8903 43.6582C96.4653 43.494 96.2254 43.6007 95.9897 43.808C95.4426 44.2893 94.8967 44.7733 94.3218 45.2308C91.0144 47.8629 87.3369 50.0184 83.0345 51.3552C79.4994 52.4537 75.841 53.1257 72.0932 53.363C70.4592 53.4666 68.7901 53.3599 67.1548 53.2102C66.0063 53.105 64.8905 52.7589 63.7561 52.5345C63.1313 52.4107 62.9413 52.5811 63.1868 53.0842C63.4594 53.6444 63.8147 54.176 64.1151 54.7273C66.0976 58.3646 68.077 62.003 70.0527 65.643C70.5517 66.5627 71.0248 67.4922 71.5294 68.4098C71.7447 68.8015 72.0426 69.1129 72.6323 69.1539C73.2473 69.1964 73.8703 69.2513 74.4655 69.3803C76.6238 69.8466 78.7753 69.8824 80.9496 69.456C84.3964 68.7798 87.3017 67.2145 90.1212 65.5191C90.4599 65.3155 90.7047 64.9087 90.8195 64.5564C91.0452 63.8626 91.1032 63.131 91.3105 62.432C92.7088 57.7294 94.1318 53.0319 95.5382 48.3308C96.0021 46.78 96.4375 45.224 96.8903 43.6582ZM38.2349 94.7739C38.3231 94.7848 38.3872 94.7988 38.4514 94.7998C41.1389 94.8495 43.8264 94.8972 46.5133 94.948C48.3737 94.9832 50.2334 95.0304 52.0937 95.0573C52.8962 95.0692 53.7209 95.1371 54.3742 94.5884C54.4963 94.4858 54.7233 94.4754 54.8905 94.4045C55.3117 94.2262 55.7923 94.0988 56.1315 93.8418C56.9081 93.2537 57.7408 92.762 58.6938 92.3998C59.0325 92.2708 59.384 92.0987 59.6265 91.8697C60.643 90.9096 61.6509 89.9407 62.6014 88.9344C63.1578 88.3458 63.6044 87.6893 64.4032 87.2852C64.616 87.1774 64.8134 87.0013 64.9318 86.8178C65.957 85.2328 66.9957 83.6525 67.9635 82.0421C68.5902 80.9991 69.1312 79.9203 69.2989 78.7333C69.3711 78.2234 69.5074 77.7027 69.7412 77.2312C70.0496 76.6089 70.3272 76.0016 70.2692 75.3125C70.255 75.1446 70.321 74.969 70.371 74.8016C70.5844 74.0918 70.8515 73.3912 71.0143 72.6736C71.3302 71.2757 71.1254 69.9384 70.1896 68.7155C69.8825 68.314 69.558 67.9191 69.2928 67.4984C68.8844 66.8502 68.3725 66.2124 68.1738 65.5155C67.9061 64.5745 67.4219 63.7657 66.8113 62.9678C66.4769 62.5315 66.3092 62.0046 66.0754 61.5154C65.9101 61.1693 65.8281 60.7797 65.5893 60.4755C64.8528 59.5356 64.3606 58.5102 63.9109 57.4605C63.7907 57.1796 63.5563 56.9335 63.3743 56.6713C63.304 56.6838 63.2331 56.6962 63.1627 56.7086C63.1165 56.9646 63.0536 57.2195 63.0277 57.4765C62.9185 58.5574 62.8913 59.6475 62.7032 60.718C62.4016 62.432 62.0117 64.1362 61.6293 65.8398C60.9835 68.716 60.073 71.5218 58.5408 74.171C58.1232 74.8928 57.8734 75.6825 57.5366 76.4379C57.3325 76.8954 57.1795 77.3825 56.8834 77.7954C55.4875 79.7395 54.0571 81.6665 52.6199 83.5898C52.4133 83.8665 52.1585 84.1805 51.8316 84.3178C51.2327 84.5681 50.936 85.0049 50.5486 85.4085C49.1453 86.8722 47.7155 88.3184 46.2666 89.751C46.0205 89.9946 45.6386 90.1438 45.3105 90.3251C44.9885 90.5034 44.5758 90.6117 44.3408 90.8479C43.5612 91.6314 42.5835 92.1873 41.5602 92.7013C40.7478 93.1096 39.92 93.4962 39.1083 93.9055C38.7147 94.1045 38.3231 94.321 38.2349 94.7739ZM67.8167 95.3195C68.8925 95.3325 69.6567 95.2164 70.358 94.8542C70.664 94.6967 71.0045 94.5863 71.3302 94.4563C72.8981 93.8309 74.4994 93.2573 76.0267 92.5677C77.5805 91.8661 78.8795 90.8966 79.6234 89.5023C79.9818 88.8308 80.342 88.1567 80.619 87.4603C80.7331 87.1743 80.7454 86.7842 80.6048 86.5152C79.9553 85.2727 79.2626 84.0453 78.5341 82.8338C77.7988 81.611 76.968 80.4286 76.2457 79.2012C75.5375 77.9986 74.9423 76.7488 74.241 75.5426C73.7969 74.7783 73.2584 74.0514 72.739 73.3197C72.6557 73.2021 72.4503 73.1456 72.3017 73.0607C72.2024 73.1871 72.0963 73.3104 72.0062 73.4415C71.9741 73.4881 71.9797 73.5539 71.9723 73.6114C71.8643 74.4586 71.8033 75.3125 71.6417 76.1524C70.9656 79.6753 69.4809 82.9504 67.2603 85.9883C64.9491 89.1505 62.3103 92.0521 58.3151 93.8734C57.9339 94.0469 57.6304 94.3501 57.3171 94.6148C57.2276 94.6905 57.182 94.8521 57.2103 94.9568C57.2252 95.0128 57.4373 95.0501 57.565 95.062C57.7525 95.0796 57.9438 95.0666 58.1331 95.0666C60.4074 95.0651 62.6816 95.0345 64.9546 95.0744C66.0001 95.0931 67.0414 95.2496 67.8167 95.3195ZM89.9288 66.8518C89.5525 67.0699 89.1738 67.285 88.8 67.5062C87.7033 68.1559 86.6781 68.9186 85.4999 69.4373C82.7057 70.6679 79.6536 70.7612 76.5862 70.557C75.5992 70.4912 74.6296 70.2492 73.6482 70.1062C73.3768 70.0663 73.0918 70.0922 72.813 70.0876C72.8691 70.3606 72.8531 70.6637 72.995 70.9005C73.3805 71.5451 73.8801 72.1425 74.2502 72.7923C75.3173 74.6679 76.3006 76.5778 77.3967 78.4416C78.4323 80.2017 79.5654 81.9219 80.6634 83.6561C81.1155 84.3696 81.5504 85.094 82.0636 85.7759C82.4109 86.237 82.929 86.5748 83.6482 86.509C84.5537 86.4261 85.458 86.3292 86.3573 86.2101C86.5146 86.1893 86.6972 86.0551 86.7817 85.9313C87.2739 85.2106 87.2215 84.3986 87.2783 83.6095C87.3566 82.5204 87.1777 81.4022 87.8544 80.3851C87.9235 80.281 87.8556 80.1115 87.8482 79.9727C87.8279 79.5742 87.7261 79.1649 87.8013 78.7794C87.9765 77.8835 88.28 77.0053 88.4521 76.1094C88.7556 74.5265 88.9622 72.9306 89.2817 71.3503C89.5173 70.1855 89.8807 69.0389 90.1619 67.8803C90.2403 67.5518 90.3445 67.1932 89.9288 66.8518ZM98.9524 113.911C99.0066 113.805 99.0578 113.719 99.0955 113.63C99.5229 112.616 99.2719 111.473 99.9325 110.498C99.9923 110.41 99.9128 110.262 99.9522 110.156C100.073 109.834 100.144 109.472 100.372 109.21C100.739 108.79 101.009 108.361 101.097 107.845C101.189 107.303 101.492 106.851 101.881 106.407C102.314 105.912 102.626 105.344 103.01 104.818C103.231 104.514 103.469 104.216 103.737 103.942C104.182 103.488 104.657 103.056 105.12 102.614C105.3 102.443 105.441 102.181 105.663 102.117C106.41 101.904 106.808 101.4 107.255 100.925C108.377 99.7325 109.678 98.7159 111.275 97.9776C112.194 97.5527 113.099 97.1055 113.988 96.6371C114.257 96.4946 114.449 96.2475 114.778 95.9604C114.152 95.8413 113.691 95.7464 113.226 95.6666C111.675 95.4008 110.11 95.163 108.712 94.4993C108.286 94.2972 107.892 94.2542 107.436 94.3324C106.763 94.447 106.084 94.5361 105.411 94.6454C104.979 94.7153 104.503 94.7267 104.133 94.8967C102.793 95.5128 101.473 96.1641 100.18 96.848C99.8017 97.0485 99.4205 97.3573 99.2441 97.6926C98.8987 98.3491 98.3405 98.8423 97.8032 99.3693C97.335 99.8284 96.9008 100.319 96.5122 100.828C95.4494 102.222 94.8794 103.758 94.5149 105.386C94.2725 106.468 94.4433 107.394 95.0534 108.339C95.9293 109.697 96.7262 111.09 97.567 112.464C97.9037 113.015 98.2516 113.567 98.9524 113.911ZM58.7518 96.5045C58.7358 96.5651 58.7197 96.6263 58.7037 96.6869C58.943 96.8615 59.1682 97.0532 59.4248 97.2076C61.6028 98.5201 63.679 99.9325 65.3223 101.73C67.5157 104.129 68.7901 106.861 69.3051 109.848C69.3872 110.323 69.732 110.498 70.2563 110.289C70.5178 110.184 70.7719 110.05 70.9915 109.892C72.8525 108.559 74.7307 107.24 76.5485 105.866C77.3368 105.269 78.0302 104.576 78.6957 103.878C78.9307 103.632 79.1472 103.185 79.0374 102.932C78.7111 102.177 78.3441 101.39 77.7637 100.767C76.7811 99.7113 75.6332 98.7625 74.534 97.7853C73.37 96.7496 71.9458 96.263 70.2297 96.3366C68.8542 96.3957 67.4744 96.3889 66.0964 96.3895C63.9769 96.3905 61.8575 96.3662 59.7387 96.3693C59.4093 96.3687 59.0806 96.4568 58.7518 96.5045ZM101.137 90.0396C100.791 90.1614 100.397 90.2681 100.04 90.4308C99.2231 90.8023 98.4503 91.2464 97.6138 91.5801C94.8048 92.7018 91.9803 93.7956 89.1534 94.8853C87.8649 95.3822 87.8155 95.3936 88.4095 96.4677C89.7345 98.8646 91.0952 101.248 92.4485 103.634C92.5885 103.88 92.7569 104.12 92.9506 104.339C93.0549 104.457 93.2418 104.523 93.391 104.613C93.5039 104.477 93.6637 104.353 93.7204 104.203C93.9166 103.68 94.0591 103.144 94.254 102.621C95.8799 98.2584 99.1719 95.2687 104.443 93.9184C104.741 93.8418 105.121 93.7951 105.087 93.4775C105.062 93.2526 104.876 92.9925 104.667 92.8412C104.305 92.5796 103.846 92.4143 103.471 92.163C103.196 91.979 102.974 91.7324 102.759 91.4946C102.371 91.064 102.017 90.6117 101.622 90.1863C101.545 90.1023 101.347 90.0992 101.137 90.0396ZM81.4714 114.3C81.5344 114.326 81.5973 114.352 81.6596 114.378C82.1765 114.19 82.6915 113.998 83.2109 113.814C87.3208 112.36 91.3425 112.514 95.2791 114.279C95.5333 114.393 95.8152 114.496 96.0952 114.523C96.2599 114.539 96.4764 114.42 96.6109 114.311C96.675 114.26 96.646 114.071 96.5874 113.975C95.2181 111.727 93.692 109.542 92.7082 107.142C92.4602 106.537 91.981 106.127 91.2889 105.907C89.6407 105.382 87.9901 104.861 86.3253 104.374C85.4327 104.113 85.1965 104.234 84.8362 104.963C84.7702 105.096 84.7061 105.23 84.653 105.367C83.8937 107.328 83.1097 109.283 82.3887 111.254C82.0241 112.253 81.7737 113.283 81.4714 114.3ZM79.2724 114.395C79.5019 113.969 79.7641 113.642 79.856 113.284C80.3334 111.424 81.2389 109.691 82.0124 107.916C82.5188 106.753 82.8858 105.548 83.2917 104.356C83.3299 104.243 83.251 104.024 83.1424 103.966C82.5941 103.672 81.0668 103.84 80.6153 104.238C80.0089 104.771 79.4698 105.365 78.824 105.861C76.7663 107.444 74.6697 108.99 72.599 110.561C72.3973 110.714 72.2708 110.937 72.0519 111.195C74.9306 111.615 77.3239 112.509 79.2724 114.395ZM74.6142 94.8055C74.632 94.8723 74.6506 94.9387 74.6684 95.0055C75.2322 95.0532 75.7966 95.1438 76.3604 95.1413C78.6834 95.1319 81.0063 95.0941 83.3293 95.0677C83.7938 95.0625 84.2626 95.0941 84.7221 95.0532C85.4956 94.9843 85.7158 94.4812 85.305 93.9236C84.8313 93.2801 84.3786 92.6205 83.9918 91.9381C83.4101 90.9101 82.9216 89.8448 82.3368 88.8179C82.1197 88.437 81.7428 88.121 81.4387 87.7754C81.3752 87.794 81.3123 87.8132 81.2488 87.8318C81.0261 88.3116 80.8213 88.7977 80.5777 89.2697C79.8584 90.6624 79.0923 92.0443 77.6533 93.0293C76.9513 93.5096 76.1377 93.8744 75.3833 94.3019C75.1144 94.4542 74.8695 94.6366 74.6142 94.8055ZM75.0182 96.5801C76.0982 97.5703 77.2079 98.3973 78.0283 99.3926C78.8468 100.385 79.3755 101.546 80.1058 102.756C80.5752 102.405 81.0409 102.13 81.3919 101.777C82.1197 101.043 82.842 100.298 83.4638 99.5014C84.1386 98.6361 84.7277 97.7201 85.2908 96.7988C85.5511 96.3724 85.4191 96.2397 84.8443 96.1952C84.3138 96.1537 83.7771 96.1211 83.2454 96.1376C80.854 96.2123 78.4625 96.3009 76.0723 96.3988C75.7479 96.4123 75.4284 96.5076 75.0182 96.5801ZM97.9118 89.4272C94.5044 89.237 91.4505 88.3691 88.5835 86.9189C88.5273 87.107 88.4681 87.2443 88.4472 87.3852C88.1646 89.3205 87.8754 91.2547 87.6138 93.192C87.4867 94.1335 87.6477 94.2589 88.6501 93.8236C91.5202 92.5775 94.3595 91.2801 97.1993 89.9863C97.4763 89.8604 97.6768 89.6163 97.9118 89.4272ZM85.6418 102.767C85.6116 102.787 85.5807 102.807 85.5505 102.828C85.7195 103.039 85.8398 103.381 86.0662 103.441C87.5046 103.821 88.9647 104.143 90.4222 104.469C90.5647 104.5 90.7387 104.43 90.8984 104.408C90.8688 104.272 90.8694 104.126 90.8053 104.004C90.3026 103.04 89.7894 102.081 89.2756 101.122C88.8388 100.307 88.4212 99.4828 87.9426 98.6853C87.7939 98.4377 87.4738 98.262 87.2326 98.0537C87.0519 98.3169 86.7928 98.5636 86.704 98.847C86.3629 99.9336 86.0742 101.031 85.772 102.126C85.7134 102.337 85.6844 102.553 85.6418 102.767ZM86.1223 92.0122C86.4468 91.7044 86.8496 87.2764 86.6318 86.6588C85.4913 86.7753 84.3533 86.8914 83.2134 87.008C83.069 87.7142 85.2834 91.5568 86.1223 92.0122ZM82.8371 102.43C83.0931 102.568 83.3108 102.732 83.3577 102.702C83.5347 102.591 83.7056 102.432 83.7765 102.261C83.8074 102.187 83.5896 102.04 83.4848 101.926C83.3003 102.069 83.1165 102.213 82.8371 102.43Z" fill="#785E4D"/>
<path d="M121 1.52177C120.65 2.27929 119.989 2.80676 119.229 3.28241C118.838 3.52698 118.538 3.87258 118.179 4.15548C116.797 5.24461 115.394 6.31561 114.026 7.41615C113.345 7.96486 112.736 8.5773 112.066 9.13637C110.489 10.4509 107.861 11.7685 105.198 13.0535C100.651 16.6826 94.5254 17.9465 89.0911 20.5558C87.0599 21.531 84.9898 22.4507 82.9173 23.3631C82.2992 23.6352 81.6133 23.7989 80.9576 24.0108C80.7016 24.0937 80.4241 24.1429 80.189 24.2564C77.8143 25.4015 75.2692 26.1544 72.6292 26.7471C70.7423 27.171 68.9375 27.8513 67.0543 28.2896C62.8642 29.2653 58.5951 29.8777 54.2354 29.9513C53.1177 29.9705 51.9988 29.9383 50.8804 29.9295C50.7768 29.9285 50.6732 29.9259 50.5702 29.928C49.9034 29.943 49.7726 30.1285 50.0934 30.6306C50.4332 31.1622 50.7984 31.6824 51.1352 32.2156C51.5867 32.9301 51.9895 33.6679 52.4712 34.3679C53.9948 36.5835 55.3926 38.8478 56.5584 41.2167C57.4386 43.0048 58.3885 44.7701 59.376 46.5178C60.1421 47.8743 61.0267 49.1832 61.8328 50.5241C62.2202 51.1682 62.8377 51.5448 63.6346 51.7226C65.6677 52.1754 67.7205 52.5485 69.8424 52.4454C71.3209 52.3734 72.7951 52.2516 74.2718 52.1542C80.0669 51.7733 85.0133 49.5609 89.827 47.0645C91.7645 46.0598 93.4126 44.7655 94.9627 43.38C95.6813 42.738 96.3277 42.038 97.0605 41.4084C97.9408 40.652 98.2492 39.7084 98.4959 38.7219C98.7648 37.6483 99.0153 36.5674 99.3866 35.5182C99.6481 34.7793 100.137 34.0995 100.459 33.3726C102.642 28.4321 105.777 25.2273 108.058 20.3194C109.64 16.9157 112.682 13.6577 114.616 10.3799C116.719 8.59751 118.066 6.97935 119.141 5.2213C119.529 4.58917 120.072 4.02232 120.613 3.45288C120.872 4.28916 120.727 5.08036 120.418 5.84048C120.191 6.39696 119.908 6.95448 119.533 7.44827C117.276 10.4214 114.453 13.6038 111.718 16.8199C108.481 23.0101 104.404 27.5067 101.782 33.9016C101.124 35.5084 100.607 37.1612 100.135 38.8151C99.8844 39.6955 100.242 39.7281 100.966 39.8504C104.929 40.5183 108.85 40.2478 112.738 39.4576C114.107 39.1794 115.448 38.81 116.799 38.4747C117.115 38.3965 117.445 38.3157 117.564 38.6654C117.67 38.9763 117.376 39.0768 117.078 39.1613C113.141 40.2753 109.121 41.0375 104.942 40.9354C103.299 40.8955 101.662 40.6634 99.9325 40.511C99.3471 41.2717 98.8888 42.2069 98.6001 43.1857C97.4732 47.0106 96.3876 50.8443 95.2767 54.6729C94.5118 57.3097 93.7272 59.9418 92.9599 62.5781C92.7427 63.3243 92.5478 64.0782 92.7933 64.8476C92.868 65.0823 92.9623 65.3222 93.1079 65.5305C97.5448 71.8809 103.857 76.4193 111.944 79.2167C113.465 79.7431 115.056 80.126 116.608 80.5898C116.909 80.6794 117.226 80.7975 117.448 80.9784C117.581 81.0862 117.626 81.368 117.555 81.5214C117.502 81.6375 117.19 81.7535 117.017 81.7318C116.408 81.6556 115.799 81.5489 115.208 81.4033C110.48 80.2385 106.046 78.5649 102.122 76.0198C98.5866 73.727 95.6628 70.986 93.4774 67.7031C93.1918 67.2741 92.8926 66.8518 92.5966 66.4279C92.5626 66.3797 92.5114 66.3404 92.4559 66.2844C92.0013 66.4015 91.9452 66.745 91.8761 67.0388C91.6793 67.8746 91.5331 68.7186 91.3536 69.5575C90.9237 71.5617 90.4469 73.5596 90.0669 75.5705C89.835 76.797 89.7709 78.0452 89.5889 79.2794C89.3866 80.6556 89.0924 82.023 88.9227 83.4017C88.8191 84.2432 88.8493 85.0986 88.8832 85.9463C88.8906 86.1251 89.1343 86.3557 89.3422 86.4614C91.812 87.7163 94.4853 88.4899 97.3727 88.6039C98.9838 88.6676 100.593 88.522 102.089 87.9039C102.593 87.6956 103.151 87.5805 103.679 87.4101C103.934 87.3282 104.226 87.2624 104.414 87.1121C105.145 86.5272 106.072 86.3298 106.993 86.0842C109.564 85.3987 112.117 84.6681 114.684 83.9722C115.611 83.7209 116.556 83.5178 117.485 83.2945C117.881 84.1126 117.608 84.6126 116.661 84.8852C114.437 85.5261 112.192 86.122 109.991 86.8168C107.981 87.4515 106.014 88.1862 104.036 88.8914C103.659 89.0256 103.304 89.2117 102.961 89.4013C102.603 89.5982 102.517 89.822 102.845 90.1412C104.215 91.4775 105.905 92.4267 107.722 93.2956C109.905 94.3402 112.263 94.8195 114.672 95.2179C115.261 95.3154 115.865 95.3485 116.462 95.4117C116.564 95.4226 116.679 95.4154 116.766 95.4527C117.029 95.5667 117.281 95.6988 117.538 95.8237C117.385 96.0376 117.288 96.3143 117.067 96.4527C116.465 96.832 115.849 97.2232 115.17 97.4864C110.451 99.319 107.072 102.382 104.194 105.897C102.517 107.945 101.264 110.18 100.348 112.543C100.073 113.254 99.8011 113.978 99.6673 114.714C99.592 115.129 99.6851 115.626 99.9004 116.007C101.743 119.27 103.62 122.519 105.51 125.763C106.319 127.152 107.18 128.519 108.026 129.892C108.094 130.002 108.221 130.086 108.321 130.182C108.38 130.183 108.439 130.184 108.498 130.185C108.533 129.988 108.632 129.781 108.591 129.596C108.504 129.2 108.248 128.818 108.236 128.426C108.21 127.607 108.273 126.785 108.344 125.966C108.455 124.668 108.589 123.371 108.74 122.075C108.905 120.647 109.17 119.23 109.892 117.916C110.533 116.75 110.873 115.517 111.229 114.282C111.326 113.948 111.44 113.603 111.636 113.304C112.206 112.43 112.792 111.568 113.005 110.566C113.042 110.393 113.21 110.236 113.333 110.08C113.788 109.501 114.227 108.912 114.718 108.355C115.02 108.012 115.429 107.737 115.746 107.403C116.085 107.044 116.381 106.655 116.68 106.27C116.857 106.042 117.093 105.933 117.375 106.067C117.686 106.215 117.694 106.455 117.502 106.702C117.416 106.811 117.338 106.923 117.262 107.036C116.266 108.52 115.199 109.975 114.291 111.495C112.255 114.905 110.937 118.509 110.368 122.302C109.848 125.768 109.868 129.233 110.402 132.694C110.699 134.621 111.505 136.406 112.607 138.117C114.166 140.537 115.284 143.12 116.367 145.711C116.383 145.748 116.369 145.794 116.369 145.858C115.882 146.026 115.493 145.903 115.219 145.552C115.032 145.312 114.916 145.034 114.752 144.781C114.538 144.454 114.37 144.085 114.073 143.821C113.411 143.232 113.104 142.534 112.987 141.757C112.875 141.019 112.574 140.367 111.911 139.84C111.398 139.432 111.065 138.928 111.002 138.323C110.925 137.578 110.397 137.204 109.568 137.059C107.953 136.778 106.35 136.435 104.723 136.215C101.74 135.811 98.7321 135.699 95.7097 135.78C91.8095 135.886 88.0228 136.455 84.3656 137.615C84.0004 137.731 83.5958 137.756 83.2189 137.851C82.5971 138.006 81.9291 138.101 81.3758 138.365C79.13 139.433 76.9026 140.532 74.703 141.667C73.2608 142.411 71.9569 143.306 70.8373 144.393C70.3346 144.881 69.7196 145.296 69.109 145.695C68.2867 146.231 67.1388 146.049 66.7564 145.242C66.2629 144.203 65.717 143.211 64.8442 142.358C64.735 142.251 64.6666 142.108 64.6098 141.973C63.9732 140.453 62.7334 139.336 61.2691 138.35C60.3827 137.753 59.5901 137.055 58.6858 136.479C57.6057 135.79 56.4788 135.146 55.3222 134.553C54.1786 133.966 53.0011 133.411 51.7829 132.944C50.8385 132.583 49.8022 132.394 48.8184 132.1C48.1935 131.914 47.5915 131.674 46.9753 131.467C46.789 131.404 46.5923 131.343 46.3955 131.326C45.0977 131.214 43.7974 131.127 42.5008 131.008C40.8385 130.854 39.1749 130.693 37.515 130.976C37.0185 131.061 36.509 131.198 36.0735 131.411C32.8734 132.97 29.6301 134.476 26.52 136.156C23.8572 137.593 21.3473 139.232 18.7789 140.793C16.2067 142.355 13.4945 143.726 10.7243 145.023C9.23528 145.72 7.65681 146.027 5.96177 145.927C5.79461 145.917 5.62931 145.892 5.44549 145.797C6.36519 145.426 7.28733 145.059 8.20456 144.683C11.1678 143.468 14.0274 142.116 16.5743 140.332C17.1128 139.955 17.7475 139.676 18.3403 139.353C18.8455 139.079 19.4203 138.866 19.8497 138.525C21.8593 136.927 24.2365 135.778 26.5626 134.566C28.4785 133.567 30.3993 132.574 32.3478 131.622C32.9937 131.306 33.7252 131.11 34.4309 130.887C34.8565 130.752 35.2303 130.576 35.3506 130.194C35.6769 129.154 36.3566 128.264 37.0333 127.376C38.4174 125.56 39.054 123.529 39.4716 121.438C39.9324 119.131 40.0156 116.802 39.8781 114.468C39.7535 112.351 39.3075 110.277 38.6537 108.233C38.6272 108.149 38.6173 108.048 38.5544 107.989C37.9523 107.427 38.0479 106.694 37.8333 106.036C37.6865 105.588 37.4206 105.151 37.1184 104.758C36.6601 104.161 36.1568 103.602 36.0809 102.852C36.0581 102.625 35.8477 102.409 35.7108 102.194C35.5159 101.889 35.271 101.601 35.1168 101.283C34.8855 100.806 34.6165 100.37 34.1138 100.049C33.9565 99.9481 33.856 99.7822 33.7394 99.6403C33.381 99.205 33.0825 98.7242 32.6606 98.3382C31.7292 97.4853 30.7373 96.6786 29.767 95.8558C29.4333 95.5729 29.0287 95.4527 28.55 95.476C25.4548 95.6247 22.4002 95.2091 19.3328 94.9863C16.1253 94.7532 12.9184 94.5174 9.71271 94.2646C8.99534 94.2081 8.28597 94.0775 7.57292 93.9806C7.47114 93.9666 7.36999 93.9444 7.2676 93.9366C6.49163 93.8791 6.32384 94.0267 6.60265 94.6299C7.10043 95.7055 7.69321 96.7506 8.16878 97.833C9.46597 100.786 10.3086 103.842 10.715 106.965C11.0944 109.882 11.3306 112.814 11.5842 115.742C11.8457 118.76 11.4886 121.75 10.9562 124.736C10.2851 128.5 9.33459 132.207 7.93439 135.828C7.0406 138.14 5.96485 140.387 4.65101 142.556C4.16001 143.366 3.75291 144.212 3.28227 145.032C2.76722 145.927 2.73823 145.928 1.55453 145.849C1.41821 145.839 1.28128 145.837 1.00001 145.826C1.24612 145.481 1.40774 145.164 1.66434 144.917C2.20406 144.395 2.69998 143.884 2.7006 143.132C2.7006 142.929 2.94177 142.728 3.05958 142.522C3.26437 142.162 3.47657 141.803 3.65483 141.434C3.89169 140.941 4.02678 140.405 4.33581 139.949C4.88725 139.136 5.37208 138.321 5.45165 137.369C5.46337 137.229 5.49236 137.048 5.59969 136.964C6.14188 136.538 6.08945 135.942 6.30472 135.421C6.66619 134.546 6.7254 133.598 7.07453 132.761C8.19037 130.085 8.71653 127.304 9.39504 124.553C9.68557 123.374 9.69728 122.141 9.75773 120.929C9.84594 119.164 9.93846 117.395 9.8885 115.631C9.84656 114.16 9.59056 112.693 9.45116 111.223C9.34322 110.085 9.30683 108.942 9.1699 107.808C9.03173 106.662 8.88739 105.509 8.60488 104.384C8.17618 102.679 7.62659 100.995 7.12572 99.3014C7.09673 99.204 7.06774 99.1009 7.00544 99.018C5.98953 97.6563 5.72429 96.077 5.24871 94.5692C5.04639 93.9273 5.21479 93.2029 5.21479 92.4682C5.501 92.4682 5.68481 92.4552 5.86493 92.4702C9.64917 92.7775 13.0855 91.921 16.2875 90.2775C18.4186 89.1837 20.3073 87.8308 22.0647 86.3536C23.8313 84.8691 25.5405 83.3364 27.267 81.8183C27.5039 81.61 27.6871 81.3597 27.9073 81.1375C28.5562 80.4836 29.165 79.7949 29.8774 79.1939C30.6294 78.5592 31.2579 77.8695 31.7464 77.0783C32.1116 76.4866 32.5057 75.9291 33.2287 75.5566C33.5062 75.4135 33.6234 75.041 33.7943 74.7643C34.0676 74.3213 34.2304 73.8016 34.6079 73.4368C35.5325 72.543 36.2943 71.5741 36.9037 70.513C38.212 68.2357 39.5246 65.9601 40.8249 63.6792C40.9723 63.4212 41.0723 63.1403 41.1586 62.8621C41.3141 62.3595 41.5873 61.9367 42.0512 61.5735C42.7476 61.0289 42.9653 60.2579 43.2219 59.5284C43.6648 58.2688 43.8437 56.9123 44.5105 55.7496C45.1785 54.5853 45.3321 53.3257 45.9107 52.1687C46.422 51.1454 46.7255 50.0899 46.8735 48.992C47.0173 47.9293 47.1647 46.8645 47.3837 45.8116C47.5187 45.1608 47.8679 44.5401 47.9814 43.8883C48.1454 42.9458 48.1812 41.9882 48.2737 41.0369C48.4144 39.5955 48.613 38.1561 48.6833 36.712C48.7604 35.1363 48.7437 33.556 48.7172 31.9783C48.7067 31.3606 48.5124 30.7461 48.4853 30.1275C48.4508 29.3254 48.6346 29.271 49.5734 29.2907C50.2796 29.3057 50.9896 29.13 51.7014 29.0689C53.1911 28.9414 54.6832 28.8342 56.1741 28.7186C56.2598 28.7119 56.3517 28.7228 56.4307 28.7C58.2559 28.1798 60.2087 28.2762 62.066 27.7917C64.4044 27.1813 66.8464 26.857 69.2323 26.3684C69.8411 26.2435 70.395 25.9388 70.9934 25.7626C71.6824 25.5595 72.393 25.4088 73.0937 25.2336C73.5871 25.1103 74.1028 25.029 74.5685 24.8528C77.9241 23.5859 81.2858 22.3284 84.6092 21.003C85.6412 20.5916 86.551 19.9672 87.5355 19.4667C87.9395 19.2615 88.3941 19.1268 88.824 18.9569C89.5661 18.6636 90.376 18.4506 91.036 18.0594C94.0751 16.2563 98.2316 16.2904 101.024 14.209C102.287 13.2675 103.552 12.3281 104.824 11.3955C105.069 11.2157 105.337 11.0499 105.618 10.9131C107.643 10.4411 109.534 9.85918 110.067 9.00788C110.115 8.93171 110.175 8.85554 110.251 8.79803C111.289 8.00009 112.336 7.20993 113.369 6.40681C113.718 6.13478 114.086 5.8612 114.352 5.53477C114.664 5.14824 115.016 4.84565 115.534 4.66844C115.769 4.58813 115.993 4.46688 116.191 4.33217C117.137 3.68915 118.107 3.06687 118.996 2.371C119.496 1.98032 119.854 1.46115 120.276 1C120.517 1 120.759 1 121 1C121 1.1741 121 1.34767 121 1.52177ZM11.9721 93.1811C12.2898 93.2951 12.4483 93.3817 12.6204 93.4081C13.0935 93.4811 13.5697 93.5563 14.0484 93.5822C15.509 93.6609 16.9722 93.7122 18.434 93.7827C21.2369 93.9179 24.0398 94.0495 26.8408 94.2003C28.5926 94.2946 30.3419 94.419 32.0919 94.5356C32.903 94.5894 33.7277 94.8076 34.4666 94.2931C34.5906 94.2065 34.8293 94.2381 35.0144 94.2107C35.1982 94.1837 35.4085 94.1905 35.559 94.1143C36.7791 93.4962 37.9943 92.8697 39.1971 92.2277C39.6363 91.9935 40.0422 91.736 40.6066 91.7583C40.7509 91.764 40.9273 91.6661 41.0476 91.5759C41.9981 90.8635 42.9197 90.1236 43.8856 89.4267C46.2382 87.7308 48.1917 85.7168 50.2735 83.8054C50.5258 83.5738 50.6899 83.2769 50.9088 83.0183C51.3153 82.5385 51.7335 82.066 52.1437 81.5888C52.3133 81.3913 52.573 81.2053 52.6218 80.9872C52.7914 80.2307 53.2818 79.6188 53.8073 79.0338C55.9853 76.6115 57.4577 73.8933 58.4391 71C59.2668 68.5591 59.8979 66.0715 60.622 63.6056C61.092 62.004 61.5275 60.4009 61.5719 58.7387C61.6065 57.4371 61.7138 56.1371 61.7403 54.8356C61.7502 54.3366 61.7594 53.7894 61.5399 53.3438C60.7318 51.7034 59.8029 50.1055 58.9665 48.4743C58.0079 46.6049 57.1178 44.7111 56.1574 42.8421C55.8404 42.2256 55.3926 41.6572 55.0181 41.0608C54.8275 40.7571 54.6542 40.4452 54.4963 40.1286C54.2989 39.7328 54.1546 39.3172 53.935 38.9307C53.5599 38.2695 53.1263 37.6317 52.7507 36.9706C51.9081 35.4866 51.0896 33.9933 50.2482 32.5088C50.1699 32.3705 50.0015 32.2674 49.793 32.0705C49.7517 32.2897 49.7276 32.3601 49.7264 32.4306C49.7079 33.5301 49.7042 34.6296 49.6715 35.7286C49.6468 36.5524 49.5759 37.3758 49.5432 38.1996C49.4605 40.2675 49.4975 42.3432 49.2878 44.4012C48.9115 48.0982 47.9197 51.6993 46.5719 55.233C44.7023 60.1325 42.0894 64.7668 39.442 69.3891C38.7789 70.5472 38.0683 71.6866 37.3485 72.8202C36.995 73.3767 36.6441 73.9539 36.1617 74.4286C35.2833 75.2923 34.5172 76.2001 33.8893 77.2099C33.5204 77.8027 32.9795 78.3229 32.4903 78.8592C32.2189 79.1561 31.8871 79.4136 31.5959 79.6986C29.8275 81.4266 28.431 83.4276 26.24 84.8468C26.0784 84.9515 25.955 85.0981 25.8162 85.2271C22.1665 88.6163 17.977 91.3495 12.7493 92.8231C12.5199 92.8879 12.3182 93.0195 11.9721 93.1811ZM37.6199 129.278C38.0288 129.168 38.4119 129.119 38.7283 128.971C41.055 127.88 43.476 126.919 45.5597 125.488C45.8755 125.271 46.2277 125.034 46.6077 124.951C47.4823 124.762 48.1399 124.318 48.7894 123.84C49.1391 123.583 49.4815 123.316 49.8547 123.083C53.7857 120.635 57.7174 118.188 61.6601 115.753C63.4779 114.631 65.3179 113.532 67.1561 112.434C67.9697 111.948 68.5353 111.336 68.3638 110.466C68.0659 108.959 67.7624 107.451 66.971 106.044C64.8313 102.239 61.2919 99.5102 57.3121 97.1216C56.2629 96.4921 55.0551 96.2138 53.7536 96.2568C52.549 96.2967 51.3437 96.3625 50.139 96.3584C46.5201 96.3459 42.8993 96.3641 39.2841 96.2522C37.1406 96.1858 35.0082 95.8879 32.8678 95.7185C32.5347 95.692 32.1868 95.7983 31.8464 95.8433C32.0283 96.0905 32.1517 96.3936 32.4009 96.576C34.0053 97.7475 35.2858 99.1403 36.4171 100.637C39.9928 105.367 41.9346 110.49 41.7113 116.14C41.5781 119.526 40.7441 122.787 39.3026 125.94C38.7986 127.041 38.2096 128.114 37.6199 129.278ZM70.2014 143.295C70.2643 143.321 70.3272 143.346 70.3895 143.371C70.6486 143.17 70.9107 142.972 71.1649 142.767C71.7983 142.256 72.3812 141.693 73.0665 141.237C76.4739 138.969 80.2773 137.303 84.4131 136.204C86.456 135.662 88.5298 135.081 90.64 134.866C93.5169 134.574 96.4419 134.541 99.3471 134.536C102.189 134.532 105.013 134.783 107.708 135.655C108.114 135.787 108.581 135.826 109.022 135.834C109.467 135.842 109.613 135.614 109.435 135.311C108.509 133.73 107.594 132.145 106.655 130.57C105.769 129.085 104.789 127.638 103.98 126.124C103.329 124.906 102.72 123.688 101.695 122.648C101.294 122.243 101.064 121.77 101.021 121.222C100.998 120.933 100.838 120.638 100.678 120.373C100.166 119.523 99.6494 118.675 99.0813 117.852C98.9061 117.599 98.5718 117.416 98.2886 117.223C98.0123 117.034 97.6071 116.926 97.4356 116.691C96.9162 115.983 96.123 115.59 95.2853 115.253C90.4759 113.321 85.7491 113.692 81.0902 115.651C80.5283 115.888 80.2199 116.287 80.0706 116.79C79.8837 117.42 79.7147 118.055 79.4828 118.674C78.2337 122.005 76.9945 125.339 75.6979 128.657C74.6857 131.246 73.8752 133.897 72.4331 136.36C72.2381 136.693 72.1505 137.071 72.0253 137.431C71.5732 138.731 71.126 140.032 70.6776 141.333C70.5437 141.721 70.3914 142.107 70.2883 142.5C70.2211 142.758 70.2279 143.03 70.2014 143.295ZM68.0758 144.522C68.2294 144.222 68.3281 144.072 68.3836 143.913C68.7648 142.819 69.1447 141.725 69.5093 140.626C69.9497 139.299 70.0502 137.884 70.949 136.674C71.0014 136.603 71.0174 136.51 71.0316 136.425C71.2235 135.252 71.7447 134.171 72.2881 133.09C72.4701 132.728 72.5176 132.316 72.6064 131.923C72.6792 131.601 72.6625 131.256 72.789 130.952C73.7901 128.541 74.8467 126.146 75.825 123.729C76.5652 121.899 77.2153 120.043 77.9056 118.199C78.1319 117.593 78.3836 116.993 78.5791 116.38C78.8444 115.547 78.6359 114.85 77.8217 114.238C76.3135 113.103 74.5741 112.403 72.6064 112.1C71.4245 111.918 70.297 111.911 69.2237 112.59C63.9097 115.949 58.5717 119.283 53.2158 122.596C49.6388 124.808 46.0791 127.047 42.2115 128.904C42.0191 128.996 41.8371 129.115 41.6823 129.247C41.5824 129.333 41.4522 129.506 41.4923 129.568C41.5571 129.668 41.744 129.741 41.8927 129.766C42.1949 129.816 42.5064 129.829 42.8148 129.851C43.74 129.919 44.6739 129.94 45.5899 130.059C49.949 130.627 53.9134 132.038 57.5286 134.14C59.9848 135.569 62.4182 137.052 64.1386 139.144C65.3186 140.579 66.2814 142.139 67.3498 143.638C67.5428 143.91 67.7772 144.162 68.0758 144.522ZM96.8903 43.6582C96.4653 43.494 96.2254 43.6007 95.9897 43.808C95.4426 44.2893 94.8967 44.7733 94.3218 45.2308C91.0144 47.8629 87.3369 50.0184 83.0345 51.3552C79.4994 52.4537 75.841 53.1257 72.0932 53.363C70.4592 53.4666 68.7901 53.3599 67.1548 53.2102C66.0063 53.105 64.8905 52.7589 63.7561 52.5345C63.1313 52.4107 62.9413 52.5811 63.1868 53.0842C63.4594 53.6444 63.8147 54.176 64.1151 54.7273C66.0976 58.3646 68.077 62.003 70.0527 65.643C70.5517 66.5627 71.0248 67.4922 71.5294 68.4098C71.7447 68.8015 72.0426 69.1129 72.6323 69.1539C73.2473 69.1964 73.8703 69.2513 74.4655 69.3803C76.6238 69.8466 78.7753 69.8824 80.9496 69.456C84.3964 68.7798 87.3017 67.2145 90.1212 65.5191C90.4599 65.3155 90.7047 64.9087 90.8195 64.5564C91.0452 63.8626 91.1032 63.131 91.3105 62.432C92.7088 57.7294 94.1318 53.0319 95.5382 48.3308C96.0021 46.78 96.4375 45.224 96.8903 43.6582ZM38.2349 94.7739C38.3231 94.7848 38.3872 94.7988 38.4514 94.7998C41.1389 94.8495 43.8264 94.8972 46.5133 94.948C48.3737 94.9832 50.2334 95.0304 52.0937 95.0573C52.8962 95.0692 53.7209 95.1371 54.3742 94.5884C54.4963 94.4858 54.7233 94.4754 54.8905 94.4045C55.3117 94.2262 55.7923 94.0988 56.1315 93.8418C56.9081 93.2537 57.7408 92.762 58.6938 92.3998C59.0325 92.2708 59.384 92.0987 59.6265 91.8697C60.643 90.9096 61.6509 89.9407 62.6014 88.9344C63.1578 88.3458 63.6044 87.6893 64.4032 87.2852C64.616 87.1774 64.8134 87.0013 64.9318 86.8178C65.957 85.2328 66.9957 83.6525 67.9635 82.0421C68.5902 80.9991 69.1312 79.9203 69.2989 78.7333C69.3711 78.2234 69.5074 77.7027 69.7412 77.2312C70.0496 76.6089 70.3272 76.0016 70.2692 75.3125C70.255 75.1446 70.321 74.969 70.371 74.8016C70.5844 74.0918 70.8515 73.3912 71.0143 72.6736C71.3302 71.2757 71.1254 69.9384 70.1896 68.7155C69.8825 68.314 69.558 67.9191 69.2928 67.4984C68.8844 66.8502 68.3725 66.2124 68.1738 65.5155C67.9061 64.5745 67.4219 63.7657 66.8113 62.9678C66.4769 62.5315 66.3092 62.0046 66.0754 61.5154C65.9101 61.1693 65.8281 60.7797 65.5893 60.4755C64.8528 59.5356 64.3606 58.5102 63.9109 57.4605C63.7907 57.1796 63.5563 56.9335 63.3743 56.6713C63.304 56.6838 63.2331 56.6962 63.1627 56.7086C63.1165 56.9646 63.0536 57.2195 63.0277 57.4765C62.9185 58.5574 62.8913 59.6475 62.7032 60.718C62.4016 62.432 62.0117 64.1362 61.6293 65.8398C60.9835 68.716 60.073 71.5218 58.5408 74.171C58.1232 74.8928 57.8734 75.6825 57.5366 76.4379C57.3325 76.8954 57.1795 77.3825 56.8834 77.7954C55.4875 79.7395 54.0571 81.6665 52.6199 83.5898C52.4133 83.8665 52.1585 84.1805 51.8316 84.3178C51.2327 84.5681 50.936 85.0049 50.5486 85.4085C49.1453 86.8722 47.7155 88.3184 46.2666 89.751C46.0205 89.9946 45.6386 90.1438 45.3105 90.3251C44.9885 90.5034 44.5758 90.6117 44.3408 90.8479C43.5612 91.6314 42.5835 92.1873 41.5602 92.7013C40.7478 93.1096 39.92 93.4962 39.1083 93.9055C38.7147 94.1045 38.3231 94.321 38.2349 94.7739ZM67.8167 95.3195C68.8925 95.3325 69.6567 95.2164 70.358 94.8542C70.664 94.6967 71.0045 94.5863 71.3302 94.4563C72.8981 93.8309 74.4994 93.2573 76.0267 92.5677C77.5805 91.8661 78.8795 90.8966 79.6234 89.5023C79.9818 88.8308 80.342 88.1567 80.619 87.4603C80.7331 87.1743 80.7454 86.7842 80.6048 86.5152C79.9553 85.2727 79.2626 84.0453 78.5341 82.8338C77.7988 81.611 76.968 80.4286 76.2457 79.2012C75.5375 77.9986 74.9423 76.7488 74.241 75.5426C73.7969 74.7783 73.2584 74.0514 72.739 73.3197C72.6557 73.2021 72.4503 73.1456 72.3017 73.0607C72.2024 73.1871 72.0963 73.3104 72.0062 73.4415C71.9741 73.4881 71.9797 73.5539 71.9723 73.6114C71.8643 74.4586 71.8033 75.3125 71.6417 76.1524C70.9656 79.6753 69.4809 82.9504 67.2603 85.9883C64.9491 89.1505 62.3103 92.0521 58.3151 93.8734C57.9339 94.0469 57.6304 94.3501 57.3171 94.6148C57.2276 94.6905 57.182 94.8521 57.2103 94.9568C57.2252 95.0128 57.4373 95.0501 57.565 95.062C57.7525 95.0796 57.9438 95.0666 58.1331 95.0666C60.4074 95.0651 62.6816 95.0345 64.9546 95.0744C66.0001 95.0931 67.0414 95.2496 67.8167 95.3195ZM89.9288 66.8518C89.5525 67.0699 89.1738 67.285 88.8 67.5062C87.7033 68.1559 86.6781 68.9186 85.4999 69.4373C82.7057 70.6679 79.6536 70.7612 76.5862 70.557C75.5992 70.4912 74.6296 70.2492 73.6482 70.1062C73.3768 70.0663 73.0918 70.0922 72.813 70.0876C72.8691 70.3606 72.8531 70.6637 72.995 70.9005C73.3805 71.5451 73.8801 72.1425 74.2502 72.7923C75.3173 74.6679 76.3006 76.5778 77.3967 78.4416C78.4323 80.2017 79.5654 81.9219 80.6634 83.6561C81.1155 84.3696 81.5504 85.094 82.0636 85.7759C82.4109 86.237 82.929 86.5748 83.6482 86.509C84.5537 86.4261 85.458 86.3292 86.3573 86.2101C86.5146 86.1893 86.6972 86.0551 86.7817 85.9313C87.2739 85.2106 87.2215 84.3986 87.2783 83.6095C87.3566 82.5204 87.1777 81.4022 87.8544 80.3851C87.9235 80.281 87.8556 80.1115 87.8482 79.9727C87.8279 79.5742 87.7261 79.1649 87.8013 78.7794C87.9765 77.8835 88.28 77.0053 88.4521 76.1094C88.7556 74.5265 88.9622 72.9306 89.2817 71.3503C89.5173 70.1855 89.8807 69.0389 90.1619 67.8803C90.2403 67.5518 90.3445 67.1932 89.9288 66.8518ZM98.9524 113.911C99.0066 113.805 99.0578 113.719 99.0955 113.63C99.5229 112.616 99.2719 111.473 99.9325 110.498C99.9923 110.41 99.9128 110.262 99.9522 110.156C100.073 109.834 100.144 109.472 100.372 109.21C100.739 108.79 101.009 108.361 101.097 107.845C101.189 107.303 101.492 106.851 101.881 106.407C102.314 105.912 102.626 105.344 103.01 104.818C103.231 104.514 103.469 104.216 103.737 103.942C104.182 103.488 104.657 103.056 105.12 102.614C105.3 102.443 105.441 102.181 105.663 102.117C106.41 101.904 106.808 101.4 107.255 100.925C108.377 99.7325 109.678 98.7159 111.275 97.9776C112.194 97.5527 113.099 97.1055 113.988 96.6371C114.257 96.4946 114.449 96.2475 114.778 95.9604C114.152 95.8413 113.691 95.7464 113.226 95.6666C111.675 95.4008 110.11 95.163 108.712 94.4993C108.286 94.2972 107.892 94.2542 107.436 94.3324C106.763 94.447 106.084 94.5361 105.411 94.6454C104.979 94.7153 104.503 94.7267 104.133 94.8967C102.793 95.5128 101.473 96.1641 100.18 96.848C99.8017 97.0485 99.4205 97.3573 99.2441 97.6926C98.8987 98.3491 98.3405 98.8423 97.8032 99.3693C97.335 99.8284 96.9008 100.319 96.5122 100.828C95.4494 102.222 94.8794 103.758 94.5149 105.386C94.2725 106.468 94.4433 107.394 95.0534 108.339C95.9293 109.697 96.7262 111.09 97.567 112.464C97.9037 113.015 98.2516 113.567 98.9524 113.911ZM58.7518 96.5045C58.7358 96.5651 58.7197 96.6263 58.7037 96.6869C58.943 96.8615 59.1682 97.0532 59.4248 97.2076C61.6028 98.5201 63.679 99.9325 65.3223 101.73C67.5157 104.129 68.7901 106.861 69.3051 109.848C69.3872 110.323 69.732 110.498 70.2563 110.289C70.5178 110.184 70.7719 110.05 70.9915 109.892C72.8525 108.559 74.7307 107.24 76.5485 105.866C77.3368 105.269 78.0302 104.576 78.6957 103.878C78.9307 103.632 79.1472 103.185 79.0374 102.932C78.7111 102.177 78.3441 101.39 77.7637 100.767C76.7811 99.7113 75.6332 98.7625 74.534 97.7853C73.37 96.7496 71.9458 96.263 70.2297 96.3366C68.8542 96.3957 67.4744 96.3889 66.0964 96.3895C63.9769 96.3905 61.8575 96.3662 59.7387 96.3693C59.4093 96.3687 59.0806 96.4568 58.7518 96.5045ZM101.137 90.0396C100.791 90.1614 100.397 90.2681 100.04 90.4308C99.2231 90.8023 98.4503 91.2464 97.6138 91.5801C94.8048 92.7018 91.9803 93.7956 89.1534 94.8853C87.8649 95.3822 87.8155 95.3936 88.4095 96.4677C89.7345 98.8646 91.0952 101.248 92.4485 103.634C92.5885 103.88 92.7569 104.12 92.9506 104.339C93.0549 104.457 93.2418 104.523 93.391 104.613C93.5039 104.477 93.6637 104.353 93.7204 104.203C93.9166 103.68 94.0591 103.144 94.254 102.621C95.8799 98.2584 99.1719 95.2687 104.443 93.9184C104.741 93.8418 105.121 93.7951 105.087 93.4775C105.062 93.2526 104.876 92.9925 104.667 92.8412C104.305 92.5796 103.846 92.4143 103.471 92.163C103.196 91.979 102.974 91.7324 102.759 91.4946C102.371 91.064 102.017 90.6117 101.622 90.1863C101.545 90.1023 101.347 90.0992 101.137 90.0396ZM81.4714 114.3C81.5344 114.326 81.5973 114.352 81.6596 114.378C82.1765 114.19 82.6915 113.998 83.2109 113.814C87.3208 112.36 91.3425 112.514 95.2791 114.279C95.5333 114.393 95.8152 114.496 96.0952 114.523C96.2599 114.539 96.4764 114.42 96.6109 114.311C96.675 114.26 96.646 114.071 96.5874 113.975C95.2181 111.727 93.692 109.542 92.7082 107.142C92.4602 106.537 91.981 106.127 91.2889 105.907C89.6407 105.382 87.9901 104.861 86.3253 104.374C85.4327 104.113 85.1965 104.234 84.8362 104.963C84.7702 105.096 84.7061 105.23 84.653 105.367C83.8937 107.328 83.1097 109.283 82.3887 111.254C82.0241 112.253 81.7737 113.283 81.4714 114.3ZM79.2724 114.395C79.5019 113.969 79.7641 113.642 79.856 113.284C80.3334 111.424 81.2389 109.691 82.0124 107.916C82.5188 106.753 82.8858 105.548 83.2917 104.356C83.3299 104.243 83.251 104.024 83.1424 103.966C82.5941 103.672 81.0668 103.84 80.6153 104.238C80.0089 104.771 79.4698 105.365 78.824 105.861C76.7663 107.444 74.6697 108.99 72.599 110.561C72.3973 110.714 72.2708 110.937 72.0519 111.195C74.9306 111.615 77.3239 112.509 79.2724 114.395ZM74.6142 94.8055C74.632 94.8723 74.6506 94.9387 74.6684 95.0055C75.2322 95.0532 75.7966 95.1438 76.3604 95.1413C78.6834 95.1319 81.0063 95.0941 83.3293 95.0677C83.7938 95.0625 84.2626 95.0941 84.7221 95.0532C85.4956 94.9843 85.7158 94.4812 85.305 93.9236C84.8313 93.2801 84.3786 92.6205 83.9918 91.9381C83.4101 90.9101 82.9216 89.8448 82.3368 88.8179C82.1197 88.437 81.7428 88.121 81.4387 87.7754C81.3752 87.794 81.3123 87.8132 81.2488 87.8318C81.0261 88.3116 80.8213 88.7977 80.5777 89.2697C79.8584 90.6624 79.0923 92.0443 77.6533 93.0293C76.9513 93.5096 76.1377 93.8744 75.3833 94.3019C75.1144 94.4542 74.8695 94.6366 74.6142 94.8055ZM75.0182 96.5801C76.0982 97.5703 77.2079 98.3973 78.0283 99.3926C78.8468 100.385 79.3755 101.546 80.1058 102.756C80.5752 102.405 81.0409 102.13 81.3919 101.777C82.1197 101.043 82.842 100.298 83.4638 99.5014C84.1386 98.6361 84.7277 97.7201 85.2908 96.7988C85.5511 96.3724 85.4191 96.2397 84.8443 96.1952C84.3138 96.1537 83.7771 96.1211 83.2454 96.1376C80.854 96.2123 78.4625 96.3009 76.0723 96.3988C75.7479 96.4123 75.4284 96.5076 75.0182 96.5801ZM97.9118 89.4272C94.5044 89.237 91.4505 88.3691 88.5835 86.9189C88.5273 87.107 88.4681 87.2443 88.4472 87.3852C88.1646 89.3205 87.8754 91.2547 87.6138 93.192C87.4867 94.1335 87.6477 94.2589 88.6501 93.8236C91.5202 92.5775 94.3595 91.2801 97.1993 89.9863C97.4763 89.8604 97.6768 89.6163 97.9118 89.4272ZM85.6418 102.767C85.6116 102.787 85.5807 102.807 85.5505 102.828C85.7195 103.039 85.8398 103.381 86.0662 103.441C87.5046 103.821 88.9647 104.143 90.4222 104.469C90.5647 104.5 90.7387 104.43 90.8984 104.408C90.8688 104.272 90.8694 104.126 90.8053 104.004C90.3026 103.04 89.7894 102.081 89.2756 101.122C88.8388 100.307 88.4212 99.4828 87.9426 98.6853C87.7939 98.4377 87.4738 98.262 87.2326 98.0537C87.0519 98.3169 86.7928 98.5636 86.704 98.847C86.3629 99.9336 86.0742 101.031 85.772 102.126C85.7134 102.337 85.6844 102.553 85.6418 102.767ZM86.1223 92.0122C86.4468 91.7044 86.8496 87.2764 86.6318 86.6588C85.4913 86.7753 84.3533 86.8914 83.2134 87.008C83.069 87.7142 85.2834 91.5568 86.1223 92.0122ZM82.8371 102.43C83.0931 102.568 83.3108 102.732 83.3577 102.702C83.5347 102.591 83.7056 102.432 83.7765 102.261C83.8074 102.187 83.5896 102.04 83.4848 101.926C83.3003 102.069 83.1165 102.213 82.8371 102.43Z" stroke="#785E4D" mask="url(#path-1-outside-1_8091_69241)"/>
</svg>
