<svg width="7" height="7" viewBox="0 0 7 7" fill="none" xmlns="http://www.w3.org/2000/svg">
<path d="M1.12964 4.02069C1.38243 4.03653 1.44005 3.88858 1.56892 3.735C1.82667 3.42783 2.11663 3.08227 2.37437 2.7751C2.66433 2.42954 2.92208 2.12238 3.21204 1.77681C3.27647 1.70002 3.37313 1.58483 3.44438 1.57919C3.65132 1.49112 3.69036 1.52388 3.79383 1.47984C3.92952 1.39741 3.98714 1.24946 4.08379 1.13428C4.56024 0.487188 5.25915 0.288478 6.08197 0.259183C6.36699 0.236619 6.52313 0.367639 6.5504 0.652242C6.66443 1.46765 6.51885 2.19608 5.93211 2.81606C5.83546 2.93125 5.63533 3.09047 5.64215 3.16162C5.77971 3.47334 5.51515 3.70935 5.32184 3.93973C4.80635 4.55406 4.29087 5.16839 3.8076 5.74433C3.71094 5.85952 3.60747 5.90355 3.69918 6.11137C3.74503 6.21527 3.71963 6.32482 3.58394 6.40725C3.48047 6.45129 3.37018 6.42417 3.29211 6.35866C2.55043 5.73632 1.76972 5.08122 1.02804 4.45888C0.832858 4.2951 0.87684 4.00486 1.12964 4.02069ZM3.08263 4.54714C2.98598 4.66233 2.88932 4.77752 3.0845 4.94129C3.24064 5.07231 3.37633 4.98988 3.47299 4.87469C3.82738 4.45234 4.214 3.99159 4.5684 3.56923C4.70409 3.4868 4.7617 3.33886 4.56653 3.17508C4.41038 3.04406 4.27469 3.1265 4.17804 3.24168C3.98473 3.47206 3.79142 3.70243 3.59812 3.93281C3.43703 4.12479 3.24372 4.35516 3.08263 4.54714ZM4.35892 1.75771C4.29448 1.8345 4.3013 1.90565 4.37937 1.97116C4.49648 2.06943 4.65262 2.20045 4.76973 2.29871C5.27719 2.72452 5.27719 2.72452 5.69602 2.22538C5.95377 1.91821 6.02315 1.51842 5.98224 1.09152C5.96861 0.949217 5.89054 0.883707 5.74803 0.894989C5.10675 0.945757 4.67428 1.3026 4.35892 1.75771Z" fill="white"/>
</svg>
