<svg width="21" height="20" viewBox="0 0 21 20" fill="none" xmlns="http://www.w3.org/2000/svg">
<path d="M19.8595 14.6437V14.6436C19.8595 14.3283 19.7024 14.0252 19.4741 13.7825C19.3623 13.6636 19.2436 13.5708 19.141 13.509C19.0537 13.4565 19.0018 13.4405 18.9881 13.4362L19.8595 14.6437ZM19.8595 14.6437C19.8595 15.1382 19.8596 15.4274 19.8596 15.6525C19.8597 16.104 19.8598 16.298 19.8596 17.374C19.8596 17.9669 19.5628 18.3042 19.1699 18.5191M19.8595 14.6437L19.1699 18.5191M19.1699 18.5191C18.757 18.7448 18.2608 18.8141 17.9894 18.816M19.1699 18.5191L17.9894 18.816M17.9894 18.816C17.2511 18.7786 16.502 18.7872 15.746 18.7958C15.5746 18.7978 15.4029 18.7998 15.2308 18.8012V18.7936V18.7811V18.7686V18.7561V18.7436V18.7311V18.7186V18.7061V18.6936V18.6811V18.6686V18.6562V18.6437V18.6312V18.6187V18.6062V18.5937V18.5813V18.5688V18.5563V18.5438V18.5313V18.5189V18.5064V18.4939V18.4815V18.469V18.4565V18.4441V18.4316V18.4191V18.4067V18.3942V18.3818V18.3693V18.3568V18.3444V18.3319V18.3195V18.307V18.2946V18.2821V18.2697V18.2572V18.2448V18.2323V18.2199V18.2075V18.195V18.1826V18.1701V18.1577V18.1453V18.1328V18.1204V18.108V18.0955V18.0831V18.0707V18.0582V18.0458V18.0334V18.021V18.0085V17.9961V17.9837V17.9713V17.9589V17.9464V17.934V17.9216V17.9092V17.8968V17.8844V17.872V17.8596V17.8471V17.8347V17.8223V17.8099V17.7975V17.7851V17.7727V17.7603V17.7479V17.7355V17.7231V17.7107V17.6983V17.6859V17.6735V17.6611V17.6487V17.6363V17.624V17.6116V17.5992V17.5868V17.5744V17.562V17.5496V17.5373V17.5249V17.5125V17.5001V17.4877V17.4753V17.463V17.4506V17.4382V17.4258V17.4135V17.4011V17.3887V17.3763V17.364V17.3516V17.3392V17.3269V17.3145V17.3021V17.2898V17.2774V17.265V17.2527V17.2403V17.228V17.2156V17.2032V17.1909V17.1785V17.1662V17.1538V17.1414V17.1291V17.1167V17.1044V17.092V17.0797V17.0673V17.055V17.0426V17.0303V17.0179V17.0056V16.9932V16.9809V16.9686V16.9562V16.9439V16.9315V16.9192V16.9068V16.8945V16.8822V16.8698V16.8575V16.8451V16.8328V16.8205V16.8081V16.7958V16.7835V16.7711V16.7588V16.7465V16.7341V16.7218V16.7095V16.6972V16.6848V16.6725V16.6602V16.6478V16.6355V16.6232V16.6109V16.5985V16.5862V16.5739V16.5616V16.5492V16.5369V16.5246V16.5123V16.5V16.4876V16.4753V16.463V16.4507V16.4384V16.4261V16.4137V16.4014V16.3891V16.3768V16.3645V16.3522V16.3399V16.3276V16.3152V16.3029V16.2906V16.2783V16.266V16.2537V16.2414V16.2291V16.2168V16.2045V16.1922V16.1798V16.1675V16.1552V16.1429V16.1306V16.1183V16.106V16.0937V16.0814V16.0691V16.0568V16.0445V16.0322V16.0199V16.0076V15.9953V15.983V15.9707V15.9584V15.9461V15.9338V15.9215V15.9092V15.8969V15.8846V15.8723V15.86V15.8477V15.8355V15.8232V15.8109V15.7986V15.7863V15.774V15.7617V15.7494V15.7371V15.7248V15.7125V15.7002V15.6879V15.6756V15.6634V15.6511V15.6388V15.6265V15.6142V15.6019V15.5896V15.5773V15.565V15.5528V15.5405V15.5282V15.5159V15.5036V15.4913V15.479V15.4667V15.4545V15.4422V15.4299V15.4176V15.4053V15.393V15.3807V15.3684V15.3562V15.3439V15.3316V15.3193V15.307V15.2947V15.2825V15.2702V15.2579V15.2456V15.2333V15.221V15.2088V15.1965V15.1842V15.1719V15.1596V15.1473V15.1351V15.1228V15.1105V15.0982V15.0859V15.0736V15.0614V15.0491V15.0368V15.0245V15.0122V14.9999V14.9877V14.9754V14.9631V14.9508V14.9385V14.9262V14.914V14.9017V14.8894V14.8771V14.8648V14.8526V14.8403V14.828V14.8157V14.8034V14.7911V14.7789V14.7666V14.7543V14.742V14.7297V14.7174V14.7052V14.6929V14.6806V14.6683V14.656V14.6437V14.6315V14.6192V14.6069V14.5946V14.5823V14.57V14.5578V14.5455V14.5332V14.5209V14.5086V14.4963V14.484V14.4718V14.4595V14.4472V14.4349V14.4226V14.4103V14.398V14.3858V14.3735V14.3612V14.3489V14.3366V14.3243V14.312V14.2997V14.2875V14.2752V14.2629V14.2506V14.2383V14.226V14.2137V14.2014V14.1891V14.1768V14.1646V14.1523V14.14V14.1277V14.1154V14.1031V14.0908V14.0785V14.0662V14.0539V14.0416V14.0293V14.017V14.0047V13.9924V13.9802V13.9679V13.9556V13.9433V13.931V13.9187V13.9064V13.8941V13.8818V13.8695V13.8572V13.8449V13.8326V13.8203V13.808V13.7957V13.7834V13.7711V13.7588V13.7465V13.7342V13.7219V13.7096V13.6972V13.6849V13.6726V13.6603V13.648V13.6357V13.6234V13.6111V13.5988V13.5865V13.5742V13.5619V13.5496V13.5372V13.5249V13.5126V13.5003V13.488V13.4757V13.4634V13.451V13.4387V13.4336C15.5886 13.4291 15.9304 13.4203 16.2646 13.4116C17.1728 13.3882 18.0247 13.3662 18.9866 13.435L17.9894 18.816Z" fill="#00B9E1" fill-opacity="0.6" stroke="#9DEDFF" stroke-width="0.957704"/>
<path d="M11.5337 2.3118L11.4162 2.15279L10.3692 0.735785C10.3214 0.800508 10.2735 0.865464 10.2252 0.930796C9.93931 1.31817 9.64361 1.71879 9.31588 2.16256L9.19774 2.32252L9.00104 2.35174C8.88853 2.36845 8.7745 2.38248 8.65881 2.39672C8.40166 2.42835 8.13629 2.461 7.861 2.52638L11.5337 2.3118ZM11.5337 2.3118L11.7292 2.34158M11.5337 2.3118L11.7292 2.34158M11.7292 2.34158C11.827 2.35649 11.924 2.36634 12.0213 2.37621C12.2354 2.39797 12.4509 2.41985 12.6795 2.49617C12.7977 2.53564 12.9283 2.59376 13.0292 2.65846C13.072 2.68593 13.1021 2.70993 13.1216 2.72837C13.1169 2.75489 13.107 2.79226 13.0888 2.83973C13.0463 2.95095 12.9762 3.07314 12.9061 3.16962L12.906 3.16967M11.7292 2.34158L12.906 3.16967M12.906 3.16967C12.8262 3.27956 12.7193 3.38534 12.5814 3.5059C12.5383 3.54358 12.4853 3.58825 12.4284 3.63622C12.3295 3.71971 12.2187 3.81319 12.1273 3.89718L11.9364 4.07273M12.906 3.16967L11.9364 4.07273M11.9364 4.07273L11.9791 4.32853M11.9364 4.07273L11.9791 4.32853M11.9791 4.32853C12.0035 4.47451 12.0341 4.62841 12.0618 4.76815C12.0779 4.8491 12.093 4.9253 12.1054 4.99246C12.1426 5.19308 12.1667 5.36427 12.1691 5.52662L12.1691 5.52675M11.9791 4.32853L12.1691 5.52675M12.1691 5.52675C12.1707 5.63854 12.1595 5.77142 12.134 5.87794M12.1691 5.52675L12.134 5.87794M10.3698 5.29551L10.5842 5.40293C10.7067 5.4643 10.8412 5.53829 10.9627 5.60509C11.0331 5.6438 11.0991 5.6801 11.1558 5.71013C11.3308 5.80278 11.4813 5.87229 11.6279 5.91482L10.3698 5.29551ZM10.3698 5.29551L10.1553 5.40286M10.3698 5.29551L10.1553 5.40286M10.1553 5.40286C10.0327 5.46428 9.89795 5.53826 9.77634 5.60504C9.70562 5.64388 9.63934 5.68028 9.58244 5.71035C9.40714 5.80301 9.25647 5.87245 9.10975 5.91493L9.10961 5.91497M10.1553 5.40286L9.10961 5.91497M9.10961 5.91497C9.00437 5.94549 8.87623 5.96573 8.76181 5.96526M9.10961 5.91497L8.76181 5.96526M8.80187 4.07084L8.75931 4.32547C8.7348 4.47207 8.70418 4.62639 8.67639 4.76649C8.66027 4.84776 8.6451 4.92424 8.63262 4.99165C8.59539 5.19272 8.57124 5.36415 8.56878 5.52674L8.80187 4.07084ZM8.80187 4.07084L8.61255 3.89534M8.80187 4.07084L8.61255 3.89534M8.61255 3.89534C8.49028 3.78199 8.37603 3.68188 8.26824 3.58744M8.61255 3.89534L8.26824 3.58744M12.134 5.87794C12.1265 5.90912 12.1189 5.93328 12.1123 5.95109M12.134 5.87794L12.1123 5.95109M12.1123 5.95109C12.0859 5.95742 12.0417 5.96454 11.9752 5.96486C11.8609 5.96542 11.733 5.94528 11.628 5.91484L12.1123 5.95109ZM8.76181 5.96526C8.69563 5.96498 8.6516 5.95796 8.62523 5.9517M8.76181 5.96526L8.62523 5.9517M8.62523 5.9517C8.61864 5.93391 8.61111 5.90983 8.6037 5.87879C8.57823 5.77214 8.5671 5.63902 8.56878 5.5268L8.62523 5.9517ZM8.26824 3.58744C8.05392 3.39964 7.86517 3.23425 7.68977 3.03174L8.26824 3.58744ZM12.0966 5.98547C12.0966 5.98544 12.097 5.98478 12.0978 5.98359C12.0971 5.98491 12.0966 5.98551 12.0966 5.98547ZM8.64095 5.98636C8.64094 5.98639 8.64053 5.9858 8.63977 5.98447C8.64058 5.98566 8.64097 5.98632 8.64095 5.98636ZM7.68973 3.0317C7.53058 2.84788 7.54946 2.73965 7.55824 2.71309C7.56771 2.68445 7.62062 2.58355 7.8609 2.52641L7.68973 3.0317Z" fill="#00B9E1" fill-opacity="0.6" stroke="#9DEDFF" stroke-width="0.957704"/>
<path d="M7.25327 9.1214V9.12142C7.2483 12.0659 7.2504 15.0106 7.25402 17.9557L7.25327 9.1214ZM7.25327 9.1214C7.25427 8.51622 7.36179 8.22072 7.4942 8.06934C7.61264 7.93392 7.83642 7.81941 8.34433 7.81458M7.25327 9.1214L7.25201 18.8167M7.25201 18.8167H13.4694L13.4706 18.1138C13.4718 17.3854 13.4733 16.3807 13.4743 15.2759C13.4762 13.0659 13.4763 10.4567 13.4689 8.8559M7.25201 18.8167L7.25233 18.7159C7.25327 18.4112 7.25417 18.0751 7.25402 17.9557L7.25201 18.8167ZM13.4689 8.8559L13.9477 8.85367L13.4689 8.8559ZM13.4689 8.8559C13.467 8.45014 13.365 8.20587 13.2391 8.06553C13.1193 7.932 12.9219 7.83008 12.587 7.82325L12.587 7.82325C11.176 7.79447 9.76231 7.80113 8.34433 7.81458M8.34433 7.81458L8.33979 7.33575L8.34433 7.81458Z" fill="#00B9E1" fill-opacity="0.6" stroke="#9DEDFF" stroke-width="0.957704" stroke-miterlimit="16"/>
<path d="M0.875265 12.1886L0.875265 12.1886C0.861824 13.9816 0.8632 15.7751 0.874233 17.5691L0.875265 12.1886ZM0.875265 12.1886C0.878502 11.7541 0.977989 11.4855 1.11335 11.3254C1.24038 11.1751 1.45515 11.0541 1.84451 11.0327L1.84451 11.0327M0.875265 12.1886L1.84451 11.0327M1.84451 11.0327C2.77546 10.9815 3.70055 10.9926 4.6667 11.0042C4.93901 11.0075 5.21459 11.0108 5.49447 11.0127V11.0143V11.0314V11.0484V11.0655V11.0826V11.0996V11.1167V11.1338V11.1508V11.1679V11.185V11.202V11.2191V11.2362V11.2532V11.2703V11.2873V11.3044V11.3215V11.3385V11.3556V11.3726V11.3897V11.4067V11.4238V11.4408V11.4579V11.4749V11.492V11.509V11.526V11.5431V11.5601V11.5772V11.5942V11.6112V11.6283V11.6453V11.6624V11.6794V11.6964V11.7135V11.7305V11.7475V11.7646V11.7816V11.7986V11.8156V11.8327V11.8497V11.8667V11.8837V11.9008V11.9178V11.9348V11.9518V11.9689V11.9859V12.0029V12.0199V12.0369V12.054V12.071V12.088V12.105V12.122V12.139V12.156V12.1731V12.1901V12.2071V12.2241V12.2411V12.2581V12.2751V12.2921V12.3091V12.3261V12.3431V12.3601V12.3771V12.3942V12.4112V12.4282V12.4452V12.4622V12.4792V12.4962V12.5132V12.5302V12.5472V12.5642V12.5812V12.5982V12.6152V12.6321V12.6491V12.6661V12.6831V12.7001V12.7171V12.7341V12.7511V12.7681V12.7851V12.8021V12.8191V12.8361V12.8531V12.8701V12.887V12.904V12.921V12.938V12.955V12.972V12.989V13.006V13.0229V13.0399V13.0569V13.0739V13.0909V13.1079V13.1249V13.1419V13.1588V13.1758V13.1928V13.2098V13.2268V13.2438V13.2607V13.2777V13.2947V13.3117V13.3287V13.3457V13.3626V13.3796V13.3966V13.4136V13.4306V13.4476V13.4645V13.4815V13.4985V13.5155V13.5325V13.5494V13.5664V13.5834V13.6004V13.6174V13.6343V13.6513V13.6683V13.6853V13.7023V13.7193V13.7362V13.7532V13.7702V13.7872V13.8042V13.8211V13.8381V13.8551V13.8721V13.8891V13.906V13.923V13.94V13.957V13.974V13.991V14.0079V14.0249V14.0419V14.0589V14.0759V14.0929V14.1098V14.1268V14.1438V14.1608V14.1778V14.1948V14.2117V14.2287V14.2457V14.2627V14.2797V14.2967V14.3137V14.3306V14.3476V14.3646V14.3816V14.3986V14.4156V14.4326V14.4495V14.4665V14.4835V14.5005V14.5175V14.5345V14.5515V14.5685V14.5855V14.6025V14.6195V14.6364V14.6534V14.6704V14.6874V14.7044V14.7214V14.7384V14.7554V14.7724V14.7894V14.8064V14.8234V14.8404V14.8574V14.8744V14.8914V14.9084V14.9254V14.9424V14.9594V14.9764V14.9934V15.0104V15.0274V15.0444V15.0614V15.0784V15.0954V15.1124V15.1294V15.1464V15.1635V15.1805V15.1975V15.2145V15.2315V15.2485V15.2655V15.2825V15.2995V15.3166V15.3336V15.3506V15.3676V15.3846V15.4017V15.4187V15.4357V15.4527V15.4697V15.4868V15.5038V15.5208V15.5378V15.5549V15.5719V15.5889V15.6059V15.623V15.64V15.657V15.6741V15.6911V15.7081V15.7252V15.7422V15.7592V15.7763V15.7933V15.8103V15.8274V15.8444V15.8615V15.8785V15.8956V15.9126V15.9296V15.9467V15.9637V15.9808V15.9978V16.0149V16.0319V16.049V16.0661V16.0831V16.1002V16.1172V16.1343V16.1513V16.1684V16.1855V16.2025V16.2196V16.2367V16.2537V16.2708V16.2879V16.3049V16.322V16.3391V16.3561V16.3732V16.3903V16.4074V16.4244V16.4415V16.4586V16.4757V16.4928V16.5099V16.5269V16.544V16.5611V16.5782V16.5953V16.6124V16.6295V16.6466V16.6637V16.6808V16.6979V16.715V16.7321V16.7492V16.7663V16.7834V16.8005V16.8176V16.8347V16.8518V16.8689V16.886V16.9031V16.9203V16.9374V16.9545V16.9716V16.9887V17.0059V17.023V17.0401V17.0572V17.0744V17.0915V17.1086V17.1258V17.1429V17.16V17.1772V17.1943V17.2115V17.2286V17.2458V17.2629V17.28V17.2972V17.3143V17.3315V17.3487V17.3658V17.383V17.4001V17.4173V17.4344V17.4516V17.4688V17.4859V17.5031V17.5203V17.5375V17.5546V17.5718V17.589V17.6062V17.6234V17.6405V17.6577V17.6749V17.6921V17.7093V17.7265V17.7437V17.7609V17.7781V17.7953V17.8125V17.8297V17.8469V17.8641V17.8813V17.8985V17.9157V17.9329V17.9501V17.9674V17.9846V18.0018V18.019V18.0362V18.0535V18.0707V18.0879V18.1052V18.1224V18.1396V18.1569V18.1741V18.1914V18.2086V18.2259V18.2431V18.2604V18.2776V18.2949V18.3121V18.3294V18.3466V18.3639V18.3812V18.3984V18.4157V18.433V18.4503V18.4675V18.4848V18.5021V18.5194V18.5367V18.5539V18.5712V18.5885V18.6058V18.6231V18.6404V18.6577V18.675V18.6923V18.7096V18.7269V18.7442V18.7615V18.7789V18.7962V18.8043C5.22372 18.8056 4.95739 18.8076 4.69443 18.8096M1.84451 11.0327L4.69443 18.8096M4.69443 18.8096C3.75858 18.8169 2.86547 18.8237 1.9678 18.7924M4.69443 18.8096L1.9678 18.7924M1.9678 18.7924C1.55146 18.7778 1.30086 18.6508 1.1486 18.4821C0.991305 18.3078 0.877139 18.0206 0.874234 17.5692L1.9678 18.7924Z" fill="#00B9E1" fill-opacity="0.6" stroke="#9DEDFF" stroke-width="0.957704"/>
</svg>
