<svg width="6" height="7" viewBox="0 0 6 7" fill="none" xmlns="http://www.w3.org/2000/svg">
<path d="M3.01918 6.14979C2.68705 6.11875 2.35452 6.09026 2.02293 6.05489C1.9534 6.04751 1.88536 6.01877 1.81947 5.99332C1.72388 5.95643 1.6661 5.89359 1.66407 5.78814C1.65894 5.50942 1.49666 5.34024 1.23177 5.23936C1.05855 5.17334 0.88992 5.09689 0.719671 5.02438C0.576154 4.96332 0.502033 4.86639 0.494877 4.70992C0.490692 4.61744 0.449514 4.52038 0.402125 4.43706C0.342585 4.33237 0.333539 4.22793 0.429667 4.16165C0.743568 3.94527 0.641095 3.66592 0.591006 3.38606C0.508919 2.92722 0.440063 2.4666 0.454644 1.9986C0.480701 1.16043 0.959721 0.504162 1.79611 0.216035C2.67355 -0.0862118 3.55639 -0.0801059 4.41115 0.288925C5.16289 0.613561 5.53255 1.19846 5.57454 1.96655C5.60505 2.52486 5.5069 3.0744 5.39524 3.61975C5.35501 3.81603 5.38255 3.96575 5.54578 4.10339C5.70833 4.24027 5.70037 4.29433 5.60356 4.47598C5.56387 4.5504 5.5393 4.63868 5.53538 4.72188C5.52877 4.85774 5.46815 4.95225 5.34232 5.0086C5.16275 5.08887 4.98265 5.16901 4.79863 5.23936C4.52834 5.34278 4.36902 5.51706 4.36619 5.80009C4.36497 5.92603 4.27424 5.98849 4.16799 6.0091C3.92362 6.05667 3.67601 6.09255 3.42813 6.12015C3.29447 6.13503 3.1573 6.12282 3.02175 6.12282C3.0208 6.13173 3.01999 6.14076 3.01918 6.14979ZM1.67299 4.14384V4.14295C1.74859 4.14295 1.82433 4.1441 1.89994 4.1427C2.26447 4.13621 2.53719 3.87925 2.58701 3.51505C2.65006 3.05278 2.41514 2.88079 2.0602 2.7906C2.02577 2.78182 1.99013 2.77699 1.95489 2.77114C1.51178 2.69888 1.27214 2.82927 1.14604 3.23939C1.09257 3.41354 1.06773 3.59926 1.05909 3.78105C1.04748 4.02592 1.16426 4.13125 1.42213 4.14308C1.50557 4.14715 1.58928 4.14384 1.67299 4.14384ZM4.35188 4.14448V4.14651C4.42357 4.14651 4.49526 4.14702 4.56695 4.14626C4.59881 4.14601 4.63081 4.14486 4.6624 4.14168C4.83819 4.12425 4.93958 4.04984 4.95889 3.88586C4.99763 3.55767 4.9439 3.24245 4.74705 2.96132C4.64836 2.82037 4.5043 2.74862 4.32082 2.75727C4.2571 2.76033 4.19283 2.75804 4.12992 2.7658C3.72488 2.81592 3.34942 2.98065 3.44757 3.53146C3.51116 3.88803 3.76633 4.1661 4.19661 4.14461C4.24819 4.14232 4.30017 4.14448 4.35188 4.14448ZM3.01581 4.66171C3.15095 4.77289 3.3077 4.77391 3.46256 4.77174C3.54626 4.7706 3.55842 4.7061 3.53708 4.64873C3.43285 4.36773 3.29177 4.10441 3.09263 3.87136C3.04618 3.81705 2.99258 3.8089 2.9433 3.86615C2.74092 4.10174 2.59768 4.36811 2.49345 4.65319C2.47239 4.71106 2.48953 4.77289 2.57378 4.77225C2.7281 4.77111 2.88552 4.77429 3.01581 4.66171Z" fill="white"/>
</svg>
