<svg width="8" height="7" viewBox="0 0 8 7" fill="none" xmlns="http://www.w3.org/2000/svg">
<path fill-rule="evenodd" clip-rule="evenodd" d="M1.59569 1.77563C0.0634987 3.86157 1.49001 6.80328 4.06789 6.8737C6.76997 6.94751 8.32741 3.82145 6.64865 1.69364C5.36882 0.0714686 2.81701 0.112873 1.59569 1.77563ZM2.71673 1.7934C4.28332 0.609292 6.5199 1.72166 6.51964 3.6848C6.51937 5.85118 3.87791 6.8794 2.40669 5.28583C1.46001 4.26043 1.60439 2.63417 2.71673 1.7934ZM3.663 3.4142C3.4342 3.86672 3.8366 4.35582 4.32282 4.21622C4.52049 4.15946 4.69076 3.94645 4.70919 3.73292C4.71412 3.67569 4.77416 3.57549 5.1283 3.03348C5.53983 2.40365 5.56723 2.35406 5.52633 2.31315C5.48533 2.27215 5.435 2.29995 4.80517 2.71126C4.2655 3.06367 4.16238 3.12548 4.10595 3.13035C3.94226 3.14447 3.7309 3.27992 3.663 3.4142Z" fill="white"/>
</svg>
