<svg width="20" height="20" viewBox="0 0 20 20" fill="none" xmlns="http://www.w3.org/2000/svg">
<path d="M0.164916 13.801L1.40288 13.801L1.40288 16.2815L2.64315 16.2815L2.64315 17.5218L3.88342 17.5218L3.88342 18.762L6.36396 18.762L6.36396 20L13.801 20L13.801 18.762L16.2815 18.762L16.2815 17.5218L17.5218 17.5218L17.5218 16.2815L18.762 16.2815L18.762 13.801L20 13.801L20 6.36396L18.762 6.36396L18.762 3.88342L17.5218 3.88342L17.5218 2.64315L16.2815 2.64315L16.2815 1.40288L13.801 1.40288L13.801 0.164917L6.36396 0.164917L6.36396 1.40288L3.88342 1.40288L3.88342 2.64315L2.64315 2.64315L2.64315 3.88342L1.40288 3.88342L1.40288 6.36396L0.164916 6.36396L0.164916 13.801Z" fill="#063575"/>
<path d="M1.40284 13.801L2.64311 13.801L2.64311 16.2815L3.88338 16.2815L3.88338 17.5218L6.36392 17.5218L6.36392 18.762L13.8009 18.762L13.8009 17.5218L16.2815 17.5218L16.2815 16.2815L17.5217 16.2815L17.5217 13.801L18.762 13.801L18.762 6.36396L17.5217 6.36396L17.5217 3.88342L16.2815 3.88342L16.2815 2.64315L13.8009 2.64315L13.8009 1.40288L6.36392 1.40288L6.36392 2.64315L3.88338 2.64315L3.88338 3.88342L2.64311 3.88342L2.64311 6.36396L1.40284 6.36396L1.40284 13.801Z" fill="#3CCCFF"/>
<path d="M5.12382 15.0412L6.36409 15.0412L6.36409 16.2815L5.12382 16.2815L5.12382 15.0412ZM5.12382 3.88343L6.36409 3.88343L6.36409 5.1237L5.12382 5.1237L5.12382 3.88343Z" fill="#063575"/>
<path d="M3.88355 5.12372L5.12382 5.12372L5.12382 6.36399L3.88355 6.36399L3.88355 5.12372Z" fill="#063575"/>
<path d="M2.64325 6.36399L3.88352 6.36399L3.88352 13.8033L2.64325 13.8033L2.64325 6.36399Z" fill="#063575"/>
<path d="M3.88355 13.801L5.12382 13.801L5.12382 15.0413L3.88355 15.0413L3.88355 13.801ZM6.36409 2.64318L13.8034 2.64318L13.8034 3.88345L6.36409 3.88345L6.36409 2.64318Z" fill="#063575"/>
<path d="M15.0414 5.12369L16.2816 5.12369L16.2816 6.36396L15.0414 6.36396L15.0414 5.12369ZM15.0414 13.801L16.2816 13.801L16.2816 15.0412L15.0414 15.0412L15.0414 13.801Z" fill="#8AFFFF"/>
<path d="M16.2816 6.36396L17.5219 6.36396L17.5219 13.8033L16.2816 13.8033L16.2816 6.36396ZM6.36409 16.2815L13.8034 16.2815L13.8034 17.5218L6.36409 17.5218L6.36409 16.2815Z" fill="#8AFFFF"/>
<path d="M13.8011 15.0412L15.0414 15.0412L15.0414 16.2815L13.8011 16.2815L13.8011 15.0412ZM13.8011 3.88342L15.0414 3.88342L15.0414 5.12369L13.8011 5.12369L13.8011 3.88342Z" fill="#8AFFFF"/>
<path d="M15.0412 6.36396L15.0412 5.12369L13.801 5.12369L13.801 3.88342L6.36395 3.88342L6.36395 5.12369L5.12368 5.12369L5.12368 6.36396L3.88341 6.36396L3.88341 13.8033L5.12368 13.8033L5.12368 15.0435L6.36395 15.0435L6.36395 16.2838L13.801 16.2838L13.801 15.0435L15.0412 15.0435L15.0412 13.801L16.2815 13.801L16.2815 6.36165L15.0412 6.36165L15.0412 6.36396Z" fill="#3CCCFF"/>
<path d="M14.0644 8.48884L14.0644 7.69433L13.2699 7.69433L13.2699 6.89982L12.4731 6.89982L12.4731 6.1053L11.6763 6.1053L11.6763 5.30848L10.8817 5.30848L10.8817 4.51397L9.2881 4.51397L9.2881 5.30848L8.49359 5.30848L8.49359 6.10299L7.69676 6.10299L7.69676 6.89751L6.90225 6.89751L6.90225 7.69433L6.10774 7.69433L6.10774 8.48884L5.31092 8.48884L5.31092 11.6715L6.10543 11.6715L6.10543 12.4683L6.89994 12.4683L6.89994 13.2628L7.69676 13.2628L7.69676 14.0574L8.48897 14.0574L8.48897 14.8542L9.28348 14.8542L9.28348 15.6487L10.8771 15.6487L10.8771 14.8542L11.6716 14.8542L11.6716 14.0597L12.4685 14.0597L12.4685 13.2652L13.263 13.2652L13.263 12.4683L14.0575 12.4683L14.0575 11.6761L14.8543 11.6761L14.8543 8.49115L14.0598 8.49115L14.0598 8.48884L14.0644 8.48884Z" fill="#063575"/>
<path d="M13.2653 8.48881L13.2653 7.6943L12.4708 7.6943L12.4708 6.89978L11.6762 6.89978L11.6762 6.10527L10.8817 6.10527L10.8817 5.30845L9.2881 5.30845L9.2881 6.10296L8.49358 6.10296L8.49358 6.89747L7.69676 6.89747L7.69676 7.6943L6.90225 7.6943L6.90225 8.48881L6.10774 8.48881L6.10774 11.6715L6.90225 11.6715L6.90225 12.4683L7.69676 12.4683L7.69676 13.2628L8.48896 13.2628L8.48896 14.0573L9.28348 14.0573L9.28348 14.8541L10.8771 14.8541L10.8771 14.0596L11.6716 14.0596L11.6716 13.2651L12.4685 13.2651L12.4685 12.4683L13.263 12.4683L13.263 11.6761L14.0575 11.6761L14.0575 8.49112L13.263 8.49112L13.263 8.48881L13.2653 8.48881Z" fill="#8AFFFF"/>
<path d="M9.28797 13.2651L10.0825 13.2651L10.0825 14.0596L9.28797 14.0596L9.28797 13.2651Z" fill="#F4EFDA"/>
<path d="M10.877 12.4706L10.0825 12.4706L10.0825 13.2651L11.6761 13.2651L11.6761 12.4706L10.877 12.4706ZM9.28794 10.877L10.0825 10.877L10.0825 11.6715L9.28794 11.6715L9.28794 10.877V10.877ZM8.48881 11.6761L9.28333 11.6761L9.28333 12.4706L8.48881 12.4706L8.48881 11.6761ZM8.48881 6.10065L9.28333 6.10065L9.28333 6.89516L8.48881 6.89516L8.48881 6.10065ZM9.28794 5.30614L10.0825 5.30614L10.0825 6.10065L9.28794 6.10065L9.28794 5.30614ZM10.0825 6.89978L10.877 6.89978L10.877 7.69429L10.0825 7.69429L10.0825 6.89978Z" fill="#F4EFDA"/>
<path d="M11.6762 12.4706L12.4707 12.4706L12.4707 13.2651L11.6762 13.2651L11.6762 12.4706Z" fill="#3CCCFF"/>
<path d="M12.4704 11.6761L13.2649 11.6761L13.2649 12.4706L12.4704 12.4706L12.4704 11.6761ZM13.2649 10.8769L14.0594 10.8769L14.0594 11.6715L13.2649 11.6715L13.2649 10.8769Z" fill="#3CCCFF"/>
<path d="M10.0823 13.2651L10.0823 14.8587L10.8768 14.8587L10.8768 14.0642L11.6713 14.0642L11.6713 13.2697L10.0823 13.2651V13.2651ZM12.4704 11.6761L12.4704 10.8816L11.6759 10.8816L11.6759 10.0824L10.0823 10.0824L10.0823 11.6761L9.28777 11.6761L9.28777 12.4706L11.6759 12.4706L11.6759 11.6761L12.4704 11.6761ZM8.48864 13.2651L8.48864 14.0596L9.28315 14.0596L9.28315 12.466L8.48864 12.466L8.48864 13.2651Z" fill="#3CCCFF"/>
<path d="M7.69425 11.6761L8.48876 11.6761L8.48876 12.4706L7.69425 12.4706L7.69425 11.6761ZM7.69425 10.0824L7.69425 10.877L9.28789 10.877L9.28789 10.0824L10.0824 10.0824L10.0824 9.28794L10.8769 9.28794L10.8769 8.49342L10.0824 8.49342L10.0824 6.10296L9.28789 6.10296L9.28789 6.89747L8.49338 6.89747L8.49338 7.69198L7.69656 7.69198L7.69656 8.4888L6.90204 8.4888L6.90204 9.28332L7.69656 9.28332L7.69656 10.0824L7.69425 10.0824Z" fill="#3CCCFF"/>
<path d="M6.8997 10.8769L7.69422 10.8769L7.69422 11.6715L6.8997 11.6715L6.8997 10.8769Z" fill="#3CCCFF"/>
<path d="M6.89961 9.28794L6.1051 9.28794L6.1051 10.8816L6.89961 10.8816L6.89961 9.28794ZM14.0641 10.0824L14.0641 9.28794L13.2696 9.28794L13.2696 8.49343L12.4727 8.49343L12.4727 6.89978L11.6759 6.89978L11.6759 6.10527L10.8814 6.10527L10.8814 8.49343L11.6759 8.49343L11.6759 10.0871L12.4704 10.0871L12.4704 10.8816L13.2649 10.8816L13.2649 10.0824L14.0641 10.0824ZM10.0823 5.30614L10.8768 5.30614L10.8768 6.10065L10.0823 6.10065L10.0823 5.30614Z" fill="#3CCCFF"/>
<path d="M10.0826 14.0643L10.8771 14.0643L10.8771 14.8588L10.0826 14.8588L10.0826 14.0643ZM10.8771 13.2651L11.6716 13.2651L11.6716 14.0596L10.8771 14.0596L10.8771 13.2651ZM11.6763 12.4706L12.4708 12.4706L12.4708 13.2651L11.6763 13.2651L11.6763 12.4706Z" fill="#2AA5FF"/>
<path d="M12.4705 11.6761L13.265 11.6761L13.265 12.4706L12.4705 12.4706L12.4705 11.6761ZM13.265 10.877L14.0595 10.877L14.0595 11.6715L13.265 11.6715L13.265 10.877ZM10.8768 10.877L10.0823 10.877L10.0823 12.4706L10.8768 12.4706L10.8768 11.6761L11.6713 11.6761L11.6713 10.0825L10.8768 10.0825L10.8768 10.877ZM10.0823 7.69432L10.0823 6.10068L9.2878 6.10068L9.2878 6.89519L8.49329 6.89519L8.49329 7.69201L10.0823 7.69201L10.0823 7.69432ZM8.48867 12.4706L9.28318 12.4706L9.28318 13.2651L8.48867 13.2651L8.48867 12.4706Z" fill="#2AA5FF"/>
<path d="M7.69425 11.6761L8.48876 11.6761L8.48876 12.4706L7.69425 12.4706L7.69425 11.6761ZM8.48876 7.69432L7.69425 7.69432L7.69425 8.48883L6.89973 8.48883L6.89973 9.28334L7.69425 9.28334L7.69425 10.877L9.28789 10.877L9.28789 9.28334L8.49338 9.28334L8.48876 7.69432V7.69432Z" fill="#2AA5FF"/>
<path d="M6.89973 10.8769L7.69425 10.8769L7.69425 11.6715L6.89973 11.6715L6.89973 10.8769ZM11.676 6.89977L11.676 6.10525L10.8815 6.10525L10.8815 8.49341L11.676 8.49341L11.676 6.89977V6.89977Z" fill="#2AA5FF"/>
<path d="M14.0644 10.0824L14.0644 9.28793L12.4708 9.28793L12.4708 8.49342L11.6762 8.49342L11.6762 10.0871L12.4708 10.0871L12.4708 10.8816L13.2653 10.8816L13.2653 10.0824L14.0644 10.0824Z" fill="#2AA5FF"/>
<g opacity="0.6">
<path d="M0.164917 13.7954L1.40288 13.7954L1.40288 16.276L2.64315 16.276L2.64315 17.5162L3.88342 17.5162L3.88342 18.7565L6.36396 18.7565L6.36396 19.9945L13.801 19.9945L13.801 18.7565L16.2815 18.7565L16.2815 17.5162L17.5218 17.5162L17.5218 16.276L18.762 16.276L18.762 13.7954L20 13.7954L20 6.35842L18.762 6.35842L18.762 3.87788L17.5218 3.87788L17.5218 2.63761L16.2815 2.63761L16.2815 1.39734L13.801 1.39734L13.801 0.159384L6.36396 0.159384L6.36396 1.39734L3.88342 1.39734L3.88342 2.63761L2.64315 2.63761L2.64315 3.87788L1.40288 3.87788L1.40288 6.35842L0.164917 6.35842L0.164917 13.7954Z" fill="#8AFFFF"/>
<path d="M1.40288 13.7954L2.64311 13.7954L2.64315 16.276L3.88338 16.276L3.88342 17.5162L6.36392 17.5162L6.36396 18.7565L13.801 18.7565L13.8009 17.5162L16.2815 17.5162L16.2815 16.276L17.5218 16.276L17.5217 13.7954L18.762 13.7954L18.762 6.35842L17.5217 6.35842L17.5218 3.87788L16.2815 3.87788L16.2815 2.63761L13.8009 2.63761L13.801 1.39734L6.36396 1.39734L6.36392 2.63761L3.88342 2.63761L3.88338 3.87788L2.64315 3.87788L2.64311 6.35842L1.40288 6.35842L1.40288 13.7954Z" fill="#8AFFFF"/>
<path d="M5.12382 15.0357L6.36409 15.0357L6.36409 16.276L5.12382 16.276L5.12382 15.0357ZM5.12382 3.87788L6.36409 3.87788L6.36409 5.11815L5.12382 5.11815L5.12382 3.87788Z" fill="#8AFFFF"/>
<path d="M3.88355 5.11818L5.12382 5.11815L5.12382 6.35845L3.88355 6.35845L3.88355 5.11818Z" fill="#8AFFFF"/>
<path d="M2.64311 6.35842L3.88355 6.35845L3.88352 13.7978L2.64325 13.7978L2.64311 6.35842Z" fill="#8AFFFF"/>
<path d="M3.88355 13.7954L5.12382 13.7954L5.12382 15.0357L3.88355 15.0357L3.88355 13.7954ZM6.36392 2.63761L13.8034 2.63764L13.8034 3.87791L6.36409 3.87788L6.36392 2.63761Z" fill="#8AFFFF"/>
<path d="M15.0414 5.11816L16.2816 5.11816L16.2816 6.35842L15.0414 6.35842L15.0414 5.11816ZM15.0414 13.7954L16.2816 13.7954L16.2816 15.0357L15.0414 15.0357L15.0414 13.7954Z" fill="#8AFFFF"/>
<path d="M16.2816 6.35842L17.5217 6.35842L17.5219 13.7977L16.2816 13.7977L16.2816 6.35842ZM6.36409 16.276L13.8034 16.276L13.8034 17.5162L6.36392 17.5162L6.36409 16.276Z" fill="#8AFFFF"/>
<path d="M13.8011 15.0357L15.0414 15.0357L15.0414 16.276L13.8011 16.276L13.8011 15.0357ZM13.8011 3.87788L15.0414 3.87788L15.0414 5.11816L13.8011 5.11815L13.8011 3.87788Z" fill="#8AFFFF"/>
<path d="M15.0414 6.35842L15.0414 5.11816L13.8011 5.11815L13.8011 3.87788L6.36409 3.87788L6.36409 5.11815L5.12382 5.11815L5.12382 6.35845L3.88355 6.35845L3.88352 13.7978L5.12368 13.7977L5.12368 15.038L6.36395 15.038L6.36395 16.2783L13.801 16.2783L13.801 15.038L15.0412 15.038L15.0414 13.7954L16.2816 13.7954L16.2815 6.35611L15.0412 6.35611L15.0414 6.35842Z" fill="#8AFFFF"/>
<path d="M14.0644 8.4833L14.0644 7.68879L13.2699 7.68879L13.2699 6.89428L12.4731 6.89428L12.4731 6.09976L11.6763 6.09976L11.6763 5.30294L10.8817 5.30294L10.8817 4.50843L9.2881 4.50843L9.2881 5.30294L8.49359 5.30294L8.49359 6.09745L7.69676 6.09745L7.69676 6.89197L6.90225 6.89197L6.90225 7.68879L6.10774 7.68879L6.10774 8.4833L5.31092 8.4833L5.31092 11.666L6.10543 11.666L6.10543 12.4628L6.89994 12.4628L6.89994 13.2573L7.69676 13.2573L7.69676 14.0518L8.48897 14.0518L8.48897 14.8486L9.28348 14.8486L9.28348 15.6431L10.8771 15.6431L10.8771 14.8486L11.6716 14.8486L11.6716 14.0541L12.4685 14.0541L12.4685 13.2596L13.263 13.2596L13.263 12.4628L14.0575 12.4628L14.0575 11.6706L14.8543 11.6706L14.8543 8.48561L14.0598 8.48561L14.0598 8.4833L14.0644 8.4833Z" fill="#8AFFFF"/>
<path d="M13.2653 8.48327L13.2653 7.68876L12.4708 7.68876L12.4708 6.89425L11.6763 6.89425L11.6763 6.09976L10.8817 6.09973L10.8817 5.30294L9.2881 5.30294L9.2881 6.09742L8.49359 6.09745L8.49358 6.89194L7.69676 6.89197L7.69676 7.68876L6.90225 7.68879L6.90225 8.48327L6.10774 8.4833L6.10774 10.0769L6.90225 10.0769L6.90225 10.8714L6.10774 10.8714L6.10774 11.6659L6.90225 11.6659L6.90225 12.4628L7.69676 12.4628L7.69676 13.2573L8.48897 13.2573L8.48897 14.0518L9.28348 14.0518L9.28348 14.8486L10.8771 14.8486L10.8771 14.0541L10.0826 14.0541L10.0826 13.2596L10.8771 13.2596L10.8771 14.0541L11.6716 14.0541L11.6716 13.2596L12.4685 13.2596L12.4685 12.4628L11.6763 12.4628L11.6763 11.6706L10.8817 11.6706L10.8817 12.4651L10.0826 12.4651L10.0826 10.8714L11.6763 10.8714L11.6763 11.6659L12.4708 11.6659L12.4708 12.4628L13.2653 12.4628L13.2653 11.6706L14.0598 11.6706L14.0598 10.876L12.4661 10.876L12.4661 10.0769L14.0598 10.0769L14.0598 8.4833L13.2653 8.48327ZM7.69445 10.0769L8.48897 10.0769L8.48897 11.6706L7.69445 11.6706L7.69445 10.0769Z" fill="#8AFFFF"/>
<path d="M10.0826 10.8714L10.8771 10.8714L10.8771 9.27777L10.0826 9.27777L10.0826 10.8714Z" fill="#8AFFFF"/>
<path d="M9.28798 8.48329L7.69433 8.48329L7.69433 9.27781L10.0826 9.27777L10.0825 7.68416L9.28798 7.68416L9.28798 8.48329ZM9.28798 5.30063L10.0825 5.30063L10.0825 6.09514L9.28798 6.09514L9.28798 5.30063Z" fill="#8AFFFF"/>
<path d="M10.0826 6.89424L10.0826 7.68875L11.6762 7.68875L11.6763 6.89425L10.0826 6.89424ZM10.8771 8.48326L11.6716 8.48326L11.6716 9.27778L10.8771 9.27777L10.8771 8.48326ZM12.4708 7.68876L12.4707 9.2824L13.2653 9.2824L13.2653 7.68876L12.4708 7.68876Z" fill="#8AFFFF"/>
<path d="M11.6763 11.6706L10.8817 11.6706L10.8817 12.4651L10.0826 12.4651L10.0822 11.6706L9.28764 11.6706L9.28764 10.8761L10.0822 10.8761L10.0822 9.28244L7.694 9.28244L7.69445 10.0769L8.48897 10.0769L8.48897 11.6706L7.69445 11.6706L7.69445 10.0769L6.89948 10.077L6.89948 10.8715L6.10497 10.8715L6.10543 11.666L6.89948 11.666L6.89994 12.4628L7.694 12.4628L7.694 13.2573L8.48897 13.2573L8.48851 12.4628L9.28302 12.4628L9.28302 13.2573L8.48897 13.2573L8.48897 14.0518L9.28348 14.0518L9.28348 14.8486L10.8771 14.8486L10.8771 14.0541L10.0826 14.0541L10.0826 13.2596L10.8771 13.2596L10.8771 14.0541L11.6716 14.0541L11.6716 13.2596L12.4685 13.2596L12.4685 12.4628L11.6763 12.4628L11.6763 11.6706Z" fill="#8AFFFF"/>
<path d="M11.6757 10.0769L11.6763 11.6706L12.4702 11.6706L12.4702 12.4651L13.2648 12.4651L13.2653 11.6706L14.0575 11.6706L14.0598 10.876L12.4661 10.876L12.4661 10.0769L11.6757 10.0769ZM8.48845 7.68878L10.0826 7.68875L10.0826 6.89424L7.69393 6.89426L7.69393 8.48791L8.48845 8.48791L8.48845 7.68878Z" fill="#8AFFFF"/>
<path d="M7.694 9.28244L7.69393 8.48791L6.10029 8.48793L6.10029 10.0816L6.89481 10.0816L6.89481 9.28706L7.69163 9.28706L7.69163 9.28244L7.694 9.28244ZM10.0822 9.28244L10.8766 9.28244L10.8766 7.6888L10.0826 7.68875L10.0822 9.28244Z" fill="#8AFFFF"/>
<path d="M10.8766 9.28244L11.671 9.28242L11.671 10.0769L10.8765 10.0769L10.8766 9.28244ZM11.6756 8.48329L12.4702 8.48329L12.4702 9.2778L11.6756 9.2778L11.6756 8.48329ZM14.0598 10.0769L14.0592 9.28242L12.4655 9.28242L12.4661 10.0769L14.0598 10.0769ZM11.6763 6.89425L12.4708 6.89425L12.4708 7.68876L11.6762 7.68875L11.6763 6.89425Z" fill="#8AFFFF"/>
<path d="M11.6763 6.89425L11.6763 6.09976L10.082 6.09976L10.0826 6.89424L11.6763 6.89425Z" fill="#8AFFFF"/>
<path d="M13.2651 10.8714L12.4706 10.8714L12.4702 12.4651L13.2648 12.4651L13.2653 11.6706L14.0575 11.6706L14.0598 10.876L13.2651 10.8761L13.2651 10.8714ZM10.8769 12.4651L10.0826 12.4651L10.0822 11.6706L9.28764 11.6706L9.28764 10.8761L10.0822 10.8761L10.0822 9.28244L7.694 9.28244L7.69445 10.0769L8.48897 10.0769L8.48897 11.6706L7.69445 11.6706L7.69445 10.0769L6.89948 10.077L6.89948 10.8715L6.10497 10.8715L6.10543 11.666L6.89948 11.666L6.89994 12.4628L7.694 12.4628L7.694 13.2573L8.48897 13.2573L8.48851 12.4628L9.28302 12.4628L9.28302 13.2573L8.48897 13.2573L8.48897 14.0518L9.28348 14.0518L9.28348 14.8486L10.8771 14.8486L10.8771 14.0541L10.0826 14.0541L10.0826 13.2596L10.8771 13.2596L10.8771 14.0541L11.6716 14.0541L11.6716 13.2596L12.4685 13.2596L12.4685 12.4628L10.8769 12.4628L10.8769 12.4651ZM8.49338 6.89427L8.49338 7.68878L10.087 7.68878L10.087 6.89427L8.49338 6.89427Z" fill="#8AFFFF"/>
<path d="M6.89961 8.48326L6.1051 8.48326L6.1051 10.0769L6.89948 10.077L6.89961 8.48326ZM10.8771 8.48326L10.8766 7.6888L10.0826 7.68875L10.0822 9.28244L10.8766 9.28244L10.8771 8.48326ZM10.0825 6.09514L10.8768 6.09511L10.8768 6.88962L10.0823 6.88962L10.0825 6.09514ZM11.6756 8.48329L12.4702 8.48329L12.4702 9.2778L11.6756 9.2778L11.6756 8.48329Z" fill="#8AFFFF"/>
<path d="M10.0826 13.2596L8.48839 13.2596L8.48839 14.0541L9.2829 14.0541L9.2829 14.8509L10.8765 14.8509L10.8765 14.0564L10.082 14.0564L10.0826 13.2596ZM10.8771 13.2596L11.6716 13.2596L11.6716 14.0541L10.8771 14.0541L10.8771 13.2596ZM11.6757 12.4651L12.4702 12.4651L12.4685 13.2596L11.6757 13.2596L11.6757 12.4651Z" fill="#8AFFFF"/>
<path d="M12.4702 11.6706L13.2653 11.6706L13.2648 12.4651L12.4702 12.4651L12.4702 11.6706ZM13.2651 10.8714L14.0592 10.8714L14.0592 11.6659L13.2647 11.6659L13.2651 10.8714ZM10.0826 12.4651L10.8769 12.4651L10.8771 13.2596L10.0826 13.2596L10.0826 12.4651Z" fill="#8AFFFF"/>
<path d="M9.28764 11.6706L10.0822 11.6706L10.0826 12.4651L9.28758 12.4651L9.28764 11.6706ZM9.28758 10.8714L10.0826 10.8714L10.0826 9.27777L7.69433 9.27781L7.69445 10.0769L8.48897 10.0769L8.48897 11.6706L9.28296 11.6705L9.28296 10.8737L9.28758 10.8737L9.28758 10.8714Z" fill="#8AFFFF"/>
<path d="M8.48897 11.6706L7.69445 11.6706L7.69406 10.876L6.10042 10.876L6.10042 11.6705L6.89493 11.6705L6.89493 12.4651L7.69175 12.4651L7.69175 13.2596L8.48839 13.2596L8.48897 11.6706ZM6.10042 8.48326L6.89493 8.48326L6.89493 9.27777L6.10042 9.27777L6.10042 8.48326ZM10.0822 8.48326L10.8771 8.48326L10.8771 9.27777L10.0826 9.27777L10.0822 8.48326Z" fill="#8AFFFF"/>
<path d="M9.28798 10.0769L10.0825 10.0769L10.0826 10.8714L9.28758 10.8714L9.28798 10.0769ZM7.694 9.28244L8.48885 9.28241L8.48897 10.0769L7.69445 10.0769L7.694 9.28244ZM6.10042 8.48326L6.89493 8.48326L6.89493 9.27777L6.10042 9.27777L6.10042 8.48326Z" fill="#8AFFFF"/>
<path d="M10.0826 12.4651L10.8769 12.4651L10.8771 13.2596L10.0826 13.2596L10.0826 12.4651Z" fill="#8AFFFF"/>
<path d="M9.28764 11.6706L10.0822 11.6706L10.0826 12.4651L9.28758 12.4651L9.28764 11.6706ZM9.28798 10.0769L10.0825 10.0769L10.0822 9.28244L8.48885 9.28241L8.48897 11.6706L9.28296 11.6705L9.28798 10.0769ZM10.0822 8.48326L10.8771 8.48326L10.8771 9.27777L10.0826 9.27777L10.0822 8.48326Z" fill="#8AFFFF"/>
<path d="M9.28752 14.0587L10.082 14.0587L10.082 14.8532L9.28752 14.8532L9.28752 14.0587ZM8.48839 13.2596L9.2829 13.2596L9.2829 14.0541L8.48839 14.0541L8.48839 13.2596Z" fill="#8AFFFF"/>
<path d="M7.69393 12.4651L8.48845 12.4651L8.48839 13.2596L7.69393 13.2596L7.69393 12.4651Z" fill="#8AFFFF"/>
<path d="M6.89955 11.6706L7.69445 11.6706L7.69393 12.4651L6.89955 12.4651L6.89955 11.6706ZM6.10042 10.8714L6.89493 10.8714L6.89493 11.6659L6.10042 11.6659L6.10042 10.8714Z" fill="#8AFFFF"/>
</g>
</svg>
