<svg width="31" height="45" viewBox="0 0 31 45" fill="none" xmlns="http://www.w3.org/2000/svg">
<rect x="8.60022" y="9.16101" width="2.2399" height="2.2399" fill="#8B651A"/>
<rect x="5.5083" y="11.2372" width="8.8285" height="5.04486" fill="#8B651A"/>
<rect x="13.0802" y="8.71265" width="4.47981" height="4.92779" fill="#8B651A"/>
<rect x="17.5602" y="6.47327" width="4.47981" height="4.92779" fill="#8B651A"/>
<rect x="10.8402" y="9.16101" width="2.2399" height="2.2399" fill="#8B651A"/>
<rect x="15.3202" y="6.92053" width="2.2399" height="2.2399" fill="#8B651A"/>
<rect x="15.3202" y="4.68103" width="2.2399" height="2.2399" fill="#8B651A"/>
<rect x="19.7997" y="4.68103" width="2.2399" height="2.2399" fill="#CD9541"/>
<rect x="24.2797" y="6.92053" width="2.2399" height="2.2399" fill="#8B651A"/>
<rect x="22.0402" y="6.92053" width="2.2399" height="2.2399" fill="#CD9541"/>
<rect x="1.88123" y="6.92102" width="2.2399" height="2.2399" fill="#9378FF"/>
<rect x="6.36121" y="4.68164" width="2.2399" height="2.2399" fill="#9378FF"/>
<rect x="10.8407" y="2.8894" width="2.2399" height="2.2399" fill="#9378FF"/>
<rect x="15.3207" y="0.649414" width="2.2399" height="2.2399" fill="#9378FF"/>
<rect x="4.12122" y="6.92102" width="2.2399" height="2.2399" fill="#9378FF"/>
<rect x="1.88123" y="9.16101" width="6.71971" height="2.2399" fill="#511FBC"/>
<rect x="6.36121" y="6.92102" width="6.71971" height="2.2399" fill="#511FBC"/>
<rect x="10.8407" y="4.68164" width="6.71971" height="2.2399" fill="#511FBC"/>
<rect x="15.3207" y="2.44165" width="4.47981" height="2.2399" fill="#511FBC"/>
<rect x="8.6012" y="4.68164" width="2.2399" height="2.2399" fill="#9378FF"/>
<rect x="13.0807" y="2.8894" width="2.2399" height="2.2399" fill="#9378FF"/>
<rect x="17.5607" y="0.649414" width="2.2399" height="2.2399" fill="#511FBC"/>
<rect x="28.7606" y="9.16138" width="2.2399" height="2.2399" fill="#9378FF"/>
<rect x="28.7606" y="11.4014" width="2.2399" height="2.2399" fill="#9378FF"/>
<rect x="28.7606" y="13.6414" width="2.2399" height="2.2399" fill="#9378FF"/>
<rect x="28.7606" y="15.8813" width="2.2399" height="2.2399" fill="#9378FF"/>
<rect x="28.7606" y="18.1213" width="2.2399" height="2.2399" fill="#9378FF"/>
<rect x="10.8412" y="29.3207" width="2.2399" height="2.2399" fill="#9378FF"/>
<rect x="10.8412" y="31.5608" width="2.2399" height="2.2399" fill="#9378FF"/>
<rect x="10.8412" y="33.8008" width="2.2399" height="2.2399" fill="#9378FF"/>
<rect x="10.8412" y="36.0408" width="2.2399" height="2.2399" fill="#9378FF"/>
<rect x="10.8412" y="38.2802" width="2.2399" height="2.2399" fill="#9378FF"/>
<rect x="10.8412" y="40.5201" width="2.2399" height="2.2399" fill="#9378FF"/>
<rect x="13.0812" y="42.7601" width="2.2399" height="2.2399" fill="#9378FF"/>
<rect x="10.8412" y="42.7601" width="2.2399" height="2.2399" fill="#9378FF"/>
<rect x="15.3212" y="40.5201" width="2.2399" height="2.2399" fill="#9378FF"/>
<rect x="19.8007" y="38.2802" width="2.2399" height="2.2399" fill="#9378FF"/>
<rect x="24.2806" y="36.0408" width="2.2399" height="2.2399" fill="#9378FF"/>
<rect x="28.7606" y="33.8008" width="2.2399" height="2.2399" fill="#9378FF"/>
<rect x="17.5607" y="40.5201" width="2.2399" height="2.2399" fill="#9378FF"/>
<rect x="22.0406" y="38.2802" width="2.2399" height="2.2399" fill="#9378FF"/>
<rect x="26.5206" y="36.0408" width="2.2399" height="2.2399" fill="#9378FF"/>
<rect x="13.0812" y="13.6414" width="2.2399" height="2.2399" fill="#9378FF"/>
<rect x="13.0814" y="13.6411" width="2.2399" height="2.2399" fill="#B8A7FF"/>
<rect x="17.5607" y="11.4014" width="2.2399" height="2.2399" fill="#B8A7FF"/>
<rect x="22.0406" y="9.16138" width="2.2399" height="2.2399" fill="#9378FF"/>
<rect x="26.5206" y="6.92188" width="2.2399" height="2.2399" fill="#B8A7FF"/>
<rect x="10.8412" y="15.8813" width="20.1591" height="17.9192" fill="#9378FF"/>
<rect x="10.8412" y="15.8813" width="8.95961" height="26.8788" fill="#9378FF"/>
<rect width="6.71971" height="26.4309" transform="matrix(-1 0 0 1 24.2806 13.6414)" fill="#9378FF"/>
<rect width="6.71971" height="28.2228" transform="matrix(-1 0 0 1 28.7606 9.16138)" fill="#9378FF"/>
<rect x="15.3212" y="13.6414" width="2.2399" height="2.2399" fill="#B8A7FF"/>
<rect x="19.8007" y="11.4014" width="2.2399" height="2.2399" fill="#B8A7FF"/>
<rect x="24.2806" y="9.16138" width="2.2399" height="2.2399" fill="#9378FF"/>
<rect x="28.7606" y="6.92188" width="2.2399" height="2.2399" fill="#9378FF"/>
<rect x="21.9999" y="9.24414" width="2.2399" height="2.2399" fill="#B8A7FF"/>
<rect x="10.9999" y="15.2441" width="2.2399" height="2.2399" fill="#B8A7FF"/>
<rect x="8.60095" y="15.8811" width="2.2399" height="2.2399" fill="#9378FF"/>
<rect x="6.36096" y="40.9677" width="2.2399" height="2.2399" fill="#9378FF"/>
<rect x="4.12097" y="13.6411" width="2.2399" height="2.2399" fill="#463CBB"/>
<rect x="1.88098" y="11.4016" width="1.79192" height="29.1187" fill="#463CBB"/>
<rect x="3.67322" y="11.4016" width="1.79192" height="30.4627" fill="#463CBB"/>
<rect x="9.04883" y="15.8811" width="1.79192" height="29.1187" fill="#9A6311"/>
<rect x="9.04883" y="19.0171" width="1.79192" height="12.0955" fill="#A37737"/>
<rect x="9.04883" y="19.0171" width="1.79192" height="12.0955" fill="#A37737"/>
<rect x="9.04883" y="19.0171" width="1.79192" height="12.0955" fill="#A37737"/>
<rect width="1.79192" height="5.37577" transform="matrix(1 0 0 -1 9.04883 36.4883)" fill="#A37737"/>
<rect width="1.79192" height="5.37577" transform="matrix(1 0 0 -1 9.04883 36.4883)" fill="#A37737"/>
<rect width="1.79192" height="5.37577" transform="matrix(1 0 0 -1 9.04883 36.4883)" fill="#956A2B"/>
<rect width="1.79192" height="3.58384" transform="matrix(1 0 0 -1 9.04883 25.2888)" fill="#A37737"/>
<rect width="1.79192" height="3.58384" transform="matrix(1 0 0 -1 9.04883 25.2888)" fill="#A37737"/>
<rect width="1.79192" height="3.58384" transform="matrix(1 0 0 -1 9.04883 25.2888)" fill="#CD9541"/>
<rect x="0.0893555" y="9.16162" width="1.79192" height="31.3586" fill="#6E4900"/>
<rect y="29.2441" width="2" height="9" fill="#663F04"/>
<rect x="5.46497" y="15.4332" width="3.58384" height="27.7748" fill="#463CBB"/>
<rect x="7.25708" y="17.225" width="1.79192" height="27.7748" fill="#463CBB"/>
<rect x="17.5604" y="4.68103" width="2.2399" height="2.2399" fill="#6F4900"/>
<rect x="4.12097" y="11.4016" width="2.2399" height="2.2399" fill="#9B8457"/>
<rect x="13.0811" y="6.92041" width="2.2399" height="2.2399" fill="#6F4900"/>
<rect x="9" y="14.2441" width="2.2399" height="2.2399" fill="#6F4900"/>
<rect x="3.67322" y="40.0715" width="1.79192" height="1.79192" fill="#9A6311"/>
<rect x="5.46497" y="41.8638" width="1.79192" height="1.79192" fill="#9A6311"/>
<rect x="7.25708" y="43.2076" width="1.79192" height="1.79192" fill="#9A6311"/>
<rect x="5.46509" y="19.0167" width="1.79192" height="1.79192" fill="#3D1A89"/>
<rect x="5.46509" y="17.6729" width="1.79192" height="1.79192" fill="#3D1A89"/>
<rect x="5.46509" y="15.8811" width="1.79192" height="1.79192" fill="#3D1A89"/>
<rect x="5.46509" y="14.0895" width="1.79192" height="1.79192" fill="#3D1A89"/>
<rect x="3.67285" y="17.225" width="1.79192" height="1.79192" fill="#3D1A89"/>
<rect x="3.67285" y="15.8811" width="1.79192" height="1.79192" fill="#3D1A89"/>
<rect x="3.67285" y="14.0895" width="1.79192" height="1.79192" fill="#3D1A89"/>
<rect x="3.67285" y="12.2972" width="1.79192" height="1.79192" fill="#3D1A89"/>
<rect x="1.88123" y="16.8811" width="1.79192" height="1.79192" fill="#3D1A89"/>
<rect x="1.88123" y="14.5372" width="1.79192" height="1.79192" fill="#3D1A89"/>
<rect x="1.88123" y="12.7456" width="1.79192" height="1.79192" fill="#3D1A89"/>
<rect x="1.88123" y="10.9534" width="1.79192" height="1.79192" fill="#3D1A89"/>
<rect x="7.25684" y="20.3611" width="1.79192" height="1.79192" fill="#3D1A89"/>
<rect x="7.25684" y="19.0167" width="1.79192" height="1.79192" fill="#3D1A89"/>
<rect x="7.25684" y="17.225" width="1.79192" height="1.79192" fill="#3D1A89"/>
<rect x="7.25684" y="15.4329" width="1.79192" height="1.79192" fill="#3D1A89"/>
<rect x="5.46509" y="41.8639" width="1.79192" height="1.79192" fill="#6E4900"/>
<rect x="5.46509" y="40.52" width="1.79192" height="1.79192" fill="#9A6311"/>
<rect x="5.46509" y="38.7284" width="1.79192" height="1.79192" fill="#9A6311"/>
<rect x="5.46509" y="36.9362" width="1.79192" height="1.79192" fill="#CD9541"/>
<rect x="3.67285" y="40.0717" width="1.79192" height="1.79192" fill="#6E4900"/>
<rect x="3.67285" y="38.7284" width="1.79192" height="1.79192" fill="#9A6311"/>
<rect x="3.67285" y="36.9362" width="1.79192" height="1.79192" fill="#9A6311"/>
<rect x="3.67285" y="35.1439" width="1.79192" height="1.79192" fill="#A37737"/>
<rect x="1.88123" y="38.7284" width="1.79192" height="1.79192" fill="#9A6311"/>
<rect x="1.88123" y="39.3845" width="1.79192" height="1.79192" fill="#6E4900"/>
<rect x="1.99988" y="35.2444" width="2" height="4" fill="#9A6311"/>
<rect x="1.88123" y="33.8" width="1.79192" height="1.79192" fill="#A37737"/>
<rect x="7.25684" y="43.2078" width="1.79192" height="1.79192" fill="#6E4900"/>
<rect x="8.25671" y="43.2078" width="1.79192" height="1.79192" fill="#6E4900"/>
<rect x="7.25684" y="41.8639" width="1.79192" height="1.79192" fill="#9A6311"/>
<rect x="7.25684" y="40.0717" width="1.79192" height="1.79192" fill="#9A6311"/>
<rect x="7.25684" y="38.2795" width="1.79192" height="1.79192" fill="#A37737"/>
<rect x="5.46509" y="17.225" width="1.79192" height="1.79192" fill="#9A6311"/>
<rect x="5.46509" y="15.8811" width="1.79192" height="1.79192" fill="#9A6311"/>
<rect x="5.46509" y="14.0895" width="1.79192" height="1.79192" fill="#9A6311"/>
<rect x="5.46521" y="13.2976" width="1.79192" height="1.79192" fill="#CD9541"/>
<rect x="3.67285" y="15.4333" width="1.79192" height="1.79192" fill="#9A6311"/>
<rect x="3.67285" y="14.0895" width="1.79192" height="1.79192" fill="#9A6311"/>
<rect x="3.67285" y="12.2977" width="1.79192" height="1.79192" fill="#9A6311"/>
<rect x="3.67273" y="12.5054" width="1.79192" height="1.79192" fill="#CD9541"/>
<rect x="1.99988" y="14.2444" width="2" height="3" fill="#9A6311"/>
<rect x="1.88123" y="12.7455" width="1.79192" height="1.79192" fill="#9A6311"/>
<rect x="1.88123" y="10.9539" width="1.79192" height="1.79192" fill="#9A6311"/>
<rect x="1.88123" y="10.1619" width="1.79192" height="1.79192" fill="#CD9541"/>
<rect x="7.25684" y="18.5695" width="1.79192" height="1.79192" fill="#9A6311"/>
<rect x="7.25684" y="17.225" width="1.79192" height="1.79192" fill="#9A6311"/>
<rect x="7.25684" y="15.4333" width="1.79192" height="1.79192" fill="#9A6311"/>
<rect x="7.25684" y="14.0895" width="1.79192" height="1.79192" fill="#CD9541"/>
<rect x="9.04895" y="15.8811" width="1.79192" height="1.79192" fill="#CD9541"/>
<rect x="5.46509" y="31.5593" width="1.79192" height="1.79192" fill="#3D1A89"/>
<rect x="5.46509" y="30.2155" width="1.79192" height="1.79192" fill="#3D1A89"/>
<rect x="5.46509" y="28.4237" width="1.79192" height="1.79192" fill="#3D1A89"/>
<rect x="5.46509" y="26.6321" width="1.79192" height="1.79192" fill="#3D1A89"/>
<rect x="3.67346" y="29.7676" width="1.79192" height="1.79192" fill="#3D1A89"/>
<rect x="3.67346" y="28.4237" width="1.79192" height="1.79192" fill="#3D1A89"/>
<rect x="3.67346" y="26.6321" width="1.79192" height="1.79192" fill="#3D1A89"/>
<rect x="3.67346" y="24.8398" width="1.79192" height="1.79192" fill="#3D1A89"/>
<rect x="1.88123" y="28.4237" width="1.79192" height="1.79192" fill="#3D1A89"/>
<rect x="1.88123" y="27.0798" width="1.79192" height="1.79192" fill="#3D1A89"/>
<rect x="1.88123" y="25.2882" width="1.79192" height="1.79192" fill="#3D1A89"/>
<rect x="1.88123" y="23.496" width="1.79192" height="1.79192" fill="#3D1A89"/>
<rect x="7.25684" y="32.9037" width="1.79192" height="1.79192" fill="#3D1A89"/>
<rect x="7.25684" y="31.5593" width="1.79192" height="1.79192" fill="#3D1A89"/>
<rect x="7.25684" y="29.7676" width="1.79192" height="1.79192" fill="#3D1A89"/>
<rect x="7.25684" y="27.9755" width="1.79192" height="1.79192" fill="#3D1A89"/>
<rect x="5.46509" y="29.7676" width="1.79192" height="1.79192" fill="#9A6311"/>
<rect x="5.46509" y="28.4237" width="1.79192" height="1.79192" fill="#9A6311"/>
<rect x="5.46509" y="26.632" width="1.79192" height="1.79192" fill="#9A6311"/>
<rect x="5.46509" y="24.8398" width="1.79192" height="1.79192" fill="#CD9541"/>
<rect x="3.67285" y="27.9758" width="1.79192" height="1.79192" fill="#9A6311"/>
<rect x="3.67285" y="26.632" width="1.79192" height="1.79192" fill="#9A6311"/>
<rect x="3.67285" y="24.8398" width="1.79192" height="1.79192" fill="#9A6311"/>
<rect x="3.67285" y="23.0481" width="1.79192" height="1.79192" fill="#CD9541"/>
<rect x="1.88123" y="26.632" width="1.79192" height="1.79192" fill="#9A6311"/>
<rect x="1.88123" y="25.2881" width="1.79192" height="1.79192" fill="#9A6311"/>
<rect x="1.88123" y="23.4965" width="1.79192" height="1.79192" fill="#9A6311"/>
<rect x="1.88123" y="21.7042" width="1.79192" height="1.79192" fill="#A37737"/>
<rect x="7.25684" y="31.1119" width="1.79192" height="1.79192" fill="#9A6311"/>
<rect x="7.25684" y="29.7676" width="1.79192" height="1.79192" fill="#9A6311"/>
<rect x="7.25684" y="27.9758" width="1.79192" height="1.79192" fill="#9A6311"/>
<rect x="7.25684" y="26.1837" width="1.79192" height="1.79192" fill="#A37737"/>
<rect x="27.0183" y="18.1217" width="1.74215" height="1.74215" fill="#6749A7"/>
<rect x="27.0183" y="19.8633" width="1.74215" height="1.74215" fill="#6749A7"/>
<rect x="13.0809" y="28.5732" width="1.74215" height="1.74215" fill="#6749A7"/>
<rect x="13.0809" y="30.3164" width="1.74215" height="1.74215" fill="#6749A7"/>
<rect x="13.0809" y="32.0579" width="1.74215" height="1.74215" fill="#6749A7"/>
<rect x="13.0809" y="33.8005" width="1.74215" height="1.74215" fill="#6749A7"/>
<rect x="13.0809" y="35.5421" width="1.74215" height="1.74215" fill="#6749A7"/>
<rect x="13.0809" y="37.2848" width="1.74215" height="1.74215" fill="#6749A7"/>
<rect x="13.0809" y="39.0269" width="1.74215" height="1.74215" fill="#6749A7"/>
<rect x="16.5652" y="37.2848" width="1.74215" height="1.74215" fill="#6749A7"/>
<rect x="23.5341" y="33.8005" width="1.74215" height="1.74215" fill="#6749A7"/>
<rect x="18.3073" y="37.2848" width="1.74215" height="1.74215" fill="#6749A7"/>
<rect x="25.2756" y="33.8005" width="1.74215" height="1.74215" fill="#6749A7"/>
<rect x="21.7914" y="12.8943" width="1.74215" height="1.74215" fill="#6749A7"/>
<rect x="25.2756" y="11.1522" width="1.74215" height="1.74215" fill="#6749A7"/>
<rect x="26.9681" y="11.4011" width="1.79192" height="6.71971" fill="#612DCF"/>
<rect x="14.8231" y="39.0266" width="1.74215" height="1.74215" fill="#612DCF"/>
<rect x="20.0492" y="35.5422" width="1.74215" height="1.74215" fill="#612DCF"/>
<rect x="27.0184" y="32.0579" width="1.74215" height="1.74215" fill="#612DCF"/>
<rect x="21.7914" y="35.5422" width="1.74215" height="1.74215" fill="#612DCF"/>
<rect x="13.0809" y="18.1218" width="15.6793" height="13.9372" fill="#612DCF"/>
<rect x="13.0809" y="18.1218" width="6.96859" height="20.9058" fill="#612DCF"/>
<rect width="5.22644" height="20.5573" transform="matrix(-1 0 0 1 23.5341 16.3782)" fill="#612DCF"/>
<rect width="5.37577" height="22.399" transform="matrix(-1 0 0 1 27.0184 12.8943)" fill="#612DCF"/>
<rect x="13.0809" y="18.1217" width="1.79192" height="22.399" fill="#3B168A"/>
<path d="M18.3073 14.637H20.0494V16.3791H18.3073V14.637Z" fill="#3B168A"/>
<path d="M20.0494 14.637H21.7916V16.3791H20.0494V14.637Z" fill="#3B168A"/>
<rect x="21.5925" y="12.7456" width="3.58384" height="1.79192" fill="#3B168A"/>
<rect x="14.823" y="16.3779" width="1.79192" height="1.79192" fill="#3B168A"/>
<rect x="25.1765" y="10.9534" width="3.58384" height="1.79192" fill="#3B168A"/>
<rect x="20.2483" y="21.9128" width="2.2399" height="2.2399" fill="#8A7508"/>
<rect x="20.2483" y="30.8723" width="2.2399" height="2.2399" fill="#8A7508"/>
<rect x="18.4561" y="24.1528" width="5.82375" height="2.2399" fill="#8A7508"/>
<rect x="18.4561" y="28.6323" width="5.82375" height="2.2399" fill="#8A7508"/>
<rect x="16.6644" y="26.3923" width="9.40759" height="2.2399" fill="#8A7508"/>
<rect x="20.2483" y="19.9128" width="2.2399" height="2.2399" fill="#E3C93E"/>
<rect x="20.2483" y="28.8723" width="2.2399" height="2.2399" fill="#E3C93E"/>
<rect x="18.4561" y="22.1528" width="5.82375" height="2.2399" fill="#E3C93E"/>
<rect x="18.4561" y="26.6323" width="5.82375" height="2.2399" fill="#E3C93E"/>
<rect x="16.6644" y="24.3923" width="9.40759" height="2.2399" fill="#E3C93E"/>
<rect x="20.2484" y="24.8723" width="2.2399" height="2.2399" fill="#FFE353"/>
<rect x="20.2484" y="22.8723" width="2.2399" height="2.2399" fill="#FFE353"/>
<rect x="16.5652" y="16.3779" width="1.79192" height="1.79192" fill="#3B168A"/>
</svg>
