<svg width="30" height="27" viewBox="0 0 30 27" fill="none" xmlns="http://www.w3.org/2000/svg">
<g filter="url(#filter0_d_1803_12133)">
<rect width="2" height="8" transform="matrix(-4.37114e-08 -1 -1 4.37114e-08 9 16)" fill="#00B9E1"/>
<rect width="2" height="4" transform="matrix(-4.37114e-08 -1 -1 4.37114e-08 7 14)" fill="#00B9E1"/>
<rect width="2" height="2" transform="matrix(-4.37114e-08 -1 -1 4.37114e-08 6 12)" fill="#00B9E1"/>
<rect width="2" height="2" transform="matrix(-4.37114e-08 -1 -1 4.37114e-08 8 20)" fill="#00B9E1"/>
<rect x="22" y="20" width="2" height="2" transform="rotate(-90 22 20)" fill="#00B9E1"/>
<rect width="2" height="2" transform="matrix(-4.37114e-08 -1 -1 4.37114e-08 10 22)" fill="#00B9E1"/>
<rect x="20" y="22" width="2" height="2" transform="rotate(-90 20 22)" fill="#00B9E1"/>
<rect width="2" height="10" transform="matrix(-4.37114e-08 -1 -1 4.37114e-08 20 24)" fill="#00B9E1"/>
<rect width="4" height="2" transform="matrix(-4.37114e-08 -1 -1 4.37114e-08 6 18)" fill="#00B9E1"/>
<rect x="29" y="8" width="2" height="8" transform="rotate(90 29 8)" fill="#00B9E1"/>
<rect x="27" y="10" width="2" height="4" transform="rotate(90 27 10)" fill="#1DD6FF"/>
<rect width="2" height="4" transform="matrix(-4.37114e-08 -1 -1 4.37114e-08 7 14)" fill="#1DD6FF"/>
<rect x="26" y="12" width="2" height="2" transform="rotate(90 26 12)" fill="#1DD6FF"/>
<rect width="2" height="2" transform="matrix(-4.37114e-08 -1 -1 4.37114e-08 6 12)" fill="#1DD6FF"/>
<rect width="2" height="2" transform="matrix(4.37114e-08 1 1 -4.37114e-08 22 4)" fill="#00B9E1"/>
<rect x="8" y="4" width="2" height="2" transform="rotate(90 8 4)" fill="#00B9E1"/>
<rect width="2" height="2" transform="matrix(4.37114e-08 1 1 -4.37114e-08 20 2)" fill="#00B9E1"/>
<rect x="10" y="2" width="2" height="2" transform="rotate(90 10 2)" fill="#00B9E1"/>
<rect width="2" height="10" transform="matrix(4.37114e-08 1 1 -4.37114e-08 10 0)" fill="#00B9E1"/>
<rect width="4" height="2" transform="matrix(4.37114e-08 1 1 -4.37114e-08 24 6)" fill="#00B9E1"/>
<rect x="27" y="8" width="2" height="4" transform="rotate(90 27 8)" fill="#1DD6FF"/>
<rect width="2" height="4" transform="matrix(-4.37114e-08 -1 -1 4.37114e-08 7 16)" fill="#1DD6FF"/>
<rect x="10" y="8" width="2" height="10" fill="#00B9E1"/>
<rect x="18" y="8" width="2" height="10" fill="#00B9E1"/>
<rect x="12" y="6" width="2" height="10" fill="#00B9E1"/>
<rect x="14" y="6" width="2" height="12" fill="#00B9E1"/>
<rect x="16" y="6" width="2" height="10" fill="#00B9E1"/>
<rect x="12" y="6" width="6" height="10" fill="#1DD6FF"/>
</g>
<defs>
<filter id="filter0_d_1803_12133" x="0" y="0" width="30" height="27" filterUnits="userSpaceOnUse" color-interpolation-filters="sRGB">
<feFlood flood-opacity="0" result="BackgroundImageFix"/>
<feColorMatrix in="SourceAlpha" type="matrix" values="0 0 0 0 0 0 0 0 0 0 0 0 0 0 0 0 0 0 127 0" result="hardAlpha"/>
<feOffset dy="2"/>
<feGaussianBlur stdDeviation="0.5"/>
<feComposite in2="hardAlpha" operator="out"/>
<feColorMatrix type="matrix" values="0 0 0 0 0 0 0 0 0 0 0 0 0 0 0 0 0 0 0.75 0"/>
<feBlend mode="normal" in2="BackgroundImageFix" result="effect1_dropShadow_1803_12133"/>
<feBlend mode="normal" in="SourceGraphic" in2="effect1_dropShadow_1803_12133" result="shape"/>
</filter>
</defs>
</svg>
