<svg width="21" height="19" viewBox="0 0 21 19" fill="none" xmlns="http://www.w3.org/2000/svg">
<path d="M6.80934 12.4577C6.38707 10.2151 7.21718 8.66669 9.26344 7.80219C9.37599 7.75463 9.48099 7.58939 9.507 7.46224C9.54771 7.26327 9.50278 7.04878 9.52072 6.8432C9.58609 6.09335 9.51175 5.5282 8.71419 5.04166C7.61389 4.37033 7.34505 2.91891 7.84382 1.75506C8.33684 0.604593 9.55417 -0.116166 10.7817 0.0154405C12.0409 0.150527 13.0767 1.10461 13.3183 2.35189C13.5516 3.55615 12.936 4.82217 11.797 5.38901C11.5206 5.5266 11.4432 5.67721 11.4555 5.9605C11.4767 6.44794 11.447 6.9376 11.4712 7.42468C11.4776 7.55263 11.573 7.74063 11.6794 7.78961C13.8227 8.77564 14.5763 10.1635 14.1727 12.4593C14.8652 12.8671 15.5607 13.292 16.2752 13.6823C16.3895 13.7447 16.6113 13.6945 16.7461 13.6248C18.6709 12.6302 20.9317 13.9313 20.9987 16.0805C21.0439 17.5292 19.9074 18.7987 18.4012 18.9819C17.0257 19.1492 15.6036 18.137 15.3298 16.7645C15.2619 16.424 15.2696 16.0602 15.2987 15.7118C15.3182 15.4771 15.2959 15.3305 15.0723 15.2062C14.515 14.896 13.9789 14.5479 13.4174 14.2459C13.3057 14.1859 13.0749 14.2076 12.9734 14.2865C11.4084 15.5029 9.56538 15.5043 8.00989 14.2898C7.90802 14.2103 7.67756 14.1844 7.56682 14.2438C7.00519 14.5454 6.46867 14.8929 5.91198 15.2041C5.69236 15.3269 5.64627 15.4642 5.68905 15.7061C5.91395 16.9801 5.20194 18.2425 3.98847 18.7574C2.76712 19.2757 1.34516 18.8895 0.563919 17.8273C-0.227721 16.7511 -0.182077 15.324 0.676908 14.2963C1.50872 13.301 2.94763 12.9829 4.10971 13.5859C4.45029 13.7627 4.68318 13.7388 4.98905 13.5409C5.58458 13.1554 6.20781 12.8123 6.80934 12.4577ZM10.5053 13.2704C11.5702 13.2615 12.3834 12.4342 12.3744 11.3689C12.3658 10.3447 11.5257 9.51201 10.4962 9.50728C9.45104 9.50246 8.60336 10.3508 8.6047 11.4001C8.60605 12.4576 9.44109 13.2793 10.5053 13.2704ZM11.4174 2.84976C11.4069 2.31959 11.0034 1.93413 10.4689 1.94386C9.93958 1.9535 9.55076 2.35893 9.56098 2.8908C9.57085 3.40536 10.003 3.8241 10.5102 3.81053C11.0243 3.79679 11.4277 3.3695 11.4174 2.84976ZM2.84953 17.0602C3.37376 17.0695 3.78715 16.6795 3.80052 16.163C3.81424 15.6346 3.38524 15.1901 2.86468 15.1931C2.36511 15.1959 1.92911 15.6273 1.92328 16.1244C1.91746 16.6239 2.34045 17.0512 2.84953 17.0602ZM18.1278 17.0603C18.6369 17.0521 19.0607 16.6256 19.0559 16.1262C19.0512 15.6294 18.6155 15.1968 18.1163 15.1931C17.5959 15.1891 17.1662 15.6328 17.1787 16.1612C17.1909 16.6777 17.6036 17.0686 18.1278 17.0603Z" fill="#A065FF"/>
</svg>
