<svg width="38" height="35" viewBox="0 0 38 35" fill="none" xmlns="http://www.w3.org/2000/svg">
<g filter="url(#filter0_d_8447_7652)">
<path d="M6.54073 21.4672L6.52886 21.4834L6.51833 21.5006C6.41544 21.6684 6.27169 21.8139 6.0724 21.9974C6.04717 22.0207 6.02085 22.0447 5.99367 22.0695C5.82438 22.2239 5.62149 22.409 5.4376 22.63C5.40085 22.6662 5.36908 22.698 5.33969 22.7275C5.28828 22.7791 5.24417 22.8234 5.19347 22.8705C5.11642 22.9421 5.06238 22.9828 5.02014 23.006C4.98367 23.0261 4.96287 23.0295 4.9466 23.0297C4.92811 23.0299 4.88103 23.0262 4.79345 22.9833L4.72186 22.9483L4.64293 22.9373C4.56895 22.9269 4.5391 22.9109 4.53163 22.906C4.52955 22.9024 4.52574 22.8942 4.52124 22.8783C4.50956 22.8372 4.50149 22.7729 4.5002 22.6693C4.49958 22.6192 4.50049 22.5666 4.50179 22.5069L4.50224 22.4862C4.50339 22.4341 4.50468 22.3759 4.50468 22.3188V22.3041V22.2894V22.2747V22.2601V22.2454V22.2307V22.216V22.2013V22.1866V22.172V22.1573V22.1426V22.1279V22.1132V22.0986V22.0839V22.0692V22.0545V22.0398V22.0251V22.0105V21.9958V21.9811V21.9664V21.9517V21.937V21.9224V21.9077V21.893V21.8783V21.8636V21.849V21.8343V21.8196V21.8049V21.7902V21.7755V21.7609V21.7462V21.7315V21.7168V21.7021V21.6874V21.6728V21.6581V21.6434V21.6287V21.614V21.5994V21.5847V21.57V21.5553V21.5406V21.5259V21.5113V21.4966V21.4819V21.4672V21.4525V21.4378V21.4232V21.4085V21.3938V21.3791V21.3644V21.3498V21.3351V21.3204V21.3057V21.291V21.2763V21.2617V21.247V21.2323V21.2176V21.2029V21.1882V21.1736V21.1589V21.1442V21.1295V21.1148V21.1002V21.0855V21.0708V21.0561V21.0414V21.0267V21.0121V20.9974V20.9827V20.968V20.9533V20.9387V20.924V20.9093V20.8946V20.8799V20.8652V20.8506V20.8359V20.8212V20.8065V20.7918V20.7771V20.7625V20.7478V20.7331V20.7184V20.7037V20.6891V20.6744V20.6597V20.645V20.6303V20.6156V20.601V20.5863V20.5716V20.5569V20.5422V20.5275V20.5129V20.4982V20.4835V20.4688V20.4541V20.4395V20.4248V20.4101V20.3954V20.3807V20.366V20.3514V20.3367V20.322V20.3073V20.2926V20.2779V20.2633V20.2486V20.2339V20.2192V20.2045V20.1899V20.1752V20.1605V20.1458V20.1311V20.1164V20.1018V20.0871V20.0724V20.0577V20.043V20.0283V20.0137V19.999V19.9843V19.9696V19.9549V19.9403V19.9256V19.9109V19.8962V19.8815V19.8668V19.8522V19.8375V19.8228V19.8081V19.7934V19.7787V19.7641V19.7494V19.7347V19.72V19.7053V19.6907V19.676V19.6613V19.6466V19.6319V19.6172V19.6026V19.5879V19.5732V19.5585V19.5438V19.5292V19.5145V19.4998V19.4851V19.4704V19.4557V19.4411V19.4264V19.4117V19.397V19.3823V19.3676V19.353V19.3383V19.3236V19.3089V19.2942V19.2796V19.2649V19.2502V19.2355V19.2208V19.2061V19.1915V19.1768V19.1621V19.1474V19.1327V19.118V19.1034V19.0887V19.074V19.0593V19.0446V19.03V19.0153V19.0006V18.9859V18.9712V18.9565V18.9419V18.9272V18.9125V18.8978V18.8831V18.8684V18.8538V18.8391V18.8244V18.8097V18.795V18.7804V18.7657V18.751V18.7363V18.7216V18.7069V18.6923V18.6776V18.6629V18.6482V18.6335V18.6188V18.6042V18.5895V18.5748V18.5601V18.5454V18.5308V18.5161V18.5014V18.4867V18.472V18.4573V18.4427V18.428V18.4133V18.3986V18.3839V18.3692V18.3546V18.3399V18.3252V18.3105V18.2958V18.2812V18.2665V18.2518V18.2371V18.2224V18.2077V18.1931V18.1784V18.1637V18.149V18.1343V18.1196V18.105V18.0903V18.0756V18.0609V18.0462V18.0316V18.0169V18.0022V17.9875V17.9728V17.9581V17.9435V17.9288V17.9141V17.8994V17.8847V17.8701V17.8554V17.8407V17.826V17.8113V17.7966V17.782V17.7673V17.7526V17.7379V17.7232V17.7085V17.6939V17.6792V17.6645V17.6498V17.6351V17.6205V17.6058V17.5911V17.5764V17.5617V17.547V17.5324V17.5177V17.503V17.4883V17.4736V17.4589V17.4443V17.4296V17.4149V17.4002V17.3855V17.3709V17.3562V17.3415V17.3268V17.3121V17.2974V17.2828V17.2681V17.2534V17.2387V17.224V17.2093V17.1947V17.18V17.1653V17.1506V17.1359V17.1213V17.1066V17.0919V17.0772V17.0625V17.0478V17.0332V17.0185V17.0038V16.9891V16.9744V16.9597V16.9451V16.9304V16.9157V16.901V16.8863V16.8717V16.857V16.8423V16.8276V16.8129V16.7982V16.7836V16.7689V16.7542V16.7395V16.7248V16.7101V16.6955V16.6808V16.6661V16.6514V16.6367V16.6221V16.6074V16.5927V16.578V16.5633V16.5486V16.534V16.5193V16.5046V16.4899V16.4752V16.4606V16.4459V16.4312V16.4165V16.4018V16.3871V16.3725V16.3578V16.3431V16.3284V16.3137V16.299V16.2844V16.2697V16.255V16.2403V16.2256V16.211V16.1963V16.1816V16.1669V16.1522V16.1375V16.1229V16.1082V16.0935V16.0788V16.0641V16.0494V16.0348V16.0201V16.0054V15.9907V15.976V15.9614V15.9467V15.932V15.9173V15.9026V15.8879V15.8733V15.8586V15.8439V15.8292V15.8145V15.7998V15.7852V15.7705V15.7558V15.7411V15.7264V15.7118V15.6971V15.6824V15.6677V15.653V15.6383V15.6237V15.609V15.5943V15.5796V15.5649V15.5502V15.5356V15.5209V15.5062V15.4915V15.4768V15.4622V15.4475V15.4328V15.4181V15.4034V15.3887V15.3741V15.3594V15.3447V15.33V15.3153V15.3006V15.286V15.2713V15.2566V15.2419V15.2272V15.2126V15.1979V15.1832V15.1685V15.1538V15.1391V15.1245V15.1098V15.0951V15.0804V15.0657V15.0511V15.0364V15.0217V15.007V14.9923V14.9776V14.963V14.9483V14.9336V14.9189V14.9042V14.8895V14.8749V14.8602V14.8455V14.8308V14.8161V14.8015V14.7873V14.7732V14.759V14.7449V14.7308V14.7167V14.7025V14.6884V14.6743V14.6602V14.6461V14.6319V14.6178V14.6037V14.5896V14.5755V14.5614V14.5473V14.5332V14.5191V14.505V14.4909V14.4768V14.4627V14.4486V14.4345V14.4205V14.4064V14.3923V14.3782V14.3641V14.3501V14.336V14.3219V14.3078V14.2938V14.2797V14.2656V14.2516V14.2375V14.2235V14.2094V14.1953V14.1813V14.1672V14.1532V14.1391V14.1251V14.1111V14.097V14.083V14.0689V14.0549V14.0409V14.0268V14.0128V13.9988V13.9847V13.9707V13.9567V13.9426V13.9286V13.9146V13.9006V13.8866V13.8725V13.8585V13.8445V13.8305V13.8165V13.8025V13.7885V13.7745V13.7605V13.7465V13.7325V13.7185V13.7045V13.6905V13.6765V13.6625V13.6485V13.6345V13.6205V13.6065V13.5925V13.5785V13.5645V13.5506V13.5366V13.5226V13.5086V13.4946V13.4807V13.4667V13.4527V13.4387V13.4248V13.4108V13.3968V13.3829V13.3689V13.3549V13.341V13.327V13.3131V13.2991V13.2851V13.2712V13.2572V13.2433V13.2293V13.2154V13.2014V13.1875V13.1735V13.1596V13.1456V13.1317V13.1177V13.1038V13.0898V13.0759V13.062V13.048V13.0341V13.0202V13.0062V12.9923V12.9784V12.9644V12.9505V12.9366V12.9226V12.9087V12.8948V12.8809V12.8669V12.853V12.8391V12.8252V12.8112V12.7973V12.7834V12.7695V12.7556V12.7416V12.7277V12.7138V12.6999V12.686V12.6721V12.6582V12.6443V12.6303V12.6164V12.6025V12.5886V12.5747V12.5608V12.5469V12.533V12.5191V12.5052V12.4913V12.4774V12.4635V12.4496V12.4357V12.4218V12.4079V12.394V12.3801V12.3662V12.3523V12.3384V12.3245V12.3106V12.2968V12.2829V12.269V12.2551V12.2412V12.2273V12.2134V12.1995V12.1856V12.1718V12.1579V12.144V12.1301V12.1162V12.1023V12.0885V12.0746V12.0607V12.0468V12.0329V12.019V12.0052V11.9913V11.9774V11.9635V11.9497V11.9358V11.9219V11.908V11.8941V11.8803V11.8664V11.8525V11.8386V11.8248V11.8109V11.797V11.7831V11.7693V11.7554V11.7415V11.7277V11.7138V11.6999V11.686V11.6722V11.6583V11.6444V11.6306V11.6167V11.6028V11.589V11.5751V11.5612V11.5473V11.5335V11.5196V11.5057V11.4919V11.478V11.4641V11.4503V11.4364V11.4225V11.4087V11.3948V11.3809V11.3671V11.3532V11.3393V11.3255V11.3116V11.2977V11.2839V11.27V11.2561V11.2423V11.2284V11.2145V11.2007V11.1868V11.1729V11.1591V11.1452V11.1313V11.1175V11.1036V11.0897V11.0759V11.062V11.0481V11.0343V11.0204V11.0065V10.9927V10.9788V10.9649V10.9511V10.9372V10.9233V10.9094V10.8956V10.8817V10.8678V10.854V10.8401V10.8262V10.8124V10.7985V10.7846V10.7707V10.7569V10.743V10.7291V10.7153V10.7014V10.6875V10.6736V10.6598V10.6459V10.632V10.6181V10.6043V10.5904V10.5765V10.5626V10.5488V10.5349V10.521V10.5071V10.4933V10.4794V10.4655V10.4516V10.4377V10.4239V10.41V10.3961V10.3822V10.3683V10.3545V10.3406V10.3267V10.3128V10.2989V10.285V10.2711V10.2573V10.2434V10.2295V10.2156V10.2017V10.1878V10.1739V10.16V10.1461V10.1323V10.1184V10.1045V10.0906V10.0767V10.0628V10.0489V10.035V10.0211V10.0072V9.99329V9.97939V9.96549V9.95159V9.93769V9.92379V9.90988V9.89598V9.88207V9.86817V9.85426V9.84035V9.82644V9.81253V9.79862V9.78471V9.7708V9.75689V9.74297V9.72906V9.71514V9.70123V9.68731V9.67339V9.65947V9.64555V9.63163V9.61771V9.60379V9.58986V9.57594V9.56201V9.54809V9.53416V9.52023V9.5063V9.49237V9.47844V9.4645V9.45057V9.43663V9.4227V9.40876V9.39482V9.38088V9.36694V9.353V9.33906V9.32511V9.31117V9.29722V9.28328V9.26933V9.25538V9.24143V9.22747V9.21352V9.19957V9.18561V9.17165V9.1577V9.14374V9.12978V9.11581V9.10185V9.08789V9.07392V9.05995V9.04599V9.03202V9.01805V9.00407V8.9901V8.97613V8.96215V8.94817V8.93419V8.92021V8.90623V8.89225V8.87826V8.86428V8.85029V8.8363V8.82231V8.80832V8.79433V8.78033V8.76634V8.75234V8.73834V8.72434V8.71034V8.69634V8.68233V8.66832V8.65432V8.64031V8.6263V8.61228V8.59827V8.58425V8.57024V8.55622V8.5422V8.52818V8.51415V8.50013V8.4861V8.47207V8.45804V8.44401V8.42998V8.41594V8.40191V8.38787V8.37383V8.35978V8.34574V8.3317V8.31765V8.3036V8.28955V8.2755V8.26144V8.24739V8.23333V8.21927V8.20521V8.19115V8.17708V8.16302V8.14895V8.13488V8.12081V8.10673V8.09266V8.07858V8.0645V8.05042V8.03633V8.02225V8.00816V7.99407V7.97998V7.96589V7.95179V7.9377V7.9236V7.9095V7.8954V7.88129V7.86718V7.85308V7.83897V7.82485V7.81074V7.79662V7.7825V7.76838V7.75426V7.74013V7.72601V7.71188V7.69775V7.68361V7.66948V7.65534C4.50468 6.56989 4.77079 5.86243 5.21158 5.42209C5.65245 4.98166 6.3551 4.7215 7.41877 4.7215H7.44655H7.47434H7.50212H7.52991H7.55769H7.58547H7.61326H7.64104H7.66882H7.69661H7.72439H7.75218H7.77996H7.80774H7.83553H7.86331H7.8911H7.91888H7.94666H7.97445H8.00223H8.03002H8.0578H8.08558H8.11337H8.14115H8.16894H8.19672H8.2245H8.25229H8.28007H8.30785H8.33564H8.36342H8.39121H8.41899H8.44677H8.47456H8.50234H8.53013H8.55791H8.58569H8.61348H8.64126H8.66905H8.69683H8.72461H8.7524H8.78018H8.80797H8.83575H8.86353H8.89132H8.9191H8.94688H8.97467H9.00245H9.03024H9.05802H9.0858H9.11359H9.14137H9.16916H9.19694H9.22472H9.25251H9.28029H9.30808H9.33586H9.36364H9.39143H9.41921H9.44699H9.47478H9.50256H9.53035H9.55813H9.58591H9.6137H9.64148H9.66927H9.69705H9.72483H9.75262H9.7804H9.80819H9.83597H9.86375H9.89154H9.91932H9.94711H9.97489H10.0027H10.0305H10.0582H10.086H10.1138H10.1416H10.1694H10.1972H10.2249H10.2527H10.2805H10.3083H10.3361H10.3639H10.3916H10.4194H10.4472H10.475H10.5028H10.5306H10.5584H10.5861H10.6139H10.6417H10.6695H10.6973H10.7251H10.7528H10.7806H10.8084H10.8362H10.864H10.8918H10.9195H10.9473H10.9751H11.0029H11.0307H11.0585H11.0862H11.114H11.1418H11.1696H11.1974H11.2252H11.2529H11.2807H11.3085H11.3363H11.3641H11.3919H11.4197H11.4474H11.4752H11.503H11.5308H11.5586H11.5864H11.6141H11.6419H11.6697H11.6975H11.7253H11.7531H11.7808H11.8086H11.8364H11.8642H11.892H11.9198H11.9475H11.9753H12.0031H12.0309H12.0587H12.0865H12.1143H12.142H12.1698H12.1976H12.2254H12.2532H12.281H12.3087H12.3365H12.3643H12.3921H12.4199H12.4477H12.4754H12.5032H12.531H12.5588H12.5866H12.6144H12.6421H12.6699H12.6977H12.7255H12.7533H12.7811H12.8088H12.8366H12.8644H12.8922H12.92H12.9478H12.9756H13.0033H13.0311H13.0589H13.0867H13.1145H13.1423H13.17H13.1978H13.2256H13.2534H13.2812H13.309H13.3367H13.3645H13.3923H13.4201H13.4479H13.4757H13.5034H13.5312H13.559H13.5868H13.6146H13.6424H13.6701H13.6979H13.7257H13.7535H13.7813H13.8091H13.8369H13.8646H13.8924H13.9202H13.948H13.9758H14.0036H14.0313H14.0591H14.0869H14.1147H14.1425H14.1703H14.198H14.2258H14.2536H14.2814H14.3092H14.337H14.3647H14.3925H14.4203H14.4481H14.4759H14.5037H14.5315H14.5592H14.587H14.6148H14.6426H14.6704H14.6982H14.7259H14.7537H14.7815H14.8093H14.8371H14.8649H14.8926H14.9204H14.9482H14.976H15.0038H15.0316H15.0593H15.0871H15.1149H15.1427H15.1705H15.1983H15.226H15.2538H15.2816H15.3094H15.3372H15.365H15.3928H15.4205H15.4483H15.4761H15.5039H15.5317H15.5595H15.5872H15.615H15.6428H15.6706H15.6984H15.7262H15.7539H15.7817H15.8095H15.8373H15.8651H15.8929H15.9206H15.9484H15.9762H16.004H16.0318H16.0596H16.0873H16.1151H16.1429H16.1707H16.1985H16.2263H16.2541H16.2818H16.3096H16.3374H16.3652H16.393H16.4208H16.4485H16.4763H16.5041H16.5319H16.5597H16.5875H16.6152H16.643H16.6708H16.6986H16.7264H16.7542H16.7819H16.8097H16.8375H16.8653H16.8931H16.9209H16.9487H16.9764H17.0042H17.032H17.0598H17.0876H17.1154H17.1431H17.1709H17.1987H17.2265H17.2543H17.2821H17.3098H17.3376H17.3654H17.3932H17.421H17.4488H17.4765H17.5043H17.5321H17.5599H17.5877H17.6155H17.6432H17.671H17.6988H17.7266H17.7544H17.7822H17.81H17.8377H17.8655H17.8933H17.9211H17.9489H17.9767H18.0044H18.0322H18.06H18.0878H18.1156H18.1434H18.1711H18.1989H18.2267H18.2545H18.2823H18.3101H18.3378H18.3656H18.3934H18.4212H18.449H18.4768H18.5045H18.5323H18.5601H18.5879H18.6157H18.6435H18.6713H18.699H18.7268H18.7546H18.7824H18.8102H18.838H18.8657H18.8935H18.9213H18.9491H18.9769H19.0047H19.0324H19.0602H19.088H19.1158H19.1436H19.1714H19.1991H19.2269H19.2547H19.2825H19.3103H19.3381H19.3659H19.3936H19.4214H19.4492H19.477H19.5048H19.5326H19.5603H19.5881H19.6159H19.6437H19.6715H19.6993H19.727H19.7548H19.7826H19.8104H19.8382H19.866H19.8937H19.9215H19.9493H19.9771H20.0049H20.0327H20.0604H20.0882H20.116H20.1438H20.1716H20.1994H20.2272H20.2549H20.2827H20.3105H20.3383H20.3661H20.3939H20.4216H20.4494H20.4772H20.505H20.5328H20.5606H20.5883H20.6161H20.6439H20.6717H20.6995H20.7273H20.755H20.7828H20.8106H20.8384H20.8662H20.894H20.9217H20.9495H20.9773H21.0051H21.0329H21.0607H21.0885H21.1162H21.144H21.1718H21.1996H21.2274H21.2552H21.2829H21.3107H21.3385H21.3663H21.3941H21.4219H21.4496H21.4774H21.5052H21.533H21.5608H21.5886H21.6163H21.6441C22.655 4.7215 23.3393 4.97909 23.772 5.40251C24.2028 5.82412 24.4634 6.48777 24.4634 7.46973V7.48767V7.50562V7.52357V7.54153V7.55948V7.57744V7.5954V7.61336V7.63132V7.64928V7.66725V7.68522V7.70319V7.72116V7.73914V7.75711V7.77509V7.79307V7.81106V7.82904V7.84703V7.86502V7.88301V7.901V7.919V7.93699V7.95499V7.97299V7.99099V8.009V8.027V8.04501V8.06302V8.08103V8.09905V8.11706V8.13508V8.1531V8.17112V8.18914V8.20716V8.22519V8.24322V8.26125V8.27928V8.29731V8.31535V8.33338V8.35142V8.36946V8.3875V8.40555V8.42359V8.44164V8.45969V8.47774V8.49579V8.51384V8.5319V8.54995V8.56801V8.58607V8.60413V8.6222V8.64026V8.65833V8.6764V8.69447V8.71254V8.73061V8.74868V8.76676V8.78484V8.80292V8.821V8.83908V8.85716V8.87525V8.89333V8.91142V8.92951V8.9476V8.96569V8.98379V9.00188V9.01998V9.03807V9.05617V9.07427V9.09238V9.11048V9.12858V9.14669V9.1648V9.18291V9.20102V9.21913V9.23724V9.25535V9.27347V9.29159V9.3097V9.32782V9.34594V9.36407V9.38219V9.40031V9.41844V9.43656V9.45469V9.47282V9.49095V9.50908V9.52722V9.54535V9.56348V9.58162V9.59976V9.6179V9.63604V9.65418V9.67232V9.69046V9.70861V9.72675V9.7449V9.76304V9.78119V9.79934V9.81749V9.83564V9.8538V9.87195V9.89011V9.90826V9.92642V9.94458V9.96273V9.98089V9.99905V10.0172V10.0354V10.0535V10.0717V10.0899V10.108V10.1262V10.1444V10.1625V10.1807V10.1989V10.2171V10.2352V10.2534V10.2716V10.2897V10.3079V10.3261V10.3443V10.3625V10.3806V10.3988V10.417V10.4352V10.4534V10.4715V10.4897V10.5079V10.5261V10.5443V10.5625V10.5807V10.5988V10.617V10.6352V10.6534V10.6716V10.6898V10.708V10.7262V10.7444V10.7626V10.7808V10.799V10.8172V10.8353V10.8535V10.8717V10.8899V10.9081V10.9263V10.9445V10.9627V10.9809V10.9991V11.0173V11.0355V11.0537V11.072V11.0902V11.1084V11.1266V11.1448V11.163V11.1812V11.1994V11.2176V11.2358V11.254V11.2722V11.2904V11.3086V11.3268V11.3451V11.3633V11.3815V11.3997V11.4179V11.4361V11.4543V11.4725V11.4907V11.509V11.5272V11.5454V11.5636V11.5818V11.6V11.6182V11.6364V11.6547V11.6729V11.6911V11.7093V11.7275V11.7457V11.7639V11.7822V11.8004V11.8186V11.8368V11.855V11.8732V11.8915V11.9097V11.9279V11.9461V11.9643V11.9825V12.0008V12.019V12.0372V12.0554V12.0736V12.0918V12.1101V12.1283V12.1465V12.1647V12.1829V12.2011V12.2194V12.2376V12.2558V12.274V12.2922V12.3104V12.3287V12.3469V12.3651V12.3833V12.4015V12.4197V12.438V12.4562V12.4744V12.4926V12.5108V12.529V12.5472V12.5655V12.5837V12.6019V12.6201V12.6383V12.6565V12.6747V12.693V12.7112V12.7294V12.7476V12.7658V12.784V12.8022V12.8204V12.8386V12.8569V12.8751V12.8933V12.9115V12.9297V12.9479V12.9661V12.9843V13.0025V13.0207V13.0389V13.0571V13.0754V13.0936V13.1118V13.13V13.1482V13.1664V13.1846V13.2028V13.221V13.2392V13.2574V13.2756V13.2938V13.312V13.3302V13.3484V13.3666V13.3848V13.403V13.4212V13.4394V13.4576V13.4757V13.4939V13.5121V13.5303V13.5485V13.5667V13.5849V13.6031V13.6213V13.6395V13.6576V13.6758V13.694V13.7122V13.7304V13.7486V13.7668V13.7849V13.8031V13.8213V13.8395V13.8577V13.8758V13.894V13.9122V13.9304V13.9485V13.9667V13.9849V14.0031V14.0212V14.0394V14.0576V14.0757V14.0939V14.1121V14.1302V14.1484V14.1666V14.1847V14.2029V14.2211V14.2392V14.2574V14.2755V14.2937V14.3119V14.33V14.3482V14.3663V14.3845V14.4026V14.4208V14.4389V14.4571V14.4752V14.4934V14.5115V14.5297V14.5478V14.5659V14.5841V14.6022V14.6204V14.6385V14.6566V14.6748V14.6929V14.711V14.7292V14.7473V14.7654V14.7836V14.8017V14.8198V14.8379V14.8561V14.8742V14.8923V14.9104V14.9285V14.9466V14.9648V14.9829V15.001V15.0191V15.0372V15.0553V15.0734V15.0915V15.1096V15.1277V15.1458V15.1639V15.182V15.2001V15.2182V15.2363V15.2544V15.2725V15.2906V15.3087V15.3268V15.3449V15.363V15.381V15.3991V15.4172V15.4353V15.4534V15.4714V15.4895V15.5076V15.5257V15.5437V15.5618V15.5799V15.5979V15.616V15.634V15.6521V15.6702V15.6882V15.7063V15.7243V15.7424V15.7604V15.7785V15.7965V15.8146V15.8326V15.8507V15.8687V15.8867V15.9048V15.9228V15.9408V15.9589V15.9769V15.9949V16.013V16.031V16.049V16.067V16.085V16.1031V16.1211V16.1391V16.1571V16.1751V16.1931V16.2111V16.2291V16.2471V16.2651V16.2831V16.3011V16.3191V16.3371V16.3551V16.3731V16.3911V16.4091V16.427V16.445V16.463V16.481V16.499V16.5169V16.5349V16.5529V16.5708V16.5888V16.6068V16.6247V16.6427V16.6606V16.6786V16.6965V16.7145V16.7324V16.7504C24.4634 17.8875 24.1949 18.5867 23.752 19.0112C23.3047 19.44 22.5808 19.6842 21.4545 19.6842C20.2788 19.6842 19.0974 19.6945 17.915 19.7049C15.5522 19.7255 13.1856 19.7461 10.8537 19.6846C9.14347 19.5876 7.62213 19.9856 6.54073 21.4672ZM4.53332 22.9084C4.53329 22.9085 4.53287 22.908 4.53212 22.9068C4.53298 22.9077 4.53335 22.9084 4.53332 22.9084Z" fill="#EC6116" fill-opacity="0.4" stroke="#EC6116"/>
<path d="M33.269 30.4685L33.2448 30.4753L33.2214 30.4845C33.159 30.5089 33.103 30.5082 33.0046 30.4541C32.8955 30.394 32.7875 30.2961 32.6542 30.1666C30.6885 27.1765 27.6831 27.0172 24.7421 27.2028L24.7399 27.203C22.9311 27.3251 21.0988 27.2849 19.2271 27.2439C18.2734 27.223 17.3094 27.2018 16.3332 27.2018C15.121 27.2018 14.2084 26.7885 13.7507 25.818L13.7473 25.8109L13.7437 25.8038C13.5195 25.3651 13.3953 25.0109 13.3504 24.7334C13.306 24.4587 13.3439 24.2923 13.4024 24.1882C13.5162 23.9857 13.8839 23.7471 14.9106 23.7471H14.924H14.9373H14.9507H14.964H14.9773H14.9907H15.004H15.0174H15.0308H15.0441H15.0575H15.0708H15.0842H15.0976H15.1109H15.1243H15.1377H15.151H15.1644H15.1778H15.1912H15.2045H15.2179H15.2313H15.2447H15.2581H15.2715H15.2849H15.2983H15.3117H15.3251H15.3385H15.3519H15.3653H15.3787H15.3921H15.4055H15.4189H15.4323H15.4457H15.4592H15.4726H15.486H15.4994H15.5128H15.5263H15.5397H15.5531H15.5666H15.58H15.5934H15.6069H15.6203H15.6337H15.6472H15.6606H15.6741H15.6875H15.701H15.7144H15.7279H15.7413H15.7548H15.7682H15.7817H15.7952H15.8086H15.8221H15.8355H15.849H15.8625H15.876H15.8894H15.9029H15.9164H15.9298H15.9433H15.9568H15.9703H15.9838H15.9972H16.0107H16.0242H16.0377H16.0512H16.0647H16.0782H16.0917H16.1052H16.1187H16.1322H16.1457H16.1592H16.1727H16.1862H16.1997H16.2132H16.2267H16.2402H16.2537H16.2672H16.2807H16.2942H16.3078H16.3213H16.3348H16.3483H16.3618H16.3754H16.3889H16.4024H16.4159H16.4295H16.443H16.4565H16.47H16.4836H16.4971H16.5106H16.5242H16.5377H16.5513H16.5648H16.5783H16.5919H16.6054H16.619H16.6325H16.646H16.6596H16.6731H16.6867H16.7002H16.7138H16.7273H16.7409H16.7544H16.768H16.7816H16.7951H16.8087H16.8222H16.8358H16.8493H16.8629H16.8765H16.89H16.9036H16.9172H16.9307H16.9443H16.9579H16.9714H16.985H16.9986H17.0121H17.0257H17.0393H17.0529H17.0664H17.08H17.0936H17.1072H17.1207H17.1343H17.1479H17.1615H17.1751H17.1886H17.2022H17.2158H17.2294H17.243H17.2566H17.2702H17.2837H17.2973H17.3109H17.3245H17.3381H17.3517H17.3653H17.3789H17.3925H17.406H17.4196H17.4332H17.4468H17.4604H17.474H17.4876H17.5012H17.5148H17.5284H17.542H17.5556H17.5692H17.5828H17.5964H17.61H17.6236H17.6372H17.6508H17.6644H17.678H17.6916H17.7052H17.7188H17.7324H17.746H17.7596H17.7732H17.7868H17.8005H17.8141H17.8277H17.8413H17.8549H17.8685H17.8821H17.8957H17.9093H17.9229H17.9365H17.9501H17.9638H17.9774H17.991H18.0046H18.0182H18.0318H18.0454H18.059H18.0726H18.0863H18.0999H18.1135H18.1271H18.1407H18.1543H18.1679H18.1816H18.1952H18.2088H18.2224H18.236H18.2496H18.2632H18.2768H18.2905H18.3041H18.3177H18.3313H18.3449H18.3585H18.3721H18.3858H18.3994H18.413H18.4266H18.4402H18.4538H18.4674H18.4811H18.4947H18.5083H18.5219H18.5355H18.5491H18.5627H18.5764H18.59H18.6036H18.6172H18.6308H18.6444H18.658H18.6716H18.6853H18.6989H18.7125H18.7261H18.7397H18.7533H18.7669H18.7805H18.7941H18.8077H18.8214H18.835H18.8486H18.8622H18.8758H18.8894H18.903H18.9166H18.9302H18.9438H18.9574H18.971H18.9847H18.9983H19.0119H19.0255H19.0391H19.0527H19.0663H19.0799H19.0935H19.1071H19.1207H19.1343H19.1479H19.1615H19.1751H19.1887H19.2023H19.2159H19.2295H19.2431H19.2567H19.2703H19.2839H19.2975H19.3111H19.3246H19.3382H19.3518H19.3654H19.379H19.3926H19.4062H19.4198H19.4334H19.447H19.4605H19.4741H19.4877H19.5013H19.5149H19.5285H19.5421H19.5556H19.5692H19.5828H19.5964H19.61H19.6235H19.6371H19.6507H19.6643H19.6778H19.6914H19.705H19.7186H19.7321H19.7457H19.7593H19.7729H19.7864H19.8H19.8136H19.8271H19.8407H19.8543H19.8678H19.8814H19.8949H19.9085H19.9221H19.9356H19.9492H19.9627H19.9763H19.9898H20.0034H20.0169H20.0305H20.0441H20.0576H20.0711H20.0847H20.0982H20.1118H20.1253H20.1389H20.1524H20.166H20.1795H20.193H20.2066H20.2201H20.2336H20.2472H20.2607H20.2742H20.2878H20.3013H20.3148H20.3284H20.3419H20.3554H20.3689H20.3825H20.396H20.4095H20.423H20.4365H20.45H20.4636H20.4771H20.4906H20.5041H20.5176H20.5311H20.5446H20.5581H20.5716H20.5851H20.5986H20.6121H20.6256H20.6391H20.6526H20.6661H20.6796H20.6931H20.7066H20.7201H20.7336H20.747H20.7605H20.774H20.7875H20.801H20.8144H20.8279H20.8414H20.8549H20.8683H20.8818H20.8953H20.9087H20.9222H20.9357H20.9491H20.9626H20.9761H20.9895H21.003H21.0164H21.0299H21.0433H21.0568H21.0702H21.0837H21.0971H21.1105H21.124H21.1374H21.1509H21.1643H21.1777H21.1912H21.2046H21.218H21.2314H21.2449H21.2583H21.2717H21.2851H21.2986H21.312H21.3254H21.3388H21.3522H21.3656H21.379H21.3924H21.4058H21.4192H21.4326H21.446H21.4594H21.4728H21.4862H21.4996H21.513H21.5264H21.5397H21.5531H21.5665H21.5799H21.5933H21.6066H21.62H21.6334H21.6467H21.6601H21.6735H21.6868H21.7002H21.7135H21.7269H21.7402H21.7536H21.7669H21.7803H21.7936H21.807H21.8203H21.8336V23.7473L21.8469 23.747C25.6119 23.6474 28.3005 21.03 28.4029 17.3213L28.4031 17.3213V17.3075V17.2983V17.289V17.2798V17.2705V17.2613V17.252V17.2428V17.2336V17.2243V17.2151V17.2058V17.1966V17.1873V17.1781V17.1688V17.1596V17.1504V17.1411V17.1319V17.1226V17.1134V17.1041V17.0949V17.0856V17.0764V17.0672V17.0579V17.0487V17.0394V17.0302V17.0209V17.0117V17.0024V16.9932V16.984V16.9747V16.9655V16.9562V16.947V16.9377V16.9285V16.9192V16.91V16.9008V16.8915V16.8823V16.873V16.8638V16.8545V16.8453V16.836V16.8268V16.8176V16.8083V16.7991V16.7898V16.7806V16.7713V16.7621V16.7528V16.7436V16.7344V16.7251V16.7159V16.7066V16.6974V16.6881V16.6789V16.6696V16.6604V16.6512V16.6419V16.6327V16.6234V16.6142V16.6049V16.5957V16.5864V16.5772V16.568V16.5587V16.5495V16.5402V16.531V16.5217V16.5125V16.5032V16.494V16.4848V16.4755V16.4663V16.457V16.4478V16.4385V16.4293V16.42V16.4108V16.4016V16.3923V16.3831V16.3738V16.3646V16.3553V16.3461V16.3368V16.3276V16.3184V16.3091V16.2999V16.2906V16.2814V16.2721V16.2629V16.2536V16.2444V16.2352V16.2259V16.2167V16.2074V16.1982V16.1889V16.1797V16.1704V16.1612V16.152V16.1427V16.1335V16.1242V16.115V16.1057V16.0965V16.0872V16.078V16.0688V16.0595V16.0503V16.041V16.0318V16.0225V16.0133V16.004V15.9948V15.9856V15.9763V15.9671V15.9578V15.9486V15.9393V15.9301V15.9208V15.9116V15.9024V15.8931V15.8839V15.8746V15.8654V15.8561V15.8469V15.8376V15.8284V15.8192V15.8099V15.8007V15.7914V15.7822V15.7729V15.7637V15.7544V15.7452V15.736V15.7267V15.7175V15.7082V15.699V15.6897V15.6805V15.6712V15.662V15.6528V15.6435V15.6343V15.625V15.6158V15.6065V15.5973V15.588V15.5788V15.5696V15.5603V15.5511V15.5418V15.5326V15.5233V15.5141V15.5048V15.4956V15.4864V15.4771V15.4679V15.4586V15.4494V15.4401V15.4309V15.4216V15.4124V15.4032V15.3939V15.3847V15.3754V15.3662V15.3569V15.3477V15.3384V15.3292V15.32V15.3107V15.3015V15.2922V15.283V15.2737V15.2645V15.2552V15.246V15.2368V15.2275V15.2183V15.209V15.1998V15.1905V15.1813V15.172V15.1628V15.1536V15.1443V15.1351V15.1258V15.1166V15.1073V15.0981V15.0888V15.0796V15.0704V15.0611V15.0519V15.0426V15.0334V15.0241V15.0149V15.0056V14.9964V14.9872V14.9779V14.9687V14.9594V14.9502V14.9409V14.9317V14.9224V14.9132V14.904V14.8947V14.8855V14.8762V14.867V14.8577V14.8485V14.8393V14.83V14.8208V14.8115V14.8023V14.793V14.7838V14.7745V14.7653V14.7561V14.7468V14.7376V14.7283V14.7191V14.7098V14.7006V14.6913V14.6821V14.6729V14.6636V14.6544V14.6451V14.6359V14.6266V14.6174V14.6081V14.5989V14.5897V14.5804V14.5712V14.5619V14.5527V14.5434V14.5342V14.5249V14.5157V14.5065V14.4972V14.488V14.4787V14.4695V14.4602V14.451V14.4417V14.4325V14.4233V14.414V14.4048V14.3955V14.3863V14.377V14.3678V14.3585V14.3493V14.3401V14.3308V14.3216V14.3123V14.3031V14.2938V14.2846V14.2753V14.2661V14.2569V14.2476V14.2384V14.2291V14.2199V14.2106V14.2014V14.1921V14.1829V14.1737V14.1644V14.1552V14.1459V14.1367V14.1274V14.1182V14.1089V14.0997V14.0905V14.0812V14.072V14.0627V14.0535V14.0442V14.035V14.0257V14.0165V14.0073V13.998V13.9888V13.9795V13.9703V13.961V13.9518V13.9425V13.9333V13.9241V13.9148V13.9056V13.8963V13.8871V13.8778V13.8686V13.8593V13.8501V13.8409V13.8316V13.8224V13.8131V13.8039V13.7946V13.7854V13.7761V13.7669V13.7577V13.7484V13.7392V13.7299V13.7207V13.7114V13.7022V13.6929V13.6837V13.6745V13.6652V13.656V13.6467V13.6375V13.6282V13.619V13.6097V13.6005V13.5913V13.582V13.5728V13.5635V13.5543V13.545V13.5358V13.5265V13.5173V13.5081V13.4988V13.4896V13.4803V13.4711V13.4618V13.4526V13.4433V13.4341V13.4249V13.4156V13.4064V13.3971V13.3879V13.3786V13.3694V13.3601V13.3509V13.3417V13.3324V13.3232V13.3139V13.3047V13.2954V13.2862V13.2769V13.2677V13.2585V13.2492V13.24V13.2307V13.2215V13.2122V13.203V13.1937V13.1845V13.1753V13.166V13.1568V13.1475V13.1383V13.129V13.1198V13.1105V13.1013V13.0921V13.0828V13.0736V13.0643V13.0551V13.0458V13.0366V13.0273V13.0181V13.0089V12.9996V12.9904V12.9811V12.9719V12.9626V12.9534V12.9441V12.9349V12.9257V12.9164V12.9072V12.8979V12.8887V12.8794V12.8702V12.8609V12.8517V12.8425V12.8332V12.824V12.8147V12.8055V12.7962V12.787V12.7777V12.7685V12.7593V12.75V12.7408V12.7315V12.7223V12.713V12.7038V12.6945V12.6853V12.6761V12.6668V12.6576V12.6483V12.6391V12.6298V12.6206V12.6113V12.6021V12.5929V12.5836V12.5744C28.4031 12.3926 28.4096 12.2739 28.4249 12.1886C28.4389 12.1106 28.4553 12.0914 28.4562 12.0904L28.4562 12.0904C28.4586 12.0874 28.526 12.0061 28.9781 11.96C29.7924 11.9377 30.4979 11.9509 31.098 12.0407C31.7016 12.1311 32.1663 12.2946 32.5168 12.5495C33.1811 13.0327 33.6124 13.987 33.4737 16.0678L33.4736 16.0678L33.4732 16.0778C33.4092 17.4538 33.4307 18.8429 33.4518 20.2136C33.4623 20.8902 33.4726 21.5623 33.4726 22.2263V22.2409V22.2556V22.2703V22.285V22.2997V22.3143V22.329V22.3437V22.3584V22.3731V22.3878V22.4024V22.4171V22.4318V22.4465V22.4612V22.4759V22.4905V22.5052V22.5199V22.5346V22.5493V22.5639V22.5786V22.5933V22.608V22.6227V22.6374V22.652V22.6667V22.6814V22.6961V22.7108V22.7255V22.7401V22.7548V22.7695V22.7842V22.7989V22.8135V22.8282V22.8429V22.8576V22.8723V22.887V22.9016V22.9163V22.931V22.9457V22.9604V22.9751V22.9897V23.0044V23.0191V23.0338V23.0485V23.0631V23.0778V23.0925V23.1072V23.1219V23.1366V23.1512V23.1659V23.1806V23.1953V23.21V23.2247V23.2393V23.254V23.2687V23.2834V23.2981V23.3127V23.3274V23.3421V23.3568V23.3715V23.3862V23.4008V23.4155V23.4302V23.4449V23.4596V23.4743V23.4889V23.5036V23.5183V23.533V23.5477V23.5623V23.577V23.5917V23.6064V23.6211V23.6358V23.6504V23.6651V23.6798V23.6945V23.7092V23.7238V23.7385V23.7532V23.7679V23.7826V23.7973V23.8119V23.8266V23.8413V23.856V23.8707V23.8854V23.9V23.9147V23.9294V23.9441V23.9588V23.9734V23.9881V24.0028V24.0175V24.0322V24.0469V24.0615V24.0762V24.0909V24.1056V24.1203V24.135V24.1496V24.1643V24.179V24.1937V24.2084V24.223V24.2377V24.2524V24.2671V24.2818V24.2965V24.3111V24.3258V24.3405V24.3552V24.3699V24.3846V24.3992V24.4139V24.4286V24.4433V24.458V24.4726V24.4873V24.502V24.5167V24.5314V24.5461V24.5607V24.5754V24.5901V24.6048V24.6195V24.6342V24.6488V24.6635V24.6782V24.6929V24.7076V24.7222V24.7369V24.7516V24.7663V24.781V24.7957V24.8103V24.825V24.8397V24.8544V24.8691V24.8838V24.8984V24.9131V24.9278V24.9425V24.9572V24.9718V24.9865V25.0012V25.0159V25.0306V25.0453V25.0599V25.0746V25.0893V25.104V25.1187V25.1334V25.148V25.1627V25.1774V25.1921V25.2068V25.2214V25.2361V25.2508V25.2655V25.2802V25.2949V25.3095V25.3242V25.3389V25.3536V25.3683V25.3829V25.3976V25.4123V25.427V25.4417V25.4564V25.471V25.4857V25.5004V25.5151V25.5298V25.5445V25.5591V25.5738V25.5885V25.6032V25.6179V25.6325V25.6472V25.6619V25.6766V25.6913V25.706V25.7206V25.7353V25.75V25.7647V25.7794V25.7941V25.8087V25.8234V25.8381V25.8528V25.8675V25.8821V25.8968V25.9115V25.9262V25.9409V25.9556V25.9702V25.9849V25.9996V26.0143V26.029V26.0437V26.0583V26.073V26.0877V26.1024V26.1171V26.1317V26.1464V26.1611V26.1758V26.1905V26.2052V26.2198V26.2345V26.2492V26.2639V26.2786V26.2933V26.3079V26.3226V26.3373V26.352V26.3667V26.3813V26.396V26.4107V26.4254V26.4401V26.4548V26.4694V26.4841V26.4988V26.5135V26.5282V26.5429V26.5575V26.5722V26.5869V26.6016V26.6163V26.6309V26.6456V26.6603V26.675V26.6897V26.7044V26.719V26.7337V26.7484V26.7631V26.7778V26.7924V26.8071V26.8218V26.8365V26.8512V26.8659V26.8805V26.8952V26.9099V26.9246V26.9393V26.954V26.9686V26.9833V26.998V27.0127V27.0274V27.042V27.0567V27.0714V27.0861V27.1008V27.1155V27.1301V27.1448V27.1595V27.1742V27.1889V27.2036V27.2182V27.2329V27.2476V27.2623V27.277V27.2916V27.3063V27.321V27.3357V27.3504V27.3651V27.3797V27.3944V27.4091V27.4238V27.4385V27.4532V27.4678V27.4825V27.4972V27.5119V27.5266V27.5412V27.5559V27.5706V27.5853V27.6V27.6147V27.6293V27.644V27.6587V27.6734V27.6881V27.7028V27.7174V27.7321V27.7468V27.7615V27.7762V27.7908V27.8055V27.8202V27.8349V27.8496V27.8643V27.8789V27.8936V27.9083V27.923V27.9377V27.9524V27.967V27.9817V27.9964V28.0111V28.0258V28.0404V28.0551V28.0698V28.0845V28.0992V28.1139V28.1285V28.1432V28.1579V28.1726V28.1873V28.202V28.2166V28.2313V28.246V28.2607V28.2754V28.29V28.3047V28.3194V28.3341V28.3488V28.3635V28.3781V28.3928V28.4075V28.4222V28.4369V28.4515V28.4662V28.4809V28.4956V28.5103V28.525V28.5396V28.5543V28.569V28.5837V28.5984V28.6131V28.6277V28.6424V28.6571V28.6718V28.6865V28.7011V28.7158V28.7305V28.7452V28.7599V28.7746V28.7892V28.8039V28.8186V28.8333V28.848V28.8627V28.8773V28.892V28.9067V28.9214V28.9361V28.9507V28.9654V28.9801V28.9948V29.0095V29.0242V29.0388V29.0535V29.0682V29.0829V29.0976V29.1123V29.1269V29.1416V29.1563V29.171V29.1857V29.2003V29.215V29.2297V29.2444V29.2591V29.2738V29.2884V29.3031V29.3178V29.3325V29.3472V29.3619V29.3765V29.3912V29.4059V29.4206V29.4353V29.4499V29.4646V29.4793V29.494V29.5087V29.5234V29.538V29.5527V29.5674V29.5821V29.5968V29.6115V29.6261V29.6408V29.6555V29.6702V29.6849V29.6995V29.7142V29.7289V29.7436C33.4726 29.8006 33.4739 29.8588 33.4751 29.911L33.4755 29.9319C33.4768 29.9917 33.4777 30.0447 33.4771 30.0956C33.4758 30.1997 33.4679 30.2704 33.4542 30.3214C33.442 30.3667 33.4282 30.3857 33.4168 30.3972C33.4048 30.4093 33.3682 30.4408 33.269 30.4685Z" fill="#EC6116" fill-opacity="0.4" stroke="#EC6116"/>
</g>
<defs>
<filter id="filter0_d_8447_7652" x="0" y="0.221497" width="38" height="34.7785" filterUnits="userSpaceOnUse" color-interpolation-filters="sRGB">
<feFlood flood-opacity="0" result="BackgroundImageFix"/>
<feColorMatrix in="SourceAlpha" type="matrix" values="0 0 0 0 0 0 0 0 0 0 0 0 0 0 0 0 0 0 127 0" result="hardAlpha"/>
<feOffset/>
<feGaussianBlur stdDeviation="2"/>
<feComposite in2="hardAlpha" operator="out"/>
<feColorMatrix type="matrix" values="0 0 0 0 0.784314 0 0 0 0 0.164706 0 0 0 0 0.760784 0 0 0 1 0"/>
<feBlend mode="normal" in2="BackgroundImageFix" result="effect1_dropShadow_8447_7652"/>
<feBlend mode="normal" in="SourceGraphic" in2="effect1_dropShadow_8447_7652" result="shape"/>
</filter>
</defs>
</svg>
