<svg width="100" height="90" viewBox="0 0 50 43" fill="none" xmlns="http://www.w3.org/2000/svg">
<g filter="url(#filter0_d_3966_40208)">
<g filter="url(#filter1_i_3966_40208)">
<path d="M5 23.3768L9.90237 23.3768L9.90237 28.1828L26.3594 28.1828L34.1461 35.0002L35.8594 35.0002L35.8594 28.1828L40.1601 28.1828L40.1601 23.3768L45.0625 23.3768L45.0625 6.80603L40.1601 6.80603L40.1601 2L9.90237 2L9.90237 6.80603L5 6.80603L5 23.3768Z" fill="#480145" fill-opacity="0.9"/>
</g>
<path d="M5 23.3768L5 24.8768L3.5 24.8768L3.5 23.3768L5 23.3768ZM9.90237 28.1828L9.90237 29.6828L8.40237 29.6828L8.40237 28.1828L9.90237 28.1828ZM40.1601 28.1828L41.6601 28.1828L41.6601 29.6828L40.1601 29.6828L40.1601 28.1828ZM45.0625 23.3768L46.5625 23.3768L46.5625 24.8768L45.0625 24.8768L45.0625 23.3768ZM45.0625 6.80603L45.0625 5.30603L46.5625 5.30604L46.5625 6.80604L45.0625 6.80603ZM40.1601 2L40.1601 0.500001L41.6601 0.500001L41.6601 2L40.1601 2ZM9.90237 2L8.40237 2L8.40237 0.5L9.90237 0.5L9.90237 2ZM5 6.80603L3.5 6.80603L3.5 5.30603L5 5.30603L5 6.80603ZM40.1601 6.80603L40.1601 8.30603L38.6601 8.30603L38.6601 6.80603L40.1601 6.80603ZM9.90237 6.80603L11.4024 6.80603L11.4024 8.30603L9.90237 8.30603L9.90237 6.80603ZM9.90237 23.3768L9.90237 21.8768L11.4024 21.8768L11.4024 23.3768L9.90237 23.3768ZM40.1601 23.3768L38.6601 23.3768L38.6601 21.8768L40.1601 21.8768L40.1601 23.3768ZM35.8594 28.1828L34.3594 28.1828L34.3594 26.6828L35.8594 26.6828L35.8594 28.1828ZM26.3594 28.1828L26.3594 26.6828L26.9232 26.6828L27.3475 27.0543L26.3594 28.1828ZM35.8594 35.0002L37.3594 35.0002L37.3594 36.5002L35.8594 36.5002L35.8594 35.0002ZM34.1461 35.0002L34.1461 36.5002L33.5822 36.5002L33.158 36.1288L34.1461 35.0002ZM43.5625 23.3768L43.5625 6.80603L46.5625 6.80604L46.5625 23.3768L43.5625 23.3768ZM40.1601 3.5L9.90237 3.5L9.90237 0.5L40.1601 0.500001L40.1601 3.5ZM6.5 6.80603L6.5 23.3768L3.5 23.3768L3.5 6.80603L6.5 6.80603ZM45.0625 8.30603L40.1601 8.30603L40.1601 5.30603L45.0625 5.30603L45.0625 8.30603ZM38.6601 6.80603L38.6601 2L41.6601 2L41.6601 6.80603L38.6601 6.80603ZM11.4024 2L11.4024 6.80603L8.40237 6.80603L8.40237 2L11.4024 2ZM9.90237 8.30603L5 8.30603L5 5.30603L9.90237 5.30603L9.90237 8.30603ZM5 21.8768L9.90237 21.8768L9.90237 24.8768L5 24.8768L5 21.8768ZM11.4024 23.3768L11.4024 28.1828L8.40237 28.1828L8.40237 23.3768L11.4024 23.3768ZM38.6601 28.1828L38.6601 23.3768L41.6601 23.3768L41.6601 28.1828L38.6601 28.1828ZM40.1601 21.8768L45.0625 21.8768L45.0625 24.8768L40.1601 24.8768L40.1601 21.8768ZM35.8594 26.6828L40.1601 26.6828L40.1601 29.6828L35.8594 29.6828L35.8594 26.6828ZM9.90237 26.6828L26.3594 26.6828L26.3594 29.6828L9.90237 29.6828L9.90237 26.6828ZM34.3594 35.0002L34.3594 28.1828L37.3594 28.1828L37.3594 35.0002L34.3594 35.0002ZM27.3475 27.0543L35.1342 33.8716L33.158 36.1288L25.3713 29.3114L27.3475 27.0543ZM34.1461 33.5002L35.8594 33.5002L35.8594 36.5002L34.1461 36.5002L34.1461 33.5002Z" fill="#C82AC2"/>
<path d="M28.7326 14.0482H27.0286V10.6162H28.7326V14.0482ZM21.8686 14.0482H27.0286V15.7762H21.8686V19.2082H27.0286V20.9122H20.1646V8.91223H27.0286V10.6162H21.8686V14.0482ZM28.7326 19.2082H27.0286V15.7762H28.7326V19.2082Z" fill="#FF7BFB"/>
</g>
<defs>
<filter id="filter0_d_3966_40208" x="0.5" y="0.5" width="49.0625" height="42.0002" filterUnits="userSpaceOnUse" color-interpolation-filters="sRGB">
<feFlood flood-opacity="0" result="BackgroundImageFix"/>
<feColorMatrix in="SourceAlpha" type="matrix" values="0 0 0 0 0 0 0 0 0 0 0 0 0 0 0 0 0 0 127 0" result="hardAlpha"/>
<feOffset dy="3"/>
<feGaussianBlur stdDeviation="1.5"/>
<feComposite in2="hardAlpha" operator="out"/>
<feColorMatrix type="matrix" values="0 0 0 0 0 0 0 0 0 0 0 0 0 0 0 0 0 0 0.6 0"/>
<feBlend mode="normal" in2="BackgroundImageFix" result="effect1_dropShadow_3966_40208"/>
<feBlend mode="normal" in="SourceGraphic" in2="effect1_dropShadow_3966_40208" result="shape"/>
</filter>
<filter id="filter1_i_3966_40208" x="3.5" y="0.5" width="43.0625" height="36.0002" filterUnits="userSpaceOnUse" color-interpolation-filters="sRGB">
<feFlood flood-opacity="0" result="BackgroundImageFix"/>
<feBlend mode="normal" in="SourceGraphic" in2="BackgroundImageFix" result="shape"/>
<feColorMatrix in="SourceAlpha" type="matrix" values="0 0 0 0 0 0 0 0 0 0 0 0 0 0 0 0 0 0 127 0" result="hardAlpha"/>
<feOffset dx="-5" dy="-5"/>
<feComposite in2="hardAlpha" operator="arithmetic" k2="-1" k3="1"/>
<feColorMatrix type="matrix" values="0 0 0 0 0 0 0 0 0 0 0 0 0 0 0 0 0 0 0.4 0"/>
<feBlend mode="normal" in2="shape" result="effect1_innerShadow_3966_40208"/>
</filter>
</defs>
</svg>
