<svg width="77" height="78" viewBox="0 0 77 78" fill="none" xmlns="http://www.w3.org/2000/svg">
<g filter="url(#filter0_d_8091_70235)">
<g filter="url(#filter1_i_8091_70235)">
<path d="M-3 55.3653L33.755 55.3653L49.2613 69L52.6731 69L52.6731 55.3653L61.2375 55.3653L61.2375 45.7533L71 45.7533L71 12.612L61.2375 12.612L61.2375 3L-3 3L-3 55.3653Z" fill="#460000" fill-opacity="0.9"/>
</g>
<path d="M-3 55.3653L-3 57.8653L-5.5 57.8653L-5.5 55.3653L-3 55.3653ZM61.2375 55.3653L63.7375 55.3653L63.7375 57.8653L61.2375 57.8653L61.2375 55.3653ZM71 45.7533L73.5 45.7533L73.5 48.2533L71 48.2533L71 45.7533ZM71 12.612L71 10.112L73.5 10.112L73.5 12.612L71 12.612ZM61.2375 3L61.2375 0.500001L63.7375 0.500002L63.7375 3L61.2375 3ZM-3 3L-5.5 3L-5.5 0.5L-3 0.5L-3 3ZM61.2375 12.612L61.2375 15.112L58.7375 15.112L58.7375 12.612L61.2375 12.612ZM61.2375 45.7533L58.7375 45.7533L58.7375 43.2533L61.2375 43.2533L61.2375 45.7533ZM52.6731 55.3653L50.1731 55.3653L50.1731 52.8653L52.6731 52.8653L52.6731 55.3653ZM33.755 55.3653L33.755 52.8653L34.6978 52.8653L35.4058 53.4879L33.755 55.3653ZM52.6731 69L55.1731 69L55.1731 71.5L52.6731 71.5L52.6731 69ZM49.2613 69L49.2613 71.5L48.3185 71.5L47.6105 70.8774L49.2613 69ZM68.5 45.7533L68.5 12.612L73.5 12.612L73.5 45.7533L68.5 45.7533ZM61.2375 5.5L-3 5.5L-3 0.5L61.2375 0.500001L61.2375 5.5ZM71 15.112L61.2375 15.112L61.2375 10.112L71 10.112L71 15.112ZM58.7375 12.612L58.7375 3L63.7375 3L63.7375 12.612L58.7375 12.612ZM58.7375 55.3653L58.7375 45.7533L63.7375 45.7533L63.7375 55.3653L58.7375 55.3653ZM61.2375 43.2533L71 43.2533L71 48.2533L61.2375 48.2533L61.2375 43.2533ZM52.6731 52.8653L61.2375 52.8653L61.2375 57.8653L52.6731 57.8653L52.6731 52.8653ZM-3 52.8653L33.755 52.8653L33.755 57.8653L-3 57.8653L-3 52.8653ZM50.1731 69L50.1731 55.3653L55.1731 55.3653L55.1731 69L50.1731 69ZM35.4058 53.4879L50.9121 67.1226L47.6105 70.8774L32.1041 57.2428L35.4058 53.4879ZM49.2613 66.5L52.6731 66.5L52.6731 71.5L49.2613 71.5L49.2613 66.5ZM-0.499997 3L-0.500001 55.3653L-5.5 55.3653L-5.5 3L-0.499997 3Z" fill="#EC6113"/>
<path d="M38.85 25.7L35.3 25.7L35.3 18.55L38.85 18.55L38.85 25.7ZM24.55 25.7L35.3 25.7L35.3 29.3L24.55 29.3L24.55 36.45L35.3 36.45L35.3 40L21 40L21 15L35.3 15L35.3 18.55L24.55 18.55L24.55 25.7ZM38.85 36.45L35.3 36.45L35.3 29.3L38.85 29.3L38.85 36.45Z" fill="#EC6113"/>
</g>
<defs>
<filter id="filter0_d_8091_70235" x="-8.5" y="0.5" width="85" height="77" filterUnits="userSpaceOnUse" color-interpolation-filters="sRGB">
<feFlood flood-opacity="0" result="BackgroundImageFix"/>
<feColorMatrix in="SourceAlpha" type="matrix" values="0 0 0 0 0 0 0 0 0 0 0 0 0 0 0 0 0 0 127 0" result="hardAlpha"/>
<feOffset dy="3"/>
<feGaussianBlur stdDeviation="1.5"/>
<feComposite in2="hardAlpha" operator="out"/>
<feColorMatrix type="matrix" values="0 0 0 0 0 0 0 0 0 0 0 0 0 0 0 0 0 0 0.6 0"/>
<feBlend mode="normal" in2="BackgroundImageFix" result="effect1_dropShadow_8091_70235"/>
<feBlend mode="normal" in="SourceGraphic" in2="effect1_dropShadow_8091_70235" result="shape"/>
</filter>
<filter id="filter1_i_8091_70235" x="-5.5" y="0.5" width="79" height="71" filterUnits="userSpaceOnUse" color-interpolation-filters="sRGB">
<feFlood flood-opacity="0" result="BackgroundImageFix"/>
<feBlend mode="normal" in="SourceGraphic" in2="BackgroundImageFix" result="shape"/>
<feColorMatrix in="SourceAlpha" type="matrix" values="0 0 0 0 0 0 0 0 0 0 0 0 0 0 0 0 0 0 127 0" result="hardAlpha"/>
<feOffset dx="-9" dy="-9"/>
<feComposite in2="hardAlpha" operator="arithmetic" k2="-1" k3="1"/>
<feColorMatrix type="matrix" values="0 0 0 0 0 0 0 0 0 0 0 0 0 0 0 0 0 0 0.4 0"/>
<feBlend mode="normal" in2="shape" result="effect1_innerShadow_8091_70235"/>
</filter>
</defs>
</svg>
