<svg width="14" height="14" viewBox="0 0 14 14" fill="none" xmlns="http://www.w3.org/2000/svg">
<path d="M7 1C3.68638 1 1 3.68638 1 7C1 10.3136 3.68638 13 7 13C10.3136 13 13 10.3136 13 7C13 3.68638 10.3136 1 7 1ZM7 1.92308C9.80385 1.92308 12.0769 4.19615 12.0769 7C12.0769 9.80385 9.80385 12.0769 7 12.0769C4.19615 12.0769 1.92308 9.80385 1.92308 7C1.92308 4.19615 4.19615 1.92308 7 1.92308ZM6.65385 2.84615L6.76923 3.76923H7.23077L7.34615 2.84615H6.65385ZM9.77419 3.89949L7.28846 6.1238C7.19541 6.09295 7.09803 6.07713 7 6.07692C6.75518 6.07692 6.5204 6.17418 6.34729 6.34729C6.17418 6.5204 6.07692 6.75518 6.07692 7C6.07692 7.24482 6.17418 7.4796 6.34729 7.65271C6.5204 7.82582 6.75518 7.92308 7 7.92308C7.05595 7.92288 7.11177 7.9176 7.16677 7.9073L9.03456 9.45508L9.45553 9.03456L7.9073 7.16632C7.93512 7.01451 7.92442 6.85815 7.8762 6.71154L10.1005 4.22581L9.77419 3.89949ZM2.84615 6.65385V7.34615L3.76923 7.23077V6.76923L2.84615 6.65385ZM11.1538 6.65385L10.2308 6.76923V7.23077L11.1538 7.34615V6.65385ZM6.76923 10.2308L6.65385 11.1538H7.34615L7.23077 10.2308H6.76923Z" fill="#F1BF0C" stroke="#F1BF0C" stroke-width="0.6"/>
</svg>
