<svg width="32" height="30" viewBox="0 0 32 30" fill="none" xmlns="http://www.w3.org/2000/svg">
<g opacity="0.9" filter="url(#filter0_d_4488_348)">
<path fill-rule="evenodd" clip-rule="evenodd" d="M5.42342 5.74832L16.482 5.74832V1.28275L5.42342 1.28275C2.98043 1.28275 1 3.28205 1 5.74832V23.6106C1 26.0769 2.98043 28.0762 5.42342 28.0762L23.1171 28.0762C25.5601 28.0762 27.5405 26.0769 27.5405 23.6106V19.145L23.1171 19.145V23.6106L5.42342 23.6106V5.74832ZM27.8722 1.28259L15.3761 13.7546L12.0251 10.597L8.89731 13.7546L13.8122 18.4911C14.227 18.9098 14.7895 19.145 15.3761 19.145C15.9627 19.145 16.5252 18.9098 16.94 18.4911L31 4.44024L27.8722 1.28259Z" fill="#00BF58"/>
</g>
<defs>
<filter id="filter0_d_4488_348" x="0" y="0.282593" width="32" height="28.7936" filterUnits="userSpaceOnUse" color-interpolation-filters="sRGB">
<feFlood flood-opacity="0" result="BackgroundImageFix"/>
<feColorMatrix in="SourceAlpha" type="matrix" values="0 0 0 0 0 0 0 0 0 0 0 0 0 0 0 0 0 0 127 0" result="hardAlpha"/>
<feOffset/>
<feGaussianBlur stdDeviation="0.5"/>
<feComposite in2="hardAlpha" operator="out"/>
<feColorMatrix type="matrix" values="0 0 0 0 0 0 0 0 0 0.74902 0 0 0 0 0.345098 0 0 0 1 0"/>
<feBlend mode="normal" in2="BackgroundImageFix" result="effect1_dropShadow_4488_348"/>
<feBlend mode="normal" in="SourceGraphic" in2="effect1_dropShadow_4488_348" result="shape"/>
</filter>
</defs>
</svg>
