<?xml version="1.0" encoding="utf-8"?>
<!-- Generator: Adobe Illustrator 24.0.1, SVG Export Plug-In . SVG Version: 6.00 Build 0)  -->
<svg version="1.1" id="Layer_1" xmlns="http://www.w3.org/2000/svg" xmlns:xlink="http://www.w3.org/1999/xlink" x="0px" y="0px"
	 viewBox="0 0 50 50" style="enable-background:new 0 0 50 50;" xml:space="preserve">
<style type="text/css">
	.st0{fill-rule:evenodd;clip-rule:evenodd;fill:#4ADBFB;}
	.st1{opacity:0.6;}
	.st2{fill-rule:evenodd;clip-rule:evenodd;}
</style>
<g>
	<path class="st0" d="M12,10c-1,0-2,1-2,2c0,0.5,0,0.6,0,13c0,13-0.1,13.4,0.8,14.2C11.6,40.1,11.5,40,25,40
		c13.5,0,13.4,0.1,14.2-0.8C40,38.4,40,38,40,30l0-7.9L38.1,24c-0.8,0.8-1.5,1.5-2.3,2.3v9.5H14.2V14.2h9.5c1.3-1.3,3.8-4.2,3.8-4.2
		S13,10,12,10z"/>
</g>
<g class="st1">
	<path class="st2" d="M40,30c0,0.7,0,1.3,0,1.8c0,6.2,0,6.6-0.8,7.4c-0.1,0.1-0.2,0.2-0.3,0.3C38.2,40.1,37,40,25,40
		c-12,0-13.2,0.1-13.9-0.5c-0.1-0.1-0.2-0.2-0.3-0.3C10,38.4,10,38.1,10,27.6c0-0.8,0-1.7,0-2.6c0-10.4,0-12.1,0-12.7
		c0-0.1,0-0.2,0-0.3c0-1,1-2,2-2l15.5,0c0,0-0.4,0.4-0.9,1c-0.8,1-2.1,2.4-2.9,3.2h-9.5v21.6h21.6v-9.5c0.6-0.6,1.2-1.2,1.8-1.7
		c0.2-0.2,0.3-0.4,0.5-0.5l1.8-1.9L40,30z M37.4,23.3l3.5-3.6L41,30c0,0.6,0,1.2,0,1.8c0,2.8,0,4.5-0.1,5.5c0,0.6-0.1,1.1-0.3,1.5
		c-0.2,0.5-0.4,0.8-0.7,1c0,0,0,0,0,0c-0.2,0.2-0.5,0.5-1,0.7c-0.5,0.2-1.1,0.2-2,0.3C35.4,41,32.7,41,27.7,41c-0.8,0-1.8,0-2.7,0
		c-1,0-1.9,0-2.7,0c-4.9,0-7.6,0-9.2-0.1c-0.9,0-1.5-0.1-2-0.3c-0.5-0.2-0.8-0.5-1-0.7c0,0,0,0,0,0c-0.3-0.3-0.5-0.6-0.7-1.2
		c-0.2-0.5-0.2-1.1-0.3-2.1C9,35.1,9,32.4,9,27.6c0-0.8,0-1.7,0-2.6c0-6.2,0-9.3,0-11c0-1.1,0-1.5,0-1.8c0-0.1,0-0.2,0-0.3
		c0-0.8,0.4-1.6,0.9-2.1C10.4,9.4,11.2,9,12,9c0,0,0,0,0,0l15.5,0c0,0,0,0,0,1l0.8,0.7l0,0l-0.1,0.1c-0.1,0.1-0.2,0.2-0.3,0.3
		c-0.3,0.3-0.6,0.7-1,1.1c-0.8,0.9-1.8,2-2.4,2.6l-0.3,0.3h-8.9v19.6h19.6v-9l0.3-0.3c0.6-0.5,1.1-1.1,1.7-1.7
		C37,23.7,37.2,23.5,37.4,23.3L37.4,23.3z M27.5,10l0-1h2.2l-1.4,1.7L27.5,10z"/>
</g>
<g>
	<path class="st0" d="M32.5,11.9l0.4,0.3c0.2,0.1,0.5,0.3,0.7,0.4c0.3,0.2,1.8,1.5,2.1,1.7c0.5,0.5,1.4,1.6,1.9,2.3
		c0.6,0.9,0.6,0.9,1.6-0.1c1-1,1.1-1.2,0.7-2.7c-0.5-2.4-2.3-3.8-4.9-3.8h-0.5L32.5,11.9z M25,19.4c-3.3,3.3-6,6.1-6,6.1
		s0.3,0.3,0.7,0.5c1.6,1,3.3,2.8,4.4,4.3c0.2,0.3,0.4,0.6,0.5,0.6c0,0,2.8-2.7,6.1-6.1l6.1-6.1l-0.4-0.7c-1.1-1.9-4.2-4.8-5.2-4.8
		C31.1,13.4,28.3,16.1,25,19.4z M17.1,27.3l-0.3,0.3v5.5h5.6l0.3-0.3c0.3-0.4,0.3-0.4,0-1.1C21.2,29.2,17.9,26.5,17.1,27.3z"/>
</g>
<g class="st1">
	<path class="st2" d="M30.9,12.1L34,9h0.9c1.5,0,2.8,0.4,3.8,1.2c1,0.8,1.7,2,2,3.4l0,0c0.2,0.7,0.3,1.3,0.1,2
		c-0.2,0.6-0.7,1.1-1.1,1.6l0,0c0,0-0.1,0.1-0.1,0.1c-0.2,0.2-0.4,0.4-0.5,0.5c-0.1,0.1-0.2,0.2-0.3,0.3c-0.1,0.1-0.3,0.2-0.6,0.2
		c-0.4,0-0.8-0.2-0.9-0.4l0.6,1.2l-6.6,6.6c-1.7,1.7-3.2,3.2-4.3,4.3c-0.6,0.5-1,1-1.3,1.3c-0.2,0.2-0.3,0.3-0.4,0.4
		c0,0-0.1,0.1-0.1,0.1c0,0,0,0-0.1,0c0,0,0,0-0.1,0.1c0,0,0,0-0.1,0.1c0,0-0.1,0-0.1,0.1l0,0c0,0-0.2,0.1-0.4,0.1
		c-0.2,0-0.3-0.1-0.4-0.1c-0.1,0-0.1-0.1-0.1-0.1c-0.1,0-0.1-0.1-0.1-0.1c0,0,0,0,0,0c0,0,0,0.1,0,0.1c0.1,0.1,0.2,0.4,0.2,0.6
		c0,0.6-0.4,1-0.5,1.1c0,0,0,0,0,0l0,0l-0.6,0.6h-7v-6.9l0.6-0.6l0,0c0.3-0.3,0.8-0.5,1.1-0.5c0.3,0,0.6,0.1,0.9,0.2
		c0,0-0.1-0.1-0.1-0.1c0,0-0.1-0.1-0.1-0.1c0,0,0,0,0,0c0,0-0.2-0.2-0.2-0.6c0-0.2,0.1-0.3,0.1-0.4c0-0.1,0-0.1,0.1-0.1
		c0,0,0.1-0.1,0.1-0.1c0,0,0-0.1,0.1-0.1c0,0,0,0,0.1-0.1c0,0,0.1-0.1,0.1-0.1c0.1-0.1,0.2-0.2,0.4-0.4C19,24,19.5,23.6,20,23
		c1.1-1.1,2.6-2.6,4.3-4.3c1.7-1.7,3.2-3.2,4.3-4.3c0.6-0.5,1-1,1.3-1.3c0.2-0.2,0.3-0.3,0.4-0.4c0,0,0.1-0.1,0.1-0.1c0,0,0,0,0,0
		c0,0,0,0,0,0c0,0,0,0,0.1-0.1c0,0,0.1,0,0.1-0.1c0,0,0.2-0.1,0.5-0.1c0.1,0,0.2,0,0.3,0L30.9,12.1z M33.4,12.5
		c0.1,0.1,0.1,0.1,0.2,0.1c0.3,0.2,1.8,1.5,2.1,1.7c0.5,0.5,1.4,1.6,1.9,2.3c0.3,0.4,0.4,0.7,0.6,0.7c0.2,0,0.4-0.2,1-0.8
		c1-1,1.1-1.2,0.7-2.7c-0.5-2.4-2.3-3.8-4.9-3.8h-0.5l-1.9,1.9l0.4,0.3C33,12.3,33.2,12.4,33.4,12.5z M23.3,30.9L23.3,30.9z
		 M17.1,27.3l-0.3,0.3v5.5h5.6l0.3-0.3c0.3-0.4,0.3-0.4,0-1.1C21.2,29.2,17.9,26.5,17.1,27.3z M25.2,30.3
		C25.2,30.3,25.2,30.3,25.2,30.3c-0.4,0.4-0.7,0.7-0.7,0.7c0,0-0.2-0.3-0.5-0.6c0-0.1-0.1-0.1-0.1-0.2c0,0,0,0,0,0
		c-1-1.5-2.6-3.1-4.1-4.1c0,0,0,0,0,0c0,0-0.1-0.1-0.1-0.1c-0.4-0.2-0.7-0.5-0.7-0.5s2.7-2.8,6-6.1s6.1-6,6.1-6c1,0,4.1,2.9,5.2,4.8
		l0.4,0.7L30.6,25C28.3,27.3,26.2,29.3,25.2,30.3z"/>
</g>
</svg>
