<svg width="50" height="50" viewBox="0 0 50 50" fill="none" xmlns="http://www.w3.org/2000/svg">
<g filter="url(#filter0_d_6892_59334)">
<path fill-rule="evenodd" clip-rule="evenodd" d="M11.5818 10.2183C11.0434 10.4614 10.4309 11.0859 10.193 11.6342C10.0089 12.0589 10.0015 12.5774 10.0015 25.0048C10.0015 39.5746 9.93518 38.3689 10.7832 39.217C11.6311 40.0651 10.4262 39.9988 24.9891 39.9988C39.552 39.9988 38.347 40.0651 39.195 39.217C40.0262 38.3857 39.9813 38.9307 39.9518 30.0368L39.9257 22.1428L38.0905 23.9974C37.0811 25.0174 36.1521 25.946 36.0259 26.0609L35.7965 26.2697V31.0438V35.818H24.9891H14.1817V25.0093V14.2005H18.935H23.6882L25.7151 12.1872C26.8298 11.0798 27.7419 10.1392 27.7419 10.0968C27.7419 9.90596 12.0115 10.0242 11.5818 10.2183ZM33.4614 10.9786L32.5067 11.9374L32.9026 12.2011C33.1203 12.3462 33.4133 12.5435 33.5534 12.6397C33.8387 12.8352 35.3853 14.1095 35.6043 14.3293C36.1263 14.8534 37.0455 15.9672 37.4637 16.5826C38.1034 17.5238 38.0204 17.5289 39.0703 16.4837C40.1102 15.4484 40.1494 15.3048 39.8088 13.7797C39.266 11.349 37.5449 10.0198 34.9409 10.0198H34.416L33.4614 10.9786ZM25.0143 19.4268C21.6919 22.7498 18.9736 25.4967 18.9736 25.5307C18.9736 25.5648 19.2834 25.7929 19.6619 26.0377C21.246 27.062 23.0105 28.8221 24.0205 30.3854C24.2448 30.7326 24.4514 31.0186 24.4796 31.0211C24.5079 31.0235 27.2549 28.301 30.5841 24.9709L36.6371 18.9164L36.2524 18.2163C35.1982 16.2975 32.0864 13.3848 31.0908 13.3848C31.071 13.3848 28.3366 16.1037 25.0143 19.4268ZM17.1065 27.3347L16.8326 27.6206V30.3938V33.1668H19.6173H22.402L22.676 32.8808C23.021 32.5207 23.0189 32.4657 22.6315 31.7592C21.2041 29.1561 17.8981 26.5083 17.1065 27.3347Z" fill="#FF7BFB" shape-rendering="crispEdges"/>
<path d="M9.73429 11.4354L9.73432 11.4353C9.88419 11.0898 10.138 10.7469 10.4177 10.4617C10.6972 10.1767 11.0345 9.9168 11.376 9.7626L9.73429 11.4354ZM9.73429 11.4354C9.66032 11.606 9.61692 11.7746 9.58734 12.1112C9.55894 12.4342 9.54067 12.9441 9.52824 13.8113C9.5033 15.552 9.50146 18.7934 9.50146 25.0048C9.50146 26.0673 9.5011 27.0463 9.50077 27.9488C9.49883 33.2224 9.49786 35.8803 9.57507 37.284C9.61938 38.0895 9.69091 38.5694 9.8531 38.905C9.9426 39.0902 10.0512 39.2161 10.1587 39.32C10.1994 39.3594 10.2433 39.3986 10.2807 39.4319C10.2877 39.4382 10.2944 39.4442 10.3009 39.45C10.3451 39.4896 10.3864 39.5273 10.4296 39.5705C10.4728 39.6137 10.5105 39.6551 10.5501 39.6992C10.5559 39.7057 10.5619 39.7125 10.5682 39.7195C10.6015 39.7568 10.6407 39.8007 10.6801 39.8415C10.784 39.949 10.9099 40.0576 11.095 40.1471C11.4306 40.3093 11.9104 40.3809 12.7156 40.4252C14.1187 40.5024 16.7753 40.5014 22.0464 40.4995C22.9485 40.4991 23.9271 40.4988 24.9891 40.4988C26.0511 40.4988 27.0297 40.4991 27.9317 40.4995C33.2028 40.5014 35.8595 40.5024 37.2626 40.4252C38.0678 40.3809 38.5476 40.3093 38.8831 40.1471C39.0683 40.0576 39.1942 39.949 39.2981 39.8415C39.3448 39.7931 39.3913 39.7402 39.4281 39.6992C39.4677 39.6551 39.5054 39.6137 39.5486 39.5705C39.5779 39.5412 39.6098 39.5106 39.6433 39.4785C39.7943 39.3338 39.9777 39.1579 40.1065 38.9229C40.2713 38.6222 40.3487 38.2469 40.3945 37.6915C40.4759 36.7039 40.4694 34.91 40.4566 31.3933C40.4551 30.9665 40.4534 30.5143 40.4518 30.0351L40.4257 22.1412L40.4217 20.9307M9.73429 11.4354L40.4217 20.9307M40.4217 20.9307L39.5703 21.7911M40.4217 20.9307L39.5703 21.7911M39.5703 21.7911L37.7351 23.6457C36.7185 24.6731 35.8031 25.5875 35.6893 25.6911C35.6893 25.6912 35.6893 25.6912 35.6893 25.6912L35.4599 25.9L35.2965 26.0487V26.2697V31.0438V35.318M39.5703 21.7911L35.2965 35.318M35.2965 35.318H24.9891H14.6817V25.0093V14.7005H18.935H23.6882H23.8943L24.0406 14.5553L26.0675 12.542L26.0675 12.5419C26.6264 11.9867 27.1354 11.4724 27.5055 11.0907C27.6902 10.9002 27.8423 10.7407 27.9493 10.6248C28.0022 10.5676 28.0477 10.517 28.0817 10.477C28.0978 10.458 28.1172 10.4346 28.1347 10.4107C28.1427 10.3998 28.1575 10.379 28.1725 10.353C28.1799 10.3402 28.1927 10.317 28.2049 10.2866C28.2133 10.2659 28.2419 10.1939 28.2419 10.0968C28.2419 9.86315 28.0914 9.73232 28.0423 9.69491C27.9837 9.65016 27.9283 9.6283 27.9059 9.61989C27.8554 9.60097 27.8086 9.59195 27.7855 9.58779C27.7315 9.57804 27.6679 9.57144 27.6065 9.56634C27.4786 9.55572 27.2995 9.54698 27.0822 9.53959C26.6447 9.52472 26.0235 9.5144 25.2816 9.50802C23.7965 9.49527 21.8139 9.49824 19.8192 9.51324C17.8246 9.52823 15.8152 9.55527 14.2766 9.59074C13.5077 9.60847 12.8537 9.62836 12.3768 9.65005C12.1391 9.66086 11.9409 9.67232 11.7929 9.68456C11.7195 9.69063 11.6526 9.69735 11.5969 9.70512C11.5957 9.7053 11.5943 9.70548 11.5929 9.70568C11.5587 9.71039 11.4622 9.72368 11.376 9.76259L35.2965 35.318ZM32.2295 12.3535L32.6253 12.6172C32.8422 12.7617 33.1331 12.9576 33.2706 13.052L33.2707 13.0521C33.3907 13.1343 33.8282 13.4843 34.2858 13.8613C34.7456 14.2401 35.1624 14.5942 35.2501 14.6822C35.75 15.1842 36.6493 16.2739 37.0502 16.8637L37.4637 16.5826L37.0502 16.8637C37.0762 16.902 37.1019 16.9402 37.1274 16.9779C37.2449 17.1522 37.3558 17.3166 37.4553 17.4342C37.5712 17.5712 37.795 17.7986 38.1439 17.7771C38.2987 17.7676 38.4275 17.7099 38.5243 17.6525C38.6208 17.5953 38.7121 17.5221 38.7965 17.4479C38.9314 17.3293 39.0956 17.1652 39.2887 16.9722C39.332 16.9289 39.3768 16.8841 39.4231 16.8381L39.4231 16.838C39.9173 16.346 40.3005 15.9563 40.4396 15.4471C40.5762 14.947 40.4586 14.3953 40.2968 13.6707C40.0045 12.3618 39.3847 11.3118 38.4534 10.5925C37.5241 9.87473 36.3281 9.51976 34.9409 9.51976H34.416H34.2083L34.0617 9.66698L33.1071 10.6258L33.1071 10.6258L32.1523 11.5846L31.7228 12.016L32.2295 12.3535ZM19.3903 26.4576L19.3904 26.4576C20.9158 27.444 22.6295 29.1537 23.6005 30.6567C23.7161 30.8356 23.8287 31.0014 23.9182 31.1253C23.9623 31.1862 24.0049 31.2429 24.0416 31.2875C24.0589 31.3085 24.0824 31.336 24.1085 31.362C24.1208 31.3742 24.1438 31.3963 24.1743 31.4189C24.1897 31.4303 24.2155 31.4483 24.2498 31.4657C24.2792 31.4807 24.3456 31.5114 24.4364 31.5192C24.5506 31.5291 24.6367 31.4964 24.6573 31.4885L24.6578 31.4883C24.6907 31.4758 24.7153 31.4625 24.7273 31.4557C24.7521 31.4416 24.7706 31.4283 24.7776 31.4232C24.7939 31.4113 24.8071 31.4002 24.813 31.3952C24.827 31.3834 24.8416 31.3702 24.8542 31.3586C24.8807 31.3343 24.9164 31.3006 24.9592 31.2596C25.0456 31.1769 25.1699 31.0562 25.327 30.9024C25.6416 30.5944 26.0925 30.1493 26.646 29.6008C27.7531 28.5035 29.2727 26.9898 30.9377 25.3244L36.9907 19.2699L37.256 19.0045L37.0753 18.6756L36.6907 17.9755C36.1273 16.9502 35.0433 15.7006 33.9913 14.7159C33.4618 14.2203 32.9257 13.7779 32.4491 13.4556C32.2112 13.2948 31.9789 13.1576 31.7631 13.0589C31.557 12.9647 31.3218 12.8848 31.0908 12.8848C30.9592 12.8848 30.8634 12.9392 30.8606 12.9408L30.8605 12.9409C30.8348 12.9542 30.8159 12.9668 30.808 12.9722C30.7906 12.9841 30.7775 12.9947 30.7729 12.9985C30.7616 13.0076 30.7521 13.0161 30.7474 13.0203C30.7364 13.0301 30.7241 13.0416 30.7123 13.0527C30.6878 13.0759 30.6537 13.1087 30.6117 13.1496C30.5273 13.2317 30.4048 13.3519 30.2491 13.5055C29.9373 13.8131 29.4893 14.2573 28.9384 14.805C27.8366 15.9006 26.3221 17.4115 24.6607 19.0732C22.9991 20.7352 21.4883 22.2533 20.3927 23.3604C19.845 23.9139 19.4004 24.3652 19.0925 24.6807C18.9388 24.8382 18.8179 24.963 18.7349 25.0502C18.6938 25.0933 18.6597 25.1296 18.635 25.1568C18.6232 25.1697 18.6096 25.185 18.5973 25.1997C18.592 25.2061 18.5808 25.2197 18.5686 25.2367C18.5632 25.2443 18.5505 25.2625 18.5369 25.2869C18.5302 25.2989 18.5184 25.3214 18.507 25.351C18.4987 25.3725 18.4736 25.44 18.4736 25.5307C18.4736 25.6848 18.5449 25.7922 18.558 25.8119C18.5584 25.8125 18.5588 25.813 18.5591 25.8135C18.5828 25.8497 18.6068 25.8768 18.6203 25.8914C18.6489 25.9224 18.6793 25.9496 18.7023 25.9693C18.751 26.0112 18.813 26.059 18.8793 26.1078C19.0142 26.2071 19.1949 26.3312 19.3903 26.4576ZM16.4715 27.2747L16.3326 27.4197V27.6206V30.3938V33.1668V33.6668H16.8326H19.6173H22.402H22.6155L22.7631 33.5127L23.0371 33.2267C23.0434 33.22 23.0501 33.2132 23.0569 33.2061C23.2024 33.0551 23.4429 32.8056 23.428 32.4301C23.4213 32.2603 23.3642 32.106 23.3068 31.9776C23.2479 31.8461 23.1652 31.6926 23.07 31.5189L23.07 31.5189C22.3192 30.1496 21.0889 28.7882 19.9431 27.8706C19.3717 27.413 18.7944 27.044 18.2844 26.8454C18.0303 26.7465 17.7641 26.6784 17.5079 26.6808C17.2437 26.6833 16.9617 26.7631 16.7454 26.9888L16.4715 27.2747Z" stroke="black" stroke-opacity="0.5" shape-rendering="crispEdges"/>
</g>
<defs>
<filter id="filter0_d_6892_59334" x="0.000244141" y="0" width="49.9988" height="50" filterUnits="userSpaceOnUse" color-interpolation-filters="sRGB">
<feFlood flood-opacity="0" result="BackgroundImageFix"/>
<feColorMatrix in="SourceAlpha" type="matrix" values="0 0 0 0 0 0 0 0 0 0 0 0 0 0 0 0 0 0 127 0" result="hardAlpha"/>
<feOffset/>
<feGaussianBlur stdDeviation="4.5"/>
<feComposite in2="hardAlpha" operator="out"/>
<feColorMatrix type="matrix" values="0 0 0 0 0 0 0 0 0 0 0 0 0 0 0 0 0 0 0.6 0"/>
<feBlend mode="normal" in2="BackgroundImageFix" result="effect1_dropShadow_6892_59334"/>
<feBlend mode="normal" in="SourceGraphic" in2="effect1_dropShadow_6892_59334" result="shape"/>
</filter>
</defs>
</svg>
