<svg width="24" height="24" viewBox="0 0 24 24" fill="none" xmlns="http://www.w3.org/2000/svg">
<path fill-rule="evenodd" clip-rule="evenodd" d="M1.82562 1.08994C1.51835 1.20803 1.20626 1.52443 1.08965 1.83611C1.00276 2.06833 1.00001 2.14838 1.00001 4.43596C1.00001 6.72353 1.00276 6.80358 1.08965 7.03581C1.25959 7.49002 1.7848 7.87372 2.23661 7.87372C2.38623 7.87372 2.44776 7.82172 3.26636 7.00379L4.13699 6.13391L8.67018 10.6669L10.6679 8.66896L6.13533 4.13541L7.00515 3.26471C7.82301 2.44605 7.87501 2.38451 7.87501 2.23489C7.87501 1.78304 7.49134 1.25779 7.03716 1.08783C6.80461 1.00082 6.72796 0.998281 4.42514 1.00043C2.14676 1.00258 2.04377 1.00614 1.82562 1.08994ZM16.9506 1.08994C16.5076 1.2602 16.125 1.79077 16.125 2.23489C16.125 2.38451 16.177 2.44605 16.9949 3.26471L17.8647 4.13541L13.3321 8.66896L15.3298 10.6669L19.863 6.13391L20.7336 7.00379C21.5522 7.82172 21.6138 7.87372 21.7634 7.87372C22.2152 7.87372 22.7404 7.49002 22.9104 7.03581C22.9972 6.80358 23 6.72353 23 4.43596C23 1.7166 23.0086 1.78441 22.6112 1.38701C22.2132 0.988956 22.2837 0.997851 19.5501 1.00043C17.2717 1.00258 17.1687 1.00614 16.9506 1.08994ZM4.13707 17.8643L3.2664 16.9943C2.44776 16.1763 2.38623 16.1243 2.23661 16.1243C1.7848 16.1243 1.25959 16.508 1.08965 16.9623C1.00276 17.1945 1.00001 17.2745 1.00001 19.5621C1.00001 22.2815 0.991378 22.2136 1.3888 22.6111C1.78617 23.0085 1.71837 22.9999 4.43751 22.9999C6.72491 22.9999 6.80496 22.9971 7.03716 22.9102C7.49134 22.7403 7.87501 22.215 7.87501 21.7632C7.87501 21.6135 7.82301 21.552 7.00515 20.7333L6.13533 19.8626L10.6681 15.3289L8.66954 13.3315L4.13707 17.8643ZM13.3321 15.3291L17.8647 19.8626L16.9949 20.7333C16.177 21.552 16.125 21.6135 16.125 21.7632C16.125 22.215 16.5087 22.7403 16.9628 22.9102C17.195 22.9971 17.2751 22.9999 19.5625 22.9999C22.2816 22.9999 22.2138 23.0085 22.6112 22.6111C23.0086 22.2136 23 22.2815 23 19.5621C23 17.2745 22.9972 17.1945 22.9104 16.9623C22.7404 16.508 22.2152 16.1243 21.7634 16.1243C21.6138 16.1243 21.5522 16.1763 20.7336 16.9943L19.863 17.8642L15.3298 13.3312L13.3321 15.3291Z" fill="#0078DD" stroke="#0078DD"/>
</svg>
