<svg width="22" height="14" viewBox="0 0 22 14" fill="none" xmlns="http://www.w3.org/2000/svg">
<path fill-rule="evenodd" clip-rule="evenodd" d="M9.73676 0.0239754C6.29315 0.395053 3.42059 1.99605 1.28588 4.73386C0.782557 5.3794 0 6.64631 0 6.81561C0 6.98467 0.782975 8.25265 1.27392 8.8786C3.26383 11.4158 5.84727 12.9751 8.93946 13.5053C9.8237 13.6569 12.1536 13.6569 13.0378 13.5053C14.5336 13.2488 16.1107 12.671 17.3168 11.9378C19.056 10.8804 20.9717 8.85609 21.813 7.18675L22 6.81561L21.813 6.44447C21.5105 5.84418 20.8229 4.85975 20.2299 4.17786C18.3473 2.01286 15.9985 0.669636 13.199 0.156872C12.567 0.0411369 10.3628 -0.0434826 9.73676 0.0239754ZM12.4839 2.79925C13.9883 3.21427 15.1912 4.23956 15.6982 5.5389C15.9676 6.22951 15.97 7.39684 15.7033 8.07914C15.3257 9.0454 14.5004 9.93073 13.5079 10.4342C12.649 10.8698 12.0857 10.9953 10.9886 10.9951C9.91112 10.9949 9.31029 10.865 8.48816 10.4543C7.51734 9.96927 6.64923 9.04113 6.2791 8.09232C6.00751 7.39619 6.00744 6.23616 6.27889 5.53765C6.82728 4.12656 8.09619 3.11415 9.8141 2.71707C10.5443 2.54824 11.7033 2.58393 12.4839 2.79925ZM10.0807 4.34829C8.72664 4.77424 7.99805 5.63741 7.99805 6.81561C7.99805 7.88472 8.60208 8.70016 9.72821 9.1511C10.6226 9.50935 11.8893 9.42521 12.6908 8.95443C14.0327 8.16613 14.4052 6.4902 13.4896 5.36075C13.1184 4.90292 12.6382 4.58724 12.0118 4.38932C11.5417 4.24081 10.4933 4.21854 10.0807 4.34829Z" fill="white"/>
</svg>
