<svg width="20" height="20" viewBox="0 0 20 20" fill="none" xmlns="http://www.w3.org/2000/svg">
<path d="M0 13.7494H1.24825V16.2506H2.49884V17.5012H3.74942V18.7517H6.25058V20H13.7494V18.7517H16.2506V17.5012H17.5012V16.2506H18.7517V13.7494H20V6.25058H18.7517V3.74942H17.5012V2.49884H16.2506V1.24825H13.7494V0H6.25058V1.24825H3.74942V2.49884H2.49884V3.74942H1.24825V6.25058H0V13.7494Z" fill="#AC1F23"/>
<path d="M1.24825 13.7494L2.4988 13.7494L2.49884 16.2506L3.74938 16.2506L3.74942 17.5012L6.25055 17.5012L6.25058 18.7517H13.7494L13.7494 17.5012L16.2506 17.5012L16.2505 16.2506L17.5012 16.2506L17.5011 13.7494L18.7517 13.7494V6.25058L17.5011 6.25058L17.5012 3.74942L16.2505 3.74941L16.2506 2.49884L13.7494 2.49883L13.7494 1.24825H6.25058L6.25055 2.49883L3.74942 2.49884L3.74938 3.74941L2.49884 3.74942L2.4988 6.25058L1.24825 6.25058V13.7494Z" fill="#EF5223"/>
<path d="M5.00013 15H6.25071V16.2506H5.00013V15ZM5.00013 3.74941H6.25071V5H5.00013V3.74941Z" fill="#AC1F23"/>
<path d="M3.74955 5.00002L5.00013 5L5.00013 6.25061H3.74955V5.00002Z" fill="#AC1F23"/>
<path d="M2.4988 6.25058L3.74955 6.25061L3.74952 13.7518H2.49894L2.4988 6.25058Z" fill="#AC1F23"/>
<path d="M3.74955 13.7494H5.00013L5.00013 15L3.74955 15V13.7494ZM6.25055 2.49883L13.7519 2.49886V3.74944L6.25071 3.74941L6.25055 2.49883Z" fill="#AC1F23"/>
<path d="M15.0001 5H16.2507V6.25058H15.0001V5ZM15.0001 13.7494H16.2507V15H15.0001V13.7494Z" fill="#FFCC05"/>
<path d="M16.2507 6.25058L17.5011 6.25058L17.5013 13.7517H16.2507V6.25058ZM6.25071 16.2506L13.7519 16.2506V17.5012L6.25055 17.5012L6.25071 16.2506Z" fill="#FFCC05"/>
<path d="M13.7496 15L15.0001 15L15.0001 16.2506H13.7496V15ZM13.7496 3.74942H15.0001L15.0001 5L13.7496 5V3.74942Z" fill="#FFCC05"/>
<path d="M15.0001 6.25058V5L13.7496 5V3.74942L6.25071 3.74941V5H5.00013L5.00013 6.25061H3.74955L3.74952 13.7518L4.99999 13.7517V15.0023H6.25058V16.2529H13.7494V15.0023H15L15.0001 13.7494H16.2507L16.2506 6.24825H15L15.0001 6.25058Z" fill="#EF5223"/>
<path d="M14.0151 8.39312V7.59201H13.2139V6.79089H12.4105V5.98977H11.607V5.18632H10.8059V4.38521H9.19904V5.18632H8.39792V5.98744H7.59447V6.78856H6.79335V7.59201H5.99223V8.39312H5.18879V11.6023H5.9899V12.4057H6.79102V13.2068H7.59447V14.0079H8.39326V14.8114H9.19438V15.6125H10.8013V14.8114H11.6024V14.0103H12.4058V13.2091H13.207V12.4057H14.0081V11.6069H14.8115V8.39545H14.0104V8.39312H14.0151Z" fill="black"/>
<path d="M13.2093 8.39309V7.59198H12.4082V6.79086H11.607L11.607 5.98977L10.8059 5.98974L10.8059 5.18632H9.19904L9.19903 5.98741L8.39792 5.98744L8.39791 6.78853L7.59447 6.78856L7.59447 7.59198L6.79335 7.59201L6.79335 8.39309L5.99223 8.39312L5.99223 9.99999H6.79335V10.8011H5.99223V11.6022H6.79335V12.4057H7.59447L7.59447 13.2068L8.39326 13.2068L8.39326 14.0079L9.19438 14.0079L9.19438 14.8114H10.8013L10.8013 14.0102H10.0002V13.2091H10.8013V14.0102L11.6024 14.0103L11.6024 13.2091L12.4058 13.2091L12.4058 12.4057H11.607V11.6069H10.8059V12.408H10.0002V10.8011H11.607V11.6022H12.4082V12.4057H13.2093V11.6069H14.0104V10.8058H12.4035V9.99999H14.0104L14.0104 8.39312L13.2093 8.39309ZM7.59214 9.99999H8.39326V11.6069H7.59214V9.99999Z" fill="#1D1D1D"/>
<path d="M10.0002 10.8011L10.8012 10.8011V9.1942H10.0001L10.0002 10.8011Z" fill="#2E2E2E"/>
<path d="M9.19891 8.39312H7.59202V9.19424L10.0001 9.1942L10 7.58734H9.19891V8.39312ZM9.19891 5.18399H10V5.98511H9.19891V5.18399Z" fill="#2E2E2E"/>
<path d="M10.0001 6.79085V7.59197H11.607L11.607 6.79086L10.0001 6.79085ZM10.8012 8.39309H11.6024V9.19421L10.8012 9.1942V8.39309ZM12.4082 7.59198L12.4081 9.19886H13.2093L13.2093 7.59198H12.4082Z" fill="#2E2E2E"/>
<path d="M11.6066 11.6069H10.8055V12.408H9.99969V11.6069H9.19857V10.8058H9.99969V9.19891H7.59168V10H8.3928V11.6069H7.59168V10H6.79056V10.8011H5.98944V11.6023H6.79056V12.4057H7.59168V13.2068H8.3928V12.4057H9.19391V13.2068H8.3928V14.0079H9.19391V14.8114H10.8008V14.0103H9.99969V13.2092H10.8008V14.0103H11.6019V13.2092H12.4054V12.4057H11.6066V11.6069Z" fill="#AC1F23"/>
<path d="M11.6065 10L11.6066 11.6069L12.4076 11.6069V12.408H13.2088V11.6069H14.0099V10.8058H12.403V10H11.6065ZM8.39273 7.59199H9.99963V6.79088H7.59161V8.39777H8.39273V7.59199Z" fill="#AC1F23"/>
<path d="M7.59168 9.19891L7.59161 8.39777L5.98473 8.39779V10.0047H6.78584V9.20357H7.58929V9.19891L7.59168 9.19891ZM9.99969 9.19891L10.8007 9.19891V7.59202L9.99963 7.59199L9.99969 9.19891Z" fill="#AC1F23"/>
<path d="M10.8007 9.19891L11.6018 9.19889V10H10.8006L10.8007 9.19891ZM11.6064 8.39311H12.4075V9.19423H11.6064V8.39311ZM14.0098 10V9.19889H12.4029L12.403 10H14.0098ZM11.6064 6.79088H12.4075V7.59199H11.6064V6.79088Z" fill="#AC1F23"/>
<path d="M11.6064 6.79088L11.6065 5.98976H9.99956L9.99963 6.79088H11.6064Z" fill="#AC1F23"/>
<path d="M13.2091 10.8011H12.408L12.4076 12.408H13.2088V11.6069H14.0099V10.8058L13.2091 10.8058V10.8011ZM10.8011 12.408L9.99969 12.408V11.6069H9.19857V10.8058H9.99969V9.19891H7.59168V10L8.39326 9.99999L8.3928 11.6069H7.59168V10H6.79056V10.8011H5.98944L5.9899 11.6023L6.79056 11.6023L6.79102 12.4057L7.59168 12.4057V13.2068H8.3928V12.4057H9.19391V13.2068H8.3928V14.0079L9.19438 14.0079L9.19391 14.8114H10.8008V14.0103H9.99969V13.2092H10.8008V14.0103H11.6019V13.2092H12.4054L12.4058 12.4057L10.8011 12.4057V12.408ZM8.39771 6.79088V7.592H10.0046V6.79088H8.39771Z" fill="#EF5223"/>
<path d="M6.79069 8.39309H5.98957V9.99998L6.79056 10L6.79069 8.39309ZM10.8012 8.39309L10.8007 7.59202L9.99963 7.59199L9.99969 9.19891L10.8007 9.19891L10.8012 8.39309ZM10 5.98511L10.8009 5.98508V6.78619H9.99982L10 5.98511ZM11.6064 8.39311H12.4075V9.19423H11.6064V8.39311Z" fill="#EF5223"/>
<path d="M9.99969 13.2092L8.39267 13.2091V14.0103H9.19379V14.8137H10.8007V14.0126H9.99957L9.99969 13.2092ZM10.8008 13.2092H11.6019V14.0103H10.8008V13.2092ZM11.6065 12.408L12.4076 12.408L12.4076 13.2091H11.6065V12.408Z" fill="#F37721"/>
<path d="M12.4076 11.6069H13.2088V12.408H12.4076V11.6069ZM13.2091 10.8011L14.0098 10.8011V11.6022H13.2087L13.2091 10.8011ZM9.99969 12.408L10.8011 12.408L10.8008 13.2092H9.99969V12.408Z" fill="#F37721"/>
<path d="M9.19857 11.6069H9.99969V12.408L9.19851 12.408L9.19857 11.6069ZM9.19851 10.8011H9.99963V9.1942L7.59202 9.19424L7.59168 10H8.3928V11.6069L9.19385 11.6069V10.8034H9.19851V10.8011Z" fill="#F37721"/>
<path d="M8.3928 11.6069H7.59168L7.59175 10.8057H5.98485V11.6069H6.78597V12.408H7.58942V13.2091L8.39267 13.2091L8.3928 11.6069ZM5.98485 8.39308H6.78597V9.1942H5.98485V8.39308ZM9.99976 8.39308L10.8012 8.39309V9.1942L9.99963 9.1942L9.99976 8.39308Z" fill="#F37721"/>
<path d="M9.19892 10H10L9.99963 10.8011H9.19851L9.19892 10ZM7.59168 9.19891L8.39314 9.19888L8.39326 9.99999H7.59214L7.59168 9.19891ZM5.98485 8.39308H6.78597V9.1942H5.98485V8.39308Z" fill="#5B3E3D"/>
<path d="M9.99969 12.408L10.8011 12.408L10.8008 13.2092H9.99969V12.408Z" fill="#DF2B26"/>
<path d="M9.19857 11.6069H9.99969V12.408L9.19851 12.408L9.19857 11.6069ZM9.19892 10H10L9.99969 9.19891L8.39314 9.19888L8.3928 11.6069L9.19385 11.6069L9.19892 10ZM9.99976 8.39308L10.8012 8.39309V9.1942L9.99963 9.1942L9.99976 8.39308Z" fill="#DF2B26"/>
<path d="M9.19845 14.0149H9.99957V14.816H9.19845V14.0149ZM8.39267 13.2091L9.19379 13.2091V14.0103H8.39267V13.2091Z" fill="#FFCC05"/>
<path d="M7.59161 12.408H8.39273L8.39267 13.2091L7.59161 13.2091V12.408Z" fill="#FFCC05"/>
<path d="M6.79063 11.6069L7.59168 11.6069L7.59161 12.408L6.79063 12.408V11.6069ZM5.98485 10.8011H6.78597V11.6022H5.98485V10.8011Z" fill="#FFCC05"/>
<g opacity="0.5">
<path d="M3.05176e-05 13.7494H1.24828V16.2506H2.49887V17.5012H3.74945V18.7517H6.25061V20H13.7494V18.7517H16.2506V17.5012H17.5012V16.2506H18.7518V13.7494H20V6.25058H18.7518V3.74942H17.5012V2.49884H16.2506V1.24825H13.7494V0H6.25061V1.24825H3.74945V2.49884H2.49887V3.74942H1.24828V6.25058H3.05176e-05V13.7494Z" fill="#F58018"/>
<path d="M1.24828 13.7494L2.49883 13.7494L2.49887 16.2506L3.74941 16.2506L3.74945 17.5012L6.25058 17.5012L6.25061 18.7517H13.7494L13.7494 17.5012L16.2506 17.5012L16.2506 16.2506L17.5012 16.2506L17.5012 13.7494L18.7518 13.7494V6.25058L17.5012 6.25058L17.5012 3.74942L16.2506 3.74941L16.2506 2.49884L13.7494 2.49883L13.7494 1.24825H6.25061L6.25058 2.49883L3.74945 2.49884L3.74941 3.74941L2.49887 3.74942L2.49883 6.25058L1.24828 6.25058V13.7494Z" fill="#F58018"/>
<path d="M5.00016 15H6.25074V16.2506H5.00016V15ZM5.00016 3.74941H6.25074V5H5.00016V3.74941Z" fill="#F58018"/>
<path d="M3.74958 5.00002L5.00016 5L5.00016 6.25061H3.74958V5.00002Z" fill="#F58018"/>
<path d="M2.49883 6.25058L3.74958 6.25061L3.74955 13.7518H2.49897L2.49883 6.25058Z" fill="#F58018"/>
<path d="M3.74958 13.7494H5.00016L5.00016 15L3.74958 15V13.7494ZM6.25058 2.49883L13.7519 2.49886V3.74944L6.25074 3.74941L6.25058 2.49883Z" fill="#F58018"/>
<path d="M15.0002 5H16.2507V6.25058H15.0002V5ZM15.0002 13.7494H16.2507V15H15.0002V13.7494Z" fill="#F58018"/>
<path d="M16.2507 6.25058L17.5012 6.25058L17.5013 13.7517H16.2507V6.25058ZM6.25074 16.2506L13.7519 16.2506V17.5012L6.25058 17.5012L6.25074 16.2506Z" fill="#F58018"/>
<path d="M13.7496 15L15.0002 15L15.0002 16.2506H13.7496V15ZM13.7496 3.74942H15.0002L15.0002 5L13.7496 5V3.74942Z" fill="#F58018"/>
<path d="M15.0002 6.25058V5L13.7496 5V3.74942L6.25074 3.74941V5H5.00016L5.00016 6.25061H3.74958L3.74955 13.7518L5.00002 13.7517V15.0023H6.25061V16.2529H13.7494V15.0023H15L15.0002 13.7494H16.2507L16.2506 6.24825H15L15.0002 6.25058Z" fill="#F58018"/>
<path d="M14.0151 8.39312V7.59201H13.214V6.79089H12.4105V5.98977H11.6071V5.18632H10.806V4.38521H9.19907V5.18632H8.39795V5.98744H7.5945V6.78856H6.79338V7.59201H5.99226V8.39312H5.18882V11.6023H5.98994V12.4057H6.79105V13.2068H7.5945V14.0079H8.39329V14.8114H9.19441V15.6125H10.8013V14.8114H11.6024V14.0103H12.4059V13.2091H13.207V12.4057H14.0081V11.6069H14.8115V8.39545H14.0104V8.39312H14.0151Z" fill="#F58018"/>
<path d="M13.2093 8.39309V7.59198H12.4082V6.79086H11.6071L11.6071 5.98977L10.806 5.98974L10.806 5.18632H9.19907L9.19906 5.98741L8.39795 5.98744L8.39795 6.78853L7.5945 6.78856L7.5945 7.59198L6.79338 7.59201L6.79338 8.39309L5.99226 8.39312L5.99226 9.99999H6.79338V10.8011H5.99226V11.6022H6.79338V12.4057H7.5945L7.5945 13.2068L8.39329 13.2068L8.39329 14.0079L9.19441 14.0079L9.19441 14.8114H10.8013L10.8013 14.0102H10.0002V13.2091H10.8013V14.0102L11.6024 14.0103L11.6024 13.2091L12.4059 13.2091L12.4059 12.4057H11.6071V11.6069H10.806V12.408H10.0002V10.8011H11.6071V11.6022H12.4082V12.4057H13.2093V11.6069H14.0104V10.8058H12.4035V9.99999H14.0104L14.0104 8.39312L13.2093 8.39309ZM7.59217 9.99999H8.39329V11.6069H7.59217V9.99999Z" fill="#F58018"/>
<path d="M10.0002 10.8011L10.8013 10.8011V9.1942H10.0002L10.0002 10.8011Z" fill="#F58018"/>
<path d="M9.19894 8.39312H7.59205V9.19424L10.0002 9.1942L10.0001 7.58734H9.19894V8.39312ZM9.19894 5.18399H10.0001V5.98511H9.19894V5.18399Z" fill="#F58018"/>
<path d="M10.0002 6.79085V7.59197H11.6071L11.6071 6.79086L10.0002 6.79085ZM10.8013 8.39309H11.6024V9.19421L10.8013 9.1942V8.39309ZM12.4082 7.59198L12.4082 9.19886H13.2093L13.2093 7.59198H12.4082Z" fill="#F58018"/>
<path d="M11.6071 11.6069H10.806V12.408H10.0002L9.99972 11.6069H9.1986V10.8058H9.99972V9.19891H7.59171L7.59217 9.99999H8.39329V11.6069H7.59217V9.99999L6.79059 10V10.8011H5.98947L5.98994 11.6023L6.79059 11.6023L6.79105 12.4057L7.59171 12.4057V13.2068L8.39329 13.2068L8.39283 12.4057H9.19394V13.2068L8.39329 13.2068L8.39329 14.0079L9.19441 14.0079L9.19441 14.8114H10.8013L10.8013 14.0102H10.0002V13.2091H10.8013V14.0102L11.6024 14.0103L11.6024 13.2091L12.4059 13.2091L12.4059 12.4057H11.6071V11.6069Z" fill="#F58018"/>
<path d="M11.6065 10L11.6071 11.6069L12.4077 11.6069V12.408H13.2088L13.2093 11.6069H14.0104V10.8058H12.4035V9.99999L11.6065 10ZM8.39276 7.59199L10.0002 7.59197V6.79085L7.59165 6.79088V8.39777H8.39276V7.59199Z" fill="#F58018"/>
<path d="M7.59171 9.19891L7.59165 8.39777L5.98476 8.39779V10.0047H6.78587V9.20357H7.58932V9.19891L7.59171 9.19891ZM9.99972 9.19891L10.8008 9.19891V7.59202L10.0002 7.59197L9.99972 9.19891Z" fill="#F58018"/>
<path d="M10.8008 9.19891L11.6018 9.19889V10H10.8007L10.8008 9.19891ZM11.6065 8.39311H12.4076V9.19423H11.6065V8.39311ZM14.0104 9.99999L14.0098 9.19889H12.4029L12.4035 9.99999H14.0104ZM11.6071 6.79086H12.4082V7.59198L11.6071 7.59197L11.6071 6.79086Z" fill="#F58018"/>
<path d="M11.6071 6.79086L11.6071 5.98977L9.99959 5.98976L10.0002 6.79085L11.6071 6.79086Z" fill="#F58018"/>
<path d="M13.2091 10.8011H12.408L12.4077 12.408H13.2088L13.2093 11.6069H14.0104V10.8058L13.2091 10.8058V10.8011ZM10.8011 12.408L10.0002 12.408L9.99972 11.6069H9.1986V10.8058H9.99972V9.19891H7.59171L7.59217 9.99999H8.39329V11.6069H7.59217V9.99999L6.79059 10V10.8011H5.98947L5.98994 11.6023L6.79059 11.6023L6.79105 12.4057L7.59171 12.4057V13.2068L8.39329 13.2068L8.39283 12.4057H9.19394V13.2068L8.39329 13.2068L8.39329 14.0079L9.19441 14.0079L9.19441 14.8114H10.8013L10.8013 14.0102H10.0002V13.2091H10.8013V14.0102L11.6024 14.0103L11.6024 13.2091L12.4059 13.2091L12.4059 12.4057L10.8011 12.4057V12.408ZM8.39774 6.79088V7.592H10.0046V6.79088H8.39774Z" fill="#F58018"/>
<path d="M6.79072 8.39309H5.9896V9.99998L6.79059 10L6.79072 8.39309ZM10.8013 8.39309L10.8008 7.59202L10.0002 7.59197L9.99972 9.19891L10.8008 9.19891L10.8013 8.39309ZM10.0001 5.98511L10.801 5.98508V6.78619H9.99985L10.0001 5.98511ZM11.6065 8.39311H12.4076V9.19423H11.6065V8.39311Z" fill="#F58018"/>
<path d="M10.0002 13.2091L8.3927 13.2091V14.0103H9.19382V14.8137H10.8007V14.0126H9.9996L10.0002 13.2091ZM10.8013 13.2091H11.6024L11.6024 14.0103L10.8013 14.0102V13.2091ZM11.6065 12.408L12.4077 12.408L12.4076 13.2091H11.6065V12.408Z" fill="#F58018"/>
<path d="M12.4077 11.6069L13.2093 11.6069L13.2088 12.408H12.4077V11.6069ZM13.2091 10.8011L14.0098 10.8011V11.6022H13.2087L13.2091 10.8011ZM10.0002 12.408L10.8011 12.408L10.8013 13.2091H10.0002V12.408Z" fill="#F58018"/>
<path d="M9.1986 11.6069H9.99972L10.0002 12.408L9.19854 12.408L9.1986 11.6069ZM9.19854 10.8011L10.0002 10.8011L10.0002 9.1942L7.59205 9.19424L7.59217 9.99999H8.39329V11.6069L9.19388 11.6069V10.8034H9.19854V10.8011Z" fill="#F58018"/>
<path d="M8.39329 11.6069H7.59217L7.59178 10.8057H5.98488V11.6069H6.786V12.408H7.58945V13.2091L8.3927 13.2091L8.39329 11.6069ZM5.98488 8.39308H6.786V9.1942H5.98488V8.39308ZM9.99979 8.39308L10.8013 8.39309V9.1942H10.0002L9.99979 8.39308Z" fill="#F58018"/>
<path d="M9.19895 10H10.0001L10.0002 10.8011L9.19854 10.8011L9.19895 10ZM7.59171 9.19891L8.39317 9.19888L8.39329 9.99999H7.59217L7.59171 9.19891ZM5.98488 8.39308H6.786V9.1942H5.98488V8.39308Z" fill="#F58018"/>
<path d="M10.0002 12.408L10.8011 12.408L10.8013 13.2091H10.0002V12.408Z" fill="#F58018"/>
<path d="M9.1986 11.6069H9.99972L10.0002 12.408L9.19854 12.408L9.1986 11.6069ZM9.19895 10H10.0001L9.99972 9.19891L8.39317 9.19888L8.39329 11.6069L9.19388 11.6069L9.19895 10ZM9.99979 8.39308L10.8013 8.39309V9.1942H10.0002L9.99979 8.39308Z" fill="#F58018"/>
<path d="M9.19848 14.0149H9.9996V14.816H9.19848V14.0149ZM8.3927 13.2091L9.19382 13.2091V14.0103H8.3927V13.2091Z" fill="#F58018"/>
<path d="M7.59165 12.408H8.39276L8.3927 13.2091L7.59165 13.2091V12.408Z" fill="#F58018"/>
<path d="M6.79066 11.6069L7.59217 11.6069L7.59165 12.408L6.79066 12.408V11.6069ZM5.98488 10.8011H6.786V11.6022H5.98488V10.8011Z" fill="#F58018"/>
</g>
</svg>
