<svg width="66" height="40" viewBox="0 0 66 40" fill="none" xmlns="http://www.w3.org/2000/svg">
<g filter="url(#filter0_d_13410_20105)">
<path d="M13.7607 28.9645C14.1123 29.6032 14.7837 30 15.5128 30L56 30C57.1046 30 58 29.1046 58 28L58 18.5L58 9C58 7.89543 57.1046 7 56 7L15.5128 7C14.7837 7 14.1123 7.39677 13.7607 8.03549L8.53096 17.5355C8.20038 18.136 8.20038 18.864 8.53096 19.4645L13.7607 28.9645Z" fill="#00A44B"/>
<path d="M13.7607 28.9645C14.1123 29.6032 14.7837 30 15.5128 30L56 30C57.1046 30 58 29.1046 58 28L58 18.5L58 9C58 7.89543 57.1046 7 56 7L15.5128 7C14.7837 7 14.1123 7.39677 13.7607 8.03549L8.53096 17.5355C8.20038 18.136 8.20038 18.864 8.53096 19.4645L13.7607 28.9645Z" fill="url(#paint0_linear_13410_20105)" fill-opacity="0.25"/>
<path d="M14.6367 28.4823C14.8126 28.8016 15.1482 29 15.5128 29L56 29C56.5523 29 57 28.5523 57 28L57 18.5L57 9C57 8.44772 56.5523 8 56 8L15.5128 8C15.1482 8 14.8126 8.19839 14.6367 8.51774L9.40699 18.0177C9.2417 18.318 9.2417 18.682 9.40699 18.9823L14.6367 28.4823Z" stroke="#90F410" stroke-opacity="0.5" stroke-width="2"/>
<path d="M26.253 19.16L21.453 19.16L21.453 23L19.653 23L19.653 15.8C19.653 15.472 19.769 15.192 20.001 14.96C20.241 14.72 20.525 14.6 20.853 14.6L26.253 14.6L26.253 16.28L21.453 16.28L21.453 17.48L26.253 17.48L26.253 19.16ZM34.1772 23L32.3772 23L32.3772 19.16L28.7772 19.16L28.7772 23L26.9772 23L26.9772 14.6L32.9772 14.6C33.3052 14.6 33.5852 14.72 33.8172 14.96C34.0572 15.192 34.1772 15.472 34.1772 15.8L34.1772 17.12C34.1772 17.448 34.0572 17.732 33.8172 17.972C33.5852 18.204 33.3052 18.32 32.9772 18.32C33.3052 18.32 33.5852 18.44 33.8172 18.68C34.0572 18.912 34.1772 19.192 34.1772 19.52L34.1772 23ZM32.3772 17.48L32.3772 16.28L28.7772 16.28L28.7772 17.48L32.3772 17.48ZM41.4991 23L36.0991 23C35.7711 23 35.4871 22.884 35.2471 22.652C35.0151 22.412 34.8991 22.128 34.8991 21.8L34.8991 15.8C34.8991 15.472 35.0151 15.192 35.2471 14.96C35.4871 14.72 35.7711 14.6 36.0991 14.6L41.4991 14.6L41.4991 16.28L36.6991 16.28L36.6991 17.48L41.4991 17.48L41.4991 19.16L36.6991 19.16L36.6991 21.32L41.4991 21.32L41.4991 23ZM48.8233 23L43.4233 23C43.0953 23 42.8113 22.884 42.5713 22.652C42.3393 22.412 42.2233 22.128 42.2233 21.8L42.2233 15.8C42.2233 15.472 42.3393 15.192 42.5713 14.96C42.8113 14.72 43.0953 14.6 43.4233 14.6L48.8233 14.6L48.8233 16.28L44.0233 16.28L44.0233 17.48L48.8233 17.48L48.8233 19.16L44.0233 19.16L44.0233 21.32L48.8233 21.32L48.8233 23ZM51.3475 20.12L49.5475 20.12L49.5475 14.6L51.3475 14.6L51.3475 20.12ZM51.3475 23L49.5475 23L49.5475 21.32L51.3475 21.32L51.3475 23Z" fill="white"/>
</g>
<defs>
<filter id="filter0_d_13410_20105" x="0.0815806" y="0.331857" width="65.8368" height="38.8368" filterUnits="userSpaceOnUse" color-interpolation-filters="sRGB">
<feFlood flood-opacity="0" result="BackgroundImageFix"/>
<feColorMatrix in="SourceAlpha" type="matrix" values="0 0 0 0 0 0 0 0 0 0 0 0 0 0 0 0 0 0 127 0" result="hardAlpha"/>
<feOffset dy="1.25028"/>
<feGaussianBlur stdDeviation="3.95921"/>
<feComposite in2="hardAlpha" operator="out"/>
<feColorMatrix type="matrix" values="0 0 0 0 0 0 0 0 0 0 0 0 0 0 0 0 0 0 0.6 0"/>
<feBlend mode="normal" in2="BackgroundImageFix" result="effect1_dropShadow_13410_20105"/>
<feBlend mode="normal" in="SourceGraphic" in2="effect1_dropShadow_13410_20105" result="shape"/>
</filter>
<linearGradient id="paint0_linear_13410_20105" x1="10.3256" y1="18.5" x2="55.6744" y2="18.5" gradientUnits="userSpaceOnUse">
<stop offset="0.208333" stop-opacity="0"/>
<stop offset="0.963542" stop-color="#052500"/>
</linearGradient>
</defs>
</svg>
