<svg width="20" height="20" viewBox="0 0 20 20" fill="none" xmlns="http://www.w3.org/2000/svg">
<path d="M0 13.7494H1.24825V16.2506H2.49884V17.5012H3.74942V18.7517H6.25058V20H13.7494V18.7517H16.2506V17.5012H17.5012V16.2506H18.7517V13.7494H20V6.25058H18.7517V3.74942H17.5012V2.49884H16.2506V1.24825H13.7494V0H6.25058V1.24825H3.74942V2.49884H2.49884V3.74942H1.24825V6.25058H0V13.7494Z" fill="#14280F"/>
<path d="M1.24825 13.7494L2.4988 13.7494L2.49884 16.2506L3.74938 16.2506L3.74942 17.5012L6.25055 17.5012L6.25058 18.7517H13.7494L13.7494 17.5012L16.2506 17.5012L16.2505 16.2506L17.5012 16.2506L17.5011 13.7494L18.7517 13.7494V6.25058L17.5011 6.25058L17.5012 3.74942L16.2505 3.74941L16.2506 2.49884L13.7494 2.49883L13.7494 1.24825H6.25058L6.25055 2.49883L3.74942 2.49884L3.74938 3.74941L2.49884 3.74942L2.4988 6.25058L1.24825 6.25058V13.7494Z" fill="#298356"/>
<path d="M5.00013 15H6.25071V16.2506H5.00013V15ZM5.00013 3.74942H6.25071V5H5.00013V3.74942Z" fill="#14280F"/>
<path d="M3.74955 5.00003L5.00013 5L5.00013 6.25061H3.74955V5.00003Z" fill="#14280F"/>
<path d="M2.4988 6.25058L3.74955 6.25061L3.74952 13.7518H2.49894L2.4988 6.25058Z" fill="#14280F"/>
<path d="M3.74955 13.7494H5.00013L5.00013 15L3.74955 15V13.7494ZM6.25055 2.49883L13.7519 2.49886V3.74944L6.25071 3.74942L6.25055 2.49883Z" fill="#14280F"/>
<path d="M15.0001 5H16.2507V6.25058H15.0001V5ZM15.0001 13.7494H16.2507V15H15.0001V13.7494Z" fill="#53BC34"/>
<path d="M16.2507 6.25058L17.5011 6.25058L17.5013 13.7517H16.2507V6.25058ZM6.25071 16.2506L13.7519 16.2506V17.5012L6.25055 17.5012L6.25071 16.2506Z" fill="#53BC34"/>
<path d="M13.7496 15L15.0001 15L15.0001 16.2506H13.7496V15ZM13.7496 3.74941H15.0001L15.0001 5L13.7496 5V3.74941Z" fill="#53BC34"/>
<path d="M15.0001 6.25058V5L13.7496 5V3.74941L6.25071 3.74942V5H5.00013L5.00013 6.25061H3.74955L3.74952 13.7518L4.99999 13.7517V15.0023H6.25058V16.2529H13.7494V15.0023H15L15.0001 13.7494H16.2507L16.2506 6.24825H15L15.0001 6.25058Z" fill="#298356"/>
<path d="M14.0151 8.3931V7.59198H13.2139V6.79086H12.4105V5.98974H11.607V5.1863H10.8059V4.38518H9.19904V5.1863H8.39792V5.98742H7.59447V6.78853H6.79335V7.59198H5.99223V8.3931H5.18879V11.6022H5.98991V12.4057H6.79102V13.2068H7.59447V14.0079H8.39326V14.8114H9.19438V15.6125H10.8013V14.8114H11.6024V14.0102H12.4058V13.2091H13.207V12.4057H14.0081V11.6069H14.8115V8.39543H14.0104V8.3931H14.0151Z" fill="#14280F"/>
<path d="M13.2093 8.39312V7.59201H12.4082V6.79089H11.607L11.607 5.98974L10.8059 5.98977L10.8059 5.1863H9.19904L9.19903 5.98744L8.39792 5.98742L8.39791 6.78856L7.59447 6.78853L7.59447 7.59201L6.79335 7.59198L6.79335 8.39312L5.99223 8.3931L5.99223 11.6023H6.79335V12.4057H7.59447L7.59447 13.2068L8.39326 13.2068L8.39326 14.0079L9.19437 14.0079L9.19438 14.8114H10.8013L10.8013 14.0103L11.6024 14.0102L11.6024 13.2091L12.4058 13.2091L12.4058 12.4057L13.207 12.4057L13.2069 11.6069L14.0081 11.6069L14.0081 8.39545H13.2069V8.39312H13.2093Z" fill="#285145"/>
<path d="M14.015 9.1989V8.39778H13.2139V7.59433H11.607V6.79322H10.8059L10.8059 5.1863H9.19904L9.199 6.79322H8.39789V7.59433H9.199V8.39312H10.0001V10H9.199V8.39312H8.39789V7.59201H6.79099V8.39312H7.59211V10H8.39323V10.8011H7.59211V10H6.79099V8.39312H5.98987L5.98991 11.6022L6.79099 11.6023L6.79102 12.4057L7.59211 12.4057V13.2068H8.39326L8.39326 14.0079L9.19437 14.0079L9.19438 14.8114H10.8013L10.8013 14.0103L11.6024 14.0102L11.6024 13.2091L12.4058 13.2091L12.4058 12.4057L13.207 12.4057L13.2069 11.6069L14.0081 11.6069L14.008 10H13.2069V9.1989H14.015ZM11.607 11.6069V12.408H10.8059V13.2091H10.0001V12.408H10.8012V11.6069H10.0001V10.8058H10.8012V11.6069H11.607V10.8058H12.4081V11.6069H11.607ZM12.4081 10H11.607V8.39312H12.4081V10Z" fill="#298356"/>
<path d="M10.8008 10.8011H11.6019V11.6022H10.8008V10.8011ZM11.6065 9.99998H12.4077V10.8011H11.6065V9.99998ZM9.19854 9.99998H8.39742V11.6069H9.19854V12.408H9.99966V10.8011H9.19854V9.99998ZM9.19854 9.19887V8.39775H8.39742V7.5943H7.59397V9.99998H8.39276V9.19887H9.19854Z" fill="#53BC34"/>
<path d="M5.98485 8.39309H6.78597V9.19421H5.98485V8.39309ZM9.99976 7.59197H10.8009V5.98508H9.99976V5.18396H9.19864V6.79086H9.99976V7.59197ZM11.607 8.39312L10.8055 8.39309V9.19421H9.99976L10.0001 10L11.6065 9.99998L11.607 8.39312ZM12.4081 8.39312L12.4077 9.99998L13.2089 9.99999L13.2093 8.39312H12.4081Z" fill="#53BC34"/>
<path d="M13.2089 9.99999L13.2093 10.8011H12.4082V11.6022H11.607V12.4057H10.8059V13.2068H9.19903V12.4057H8.39791V11.6069H7.59447V10.8058H6.79335V10H5.99223V11.6069H6.79335V12.408H7.59447V13.2091H8.39326V14.0102H9.19437V14.8137H10.8013V14.0126H11.6024V13.2115H12.4058V12.408H13.2069V11.6069L14.0081 11.6069L14.008 10L13.2089 9.99999Z" fill="#8E8DAA"/>
<path d="M9.99998 14.0149H10.8011V14.816H9.99998V14.0149ZM10.8011 13.2091L11.6024 13.2091L11.6024 14.0102L10.8013 14.0103L10.8011 13.2091ZM11.607 12.408L12.408 12.408V13.2091H11.6069L11.607 12.408Z" fill="#696884"/>
<path d="M12.4081 11.6069L13.2091 11.6069V12.408L12.408 12.408L12.4081 11.6069ZM13.2093 10.8011L14.0102 10.8011V11.6022H13.2091L13.2093 10.8011Z" fill="#696884"/>
<path d="M9.19875 13.2091L10.0001 13.2091L9.99987 14.0102H9.19875V13.2091ZM8.39298 12.408H9.1941V13.2091L8.39326 13.2091L8.39298 12.408Z" fill="#BFBDD4"/>
<path d="M7.59175 11.6069H8.39286L8.39298 12.408L7.59175 12.408V11.6069ZM6.79063 10.8011L7.59211 10.8011L7.59175 11.6022L6.79099 11.6023L6.79063 10.8011ZM5.98485 10H6.78597V10.8011H5.98485V10Z" fill="#BFBDD4"/>
<g opacity="0.4">
<path d="M3.05176e-05 13.7494H1.24828V16.2506H2.49887V17.5012H3.74945V18.7517H6.25061V20H13.7494V18.7517H16.2506V17.5012H17.5012V16.2506H18.7518V13.7494H20V6.25058H18.7518V3.74942H17.5012V2.49884H16.2506V1.24825H13.7494V0H6.25061V1.24825H3.74945V2.49884H2.49887V3.74942H1.24828V6.25058H3.05176e-05V13.7494Z" fill="#55DB39"/>
<path d="M1.24828 13.7494L2.49883 13.7494L2.49887 16.2506L3.74941 16.2506L3.74945 17.5012L6.25058 17.5012L6.25061 18.7517H13.7494L13.7494 17.5012L16.2506 17.5012L16.2506 16.2506L17.5012 16.2506L17.5012 13.7494L18.7518 13.7494V6.25058L17.5012 6.25058L17.5012 3.74942L16.2506 3.74941L16.2506 2.49884L13.7494 2.49883L13.7494 1.24825H6.25061L6.25058 2.49883L3.74945 2.49884L3.74941 3.74941L2.49887 3.74942L2.49883 6.25058L1.24828 6.25058V13.7494Z" fill="#55DB39"/>
<path d="M5.00016 15H6.25074V16.2506H5.00016V15ZM5.00016 3.74942H6.25074V5H5.00016V3.74942Z" fill="#55DB39"/>
<path d="M3.74958 5.00003L5.00016 5L5.00016 6.25061H3.74958V5.00003Z" fill="#55DB39"/>
<path d="M2.49883 6.25058L3.74958 6.25061L3.74955 13.7518H2.49897L2.49883 6.25058Z" fill="#55DB39"/>
<path d="M3.74958 13.7494H5.00016L5.00016 15L3.74958 15V13.7494ZM6.25058 2.49883L13.7519 2.49886V3.74944L6.25074 3.74942L6.25058 2.49883Z" fill="#55DB39"/>
<path d="M15.0002 5H16.2507V6.25058H15.0002V5ZM15.0002 13.7494H16.2507V15H15.0002V13.7494Z" fill="#55DB39"/>
<path d="M16.2507 6.25058L17.5012 6.25058L17.5013 13.7517H16.2507V6.25058ZM6.25074 16.2506L13.7519 16.2506V17.5012L6.25058 17.5012L6.25074 16.2506Z" fill="#55DB39"/>
<path d="M13.7496 15L15.0002 15L15.0002 16.2506H13.7496V15ZM13.7496 3.74941H15.0002L15.0002 5L13.7496 5V3.74941Z" fill="#55DB39"/>
<path d="M15.0002 6.25058V5L13.7496 5V3.74941L6.25074 3.74942V5H5.00016L5.00016 6.25061H3.74958L3.74955 13.7518L5.00002 13.7517V15.0023H6.25061V16.2529H13.7494V15.0023H15L15.0002 13.7494H16.2507L16.2506 6.24825H15L15.0002 6.25058Z" fill="#55DB39"/>
<path d="M14.0151 8.3931V7.59198H13.214V6.79086H12.4105V5.98974H11.6071V5.1863H10.806V4.38518H9.19907V5.1863H8.39795V5.98742H7.5945V6.78853H6.79338V7.59198H5.99226V8.3931H5.18882V11.6022H5.98994V12.4057H6.79105V13.2068H7.5945V14.0079H8.39329V14.8114H9.19441V15.6125H10.8013V14.8114H11.6024V14.0102H12.4059V13.2091H13.207V12.4057H14.0081V11.6069H14.8115V8.39543H14.0104V8.3931H14.0151Z" fill="#55DB39"/>
<path d="M13.2093 8.39312V7.592H12.4082V6.79089H11.6071L11.6071 5.98974L10.806 5.98977L10.806 5.1863H9.19907L9.19906 5.98744L8.39795 5.98742L8.39795 6.78856L7.5945 6.78853L7.5945 7.592L6.79338 7.59198L6.79338 8.39312L5.99226 8.3931L5.99226 11.6023H6.79338V12.4057H7.5945L7.5945 13.2068L8.39329 13.2068L8.39329 14.0079L9.1944 14.0079L9.19441 14.8114H10.8013L10.8013 14.0103L11.6024 14.0102L11.6024 13.2091L12.4059 13.2091L12.4059 12.4057L13.207 12.4057L13.207 11.6069L14.0081 11.6069L14.0081 8.39545H13.207V8.39312H13.2093Z" fill="#55DB39"/>
<path d="M14.0151 9.1989V8.39778H13.2139V7.59433H11.607V6.79322H10.8059L10.806 5.1863H9.19907L9.19903 6.79322H8.39792V7.59433H9.19903V8.39312H10.0002V10H9.19903V8.39312H8.39792V7.592H6.79102V8.39312H7.59214V10H8.39326V10.8011H7.59214V10H6.79102V8.39312H5.9899L5.98994 11.6022L6.79102 11.6023L6.79105 12.4057L7.59214 12.4057V13.2068H8.39329L8.39329 14.0079L9.1944 14.0079L9.19441 14.8114H10.8013L10.8013 14.0103L11.6024 14.0102L11.6024 13.2091L12.4059 13.2091L12.4059 12.4057L13.207 12.4057L13.207 11.6069L14.0081 11.6069L14.0081 10H13.207V9.1989H14.0151ZM11.607 11.6069V12.408H10.8059V13.2091H10.0002V12.408H10.8013V11.6069H10.0002V10.8058H10.8013V11.6069H11.607V10.8058H12.4082V11.6069H11.607ZM12.4082 10H11.607V8.39312H12.4082V10Z" fill="#55DB39"/>
<path d="M10.8008 10.8011H11.6019V11.6022H10.8008V10.8011ZM11.607 10H12.4082L12.4077 10.8011H11.6066L11.607 10ZM9.19903 10L8.39745 9.99998V11.6069H9.19857V12.408L10.0002 12.408L9.99969 10.8011H9.19857L9.19903 10ZM9.19857 9.19887V8.39775H8.39745L8.39792 7.59433L7.594 7.5943V9.99998L8.39326 10L8.39279 9.19887H9.19857Z" fill="#55DB39"/>
<path d="M5.98488 8.39309H6.786V9.19421H5.98488V8.39309ZM9.99979 7.59197H10.8009V5.98508H9.99979V5.18396H9.19867V6.79086H9.99979V7.59197ZM11.607 8.39312L10.8056 8.39309V9.19421H9.99979L10.0002 10H11.607V8.39312ZM12.4082 8.39312V10L13.2089 9.99998L13.2093 8.39312H12.4082Z" fill="#55DB39"/>
<path d="M13.2089 9.99998L13.2093 10.8011L12.4077 10.8011L12.4082 11.6022H11.6071V12.4057H10.806V13.2068H9.19906V12.4057H8.39795L8.39745 11.6069L7.5945 11.6069V10.8058H6.79338V10H5.99226V11.6069H6.79338V12.408H7.5945V13.2091H8.39329V14.0102H9.1944V14.8137H10.8013V14.0126H11.6024V13.2115H12.4059V12.408H13.207V11.6069L14.0081 11.6069L14.0081 10L13.2089 9.99998Z" fill="#55DB39"/>
<path d="M10 14.0149H10.8011V14.816H10V14.0149ZM10.8011 13.2091L11.6024 13.2091L11.6024 14.0102L10.8013 14.0103L10.8011 13.2091ZM11.607 12.408L12.408 12.408V13.2091H11.6069L11.607 12.408Z" fill="#55DB39"/>
<path d="M12.4082 11.6069L13.2091 11.6069V12.408L12.408 12.408L12.4082 11.6069ZM13.2093 10.8011L14.0102 10.8011V11.6022H13.2091L13.2093 10.8011Z" fill="#55DB39"/>
<path d="M9.19879 13.2091L10.0002 13.2091L9.9999 14.0102H9.19879V13.2091ZM8.39301 12.408H9.19413V13.2091L8.39329 13.2091L8.39301 12.408Z" fill="#55DB39"/>
<path d="M7.59178 11.6069H8.39289L8.39301 12.408L7.59178 12.408V11.6069ZM6.79066 10.8011L7.59214 10.8011L7.59178 11.6022L6.79102 11.6023L6.79066 10.8011ZM5.98488 10H6.786V10.8011H5.98488V10Z" fill="#55DB39"/>
</g>
</svg>
