<svg width="130" height="131" viewBox="0 0 130 131" fill="none" xmlns="http://www.w3.org/2000/svg">
<g opacity="0.8" filter="url(#filter0_d_6892_59706)">
<path fill-rule="evenodd" clip-rule="evenodd" d="M27.6675 33.5206H57.2327C56.6117 35.2581 56.1512 37.0653 55.8651 38.9354H28.9375C28.6793 38.9354 28.4211 39.068 28.2467 39.2424C28.0513 39.4099 27.9397 39.6541 27.9397 39.9332V90.2576L43.8631 76.4623H44.8328H46.5773L57.2327 86.0709L68.9556 75.1714C68.9765 75.1714 68.9974 75.1296 68.9974 75.1296L69.1021 75.0249H72.0465C72.0465 75.0249 80.1211 85.2337 90.2101 93.0487L90.2311 86.0709V71.9198C92.0941 71.5639 93.8944 71.0196 95.618 70.3218V101.038C95.618 102.448 95.0318 103.746 94.0968 104.681C93.1687 105.616 91.8848 106.202 90.4544 106.202H27.6675C26.258 106.202 24.9601 105.616 24.0251 104.681C23.09 103.753 22.5039 102.469 22.5039 101.038V38.6842C22.5039 37.2747 23.09 35.9768 24.0251 35.0417C24.9531 34.1067 26.2371 33.5206 27.6675 33.5206ZM61.7753 43.3384C61.7753 30.7015 72.0188 20.458 84.6557 20.458C97.2927 20.458 107.536 30.7015 107.536 43.3384C107.536 55.9753 97.2927 66.2188 84.6557 66.2188C72.0188 66.2188 61.7753 55.9753 61.7753 43.3384ZM87.7368 32.3206H82.1744V40.3551H74.1399V45.9175H82.1744V53.952H87.7368V45.9175H95.7713V40.3551H87.7368V32.3206Z" fill="#C82AC2"/>
<path d="M56.1067 54.0669V52.0909H54.1307V50.1148H52.1505V48.1388H50.1745V46.1587H48.1985V44.1826H44.2423V46.1587H42.2662V48.1347H40.2984V50.1107H38.3224V52.0909H36.3464V54.0669H34.3662V61.971H36.3422V63.9512H38.3183V65.9272H40.2984V67.9033H42.2703V69.8834H44.2464V71.8594H48.2026V69.8834H50.1786V67.9074H52.1587V65.9313H54.1348V63.9512H56.1108V61.9751H58.091V54.071H56.1149V54.0669H56.1067Z" fill="#C82AC2"/>
<path d="M54.1223 54.0587V52.0826H52.1463V50.1066H50.1702V48.1306H48.1942V46.1545H44.2462V48.1306H42.2702V50.1066H40.2942V52.0826H38.3264V54.0587H36.3544V61.9546H38.3264V63.9306H40.3024V65.9067H42.2784V67.8827H44.2545V69.8587H48.2024V67.8827H50.1785V65.9067H52.1545V63.9306H54.1305V61.9546H56.1066V54.0587H54.1223Z" fill="#C82AC2"/>
<path d="M36.3544 54.0587V61.9546H38.3264V63.9306H40.3024V65.9067H42.2784V67.8827H44.2545V69.8587H48.2024V67.8827H50.1785V65.9067H52.1545V63.9306H54.1305V61.9546H56.1066V54.0587H36.3544Z" fill="#C82AC2"/>
<path d="M36.3544 58.0066V61.9546L56.0983 61.9546V58.0066H36.3544Z" fill="#C82AC2"/>
<path d="M38.3264 61.9546V63.9306H40.3024V65.9067L52.1471 65.9068V63.9308H54.1232V61.9547L38.3264 61.9546Z" fill="#C82AC2"/>
<path d="M42.2796 65.9071V67.883H44.2555V69.8589L48.2024 69.8587V67.8827H50.1785V65.9067L42.2796 65.9071Z" fill="#C82AC2"/>
<path d="M46.2269 46.1631V58.0061L56.0983 58.0066L56.0981 54.0584L54.1223 54.0587L54.1222 52.0867H52.1463V50.1108H50.1745V48.1349H48.1986V46.1631H46.2269Z" fill="#C82AC2"/>
<path d="M46.2269 69.8537V58.0061L56.0983 58.0066V61.9546L54.1222 61.9543V63.9302H52.1463V65.9061H50.1745V67.8778H48.1986V69.8537H46.2269Z" fill="#C82AC2"/>
<path d="M46.2269 46.1631V58.0061L36.3553 58.0053V54.0576H38.3271V52.0858H40.303V50.1099H42.2788V48.134H44.2506V46.1623L46.2269 46.1631Z" fill="#C82AC2"/>
<path d="M46.2269 69.8537V58.0061L36.3553 58.0053L36.3553 61.9535H38.327V63.9294H40.3029V65.9053H42.2788V67.8771H44.2506V69.8529L46.2269 69.8537Z" fill="#C82AC2"/>
</g>
<defs>
<filter id="filter0_d_6892_59706" x="0.503906" y="0.458008" width="129.032" height="129.744" filterUnits="userSpaceOnUse" color-interpolation-filters="sRGB">
<feFlood flood-opacity="0" result="BackgroundImageFix"/>
<feColorMatrix in="SourceAlpha" type="matrix" values="0 0 0 0 0 0 0 0 0 0 0 0 0 0 0 0 0 0 127 0" result="hardAlpha"/>
<feOffset dy="2"/>
<feGaussianBlur stdDeviation="11"/>
<feComposite in2="hardAlpha" operator="out"/>
<feColorMatrix type="matrix" values="0 0 0 0 0 0 0 0 0 0 0 0 0 0 0 0 0 0 0.6 0"/>
<feBlend mode="normal" in2="BackgroundImageFix" result="effect1_dropShadow_6892_59706"/>
<feBlend mode="normal" in="SourceGraphic" in2="effect1_dropShadow_6892_59706" result="shape"/>
</filter>
</defs>
</svg>
