<svg width="28" height="30" viewBox="0 0 28 30" fill="none" xmlns="http://www.w3.org/2000/svg">
<path d="M27.2832 9.2328L26.5642 9.2328C26.5642 8.268 26.5642 7.1184 26.5642 6.1536C26.2062 6.1536 25.486 6.1536 25.1283 6.1536C25.1283 5.77008 25.1283 4.99848 25.1283 4.6152C24.7704 4.6152 24.0502 4.6152 23.6925 4.6152C23.6925 4.23168 23.6925 3.46008 23.6925 3.0768C23.3345 3.0768 22.6144 3.0768 22.2566 3.0768C22.2566 2.69328 22.2566 1.92168 22.2566 1.5384C21.3568 1.5384 20.2848 1.5384 19.385 1.5384C19.385 1.15488 19.385 0.38328 19.385 -9.51581e-09C15.8106 -7.76121e-09 12.1916 -5.98471e-09 8.61728 -4.23011e-09C8.61728 0.38352 8.61728 1.15512 8.61728 1.5384C7.71747 1.5384 6.64541 1.5384 5.7456 1.5384C5.7456 1.92192 5.7456 2.69352 5.7456 3.0768C5.38765 3.0768 4.66749 3.0768 4.30976 3.0768C4.30976 3.46032 4.30976 4.23192 4.30976 4.6152C3.95181 4.6152 3.23165 4.6152 2.87392 4.6152C2.87392 4.99872 2.87392 5.77032 2.87392 6.1536C2.51552 6.1536 1.79424 6.1536 1.43584 6.1536C1.43584 7.1184 1.43584 8.268 1.43584 9.2328C1.07789 9.2328 0.357728 9.2328 -9.12159e-09 9.2328C-9.95218e-09 10.0735 -1.09694e-08 11.1031 -1.17985e-08 11.9424C9.32624 11.9424 18.6738 11.9424 28 11.9424C28 11.1036 28 10.073 28 9.2328L27.2832 9.2328Z" fill="#FA34F3"/>
<path d="M27.2832 11.5392C18.1946 11.5392 9.08858 11.5392 0 11.5392C-2.02942e-09 13.5933 -4.24141e-09 15.8323 -6.27628e-09 17.892C9.32624 17.892 18.6738 17.892 28 17.892C28 15.8304 28 13.595 28 11.5392L27.2832 11.5392Z" fill="#CF15F9"/>
<path d="M27.2832 16.1544C18.1946 16.1544 9.08858 16.1544 0 16.1544C-1.48003e-09 17.6525 -3.07957e-09 19.2715 -4.55961e-09 20.7696C0.357952 20.7696 1.07811 20.7696 1.43584 20.7696L1.43584 21.4824C9.80381 21.4824 18.1962 21.4824 26.5642 21.4824L26.5642 20.7696C26.9221 20.7696 27.6423 20.7696 28 20.7696C28 19.2715 28 17.6525 28 16.1544L27.2832 16.1544Z" fill="#AC15F9"/>
<path d="M25.8471 20.7696C17.7165 20.7696 9.56608 20.7696 1.43555 20.7696C1.43555 21.7337 1.43555 22.8823 1.43555 23.8464C1.79395 23.8464 2.51523 23.8464 2.87363 23.8464C2.87363 24.2299 2.87363 25.0015 2.87363 25.3848C3.23158 25.3848 3.95174 25.3848 4.30947 25.3848L4.33411 26.3808C10.7757 26.3808 17.2506 26.3808 23.6922 26.3808L23.6922 25.3848C24.0501 25.3848 24.7703 25.3848 25.128 25.3848C25.128 25.0013 25.128 24.2297 25.128 23.8464C25.486 23.8464 26.2061 23.8464 26.5639 23.8464C26.5639 22.8823 26.5639 21.7337 26.5639 20.7696L25.8471 20.7696Z" fill="#8F17F9"/>
<path d="M13.6414 30C11.9988 30 10.2597 30 8.61709 30C8.61709 29.6165 8.61709 28.8449 8.61709 28.4616C7.71728 28.4616 6.64522 28.4616 5.74541 28.4616C5.74541 28.0781 5.74541 27.3065 5.74541 26.9232C5.38746 26.9232 4.6673 26.9232 4.30957 26.9232C4.30957 26.5397 4.30957 25.7681 4.30957 25.3848C10.7621 25.3848 17.2397 25.3848 23.6923 25.3848C23.6923 25.7683 23.6923 26.5399 23.6923 26.9232C23.3343 26.9232 22.6142 26.9232 22.2565 26.9232C22.2565 27.3067 22.2565 28.0783 22.2565 28.4616C21.3566 28.4616 20.2846 28.4616 19.3848 28.4616C19.3848 28.8451 19.3848 29.6167 19.3848 30C18.485 30 17.4129 30 16.5131 30C15.6133 30 14.541 30 13.6414 30Z" fill="#7E18F8"/>
<path d="M18.1709 17.364L18.1709 17.892C18.4171 17.892 18.9126 17.892 19.1587 17.892C19.1587 17.4209 19.1587 16.7767 19.1587 16.3056C18.9126 16.3056 18.4171 16.3056 18.1709 16.3056C18.1709 16.5693 18.1709 17.1002 18.1709 17.364Z" fill="white"/>
<path d="M17.1836 17.892C16.3913 17.892 15.5052 17.892 14.7129 17.892C14.7129 18.1565 14.7129 18.6886 14.7129 18.9528C15.3318 18.9528 16.0697 18.9528 16.6886 18.9528C16.6886 19.2166 16.6886 19.7474 16.6886 20.0112C16.9347 20.0112 17.4302 20.0112 17.6764 20.0112C17.6764 19.7474 17.6764 19.2166 17.6764 18.9528L18.1715 18.9528C18.1715 18.6883 18.1715 18.1562 18.1715 17.892C17.9253 17.892 17.4298 17.892 17.1836 17.892Z" fill="white"/>
<path d="M15.7002 16.3056C16.4925 16.3056 17.3786 16.3056 18.1709 16.3056C18.1709 16.0411 18.1709 15.509 18.1709 15.2448C17.3786 15.2448 16.4925 15.2448 15.7002 15.2448C15.7002 15.5093 15.7002 16.0413 15.7002 16.3056Z" fill="white"/>
<path d="M14.7129 13.656C14.7129 14.1278 14.7129 14.7729 14.7129 15.2448C14.9591 15.2448 15.4546 15.2448 15.7007 15.2448C15.7007 14.7729 15.7007 14.1278 15.7007 13.656C15.4546 13.656 14.9591 13.656 14.7129 13.656Z" fill="white"/>
<path d="M18.1709 12.5976L17.6759 12.5976C17.6759 12.3338 17.6759 11.8029 17.6759 11.5392C17.4297 11.5392 16.9342 11.5392 16.688 11.5392C16.688 11.8029 16.688 12.3338 16.688 12.5976C16.4419 12.5976 15.9464 12.5976 15.7002 12.5976C15.7002 12.8613 15.7002 13.3922 15.7002 13.656C16.8309 13.656 18.028 13.656 19.1588 13.656C19.1588 13.3922 19.1588 12.8613 19.1588 12.5976C18.9126 12.5976 18.4171 12.5976 18.1709 12.5976Z" fill="white"/>
<path d="M24.5958 12.5976C23.1309 12.5976 21.6144 12.5976 20.1494 12.5976C20.1494 12.8614 20.1494 13.3922 20.1494 13.656C20.7683 13.656 21.5062 13.656 22.1251 13.656C22.1251 15.4051 22.1251 17.2037 22.1251 18.9528C22.3713 18.9528 22.8668 18.9528 23.1129 18.9528C23.1129 17.2037 23.1129 15.4051 23.1129 13.656C23.7327 13.656 24.4713 13.656 25.0909 13.656C25.0909 13.3922 25.0909 12.8614 25.0909 12.5976L24.5958 12.5976Z" fill="white"/>
<path d="M12.7349 12.5976C12.7349 13.4465 12.7349 14.3959 12.7349 15.2448C11.9426 15.2448 11.0565 15.2448 10.2642 15.2448C10.2642 14.3959 10.2642 13.4465 10.2642 12.5976C10.018 12.5976 9.52254 12.5976 9.27637 12.5976C9.27637 14.7022 9.27637 16.8482 9.27637 18.9528C9.52254 18.9528 10.018 18.9528 10.2642 18.9528C10.2642 18.1039 10.2642 17.1545 10.2642 16.3056C11.0565 16.3056 11.9426 16.3056 12.7349 16.3056C12.7349 17.1545 12.7349 18.1039 12.7349 18.9528C12.9811 18.9528 13.4766 18.9528 13.7228 18.9528C13.7228 16.8482 13.7228 14.7022 13.7228 12.5976C13.4766 12.5976 12.9811 12.5976 12.7349 12.5976Z" fill="white"/>
<path d="M7.29848 12.5976C6.33662 12.5976 5.29682 12.5976 4.33496 12.5976C4.33496 12.8614 4.33496 13.3922 4.33496 13.656C5.63349 13.656 6.99003 13.656 8.28856 13.656C8.28856 13.3922 8.28856 12.8614 8.28856 12.5976C8.04171 12.5976 7.5451 12.5976 7.29848 12.5976Z" fill="white"/>
<path d="M8.28803 17.892C8.28803 17.0431 8.28803 16.0937 8.28803 15.2448C7.32527 15.2448 6.28502 15.2448 5.32227 15.2448C5.32227 15.5093 5.32227 16.0413 5.32227 16.3056C5.94118 16.3056 6.67903 16.3056 7.29795 16.3056C7.29795 16.7767 7.29795 17.4209 7.29795 17.892C7.54479 17.892 8.0414 17.892 8.28803 17.892Z" fill="white"/>
<path d="M4.33496 18.9528C5.29682 18.9528 6.33662 18.9528 7.29848 18.9528C7.29848 18.6883 7.29848 18.1562 7.29848 17.892C6.33662 17.892 5.29682 17.892 4.33496 17.892C4.33496 18.1565 4.33496 18.6886 4.33496 18.9528Z" fill="white"/>
<path d="M3.34473 13.656C3.34473 15.0473 3.34473 16.5007 3.34473 17.892C3.59157 17.892 4.08818 17.892 4.33481 17.892C4.33481 16.5007 4.33481 15.0473 4.33481 13.656C4.08796 13.656 3.59135 13.656 3.34473 13.656Z" fill="white"/>
</svg>
