<svg width="17" height="17" viewBox="0 0 17 17" fill="none" xmlns="http://www.w3.org/2000/svg">
<path d="M5.52485 2.375L5.525 2.37498C5.49397 1.99486 5.58057 1.66392 5.7687 1.39865C5.95184 1.1404 6.20322 0.983497 6.43955 0.891698C6.67513 0.800193 6.9171 0.7645 7.1203 0.761245C7.22286 0.759602 7.32327 0.766078 7.41541 0.781078C7.49649 0.794277 7.6035 0.819067 7.7036 0.871864C7.99108 1.01956 8.09639 1.30641 8.13169 1.50502C8.18848 1.35957 8.28224 1.21549 8.43362 1.10166C8.69688 0.888099 8.98226 0.774896 9.28756 0.770088C9.58235 0.765446 9.84329 0.863227 10.0568 0.97C10.2256 1.0544 10.3998 1.16354 10.5552 1.2609C10.5911 1.28338 10.626 1.30524 10.6596 1.32602C10.8518 1.44496 11.0293 1.54735 11.2134 1.62098C11.2404 1.6318 11.2568 1.6371 11.2806 1.64485C11.3049 1.65276 11.3371 1.66322 11.3965 1.68468C11.4783 1.71424 11.5998 1.7621 11.7137 1.84077C11.8323 1.9226 11.9717 2.05815 12.0352 2.2693C12.0985 2.48022 12.0624 2.68745 11.9874 2.86631C11.9871 2.86712 11.9821 2.88169 11.9708 2.96204C11.9701 2.9669 11.9694 2.97221 11.9686 2.97795C11.9596 3.044 11.9429 3.16584 11.9001 3.28489C11.8471 3.43209 11.7523 3.58652 11.5846 3.70866C11.4258 3.82425 11.2361 3.88574 11.033 3.91582L11.0218 3.91749L11.0218 3.91736C10.8229 3.94222 10.7427 3.99646 10.7095 4.02758C10.6768 4.0583 10.6413 4.11188 10.618 4.22902C10.5989 4.32532 10.5922 4.44385 10.5949 4.59121C10.8734 4.47715 11.1585 4.41414 11.4496 4.39939C11.9978 4.37164 12.528 4.5169 13.0336 4.74913C13.0345 4.74948 13.0355 4.74984 13.0365 4.75023C13.0717 4.76339 13.177 4.80281 13.2261 4.82391C13.3075 4.85884 13.4376 4.92095 13.5494 5.02931C13.6767 5.15261 13.7815 5.33871 13.7719 5.57729C13.7634 5.78887 13.6667 5.97161 13.5588 6.1181L13.5527 6.12642L13.5526 6.12638C13.5514 6.12814 13.5447 6.13849 13.5329 6.16325C13.5188 6.1931 13.504 6.2294 13.4838 6.28092C13.4808 6.28858 13.4776 6.29689 13.4742 6.30576C13.44 6.39398 13.3841 6.53825 13.3049 6.66118C13.2091 6.80995 13.0347 6.99895 12.7434 7.04467C12.4769 7.08648 12.2268 6.98821 12.0159 6.86164C11.6259 6.62764 11.2464 6.50734 10.8228 6.52484C10.4407 6.542 10.0377 6.71587 9.72814 6.98897C9.4165 7.26394 9.24764 7.59447 9.2405 7.89402L9.24031 7.90211L9.24025 7.90211C9.2059 8.76069 9.87821 9.50395 10.7385 9.55673C12.0147 9.62246 12.7732 10.9555 12.2543 12.1164C12.136 12.3824 11.988 12.6612 11.8495 12.922C11.7722 13.0676 11.6979 13.2075 11.6334 13.3365L11.6324 13.3386C10.4958 15.5853 7.69876 15.9167 5.99906 14.1125L5.99502 14.1082L5.99504 14.1081C5.63125 13.7127 5.53235 13.2854 5.51804 12.9023C5.51138 12.7244 5.52283 12.5499 5.53236 12.4046L5.53291 12.3963C5.54315 12.2402 5.55085 12.1166 5.54636 11.9999L5.54609 11.9929L5.54614 11.9929C5.50714 10.394 4.40103 9.26208 2.84875 9.22001C2.83876 9.22022 2.82202 9.22102 2.79985 9.22209C2.67543 9.22807 2.3798 9.24228 2.14459 9.20544C1.98839 9.18098 1.78927 9.12829 1.61303 8.99992C1.41944 8.85891 1.28303 8.64716 1.2478 8.37703L1.24683 8.36958L1.24608 8.36211C1.21824 8.08372 1.23271 7.76716 1.3883 7.46055C1.5453 7.15117 1.81351 6.91514 2.17341 6.73457C2.58779 6.52007 2.96995 6.28577 3.37451 6.03774C3.59694 5.90136 3.82615 5.76083 4.07122 5.61716M5.52485 2.375L7.89088 3.9665C7.8923 3.96582 7.89372 3.96514 7.89512 3.96446M5.52485 2.375L5.52619 2.38757C5.54648 2.57696 5.5938 2.79046 5.72847 2.96277C5.89016 3.16964 6.1084 3.23465 6.28718 3.24153C6.41792 3.24656 6.55422 3.22013 6.63072 3.20529C6.63819 3.20385 6.64509 3.20251 6.65136 3.20132C6.74622 3.18335 6.806 3.17396 6.86118 3.17396C7.53897 3.17396 7.91811 2.67607 8.0638 2.2525C8.06726 2.28483 8.07115 2.31645 8.07527 2.34715C8.09731 2.51107 8.13129 2.68208 8.16108 2.83208C8.16538 2.8537 8.16959 2.87489 8.17366 2.89556C8.20819 3.07074 8.23338 3.21012 8.24212 3.3237L8.24211 3.32371L8.24237 3.32688C8.26066 3.54636 8.23153 3.65822 8.19568 3.7248C8.16241 3.78659 8.09063 3.87025 7.89512 3.96446M5.52485 2.375L7.89512 3.96446M4.07122 5.61716C4.07154 5.61697 4.07186 5.61678 4.07218 5.6166L4.32504 6.04794L4.07013 5.6178C4.07049 5.61759 4.07086 5.61737 4.07122 5.61716ZM4.07122 5.61716C4.12677 5.58424 4.1789 5.55375 4.22789 5.5251C4.48614 5.37405 4.65705 5.27408 4.78184 5.13931C4.88465 5.02826 4.96473 4.88254 4.91722 4.5579L4.91698 4.55621C4.87095 4.23403 5.01788 3.97241 5.20684 3.8067C5.38519 3.6503 5.61152 3.56347 5.82474 3.52399C6.24471 3.44622 6.79533 3.52187 7.19832 3.88981L7.20511 3.89602L7.20505 3.89608C7.37303 4.05522 7.45902 4.07424 7.50174 4.07795C7.56272 4.08326 7.6668 4.06782 7.89512 3.96446M0.5 8.06327C0.5 3.83323 3.83128 0.501953 8.06132 0.501953C12.2656 0.501953 15.5993 3.85246 15.6 8.08467C15.5781 12.2477 12.2458 15.58 8.08272 15.602C3.8505 15.6013 0.5 12.2675 0.5 8.06327Z" fill="#020203" stroke="#E52FDF"/>
</svg>
