<svg width="37" height="36" viewBox="0 0 37 36" fill="none" xmlns="http://www.w3.org/2000/svg">
<path d="M0.977539 24.9427H3.1362V29.3949H5.36231V31.5536H7.52097V33.7122H11.9057V35.9384H25.0601V33.7122H29.4448V31.5536H31.6035V29.3949H33.8296V24.9427H36.0557V11.8558H33.8296V7.4036H31.6035V5.24494H29.4448V3.08628H25.0601V0.860168H11.9057V3.08628H7.52097V5.24494H5.36231V7.4036H3.1362V11.8558H0.977539V24.9427Z" fill="#C77D00"/>
<path d="M3.13623 24.9426H5.36235V29.3274H7.52101V31.5535H11.9058V33.7121H25.0601V31.5535H29.4449V29.3274H31.6035V24.9426H33.8297V11.8557H31.6035V7.47096H29.4449V5.24484H25.0601V3.08618H11.9058V5.24484H7.52101V7.47096H5.36235V11.8557H3.13623V24.9426Z" fill="#FFC800"/>
<path d="M11.9087 27.1688H9.75V29.3274H11.9087V27.1688Z" fill="#C77D00"/>
<path d="M11.9087 7.47101H9.75V9.62967H11.9087V7.47101Z" fill="#C77D00"/>
<path d="M9.6821 9.62958H7.52344V11.7882H9.6821V9.62958Z" fill="#C77D00"/>
<path d="M7.52438 11.8558H5.36572V25.0101H7.52438V11.8558Z" fill="#C77D00"/>
<path d="M9.6821 24.9426H7.52344V27.1012H9.6821V24.9426Z" fill="#C77D00"/>
<path d="M25.063 5.24481H11.9087V7.40347H25.063V5.24481Z" fill="#C77D00"/>
<path d="M29.3784 9.62964H27.2197V11.7883H29.3784V9.62964Z" fill="#FFFF00"/>
<path d="M29.3784 24.9427H27.2197V27.1013H29.3784V24.9427Z" fill="#FFFF00"/>
<path d="M31.6059 11.8557H29.4473V25.01H31.6059V11.8557Z" fill="#FFFF00"/>
<path d="M25.0616 29.3275H11.9072V31.4861H25.0616V29.3275Z" fill="#FFFF00"/>
<path d="M27.2207 27.1687H25.062V29.3274H27.2207V27.1687Z" fill="#FFFF00"/>
<path d="M27.2207 7.47095H25.062V9.62961H27.2207V7.47095Z" fill="#FFFF00"/>
<path d="M27.2212 11.8558C27.2212 11.3161 27.2212 10.2368 27.2212 9.69713H25.0625V7.47101H11.9082V9.62967H9.6821C9.6821 10.1693 9.6821 11.2487 9.6821 11.7883H7.52344C7.52344 15.7009 7.52344 21.0301 7.52344 24.9427H9.6821V27.1688H11.8408V29.3274H24.9951V27.1688H27.2212V25.0101H29.3799C29.3799 21.0975 29.3799 15.7684 29.3799 11.8558H27.2212Z" fill="#FFC800"/>
<path d="M14.2668 14.1494C17.7747 14.1494 22.0245 14.1494 25.5323 14.1494V11.3161C24.1157 11.3161 21.2825 11.3161 19.8659 11.3161V8.48291H17.1001V11.3161C15.6835 11.3161 12.8502 11.3161 11.4336 11.3161C11.4336 15.8358 11.4336 20.8952 11.4336 25.4149C12.8502 25.4149 15.6835 25.4149 17.1001 25.4149V28.2481H19.9333V25.4149C21.3499 25.4149 24.1832 25.4149 25.5998 25.4149C25.5998 22.9189 25.5998 19.4786 25.5998 16.9826C23.1038 16.9826 19.6635 16.9826 17.1675 16.9826V19.8159C18.5841 19.8159 21.4174 19.8159 22.834 19.8159V22.6491C20.3381 22.6491 16.8977 22.6491 14.4017 22.6491C14.2668 21.2325 14.2668 14.1494 14.2668 14.1494Z" fill="#C77D00"/>
</svg>
