<svg width="24" height="36" viewBox="0 0 24 36" fill="none" xmlns="http://www.w3.org/2000/svg">
<path d="M21.852 5.33313V3.99978H20.5187V2.66644H17.852V1.3331H15.1853V-0.000244141H8.51861V1.3331H5.85193V2.66644H3.18524V3.99978H1.8519V5.33313H0.518555V32.6667H3.18524V31.3333H6.5186V32.6667H9.85196V31.3333H13.852V32.6667H17.1853V31.3333H20.5187V32.6667H23.1854V5.33313H21.852Z" fill="#64438E"/>
<path d="M20.5184 5.33304V3.99969H17.8517V2.66635H15.185V1.33301H8.51828V2.66635H5.85159V3.99969H3.18491V5.33304H1.85156V31.3332H3.18491V29.9999H6.51826V31.3332H9.85162V29.9999H13.8517V31.3332H17.185V29.9999H20.5184V31.3332H21.8517V5.33304H20.5184Z" fill="#EDD3FD"/>
<path d="M2.51855 28.667H3.8519V28.0003H5.18524V28.667H6.51858V30.0003H9.85194V28.667H11.1853V28.0003H12.5186V28.667H13.852V30.0003H17.1853V28.667H18.5187V28.0003H19.852V28.667H20.5187V5.33348H17.852V4.00014H15.1853V2.66679H11.852V2.00012H8.5186V3.33346H5.85191V4.66681H3.18523V6.00015H2.51855V28.667Z" fill="white"/>
<path d="M4.51758 17.3328V18.6661H5.85092V17.3328H4.51758ZM17.851 17.3328V18.6661H19.1844V17.3328H17.851Z" fill="#F696C6"/>
<path opacity="0.25" d="M3.18457 34.6667V35.3334H3.85124V36.0001H19.8514V35.3334H20.518V34.6667H3.18457Z" fill="black"/>
<path d="M13.8522 5.99965V5.33298H13.1856V4.66631H12.5189V3.99963H11.1856V4.66631H10.5189V5.33298H9.85222V5.99965H9.18555V8.66633H9.85222V9.33301H10.5189V9.99968H11.1856V10.6663H12.5189V9.99968H13.1856V9.33301H13.8522V8.66633H14.5189V5.99965H13.8522Z" fill="#64438E"/>
<path d="M9.85059 7.33337V8.66672H10.5173V9.33339H11.1839V10.0001H11.8506V7.33337H9.85059Z" fill="#DEA8FF"/>
<path d="M13.1839 6.00009V5.33342H12.5173V4.66675H11.8506V7.33343H13.8506V6.00009H13.1839Z" fill="#DEA8FF"/>
<path d="M11.8506 7.33337V10.0001H12.5173V9.33339H13.1839V8.66672H13.8506V7.33337H11.8506Z" fill="#C260FF"/>
<path d="M11.1839 4.66675V5.33342H10.5173V6.00009H9.85059V7.33343H11.8506V4.66675H11.1839Z" fill="#EDD3FD"/>
<path d="M9.85092 17.3329H8.51758V18.6662H9.85092V17.3329Z" fill="#64438E"/>
<path d="M9.85156 18.6661V19.9995H13.8516V18.6661H9.85156Z" fill="#64438E"/>
<path d="M13.8516 17.3329V18.6662H15.1849V17.3329H13.8516Z" fill="#64438E"/>
<path d="M5.85092 13.3332C5.85092 12.9999 5.85092 11.9999 5.85092 11.9999H4.51758V13.3332H5.85092Z" fill="#64438E"/>
<path d="M9.85092 11.9999H8.51758V13.3332H9.85092V11.9999Z" fill="#64438E"/>
<path d="M8.51727 13.3331H5.85059V14.6665H8.51727V13.3331Z" fill="#64438E"/>
<path d="M15.1849 11.9999H13.8516V13.3332H15.1849C15.1849 12.9999 15.1849 11.9999 15.1849 11.9999Z" fill="#64438E"/>
<path d="M19.1849 11.9999H17.8516V13.3332H19.1849V11.9999Z" fill="#64438E"/>
<path d="M17.8503 13.3331H15.1836V14.6665H17.8503V13.3331Z" fill="#64438E"/>
<path d="M19.8526 23.9966H20.5192V25.3299H19.8526V23.9966ZM15.8525 25.3299V26.6633H18.5192V25.3299H15.8525Z" fill="#EDD3FD"/>
<path d="M14.5195 23.3303V25.3303H15.8529V23.3303H14.5195ZM18.5196 24.6637V25.997H19.8529V24.6637H18.5196Z" fill="#EDD3FD"/>
<path d="M15.1855 23.3303H15.8522V25.997H15.1855V23.3303Z" fill="#EDD3FD"/>
<path d="M19.1866 19.9976V20.6642H18.5199V21.3309H17.1865V21.9976H15.8532V22.6642H15.1865V25.3309H15.8532V25.9976H18.5199V25.3309H19.8532V24.6643H20.5199V23.9976H19.8532V20.6642V19.9976H19.1866Z" fill="#64438E"/>
<path d="M15.8525 22.6642V25.3309H18.5192V24.6643H19.8526V23.9976H20.5192V19.9976H19.8526V20.6642H19.1859V21.3309H18.5192V21.9976H17.1859V22.6642H15.8525Z" fill="white"/>
<path d="M3.8532 25.3298H3.18652V23.9965H3.8532V25.3298ZM5.18654 25.3298V26.6631H7.85322V25.3298H5.18654Z" fill="#EDD3FD"/>
<path d="M7.85257 23.3302V25.3302H9.18591V23.3302H7.85257ZM3.85254 24.6635V25.9969H5.18588V24.6635H3.85254Z" fill="#EDD3FD"/>
<path d="M8.51921 25.9969H7.85254V23.3302H8.51921V25.9969Z" fill="#EDD3FD"/>
<path d="M4.51987 19.9976V20.6642H5.18654V21.3309H6.51988V21.9976H7.85322V22.6642H8.5199V25.3309H7.85322V25.9976H5.18654V25.3309H3.85319V24.6643H3.18652V23.9976H3.85319V20.6642V19.9976H4.51987Z" fill="#64438E"/>
<path d="M6.51988 22.6642V21.9976H5.18654V21.3309H4.51987V20.6642H3.8532V19.9976H3.18652V23.9976H3.8532V24.6643H5.18654V25.3309H7.85322V22.6642H6.51988Z" fill="white"/>
</svg>
