<svg width="50" height="54" viewBox="0 0 50 54" fill="none" xmlns="http://www.w3.org/2000/svg">
<path d="M40 8V6H38V4H34V2H30V0H20V2H16V4H12V6H10V8H8V49H12V47H17V49H22V47H28V49H33V47H38V49H42V8H40Z" fill="#64438E"/>
<path d="M38 8V6H34V4H30V2H20V4H16V6H12V8H10V47H12V45H17V47H22V45H28V47H33V45H38V47H40V8H38Z" fill="#EDD3FD"/>
<path d="M11 43H13V42H15V43H17V45H22V43H24V42H26V43H28V45H33V43H35V42H37V43H38V8H34V6H30V4H25V3H20V5H16V7H12V9H11V43Z" fill="white"/>
<path d="M14 26V28H16V26H14ZM34 26V28H36V26H34Z" fill="#F696C6"/>
<path opacity="0.25" d="M12 52V53H13V54H37V53H38V52H12Z" fill="black"/>
<path d="M28 9V8H27V7H26V6H24V7H23V8H22V9H21V13H22V14H23V15H24V16H26V15H27V14H28V13H29V9H28Z" fill="#64438E"/>
<path d="M22 11V13H23V14H24V15H25V11H22Z" fill="#DEA8FF"/>
<path d="M27 9V8H26V7H25V11H28V9H27Z" fill="#DEA8FF"/>
<path d="M25 11V15H26V14H27V13H28V11H25Z" fill="#C260FF"/>
<path d="M24 7V8H23V9H22V11H25V7H24Z" fill="#EDD3FD"/>
<path d="M21 26C21 27.9 21 31.1 21 33H22V34H23V35C24.3 35 25.7 35 27 35V34H28V33H29C29 31.1 29 27.9 29 26C29 26 23.3 26 21 26Z" fill="#F696C6"/>
<path d="M28 26V28H30V26H28Z" fill="#64438E"/>
<path d="M22 26H20V28H22V26Z" fill="#64438E"/>
<path d="M24 26H22V28H24V26Z" fill="#64438E"/>
<path d="M26 26H24V28H26V26Z" fill="#64438E"/>
<path d="M28 26H26V28H28V26Z" fill="#64438E"/>
<path d="M34 18C34 18.5 34 20 34 20H36V18H34Z" fill="#64438E"/>
<path d="M30 18H28V20H30V18Z" fill="#64438E"/>
<path d="M34 16H30V18H34V16Z" fill="#64438E"/>
<path d="M20 20H22V18H20C20 18.5 20 20 20 20Z" fill="#64438E"/>
<path d="M16 18H14V20H16V18Z" fill="#64438E"/>
<path d="M20 16H16V18H20V16Z" fill="#64438E"/>
<path d="M16 22V24H20V22H22V18H20V16H16V18H14V22H16Z" fill="#64438E"/>
<path d="M7 27V26H5V25H1V26H0V30H1V31H3V32H5V33H6V34H7V35H8V27H7Z" fill="#64438E"/>
<path d="M7 28V27H5V26H1V30H3V31H5V32H6V33H7V34H8V28H7Z" fill="#EDD3FD"/>
<path d="M1 26V29H3V30H5V31H6V32H7V33H8V28H7V27H5V26H1Z" fill="white"/>
<path d="M43 27V26H45V25H49V26H50V30H49V31H47V32H45V33H44V34H43V35H42V27H43Z" fill="#64438E"/>
<path d="M43 28V27H45V26H49V30H47V31H45V32H44V33H43V34H42V28H43Z" fill="#EDD3FD"/>
<path d="M45 26V27H43V28H42V33H43V32H44V31H45V30H47V29H49V26H45Z" fill="white"/>
</svg>
