<svg width="89" height="96" viewBox="0 0 89 96" fill="none" xmlns="http://www.w3.org/2000/svg">
<g opacity="0.4">
<path opacity="0.25" d="M21.36 92.4444V94.2222H23.14V96H65.86V94.2222H67.64V92.4444H21.36Z" fill="#767BE3"/>
<path d="M71.2 14.2222V10.6667H67.64V7.11111H60.52V3.55556H53.4V0H35.6V3.55556H28.48V7.11111H21.36V10.6667H17.8V14.2222H14.24V87.1111H21.36V83.5556H30.26V87.1111H39.16V83.5556H49.84V87.1111H58.74V83.5556H67.64V87.1111H74.76V14.2222H71.2Z" fill="#8F81E2"/>
<path d="M67.6401 14.2222V10.6667H60.5201V7.11111H53.4001V3.55556H35.6001V7.11111H28.4801V10.6667H21.3601V14.2222H17.8001V83.5555H21.3601V80H30.2601V83.5555H39.1601V80H49.8401V83.5555H58.7401V80H67.6401V83.5555H71.2001V14.2222H67.6401Z" fill="#767BE3"/>
<path d="M19.5801 76.4444H23.1401V74.6667H26.7001V76.4444H30.2601V80H39.1601V76.4444H42.7201V74.6667H46.2801V76.4444H49.8401V80H58.7401V76.4444H62.3001V74.6667H65.8601V76.4444H67.6401V14.2222H60.5201V10.6667H53.4001V7.11111H44.5001V5.33333H35.6001V8.88889H28.4801V12.4444H21.3601V16H19.5801V76.4444Z" fill="#767BE3"/>
<path d="M24.9201 46.2222V49.7778H28.4801V46.2222H24.9201ZM60.5201 46.2222V49.7778H64.0801V46.2222H60.5201Z" fill="#767BE3"/>
<path d="M28.4801 39.1111V42.6667H35.6001V39.1111H39.1601V32H35.6001V28.4444H28.4801V32H24.9201V39.1111H28.4801ZM49.8401 32V39.1111H53.4001V42.6667H60.5201V39.1111H64.0801V32H60.5201V28.4444H53.4001V32H49.8401Z" fill="#767BE3"/>
<path d="M49.8401 16V14.2222H48.0601V12.4444H46.2801V10.6667H42.7201V12.4444H40.9401V14.2222H39.1601V16H37.3801V23.1111H39.1601V24.8889H40.9401V26.6667H42.7201V28.4444H46.2801V26.6667H48.0601V24.8889H49.8401V23.1111H51.6201V16H49.8401Z" fill="#767BE3"/>
<path d="M39.1601 19.5555V23.1111H40.9401V24.8889H42.7201V26.6667H44.5001V19.5555H39.1601Z" fill="#767BE3"/>
<path d="M48.0601 16V14.2222H46.2801V12.4444H44.5001V19.5555H49.8401V16H48.0601Z" fill="#767BE3"/>
<path d="M44.5001 19.5555V26.6667H46.2801V24.8889H48.0601V23.1111H49.8401V19.5555H44.5001Z" fill="#767BE3"/>
<path d="M42.72 12.4444V14.2222H40.94V16H39.16V19.5555H44.5V12.4444H42.72Z" fill="#767BE3"/>
<path d="M39.1601 46.2222H35.6001V49.7778H39.1601V46.2222Z" fill="#767BE3"/>
<path d="M39.1599 49.7778V53.3333H49.8399V49.7778H39.1599Z" fill="#767BE3"/>
<path d="M49.8399 46.2222V49.7778H53.3999V46.2222H49.8399Z" fill="#767BE3"/>
<path d="M1.78 56.8889V55.1111H5.34V53.3333H8.9V51.5556H10.68V49.7778H12.46V48H14.24V62.2222H12.46V64H8.9V65.7778H1.78V64H0V56.8889H1.78Z" fill="#8F81E2"/>
<path d="M5.34 56.8889V55.1111H8.9V53.3333H10.68V51.5556H12.46V49.7778H14.24V60.4444H12.46V62.2222H8.9V64H1.78V56.8889H5.34Z" fill="#767BE3"/>
<path d="M1.78 56.8889V62.2222H8.9V60.4444H12.46V58.6667H14.24V49.7778H12.46V51.5556H10.68V53.3333H8.9V55.1111H5.34V56.8889H1.78Z" fill="#767BE3"/>
<path d="M87.22 56.8889V55.1111H83.66V53.3333H80.1V51.5556H78.32V49.7778H76.54V48H74.76V62.2222H76.54V64H80.1V65.7778H87.22V64H89V56.8889H87.22Z" fill="#8F81E2"/>
<path d="M83.6599 56.8889V55.1111H80.0999V53.3333H78.3199V51.5556H76.5399V49.7778H74.7599V60.4444H76.5399V62.2222H80.0999V64H87.2199V56.8889H83.6599Z" fill="#767BE3"/>
<path d="M83.6599 56.8889V55.1111H80.0999V53.3333H78.3199V51.5556H76.5399V49.7778H74.7599V58.6667H76.5399V60.4444H80.0999V62.2222H87.2199V56.8889H83.6599Z" fill="#767BE3"/>
</g>
</svg>
