<svg width="16" height="16" viewBox="0 0 16 16" fill="none" xmlns="http://www.w3.org/2000/svg">
<path fill-rule="evenodd" clip-rule="evenodd" d="M13.5 2.5H7.5H2.5V13.5H13.5V2.5ZM2 0C0.895431 0 0 0.895431 0 2V14C0 15.1046 0.895431 16 2 16H14C15.1046 16 16 15.1046 16 14V2C16 0.895431 15.1046 0 14 0H2Z" fill="#ED780D"/>
<path d="M6.33 12C6.33 11.538 6.38867 11.285 6.506 11.241L7.243 10.933L7.122 11.12L7.122 7.886L7.254 8.051L6.506 7.842C6.38867 7.80533 6.33 7.55967 6.33 7.105C6.65267 7.05367 6.97533 7.00967 7.298 6.973C7.628 6.93633 7.98367 6.918 8.365 6.918C8.871 6.918 9.124 7.182 9.124 7.71L9.124 11.065L8.992 10.9L10.026 11.164C10.026 11.3253 10.0077 11.4683 9.971 11.593C9.94167 11.7177 9.88667 11.8533 9.806 12L6.33 12ZM8.057 6.181C7.71967 6.181 7.463 6.08567 7.287 5.895C7.111 5.70433 7.023 5.455 7.023 5.147C7.023 4.84633 7.12567 4.60067 7.331 4.41C7.54367 4.212 7.78567 4.113 8.057 4.113C8.40167 4.113 8.662 4.20833 8.838 4.399C9.02133 4.58967 9.113 4.839 9.113 5.147C9.113 5.44033 9.00667 5.686 8.794 5.884C8.58133 6.082 8.33567 6.181 8.057 6.181Z" fill="#ED780D"/>
</svg>
