<svg width="20" height="20" viewBox="0 0 20 20" fill="none" xmlns="http://www.w3.org/2000/svg">
<path d="M0 13.7494L1.24825 13.7494L1.24825 16.2506L2.49884 16.2506L2.49884 17.5012L3.74942 17.5012L3.74942 18.7517L6.25058 18.7517L6.25058 20L13.7494 20L13.7494 18.7517L16.2506 18.7517L16.2506 17.5012L17.5012 17.5012L17.5012 16.2506L18.7517 16.2506L18.7517 13.7494L20 13.7494L20 6.25058L18.7517 6.25058L18.7517 3.74942L17.5012 3.74942L17.5012 2.49884L16.2506 2.49884L16.2506 1.24825L13.7494 1.24825L13.7494 0L6.25058 0L6.25058 1.24825L3.74942 1.24825L3.74942 2.49884L2.49884 2.49884L2.49884 3.74942L1.24825 3.74942L1.24825 6.25058L0 6.25058L0 13.7494Z" fill="#12032E"/>
<path d="M1.24825 13.7494L2.4988 13.7494L2.49884 16.2506L3.74938 16.2506L3.74942 17.5012L6.25055 17.5012L6.25058 18.7517L13.7494 18.7517L13.7494 17.5012L16.2506 17.5012L16.2505 16.2506L17.5012 16.2506L17.5011 13.7494L18.7517 13.7494L18.7517 6.25058L17.5011 6.25058L17.5012 3.74942L16.2505 3.74942L16.2506 2.49884L13.7494 2.49883L13.7494 1.24825L6.25058 1.24825L6.25055 2.49883L3.74942 2.49884L3.74938 3.74942L2.49884 3.74942L2.4988 6.25058L1.24825 6.25058L1.24825 13.7494Z" fill="#8F17F9"/>
<path d="M5.00013 15L6.25071 15L6.25071 16.2506L5.00013 16.2506L5.00013 15ZM5.00013 3.74942L6.25071 3.74942L6.25071 5L5.00013 5L5.00013 3.74942Z" fill="#12032E"/>
<path d="M3.74955 5.00003L5.00013 5L5.00013 6.25061L3.74955 6.25061L3.74955 5.00003Z" fill="#12032E"/>
<path d="M2.4988 6.25058L3.74955 6.25061L3.74952 13.7518L2.49894 13.7518L2.4988 6.25058Z" fill="#12032E"/>
<path d="M3.74955 13.7494L5.00013 13.7494L5.00013 15L3.74955 15L3.74955 13.7494ZM6.25055 2.49883L13.7519 2.49887L13.7519 3.74945L6.25071 3.74942L6.25055 2.49883Z" fill="#12032E"/>
<path d="M15.0001 5L16.2507 5L16.2507 6.25058L15.0001 6.25058L15.0001 5ZM15.0001 13.7494L16.2507 13.7494L16.2507 15L15.0001 15L15.0001 13.7494Z" fill="#FA34F3"/>
<path d="M16.2507 6.25058L17.5011 6.25058L17.5013 13.7517L16.2507 13.7517L16.2507 6.25058ZM6.25071 16.2506L13.7519 16.2506L13.7519 17.5012L6.25055 17.5012L6.25071 16.2506Z" fill="#FA34F3"/>
<path d="M13.7496 15L15.0001 15L15.0001 16.2506L13.7496 16.2506L13.7496 15ZM13.7496 3.74942L15.0001 3.74942L15.0001 5L13.7496 5L13.7496 3.74942Z" fill="#FA34F3"/>
<path d="M15.0001 6.25058L15.0001 5L13.7496 5L13.7496 3.74942L6.25071 3.74942L6.25071 5L5.00013 5L5.00013 6.25061L3.74955 6.25061L3.74952 13.7518L4.99999 13.7517L4.99999 15.0023L6.25058 15.0023L6.25058 16.2529L13.7494 16.2529L13.7494 15.0023L15 15.0023L15.0001 13.7494L16.2507 13.7494L16.2506 6.24825L15 6.24825L15.0001 6.25058Z" fill="#8F17F9"/>
<path d="M14.0151 8.39313L14.0151 7.59201L13.2139 7.59201L13.2139 6.79089L12.4105 6.79089L12.4105 5.98977L11.607 5.98977L11.607 5.18633L10.8059 5.18633L10.8059 4.38521L9.19904 4.38521L9.19904 5.18633L8.39792 5.18633L8.39792 5.98745L7.59447 5.98745L7.59447 6.78856L6.79335 6.78856L6.79335 7.59201L5.99223 7.59201L5.99223 8.39313L5.18879 8.39313L5.18879 11.6023L5.9899 11.6023L5.9899 12.4057L6.79102 12.4057L6.79102 13.2068L7.59447 13.2068L7.59447 14.0079L8.39326 14.0079L8.39326 14.8114L9.19438 14.8114L9.19438 15.6125L10.8013 15.6125L10.8013 14.8114L11.6024 14.8114L11.6024 14.0103L12.4058 14.0103L12.4058 13.2092L13.207 13.2092L13.207 12.4057L14.0081 12.4057L14.0081 11.6069L14.8115 11.6069L14.8115 8.39546L14.0104 8.39546L14.0104 8.39313L14.0151 8.39313Z" fill="#12032E"/>
<path d="M13.2093 8.3931L13.2093 7.59198L12.4082 7.59198L12.4082 6.79086L11.607 6.79086L11.607 5.98977L10.8059 5.98974L10.8059 5.18633L9.19904 5.18633L9.19903 5.98741L8.39792 5.98745L8.39791 6.78853L7.59447 6.78856L7.59447 7.59198L6.79335 7.59201L6.79335 8.3931L5.99223 8.39313L5.99223 11.6022L6.79335 11.6022L6.79335 12.4057L7.59447 12.4057L7.59447 13.2068L8.39326 13.2068L8.39326 14.0079L9.19437 14.0079L9.19438 14.8114L10.8013 14.8114L10.8013 14.0102L11.6024 14.0103L11.6024 13.2091L12.4058 13.2092L12.4058 12.4057L13.207 12.4057L13.207 11.6069L14.0081 11.6069L14.0081 8.39543L13.207 8.39543L13.207 8.3931L13.2093 8.3931Z" fill="#501E80"/>
<path d="M13.2093 8.3931L13.2093 7.59198L12.4082 7.59198L12.4082 6.79086L11.607 6.79086L11.607 7.59198L10.0001 7.59198L10.0001 8.3931L9.19903 8.3931L9.19903 7.59198L10.0001 7.59198L10.0001 6.79086L11.607 6.79086L11.607 5.98977L10.0001 5.98974L10.0001 5.1863L9.19904 5.18633L9.19903 5.98741L8.39792 5.98745L8.39791 6.78853L7.59447 6.78856L7.59447 7.59198L6.79335 7.59201L6.79335 9.99999L5.99223 9.99999L5.99223 11.6069L6.79335 11.6069L6.79335 12.408L7.59447 12.408L7.59447 13.2091L8.39326 13.2091L8.39326 14.0102L9.19437 14.0102L9.19437 14.8137L10.8013 14.8137L10.8013 14.0126L11.6024 14.0126L11.6024 13.2114L12.4058 13.2114L12.4058 12.408L13.207 12.408L13.207 11.6069L14.0081 11.6069L14.0081 8.39543L13.207 8.39543L13.207 8.3931L13.2093 8.3931Z" fill="#39006A"/>
<path d="M10.0001 14.0149L10.8012 14.0149L10.8012 14.816L10.0001 14.816L10.0001 14.0149ZM10.0001 10L9.19897 10L9.19897 10.8011L10.8059 10.8011L10.8059 10L10.0001 10ZM6.79096 10L7.59208 10L7.59208 8.39312L6.79096 8.39312L6.79096 10ZM8.3932 5.98511L9.19431 5.98511L9.19431 6.78623L8.3932 6.78623L8.3932 5.98511Z" fill="#FA34F3"/>
<path d="M10 10.8011L10.8011 10.8011L10.8011 11.6023L10 11.6023L10 10.8011ZM9.19891 9.1989L10 9.1989L10.0001 10L9.19897 10L9.19891 9.1989ZM7.59202 6.79089L8.39314 6.79089L8.39314 7.592L7.59202 7.592L7.59202 6.79089ZM9.19891 5.18399L10 5.18399L10 5.98511L9.19891 5.98511L9.19891 5.18399Z" fill="#CF15F9"/>
<path d="M9.19888 12.408L10 12.408L10 10.8011L9.19897 10.8011L9.19888 12.408ZM10.0001 7.59198L10 5.98511L9.19891 5.98511L9.19888 6.78623L8.39776 6.78623L8.39776 7.58967L10 7.58967L10.0001 7.59198ZM8.39311 10L9.19422 10L9.19422 10.8011L8.39311 10.8011L8.39311 10ZM10.0001 8.3931L9.19903 8.3931L9.19888 9.19424L10 9.19424L10.0001 10L10.8011 10L10.8011 8.39312L10.0001 8.3931Z" fill="#45116B"/>
<path d="M10.8013 14.0102L11.6024 14.0103L11.6023 12.4033L10.8012 12.4033L10.8013 14.0102ZM11.607 9.99998L12.4081 9.99998L12.4081 10.8011L11.607 10.8011L11.607 9.99998ZM6.79096 10L7.59208 10L7.59208 10.8011L6.79096 10.8011L6.79096 10ZM10 5.98511L10.8012 5.98508L10.8012 6.7862L10.0001 6.7862L10 5.98511Z" fill="#8F17F9"/>
<path d="M12.4078 9.19892L13.2089 9.19892L13.2089 10L12.4081 9.99998L12.4078 9.19892Z" fill="#8F17F9"/>
<path d="M10.8011 10.8011L10.8007 12.408L11.6019 12.408L11.6019 11.6069L12.4053 11.6069L12.4053 10.8058L10.8011 10.8011ZM12.4076 10L13.2089 10L13.2088 10.8012L12.4076 10.8012L12.4076 10ZM7.59162 9.19892L7.59162 10L9.19851 10L9.19891 9.1989L7.59162 9.19892ZM5.98473 10L6.78584 10L6.78584 10.8012L5.98473 10.8012L5.98473 10Z" fill="#AC15F9"/>
<path d="M6.79053 7.592L7.59202 7.592L7.59208 8.39312L6.79096 8.39312L6.79053 7.592ZM13.2088 8.39312L13.2089 10L14.0099 10L14.0099 8.39312L13.2088 8.39312ZM10.8012 5.98508L11.6019 5.98511L11.6019 6.78623L10.8012 6.7862L10.8012 5.98508Z" fill="#AC15F9"/>
<path d="M9.19904 14.0149L10.0001 14.0149L10.0001 14.816L9.19904 14.816L9.19904 14.0149ZM12.4082 11.6069L13.2093 11.6069L13.2093 12.408L12.4082 12.408L12.4082 11.6069Z" fill="#200449"/>
<path d="M13.2093 10.8011L14.0104 10.8011L14.0104 11.6022L13.2093 11.6022L13.2093 10.8011ZM10 12.408L10.0001 14.0149L10.8012 14.0149L10.8013 11.6069L10.0002 11.6069L10 12.408ZM8.39311 10.8011L9.19422 10.8011L9.19439 11.6022L8.39327 11.6022L8.39311 10.8011ZM8.39327 11.6069L7.59215 11.6069L7.59215 13.2138L8.39327 13.2138L8.39327 11.6069Z" fill="#200449"/>
<path d="M11.607 9.19889L12.4078 9.19892L12.4081 9.99998L11.607 9.99998L11.607 9.19889ZM12.4081 8.39312L13.2093 8.3931L13.2093 9.19424L12.4081 9.19424L12.4081 8.39312ZM8.39326 13.2091L9.19436 13.2091L9.19437 14.0102L8.39326 14.0102L8.39326 13.2091Z" fill="#200449"/>
<path d="M11.6065 13.2092L12.4076 13.2092L12.4076 11.6023L11.6065 11.6023L11.6065 13.2092Z" fill="#39006A"/>
<path d="M12.4076 10.8012L13.2088 10.8012L13.2087 11.6022L12.4076 11.6023L12.4076 10.8012Z" fill="#39006A"/>
<path d="M13.2089 10L14.0099 10L14.0104 10.8011L13.2088 10.8012L13.2089 10ZM7.59208 10.8011L5.98473 10.8012L5.98485 11.6022L6.78597 11.6022L6.78597 12.4057L7.58942 12.4057L7.58942 11.6069L8.39327 11.6069L8.39311 10L7.59162 10L7.59208 10.8011ZM7.59202 7.592L7.59162 9.19892L8.39286 9.19889L8.39286 8.39777L9.19398 8.39777L9.19398 7.59433L7.59175 7.59433L7.59202 7.592ZM11.607 9.19889L12.4078 9.19892L12.4078 8.39777L11.6066 8.39777L11.6066 7.59433L9.99976 7.59433L10.0001 8.3931L10.8011 8.39312L10.8009 9.19423L11.6066 9.19423L11.607 9.19889Z" fill="#39006A"/>
<g style="mix-blend-mode:hard-light" opacity="0.7">
<path d="M0 13.7494L1.24825 13.7494L1.24825 16.2506L2.49884 16.2506L2.49884 17.5012L3.74942 17.5012L3.74942 18.7517L6.25058 18.7517L6.25058 20L13.7494 20L13.7494 18.7517L16.2506 18.7517L16.2506 17.5012L17.5012 17.5012L17.5012 16.2506L18.7517 16.2506L18.7517 13.7494L20 13.7494L20 6.25058L18.7517 6.25058L18.7517 3.74942L17.5012 3.74942L17.5012 2.49884L16.2506 2.49884L16.2506 1.24825L13.7494 1.24825L13.7494 0L6.25058 0L6.25058 1.24825L3.74942 1.24825L3.74942 2.49884L2.49884 2.49884L2.49884 3.74942L1.24825 3.74942L1.24825 6.25058L0 6.25058L0 13.7494Z" fill="#CD40FF"/>
<path d="M1.24825 13.7494L2.4988 13.7494L2.49884 16.2506L3.74938 16.2506L3.74942 17.5012L6.25055 17.5012L6.25058 18.7517L13.7494 18.7517L13.7494 17.5012L16.2506 17.5012L16.2505 16.2506L17.5012 16.2506L17.5011 13.7494L18.7517 13.7494L18.7517 6.25058L17.5011 6.25058L17.5012 3.74942L16.2505 3.74942L16.2506 2.49884L13.7494 2.49883L13.7494 1.24825L6.25058 1.24825L6.25055 2.49883L3.74942 2.49884L3.74938 3.74942L2.49884 3.74942L2.4988 6.25058L1.24825 6.25058L1.24825 13.7494Z" fill="#CD40FF"/>
<path d="M5.00013 15L6.25071 15L6.25071 16.2506L5.00013 16.2506L5.00013 15ZM5.00013 3.74942L6.25071 3.74942L6.25071 5L5.00013 5L5.00013 3.74942Z" fill="#CD40FF"/>
<path d="M3.74955 5.00003L5.00013 5L5.00013 6.25061L3.74955 6.25061L3.74955 5.00003Z" fill="#CD40FF"/>
<path d="M2.4988 6.25058L3.74955 6.25061L3.74952 13.7518L2.49894 13.7518L2.4988 6.25058Z" fill="#CD40FF"/>
<path d="M3.74955 13.7494L5.00013 13.7494L5.00013 15L3.74955 15L3.74955 13.7494ZM6.25055 2.49883L13.7519 2.49887L13.7519 3.74945L6.25071 3.74942L6.25055 2.49883Z" fill="#CD40FF"/>
<path d="M15.0001 5L16.2507 5L16.2507 6.25058L15.0001 6.25058L15.0001 5ZM15.0001 13.7494L16.2507 13.7494L16.2507 15L15.0001 15L15.0001 13.7494Z" fill="#CD40FF"/>
<path d="M16.2507 6.25058L17.5011 6.25058L17.5013 13.7517L16.2507 13.7517L16.2507 6.25058ZM6.25071 16.2506L13.7519 16.2506L13.7519 17.5012L6.25055 17.5012L6.25071 16.2506Z" fill="#CD40FF"/>
<path d="M13.7496 15L15.0001 15L15.0001 16.2506L13.7496 16.2506L13.7496 15ZM13.7496 3.74942L15.0001 3.74942L15.0001 5L13.7496 5L13.7496 3.74942Z" fill="#CD40FF"/>
<path d="M15.0001 6.25058L15.0001 5L13.7496 5L13.7496 3.74942L6.25071 3.74942L6.25071 5L5.00013 5L5.00013 6.25061L3.74955 6.25061L3.74952 13.7518L4.99999 13.7517L4.99999 15.0023L6.25058 15.0023L6.25058 16.2529L13.7494 16.2529L13.7494 15.0023L15 15.0023L15.0001 13.7494L16.2507 13.7494L16.2506 6.24825L15 6.24825L15.0001 6.25058Z" fill="#CD40FF"/>
<path d="M14.0151 8.39313L14.0151 7.59201L13.2139 7.59201L13.2139 6.79089L12.4105 6.79089L12.4105 5.98977L11.607 5.98977L11.607 5.18633L10.8059 5.18633L10.8059 4.38521L9.19903 4.38521L9.19903 5.18633L8.39792 5.18633L8.39792 5.98745L7.59447 5.98745L7.59447 6.78856L6.79335 6.78856L6.79335 7.59201L5.99223 7.59201L5.99223 8.39313L5.18879 8.39313L5.18879 11.6023L5.9899 11.6023L5.9899 12.4057L6.79102 12.4057L6.79102 13.2068L7.59447 13.2068L7.59447 14.0079L8.39326 14.0079L8.39326 14.8114L9.19438 14.8114L9.19438 15.6125L10.8013 15.6125L10.8013 14.8114L11.6024 14.8114L11.6024 14.0103L12.4058 14.0103L12.4058 13.2092L13.207 13.2092L13.207 12.4057L14.0081 12.4057L14.0081 11.6069L14.8115 11.6069L14.8115 8.39546L14.0104 8.39546V8.39313H14.0151Z" fill="#CD40FF"/>
<path d="M13.2093 8.3931L13.2093 7.59198L12.4082 7.59198L12.4082 6.79086L11.607 6.79086L11.607 5.98977L10.8059 5.98974L10.8059 5.18633L9.19903 5.18633L9.19903 5.98741L8.39792 5.98745L8.39791 6.78853L7.59447 6.78856L7.59447 7.59198L6.79335 7.59201L6.79335 8.3931L5.99223 8.39313L5.99223 11.6022L6.79335 11.6022L6.79335 12.4057L7.59447 12.4057L7.59447 13.2068L8.39326 13.2068L8.39326 14.0079L9.19437 14.0079L9.19438 14.8114L10.8013 14.8114L10.8013 14.0102L11.6024 14.0103L11.6024 13.2091L12.4058 13.2092L12.4058 12.4057L13.207 12.4057L13.2069 11.6069L14.0081 11.6069L14.0081 8.39543L13.2069 8.39543V8.3931H13.2093Z" fill="#CD40FF"/>
<path d="M13.2093 8.3931L13.2093 7.59198L12.4082 7.59198L12.4082 6.79086L11.607 6.79086L11.607 7.59198L10.0001 7.59198L10.0001 8.3931L9.19903 8.3931L9.19903 7.59198L10.0001 7.59198L10.0001 6.79086L11.607 6.79086L11.607 5.98977L10.0001 5.98974L10.0001 5.1863L9.19903 5.18633L9.19903 5.98741L8.39792 5.98745L8.39791 6.78853L7.59447 6.78856L7.59447 7.59198L6.79335 7.59201L6.79335 9.99999L5.99223 9.99999L5.99223 11.6069L6.79335 11.6069L6.79335 12.408L7.59447 12.408L7.59447 13.2091L8.39326 13.2091L8.39326 14.0102L9.19437 14.0102L9.19437 14.8137L10.8013 14.8137L10.8013 14.0126L11.6024 14.0126L11.6024 13.2114L12.4058 13.2114L12.4058 12.408L13.2069 12.408L13.2069 11.6069L14.0081 11.6069L14.0081 8.39543L13.2069 8.39543V8.3931H13.2093Z" fill="#CD40FF"/>
<path d="M10.0001 14.0149L10.8012 14.0149L10.8012 14.816L10.0001 14.816L10.0001 14.0149ZM10.0001 10L9.19897 10L9.19897 10.8011L10.8059 10.8011L10.8059 10L10.0001 10ZM6.79096 10L7.59208 10L7.59208 8.39312L6.79096 8.39312L6.79096 10ZM8.3932 5.98511L9.19431 5.98511L9.19431 6.78623L8.3932 6.78623L8.3932 5.98511Z" fill="#CD40FF"/>
<path d="M10 10.8011L10.8011 10.8011L10.8011 11.6023L10 11.6023L10 10.8011ZM9.19891 9.1989L10 9.1989L10.0001 10L9.19897 10L9.19891 9.1989ZM7.59202 6.79089L8.39314 6.79089L8.39314 7.592L7.59202 7.592L7.59202 6.79089ZM9.19891 5.18399L10 5.18399L10 5.98511L9.19891 5.98511L9.19891 5.18399Z" fill="#CD40FF"/>
<path d="M9.19888 12.408L10 12.408L10 10.8011L9.19897 10.8011L9.19888 12.408ZM10.0001 7.59198L10 5.98511L9.19891 5.98511L9.19888 6.78623L8.39776 6.78623L8.39776 7.58967L10 7.58967L10.0001 7.59198ZM8.39311 10L9.19422 10L9.19422 10.8011L8.39311 10.8011L8.39311 10ZM10.0001 8.3931L9.19903 8.3931L9.19888 9.19424L10 9.19424L10.0001 10L10.8011 10L10.8011 8.39312L10.0001 8.3931Z" fill="#CD40FF"/>
<path d="M10.8013 14.0102L11.6024 14.0103L11.6023 12.4033L10.8012 12.4033L10.8013 14.0102ZM11.607 9.99998L12.4081 9.99998L12.4081 10.8011L11.607 10.8011L11.607 9.99998ZM6.79096 10L7.59208 10L7.59208 10.8011L6.79096 10.8011L6.79096 10ZM10 5.98511L10.8012 5.98508L10.8012 6.7862L10.0001 6.7862L10 5.98511Z" fill="#CD40FF"/>
<path d="M12.4078 9.19892L13.2089 9.19892L13.2089 10L12.4081 9.99998L12.4078 9.19892Z" fill="#CD40FF"/>
<path d="M10.8011 10.8011L10.8007 12.408L11.6019 12.408L11.6019 11.6069L12.4053 11.6069L12.4053 10.8058L10.8011 10.8011ZM12.4081 9.99998L13.2089 10L13.2088 10.8012L12.4081 10.8011L12.4081 9.99998ZM7.59162 9.19892L7.59208 10L9.19897 10L9.19891 9.1989L7.59162 9.19892ZM5.98473 10L6.78584 10L6.78584 10.8012L5.98473 10.8012L5.98473 10Z" fill="#CD40FF"/>
<path d="M6.79053 7.592L7.59202 7.592L7.59208 8.39312L6.79096 8.39312L6.79053 7.592ZM13.2093 8.3931L13.2089 10L14.0099 10L14.0104 8.39313L13.2093 8.3931ZM10.8012 5.98508L11.6019 5.98511L11.6019 6.78623L10.8012 6.7862L10.8012 5.98508Z" fill="#CD40FF"/>
<path d="M9.19904 14.0149L10.0001 14.0149L10.0001 14.816L9.19904 14.816L9.19904 14.0149ZM12.4082 11.6069L13.2093 11.6069L13.2093 12.408L12.4082 12.408L12.4082 11.6069Z" fill="#CD40FF"/>
<path d="M13.2088 10.8012L14.0104 10.8011L14.0104 11.6022L13.2093 11.6022L13.2088 10.8012ZM10 12.408L10.0001 14.0149L10.8012 14.0149L10.8013 11.6069L10.0002 11.6069L10 12.408ZM8.39311 10.8011L9.19422 10.8011L9.19439 11.6022L8.39327 11.6022L8.39311 10.8011ZM8.39327 11.6069L7.59215 11.6069L7.59215 13.2138L8.39327 13.2138L8.39327 11.6069Z" fill="#CD40FF"/>
<path d="M11.607 9.19889L12.4078 9.19892L12.4081 9.99998L11.607 9.99998L11.607 9.19889ZM12.4081 8.39312L13.2093 8.3931L13.2093 9.19424L12.4081 9.19424L12.4081 8.39312ZM8.39326 13.2091L9.19436 13.2091L9.19437 14.0102L8.39326 14.0102L8.39326 13.2091Z" fill="#CD40FF"/>
<path d="M11.6065 13.2092L12.4076 13.2092L12.4076 11.6023L11.6065 11.6023L11.6065 13.2092Z" fill="#CD40FF"/>
<path d="M12.4081 10.8011L13.2088 10.8012L13.2093 11.6022L12.4076 11.6023L12.4081 10.8011Z" fill="#CD40FF"/>
<path d="M13.2089 10L14.0099 10L14.0104 10.8011L13.2088 10.8012L13.2089 10ZM7.59208 10.8011L5.98473 10.8012L5.98485 11.6022L6.78597 11.6022L6.78597 12.4057L7.58942 12.4057L7.58942 11.6069L8.39327 11.6069L8.39311 10L7.59208 10L7.59208 10.8011ZM7.59202 7.592L7.59162 9.19892L8.39286 9.19889L8.39286 8.39777L9.19398 8.39777L9.19398 7.59433L7.59174 7.59433L7.59202 7.592ZM11.607 9.19889L12.4078 9.19892L12.4078 8.39777L11.6066 8.39777L11.6066 7.59433L9.99976 7.59433L10.0001 8.3931L10.8011 8.39312L10.8009 9.19423L11.6066 9.19423L11.607 9.19889Z" fill="#CD40FF"/>
</g>
</svg>
