<svg width="18" height="18" viewBox="0 0 18 18" fill="none" xmlns="http://www.w3.org/2000/svg">
<path d="M16.9852 7.92792C16.6402 7.58272 16.2298 7.40615 15.7543 7.40615C15.2788 7.40615 14.8778 7.57477 14.5326 7.918C14.1877 8.26121 14.0197 8.67188 14.0197 9.14603C14.0197 9.62018 14.1853 10.0229 14.5233 10.3642C14.8658 10.7094 15.2786 10.876 15.7543 10.876C16.23 10.876 16.6402 10.7074 16.9852 10.3642C17.3301 10.019 17.498 9.62021 17.498 9.14603C17.498 8.67188 17.3301 8.27113 16.9852 7.92792Z" fill="#00B9E1"/>
<path d="M13.6561 12.475C13.2085 12.475 12.8354 12.6238 12.5277 12.9313C12.2199 13.2368 12.0707 13.5999 12.0707 14.0363C12.0707 14.4748 12.2175 14.8478 12.5277 15.1632C12.833 15.4707 13.2085 15.6175 13.6561 15.6175C14.0943 15.6175 14.458 15.4687 14.7658 15.1632C15.0829 14.8458 15.2414 14.4748 15.2414 14.0363C15.2414 13.5999 15.0807 13.2388 14.7658 12.9313C14.4556 12.6258 14.0943 12.475 13.6561 12.475Z" fill="#00B9E1"/>
<path d="M13.8892 6.2535C14.4021 6.2535 14.8497 6.06702 15.2227 5.69603C15.5958 5.32307 15.7822 4.87667 15.7822 4.3569C15.7822 3.82718 15.5956 3.38081 15.2227 3.00785C14.8591 2.64481 14.4115 2.46029 13.8892 2.46029C13.3577 2.46029 12.91 2.64481 12.5464 3.00785C12.1734 3.38081 11.9869 3.82721 11.9869 4.3569C11.9869 4.87667 12.1735 5.32304 12.5464 5.69603C12.9194 6.06702 13.367 6.2535 13.8892 6.2535Z" fill="#00B9E1"/>
<path d="M8.73224 14.4926C8.34052 14.4926 8.00252 14.6295 7.72521 14.9112C7.45246 15.187 7.31499 15.5242 7.31499 15.925C7.31499 16.3158 7.45266 16.6531 7.72521 16.9189C8.00274 17.1927 8.34074 17.3296 8.73224 17.3296C9.1333 17.3296 9.46655 17.1867 9.7393 16.9189C10.0168 16.6471 10.1589 16.3158 10.1589 15.925C10.1589 15.5242 10.019 15.181 9.7393 14.9013C9.46894 14.6315 9.13332 14.4926 8.73224 14.4926Z" fill="#00B9E1"/>
<path d="M8.73224 0.32959C8.16346 0.32959 7.67844 0.525987 7.27758 0.924765C6.87652 1.32551 6.68074 1.79966 6.68074 2.36705C6.68074 2.93444 6.87649 3.42646 7.27758 3.82718C7.67863 4.22596 8.16346 4.42235 8.73224 4.42235C9.30102 4.42235 9.78605 4.22596 10.1869 3.82718C10.588 3.42643 10.7931 2.93442 10.7931 2.36705C10.7931 1.79969 10.588 1.32551 10.1869 0.924765C9.78605 0.525987 9.30102 0.32959 8.73224 0.32959Z" fill="#00B9E1"/>
<path d="M3.81777 5.29528C4.06963 5.29528 4.30241 5.21196 4.48919 5.02548C4.86241 4.65449 4.86241 4.04939 4.48919 3.67843C4.30238 3.49195 4.06963 3.40862 3.81777 3.40862C3.57527 3.40862 3.34549 3.49394 3.15569 3.67843C2.76716 4.05338 2.76716 4.65052 3.15569 5.02548C3.34549 5.20999 3.57546 5.29528 3.81777 5.29528Z" fill="#00B9E1"/>
<path d="M3.81777 12.6694C3.47282 12.6694 3.17896 12.8043 2.92252 13.0523C2.67544 13.2884 2.54949 13.582 2.54949 13.9252C2.54949 14.2704 2.67066 14.568 2.92252 14.818C3.17438 15.07 3.4728 15.1989 3.81777 15.1989C4.16274 15.1989 4.46116 15.07 4.71302 14.818C4.96488 14.568 5.08605 14.2704 5.08605 13.9252C5.08605 13.582 4.96013 13.2884 4.71302 13.0523C4.45657 12.8043 4.16296 12.6694 3.81777 12.6694Z" fill="#00B9E1"/>
<path d="M2.38182 8.36437C2.16735 8.15011 1.91549 8.03903 1.60774 8.03903C1.29999 8.03903 1.02963 8.15011 0.815158 8.36437C0.600686 8.57864 0.498047 8.83852 0.498047 9.146C0.498047 9.45151 0.600686 9.72134 0.815158 9.93561C1.02963 10.1498 1.29999 10.253 1.60774 10.253C1.91549 10.253 2.16716 10.1498 2.38182 9.93561C2.59627 9.72134 2.70827 9.45151 2.70827 9.146C2.70807 8.83852 2.59627 8.57861 2.38182 8.36437Z" fill="#00B9E1"/>
</svg>
