<svg width="42" height="54" viewBox="0 0 42 54" fill="none" xmlns="http://www.w3.org/2000/svg">
<g filter="url(#filter0_d_7853_73534)">
<path d="M34.4148 47.5024C33.005 47.5024 8.02963 47.5024 7.21778 47.5024C6.40593 47.5024 6.03057 46.7795 6.02903 46.4169C5.99594 39.1132 6.00697 31.8094 6 24.5057C5.99942 23.8431 6.29471 23.427 6.9894 23.3887C7.61134 23.3542 7.72125 23.0264 7.7168 22.5355C7.70577 21.2774 7.69377 20.0189 7.7168 18.7611C7.81781 13.2355 10.0683 9.2175 15.2647 6.91422C17.9608 5.7516 21.0899 6.00012 22.046 6.07316C22.3609 6.09722 22.6234 6.12702 22.8107 6.15303C27.3427 6.78128 29.8705 9.06384 32 13C33.9382 16.5827 32.8925 22.8469 33.0691 23.3756C30.8924 23.3756 32.1133 23.3752 28.7654 23.3752C28.6519 23.2258 29.1505 20 28.3084 16.4554C26.9848 10.8848 21.9325 10.2721 19.3955 10.6397C16.7451 11.0236 14.1602 12.7095 13.2482 16.4554C12.8049 18.2761 12.95 20.2315 12.8776 22.1277C12.8314 23.3387 12.8993 23.3737 14.1613 23.3745C18.6761 23.3776 21.5669 23.3757 26.0816 23.3757C28.8871 23.3757 31.6927 23.3732 34.4982 23.377C35.7268 23.3787 35.9944 23.6277 36 24.7558C35.9334 37.1348 35.9334 31.7589 35.9334 44.4043C35.9334 45.1985 36.0385 47.5024 34.4148 47.5024ZM18.6174 38.3693C18.6174 38.8972 18.5845 39.2381 18.6232 39.5714C18.7663 40.7977 19.7829 41.6884 21.0044 41.6842C22.2625 41.6797 23.2893 40.7327 23.3868 39.4701C23.4127 39.1343 23.4323 38.7904 23.3868 38.4588C23.2663 37.5767 23.6335 37.0082 24.3582 36.4313C24.9571 35.9544 25.5287 35.2044 25.6704 34.4952C26.0452 32.6201 25.3136 31.024 23.6293 29.9643C21.9522 28.9092 20.157 28.9061 18.4466 29.9113C15.8886 31.4148 15.4497 34.8287 17.6226 36.4534C18.4017 37.0357 18.7858 37.6413 18.6174 38.3693Z" fill="#C82AC2" fill-opacity="0.5" shape-rendering="crispEdges"/>
<path d="M34.4148 47.5024C33.005 47.5024 8.02963 47.5024 7.21778 47.5024C6.40593 47.5024 6.03057 46.7795 6.02903 46.4169C5.99594 39.1132 6.00697 31.8094 6 24.5057C5.99942 23.8431 6.29471 23.427 6.9894 23.3887C7.61134 23.3542 7.72125 23.0264 7.7168 22.5355C7.70577 21.2774 7.69377 20.0189 7.7168 18.7611C7.81781 13.2355 10.0683 9.2175 15.2647 6.91422C17.9608 5.7516 21.0899 6.00012 22.046 6.07316C22.3609 6.09722 22.6234 6.12702 22.8107 6.15303C27.3427 6.78128 29.8705 9.06384 32 13C33.9382 16.5827 32.8925 22.8469 33.0691 23.3756C30.8924 23.3756 32.1133 23.3752 28.7654 23.3752C28.6519 23.2258 29.1505 20 28.3084 16.4554C26.9848 10.8848 21.9325 10.2721 19.3955 10.6397C16.7451 11.0236 14.1602 12.7095 13.2482 16.4554C12.8049 18.2761 12.95 20.2315 12.8776 22.1277C12.8314 23.3387 12.8993 23.3737 14.1613 23.3745C18.6761 23.3776 21.5669 23.3757 26.0816 23.3757C28.8871 23.3757 31.6927 23.3732 34.4982 23.377C35.7268 23.3787 35.9944 23.6277 36 24.7558C35.9334 37.1348 35.9334 31.7589 35.9334 44.4043C35.9334 45.1985 36.0385 47.5024 34.4148 47.5024ZM18.6174 38.3693C18.6174 38.8972 18.5845 39.2381 18.6232 39.5714C18.7663 40.7977 19.7829 41.6884 21.0044 41.6842C22.2625 41.6797 23.2893 40.7327 23.3868 39.4701C23.4127 39.1343 23.4323 38.7904 23.3868 38.4588C23.2663 37.5767 23.6335 37.0082 24.3582 36.4313C24.9571 35.9544 25.5287 35.2044 25.6704 34.4952C26.0452 32.6201 25.3136 31.024 23.6293 29.9643C21.9522 28.9092 20.157 28.9061 18.4466 29.9113C15.8886 31.4148 15.4497 34.8287 17.6226 36.4534C18.4017 37.0357 18.7858 37.6413 18.6174 38.3693Z" stroke="#F31CED" stroke-width="2" shape-rendering="crispEdges"/>
</g>
<defs>
<filter id="filter0_d_7853_73534" x="0" y="-0.000488281" width="42" height="53.5029" filterUnits="userSpaceOnUse" color-interpolation-filters="sRGB">
<feFlood flood-opacity="0" result="BackgroundImageFix"/>
<feColorMatrix in="SourceAlpha" type="matrix" values="0 0 0 0 0 0 0 0 0 0 0 0 0 0 0 0 0 0 127 0" result="hardAlpha"/>
<feOffset/>
<feGaussianBlur stdDeviation="2.5"/>
<feComposite in2="hardAlpha" operator="out"/>
<feColorMatrix type="matrix" values="0 0 0 0 0.784314 0 0 0 0 0.164706 0 0 0 0 0.760784 0 0 0 1 0"/>
<feBlend mode="normal" in2="BackgroundImageFix" result="effect1_dropShadow_7853_73534"/>
<feBlend mode="normal" in="SourceGraphic" in2="effect1_dropShadow_7853_73534" result="shape"/>
</filter>
</defs>
</svg>
