<svg width="20" height="24" viewBox="0 0 20 24" fill="none" xmlns="http://www.w3.org/2000/svg">
<path d="M19.3599 21.4727L18.7399 21.4727L18.7399 20.846L18.7399 20.2192L18.7399 19.5721L18.7399 18.9453L18.7399 18.3185L18.7399 17.6917L18.7399 17.0447L18.7399 16.4179L18.7399 15.7911L18.7399 15.1643L18.12 15.1643L17.5 15.1643L17.5 14.5173L17.5 13.8905L17.5 13.2637L17.5 12.6369L16.86 12.6369L16.24 12.6369L16.24 11.9899L16.24 11.3631L16.24 10.7364L16.24 10.1095L15.62 10.1095L15 10.1095L15 9.46254L15 8.83575L14.36 8.83575L13.74 8.83575L13.74 8.20897L13.74 7.58216L14.36 7.58216L15 7.58216L15 6.93515L15 6.30837L15.62 6.30837L16.24 6.30837L16.24 5.68156L16.24 5.05477L16.86 5.05477L17.5 5.05477L17.5 4.40777L17.5 3.78098L16.86 3.78098L16.24 3.78098L16.24 3.15417L16.24 2.52739L15.62 2.52739L15 2.52739L14.36 2.52739L13.74 2.52739L13.74 1.88038L13.74 1.25358L13.12 1.25358L12.5 1.25358L12.5 0.626792L12.5 -1.63303e-09L11.86 -1.54942e-09L11.24 -1.46842e-09L10.62 -1.38742e-09L10 -1.30642e-09L9.36001 -1.22281e-09L8.74 -1.14181e-09L8.12 -1.06081e-09L7.50001 -9.79817e-10L7.50001 0.626792L7.50001 1.25358L6.85999 1.25358L6.24 1.25358L6.24 1.88038L6.24 2.52739L5.62 2.52739L4.99999 2.52739L4.35999 2.52739L3.74 2.52739L3.74 3.15417L3.74 3.78098L3.12 3.78098L2.49999 3.78098L2.49999 4.40777L2.49999 5.05477L3.12 5.05477L3.74 5.05477L3.74 5.68156L3.74 6.30837L4.35999 6.30837L4.99999 6.30837L4.99999 6.93515L4.99999 7.58216L5.62 7.58216L6.24 7.58216L6.24 8.20897L6.24 8.83575L5.62 8.83575L4.99999 8.83575L4.99999 9.46254L4.99999 10.1095L4.35999 10.1095L3.74 10.1095L3.74 10.7364L3.74 11.3631L3.74 11.9899L3.74 12.6369L3.12 12.6369L2.49999 12.6369L2.49999 13.2637L2.49999 13.8905L2.49999 14.5173L2.49999 15.1643L1.85999 15.1643L1.24 15.1643L1.24 15.7911L1.24 16.4179L1.24 17.0447L1.24 17.6917L1.24 18.3185L1.24 18.9453L1.24 19.5721L1.24 20.2192L1.24 20.846L1.24 21.4727L0.619999 21.4727L-2.77485e-09 21.4727L-2.85584e-09 22.0995L-2.93944e-09 22.7464L-3.02044e-09 23.3732L-3.10143e-09 24L0.619999 24L1.24 24L1.85999 24L2.49999 24L3.12 24L3.74 24L4.35999 24L4.99999 24L5.62 24L6.24 24L6.85999 24L7.50001 24L8.12 24L8.73999 24L9.36001 24L10 24L10.62 24L11.24 24L11.86 24L12.5 24L13.12 24L13.74 24L14.36 24L15 24L15.62 24L16.24 24L16.86 24L17.5 24L18.12 24L18.7399 24L19.3599 24L20 24L20 23.3732L20 22.7464L20 22.0995L20 21.4727L19.3599 21.4727Z" fill="#190038"/>
<path d="M5.00023 5.0551L5.00023 5.68188L5.00023 6.30869L5.62024 6.30869L6.24023 6.30869L6.24023 6.93547L6.24023 7.58248L6.86023 7.58248L7.50024 7.58248L8.12024 7.58248L8.74023 7.58248L9.36025 7.58248L10.0002 7.58248L10.6202 7.58248L11.2402 7.58248L11.8602 7.58248L12.5002 7.58248L13.1202 7.58248L13.7402 7.58248L13.7402 6.93547L13.7402 6.30869L14.3602 6.30869L15.0002 6.30869L15.0002 5.68188L15.0002 5.0551L15.6202 5.0551L16.2402 5.0551L16.2402 4.40809L16.2402 3.7813L15.6202 3.7813L15.0002 3.7813L14.3602 3.7813L13.7402 3.7813L13.7402 4.40809L13.7402 5.0551L13.1202 5.0551L12.5002 5.0551L12.5002 5.68188L12.5002 6.30869L11.8602 6.30869L11.2402 6.30869L11.2402 5.68188L11.2402 5.0551L11.8602 5.0551L12.5002 5.0551L12.5002 4.40809L12.5002 3.7813L12.5002 3.1545L12.5002 2.52771L12.5002 1.8807L12.5002 1.25391L11.8602 1.25391L11.2402 1.25391L10.6202 1.25391L10.0002 1.25391L9.36025 1.25391L8.74023 1.25391L8.12024 1.25391L7.50024 1.25391L7.50024 1.8807L7.50024 2.52771L7.50024 3.1545L7.50024 3.7813L7.50024 4.40809L7.50024 5.0551L8.12024 5.0551L8.74023 5.0551L8.74023 5.68188L8.74023 6.30869L8.12024 6.30869L7.50024 6.30869L7.50024 5.68188L7.50024 5.0551L6.86023 5.0551L6.24023 5.0551L6.24023 4.40809L6.24023 3.7813L5.62024 3.7813L5.00023 3.7813L4.36023 3.7813L3.74023 3.7813L3.74023 4.40809L3.74023 5.0551L4.36023 5.0551L5.00023 5.0551Z" fill="#FA34F3"/>
<path d="M18.1202 21.4724L17.5002 21.4724L17.5002 20.8457L17.5002 20.2189L17.5002 19.5718L17.5002 18.945L17.5002 18.3182L17.5002 17.6914L17.5002 17.0444L17.5002 16.4176L17.5002 15.7908L17.5002 15.164L16.8602 15.164L16.2402 15.164L16.2402 14.517L16.2402 13.8902L16.2402 13.2634L16.2402 12.6366L15.6202 12.6366L15.0002 12.6366L15.0002 11.9896L15.0002 11.3628L15.0002 10.736L15.0002 10.1092L14.3602 10.1092L13.7402 10.1092L13.7402 9.46224L13.7402 8.83545L13.1202 8.83545L12.5002 8.83545L11.8602 8.83545L11.2402 8.83545L10.6202 8.83545L10.0002 8.83545L9.36023 8.83545L8.74023 8.83545L8.12024 8.83545L7.50024 8.83545L6.86023 8.83545L6.24023 8.83545L6.24023 9.46224L6.24023 10.1092L5.62024 10.1092L5.00023 10.1092L5.00023 10.736L5.00023 11.3628L5.00023 11.9896L5.00023 12.6366L4.36023 12.6366L3.74024 12.6366L3.74024 13.2634L3.74024 13.8902L3.74024 14.517L3.74024 15.164L3.12024 15.164L2.50023 15.164L2.50023 15.7908L2.50023 16.4176L2.50023 17.0444L2.50023 17.6914L2.50023 18.3182L2.50023 18.945L2.50023 19.5718L2.50023 20.2189L2.50023 20.8457L2.50023 21.4724L1.86023 21.4724L1.24023 21.4724L1.24023 22.0992L1.24023 22.7461L1.86023 22.7461L2.50023 22.7461L3.12024 22.7461L3.74024 22.7461L3.74024 22.0992L4.36023 22.0992L5.00023 22.0992L5.00023 21.4724L5.00023 20.8457L5.62024 20.8457L6.24023 20.8457L6.24023 21.4724L6.24023 22.0992L6.24023 22.7461L6.86023 22.7461L7.50024 22.7461L8.12024 22.7461L8.74023 22.7461L9.36023 22.7461L10.0002 22.7461L10.6202 22.7461L11.2402 22.7461L11.8602 22.7461L12.5002 22.7461L13.1202 22.7461L13.7402 22.7461L14.3602 22.7461L15.0002 22.7461L15.0002 22.0992L14.3602 22.0992L13.7402 22.0992L13.7402 21.4724L13.7402 20.8457L14.3602 20.8457L15.0002 20.8457L15.0002 21.4724L15.6202 21.4724L16.2402 21.4724L16.2402 22.0992L16.2402 22.7461L16.8602 22.7461L17.5002 22.7461L18.1202 22.7461L18.7402 22.7461L18.7402 22.0992L18.7402 21.4724L18.1202 21.4724Z" fill="#FA34F3"/>
<path d="M15.6202 3.7813L15.0002 3.7813L14.3602 3.7813L13.7402 3.7813L13.7402 4.40809L13.7402 5.0551L13.1202 5.0551L12.5002 5.0551L12.5002 5.68188L12.5002 6.30869L11.8602 6.30869L11.2402 6.30869L11.2402 5.68188L11.2402 5.0551L11.8602 5.0551L12.5002 5.0551L12.5002 4.40809L12.5002 3.7813L12.5002 3.1545L12.5002 2.52771L12.5002 1.8807L12.5002 1.25391L11.8602 1.25391L11.2402 1.25391L10.6202 1.25391L10.0002 1.25391L9.36025 1.25391L8.74023 1.25391L8.12024 1.25391L7.50024 1.25391L7.50024 1.8807L7.50024 2.52771L7.50024 3.1545L7.50024 3.7813L7.50024 4.40809L7.50024 5.0551L8.12024 5.0551L8.74023 5.0551L8.74023 5.68188L8.74023 6.30869L8.12024 6.30869L7.50024 6.30869L7.50024 5.68188L7.50024 5.0551L6.86023 5.0551L6.24023 5.0551L6.24023 4.40809L6.24023 3.7813L5.62024 3.7813L5.00023 3.7813L4.36023 3.7813L3.74023 3.7813L3.74023 4.40809L3.74023 5.0551L4.36023 5.0551L5.00023 5.0551L5.00023 5.68188L5.00023 6.30869L5.62024 6.30869L6.24023 6.30869L6.24023 6.93547L6.24023 7.58248L6.86023 7.58248L7.50024 7.58248L8.12024 7.58248L8.74023 7.58248L9.36025 7.58248L10.0002 7.58248L10.6202 7.58248L11.2402 7.58248L11.8602 7.58248L12.5002 7.58248L13.1202 7.58248L13.7402 7.58248L13.7402 6.93547L13.7402 6.30869L14.3602 6.30869L15.0002 6.30869L15.0002 5.68188L15.0002 5.0551L15.6202 5.0551L16.2402 5.0551L16.2402 4.40809L16.2402 3.7813L15.6202 3.7813Z" fill="#FA34F3"/>
<path d="M14.36 10.1092L13.74 10.1092L13.74 9.46224L13.74 8.83545L13.12 8.83545L12.5 8.83545L11.86 8.83545L11.24 8.83545L10.62 8.83545L10 8.83545L9.36 8.83545L8.73999 8.83545L8.11999 8.83545L7.5 8.83545L6.85998 8.83545L6.23999 8.83545L6.23999 9.46224L6.23999 10.1092L5.61999 10.1092L5 10.1092L5 10.7361L5 11.3628L5 11.9896L5 12.6366L5.61999 12.6366L6.23999 12.6366L6.85998 12.6366L7.5 12.6366L8.11999 12.6366L8.73999 12.6366L9.36 12.6366L10 12.6366L10.62 12.6366L11.24 12.6366L11.86 12.6366L12.5 12.6366L13.12 12.6366L13.74 12.6366L14.36 12.6366L15 12.6366L15 11.9896L15 11.3628L15 10.7361L15 10.1092L14.36 10.1092Z" fill="#CF15F9"/>
<path d="M16.86 15.1639L16.24 15.1639L16.24 14.5169L16.24 13.8901L16.24 13.2633L16.24 12.6365L15.62 12.6365L15 12.6365L14.36 12.6365L13.74 12.6365L13.12 12.6365L12.5 12.6365L11.86 12.6365L11.24 12.6365L10.62 12.6365L10 12.6365L9.36002 12.6365L8.74 12.6365L8.12001 12.6365L7.50002 12.6365L6.86 12.6365L6.24001 12.6365L5.62001 12.6365L5 12.6365L4.36 12.6365L3.74001 12.6365L3.74001 13.2633L3.74001 13.8901L3.74001 14.5169L3.74001 15.1639L3.12001 15.1639L2.5 15.1639L2.5 15.7907L2.5 16.4175L3.12001 16.4175L3.74001 16.4175L4.36 16.4175L5 16.4175L5.62001 16.4175L6.24001 16.4175L6.86 16.4175L7.50002 16.4175L8.12001 16.4175L8.74 16.4175L9.36002 16.4175L10 16.4175L10.62 16.4175L11.24 16.4175L11.86 16.4175L12.5 16.4175L13.12 16.4175L13.74 16.4175L14.36 16.4175L15 16.4175L15.62 16.4175L16.24 16.4175L16.86 16.4175L17.5 16.4175L17.5 15.7907L17.5 15.1639L16.86 15.1639Z" fill="#AC15F9"/>
<path d="M16.86 16.4176L16.24 16.4176L15.62 16.4176L15 16.4176L14.36 16.4176L13.74 16.4176L13.12 16.4176L12.5 16.4176L11.86 16.4176L11.24 16.4176L10.62 16.4176L10 16.4176L9.36002 16.4176L8.74 16.4176L8.12001 16.4176L7.50002 16.4176L6.86 16.4176L6.24001 16.4176L5.62001 16.4176L5 16.4176L4.36 16.4176L3.74001 16.4176L3.12001 16.4176L2.5 16.4176L2.5 17.0444L2.5 17.6914L2.5 18.3182L2.5 18.945L2.5 19.5718L2.5 20.2189L3.12001 20.2189L3.74001 20.2189L4.36 20.2189L5 20.2189L5.62001 20.2189L6.24001 20.2189L6.86 20.2189L7.50002 20.2189L8.12001 20.2189L8.74 20.2189L9.36002 20.2189L10 20.2189L10.62 20.2189L11.24 20.2189L11.86 20.2189L12.5 20.2189L13.12 20.2189L13.74 20.2189L14.36 20.2189L15 20.2189L15.62 20.2189L16.24 20.2189L16.86 20.2189L17.5 20.2189L17.5 19.5718L17.5 18.945L17.5 18.3182L17.5 17.6914L17.5 17.0444L17.5 16.4176L16.86 16.4176Z" fill="#8F17F9"/>
<path d="M18.1202 21.4728L17.5002 21.4728L17.5002 20.846L17.5002 20.2192L16.8602 20.2192L16.2402 20.2192L15.6202 20.2192L15.0002 20.2192L14.3602 20.2192L13.7402 20.2192L13.1202 20.2192L12.5002 20.2192L11.8602 20.2192L11.2402 20.2192L10.6202 20.2192L10.0002 20.2192L9.36023 20.2192L8.74023 20.2192L8.12024 20.2192L7.50024 20.2192L6.86023 20.2192L6.24023 20.2192L5.62024 20.2192L5.00023 20.2192L4.36023 20.2192L3.74023 20.2192L3.12024 20.2192L2.50023 20.2192L2.50023 20.846L2.50023 21.4728L1.86023 21.4728L1.24023 21.4728L1.24023 22.0996L1.24023 22.7465L1.86023 22.7465L2.50023 22.7465L3.12024 22.7465L3.74023 22.7465L3.74023 22.0996L4.36023 22.0996L5.00023 22.0996L5.00023 21.4728L5.00023 20.846L5.62024 20.846L6.24023 20.846L6.24023 21.4728L6.24023 22.0996L6.24023 22.7465L6.86023 22.7465L7.50024 22.7465L8.12024 22.7465L8.74023 22.7465L9.36023 22.7465L10.0002 22.7465L10.6202 22.7465L11.2402 22.7465L11.8602 22.7465L12.5002 22.7465L13.1202 22.7465L13.7402 22.7465L14.3602 22.7465L15.0002 22.7465L15.0002 22.0996L14.3602 22.0996L13.7402 22.0996L13.7402 21.4728L13.7402 20.846L14.3602 20.846L15.0002 20.846L15.0002 21.4728L15.6202 21.4728L16.2402 21.4728L16.2402 22.0996L16.2402 22.7465L16.8602 22.7465L17.5002 22.7465L18.1202 22.7465L18.7402 22.7465L18.7402 22.0996L18.7402 21.4728L18.1202 21.4728Z" fill="#7E18F8"/>
<g opacity="0.25">
<path opacity="0.25" d="M13.7405 8.83545L13.1205 8.83545L12.5005 8.83545L12.5005 9.46224L12.5005 10.1092L13.1205 10.1092L13.7405 10.1092L13.7405 9.46224L13.7405 8.83545Z" fill="#190038"/>
<path opacity="0.25" d="M12.5005 6.93538L12.5005 7.58239L13.1205 7.58239L13.7405 7.58239L13.7405 6.93538L13.7405 6.30859L13.1205 6.30859L12.5005 6.30859L12.5005 6.93538Z" fill="#190038"/>
<path opacity="0.25" d="M16.24 5.05517L16.24 4.40816L16.24 3.78137L15.62 3.78137L15 3.78137L15 4.40816L15 5.05517L15.62 5.05517L16.24 5.05517Z" fill="#190038"/>
<path opacity="0.25" d="M12.4998 4.40809L12.4998 3.7813L12.4998 3.1545L12.4998 2.52771L12.4998 1.8807L12.4998 1.25391L11.8597 1.25391L11.2397 1.25391L11.2397 1.8807L11.2397 2.52771L11.2397 3.1545L11.2397 3.7813L11.2397 4.40809L11.2397 5.0551L11.8597 5.0551L12.4998 5.0551L12.4998 4.40809Z" fill="#190038"/>
<path opacity="0.25" d="M9.99951 5.05493L9.99951 5.68172L9.99951 6.30852L10.6195 6.30852L11.2395 6.30852L11.2395 5.68172L11.2395 5.05493L10.6195 5.05493L9.99951 5.05493Z" fill="#190038"/>
<path opacity="0.25" d="M6.24072 5.05493L6.24072 5.68172L6.24072 6.30852L6.86072 6.30852L7.50073 6.30852L7.50073 5.68172L7.50073 5.05493L6.86072 5.05493L6.24072 5.05493Z" fill="#190038"/>
<path opacity="0.25" d="M6.23999 3.78137L5.61999 3.78137L5 3.78137L5 4.40816L5 5.05517L5.61999 5.05517L6.23999 5.05517L6.23999 4.40816L6.23999 3.78137Z" fill="#190038"/>
<path opacity="0.25" d="M15.0002 6.30852L15.0002 5.68172L15.0002 5.05493L14.3602 5.05493L13.7402 5.05493L13.7402 5.68172L13.7402 6.30852L14.3602 6.30852L15.0002 6.30852Z" fill="#190038"/>
<path opacity="0.25" d="M15.0002 11.3638L15.0002 10.737L15.0002 10.1102L14.3602 10.1102L13.7402 10.1102L13.7402 10.737L13.7402 11.3638L13.7402 11.9906L13.7402 12.6376L14.3602 12.6376L15.0002 12.6376L15.0002 11.9906L15.0002 11.3638Z" fill="#190038"/>
<path opacity="0.25" d="M16.24 13.8906L16.24 13.2638L16.24 12.637L15.62 12.637L15 12.637L15 13.2638L15 13.8906L15 14.5173L15 15.1644L15.3 15.1644L15.62 15.1644L15.94 15.1644L16.24 15.1644L16.24 14.5173L16.24 13.8906Z" fill="#190038"/>
<path opacity="0.25" d="M17.4998 20.2193L17.4998 19.5722L17.4998 18.9454L17.4998 18.3186L17.4998 17.6918L17.4998 17.0448L17.4998 16.418L17.4998 15.7912L17.4998 15.1644L16.8598 15.1644L16.2397 15.1644L16.2397 15.7912L16.2397 16.418L16.2397 17.0448L16.2397 17.6918L16.2397 18.3186L16.2397 18.9454L16.2397 19.5722L16.2397 20.2193L16.2397 20.8461L16.2397 21.4729L16.8598 21.4729L17.4998 21.4729L17.4998 20.8461L17.4998 20.2193Z" fill="#190038"/>
<path opacity="0.25" d="M18.12 21.4729L17.5 21.4729L17.5 22.0997L17.5 22.7466L18.12 22.7466L18.7399 22.7466L18.7399 22.0997L18.7399 21.4729L18.12 21.4729Z" fill="#190038"/>
<path opacity="0.25" d="M13.7402 22.1002L13.7402 22.7471L14.3602 22.7471L15.0002 22.7471L15.0002 22.1002L14.3602 22.1002L13.7402 22.1002Z" fill="#190038"/>
<path opacity="0.25" d="M2.50023 22.1002L1.86023 22.1002L1.24023 22.1002L1.24023 22.7471L1.86023 22.7471L2.50023 22.7471L3.12024 22.7471L3.74024 22.7471L3.74024 22.1002L3.12024 22.1002L2.50023 22.1002Z" fill="#190038"/>
<path opacity="0.25" d="M13.7405 20.8458L13.1205 20.8458L12.5005 20.8458L12.5005 21.4726L12.5005 22.0994L13.1205 22.0994L13.7405 22.0994L13.7405 21.4726L13.7405 20.8458Z" fill="#190038"/>
<path opacity="0.25" d="M3.74023 20.8458L3.74023 21.4726L3.74023 22.0994L4.36023 22.0994L5.00023 22.0994L5.00023 21.4726L5.00023 20.8458L4.36023 20.8458L3.74023 20.8458Z" fill="#190038"/>
</g>
<g opacity="0.4">
<path d="M18.7399 21.473L18.7399 15.1646L17.5 15.1646L17.5 12.6372L16.24 12.6372L16.24 10.1098L15 10.1098L15 8.836L13.74 8.836L13.74 7.58241L15 7.58241L15 6.30861L16.24 6.30861L16.24 5.05502L17.5 5.05502L17.5 3.78122L16.24 3.78122L16.24 2.52763L13.74 2.52763L13.74 1.25383L12.5 1.25383L12.5 0.000244139L7.50001 0.00024414L7.50001 1.25383L6.24 1.25383L6.24 2.52763L3.74 2.52763L3.74 3.78122L2.49999 3.78122L2.49999 5.05502L3.74 5.05502L3.74 6.30861L4.99999 6.30861L4.99999 7.58241L6.24 7.58241L6.24 8.836L4.99999 8.836L4.99999 10.1098L3.74 10.1098L3.74 12.6372L2.49999 12.6372L2.49999 15.1646L1.24 15.1646L1.24 21.473L-2.77485e-09 21.473L-3.10143e-09 24.0002L20 24.0002L20 21.473L18.7399 21.473Z" fill="#5C9DFF" style="mix-blend-mode:color"/>
<path d="M5.00023 5.05526L4.99999 6.30861L6.24023 6.30885L6.24 7.58241L12.5002 7.58264L13.74 7.58241L13.7402 6.30885L15 6.30861L15.0002 5.05526L16.24 5.05502L16.24 3.78122L15.0002 3.78146L13.7402 3.78146L13.7402 5.05526L12.5002 5.05526L12.5002 6.30885L11.2402 6.30885L11.2402 5.05526L12.5002 5.05526L12.5 1.25383L11.2402 1.25407L7.50001 1.25383L7.50024 5.05526L8.74023 5.05526L8.74023 6.30885L7.50024 6.30885L7.50024 5.05526L6.24023 5.05526L6.24023 3.78146L5.00023 3.78146L3.74 3.78122L3.74 5.05502L5.00023 5.05526Z" fill="#5C9DFF" style="mix-blend-mode:color"/>
<path d="M17.5002 21.4726L17.5002 20.219L17.5002 16.4178L17.5 15.1646L16.2402 15.1642L16.24 12.6372L15.0002 12.6368L15 10.1098L13.7402 10.1094L13.74 8.836L12.5002 8.83562L6.24 8.836L6.24023 10.1094L4.99999 10.1098L5.00023 12.6368L3.74 12.6372L3.74024 15.1642L2.49999 15.1646L2.50023 16.4178L2.50023 20.219L2.50023 21.4726L1.24 21.473L1.24023 22.0994L1.24023 22.7463L3.74024 22.7463L3.74024 22.0994L5.00023 22.0994L5.00023 20.8458L6.24023 20.8458L6.24023 22.7463L13.7402 22.7463L15.0002 22.7463L15.0002 22.0994L13.7402 22.0994L13.7402 20.8458L15.0002 20.8458L15.0002 21.4726L16.2402 21.4726L16.2402 22.7463L17.5002 22.7463L18.7402 22.7463L18.7399 21.473L17.5002 21.4726Z" fill="#5C9DFF" style="mix-blend-mode:color"/>
<path d="M15.0002 3.78146L13.7402 3.78146L13.7402 5.05526L12.5002 5.05526L12.5002 6.30885L11.2402 6.30885L11.2402 5.05526L12.5002 5.05526L12.5 1.25383L11.2402 1.25407L7.50001 1.25383L7.50024 5.05526L8.74023 5.05526L8.74023 6.30885L7.50024 6.30885L7.50024 5.05526L6.24023 5.05526L6.24023 3.78146L5.00023 3.78146L3.74 3.78122L3.74 5.05502L5.00023 5.05526L4.99999 6.30861L6.24023 6.30885L6.24 7.58241L12.5002 7.58264L13.74 7.58241L13.7402 6.30885L15 6.30861L15.0002 5.05526L16.24 5.05502L16.24 3.78122L15.0002 3.78146Z" fill="#5C9DFF" style="mix-blend-mode:color"/>
<path d="M13.7402 10.1094L13.74 8.836L12.5002 8.83562L6.24 8.836L6.24023 10.1094L4.99999 10.1098L5.00023 12.6368L13.74 12.6368L15.0002 12.6368L15 10.1098L13.7402 10.1094Z" fill="#5C9DFF" style="mix-blend-mode:color"/>
<path d="M16.2402 15.1642L16.24 12.6372L15.0002 12.6368L13.74 12.6368L5.00023 12.6368L3.74 12.6372L3.74024 15.1642L2.49999 15.1646L2.50023 16.4178L16.24 16.4176L17.5002 16.4178L17.5 15.1646L16.2402 15.1642Z" fill="#5C9DFF" style="mix-blend-mode:color"/>
<path d="M16.24 16.4176L2.50023 16.4178L2.50023 20.219L16.24 20.219L17.5002 20.219L17.5002 16.4178L16.24 16.4176Z" fill="#5C9DFF" style="mix-blend-mode:color"/>
<path d="M17.5002 21.4726L17.5002 20.219L16.24 20.219L2.50023 20.219L2.50023 21.4726L1.24 21.473L1.24023 22.0994L1.24023 22.7463L3.74024 22.7463L3.74024 22.0994L5.00023 22.0994L5.00023 20.8458L6.24023 20.8458L6.24023 22.7463L13.7402 22.7463L15.0002 22.7463L15.0002 22.0994L13.7402 22.0994L13.7402 20.8458L15.0002 20.8458L15.0002 21.4726L16.2402 21.4726L16.2402 22.7463L17.5002 22.7463L18.7402 22.7463L18.7399 21.473L17.5002 21.4726Z" fill="#5C9DFF" style="mix-blend-mode:color"/>
<path d="M13.74 8.836L12.5002 8.83562L12.5 10.1094L13.7402 10.1094L13.74 8.836Z" fill="#5C9DFF" style="mix-blend-mode:color"/>
<path d="M12.5002 7.58264L13.74 7.58241L13.7402 6.30885L12.5002 6.30885L12.5002 7.58264Z" fill="#5C9DFF" style="mix-blend-mode:color"/>
<path d="M16.24 5.05502L16.24 3.78122L15.0002 3.78146L15.0002 5.05526L16.24 5.05502Z" fill="#5C9DFF" style="mix-blend-mode:color"/>
<path d="M12.5 1.25383L11.2402 1.25407L11.2402 5.05526L12.5002 5.05526L12.5 1.25383Z" fill="#5C9DFF" style="mix-blend-mode:color"/>
<path d="M9.99939 5.05502L9.99939 6.30861L11.2402 6.30885L11.2402 5.05526L9.99939 5.05502Z" fill="#5C9DFF" style="mix-blend-mode:color"/>
<path d="M6.24023 5.05526L6.24023 6.30885L7.50024 6.30885L7.50024 5.05526L6.24023 5.05526Z" fill="#5C9DFF" style="mix-blend-mode:color"/>
<path d="M6.24023 3.78146L5.00023 3.78146L5.00023 5.05526L6.24023 5.05526L6.24023 3.78146Z" fill="#5C9DFF" style="mix-blend-mode:color"/>
<path d="M15 6.30861L15.0002 5.05526L13.7402 5.05526L13.7402 6.30885L15 6.30861Z" fill="#5C9DFF" style="mix-blend-mode:color"/>
<path d="M15 10.1098L13.7402 10.1094L13.74 12.6368L15.0002 12.6368L15 10.1098Z" fill="#5C9DFF" style="mix-blend-mode:color"/>
<path d="M16.24 12.6372L15.0002 12.6368L15 15.1646L15.94 15.1646L16.2402 15.1642L16.24 12.6372Z" fill="#5C9DFF" style="mix-blend-mode:color"/>
<path d="M17.5002 20.219L17.5002 16.4178L17.5 15.1646L16.2402 15.1642L16.2396 15.7914L16.24 16.4176L16.24 20.219L16.2396 20.8462L16.2402 21.4726L16.8596 21.473L17.5002 21.4726L17.5002 20.219Z" fill="#5C9DFF" style="mix-blend-mode:color"/>
<path d="M17.5002 21.4726L17.5002 22.7463L18.7402 22.7463L18.7399 21.473L17.5002 21.4726Z" fill="#5C9DFF" style="mix-blend-mode:color"/>
<path d="M13.7402 22.0994L13.7402 22.7463L15.0002 22.7463L15.0002 22.0994L13.7402 22.0994Z" fill="#5C9DFF" style="mix-blend-mode:color"/>
<path d="M1.86023 22.1001L1.24023 22.0994L1.24023 22.7463L3.74024 22.7463L3.74024 22.0994L3.12024 22.1001L1.86023 22.1001Z" fill="#5C9DFF" style="mix-blend-mode:color"/>
<path d="M13.7402 20.8458L12.5 20.8463L12.5 22.0998L13.7402 22.0994L13.7402 20.8458Z" fill="#5C9DFF" style="mix-blend-mode:color"/>
<path d="M3.74023 20.8463L3.74024 22.0994L5.00023 22.0994L5.00023 20.8458L3.74023 20.8463Z" fill="#5C9DFF" style="mix-blend-mode:color"/>
</g>
<g opacity="0.2">
<path d="M18.7399 21.473L18.7399 15.1646L17.5 15.1646L17.5 12.6372L16.24 12.6372L16.24 10.1098L15 10.1098L15 8.836L13.74 8.836L13.74 7.58241L15 7.58241L15 6.30861L16.24 6.30861L16.24 5.05502L17.5 5.05502L17.5 3.78122L16.24 3.78122L16.24 2.52763L13.74 2.52763L13.74 1.25383L12.5 1.25383L12.5 0.000244139L7.50001 0.00024414L7.50001 1.25383L6.24 1.25383L6.24 2.52763L3.74 2.52763L3.74 3.78122L2.49999 3.78122L2.49999 5.05502L3.74 5.05502L3.74 6.30861L4.99999 6.30861L4.99999 7.58241L6.24 7.58241L6.24 8.836L4.99999 8.836L4.99999 10.1098L3.74 10.1098L3.74 12.6372L2.49999 12.6372L2.49999 15.1646L1.24 15.1646L1.24 21.473L-2.77485e-09 21.473L-3.10143e-09 24.0002L20 24.0002L20 21.473L18.7399 21.473Z" fill="#69A5FF" style="mix-blend-mode:overlay"/>
<path d="M5.00023 5.05526L4.99999 6.30861L6.24023 6.30885L6.24 7.58241L12.5002 7.58264L13.74 7.58241L13.7402 6.30885L15 6.30861L15.0002 5.05526L16.24 5.05502L16.24 3.78122L15.0002 3.78146L13.7402 3.78146L13.7402 5.05526L12.5002 5.05526L12.5002 6.30885L11.2402 6.30885L11.2402 5.05526L12.5002 5.05526L12.5 1.25383L11.2402 1.25407L7.50001 1.25383L7.50024 5.05526L8.74023 5.05526L8.74023 6.30885L7.50024 6.30885L7.50024 5.05526L6.24023 5.05526L6.24023 3.78146L5.00023 3.78146L3.74 3.78122L3.74 5.05502L5.00023 5.05526Z" fill="#69A5FF" style="mix-blend-mode:overlay"/>
<path d="M17.5002 21.4726L17.5002 20.219L17.5002 16.4178L17.5 15.1646L16.2402 15.1642L16.24 12.6372L15.0002 12.6368L15 10.1098L13.7402 10.1094L13.74 8.836L12.5002 8.83562L6.24 8.836L6.24023 10.1094L4.99999 10.1098L5.00023 12.6368L3.74 12.6372L3.74024 15.1642L2.49999 15.1646L2.50023 16.4178L2.50023 20.219L2.50023 21.4726L1.24 21.473L1.24023 22.0994L1.24023 22.7463L3.74024 22.7463L3.74024 22.0994L5.00023 22.0994L5.00023 20.8458L6.24023 20.8458L6.24023 22.7463L13.7402 22.7463L15.0002 22.7463L15.0002 22.0994L13.7402 22.0994L13.7402 20.8458L15.0002 20.8458L15.0002 21.4726L16.2402 21.4726L16.2402 22.7463L17.5002 22.7463L18.7402 22.7463L18.7399 21.473L17.5002 21.4726Z" fill="#69A5FF" style="mix-blend-mode:overlay"/>
<path d="M15.0002 3.78146L13.7402 3.78146L13.7402 5.05526L12.5002 5.05526L12.5002 6.30885L11.2402 6.30885L11.2402 5.05526L12.5002 5.05526L12.5 1.25383L11.2402 1.25407L7.50001 1.25383L7.50024 5.05526L8.74023 5.05526L8.74023 6.30885L7.50024 6.30885L7.50024 5.05526L6.24023 5.05526L6.24023 3.78146L5.00023 3.78146L3.74 3.78122L3.74 5.05502L5.00023 5.05526L4.99999 6.30861L6.24023 6.30885L6.24 7.58241L12.5002 7.58264L13.74 7.58241L13.7402 6.30885L15 6.30861L15.0002 5.05526L16.24 5.05502L16.24 3.78122L15.0002 3.78146Z" fill="#69A5FF" style="mix-blend-mode:overlay"/>
<path d="M13.7402 10.1094L13.74 8.836L12.5002 8.83562L6.24 8.836L6.24023 10.1094L4.99999 10.1098L5.00023 12.6368L13.74 12.6368L15.0002 12.6368L15 10.1098L13.7402 10.1094Z" fill="#69A5FF" style="mix-blend-mode:overlay"/>
<path d="M16.2402 15.1642L16.24 12.6372L15.0002 12.6368L13.74 12.6368L5.00023 12.6368L3.74 12.6372L3.74024 15.1642L2.49999 15.1646L2.50023 16.4178L16.24 16.4176L17.5002 16.4178L17.5 15.1646L16.2402 15.1642Z" fill="#69A5FF" style="mix-blend-mode:overlay"/>
<path d="M16.24 16.4176L2.50023 16.4178L2.50023 20.219L16.24 20.219L17.5002 20.219L17.5002 16.4178L16.24 16.4176Z" fill="#69A5FF" style="mix-blend-mode:overlay"/>
<path d="M17.5002 21.4726L17.5002 20.219L16.24 20.219L2.50023 20.219L2.50023 21.4726L1.24 21.473L1.24023 22.0994L1.24023 22.7463L3.74024 22.7463L3.74024 22.0994L5.00023 22.0994L5.00023 20.8458L6.24023 20.8458L6.24023 22.7463L13.7402 22.7463L15.0002 22.7463L15.0002 22.0994L13.7402 22.0994L13.7402 20.8458L15.0002 20.8458L15.0002 21.4726L16.2402 21.4726L16.2402 22.7463L17.5002 22.7463L18.7402 22.7463L18.7399 21.473L17.5002 21.4726Z" fill="#69A5FF" style="mix-blend-mode:overlay"/>
<path d="M13.74 8.836L12.5002 8.83562L12.5 10.1094L13.7402 10.1094L13.74 8.836Z" fill="#69A5FF" style="mix-blend-mode:overlay"/>
<path d="M12.5002 7.58264L13.74 7.58241L13.7402 6.30885L12.5002 6.30885L12.5002 7.58264Z" fill="#69A5FF" style="mix-blend-mode:overlay"/>
<path d="M16.24 5.05502L16.24 3.78122L15.0002 3.78146L15.0002 5.05526L16.24 5.05502Z" fill="#69A5FF" style="mix-blend-mode:overlay"/>
<path d="M12.5 1.25383L11.2402 1.25407L11.2402 5.05526L12.5002 5.05526L12.5 1.25383Z" fill="#69A5FF" style="mix-blend-mode:overlay"/>
<path d="M9.99939 5.05502L9.99939 6.30861L11.2402 6.30885L11.2402 5.05526L9.99939 5.05502Z" fill="#69A5FF" style="mix-blend-mode:overlay"/>
<path d="M6.24023 5.05526L6.24023 6.30885L7.50024 6.30885L7.50024 5.05526L6.24023 5.05526Z" fill="#69A5FF" style="mix-blend-mode:overlay"/>
<path d="M6.24023 3.78146L5.00023 3.78146L5.00023 5.05526L6.24023 5.05526L6.24023 3.78146Z" fill="#69A5FF" style="mix-blend-mode:overlay"/>
<path d="M15 6.30861L15.0002 5.05526L13.7402 5.05526L13.7402 6.30885L15 6.30861Z" fill="#69A5FF" style="mix-blend-mode:overlay"/>
<path d="M15 10.1098L13.7402 10.1094L13.74 12.6368L15.0002 12.6368L15 10.1098Z" fill="#69A5FF" style="mix-blend-mode:overlay"/>
<path d="M16.24 12.6372L15.0002 12.6368L15 15.1646L15.94 15.1646L16.2402 15.1642L16.24 12.6372Z" fill="#69A5FF" style="mix-blend-mode:overlay"/>
<path d="M17.5002 20.219L17.5002 16.4178L17.5 15.1646L16.2402 15.1642L16.2396 15.7914L16.24 16.4176L16.24 20.219L16.2396 20.8462L16.2402 21.4726L16.8596 21.473L17.5002 21.4726L17.5002 20.219Z" fill="#69A5FF" style="mix-blend-mode:overlay"/>
<path d="M17.5002 21.4726L17.5002 22.7463L18.7402 22.7463L18.7399 21.473L17.5002 21.4726Z" fill="#69A5FF" style="mix-blend-mode:overlay"/>
<path d="M13.7402 22.0994L13.7402 22.7463L15.0002 22.7463L15.0002 22.0994L13.7402 22.0994Z" fill="#69A5FF" style="mix-blend-mode:overlay"/>
<path d="M1.86023 22.1001L1.24023 22.0994L1.24023 22.7463L3.74024 22.7463L3.74024 22.0994L3.12024 22.1001L1.86023 22.1001Z" fill="#69A5FF" style="mix-blend-mode:overlay"/>
<path d="M13.7402 20.8458L12.5 20.8463L12.5 22.0998L13.7402 22.0994L13.7402 20.8458Z" fill="#69A5FF" style="mix-blend-mode:overlay"/>
<path d="M3.74023 20.8463L3.74024 22.0994L5.00023 22.0994L5.00023 20.8458L3.74023 20.8463Z" fill="#69A5FF" style="mix-blend-mode:overlay"/>
</g>
</svg>
