<svg width="70" height="60" viewBox="0 0 70 60" fill="none" xmlns="http://www.w3.org/2000/svg">
<g filter="url(#filter0_ddd_5243_44872)">
<mask id="path-1-inside-1_5243_44872" fill="white">
<path d="M43.3893 6.29921C43.3893 5.18051 42.5437 4.44991 41.51 4.67588L29.0677 7.39431C28.034 7.62008 27.1884 8.72027 27.1884 9.83897V51.6829C27.1884 52.8016 28.0331 53.5269 29.0654 53.2948L41.5121 50.496C42.5444 50.2637 43.3891 49.1587 43.3891 48.04L43.3893 6.29921Z"/>
<path d="M7.06827 49.6625L21.4361 53.2503C22.4634 53.5067 23.3037 52.8014 23.3037 51.6827V9.83877C23.3037 8.72007 22.4621 7.59955 21.4338 7.34875L7.90007 4.0488C7.33613 3.91476 6.74418 4.06019 6.2925 4.4436C5.841 4.82721 5.57812 5.40731 5.57812 6.02056V47.691C5.57812 48.637 6.19732 49.4563 7.06827 49.6625Z"/>
<path d="M62.6781 53.8298C62.816 53.8625 62.9553 53.8784 63.0941 53.8784C63.5229 53.8784 63.9445 53.7248 64.2856 53.435C64.7371 53.0513 65 52.4712 65 51.858V10.1876C65 9.24159 64.3806 8.4223 63.5099 8.21605L49.1445 4.72043C48.1161 4.47025 47.2745 5.18072 47.2745 6.29942V48.04C47.2745 49.1587 48.1161 50.2792 49.1444 50.53L62.6781 53.8298Z"/>
</mask>
<path d="M43.3893 6.29921C43.3893 5.18051 42.5437 4.44991 41.51 4.67588L29.0677 7.39431C28.034 7.62008 27.1884 8.72027 27.1884 9.83897V51.6829C27.1884 52.8016 28.0331 53.5269 29.0654 53.2948L41.5121 50.496C42.5444 50.2637 43.3891 49.1587 43.3891 48.04L43.3893 6.29921Z" fill="#8348FF" fill-opacity="0.3"/>
<path d="M7.06827 49.6625L21.4361 53.2503C22.4634 53.5067 23.3037 52.8014 23.3037 51.6827V9.83877C23.3037 8.72007 22.4621 7.59955 21.4338 7.34875L7.90007 4.0488C7.33613 3.91476 6.74418 4.06019 6.2925 4.4436C5.841 4.82721 5.57812 5.40731 5.57812 6.02056V47.691C5.57812 48.637 6.19732 49.4563 7.06827 49.6625Z" fill="#8348FF" fill-opacity="0.3"/>
<path d="M62.6781 53.8298C62.816 53.8625 62.9553 53.8784 63.0941 53.8784C63.5229 53.8784 63.9445 53.7248 64.2856 53.435C64.7371 53.0513 65 52.4712 65 51.858V10.1876C65 9.24159 64.3806 8.4223 63.5099 8.21605L49.1445 4.72043C48.1161 4.47025 47.2745 5.18072 47.2745 6.29942V48.04C47.2745 49.1587 48.1161 50.2792 49.1444 50.53L62.6781 53.8298Z" fill="#8348FF" fill-opacity="0.3"/>
<path d="M43.3893 6.29921C43.3893 5.18051 42.5437 4.44991 41.51 4.67588L29.0677 7.39431C28.034 7.62008 27.1884 8.72027 27.1884 9.83897V51.6829C27.1884 52.8016 28.0331 53.5269 29.0654 53.2948L41.5121 50.496C42.5444 50.2637 43.3891 49.1587 43.3891 48.04L43.3893 6.29921Z" stroke="#8348FF" stroke-width="6" mask="url(#path-1-inside-1_5243_44872)"/>
<path d="M7.06827 49.6625L21.4361 53.2503C22.4634 53.5067 23.3037 52.8014 23.3037 51.6827V9.83877C23.3037 8.72007 22.4621 7.59955 21.4338 7.34875L7.90007 4.0488C7.33613 3.91476 6.74418 4.06019 6.2925 4.4436C5.841 4.82721 5.57812 5.40731 5.57812 6.02056V47.691C5.57812 48.637 6.19732 49.4563 7.06827 49.6625Z" stroke="#8348FF" stroke-width="6" mask="url(#path-1-inside-1_5243_44872)"/>
<path d="M62.6781 53.8298C62.816 53.8625 62.9553 53.8784 63.0941 53.8784C63.5229 53.8784 63.9445 53.7248 64.2856 53.435C64.7371 53.0513 65 52.4712 65 51.858V10.1876C65 9.24159 64.3806 8.4223 63.5099 8.21605L49.1445 4.72043C48.1161 4.47025 47.2745 5.18072 47.2745 6.29942V48.04C47.2745 49.1587 48.1161 50.2792 49.1444 50.53L62.6781 53.8298Z" stroke="#8348FF" stroke-width="6" mask="url(#path-1-inside-1_5243_44872)"/>
</g>
<path d="M27.4638 22.5571H30.6318V25.7251H27.4638V41.4331H24.3398V19.4331H27.4638V22.5571ZM30.6318 25.7251H33.7558V28.8491H30.6318V25.7251ZM33.7558 32.0171V28.8491H36.9238V32.0171H33.7558ZM36.9238 28.8491V25.7251H40.0478V28.8491H36.9238ZM43.2158 19.4331H46.3398V41.4331H43.2158V25.7251H40.0478V22.5571H43.2158V19.4331Z" fill="#A065FF"/>
<path d="M27.4638 22.5571H23.9638V26.0571H27.4638V22.5571ZM30.6318 22.5571H34.1318V19.0571H30.6318V22.5571ZM30.6318 25.7251V29.2251H34.1318V25.7251H30.6318ZM27.4638 25.7251V22.2251H23.9638V25.7251H27.4638ZM27.4638 41.4331V44.9331H30.9638V41.4331H27.4638ZM24.3398 41.4331H20.8398V44.9331H24.3398V41.4331ZM24.3398 19.4331V15.9331H20.8398V19.4331H24.3398ZM27.4638 19.4331H30.9638V15.9331H27.4638V19.4331ZM30.6318 25.7251V22.2251H27.1318V25.7251H30.6318ZM33.7558 25.7251H37.2558V22.2251H33.7558V25.7251ZM33.7558 28.8491V32.3491H37.2558V28.8491H33.7558ZM30.6318 28.8491H27.1318V32.3491H30.6318V28.8491ZM33.7558 32.0171H30.2558V35.5171H33.7558V32.0171ZM33.7558 28.8491V25.3491H30.2558V28.8491H33.7558ZM36.9238 28.8491H40.4238V25.3491H36.9238V28.8491ZM36.9238 32.0171V35.5171H40.4238V32.0171H36.9238ZM36.9238 28.8491H33.4238V32.3491H36.9238V28.8491ZM36.9238 25.7251V22.2251H33.4238V25.7251H36.9238ZM40.0478 25.7251H43.5478V22.2251H40.0478V25.7251ZM40.0478 28.8491V32.3491H43.5478V28.8491H40.0478ZM43.2158 19.4331V15.9331H39.7158V19.4331H43.2158ZM46.3398 19.4331H49.8398V15.9331H46.3398V19.4331ZM46.3398 41.4331V44.9331H49.8398V41.4331H46.3398ZM43.2158 41.4331H39.7158V44.9331H43.2158V41.4331ZM43.2158 25.7251H46.7158V22.2251H43.2158V25.7251ZM40.0478 25.7251H36.5478V29.2251H40.0478V25.7251ZM40.0478 22.5571V19.0571H36.5478V22.5571H40.0478ZM43.2158 22.5571V26.0571H46.7158V22.5571H43.2158ZM27.4638 26.0571H30.6318V19.0571H27.4638V26.0571ZM27.1318 22.5571V25.7251H34.1318V22.5571H27.1318ZM30.6318 22.2251H27.4638V29.2251H30.6318V22.2251ZM23.9638 25.7251V41.4331H30.9638V25.7251H23.9638ZM27.4638 37.9331H24.3398V44.9331H27.4638V37.9331ZM27.8398 41.4331V19.4331H20.8398V41.4331H27.8398ZM24.3398 22.9331H27.4638V15.9331H24.3398V22.9331ZM23.9638 19.4331V22.5571H30.9638V19.4331H23.9638ZM30.6318 29.2251H33.7558V22.2251H30.6318V29.2251ZM30.2558 25.7251V28.8491H37.2558V25.7251H30.2558ZM33.7558 25.3491H30.6318V32.3491H33.7558V25.3491ZM34.1318 28.8491V25.7251H27.1318V28.8491H34.1318ZM37.2558 32.0171V28.8491H30.2558V32.0171H37.2558ZM33.7558 32.3491H36.9238V25.3491H33.7558V32.3491ZM33.4238 28.8491V32.0171H40.4238V28.8491H33.4238ZM36.9238 28.5171H33.7558V35.5171H36.9238V28.5171ZM40.4238 28.8491V25.7251H33.4238V28.8491H40.4238ZM36.9238 29.2251H40.0478V22.2251H36.9238V29.2251ZM36.5478 25.7251V28.8491H43.5478V25.7251H36.5478ZM40.0478 25.3491H36.9238V32.3491H40.0478V25.3491ZM43.2158 22.9331H46.3398V15.9331H43.2158V22.9331ZM42.8398 19.4331V41.4331H49.8398V19.4331H42.8398ZM46.3398 37.9331H43.2158V44.9331H46.3398V37.9331ZM46.7158 41.4331V25.7251H39.7158V41.4331H46.7158ZM43.2158 22.2251H40.0478V29.2251H43.2158V22.2251ZM43.5478 25.7251V22.5571H36.5478V25.7251H43.5478ZM40.0478 26.0571H43.2158V19.0571H40.0478V26.0571ZM46.7158 22.5571V19.4331H39.7158V22.5571H46.7158Z" fill="#1E0036"/>
<path d="M27.4638 22.5571H30.6318V25.7251H27.4638V41.4331H24.3398V19.4331H27.4638V22.5571ZM30.6318 25.7251H33.7558V28.8491H30.6318V25.7251ZM33.7558 32.0171V28.8491H36.9238V32.0171H33.7558ZM36.9238 28.8491V25.7251H40.0478V28.8491H36.9238ZM43.2158 19.4331H46.3398V41.4331H43.2158V25.7251H40.0478V22.5571H43.2158V19.4331Z" fill="#A065FF"/>
<path d="M27.4638 22.5571H26.9638V23.0571H27.4638V22.5571ZM30.6318 22.5571H31.1318V22.0571H30.6318V22.5571ZM30.6318 25.7251V26.2251H31.1318V25.7251H30.6318ZM27.4638 25.7251V25.2251H26.9638V25.7251H27.4638ZM27.4638 41.4331V41.9331H27.9638V41.4331H27.4638ZM24.3398 41.4331H23.8398V41.9331H24.3398V41.4331ZM24.3398 19.4331V18.9331H23.8398V19.4331H24.3398ZM27.4638 19.4331H27.9638V18.9331H27.4638V19.4331ZM30.6318 25.7251V25.2251H30.1318V25.7251H30.6318ZM33.7558 25.7251H34.2558V25.2251H33.7558V25.7251ZM33.7558 28.8491V29.3491H34.2558V28.8491H33.7558ZM30.6318 28.8491H30.1318V29.3491H30.6318V28.8491ZM33.7558 32.0171H33.2558V32.5171H33.7558V32.0171ZM33.7558 28.8491V28.3491H33.2558V28.8491H33.7558ZM36.9238 28.8491H37.4238V28.3491H36.9238V28.8491ZM36.9238 32.0171V32.5171H37.4238V32.0171H36.9238ZM36.9238 28.8491H36.4238V29.3491H36.9238V28.8491ZM36.9238 25.7251V25.2251H36.4238V25.7251H36.9238ZM40.0478 25.7251H40.5478V25.2251H40.0478V25.7251ZM40.0478 28.8491V29.3491H40.5478V28.8491H40.0478ZM43.2158 19.4331V18.9331H42.7158V19.4331H43.2158ZM46.3398 19.4331H46.8398V18.9331H46.3398V19.4331ZM46.3398 41.4331V41.9331H46.8398V41.4331H46.3398ZM43.2158 41.4331H42.7158V41.9331H43.2158V41.4331ZM43.2158 25.7251H43.7158V25.2251H43.2158V25.7251ZM40.0478 25.7251H39.5478V26.2251H40.0478V25.7251ZM40.0478 22.5571V22.0571H39.5478V22.5571H40.0478ZM43.2158 22.5571V23.0571H43.7158V22.5571H43.2158ZM27.4638 23.0571H30.6318V22.0571H27.4638V23.0571ZM30.1318 22.5571V25.7251H31.1318V22.5571H30.1318ZM30.6318 25.2251H27.4638V26.2251H30.6318V25.2251ZM26.9638 25.7251V41.4331H27.9638V25.7251H26.9638ZM27.4638 40.9331H24.3398V41.9331H27.4638V40.9331ZM24.8398 41.4331V19.4331H23.8398V41.4331H24.8398ZM24.3398 19.9331H27.4638V18.9331H24.3398V19.9331ZM26.9638 19.4331V22.5571H27.9638V19.4331H26.9638ZM30.6318 26.2251H33.7558V25.2251H30.6318V26.2251ZM33.2558 25.7251V28.8491H34.2558V25.7251H33.2558ZM33.7558 28.3491H30.6318V29.3491H33.7558V28.3491ZM31.1318 28.8491V25.7251H30.1318V28.8491H31.1318ZM34.2558 32.0171V28.8491H33.2558V32.0171H34.2558ZM33.7558 29.3491H36.9238V28.3491H33.7558V29.3491ZM36.4238 28.8491V32.0171H37.4238V28.8491H36.4238ZM36.9238 31.5171H33.7558V32.5171H36.9238V31.5171ZM37.4238 28.8491V25.7251H36.4238V28.8491H37.4238ZM36.9238 26.2251H40.0478V25.2251H36.9238V26.2251ZM39.5478 25.7251V28.8491H40.5478V25.7251H39.5478ZM40.0478 28.3491H36.9238V29.3491H40.0478V28.3491ZM43.2158 19.9331H46.3398V18.9331H43.2158V19.9331ZM45.8398 19.4331V41.4331H46.8398V19.4331H45.8398ZM46.3398 40.9331H43.2158V41.9331H46.3398V40.9331ZM43.7158 41.4331V25.7251H42.7158V41.4331H43.7158ZM43.2158 25.2251H40.0478V26.2251H43.2158V25.2251ZM40.5478 25.7251V22.5571H39.5478V25.7251H40.5478ZM40.0478 23.0571H43.2158V22.0571H40.0478V23.0571ZM43.7158 22.5571V19.4331H42.7158V22.5571H43.7158Z" fill="#A065FF"/>
<defs>
<filter id="filter0_ddd_5243_44872" x="0.578125" y="0" width="69.4219" height="59.8784" filterUnits="userSpaceOnUse" color-interpolation-filters="sRGB">
<feFlood flood-opacity="0" result="BackgroundImageFix"/>
<feColorMatrix in="SourceAlpha" type="matrix" values="0 0 0 0 0 0 0 0 0 0 0 0 0 0 0 0 0 0 127 0" result="hardAlpha"/>
<feOffset dy="1"/>
<feGaussianBlur stdDeviation="2"/>
<feComposite in2="hardAlpha" operator="out"/>
<feColorMatrix type="matrix" values="0 0 0 0 0 0 0 0 0 0 0 0 0 0 0 0 0 0 1 0"/>
<feBlend mode="normal" in2="BackgroundImageFix" result="effect1_dropShadow_5243_44872"/>
<feColorMatrix in="SourceAlpha" type="matrix" values="0 0 0 0 0 0 0 0 0 0 0 0 0 0 0 0 0 0 127 0" result="hardAlpha"/>
<feOffset/>
<feGaussianBlur stdDeviation="2"/>
<feComposite in2="hardAlpha" operator="out"/>
<feColorMatrix type="matrix" values="0 0 0 0 0 0 0 0 0 0 0 0 0 0 0 0 0 0 0.8 0"/>
<feBlend mode="normal" in2="effect1_dropShadow_5243_44872" result="effect2_dropShadow_5243_44872"/>
<feColorMatrix in="SourceAlpha" type="matrix" values="0 0 0 0 0 0 0 0 0 0 0 0 0 0 0 0 0 0 127 0" result="hardAlpha"/>
<feOffset dy="1"/>
<feGaussianBlur stdDeviation="2.5"/>
<feComposite in2="hardAlpha" operator="out"/>
<feColorMatrix type="matrix" values="0 0 0 0 0.513726 0 0 0 0 0.282353 0 0 0 0 1 0 0 0 1 0"/>
<feBlend mode="normal" in2="effect2_dropShadow_5243_44872" result="effect3_dropShadow_5243_44872"/>
<feBlend mode="normal" in="SourceGraphic" in2="effect3_dropShadow_5243_44872" result="shape"/>
</filter>
</defs>
</svg>
