<svg width="63" height="69" viewBox="0 0 63 69" fill="none" xmlns="http://www.w3.org/2000/svg">
<path d="M50.4 10.08V7.56H47.88V5.04H42.84V2.52H37.8V0H25.2V2.52H20.16V5.04H15.12V7.56H12.6V10.08H10.08V61.74H15.12V59.22H21.42V61.74H27.72V59.22H35.28V61.74H41.58V59.22H47.88V61.74H52.92V10.08H50.4Z" fill="#64438E"/>
<path d="M47.88 10.0815V7.56148H42.84V5.04148H37.8V2.52148H25.2V5.04148H20.16V7.56148H15.12V10.0815H12.6V59.2215H15.12V56.7015H21.42V59.2215H27.72V56.7015H35.28V59.2215H41.58V56.7015H47.88V59.2215H50.4V10.0815H47.88Z" fill="#EDD3FD"/>
<path d="M13.86 54.1793H16.38V52.9193H18.9V54.1793H21.42V56.6993H27.72V54.1793H30.24V52.9193H32.76V54.1793H35.28V56.6993H41.58V54.1793H44.1V52.9193H46.62V54.1793H47.88V10.0793H42.84V7.5593H37.8V5.0393H31.5V3.7793H25.2V6.2993H20.16V8.8193H15.12V11.3393H13.86V54.1793Z" fill="white"/>
<path d="M17.64 32.7617V35.2817H20.16V32.7617H17.64ZM42.84 32.7617V35.2817H45.36V32.7617H42.84Z" fill="#F696C6"/>
<path opacity="0.25" d="M15.12 65.5215V66.7815H16.38V68.0415H46.62V66.7815H47.88V65.5215H15.12Z" fill="black"/>
<path d="M35.28 11.3405V10.0805H34.02V8.82055H32.76V7.56055H30.24V8.82055H28.98V10.0805H27.72V11.3405H26.46V16.3805H27.72V17.6405H28.98V18.9005H30.24V20.1605H32.76V18.9005H34.02V17.6405H35.28V16.3805H36.54V11.3405H35.28Z" fill="#64438E"/>
<path d="M27.7201 13.8574V16.3774H28.9801V17.6374H30.2401V18.8974H31.5001V13.8574H27.7201Z" fill="#DEA8FF"/>
<path d="M34.0201 11.3384V10.0784H32.7601V8.81836H31.5001V13.8584H35.2801V11.3384H34.0201Z" fill="#DEA8FF"/>
<path d="M31.5 13.8594V18.8994H32.76V17.6394H34.02V16.3794H35.28V13.8594H31.5Z" fill="#C260FF"/>
<path d="M30.24 8.81836V10.0784H28.98V11.3384H27.72V13.8584H31.5V8.81836H30.24Z" fill="#EDD3FD"/>
<path d="M27.72 32.7598H25.2V35.2798H27.72V32.7598Z" fill="#64438E"/>
<path d="M27.72 35.2812V37.8012H35.28V35.2812H27.72Z" fill="#64438E"/>
<path d="M35.28 32.7598V35.2798H37.8V32.7598H35.28Z" fill="#64438E"/>
<path d="M20.16 27.7182V30.2382H25.2V27.7182H27.72V22.6782H25.2V20.1582H20.16V22.6782H17.64V27.7182H20.16ZM35.28 22.6782V27.7182H37.8V30.2382H42.84V27.7182H45.36V22.6782H42.84V20.1582H37.8V22.6782H35.28Z" fill="#64438E"/>
<path d="M61.74 40.3176V39.0576H59.22V37.7976H56.7V36.5376H55.44V35.2776H54.18V34.0176H52.92V44.0976H54.18V45.3576H56.7V46.6176H61.74V45.3576H63V40.3176H61.74Z" fill="#64438E"/>
<path d="M59.22 40.3173V39.0573H56.7V37.7973H55.44V36.5373H54.18V35.2773H52.92V42.8373H54.18V44.0973H56.7V45.3573H61.74V40.3173H59.22Z" fill="#EDD3FD"/>
<path d="M59.22 40.3173V39.0573H56.7V37.7973H55.44V36.5373H54.18V35.2773H52.92V41.5773H54.18V42.8373H56.7V44.0973H61.74V40.3173H59.22Z" fill="white"/>
<path d="M8.82 34.02V32.76H6.3V31.5H1.26V32.76H0V37.8H1.26V39.06H3.78V40.32H6.3V41.58H7.56V42.84H8.82V44.1H10.08V34.02H8.82Z" fill="#64438E"/>
<path d="M8.81998 35.2798V34.0198H6.29998V32.7598H1.25998V37.7998H3.77998V39.0598H6.29998V40.3198H7.55998V41.5798H8.81998V42.8398H10.08V35.2798H8.81998Z" fill="#EDD3FD"/>
<path d="M1.25998 32.7598V36.5398H3.77998V37.7998H6.29998V39.0598H7.55998V40.3198H8.81998V41.5798H10.08V35.2798H8.81998V34.0198H6.29998V32.7598H1.25998Z" fill="white"/>
</svg>
