<svg width="859" height="859" viewBox="0 0 859 859" fill="none" xmlns="http://www.w3.org/2000/svg">
<path d="M0 590.4H53.6V697.8H107.3V751.5H161V805.2H268.4V858.8H590.4V805.2H697.8V751.5H751.5V697.8H805.2V590.4H858.8V268.4H805.2V161H751.5V107.3H697.8V53.6H590.4V0H268.4V53.6H161V107.3H107.3V161H53.6V268.4H0V590.4Z" fill="#AC1F23"/>
<path d="M53.6 590.4H107.3V697.8H161V751.5H268.4V805.2H590.4V751.5H697.8V697.8H751.5V590.4H805.2V268.4H751.5V161H697.8V107.3H590.4V53.6H268.4V107.3H161V161H107.3V268.4H53.6V590.4Z" fill="#EF5223"/>
<path d="M214.7 644.1H268.4V697.8H214.7V644.1ZM214.7 161H268.4V214.7H214.7V161Z" fill="#AC1F23"/>
<path d="M161 214.7H214.7V268.4H161V214.7Z" fill="#AC1F23"/>
<path d="M107.3 268.4H161V590.5H107.3V268.4Z" fill="#AC1F23"/>
<path d="M161 590.4H214.7V644.1H161V590.4ZM268.4 107.3H590.5V161H268.4V107.3Z" fill="#AC1F23"/>
<path d="M644.1 214.7H697.8V268.4H644.1V214.7ZM644.1 590.4H697.8V644.1H644.1V590.4Z" fill="#FFCC05"/>
<path d="M697.8 268.4H751.5V590.5H697.8V268.4ZM268.4 697.8H590.5V751.5H268.4V697.8Z" fill="#FFCC05"/>
<path d="M590.4 644.1H644.1V697.8H590.4V644.1ZM590.4 161H644.1V214.7H590.4V161Z" fill="#FFCC05"/>
<path d="M644.1 268.4V214.7H590.4V161H268.4V214.7H214.7V268.4H161V590.5H214.7V644.2H268.4V697.9H590.4V644.2H644.1V590.4H697.8V268.3H644.1V268.4Z" fill="#EF5223"/>
<path d="M601.8 360.4V326H567.4V291.6H532.9V257.2H498.4V222.7H464V188.3H395V222.7H360.6V257.1H326.1V291.5H291.7V326H257.3V360.4H222.8V498.2H257.2V532.7H291.6V567.1H326.1V601.5H360.4V636H394.8V670.4H463.8V636H498.2V601.6H532.7V567.2H567.1V532.7H601.5V498.4H636V360.5H601.6V360.4H601.8Z" fill="black"/>
<path d="M567.2 360.4V326H532.8V291.6H498.4V257.2H464V222.7H395V257.1H360.6V291.5H326.1V326H291.7V360.4H257.3V429.4H291.7V463.8H257.3V498.2H291.7V532.7H326.1V567.1H360.4V601.5H394.8V636H463.8V601.6H429.4V567.2H463.8V601.6H498.2V567.2H532.7V532.7H498.4V498.4H464V532.8H429.4V463.8H498.4V498.2H532.8V532.7H567.2V498.4H601.6V464H532.6V429.4H601.6V360.4H567.2ZM326 463.8V429.4H360.4V498.4H326V463.8Z" fill="#1D1D1D"/>
<path d="M429.4 463.8H463.8V394.8H429.4V463.8Z" fill="#2E2E2E"/>
<path d="M395 360.4H326V394.8H429.4V325.8H395V360.4ZM395 222.6H429.4V257H395V222.6Z" fill="#2E2E2E"/>
<path d="M429.4 291.6V326H498.4V291.6H429.4ZM463.8 360.4H498.2V394.8H463.8V360.4ZM532.8 326V395H567.2V326H532.8Z" fill="#2E2E2E"/>
<path d="M498.4 498.4H464V532.8H429.4V498.4H395V464H429.4V395H326V429.4H360.4V498.4H326V429.4H291.6V463.8H257.2V498.2H291.6V532.7H326V567.1H360.4V532.7H394.8V567.1H360.4V601.5H394.8V636H463.8V601.6H429.4V567.2H463.8V601.6H498.2V567.2H532.7V532.7H498.4V498.4Z" fill="#AC1F23"/>
<path d="M498.4 429.4V498.4H532.8V532.8H567.2V498.4H601.6V464H532.6V429.4H498.4ZM360.4 326H429.4V291.6H326V360.6H360.4V326Z" fill="#AC1F23"/>
<path d="M326 395V360.6H257V429.6H291.4V395.2H325.9V395H326ZM429.4 395H463.8V326H429.4V395Z" fill="#AC1F23"/>
<path d="M463.8 395H498.2V429.4H463.8V395ZM498.4 360.4H532.8V394.8H498.4V360.4ZM567.2 429.4H601.6V395H532.6V429.4H567.2ZM498.4 291.6H532.8V326H498.4V291.6Z" fill="#AC1F23"/>
<path d="M498.4 291.6V257.2H429.4V291.6H498.4Z" fill="#AC1F23"/>
<path d="M567.2 463.8H532.8V532.8H567.2V498.4H601.6V464H567.2V463.8ZM463.8 532.8H429.4V498.4H395V464H429.4V395H326V429.4H360.4V498.4H326V429.4H291.6V463.8H257.2V498.2H291.6V532.7H326V567.1H360.4V532.7H394.8V567.1H360.4V601.5H394.8V636H463.8V601.6H429.4V567.2H463.8V601.6H498.2V567.2H532.7V532.7H463.8V532.8ZM395 291.6H360.6V326H429.6V291.6H395Z" fill="#EF5223"/>
<path d="M291.6 360.4H257.2V429.4H291.6V360.4ZM463.8 360.4V326H429.4V395H463.8V360.4ZM429.4 257H463.8V291.4H429.4V257ZM498.4 360.4H532.8V394.8H498.4V360.4Z" fill="#EF5223"/>
<path d="M429.4 567.2H360.4V601.6H394.8V636.1H463.8V601.7H429.4V567.2ZM463.8 567.2H498.2V601.6H463.8V567.2ZM498.4 532.8H532.8V567.2H498.4V532.8Z" fill="#F37721"/>
<path d="M532.8 498.4H567.2V532.8H532.8V498.4ZM567.2 463.8H601.6V498.2H567.2V463.8ZM429.4 532.8H463.8V567.2H429.4V532.8Z" fill="#F37721"/>
<path d="M395 498.4H429.4V532.8H395V498.4ZM395 463.8H429.4V394.8H326V429.4H360.4V498.4H394.8V463.9H395V463.8Z" fill="#F37721"/>
<path d="M360.4 498.4H326V464H257V498.4H291.4V532.8H325.9V567.2H360.4V498.4ZM257 360.4H291.4V394.8H257V360.4ZM429.4 360.4H463.8V394.8H429.4V360.4Z" fill="#F37721"/>
<path d="M395 429.4H429.4V463.8H395V429.4ZM326 395H360.4V429.4H326V395ZM257 360.4H291.4V394.8H257V360.4Z" fill="#5B3E3D"/>
<path d="M429.4 532.8H463.8V567.2H429.4V532.8Z" fill="#DF2B26"/>
<path d="M395 498.4H429.4V532.8H395V498.4ZM395 429.4H429.4V395H360.4V498.4H394.8L395 429.4ZM429.4 360.4H463.8V394.8H429.4V360.4Z" fill="#DF2B26"/>
<path d="M395 601.8H429.4V636.2H395V601.8ZM360.4 567.2H394.8V601.6H360.4V567.2Z" fill="#FFCC05"/>
<path d="M326 532.8H360.4V567.2H326V532.8Z" fill="#FFCC05"/>
<path d="M291.6 498.4H326V532.8H291.6V498.4ZM257 463.8H291.4V498.2H257V463.8Z" fill="#FFCC05"/>
</svg>
