<svg width="859" height="859" viewBox="0 0 859 859" fill="none" xmlns="http://www.w3.org/2000/svg">
<path d="M0 590.4H53.6V697.8H107.3V751.5H161V805.2H268.4V858.8H590.4V805.2H697.8V751.5H751.5V697.8H805.2V590.4H858.8V268.4H805.2V161H751.5V107.3H697.8V53.6H590.4V0H268.4V53.6H161V107.3H107.3V161H53.6V268.4H0V590.4Z" fill="#063575"/>
<path d="M53.5999 590.4H107.3V697.8H161V751.5H268.4V805.2H590.4V751.5H697.8V697.8H751.5V590.4H805.2V268.4H751.5V161H697.8V107.3H590.4V53.6H268.4V107.3H161V161H107.3V268.4H53.5999V590.4Z" fill="#3CCCFF"/>
<path d="M214.7 644.1H268.4V697.8H214.7V644.1ZM214.7 161H268.4V214.7H214.7V161Z" fill="#063575"/>
<path d="M161 214.7H214.7V268.4H161V214.7Z" fill="#063575"/>
<path d="M107.3 268.4H161V590.5H107.3V268.4Z" fill="#063575"/>
<path d="M161 590.4H214.7V644.1H161V590.4ZM268.4 107.3H590.5V161H268.4V107.3Z" fill="#063575"/>
<path d="M644.1 214.7H697.8V268.4H644.1V214.7ZM644.1 590.4H697.8V644.1H644.1V590.4Z" fill="#8AFFFF"/>
<path d="M697.8 268.4H751.5V590.5H697.8V268.4ZM268.4 697.8H590.5V751.5H268.4V697.8Z" fill="#8AFFFF"/>
<path d="M590.4 644.1H644.1V697.8H590.4V644.1ZM590.4 161H644.1V214.7H590.4V161Z" fill="#8AFFFF"/>
<path d="M644.1 268.4V214.7H590.4V161H268.4V214.7H214.7V268.4H161V590.5H214.7V644.2H268.4V697.9H590.4V644.2H644.1V590.4H697.8V268.3H644.1V268.4Z" fill="#3CCCFF"/>
<path d="M601.8 360.4V326H567.4V291.6H532.9V257.2H498.4V222.7H464V188.3H395V222.7H360.6V257.1H326.1V291.5H291.7V326H257.3V360.4H222.8V498.2H257.2V532.7H291.6V567.1H326.1V601.5H360.4V636H394.8V670.4H463.8V636H498.2V601.6H532.7V567.2H567.1V532.7H601.5V498.4H636V360.5H601.6V360.4H601.8Z" fill="#063575"/>
<path d="M567.2 360.4V326H532.8V291.6H498.4V257.2H464V222.7H395V257.1H360.6V291.5H326.1V326H291.7V360.4H257.3V498.2H291.7V532.7H326.1V567.1H360.4V601.5H394.8V636H463.8V601.6H498.2V567.2H532.7V532.7H567.1V498.4H601.5V360.5H567.1V360.4H567.2Z" fill="#8AFFFF"/>
<path d="M395 567.2H429.4V601.6H395V567.2Z" fill="#F4EFDA"/>
<path d="M463.8 532.8H429.4V567.2H498.4V532.8H463.8ZM395 463.8H429.4V498.2H395V463.8ZM360.4 498.4H394.8V532.8H360.4V498.4ZM360.4 257H394.8V291.4H360.4V257ZM395 222.6H429.4V257H395V222.6ZM429.4 291.6H463.8V326H429.4V291.6Z" fill="#F4EFDA"/>
<path d="M498.4 532.8H532.8V567.2H498.4V532.8Z" fill="#3CCCFF"/>
<path d="M532.8 498.4H567.2V532.8H532.8V498.4ZM567.2 463.8H601.6V498.2H567.2V463.8Z" fill="#3CCCFF"/>
<path d="M429.4 567.2V636.2H463.8V601.8H498.2V567.4L429.4 567.2ZM532.8 498.4V464H498.4V429.4H429.4V498.4H395V532.8H498.4V498.4H532.8ZM360.4 567.2V601.6H394.8V532.6H360.4V567.2Z" fill="#3CCCFF"/>
<path d="M326 498.4H360.4V532.8H326V498.4ZM326 429.4V463.8H395V429.4H429.4V395H463.8V360.6H429.4V257.1H395V291.5H360.6V325.9H326.1V360.4H291.7V394.8H326.1V429.4H326Z" fill="#3CCCFF"/>
<path d="M291.6 463.8H326V498.2H291.6V463.8Z" fill="#3CCCFF"/>
<path d="M291.6 395H257.2V464H291.6V395ZM601.8 429.4V395H567.4V360.6H532.9V291.6H498.4V257.2H464V360.6H498.4V429.6H532.8V464H567.2V429.4H601.8ZM429.4 222.6H463.8V257H429.4V222.6Z" fill="#3CCCFF"/>
<path d="M429.4 601.8H463.8V636.2H429.4V601.8ZM463.8 567.2H498.2V601.6H463.8V567.2ZM498.4 532.8H532.8V567.2H498.4V532.8Z" fill="#2AA5FF"/>
<path d="M532.8 498.4H567.2V532.8H532.8V498.4ZM567.2 463.8H601.6V498.2H567.2V463.8ZM463.8 463.8H429.4V532.8H463.8V498.4H498.2V429.4H463.8V463.8ZM429.4 326V257H395V291.4H360.6V325.9H429.4V326ZM360.4 532.8H394.8V567.2H360.4V532.8Z" fill="#2AA5FF"/>
<path d="M326 498.4H360.4V532.8H326V498.4ZM360.4 326H326V360.4H291.6V394.8H326V463.8H395V394.8H360.6L360.4 326Z" fill="#2AA5FF"/>
<path d="M291.6 463.8H326V498.2H291.6V463.8ZM498.4 291.6V257.2H464V360.6H498.4V291.6Z" fill="#2AA5FF"/>
<path d="M601.8 429.4V395H532.8V360.6H498.4V429.6H532.8V464H567.2V429.4H601.8Z" fill="#2AA5FF"/>
</svg>
