<svg width="10" height="12" viewBox="0 0 10 12" fill="none" xmlns="http://www.w3.org/2000/svg">
<path d="M9.32781 4.17298C8.82529 1.98505 6.89659 1 5.2024 1C5.2024 1 5.2024 1 5.19761 1C3.50819 1 1.57471 1.98031 1.07219 4.16825C0.51225 6.61192 3.39333 9.98381 3.39333 9.98381C3.39333 9.98381 4.55152 11.5 5.2024 11.5C5.85328 11.5 7.00667 9.98381 7.00667 9.98381C7.00667 9.98381 9.88775 6.61665 9.32781 4.17298ZM5.2024 6.54562C4.36966 6.54562 3.69484 5.87787 3.69484 5.05384C3.69484 4.22981 4.36966 3.56207 5.2024 3.56207C6.03514 3.56207 6.70994 4.22981 6.70994 5.05384C6.70994 5.87787 6.03514 6.54562 5.2024 6.54562Z" fill="white" stroke="black"/>
</svg>
