<svg width="28" height="21" viewBox="0 0 28 21" fill="none" xmlns="http://www.w3.org/2000/svg">
<path d="M26.1333 10.5V8.86667H24.2667V7H22.8667V5.13333H17.5V7H15.8667V8.86667H12.1333V10.7333H10.5V12.6H5.13333V10.5H3.5V5.13333H5.36667V3.5H10.5V5.36667H12.3667V7H14V3.5H12.1333V1.86667H10.5V0H5.13333V1.86667H3.5V3.73333H1.86667V5.6H0V10.7333H1.86667V12.6H3.73333V14H5.6V15.8667H10.7333V14H12.6V12.1333H16.1V10.5H17.9667V8.86667H23.1V10.7333H24.9667V15.8667H22.8667V17.7333H17.5V15.8667H15.8667V14H14V17.5H15.8667V19.3667H17.7333V21H22.8667V19.1333H24.7333V17.5H26.6V15.8667H28V10.5H26.1333Z" fill="#824EE2"/>
</svg>
