<svg width="15" height="14" viewBox="0 0 15 14" fill="none" xmlns="http://www.w3.org/2000/svg">
<path fill-rule="evenodd" clip-rule="evenodd" d="M2.21171 2.3334L7.74098 2.3334L7.74098 8.27042e-05L2.21171 8.27042e-05C0.990215 8.27042e-05 0 1.04474 0 2.3334L0 11.6667C0 12.9554 0.990215 14 2.21171 14L11.0585 14C12.2801 14 13.2702 12.9554 13.2702 11.6667L13.2702 9.33336L11.0585 9.33336L11.0585 11.6667L2.21171 11.6667L2.21171 2.3334ZM13.4361 0L7.18805 6.5168L5.51258 4.86688L3.94865 6.5168L6.40609 8.99166C6.61348 9.21044 6.89476 9.33336 7.18805 9.33336C7.48135 9.33336 7.76262 9.21044 7.97001 8.99166L15 1.64991L13.4361 0Z" fill="#9DEDFF"/>
</svg>
