<svg width="22" height="30" viewBox="0 0 22 30" fill="none" xmlns="http://www.w3.org/2000/svg">
<g filter="url(#filter0_d_11253_26944)">
<path d="M17 13C17 13.781 16.7333 14.4571 16.2 15.0286C15.6844 15.581 15.0622 15.8571 14.3333 15.8571H9V18.1429H5V14.7143C5 13.9333 5.25778 13.2667 5.77333 12.7143C6.30667 12.1429 6.93778 11.8571 7.66667 11.8571H13V9H5V5H14.3333C15.0622 5 15.6844 5.28571 16.2 5.85714C16.7333 6.40952 17 7.07619 17 7.85714V13ZM9 25H5V21H9V25Z" fill="#8348FF" fill-opacity="0.4" shape-rendering="crispEdges"/>
<path d="M17 13C17 13.781 16.7333 14.4571 16.2 15.0286C15.6844 15.581 15.0622 15.8571 14.3333 15.8571H9V18.1429H5V14.7143C5 13.9333 5.25778 13.2667 5.77333 12.7143C6.30667 12.1429 6.93778 11.8571 7.66667 11.8571H13V9H5V5H14.3333C15.0622 5 15.6844 5.28571 16.2 5.85714C16.7333 6.40952 17 7.07619 17 7.85714V13ZM9 25H5V21H9V25Z" stroke="#BA91FF" shape-rendering="crispEdges"/>
</g>
<defs>
<filter id="filter0_d_11253_26944" x="0.5" y="0.5" width="21" height="29" filterUnits="userSpaceOnUse" color-interpolation-filters="sRGB">
<feFlood flood-opacity="0" result="BackgroundImageFix"/>
<feColorMatrix in="SourceAlpha" type="matrix" values="0 0 0 0 0 0 0 0 0 0 0 0 0 0 0 0 0 0 127 0" result="hardAlpha"/>
<feOffset/>
<feGaussianBlur stdDeviation="2"/>
<feComposite in2="hardAlpha" operator="out"/>
<feColorMatrix type="matrix" values="0 0 0 0 0.627665 0 0 0 0 0.395833 0 0 0 0 1 0 0 0 1 0"/>
<feBlend mode="normal" in2="BackgroundImageFix" result="effect1_dropShadow_11253_26944"/>
<feBlend mode="normal" in="SourceGraphic" in2="effect1_dropShadow_11253_26944" result="shape"/>
</filter>
</defs>
</svg>
