<svg width="28" height="28" viewBox="0 0 28 28" fill="none" xmlns="http://www.w3.org/2000/svg">
<rect x="9.33398" width="2.33333" height="2.33333" fill="#B927B6"/>
<rect x="11.667" width="2.33333" height="2.33333" fill="#B927B6"/>
<rect x="14.001" y="2.33325" width="2.33333" height="2.33333" fill="#B927B6"/>
<rect x="16.334" y="4.66663" width="2.33333" height="2.33333" fill="#B927B6"/>
<rect x="18.667" y="7" width="2.33333" height="2.33333" fill="#B927B6"/>
<rect x="18.667" y="9.33325" width="2.33333" height="2.33333" fill="#B927B6"/>
<rect x="16.334" y="2.33325" width="2.33333" height="2.33333" fill="#B927B6"/>
<rect width="2.33333" height="2.33333" transform="matrix(1 0 0 -1 9.33398 21.0006)" fill="#B927B6"/>
<rect width="2.33333" height="2.33333" transform="matrix(1 0 0 -1 11.667 21.0006)" fill="#B927B6"/>
<rect width="2.33333" height="2.33333" transform="matrix(1 0 0 -1 14.001 18.6674)" fill="#B927B6"/>
<rect width="2.33333" height="2.33333" transform="matrix(1 0 0 -1 16.334 16.334)" fill="#B927B6"/>
<rect width="2.33333" height="2.33333" transform="matrix(1 0 0 -1 18.667 14.0006)" fill="#B927B6"/>
<rect width="2.33333" height="2.33333" transform="matrix(1 0 0 -1 18.667 11.6674)" fill="#B927B6"/>
<rect width="2.33333" height="2.33333" transform="matrix(1 0 0 -1 16.334 18.6674)" fill="#B927B6"/>
<rect width="2.33333" height="2.33333" transform="matrix(1 0 0 -1 16.334 18.6677)" fill="#B927B6"/>
<rect width="2.33333" height="2.33333" transform="matrix(1 0 0 -1 16.334 21.001)" fill="#B927B6"/>
<rect width="2.33333" height="2.33333" transform="matrix(1 0 0 -1 18.667 21.001)" fill="#B927B6"/>
<rect width="2.33333" height="2.33333" transform="matrix(1 0 0 -1 18.667 18.6677)" fill="#B927B6"/>
<rect width="2.33333" height="2.33333" transform="matrix(1 0 0 -1 21.001 23.334)" fill="#B927B6"/>
<rect width="2.33333" height="2.33333" transform="matrix(1 0 0 -1 21.001 25.6672)" fill="#B927B6"/>
<rect width="2.33333" height="2.33333" transform="matrix(1 0 0 -1 23.334 25.6672)" fill="#B927B6"/>
<rect width="2.33333" height="2.33333" transform="matrix(1 0 0 -1 23.334 23.334)" fill="#B927B6"/>
<rect width="2.33333" height="2.33333" transform="matrix(1 0 0 -1 18.667 21.0004)" fill="#B927B6"/>
<rect width="2.33333" height="2.33333" transform="matrix(1 0 0 -1 18.667 23.3336)" fill="#B927B6"/>
<rect width="2.33333" height="2.33333" transform="matrix(1 0 0 -1 21 23.3336)" fill="#B927B6"/>
<rect width="2.33333" height="2.33333" transform="matrix(1 0 0 -1 21 21.0004)" fill="#B927B6"/>
<rect width="2.33333" height="2.33333" transform="matrix(1 0 0 -1 23.334 25.6677)" fill="#B927B6"/>
<rect width="2.33333" height="2.33333" transform="matrix(1 0 0 -1 23.334 28.001)" fill="#B927B6"/>
<rect width="2.33333" height="2.33333" transform="matrix(1 0 0 -1 25.667 28.001)" fill="#B927B6"/>
<rect width="2.33333" height="2.33333" transform="matrix(1 0 0 -1 25.667 25.6677)" fill="#B927B6"/>
<rect width="2.33333" height="2.33333" transform="matrix(-1 0 0 1 11.667 0)" fill="#B927B6"/>
<rect width="2.33333" height="2.33333" transform="matrix(-1 0 0 1 9.33398 0)" fill="#B927B6"/>
<rect width="2.33333" height="2.33333" transform="matrix(-1 0 0 1 7 2.33325)" fill="#B927B6"/>
<rect width="2.33333" height="2.33333" transform="matrix(-1 0 0 1 4.66699 4.66663)" fill="#B927B6"/>
<rect width="2.33333" height="2.33333" transform="matrix(-1 0 0 1 2.33398 7)" fill="#B927B6"/>
<rect width="2.33333" height="2.33333" transform="matrix(-1 0 0 1 2.33398 9.33325)" fill="#B927B6"/>
<rect width="2.33333" height="2.33333" transform="matrix(-1 0 0 1 4.66699 2.33325)" fill="#B927B6"/>
<rect x="11.667" y="21" width="2.33333" height="2.33333" transform="rotate(-180 11.667 21)" fill="#B927B6"/>
<rect x="9.33398" y="21" width="2.33333" height="2.33333" transform="rotate(-180 9.33398 21)" fill="#B927B6"/>
<rect x="7" y="18.6666" width="2.33333" height="2.33333" transform="rotate(-180 7 18.6666)" fill="#B927B6"/>
<rect x="4.66699" y="16.3333" width="2.33333" height="2.33333" transform="rotate(-180 4.66699 16.3333)" fill="#B927B6"/>
<rect x="2.33398" y="14" width="2.33333" height="2.33333" transform="rotate(-180 2.33398 14)" fill="#B927B6"/>
<rect x="4.66699" y="18.6666" width="2.33333" height="2.33333" transform="rotate(-180 4.66699 18.6666)" fill="#B927B6"/>
</svg>
