<svg width="24" height="24" viewBox="0 0 24 24" fill="none" xmlns="http://www.w3.org/2000/svg">
<path d="M8.00007 1.90735e-06H10.0001V1.99993H8.00007V1.90735e-06Z" fill="#00B9E1"/>
<path d="M10.0001 1.90735e-06L12 1.9312e-06V1.99993H10.0001V1.90735e-06Z" fill="#00B9E1"/>
<path d="M12 1.99993H14V3.99986H12L12 1.99993Z" fill="#00B9E1"/>
<path d="M14 3.99986H16V5.99979H14L14 3.99986Z" fill="#00B9E1"/>
<path d="M16 5.99979H18V7.99972H16V5.99979Z" fill="#00B9E1"/>
<path d="M16 7.99972H18V9.99965H16V7.99972Z" fill="#00B9E1"/>
<path d="M14 1.99993L16 1.99993V3.99986H14V1.99993Z" fill="#00B9E1"/>
<path d="M8.00007 17.9999L10.0001 17.9999V16L8.00007 16V17.9999Z" fill="#00B9E1"/>
<path d="M10.0001 17.9999L12 17.9999V16L10.0001 16V17.9999Z" fill="#00B9E1"/>
<path d="M12 16L14 16V14.0001H12V16Z" fill="#00B9E1"/>
<path d="M14 14.0001L16 14.0001V12.0001H14L14 14.0001Z" fill="#00B9E1"/>
<path d="M16 12.0001H18V9.99965H16V12.0001Z" fill="#00B9E1"/>
<path d="M16 9.99965H18V7.99972H16V9.99965Z" fill="#00B9E1"/>
<path d="M14 16H16V14.0001L14 14.0001V16Z" fill="#00B9E1"/>
<path d="M14 16H16V14.0001L14 14.0001V16Z" fill="#00B9E1"/>
<path d="M14.0001 18.0002H16.0001L16 16H14L14.0001 18.0002Z" fill="#00B9E1"/>
<path d="M16.0001 18.0002H18.0001V16.0003L16 16L16.0001 18.0002Z" fill="#00B9E1"/>
<path d="M16 16L18.0001 16.0003V14.0003L16 14.0001V16Z" fill="#00B9E1"/>
<path d="M18 19.9999H20V17.9999L18.0001 18.0002L18 19.9999Z" fill="#00B9E1"/>
<path d="M18 21.9998H20V19.9999H18V21.9998Z" fill="#00B9E1"/>
<path d="M20 21.9998H21.9999V19.9999H20V21.9998Z" fill="#00B9E1"/>
<path d="M20 19.9999H21.9999V17.9999H20V19.9999Z" fill="#00B9E1"/>
<path d="M16.0001 18.0002H18.0001V16.0003L16 16L16.0001 18.0002Z" fill="#00B9E1"/>
<path d="M15.9999 19.9996L18 19.9999L18.0001 18.0002H16.0001L15.9999 19.9996Z" fill="#00B9E1"/>
<path d="M18 19.9999H20V17.9999L18.0001 18.0002L18 19.9999Z" fill="#00B9E1"/>
<path d="M18.0001 18.0002L20 17.9999L19.9999 15.9997L18.0001 16.0003V18.0002Z" fill="#00B9E1"/>
<path d="M20 21.9998H21.9999V19.9999H20V21.9998Z" fill="#00B9E1"/>
<path d="M20 24H22L21.9999 21.9998H20L20 24Z" fill="#00B9E1"/>
<path d="M22 24H24V22.0001L21.9999 21.9998L22 24Z" fill="#00B9E1"/>
<path d="M21.9999 21.9998L24 22.0001V20.0001L21.9999 19.9999V21.9998Z" fill="#00B9E1"/>
<path d="M10.0001 1.90735e-06H8.00007V1.99993H10.0001V1.90735e-06Z" fill="#00B9E1"/>
<path d="M8.00007 1.90735e-06L5.99995 1.95504e-06V1.99993H8.00007V1.90735e-06Z" fill="#00B9E1"/>
<path d="M5.99995 1.99993L3.99997 1.99993V3.99986H5.99995L5.99995 1.99993Z" fill="#00B9E1"/>
<path d="M3.99997 3.99986H1.99998V5.99979H3.99997V3.99986Z" fill="#00B9E1"/>
<path d="M1.99998 5.99979L0 5.99979L0 7.99972H1.99998L1.99998 5.99979Z" fill="#00B9E1"/>
<path d="M1.99998 7.99972H0L1.4306e-07 9.99965H1.99998V7.99972Z" fill="#00B9E1"/>
<path d="M3.99997 1.99993H1.99998V3.99986H3.99997V1.99993Z" fill="#00B9E1"/>
<path d="M10.0001 17.9999L8.00007 17.9999V16L10.0001 16V17.9999Z" fill="#00B9E1"/>
<path d="M8.00007 17.9999L6.00009 17.9994V15.9994L8.00007 16V17.9999Z" fill="#00B9E1"/>
<path d="M6.00009 15.9994L4.00011 15.9994V13.9995H6.00009L6.00009 15.9994Z" fill="#00B9E1"/>
<path d="M4.00011 13.9995L2.00012 13.9995V11.9996H4.00011L4.00011 13.9995Z" fill="#00B9E1"/>
<path d="M2.00012 11.9996H0.000140929L1.4306e-07 9.99965H1.99998L2.00012 11.9996Z" fill="#00B9E1"/>
<path d="M4.00011 15.9994H2.00012V13.9995L4.00011 13.9995V15.9994Z" fill="#00B9E1"/>
</svg>
