<svg width="33" height="33" viewBox="0 0 33 33" fill="none" xmlns="http://www.w3.org/2000/svg">
<g filter="url(#filter0_d_11253_26943)">
<path d="M5 18.2293L7.90195 18.8053C8.25887 19.7659 8.75751 20.6541 9.38662 21.434L8.42529 24.2707L13.0747 27L15.0131 24.7302C15.4983 24.8107 15.9924 24.8627 16.5 24.8627C17.0076 24.8627 17.5017 24.8107 17.9869 24.7302L19.9253 27L24.5747 24.2707L23.6134 21.434C24.2425 20.6541 24.7411 19.7659 25.098 18.8053L28 18.2293L28 12.7707L25.098 12.1947C24.7411 11.2341 24.2425 10.3459 23.6134 9.56599L24.5747 6.72927L19.9253 4L17.9869 6.26983C17.5017 6.18935 17.0076 6.13725 16.5 6.13725C15.9924 6.13725 15.4983 6.18935 15.0131 6.26983L13.0747 4L8.42529 6.72928L9.38662 9.56599C8.75751 10.3459 8.25887 11.2341 7.90195 12.1947L5 12.7707L5 18.2293ZM11.9 15.5C11.9 12.9147 13.9596 10.8186 16.5 10.8186C19.0404 10.8186 21.1 12.9147 21.1 15.5C21.1 18.0853 19.0404 20.1814 16.5 20.1814C13.9597 20.1814 11.9 18.0853 11.9 15.5Z" fill="#8348FF" fill-opacity="0.4" shape-rendering="crispEdges"/>
<path d="M8.37064 18.6312L8.27334 18.3693L7.9993 18.3149L5.5 17.8188L5.5 13.1812L7.9993 12.6851L8.27333 12.6307L8.37064 12.3688C8.70967 11.4564 9.18215 10.6159 9.7758 9.8799L9.94841 9.6659L9.86017 9.40551L9.02951 6.95437L12.9665 4.64328L14.6329 6.59453L14.8163 6.8093L15.0949 6.76309C15.5607 6.68584 16.0266 6.63725 16.5 6.63725C16.9734 6.63725 17.4393 6.68584 17.9051 6.76309L18.1837 6.8093L18.3671 6.59453L20.0335 4.64327L23.9705 6.95437L23.1398 9.40551L23.0516 9.6659L23.2242 9.8799C23.8179 10.6159 24.2903 11.4564 24.6294 12.3688L24.7267 12.6307L25.0007 12.6851L27.5 13.1812L27.5 17.8188L25.0007 18.3149L24.7267 18.3693L24.6294 18.6312C24.2903 19.5436 23.8179 20.3841 23.2242 21.1201L23.0516 21.3341L23.1398 21.5945L23.9705 24.0456L20.0335 26.3567L18.3671 24.4055L18.1837 24.1907L17.9051 24.2369C17.4393 24.3142 16.9734 24.3627 16.5 24.3627C16.0266 24.3627 15.5607 24.3142 15.0949 24.2369L14.8163 24.1907L14.6329 24.4055L12.9665 26.3567L9.02951 24.0456L9.86017 21.5945L9.94841 21.3341L9.7758 21.1201C9.18215 20.3841 8.70967 19.5436 8.37064 18.6312ZM16.5 10.3186C13.6753 10.3186 11.4 12.6469 11.4 15.5C11.4 18.3531 13.6753 20.6814 16.5 20.6814C19.3247 20.6814 21.6 18.3531 21.6 15.5C21.6 12.6469 19.3247 10.3186 16.5 10.3186Z" stroke="#A065FF" shape-rendering="crispEdges"/>
</g>
<defs>
<filter id="filter0_d_11253_26943" x="0" y="0" width="33" height="33" filterUnits="userSpaceOnUse" color-interpolation-filters="sRGB">
<feFlood flood-opacity="0" result="BackgroundImageFix"/>
<feColorMatrix in="SourceAlpha" type="matrix" values="0 0 0 0 0 0 0 0 0 0 0 0 0 0 0 0 0 0 127 0" result="hardAlpha"/>
<feOffset dy="1"/>
<feGaussianBlur stdDeviation="2.5"/>
<feComposite in2="hardAlpha" operator="out"/>
<feColorMatrix type="matrix" values="0 0 0 0 0.537255 0 0 0 0 0.376471 0 0 0 0 0.890196 0 0 0 1 0"/>
<feBlend mode="normal" in2="BackgroundImageFix" result="effect1_dropShadow_11253_26943"/>
<feBlend mode="normal" in="SourceGraphic" in2="effect1_dropShadow_11253_26943" result="shape"/>
</filter>
</defs>
</svg>
