<svg width="17" height="18" viewBox="0 0 17 18" fill="none" xmlns="http://www.w3.org/2000/svg">
<path d="M8.84572 16.8255C8.02528 16.8255 6.88367 16.829 6.06349 16.8255C5.47428 16.8229 4.8677 16.6794 4.67237 16.1339C4.62388 15.9983 4.67452 15.5866 4.67237 15.4423C4.66433 14.8695 4.66862 14.632 4.67237 14.059C4.67693 13.33 5.32262 12.7048 6.06349 12.6757C5.92979 12.6857 6.19773 12.6704 6.06349 12.6757C6.11761 12.6717 6.70626 12.6987 6.75905 12.6757C6.73574 12.6271 6.79576 12.0192 6.75905 11.9841C6.22236 11.4705 5.21121 11.1122 4.67237 10.6008C3.94276 9.90827 3.31531 9.21838 2.5857 8.52587C2.41582 8.36463 2.06538 7.99017 1.89014 7.83423C1.83843 7.78824 1.95659 7.85907 1.89014 7.83423C1.52761 7.69758 1.50352 8.07793 1.19458 7.83423C0.91056 7.61009 0.507597 6.80831 0.499023 6.45095C0.479463 5.62628 0.75542 5.06669 1.19458 4.37603C1.84783 3.3489 2.9104 2.87838 3.97681 2.30111C4.89479 1.80446 5.72827 1.09202 6.75905 0.917836C7.64755 0.767704 8.6442 0.837748 9.54128 0.917836C11.1902 1.06506 12.3452 1.36675 13.7146 2.30111C14.3982 2.76763 15.3345 3.69489 15.8013 4.37603C16.274 5.0659 16.4674 5.60857 16.4969 6.45095C16.5164 7.01394 16.2933 7.58524 15.8013 7.83423C15.5569 7.95793 15.3574 7.72401 15.1058 7.83423C15.028 7.86832 15.1663 8.46877 15.1058 8.52587C13.9126 9.65212 12.1234 10.1641 10.9324 11.2924C10.6969 11.5155 10.4686 11.757 10.2368 11.9841C10.1977 12.0224 10.2623 12.6242 10.2368 12.6757C10.2936 12.6979 10.8743 12.6715 10.9324 12.6757C10.7309 12.6405 11.1382 12.691 10.9324 12.6757C11.52 12.7785 12.3029 12.7753 12.3235 13.3673C12.3463 14.0215 12.3525 14.7883 12.3235 15.4423C12.2959 16.0721 11.576 16.8123 10.9324 16.8255C10.4788 16.8348 9.99491 16.8253 9.54128 16.8255C9.1533 16.8263 9.23424 16.8255 8.84572 16.8255ZM8.15017 7.83423C9.00571 7.79537 10.0777 7.19334 10.9324 7.14259C11.8311 7.0892 12.8331 7.3292 13.7146 7.14259C14.2119 7.03739 14.6452 6.67033 15.1058 6.45095C15.1309 6.60346 15.2459 6.38408 15.1058 6.45095C14.9586 5.56152 15.0474 5.0022 14.4102 4.37603C13.6956 3.67401 12.5706 3.32712 11.628 2.99275C10.2695 2.51117 8.88704 2.12904 7.45461 2.30111C6.30298 2.43935 4.97866 2.40861 3.97681 2.99275C3.23005 3.42808 3.06157 4.34265 2.5857 5.06767C2.29203 5.5149 1.97427 5.92337 1.89014 6.45095C1.74491 6.39254 1.86522 6.60795 1.89014 6.45095C2.14495 6.55324 2.32258 7.06488 2.5857 7.14259C3.47581 7.40585 4.44647 7.05563 5.36793 7.14259C6.4231 7.24171 7.08857 7.81176 8.15017 7.83423ZM8.84572 13.3673C8.06172 13.3673 6.8475 13.3673 6.06349 13.3673C5.84378 13.3673 6.06349 13.8388 6.06349 14.059C6.06349 14.5638 6.06215 14.9374 6.06349 15.4423C5.91023 15.4423 6.06376 15.5958 6.06349 15.4423C7.65347 15.4428 9.34242 15.4428 10.9324 15.4423C10.9321 15.603 11.0905 15.4423 10.9324 15.4423C10.9335 15.0556 10.9321 14.4457 10.9324 14.059C10.9324 13.9194 10.9345 14.1985 10.9324 14.059C10.9305 13.9321 11.0632 13.3724 10.9324 13.3673C10.9107 13.3665 10.9541 13.3673 10.9324 13.3673C10.1556 13.3676 9.62249 13.3673 8.84572 13.3673ZM8.15017 10.6008C8.15017 10.0351 8.1507 9.78314 8.15017 9.21751C8.15017 9.07953 8.28896 8.52983 8.15017 8.52587C7.53738 8.50816 6.67655 8.53988 6.06349 8.52587C6.00883 8.52455 6.09939 8.4886 6.06349 8.52587C6.0442 8.54595 6.04018 9.17469 6.06349 9.21751C6.2331 9.52966 6.58649 9.59857 6.75905 9.90914C7.22447 10.7465 7.68394 11.8386 8.15017 12.6757C8.0596 12.6984 8.18446 12.737 8.15017 12.6757C8.24421 12.6522 8.1499 12.0515 8.15017 11.9841C8.15231 11.429 8.15017 11.1556 8.15017 10.6008ZM8.84572 10.6008C8.84572 11.1556 8.84117 11.4293 8.84572 11.9841C8.84626 12.048 8.80553 12.659 8.84572 12.6757C8.80768 12.7418 8.94084 12.7148 8.84572 12.6757C8.93147 12.5264 9.45768 12.1345 9.54128 11.9841C9.89363 11.3505 9.88449 10.5427 10.2368 9.90914C10.4426 9.5391 10.7282 9.58861 10.9324 9.21751C10.9897 9.1131 11.053 8.53089 10.9324 8.52587C10.9144 8.52507 10.9506 8.52534 10.9324 8.52587C10.3303 8.5441 9.44779 8.50921 8.84572 8.52587C8.68281 8.53036 8.84599 9.05918 8.84572 9.21751C8.84519 9.77601 8.84572 10.0423 8.84572 10.6008ZM3.28126 8.52587C3.26357 8.53591 3.28662 8.5034 3.28126 8.52587C3.25768 8.49547 3.27188 8.56604 3.28126 8.52587C3.32654 8.58481 3.22606 8.47406 3.28126 8.52587C4.3884 9.56833 5.65163 10.9421 6.75905 11.9841C6.68108 11.9262 6.82979 12.0507 6.75905 11.9841C6.78156 12.0007 7.43665 11.9997 7.45461 11.9841C7.45514 12.019 7.47845 11.9632 7.45461 11.9841C7.45407 11.9547 7.47015 12.0123 7.45461 11.9841C6.89005 10.9641 5.92981 9.54719 5.36793 8.52587C5.32185 8.44208 5.45796 8.53697 5.36793 8.52587C4.95101 8.47432 4.3924 8.5856 3.97681 8.52587C3.77961 8.49785 3.49427 8.56551 3.28126 8.52587ZM13.7146 8.52587C13.7036 8.40454 13.7907 8.51424 13.7146 8.52587C13.1241 8.616 12.2196 8.44393 11.628 8.52587C11.5149 8.54146 11.6829 8.42622 11.628 8.52587C11.1395 9.41582 10.7288 10.4043 10.2368 11.2924C10.1586 11.4336 9.61148 11.839 9.54128 11.9841C9.52494 12.0176 9.53699 11.941 9.54128 11.9841C9.58362 11.9788 10.198 11.9989 10.2368 11.9841C10.2106 12.0086 10.2687 11.9719 10.2368 11.9841C10.4263 11.807 10.7432 11.47 10.9324 11.2924C11.9361 10.3501 12.7117 9.46895 13.7146 8.52587C13.7441 8.49864 13.7002 8.54595 13.7146 8.52587Z" fill="#00B9E1"/>
<path d="M8.84572 16.8255C8.02528 16.8255 6.88367 16.829 6.06349 16.8255C5.47428 16.8229 4.8677 16.6794 4.67237 16.1339C4.62388 15.9983 4.67452 15.5866 4.67237 15.4423C4.66433 14.8695 4.66862 14.632 4.67237 14.059C4.67693 13.33 5.32262 12.7048 6.06349 12.6757C6.19773 12.6704 5.92979 12.6857 6.06349 12.6757C6.11761 12.6717 6.70626 12.6987 6.75905 12.6757C6.73574 12.6271 6.79576 12.0192 6.75905 11.9841C6.22236 11.4705 5.21121 11.1122 4.67237 10.6008C3.94276 9.90827 3.31531 9.21838 2.5857 8.52587C2.41582 8.36463 2.06538 7.99017 1.89014 7.83423C1.83843 7.78824 1.95659 7.85907 1.89014 7.83423C1.52761 7.69758 1.50352 8.07793 1.19458 7.83423C0.91056 7.61009 0.507597 6.80831 0.499023 6.45095C0.479463 5.62628 0.75542 5.06669 1.19458 4.37603C1.84783 3.3489 2.9104 2.87838 3.97681 2.30111C4.89479 1.80446 5.72827 1.09202 6.75905 0.917836C7.64755 0.767704 8.6442 0.837748 9.54128 0.917836C11.1902 1.06506 12.3452 1.36675 13.7146 2.30111C14.3982 2.76763 15.3345 3.69489 15.8013 4.37603C16.274 5.0659 16.4674 5.60857 16.4969 6.45095C16.5164 7.01394 16.2933 7.58524 15.8013 7.83423C15.5569 7.95793 15.3574 7.72401 15.1058 7.83423C15.028 7.86832 15.1663 8.46877 15.1058 8.52587C13.9126 9.65212 12.1234 10.1641 10.9324 11.2924C10.6969 11.5155 10.4686 11.757 10.2368 11.9841C10.1977 12.0224 10.2623 12.6242 10.2368 12.6757C10.2936 12.6979 10.8743 12.6715 10.9324 12.6757C11.1382 12.691 10.7309 12.6405 10.9324 12.6757C11.52 12.7785 12.3029 12.7753 12.3235 13.3673C12.3463 14.0215 12.3525 14.7883 12.3235 15.4423C12.2959 16.0721 11.576 16.8123 10.9324 16.8255C10.4788 16.8348 9.99491 16.8253 9.54128 16.8255C9.1533 16.8263 9.23424 16.8255 8.84572 16.8255ZM8.15017 7.83423C9.00571 7.79537 10.0777 7.19334 10.9324 7.14259C11.8311 7.0892 12.8331 7.3292 13.7146 7.14259C14.2119 7.03739 14.6452 6.67033 15.1058 6.45095C15.2459 6.38408 15.1309 6.60346 15.1058 6.45095C14.9586 5.56152 15.0474 5.0022 14.4102 4.37603C13.6956 3.67401 12.5706 3.32711 11.628 2.99275C10.2695 2.51117 8.88704 2.12904 7.45461 2.30111C6.30298 2.43935 4.97866 2.40861 3.97681 2.99275C3.23005 3.42808 3.06157 4.34265 2.5857 5.06767C2.29203 5.5149 1.97427 5.92337 1.89014 6.45095C1.86522 6.60795 1.74491 6.39254 1.89014 6.45095C2.14495 6.55324 2.32258 7.06488 2.5857 7.14259C3.47581 7.40585 4.44647 7.05563 5.36793 7.14259C6.4231 7.24171 7.08857 7.81176 8.15017 7.83423ZM8.84572 13.3673V13.3673C8.06172 13.3673 6.8475 13.3673 6.06349 13.3673C5.84378 13.3673 6.06349 13.8388 6.06349 14.059C6.06349 14.5638 6.06215 14.9374 6.06349 15.4423C6.06376 15.5958 5.91023 15.4423 6.06349 15.4423C7.65347 15.4428 9.34242 15.4428 10.9324 15.4423C11.0905 15.4423 10.9321 15.603 10.9324 15.4423C10.9335 15.0556 10.9321 14.4457 10.9324 14.059C10.9324 13.9194 10.9345 14.1985 10.9324 14.059C10.9305 13.9321 11.0632 13.3724 10.9324 13.3673C10.9107 13.3665 10.9541 13.3673 10.9324 13.3673C10.1556 13.3676 9.62249 13.3673 8.84572 13.3673ZM8.15017 10.6008C8.15017 10.0351 8.1507 9.78314 8.15017 9.21751C8.15017 9.07953 8.28896 8.52983 8.15017 8.52587C7.53738 8.50816 6.67655 8.53988 6.06349 8.52587C6.00883 8.52454 6.09939 8.4886 6.06349 8.52587C6.0442 8.54595 6.04018 9.17469 6.06349 9.21751C6.2331 9.52966 6.58649 9.59857 6.75905 9.90914C7.22447 10.7465 7.68394 11.8386 8.15017 12.6757C8.18446 12.737 8.0596 12.6984 8.15017 12.6757C8.24421 12.6522 8.1499 12.0515 8.15017 11.9841C8.15231 11.429 8.15017 11.1556 8.15017 10.6008ZM8.84572 10.6008C8.84572 11.1556 8.84117 11.4293 8.84572 11.9841C8.84626 12.048 8.80553 12.659 8.84572 12.6757C8.94084 12.7148 8.80768 12.7418 8.84572 12.6757C8.93147 12.5264 9.45768 12.1345 9.54128 11.9841C9.89363 11.3505 9.88449 10.5427 10.2368 9.90914C10.4426 9.5391 10.7282 9.58861 10.9324 9.21751C10.9897 9.1131 11.053 8.53089 10.9324 8.52587C10.9144 8.52507 10.9506 8.52534 10.9324 8.52587C10.3303 8.5441 9.44779 8.50921 8.84572 8.52587C8.68281 8.53036 8.84599 9.05918 8.84572 9.21751C8.84519 9.77601 8.84572 10.0423 8.84572 10.6008ZM3.28126 8.52587C3.26357 8.53591 3.28662 8.5034 3.28126 8.52587C3.27188 8.56604 3.25768 8.49547 3.28126 8.52587C3.32654 8.58481 3.22606 8.47406 3.28126 8.52587C4.3884 9.56833 5.65163 10.9421 6.75905 11.9841C6.82979 12.0507 6.68108 11.9262 6.75905 11.9841C6.78156 12.0007 7.43665 11.9997 7.45461 11.9841C7.47845 11.9632 7.45514 12.019 7.45461 11.9841C7.45407 11.9547 7.47015 12.0123 7.45461 11.9841C6.89005 10.9641 5.92981 9.54719 5.36793 8.52587C5.32185 8.44208 5.45796 8.53697 5.36793 8.52587C4.95101 8.47432 4.3924 8.5856 3.97681 8.52587C3.77961 8.49785 3.49427 8.56551 3.28126 8.52587ZM13.7146 8.52587C13.7036 8.40455 13.7907 8.51424 13.7146 8.52587C13.1241 8.616 12.2196 8.44393 11.628 8.52587C11.5149 8.54146 11.6829 8.42622 11.628 8.52587C11.1395 9.41582 10.7288 10.4043 10.2368 11.2924C10.1586 11.4336 9.61148 11.839 9.54128 11.9841C9.52494 12.0176 9.537 11.941 9.54128 11.9841C9.58362 11.9788 10.198 11.9989 10.2368 11.9841C10.2687 11.9719 10.2106 12.0086 10.2368 11.9841C10.4263 11.807 10.7432 11.47 10.9324 11.2924C11.9361 10.3501 12.7117 9.46895 13.7146 8.52587C13.7441 8.49864 13.7002 8.54595 13.7146 8.52587Z" stroke="#00B9E1" stroke-width="0.618992"/>
</svg>
