<svg width="16" height="13" viewBox="0 0 16 13" fill="none" xmlns="http://www.w3.org/2000/svg">
<path d="M7.03605 6.04597C6.31226 6.04597 5.58836 6.05202 4.86468 6.042C4.66483 6.03922 4.60346 6.09679 4.60668 6.28802C4.61787 6.95006 4.61179 7.61237 4.60943 8.27457C4.60926 8.32299 4.58641 8.3713 4.57412 8.41967C4.53709 8.39478 4.49524 8.37446 4.46366 8.3444C3.18987 7.13307 1.9158 5.92195 0.649241 4.70371C0.608249 4.66427 0.609398 4.51754 0.651021 4.47751C1.91086 3.26585 3.17816 2.06111 4.44541 0.856313C4.4833 0.820257 4.53273 0.795257 4.57682 0.765137C4.58819 0.823198 4.60926 0.881204 4.60949 0.939266C4.61184 1.58333 4.6212 2.22761 4.60536 2.87135C4.59984 3.09363 4.67873 3.14161 4.89666 3.14036C6.31565 3.13203 7.7348 3.14363 9.15373 3.12947C9.42649 3.12674 9.48344 3.20855 9.47885 3.44989C9.46387 4.23884 9.46771 5.02827 9.47742 5.81738C9.4796 5.99706 9.42322 6.05164 9.236 6.04951C8.5028 6.04096 7.76936 6.04597 7.03605 6.04597Z" fill="#4ADBFB"/>
<path d="M9.20979 9.86619C8.49559 9.86619 7.78122 9.85786 7.06731 9.8712C6.84679 9.87534 6.79661 9.80693 6.79943 9.60797C6.81074 8.80993 6.81033 8.01161 6.7996 7.21363C6.79701 7.01957 6.86224 6.97044 7.05898 6.97142C8.4778 6.97861 9.89672 6.96624 11.3154 6.98258C11.6157 6.98601 11.6817 6.89843 11.6729 6.62975C11.6523 5.99543 11.6655 5.36014 11.668 4.72523C11.6682 4.67729 11.6921 4.62947 11.705 4.58154C11.7419 4.60725 11.7831 4.62887 11.815 4.65927C13.0886 5.87043 14.3627 7.08128 15.629 8.29925C15.6697 8.33836 15.6673 8.48509 15.6254 8.5254C14.3657 9.73689 13.0986 10.9415 11.8315 12.146C11.7938 12.182 11.7441 12.2066 11.7 12.2365C11.6888 12.1783 11.668 12.1202 11.6678 12.062C11.6655 11.418 11.656 10.7738 11.6721 10.1302C11.6776 9.9077 11.5987 9.8583 11.3808 9.86178C10.6573 9.87338 9.93347 9.86614 9.20979 9.86619Z" fill="#4ADBFB"/>
</svg>
