<svg width="116" height="57" viewBox="0 0 116 57" fill="none" xmlns="http://www.w3.org/2000/svg">
<path d="M5 57C2.23858 57 -9.78513e-08 54.7614 -2.18557e-07 52L-2.27299e-06 5C-2.3937e-06 2.23858 2.23857 3.71685e-06 5 3.59614e-06L111 -1.03727e-06C113.761 -1.15797e-06 116 2.23857 116 5L116 52C116 54.7614 113.761 57 111 57L5 57Z" fill="url(#paint0_linear_11253_28519)"/>
<g opacity="0.7">
<path d="M76 29L52 0H16V57H52L76 29Z" fill="#03C5EF"/>
<path d="M76 29L52 0H16V57H52L76 29Z" fill="url(#paint1_linear_11253_28519)"/>
</g>
<path opacity="0.53" d="M92 29L68 0H44L67 29L44 57H68L92 29Z" fill="#00B9E1"/>
<defs>
<linearGradient id="paint0_linear_11253_28519" x1="-1.24577e-06" y1="28.5" x2="116" y2="28.5" gradientUnits="userSpaceOnUse">
<stop stop-color="#0089B5"/>
<stop offset="0.484375" stop-color="#006CA9"/>
<stop offset="1" stop-color="#006CA9" stop-opacity="0"/>
</linearGradient>
<linearGradient id="paint1_linear_11253_28519" x1="20.0336" y1="28" x2="76" y2="28" gradientUnits="userSpaceOnUse">
<stop stop-color="#003474"/>
<stop offset="0.557511" stop-color="#029BCB" stop-opacity="0"/>
<stop offset="1" stop-color="#4FD5FF" stop-opacity="0.56"/>
</linearGradient>
</defs>
</svg>
