<svg width="42" height="54" viewBox="0 0 42 54" fill="none" xmlns="http://www.w3.org/2000/svg">
<g filter="url(#filter0_d_7853_73431)">
<path d="M34.4148 47.5C33.005 47.5 8.02963 47.5 7.21778 47.5C6.40593 47.5 6.03057 46.7772 6.02903 46.4145C5.99594 39.1113 6.00697 31.8079 6 24.5046C5.99942 23.8421 6.29471 23.426 6.9894 23.3876C7.61134 23.3532 7.72125 23.0254 7.7168 22.5346C7.70577 21.2765 7.69377 20.018 7.7168 18.7603C7.81781 13.2351 10.0683 9.21732 15.2647 6.91417C17.9608 5.75162 21.0899 6.00012 22.046 6.07316C22.2294 6.12535 22.6234 6.12701 22.8107 6.15302C27.3427 6.78124 29.8 9.00017 31.8 12C32.8 13.5003 33 14.2495 33 14.2495C33 14.2495 31.8479 14.2495 28.5 14.2495C28.4198 14.2495 27.3303 14.2294 27.2 13.9995C25.5 11 21.9325 10.2719 19.3955 10.6394C16.7451 11.0234 14.1602 12.7091 13.2482 16.4548C12.8049 18.2754 12.95 20.2307 12.8776 22.1268C12.8314 23.3377 12.8993 23.3727 14.1613 23.3734C18.6761 23.3766 21.5669 23.3747 26.0816 23.3747C28.8871 23.3747 31.6927 23.3722 34.4982 23.376C35.7268 23.3777 35.9944 23.6267 36 24.7547C35.9334 37.133 35.9334 31.7574 35.9334 44.4021C35.9334 45.1962 36.0385 47.5 34.4148 47.5ZM18.6174 38.3674C18.6174 38.8953 18.5845 39.2362 18.6232 39.5695C18.7663 40.7956 19.7829 41.6863 21.0044 41.6821C22.2625 41.6777 23.2893 40.7307 23.3868 39.4682C23.4127 39.1323 23.4323 38.7885 23.3868 38.4569C23.2663 37.5749 23.6335 37.0064 24.3582 36.4295C24.9571 35.9527 25.5287 35.2028 25.6704 34.4936C26.0452 32.6185 25.3136 31.0225 23.6293 29.9629C21.9522 28.9079 20.157 28.9047 18.4466 29.91C15.8886 31.4134 15.4497 34.827 17.6226 36.4516C18.4017 37.0339 18.7858 37.6394 18.6174 38.3674Z" fill="#C82AC2" fill-opacity="0.5" shape-rendering="crispEdges"/>
<path d="M6.02903 46.4145L7.02902 46.4103L7.02902 46.41L6.02903 46.4145ZM6 24.5046L5 24.5055L5 24.5056L6 24.5046ZM6.9894 23.3876L7.04454 24.3861L7.04478 24.3861L6.9894 23.3876ZM7.7168 22.5346L6.71683 22.5434L6.71684 22.5437L7.7168 22.5346ZM7.7168 18.7603L8.71663 18.7786L8.71663 18.7786L7.7168 18.7603ZM15.2647 6.91417L14.8687 5.99585L14.8595 5.99994L15.2647 6.91417ZM22.046 6.07316L22.3197 5.11133L22.2227 5.08374L22.1222 5.07606L22.046 6.07316ZM22.8107 6.15302L22.6732 7.14352L22.6734 7.14355L22.8107 6.15302ZM31.8 12L32.6321 11.4454L32.632 11.4453L31.8 12ZM33 14.2495V15.2495C33.3107 15.2495 33.6038 15.1051 33.7931 14.8587C33.9823 14.6122 34.0463 14.2918 33.9662 13.9916L33 14.2495ZM28.5 14.2495V13.2495V14.2495ZM19.3955 10.6394L19.5389 11.6291L19.3955 10.6394ZM13.2482 16.4548L14.2198 16.6914L14.2198 16.6913L13.2482 16.4548ZM12.8776 22.1268L13.8769 22.165L13.8769 22.1649L12.8776 22.1268ZM14.1613 23.3734L14.162 22.3734H14.1619L14.1613 23.3734ZM34.4982 23.376L34.4968 24.376H34.4968L34.4982 23.376ZM36 24.7547L37 24.7601L37 24.7498L36 24.7547ZM18.6174 38.3674L17.6432 38.1421L17.6174 38.2533V38.3674H18.6174ZM18.6232 39.5695L17.6299 39.6848L17.63 39.6853L18.6232 39.5695ZM21.0044 41.6821L21.0078 42.6821H21.0079L21.0044 41.6821ZM23.3868 39.4682L24.3838 39.5452L24.3838 39.5452L23.3868 39.4682ZM23.3868 38.4569L22.396 38.5923L22.3961 38.5928L23.3868 38.4569ZM24.3582 36.4295L23.7354 35.6471L23.7354 35.6471L24.3582 36.4295ZM25.6704 34.4936L24.6898 34.2975L24.6898 34.2977L25.6704 34.4936ZM23.6293 29.9629L24.1618 29.1165L24.1618 29.1164L23.6293 29.9629ZM18.4466 29.91L17.9399 29.0478L17.9399 29.0478L18.4466 29.91ZM17.6226 36.4516L17.0238 37.2525L17.0239 37.2526L17.6226 36.4516ZM27.2 13.9995L28.07 13.5065L27.2 13.9995ZM34.4148 46.5C34.412 46.5 34.4092 46.5 34.4063 46.5C34.4033 46.5 34.4003 46.5 34.3972 46.5C34.3941 46.5 34.3909 46.5 34.3876 46.5C34.3843 46.5 34.3809 46.5 34.3775 46.5C34.374 46.5 34.3704 46.5 34.3668 46.5C34.3632 46.5 34.3594 46.5 34.3556 46.5C34.3518 46.5 34.3479 46.5 34.3439 46.5C34.3399 46.5 34.3358 46.5 34.3316 46.5C34.3275 46.5 34.3232 46.5 34.3189 46.5C34.3145 46.5 34.3101 46.5 34.3056 46.5C34.3011 46.5 34.2965 46.5 34.2918 46.5C34.2871 46.5 34.2823 46.5 34.2775 46.5C34.2726 46.5 34.2676 46.5 34.2626 46.5C34.2576 46.5 34.2525 46.5 34.2473 46.5C34.2421 46.5 34.2368 46.5 34.2314 46.5C34.226 46.5 34.2206 46.5 34.215 46.5C34.2095 46.5 34.2039 46.5 34.1982 46.5C34.1925 46.5 34.1867 46.5 34.1808 46.5C34.1749 46.5 34.169 46.5 34.1629 46.5C34.1569 46.5 34.1508 46.5 34.1446 46.5C34.1383 46.5 34.1321 46.5 34.1257 46.5C34.1193 46.5 34.1129 46.5 34.1063 46.5C34.0998 46.5 34.0932 46.5 34.0865 46.5C34.0798 46.5 34.073 46.5 34.0661 46.5C34.0593 46.5 34.0523 46.5 34.0453 46.5C34.0383 46.5 34.0312 46.5 34.024 46.5C34.0168 46.5 34.0095 46.5 34.0022 46.5C33.9948 46.5 33.9874 46.5 33.9799 46.5C33.9724 46.5 33.9648 46.5 33.9571 46.5C33.9494 46.5 33.9417 46.5 33.9339 46.5C33.926 46.5 33.9181 46.5 33.9101 46.5C33.9022 46.5 33.8941 46.5 33.886 46.5C33.8778 46.5 33.8696 46.5 33.8613 46.5C33.853 46.5 33.8446 46.5 33.8362 46.5C33.8277 46.5 33.8192 46.5 33.8106 46.5C33.8019 46.5 33.7933 46.5 33.7845 46.5C33.7757 46.5 33.7669 46.5 33.758 46.5C33.749 46.5 33.74 46.5 33.731 46.5C33.7219 46.5 33.7128 46.5 33.7035 46.5C33.6943 46.5 33.685 46.5 33.6756 46.5C33.6663 46.5 33.6568 46.5 33.6473 46.5C33.6377 46.5 33.6281 46.5 33.6185 46.5C33.6088 46.5 33.599 46.5 33.5892 46.5C33.5794 46.5 33.5695 46.5 33.5595 46.5C33.5495 46.5 33.5395 46.5 33.5294 46.5C33.5192 46.5 33.509 46.5 33.4988 46.5C33.4885 46.5 33.4781 46.5 33.4677 46.5C33.4573 46.5 33.4468 46.5 33.4363 46.5C33.4257 46.5 33.4151 46.5 33.4043 46.5C33.3936 46.5 33.3829 46.5 33.372 46.5C33.3611 46.5 33.3502 46.5 33.3392 46.5C33.3282 46.5 33.3172 46.5 33.306 46.5C33.2949 46.5 33.2837 46.5 33.2724 46.5C33.2611 46.5 33.2497 46.5 33.2383 46.5C33.2269 46.5 33.2154 46.5 33.2038 46.5C33.1923 46.5 33.1806 46.5 33.1689 46.5C33.1572 46.5 33.1454 46.5 33.1336 46.5C33.1217 46.5 33.1098 46.5 33.0978 46.5C33.0859 46.5 33.0738 46.5 33.0617 46.5C33.0496 46.5 33.0374 46.5 33.0251 46.5C33.0128 46.5 33.0005 46.5 32.9881 46.5C32.9757 46.5 32.9632 46.5 32.9507 46.5C32.9382 46.5 32.9256 46.5 32.9129 46.5C32.9002 46.5 32.8875 46.5 32.8747 46.5C32.8619 46.5 32.849 46.5 32.8361 46.5C32.8232 46.5 32.8101 46.5 32.7971 46.5C32.784 46.5 32.7709 46.5 32.7577 46.5C32.7445 46.5 32.7312 46.5 32.7179 46.5C32.7045 46.5 32.6911 46.5 32.6777 46.5C32.6642 46.5 32.6507 46.5 32.6371 46.5C32.6235 46.5 32.6098 46.5 32.5961 46.5C32.5823 46.5 32.5686 46.5 32.5547 46.5C32.5408 46.5 32.5269 46.5 32.5129 46.5C32.499 46.5 32.4849 46.5 32.4708 46.5C32.4567 46.5 32.4425 46.5 32.4283 46.5C32.414 46.5 32.3997 46.5 32.3854 46.5C32.371 46.5 32.3566 46.5 32.3421 46.5C32.3276 46.5 32.3131 46.5 32.2984 46.5C32.2838 46.5 32.2692 46.5 32.2544 46.5C32.2397 46.5 32.2249 46.5 32.21 46.5C32.1952 46.5 32.1802 46.5 32.1653 46.5C32.1503 46.5 32.1352 46.5 32.1201 46.5C32.105 46.5 32.0899 46.5 32.0746 46.5C32.0594 46.5 32.0441 46.5 32.0288 46.5C32.0134 46.5 31.998 46.5 31.9825 46.5C31.9671 46.5 31.9516 46.5 31.936 46.5C31.9204 46.5 31.9047 46.5 31.889 46.5C31.8733 46.5 31.8576 46.5 31.8417 46.5C31.8259 46.5 31.81 46.5 31.7941 46.5C31.7782 46.5 31.7622 46.5 31.7461 46.5C31.7301 46.5 31.7139 46.5 31.6978 46.5C31.6816 46.5 31.6654 46.5 31.6491 46.5C31.6328 46.5 31.6165 46.5 31.6001 46.5C31.5837 46.5 31.5672 46.5 31.5507 46.5C31.5342 46.5 31.5176 46.5 31.501 46.5C31.4844 46.5 31.4677 46.5 31.451 46.5C31.4342 46.5 31.4174 46.5 31.4006 46.5C31.3837 46.5 31.3668 46.5 31.3499 46.5C31.3329 46.5 31.3159 46.5 31.2988 46.5C31.2818 46.5 31.2647 46.5 31.2475 46.5C31.2303 46.5 31.2131 46.5 31.1958 46.5C31.1785 46.5 31.1612 46.5 31.1438 46.5C31.1264 46.5 31.1089 46.5 31.0914 46.5C31.0739 46.5 31.0564 46.5 31.0388 46.5C31.0212 46.5 31.0035 46.5 30.9858 46.5C30.9681 46.5 30.9503 46.5 30.9325 46.5C30.9147 46.5 30.8968 46.5 30.8789 46.5C30.861 46.5 30.843 46.5 30.825 46.5C30.807 46.5 30.7889 46.5 30.7708 46.5C30.7526 46.5 30.7345 46.5 30.7162 46.5C30.698 46.5 30.6797 46.5 30.6614 46.5C30.6431 46.5 30.6247 46.5 30.6063 46.5C30.5878 46.5 30.5694 46.5 30.5508 46.5C30.5323 46.5 30.5137 46.5 30.4951 46.5C30.4765 46.5 30.4578 46.5 30.4391 46.5C30.4203 46.5 30.4016 46.5 30.3827 46.5C30.3639 46.5 30.345 46.5 30.3261 46.5C30.3072 46.5 30.2882 46.5 30.2692 46.5C30.2502 46.5 30.2311 46.5 30.212 46.5C30.1929 46.5 30.1737 46.5 30.1545 46.5C30.1353 46.5 30.1161 46.5 30.0968 46.5C30.0775 46.5 30.0581 46.5 30.0387 46.5C30.0193 46.5 29.9999 46.5 29.9804 46.5C29.9609 46.5 29.9414 46.5 29.9218 46.5C29.9022 46.5 29.8826 46.5 29.8629 46.5C29.8432 46.5 29.8235 46.5 29.8038 46.5C29.784 46.5 29.7642 46.5 29.7443 46.5C29.7245 46.5 29.7046 46.5 29.6847 46.5C29.6647 46.5 29.6447 46.5 29.6247 46.5C29.6047 46.5 29.5846 46.5 29.5645 46.5C29.5444 46.5 29.5242 46.5 29.504 46.5C29.4838 46.5 29.4636 46.5 29.4433 46.5C29.423 46.5 29.4026 46.5 29.3823 46.5C29.3619 46.5 29.3415 46.5 29.321 46.5C29.3006 46.5 29.2801 46.5 29.2595 46.5C29.239 46.5 29.2184 46.5 29.1977 46.5C29.1771 46.5 29.1565 46.5 29.1357 46.5C29.115 46.5 29.0943 46.5 29.0735 46.5C29.0527 46.5 29.0319 46.5 29.011 46.5C28.9901 46.5 28.9692 46.5 28.9482 46.5C28.9273 46.5 28.9063 46.5 28.8853 46.5C28.8642 46.5 28.8432 46.5 28.822 46.5C28.8009 46.5 28.7798 46.5 28.7586 46.5C28.7374 46.5 28.7162 46.5 28.6949 46.5C28.6736 46.5 28.6523 46.5 28.631 46.5C28.6096 46.5 28.5882 46.5 28.5668 46.5C28.5454 46.5 28.5239 46.5 28.5024 46.5C28.4809 46.5 28.4594 46.5 28.4378 46.5C28.4162 46.5 28.3946 46.5 28.373 46.5C28.3513 46.5 28.3297 46.5 28.3079 46.5C28.2862 46.5 28.2645 46.5 28.2427 46.5C28.2209 46.5 28.199 46.5 28.1772 46.5C28.1553 46.5 28.1334 46.5 28.1115 46.5C28.0895 46.5 28.0676 46.5 28.0456 46.5C28.0235 46.5 28.0015 46.5 27.9794 46.5C27.9573 46.5 27.9352 46.5 27.9131 46.5C27.8909 46.5 27.8688 46.5 27.8465 46.5C27.8243 46.5 27.8021 46.5 27.7798 46.5C27.7575 46.5 27.7352 46.5 27.7128 46.5C27.6905 46.5 27.6681 46.5 27.6457 46.5C27.6233 46.5 27.6008 46.5 27.5784 46.5C27.5559 46.5 27.5334 46.5 27.5108 46.5C27.4883 46.5 27.4657 46.5 27.4431 46.5C27.4205 46.5 27.3978 46.5 27.3751 46.5C27.3525 46.5 27.3298 46.5 27.307 46.5C27.2843 46.5 27.2615 46.5 27.2387 46.5C27.2159 46.5 27.1931 46.5 27.1702 46.5C27.1474 46.5 27.1245 46.5 27.1015 46.5C27.0786 46.5 27.0557 46.5 27.0327 46.5C27.0097 46.5 26.9867 46.5 26.9637 46.5C26.9406 46.5 26.9175 46.5 26.8944 46.5C26.8713 46.5 26.8482 46.5 26.8251 46.5C26.8019 46.5 26.7787 46.5 26.7555 46.5C26.7323 46.5 26.709 46.5 26.6858 46.5C26.6625 46.5 26.6392 46.5 26.6159 46.5C26.5926 46.5 26.5692 46.5 26.5458 46.5C26.5224 46.5 26.499 46.5 26.4756 46.5C26.4522 46.5 26.4287 46.5 26.4052 46.5C26.3817 46.5 26.3582 46.5 26.3347 46.5C26.3111 46.5 26.2875 46.5 26.264 46.5C26.2404 46.5 26.2167 46.5 26.1931 46.5C26.1695 46.5 26.1458 46.5 26.1221 46.5C26.0984 46.5 26.0747 46.5 26.0509 46.5C26.0272 46.5 26.0034 46.5 25.9796 46.5C25.9558 46.5 25.932 46.5 25.9081 46.5C25.8843 46.5 25.8604 46.5 25.8365 46.5C25.8127 46.5 25.7887 46.5 25.7648 46.5C25.7409 46.5 25.7169 46.5 25.6929 46.5C25.6689 46.5 25.6449 46.5 25.6209 46.5C25.5969 46.5 25.5728 46.5 25.5487 46.5C25.5246 46.5 25.5005 46.5 25.4764 46.5C25.4523 46.5 25.4282 46.5 25.404 46.5C25.3798 46.5 25.3556 46.5 25.3314 46.5C25.3072 46.5 25.283 46.5 25.2588 46.5C25.2345 46.5 25.2102 46.5 25.1859 46.5C25.1617 46.5 25.1373 46.5 25.113 46.5C25.0887 46.5 25.0643 46.5 25.04 46.5C25.0156 46.5 24.9912 46.5 24.9668 46.5C24.9424 46.5 24.9179 46.5 24.8935 46.5C24.869 46.5 24.8446 46.5 24.8201 46.5C24.7956 46.5 24.7711 46.5 24.7466 46.5C24.722 46.5 24.6975 46.5 24.6729 46.5C24.6484 46.5 24.6238 46.5 24.5992 46.5C24.5746 46.5 24.55 46.5 24.5254 46.5C24.5007 46.5 24.4761 46.5 24.4514 46.5C24.4267 46.5 24.4021 46.5 24.3774 46.5C24.3527 46.5 24.3279 46.5 24.3032 46.5C24.2785 46.5 24.2537 46.5 24.229 46.5C24.2042 46.5 24.1794 46.5 24.1546 46.5C24.1298 46.5 24.105 46.5 24.0802 46.5C24.0554 46.5 24.0305 46.5 24.0057 46.5C23.9808 46.5 23.9559 46.5 23.931 46.5C23.9062 46.5 23.8813 46.5 23.8563 46.5C23.8314 46.5 23.8065 46.5 23.7816 46.5C23.7566 46.5 23.7317 46.5 23.7067 46.5C23.6817 46.5 23.6567 46.5 23.6317 46.5C23.6067 46.5 23.5817 46.5 23.5567 46.5C23.5317 46.5 23.5066 46.5 23.4816 46.5C23.4566 46.5 23.4315 46.5 23.4064 46.5C23.3813 46.5 23.3563 46.5 23.3312 46.5C23.3061 46.5 23.281 46.5 23.2558 46.5C23.2307 46.5 23.2056 46.5 23.1805 46.5C23.1553 46.5 23.1302 46.5 23.105 46.5C23.0798 46.5 23.0547 46.5 23.0295 46.5C23.0043 46.5 22.9791 46.5 22.9539 46.5C22.9287 46.5 22.9035 46.5 22.8783 46.5C22.853 46.5 22.8278 46.5 22.8026 46.5C22.7773 46.5 22.7521 46.5 22.7268 46.5C22.7015 46.5 22.6763 46.5 22.651 46.5C22.6257 46.5 22.6004 46.5 22.5751 46.5C22.5498 46.5 22.5245 46.5 22.4992 46.5C22.4739 46.5 22.4486 46.5 22.4233 46.5C22.398 46.5 22.3726 46.5 22.3473 46.5C22.3219 46.5 22.2966 46.5 22.2712 46.5C22.2459 46.5 22.2205 46.5 22.1952 46.5C22.1698 46.5 22.1444 46.5 22.1191 46.5C22.0937 46.5 22.0683 46.5 22.0429 46.5C22.0175 46.5 21.9921 46.5 21.9667 46.5C21.9413 46.5 21.9159 46.5 21.8905 46.5C21.8651 46.5 21.8397 46.5 21.8143 46.5C21.7888 46.5 21.7634 46.5 21.738 46.5C21.7126 46.5 21.6871 46.5 21.6617 46.5C21.6362 46.5 21.6108 46.5 21.5854 46.5C21.5599 46.5 21.5345 46.5 21.509 46.5C21.4836 46.5 21.4581 46.5 21.4327 46.5C21.4072 46.5 21.3817 46.5 21.3563 46.5C21.3308 46.5 21.3053 46.5 21.2799 46.5C21.2544 46.5 21.2289 46.5 21.2035 46.5C21.178 46.5 21.1525 46.5 21.1271 46.5C21.1016 46.5 21.0761 46.5 21.0506 46.5C21.0252 46.5 20.9997 46.5 20.9742 46.5C20.9487 46.5 20.9233 46.5 20.8978 46.5C20.8723 46.5 20.8468 46.5 20.8213 46.5C20.7959 46.5 20.7704 46.5 20.7449 46.5C20.7194 46.5 20.6939 46.5 20.6685 46.5C20.643 46.5 20.6175 46.5 20.592 46.5C20.5666 46.5 20.5411 46.5 20.5156 46.5C20.4902 46.5 20.4647 46.5 20.4392 46.5C20.4137 46.5 20.3883 46.5 20.3628 46.5C20.3373 46.5 20.3119 46.5 20.2864 46.5C20.261 46.5 20.2355 46.5 20.2101 46.5C20.1846 46.5 20.1591 46.5 20.1337 46.5C20.1083 46.5 20.0828 46.5 20.0574 46.5C20.0319 46.5 20.0065 46.5 19.9811 46.5C19.9556 46.5 19.9302 46.5 19.9048 46.5C19.8793 46.5 19.8539 46.5 19.8285 46.5C19.8031 46.5 19.7777 46.5 19.7523 46.5C19.7269 46.5 19.7015 46.5 19.6761 46.5C19.6507 46.5 19.6253 46.5 19.5999 46.5C19.5745 46.5 19.5491 46.5 19.5238 46.5C19.4984 46.5 19.473 46.5 19.4476 46.5C19.4223 46.5 19.3969 46.5 19.3716 46.5C19.3462 46.5 19.3209 46.5 19.2956 46.5C19.2702 46.5 19.2449 46.5 19.2196 46.5C19.1943 46.5 19.169 46.5 19.1437 46.5C19.1184 46.5 19.0931 46.5 19.0678 46.5C19.0425 46.5 19.0172 46.5 18.9919 46.5C18.9667 46.5 18.9414 46.5 18.9162 46.5C18.8909 46.5 18.8657 46.5 18.8404 46.5C18.8152 46.5 18.79 46.5 18.7647 46.5C18.7395 46.5 18.7143 46.5 18.6891 46.5C18.6639 46.5 18.6388 46.5 18.6136 46.5C18.5884 46.5 18.5632 46.5 18.5381 46.5C18.5129 46.5 18.4878 46.5 18.4627 46.5C18.4375 46.5 18.4124 46.5 18.3873 46.5C18.3622 46.5 18.3371 46.5 18.312 46.5C18.2869 46.5 18.2618 46.5 18.2368 46.5C18.2117 46.5 18.1867 46.5 18.1616 46.5C18.1366 46.5 18.1116 46.5 18.0865 46.5C18.0615 46.5 18.0365 46.5 18.0115 46.5C17.9866 46.5 17.9616 46.5 17.9366 46.5C17.9117 46.5 17.8867 46.5 17.8618 46.5C17.8369 46.5 17.8119 46.5 17.787 46.5C17.7621 46.5 17.7372 46.5 17.7124 46.5C17.6875 46.5 17.6626 46.5 17.6378 46.5C17.6129 46.5 17.5881 46.5 17.5633 46.5C17.5385 46.5 17.5137 46.5 17.4889 46.5C17.4641 46.5 17.4394 46.5 17.4146 46.5C17.3899 46.5 17.3651 46.5 17.3404 46.5C17.3157 46.5 17.291 46.5 17.2663 46.5C17.2416 46.5 17.2169 46.5 17.1923 46.5C17.1676 46.5 17.143 46.5 17.1184 46.5C17.0938 46.5 17.0692 46.5 17.0446 46.5C17.02 46.5 16.9954 46.5 16.9709 46.5C16.9463 46.5 16.9218 46.5 16.8973 46.5C16.8728 46.5 16.8483 46.5 16.8238 46.5C16.7994 46.5 16.7749 46.5 16.7505 46.5C16.726 46.5 16.7016 46.5 16.6772 46.5C16.6528 46.5 16.6285 46.5 16.6041 46.5C16.5798 46.5 16.5554 46.5 16.5311 46.5C16.5068 46.5 16.4825 46.5 16.4582 46.5C16.4339 46.5 16.4097 46.5 16.3855 46.5C16.3612 46.5 16.337 46.5 16.3128 46.5C16.2886 46.5 16.2645 46.5 16.2403 46.5C16.2162 46.5 16.1921 46.5 16.168 46.5C16.1439 46.5 16.1198 46.5 16.0957 46.5C16.0717 46.5 16.0476 46.5 16.0236 46.5C15.9996 46.5 15.9756 46.5 15.9516 46.5C15.9277 46.5 15.9037 46.5 15.8798 46.5C15.8559 46.5 15.832 46.5 15.8081 46.5C15.7843 46.5 15.7604 46.5 15.7366 46.5C15.7128 46.5 15.689 46.5 15.6652 46.5C15.6414 46.5 15.6177 46.5 15.5939 46.5C15.5702 46.5 15.5465 46.5 15.5228 46.5C15.4992 46.5 15.4755 46.5 15.4519 46.5C15.4283 46.5 15.4047 46.5 15.3811 46.5C15.3575 46.5 15.334 46.5 15.3104 46.5C15.2869 46.5 15.2634 46.5 15.24 46.5C15.2165 46.5 15.1931 46.5 15.1696 46.5C15.1462 46.5 15.1228 46.5 15.0995 46.5C15.0761 46.5 15.0528 46.5 15.0295 46.5C15.0062 46.5 14.9829 46.5 14.9597 46.5C14.9364 46.5 14.9132 46.5 14.89 46.5C14.8668 46.5 14.8437 46.5 14.8205 46.5C14.7974 46.5 14.7743 46.5 14.7512 46.5C14.7281 46.5 14.7051 46.5 14.6821 46.5C14.6591 46.5 14.6361 46.5 14.6131 46.5C14.5901 46.5 14.5672 46.5 14.5443 46.5C14.5214 46.5 14.4986 46.5 14.4757 46.5C14.4529 46.5 14.4301 46.5 14.4073 46.5C14.3845 46.5 14.3618 46.5 14.3391 46.5C14.3164 46.5 14.2937 46.5 14.271 46.5C14.2484 46.5 14.2258 46.5 14.2032 46.5C14.1806 46.5 14.1581 46.5 14.1355 46.5C14.113 46.5 14.0905 46.5 14.0681 46.5C14.0456 46.5 14.0232 46.5 14.0008 46.5C13.9784 46.5 13.9561 46.5 13.9337 46.5C13.9114 46.5 13.8891 46.5 13.8669 46.5C13.8446 46.5 13.8224 46.5 13.8002 46.5C13.778 46.5 13.7559 46.5 13.7338 46.5C13.7116 46.5 13.6896 46.5 13.6675 46.5C13.6455 46.5 13.6234 46.5 13.6015 46.5C13.5795 46.5 13.5575 46.5 13.5356 46.5C13.5137 46.5 13.4919 46.5 13.47 46.5C13.4482 46.5 13.4264 46.5 13.4046 46.5C13.3829 46.5 13.3611 46.5 13.3394 46.5C13.3177 46.5 13.2961 46.5 13.2745 46.5C13.2529 46.5 13.2313 46.5 13.2097 46.5C13.1882 46.5 13.1667 46.5 13.1452 46.5C13.1238 46.5 13.1023 46.5 13.0809 46.5C13.0595 46.5 13.0382 46.5 13.0169 46.5C12.9956 46.5 12.9743 46.5 12.953 46.5C12.9318 46.5 12.9106 46.5 12.8894 46.5C12.8683 46.5 12.8472 46.5 12.8261 46.5C12.805 46.5 12.784 46.5 12.763 46.5C12.742 46.5 12.721 46.5 12.7001 46.5C12.6792 46.5 12.6583 46.5 12.6374 46.5C12.6166 46.5 12.5958 46.5 12.575 46.5C12.5543 46.5 12.5336 46.5 12.5129 46.5C12.4922 46.5 12.4716 46.5 12.451 46.5C12.4304 46.5 12.4098 46.5 12.3893 46.5C12.3688 46.5 12.3484 46.5 12.3279 46.5C12.3075 46.5 12.2871 46.5 12.2668 46.5C12.2464 46.5 12.2261 46.5 12.2059 46.5C12.1856 46.5 12.1654 46.5 12.1453 46.5C12.1251 46.5 12.105 46.5 12.0849 46.5C12.0648 46.5 12.0448 46.5 12.0248 46.5C12.0048 46.5 11.9848 46.5 11.9649 46.5C11.945 46.5 11.9252 46.5 11.9054 46.5C11.8855 46.5 11.8658 46.5 11.846 46.5C11.8263 46.5 11.8066 46.5 11.787 46.5C11.7674 46.5 11.7478 46.5 11.7283 46.5C11.7087 46.5 11.6892 46.5 11.6698 46.5C11.6503 46.5 11.6309 46.5 11.6116 46.5C11.5922 46.5 11.5729 46.5 11.5536 46.5C11.5344 46.5 11.5151 46.5 11.496 46.5C11.4768 46.5 11.4577 46.5 11.4386 46.5C11.4195 46.5 11.4005 46.5 11.3815 46.5C11.3626 46.5 11.3436 46.5 11.3247 46.5C11.3059 46.5 11.287 46.5 11.2683 46.5C11.2495 46.5 11.2307 46.5 11.212 46.5C11.1934 46.5 11.1747 46.5 11.1561 46.5C11.1376 46.5 11.119 46.5 11.1005 46.5C11.082 46.5 11.0636 46.5 11.0452 46.5C11.0268 46.5 11.0085 46.5 10.9902 46.5C10.9719 46.5 10.9537 46.5 10.9355 46.5C10.9173 46.5 10.8992 46.5 10.8811 46.5C10.863 46.5 10.845 46.5 10.827 46.5C10.809 46.5 10.7911 46.5 10.7732 46.5C10.7553 46.5 10.7375 46.5 10.7197 46.5C10.702 46.5 10.6842 46.5 10.6666 46.5C10.6489 46.5 10.6313 46.5 10.6137 46.5C10.5962 46.5 10.5787 46.5 10.5612 46.5C10.5437 46.5 10.5263 46.5 10.509 46.5C10.4917 46.5 10.4744 46.5 10.4571 46.5C10.4399 46.5 10.4227 46.5 10.4056 46.5C10.3884 46.5 10.3714 46.5 10.3543 46.5C10.3373 46.5 10.3203 46.5 10.3034 46.5C10.2865 46.5 10.2697 46.5 10.2529 46.5C10.2361 46.5 10.2193 46.5 10.2026 46.5C10.1859 46.5 10.1693 46.5 10.1527 46.5C10.1361 46.5 10.1196 46.5 10.1032 46.5C10.0867 46.5 10.0703 46.5 10.0539 46.5C10.0376 46.5 10.0213 46.5 10.005 46.5C9.98881 46.5 9.97263 46.5 9.95651 46.5C9.94039 46.5 9.92432 46.5 9.90832 46.5C9.89231 46.5 9.87636 46.5 9.86047 46.5C9.84458 46.5 9.82875 46.5 9.81298 46.5C9.79721 46.5 9.78149 46.5 9.76584 46.5C9.75018 46.5 9.73459 46.5 9.71905 46.5C9.70351 46.5 9.68804 46.5 9.67262 46.5C9.6572 46.5 9.64185 46.5 9.62655 46.5C9.61125 46.5 9.59602 46.5 9.58084 46.5C9.56566 46.5 9.55055 46.5 9.53549 46.5C9.52044 46.5 9.50544 46.5 9.49051 46.5C9.47558 46.5 9.46071 46.5 9.4459 46.5C9.43109 46.5 9.41634 46.5 9.40165 46.5C9.38697 46.5 9.37234 46.5 9.35778 46.5C9.34322 46.5 9.32872 46.5 9.31428 46.5C9.29984 46.5 9.28547 46.5 9.27116 46.5C9.25685 46.5 9.2426 46.5 9.22841 46.5C9.21423 46.5 9.20011 46.5 9.18605 46.5C9.17199 46.5 9.158 46.5 9.14407 46.5C9.13013 46.5 9.11627 46.5 9.10247 46.5C9.08867 46.5 9.07493 46.5 9.06126 46.5C9.04758 46.5 9.03398 46.5 9.02043 46.5C9.00689 46.5 8.99341 46.5 8.98 46.5C8.96659 46.5 8.95324 46.5 8.93996 46.5C8.92668 46.5 8.91347 46.5 8.90032 46.5C8.88717 46.5 8.87409 46.5 8.86107 46.5C8.84806 46.5 8.83511 46.5 8.82223 46.5C8.80935 46.5 8.79653 46.5 8.78378 46.5C8.77103 46.5 8.75835 46.5 8.74574 46.5C8.73313 46.5 8.72058 46.5 8.70811 46.5C8.69563 46.5 8.68322 46.5 8.67088 46.5C8.65854 46.5 8.64626 46.5 8.63406 46.5C8.62186 46.5 8.60972 46.5 8.59766 46.5C8.58559 46.5 8.57359 46.5 8.56166 46.5C8.54974 46.5 8.53788 46.5 8.52609 46.5C8.5143 46.5 8.50258 46.5 8.49093 46.5C8.47929 46.5 8.46771 46.5 8.4562 46.5C8.44469 46.5 8.43325 46.5 8.42189 46.5C8.41052 46.5 8.39922 46.5 8.388 46.5C8.37678 46.5 8.36562 46.5 8.35454 46.5C8.34346 46.5 8.33245 46.5 8.32151 46.5C8.31057 46.5 8.29971 46.5 8.28891 46.5C8.27812 46.5 8.26739 46.5 8.25675 46.5C8.2461 46.5 8.23552 46.5 8.22502 46.5C8.21451 46.5 8.20408 46.5 8.19372 46.5C8.18337 46.5 8.17308 46.5 8.16287 46.5C8.15266 46.5 8.14252 46.5 8.13246 46.5C8.1224 46.5 8.11241 46.5 8.1025 46.5C8.09258 46.5 8.08274 46.5 8.07298 46.5C8.06321 46.5 8.05352 46.5 8.04391 46.5C8.03429 46.5 8.02475 46.5 8.01529 46.5C8.00582 46.5 7.99643 46.5 7.98712 46.5C7.97781 46.5 7.96857 46.5 7.95941 46.5C7.95024 46.5 7.94116 46.5 7.93215 46.5C7.92314 46.5 7.91421 46.5 7.90535 46.5C7.8965 46.5 7.88772 46.5 7.87902 46.5C7.87032 46.5 7.86169 46.5 7.85315 46.5C7.8446 46.5 7.83613 46.5 7.82774 46.5C7.81935 46.5 7.81104 46.5 7.8028 46.5C7.79457 46.5 7.78641 46.5 7.77834 46.5C7.77026 46.5 7.76226 46.5 7.75434 46.5C7.74642 46.5 7.73858 46.5 7.73082 46.5C7.72306 46.5 7.71537 46.5 7.70777 46.5C7.70017 46.5 7.69265 46.5 7.6852 46.5C7.67776 46.5 7.6704 46.5 7.66312 46.5C7.65583 46.5 7.64863 46.5 7.64151 46.5C7.63439 46.5 7.62735 46.5 7.62039 46.5C7.61343 46.5 7.60656 46.5 7.59976 46.5C7.59296 46.5 7.58625 46.5 7.57962 46.5C7.57298 46.5 7.56643 46.5 7.55996 46.5C7.5535 46.5 7.54711 46.5 7.5408 46.5C7.5345 46.5 7.52828 46.5 7.52214 46.5C7.516 46.5 7.50995 46.5 7.50398 46.5C7.498 46.5 7.49211 46.5 7.48631 46.5C7.4805 46.5 7.47478 46.5 7.46914 46.5C7.46351 46.5 7.45795 46.5 7.45248 46.5C7.44701 46.5 7.44163 46.5 7.43633 46.5C7.43103 46.5 7.42581 46.5 7.42068 46.5C7.41555 46.5 7.41051 46.5 7.40555 46.5C7.40059 46.5 7.39571 46.5 7.39092 46.5C7.38613 46.5 7.38143 46.5 7.37681 46.5C7.3722 46.5 7.36767 46.5 7.36322 46.5C7.35878 46.5 7.35442 46.5 7.35015 46.5C7.34588 46.5 7.3417 46.5 7.3376 46.5C7.3335 46.5 7.32949 46.5 7.32557 46.5C7.32165 46.5 7.31781 46.5 7.31407 46.5C7.31032 46.5 7.30666 46.5 7.30309 46.5C7.29952 46.5 7.29604 46.5 7.29264 46.5C7.28925 46.5 7.28595 46.5 7.28273 46.5C7.27951 46.5 7.27639 46.5 7.27335 46.5C7.27031 46.5 7.26736 46.5 7.2645 46.5C7.26164 46.5 7.25888 46.5 7.2562 46.5C7.25352 46.5 7.25093 46.5 7.24843 46.5C7.24593 46.5 7.24352 46.5 7.24121 46.5C7.23889 46.5 7.23666 46.5 7.23453 46.5C7.23239 46.5 7.23035 46.5 7.22839 46.5C7.22644 46.5 7.22458 46.5 7.22281 46.5C7.22104 46.5 7.21936 46.5 7.21778 46.5V48.5C7.21936 48.5 7.22104 48.5 7.22281 48.5C7.22458 48.5 7.22644 48.5 7.22839 48.5C7.23035 48.5 7.23239 48.5 7.23453 48.5C7.23666 48.5 7.23889 48.5 7.24121 48.5C7.24352 48.5 7.24593 48.5 7.24843 48.5C7.25093 48.5 7.25352 48.5 7.2562 48.5C7.25888 48.5 7.26164 48.5 7.2645 48.5C7.26736 48.5 7.27031 48.5 7.27335 48.5C7.27639 48.5 7.27951 48.5 7.28273 48.5C7.28595 48.5 7.28925 48.5 7.29264 48.5C7.29604 48.5 7.29952 48.5 7.30309 48.5C7.30666 48.5 7.31032 48.5 7.31407 48.5C7.31781 48.5 7.32165 48.5 7.32557 48.5C7.32949 48.5 7.3335 48.5 7.3376 48.5C7.3417 48.5 7.34588 48.5 7.35015 48.5C7.35442 48.5 7.35878 48.5 7.36322 48.5C7.36767 48.5 7.3722 48.5 7.37681 48.5C7.38143 48.5 7.38613 48.5 7.39092 48.5C7.39571 48.5 7.40059 48.5 7.40555 48.5C7.41051 48.5 7.41555 48.5 7.42068 48.5C7.42581 48.5 7.43103 48.5 7.43633 48.5C7.44163 48.5 7.44701 48.5 7.45248 48.5C7.45795 48.5 7.46351 48.5 7.46914 48.5C7.47478 48.5 7.4805 48.5 7.48631 48.5C7.49211 48.5 7.498 48.5 7.50398 48.5C7.50995 48.5 7.516 48.5 7.52214 48.5C7.52828 48.5 7.5345 48.5 7.5408 48.5C7.54711 48.5 7.5535 48.5 7.55996 48.5C7.56643 48.5 7.57298 48.5 7.57962 48.5C7.58625 48.5 7.59296 48.5 7.59976 48.5C7.60656 48.5 7.61343 48.5 7.62039 48.5C7.62735 48.5 7.63439 48.5 7.64151 48.5C7.64863 48.5 7.65583 48.5 7.66312 48.5C7.6704 48.5 7.67776 48.5 7.6852 48.5C7.69265 48.5 7.70017 48.5 7.70777 48.5C7.71537 48.5 7.72306 48.5 7.73082 48.5C7.73858 48.5 7.74642 48.5 7.75434 48.5C7.76226 48.5 7.77026 48.5 7.77834 48.5C7.78641 48.5 7.79457 48.5 7.8028 48.5C7.81104 48.5 7.81935 48.5 7.82774 48.5C7.83613 48.5 7.8446 48.5 7.85315 48.5C7.86169 48.5 7.87032 48.5 7.87902 48.5C7.88772 48.5 7.8965 48.5 7.90535 48.5C7.91421 48.5 7.92314 48.5 7.93215 48.5C7.94116 48.5 7.95024 48.5 7.95941 48.5C7.96857 48.5 7.97781 48.5 7.98712 48.5C7.99643 48.5 8.00582 48.5 8.01529 48.5C8.02475 48.5 8.03429 48.5 8.04391 48.5C8.05352 48.5 8.06321 48.5 8.07298 48.5C8.08274 48.5 8.09258 48.5 8.1025 48.5C8.11241 48.5 8.1224 48.5 8.13246 48.5C8.14252 48.5 8.15266 48.5 8.16287 48.5C8.17308 48.5 8.18337 48.5 8.19372 48.5C8.20408 48.5 8.21451 48.5 8.22502 48.5C8.23552 48.5 8.2461 48.5 8.25675 48.5C8.26739 48.5 8.27812 48.5 8.28891 48.5C8.29971 48.5 8.31057 48.5 8.32151 48.5C8.33245 48.5 8.34346 48.5 8.35454 48.5C8.36562 48.5 8.37678 48.5 8.388 48.5C8.39922 48.5 8.41052 48.5 8.42189 48.5C8.43325 48.5 8.44469 48.5 8.4562 48.5C8.46771 48.5 8.47929 48.5 8.49093 48.5C8.50258 48.5 8.5143 48.5 8.52609 48.5C8.53788 48.5 8.54974 48.5 8.56166 48.5C8.57359 48.5 8.58559 48.5 8.59766 48.5C8.60972 48.5 8.62186 48.5 8.63406 48.5C8.64626 48.5 8.65854 48.5 8.67088 48.5C8.68322 48.5 8.69563 48.5 8.70811 48.5C8.72058 48.5 8.73313 48.5 8.74574 48.5C8.75835 48.5 8.77103 48.5 8.78378 48.5C8.79653 48.5 8.80935 48.5 8.82223 48.5C8.83511 48.5 8.84806 48.5 8.86107 48.5C8.87409 48.5 8.88717 48.5 8.90032 48.5C8.91347 48.5 8.92668 48.5 8.93996 48.5C8.95324 48.5 8.96659 48.5 8.98 48.5C8.99341 48.5 9.00689 48.5 9.02043 48.5C9.03398 48.5 9.04758 48.5 9.06126 48.5C9.07493 48.5 9.08867 48.5 9.10247 48.5C9.11627 48.5 9.13013 48.5 9.14407 48.5C9.158 48.5 9.17199 48.5 9.18605 48.5C9.20011 48.5 9.21423 48.5 9.22841 48.5C9.2426 48.5 9.25685 48.5 9.27116 48.5C9.28547 48.5 9.29984 48.5 9.31428 48.5C9.32872 48.5 9.34322 48.5 9.35778 48.5C9.37234 48.5 9.38697 48.5 9.40165 48.5C9.41634 48.5 9.43109 48.5 9.4459 48.5C9.46071 48.5 9.47558 48.5 9.49051 48.5C9.50544 48.5 9.52044 48.5 9.53549 48.5C9.55055 48.5 9.56566 48.5 9.58084 48.5C9.59602 48.5 9.61125 48.5 9.62655 48.5C9.64185 48.5 9.6572 48.5 9.67262 48.5C9.68804 48.5 9.70351 48.5 9.71905 48.5C9.73459 48.5 9.75018 48.5 9.76584 48.5C9.78149 48.5 9.79721 48.5 9.81298 48.5C9.82875 48.5 9.84458 48.5 9.86047 48.5C9.87636 48.5 9.89231 48.5 9.90832 48.5C9.92432 48.5 9.94039 48.5 9.95651 48.5C9.97263 48.5 9.98881 48.5 10.005 48.5C10.0213 48.5 10.0376 48.5 10.0539 48.5C10.0703 48.5 10.0867 48.5 10.1032 48.5C10.1196 48.5 10.1361 48.5 10.1527 48.5C10.1693 48.5 10.1859 48.5 10.2026 48.5C10.2193 48.5 10.2361 48.5 10.2529 48.5C10.2697 48.5 10.2865 48.5 10.3034 48.5C10.3203 48.5 10.3373 48.5 10.3543 48.5C10.3714 48.5 10.3884 48.5 10.4056 48.5C10.4227 48.5 10.4399 48.5 10.4571 48.5C10.4744 48.5 10.4917 48.5 10.509 48.5C10.5263 48.5 10.5437 48.5 10.5612 48.5C10.5787 48.5 10.5962 48.5 10.6137 48.5C10.6313 48.5 10.6489 48.5 10.6666 48.5C10.6842 48.5 10.702 48.5 10.7197 48.5C10.7375 48.5 10.7553 48.5 10.7732 48.5C10.7911 48.5 10.809 48.5 10.827 48.5C10.845 48.5 10.863 48.5 10.8811 48.5C10.8992 48.5 10.9173 48.5 10.9355 48.5C10.9537 48.5 10.9719 48.5 10.9902 48.5C11.0085 48.5 11.0268 48.5 11.0452 48.5C11.0636 48.5 11.082 48.5 11.1005 48.5C11.119 48.5 11.1376 48.5 11.1561 48.5C11.1747 48.5 11.1934 48.5 11.212 48.5C11.2307 48.5 11.2495 48.5 11.2683 48.5C11.287 48.5 11.3059 48.5 11.3247 48.5C11.3436 48.5 11.3626 48.5 11.3815 48.5C11.4005 48.5 11.4195 48.5 11.4386 48.5C11.4577 48.5 11.4768 48.5 11.496 48.5C11.5151 48.5 11.5344 48.5 11.5536 48.5C11.5729 48.5 11.5922 48.5 11.6116 48.5C11.6309 48.5 11.6503 48.5 11.6698 48.5C11.6892 48.5 11.7087 48.5 11.7283 48.5C11.7478 48.5 11.7674 48.5 11.787 48.5C11.8066 48.5 11.8263 48.5 11.846 48.5C11.8658 48.5 11.8855 48.5 11.9054 48.5C11.9252 48.5 11.945 48.5 11.9649 48.5C11.9848 48.5 12.0048 48.5 12.0248 48.5C12.0448 48.5 12.0648 48.5 12.0849 48.5C12.105 48.5 12.1251 48.5 12.1453 48.5C12.1654 48.5 12.1856 48.5 12.2059 48.5C12.2261 48.5 12.2464 48.5 12.2668 48.5C12.2871 48.5 12.3075 48.5 12.3279 48.5C12.3484 48.5 12.3688 48.5 12.3893 48.5C12.4098 48.5 12.4304 48.5 12.451 48.5C12.4716 48.5 12.4922 48.5 12.5129 48.5C12.5336 48.5 12.5543 48.5 12.575 48.5C12.5958 48.5 12.6166 48.5 12.6374 48.5C12.6583 48.5 12.6792 48.5 12.7001 48.5C12.721 48.5 12.742 48.5 12.763 48.5C12.784 48.5 12.805 48.5 12.8261 48.5C12.8472 48.5 12.8683 48.5 12.8894 48.5C12.9106 48.5 12.9318 48.5 12.953 48.5C12.9743 48.5 12.9956 48.5 13.0169 48.5C13.0382 48.5 13.0595 48.5 13.0809 48.5C13.1023 48.5 13.1238 48.5 13.1452 48.5C13.1667 48.5 13.1882 48.5 13.2097 48.5C13.2313 48.5 13.2529 48.5 13.2745 48.5C13.2961 48.5 13.3177 48.5 13.3394 48.5C13.3611 48.5 13.3829 48.5 13.4046 48.5C13.4264 48.5 13.4482 48.5 13.47 48.5C13.4919 48.5 13.5137 48.5 13.5356 48.5C13.5575 48.5 13.5795 48.5 13.6015 48.5C13.6234 48.5 13.6455 48.5 13.6675 48.5C13.6896 48.5 13.7116 48.5 13.7338 48.5C13.7559 48.5 13.778 48.5 13.8002 48.5C13.8224 48.5 13.8446 48.5 13.8669 48.5C13.8891 48.5 13.9114 48.5 13.9337 48.5C13.9561 48.5 13.9784 48.5 14.0008 48.5C14.0232 48.5 14.0456 48.5 14.0681 48.5C14.0905 48.5 14.113 48.5 14.1355 48.5C14.1581 48.5 14.1806 48.5 14.2032 48.5C14.2258 48.5 14.2484 48.5 14.271 48.5C14.2937 48.5 14.3164 48.5 14.3391 48.5C14.3618 48.5 14.3845 48.5 14.4073 48.5C14.4301 48.5 14.4529 48.5 14.4757 48.5C14.4986 48.5 14.5214 48.5 14.5443 48.5C14.5672 48.5 14.5901 48.5 14.6131 48.5C14.6361 48.5 14.6591 48.5 14.6821 48.5C14.7051 48.5 14.7281 48.5 14.7512 48.5C14.7743 48.5 14.7974 48.5 14.8205 48.5C14.8437 48.5 14.8668 48.5 14.89 48.5C14.9132 48.5 14.9364 48.5 14.9597 48.5C14.9829 48.5 15.0062 48.5 15.0295 48.5C15.0528 48.5 15.0761 48.5 15.0995 48.5C15.1228 48.5 15.1462 48.5 15.1696 48.5C15.1931 48.5 15.2165 48.5 15.24 48.5C15.2634 48.5 15.2869 48.5 15.3104 48.5C15.334 48.5 15.3575 48.5 15.3811 48.5C15.4047 48.5 15.4283 48.5 15.4519 48.5C15.4755 48.5 15.4992 48.5 15.5228 48.5C15.5465 48.5 15.5702 48.5 15.5939 48.5C15.6177 48.5 15.6414 48.5 15.6652 48.5C15.689 48.5 15.7128 48.5 15.7366 48.5C15.7604 48.5 15.7843 48.5 15.8081 48.5C15.832 48.5 15.8559 48.5 15.8798 48.5C15.9037 48.5 15.9277 48.5 15.9516 48.5C15.9756 48.5 15.9996 48.5 16.0236 48.5C16.0476 48.5 16.0717 48.5 16.0957 48.5C16.1198 48.5 16.1439 48.5 16.168 48.5C16.1921 48.5 16.2162 48.5 16.2403 48.5C16.2645 48.5 16.2886 48.5 16.3128 48.5C16.337 48.5 16.3612 48.5 16.3855 48.5C16.4097 48.5 16.4339 48.5 16.4582 48.5C16.4825 48.5 16.5068 48.5 16.5311 48.5C16.5554 48.5 16.5798 48.5 16.6041 48.5C16.6285 48.5 16.6528 48.5 16.6772 48.5C16.7016 48.5 16.726 48.5 16.7505 48.5C16.7749 48.5 16.7994 48.5 16.8238 48.5C16.8483 48.5 16.8728 48.5 16.8973 48.5C16.9218 48.5 16.9463 48.5 16.9709 48.5C16.9954 48.5 17.02 48.5 17.0446 48.5C17.0692 48.5 17.0938 48.5 17.1184 48.5C17.143 48.5 17.1676 48.5 17.1923 48.5C17.2169 48.5 17.2416 48.5 17.2663 48.5C17.291 48.5 17.3157 48.5 17.3404 48.5C17.3651 48.5 17.3899 48.5 17.4146 48.5C17.4394 48.5 17.4641 48.5 17.4889 48.5C17.5137 48.5 17.5385 48.5 17.5633 48.5C17.5881 48.5 17.6129 48.5 17.6378 48.5C17.6626 48.5 17.6875 48.5 17.7124 48.5C17.7372 48.5 17.7621 48.5 17.787 48.5C17.8119 48.5 17.8369 48.5 17.8618 48.5C17.8867 48.5 17.9117 48.5 17.9366 48.5C17.9616 48.5 17.9866 48.5 18.0115 48.5C18.0365 48.5 18.0615 48.5 18.0865 48.5C18.1116 48.5 18.1366 48.5 18.1616 48.5C18.1867 48.5 18.2117 48.5 18.2368 48.5C18.2618 48.5 18.2869 48.5 18.312 48.5C18.3371 48.5 18.3622 48.5 18.3873 48.5C18.4124 48.5 18.4375 48.5 18.4627 48.5C18.4878 48.5 18.5129 48.5 18.5381 48.5C18.5632 48.5 18.5884 48.5 18.6136 48.5C18.6388 48.5 18.6639 48.5 18.6891 48.5C18.7143 48.5 18.7395 48.5 18.7647 48.5C18.79 48.5 18.8152 48.5 18.8404 48.5C18.8657 48.5 18.8909 48.5 18.9162 48.5C18.9414 48.5 18.9667 48.5 18.9919 48.5C19.0172 48.5 19.0425 48.5 19.0678 48.5C19.0931 48.5 19.1184 48.5 19.1437 48.5C19.169 48.5 19.1943 48.5 19.2196 48.5C19.2449 48.5 19.2702 48.5 19.2956 48.5C19.3209 48.5 19.3462 48.5 19.3716 48.5C19.3969 48.5 19.4223 48.5 19.4476 48.5C19.473 48.5 19.4984 48.5 19.5238 48.5C19.5491 48.5 19.5745 48.5 19.5999 48.5C19.6253 48.5 19.6507 48.5 19.6761 48.5C19.7015 48.5 19.7269 48.5 19.7523 48.5C19.7777 48.5 19.8031 48.5 19.8285 48.5C19.8539 48.5 19.8793 48.5 19.9048 48.5C19.9302 48.5 19.9556 48.5 19.9811 48.5C20.0065 48.5 20.0319 48.5 20.0574 48.5C20.0828 48.5 20.1083 48.5 20.1337 48.5C20.1591 48.5 20.1846 48.5 20.2101 48.5C20.2355 48.5 20.261 48.5 20.2864 48.5C20.3119 48.5 20.3373 48.5 20.3628 48.5C20.3883 48.5 20.4137 48.5 20.4392 48.5C20.4647 48.5 20.4902 48.5 20.5156 48.5C20.5411 48.5 20.5666 48.5 20.592 48.5C20.6175 48.5 20.643 48.5 20.6685 48.5C20.6939 48.5 20.7194 48.5 20.7449 48.5C20.7704 48.5 20.7959 48.5 20.8213 48.5C20.8468 48.5 20.8723 48.5 20.8978 48.5C20.9233 48.5 20.9487 48.5 20.9742 48.5C20.9997 48.5 21.0252 48.5 21.0506 48.5C21.0761 48.5 21.1016 48.5 21.1271 48.5C21.1525 48.5 21.178 48.5 21.2035 48.5C21.2289 48.5 21.2544 48.5 21.2799 48.5C21.3053 48.5 21.3308 48.5 21.3563 48.5C21.3817 48.5 21.4072 48.5 21.4327 48.5C21.4581 48.5 21.4836 48.5 21.509 48.5C21.5345 48.5 21.5599 48.5 21.5854 48.5C21.6108 48.5 21.6362 48.5 21.6617 48.5C21.6871 48.5 21.7126 48.5 21.738 48.5C21.7634 48.5 21.7888 48.5 21.8143 48.5C21.8397 48.5 21.8651 48.5 21.8905 48.5C21.9159 48.5 21.9413 48.5 21.9667 48.5C21.9921 48.5 22.0175 48.5 22.0429 48.5C22.0683 48.5 22.0937 48.5 22.1191 48.5C22.1444 48.5 22.1698 48.5 22.1952 48.5C22.2205 48.5 22.2459 48.5 22.2712 48.5C22.2966 48.5 22.3219 48.5 22.3473 48.5C22.3726 48.5 22.398 48.5 22.4233 48.5C22.4486 48.5 22.4739 48.5 22.4992 48.5C22.5245 48.5 22.5498 48.5 22.5751 48.5C22.6004 48.5 22.6257 48.5 22.651 48.5C22.6763 48.5 22.7015 48.5 22.7268 48.5C22.7521 48.5 22.7773 48.5 22.8026 48.5C22.8278 48.5 22.853 48.5 22.8783 48.5C22.9035 48.5 22.9287 48.5 22.9539 48.5C22.9791 48.5 23.0043 48.5 23.0295 48.5C23.0547 48.5 23.0798 48.5 23.105 48.5C23.1302 48.5 23.1553 48.5 23.1805 48.5C23.2056 48.5 23.2307 48.5 23.2558 48.5C23.281 48.5 23.3061 48.5 23.3312 48.5C23.3563 48.5 23.3813 48.5 23.4064 48.5C23.4315 48.5 23.4566 48.5 23.4816 48.5C23.5066 48.5 23.5317 48.5 23.5567 48.5C23.5817 48.5 23.6067 48.5 23.6317 48.5C23.6567 48.5 23.6817 48.5 23.7067 48.5C23.7317 48.5 23.7566 48.5 23.7816 48.5C23.8065 48.5 23.8314 48.5 23.8563 48.5C23.8813 48.5 23.9062 48.5 23.931 48.5C23.9559 48.5 23.9808 48.5 24.0057 48.5C24.0305 48.5 24.0554 48.5 24.0802 48.5C24.105 48.5 24.1298 48.5 24.1546 48.5C24.1794 48.5 24.2042 48.5 24.229 48.5C24.2537 48.5 24.2785 48.5 24.3032 48.5C24.3279 48.5 24.3527 48.5 24.3774 48.5C24.4021 48.5 24.4267 48.5 24.4514 48.5C24.4761 48.5 24.5007 48.5 24.5254 48.5C24.55 48.5 24.5746 48.5 24.5992 48.5C24.6238 48.5 24.6484 48.5 24.6729 48.5C24.6975 48.5 24.722 48.5 24.7466 48.5C24.7711 48.5 24.7956 48.5 24.8201 48.5C24.8446 48.5 24.869 48.5 24.8935 48.5C24.9179 48.5 24.9424 48.5 24.9668 48.5C24.9912 48.5 25.0156 48.5 25.04 48.5C25.0643 48.5 25.0887 48.5 25.113 48.5C25.1373 48.5 25.1617 48.5 25.1859 48.5C25.2102 48.5 25.2345 48.5 25.2588 48.5C25.283 48.5 25.3072 48.5 25.3314 48.5C25.3556 48.5 25.3798 48.5 25.404 48.5C25.4282 48.5 25.4523 48.5 25.4764 48.5C25.5005 48.5 25.5246 48.5 25.5487 48.5C25.5728 48.5 25.5969 48.5 25.6209 48.5C25.6449 48.5 25.6689 48.5 25.6929 48.5C25.7169 48.5 25.7409 48.5 25.7648 48.5C25.7887 48.5 25.8127 48.5 25.8365 48.5C25.8604 48.5 25.8843 48.5 25.9081 48.5C25.932 48.5 25.9558 48.5 25.9796 48.5C26.0034 48.5 26.0272 48.5 26.0509 48.5C26.0747 48.5 26.0984 48.5 26.1221 48.5C26.1458 48.5 26.1695 48.5 26.1931 48.5C26.2167 48.5 26.2404 48.5 26.264 48.5C26.2875 48.5 26.3111 48.5 26.3347 48.5C26.3582 48.5 26.3817 48.5 26.4052 48.5C26.4287 48.5 26.4522 48.5 26.4756 48.5C26.499 48.5 26.5224 48.5 26.5458 48.5C26.5692 48.5 26.5926 48.5 26.6159 48.5C26.6392 48.5 26.6625 48.5 26.6858 48.5C26.709 48.5 26.7323 48.5 26.7555 48.5C26.7787 48.5 26.8019 48.5 26.8251 48.5C26.8482 48.5 26.8713 48.5 26.8944 48.5C26.9175 48.5 26.9406 48.5 26.9637 48.5C26.9867 48.5 27.0097 48.5 27.0327 48.5C27.0557 48.5 27.0786 48.5 27.1015 48.5C27.1245 48.5 27.1474 48.5 27.1702 48.5C27.1931 48.5 27.2159 48.5 27.2387 48.5C27.2615 48.5 27.2843 48.5 27.307 48.5C27.3298 48.5 27.3525 48.5 27.3751 48.5C27.3978 48.5 27.4205 48.5 27.4431 48.5C27.4657 48.5 27.4883 48.5 27.5108 48.5C27.5334 48.5 27.5559 48.5 27.5784 48.5C27.6008 48.5 27.6233 48.5 27.6457 48.5C27.6681 48.5 27.6905 48.5 27.7128 48.5C27.7352 48.5 27.7575 48.5 27.7798 48.5C27.8021 48.5 27.8243 48.5 27.8465 48.5C27.8688 48.5 27.8909 48.5 27.9131 48.5C27.9352 48.5 27.9573 48.5 27.9794 48.5C28.0015 48.5 28.0235 48.5 28.0456 48.5C28.0676 48.5 28.0895 48.5 28.1115 48.5C28.1334 48.5 28.1553 48.5 28.1772 48.5C28.199 48.5 28.2209 48.5 28.2427 48.5C28.2645 48.5 28.2862 48.5 28.3079 48.5C28.3297 48.5 28.3513 48.5 28.373 48.5C28.3946 48.5 28.4162 48.5 28.4378 48.5C28.4594 48.5 28.4809 48.5 28.5024 48.5C28.5239 48.5 28.5454 48.5 28.5668 48.5C28.5882 48.5 28.6096 48.5 28.631 48.5C28.6523 48.5 28.6736 48.5 28.6949 48.5C28.7162 48.5 28.7374 48.5 28.7586 48.5C28.7798 48.5 28.8009 48.5 28.822 48.5C28.8432 48.5 28.8642 48.5 28.8853 48.5C28.9063 48.5 28.9273 48.5 28.9482 48.5C28.9692 48.5 28.9901 48.5 29.011 48.5C29.0319 48.5 29.0527 48.5 29.0735 48.5C29.0943 48.5 29.115 48.5 29.1357 48.5C29.1565 48.5 29.1771 48.5 29.1977 48.5C29.2184 48.5 29.239 48.5 29.2595 48.5C29.2801 48.5 29.3006 48.5 29.321 48.5C29.3415 48.5 29.3619 48.5 29.3823 48.5C29.4026 48.5 29.423 48.5 29.4433 48.5C29.4636 48.5 29.4838 48.5 29.504 48.5C29.5242 48.5 29.5444 48.5 29.5645 48.5C29.5846 48.5 29.6047 48.5 29.6247 48.5C29.6447 48.5 29.6647 48.5 29.6847 48.5C29.7046 48.5 29.7245 48.5 29.7443 48.5C29.7642 48.5 29.784 48.5 29.8038 48.5C29.8235 48.5 29.8432 48.5 29.8629 48.5C29.8826 48.5 29.9022 48.5 29.9218 48.5C29.9414 48.5 29.9609 48.5 29.9804 48.5C29.9999 48.5 30.0193 48.5 30.0387 48.5C30.0581 48.5 30.0775 48.5 30.0968 48.5C30.1161 48.5 30.1353 48.5 30.1545 48.5C30.1737 48.5 30.1929 48.5 30.212 48.5C30.2311 48.5 30.2502 48.5 30.2692 48.5C30.2882 48.5 30.3072 48.5 30.3261 48.5C30.345 48.5 30.3639 48.5 30.3827 48.5C30.4016 48.5 30.4203 48.5 30.4391 48.5C30.4578 48.5 30.4765 48.5 30.4951 48.5C30.5137 48.5 30.5323 48.5 30.5508 48.5C30.5694 48.5 30.5878 48.5 30.6063 48.5C30.6247 48.5 30.6431 48.5 30.6614 48.5C30.6797 48.5 30.698 48.5 30.7162 48.5C30.7345 48.5 30.7526 48.5 30.7708 48.5C30.7889 48.5 30.807 48.5 30.825 48.5C30.843 48.5 30.861 48.5 30.8789 48.5C30.8968 48.5 30.9147 48.5 30.9325 48.5C30.9503 48.5 30.9681 48.5 30.9858 48.5C31.0035 48.5 31.0212 48.5 31.0388 48.5C31.0564 48.5 31.0739 48.5 31.0914 48.5C31.1089 48.5 31.1264 48.5 31.1438 48.5C31.1612 48.5 31.1785 48.5 31.1958 48.5C31.2131 48.5 31.2303 48.5 31.2475 48.5C31.2647 48.5 31.2818 48.5 31.2988 48.5C31.3159 48.5 31.3329 48.5 31.3499 48.5C31.3668 48.5 31.3837 48.5 31.4006 48.5C31.4174 48.5 31.4342 48.5 31.451 48.5C31.4677 48.5 31.4844 48.5 31.501 48.5C31.5176 48.5 31.5342 48.5 31.5507 48.5C31.5672 48.5 31.5837 48.5 31.6001 48.5C31.6165 48.5 31.6328 48.5 31.6491 48.5C31.6654 48.5 31.6816 48.5 31.6978 48.5C31.7139 48.5 31.7301 48.5 31.7461 48.5C31.7622 48.5 31.7782 48.5 31.7941 48.5C31.81 48.5 31.8259 48.5 31.8417 48.5C31.8576 48.5 31.8733 48.5 31.889 48.5C31.9047 48.5 31.9204 48.5 31.936 48.5C31.9516 48.5 31.9671 48.5 31.9825 48.5C31.998 48.5 32.0134 48.5 32.0288 48.5C32.0441 48.5 32.0594 48.5 32.0746 48.5C32.0899 48.5 32.105 48.5 32.1201 48.5C32.1352 48.5 32.1503 48.5 32.1653 48.5C32.1802 48.5 32.1952 48.5 32.21 48.5C32.2249 48.5 32.2397 48.5 32.2544 48.5C32.2692 48.5 32.2838 48.5 32.2984 48.5C32.3131 48.5 32.3276 48.5 32.3421 48.5C32.3566 48.5 32.371 48.5 32.3854 48.5C32.3997 48.5 32.414 48.5 32.4283 48.5C32.4425 48.5 32.4567 48.5 32.4708 48.5C32.4849 48.5 32.499 48.5 32.5129 48.5C32.5269 48.5 32.5408 48.5 32.5547 48.5C32.5686 48.5 32.5823 48.5 32.5961 48.5C32.6098 48.5 32.6235 48.5 32.6371 48.5C32.6507 48.5 32.6642 48.5 32.6777 48.5C32.6911 48.5 32.7045 48.5 32.7179 48.5C32.7312 48.5 32.7445 48.5 32.7577 48.5C32.7709 48.5 32.784 48.5 32.7971 48.5C32.8101 48.5 32.8232 48.5 32.8361 48.5C32.849 48.5 32.8619 48.5 32.8747 48.5C32.8875 48.5 32.9002 48.5 32.9129 48.5C32.9256 48.5 32.9382 48.5 32.9507 48.5C32.9632 48.5 32.9757 48.5 32.9881 48.5C33.0005 48.5 33.0128 48.5 33.0251 48.5C33.0374 48.5 33.0496 48.5 33.0617 48.5C33.0738 48.5 33.0859 48.5 33.0978 48.5C33.1098 48.5 33.1217 48.5 33.1336 48.5C33.1454 48.5 33.1572 48.5 33.1689 48.5C33.1806 48.5 33.1923 48.5 33.2038 48.5C33.2154 48.5 33.2269 48.5 33.2383 48.5C33.2497 48.5 33.2611 48.5 33.2724 48.5C33.2837 48.5 33.2949 48.5 33.306 48.5C33.3172 48.5 33.3282 48.5 33.3392 48.5C33.3502 48.5 33.3611 48.5 33.372 48.5C33.3829 48.5 33.3936 48.5 33.4043 48.5C33.4151 48.5 33.4257 48.5 33.4363 48.5C33.4468 48.5 33.4573 48.5 33.4677 48.5C33.4781 48.5 33.4885 48.5 33.4988 48.5C33.509 48.5 33.5192 48.5 33.5294 48.5C33.5395 48.5 33.5495 48.5 33.5595 48.5C33.5695 48.5 33.5794 48.5 33.5892 48.5C33.599 48.5 33.6088 48.5 33.6185 48.5C33.6281 48.5 33.6377 48.5 33.6473 48.5C33.6568 48.5 33.6663 48.5 33.6756 48.5C33.685 48.5 33.6943 48.5 33.7035 48.5C33.7128 48.5 33.7219 48.5 33.731 48.5C33.74 48.5 33.749 48.5 33.758 48.5C33.7669 48.5 33.7757 48.5 33.7845 48.5C33.7933 48.5 33.8019 48.5 33.8106 48.5C33.8192 48.5 33.8277 48.5 33.8362 48.5C33.8446 48.5 33.853 48.5 33.8613 48.5C33.8696 48.5 33.8778 48.5 33.886 48.5C33.8941 48.5 33.9022 48.5 33.9101 48.5C33.9181 48.5 33.926 48.5 33.9339 48.5C33.9417 48.5 33.9494 48.5 33.9571 48.5C33.9648 48.5 33.9724 48.5 33.9799 48.5C33.9874 48.5 33.9948 48.5 34.0022 48.5C34.0095 48.5 34.0168 48.5 34.024 48.5C34.0312 48.5 34.0383 48.5 34.0453 48.5C34.0523 48.5 34.0593 48.5 34.0661 48.5C34.073 48.5 34.0798 48.5 34.0865 48.5C34.0932 48.5 34.0998 48.5 34.1063 48.5C34.1129 48.5 34.1193 48.5 34.1257 48.5C34.1321 48.5 34.1383 48.5 34.1446 48.5C34.1508 48.5 34.1569 48.5 34.1629 48.5C34.169 48.5 34.1749 48.5 34.1808 48.5C34.1867 48.5 34.1925 48.5 34.1982 48.5C34.2039 48.5 34.2095 48.5 34.215 48.5C34.2206 48.5 34.226 48.5 34.2314 48.5C34.2368 48.5 34.2421 48.5 34.2473 48.5C34.2525 48.5 34.2576 48.5 34.2626 48.5C34.2676 48.5 34.2726 48.5 34.2775 48.5C34.2823 48.5 34.2871 48.5 34.2918 48.5C34.2965 48.5 34.3011 48.5 34.3056 48.5C34.3101 48.5 34.3145 48.5 34.3189 48.5C34.3232 48.5 34.3275 48.5 34.3316 48.5C34.3358 48.5 34.3399 48.5 34.3439 48.5C34.3479 48.5 34.3518 48.5 34.3556 48.5C34.3594 48.5 34.3632 48.5 34.3668 48.5C34.3704 48.5 34.374 48.5 34.3775 48.5C34.3809 48.5 34.3843 48.5 34.3876 48.5C34.3909 48.5 34.3941 48.5 34.3972 48.5C34.4003 48.5 34.4033 48.5 34.4063 48.5C34.4092 48.5 34.412 48.5 34.4148 48.5V46.5ZM7.21778 46.5C7.1681 46.5 7.1433 46.4901 7.13091 46.484C7.11545 46.4764 7.09644 46.4628 7.07587 46.4391C7.05406 46.4139 7.03754 46.385 7.02814 46.3618C7.02375 46.3509 7.02303 46.3465 7.02384 46.3502C7.02434 46.3525 7.02886 46.3729 7.02902 46.4103L5.02904 46.4188C5.03098 46.8747 5.23659 47.3698 5.56321 47.7474C5.92095 48.161 6.48164 48.5 7.21778 48.5V46.5ZM7.02902 46.41C6.99594 39.1091 7.00697 31.8103 7 24.5037L5 24.5056C5.00696 31.8055 4.99594 39.1135 5.02904 46.4191L7.02902 46.41ZM7 24.5038C6.99992 24.4099 7.01063 24.3568 7.01718 24.3342C7.02293 24.3143 7.02226 24.3283 7.00045 24.3544C6.9901 24.3667 6.97812 24.3779 6.96579 24.3871C6.9536 24.3961 6.94466 24.4004 6.94192 24.4016C6.93717 24.4037 6.96478 24.3905 7.04454 24.3861L6.93426 22.3892C6.39141 22.4191 5.85171 22.6113 5.46751 23.0698C5.10093 23.5073 4.99959 24.0418 5 24.5055L7 24.5038ZM7.04478 24.3861C7.51827 24.3599 8.05448 24.2032 8.40372 23.7107C8.70539 23.2852 8.71921 22.796 8.71676 22.5255L6.71684 22.5437C6.71766 22.6345 6.71214 22.6726 6.71067 22.6802C6.70989 22.6842 6.71987 22.6277 6.77226 22.5538C6.79866 22.5166 6.831 22.4819 6.86763 22.4525C6.90384 22.4234 6.93709 22.4051 6.96128 22.3944C7.0057 22.3747 7.00918 22.385 6.93403 22.3892L7.04478 24.3861ZM8.71676 22.5258C8.7057 21.2647 8.6939 20.0203 8.71663 18.7786L6.71696 18.742C6.69364 20.0158 6.70583 21.2883 6.71683 22.5434L8.71676 22.5258ZM8.71663 18.7786C8.76476 16.1459 9.32323 13.9476 10.4308 12.1545C11.534 10.3683 13.2268 8.91123 15.6699 7.82839L14.8595 5.99994C12.1062 7.22026 10.0756 8.92363 8.72917 11.1035C7.3871 13.2763 6.76984 15.8495 6.71696 18.742L8.71663 18.7786ZM15.6607 7.83244C18.1036 6.77905 20.9997 6.99614 21.9698 7.07025L22.1222 5.07606C21.1801 5.0041 17.8181 4.72418 14.8688 5.9959L15.6607 7.83244ZM21.7723 7.03498C21.9819 7.09462 22.2339 7.1118 22.3567 7.12044C22.5476 7.13388 22.6243 7.13673 22.6732 7.14352L22.9483 5.16252C22.8647 5.15092 22.7752 5.14407 22.7078 5.13935C22.6714 5.1368 22.6338 5.13439 22.5991 5.13215C22.5634 5.12985 22.53 5.12769 22.4971 5.12538C22.4298 5.12064 22.377 5.11609 22.336 5.11116C22.2877 5.10535 22.2899 5.10285 22.3197 5.11133L21.7723 7.03498ZM22.6734 7.14355C24.7968 7.43789 26.3905 8.09673 27.6788 9.0046C28.9747 9.91772 30.0085 11.1157 30.968 12.5547L32.632 11.4453C31.5914 9.88449 30.3967 8.47307 28.8309 7.36972C27.2576 6.2611 25.3566 5.49637 22.9481 5.16249L22.6734 7.14355ZM30.9679 12.5546C31.4424 13.2665 31.717 13.7851 31.8689 14.1104C31.9448 14.2731 31.9901 14.3874 32.0143 14.4535C32.0265 14.4866 32.0333 14.5076 32.0362 14.5166C32.0376 14.521 32.038 14.5225 32.0376 14.521C32.0374 14.5202 32.0369 14.5187 32.0363 14.5165C32.036 14.5153 32.0356 14.514 32.0352 14.5125C32.035 14.5118 32.0348 14.511 32.0346 14.5101C32.0344 14.5097 32.0343 14.5093 32.0342 14.5088C32.0341 14.5086 32.0341 14.5083 32.034 14.5081C32.0339 14.5078 32.0338 14.5075 33 14.2495C33.9662 13.9916 33.9661 13.9912 33.966 13.9909C33.9659 13.9908 33.9658 13.9904 33.9658 13.9902C33.9656 13.9897 33.9655 13.9892 33.9654 13.9886C33.9651 13.9876 33.9648 13.9865 33.9645 13.9854C33.9639 13.9832 33.9632 13.9808 33.9625 13.9782C33.961 13.973 33.9594 13.9671 33.9574 13.9605C33.9536 13.9473 33.9487 13.9312 33.9427 13.9123C33.9307 13.8744 33.9142 13.8252 33.8919 13.7645C33.8474 13.6433 33.7802 13.4766 33.6811 13.2644C33.483 12.84 33.1576 12.2338 32.6321 11.4454L30.9679 12.5546ZM19.2522 9.64972C16.2437 10.0856 13.2956 12.0328 12.2766 16.2182L14.2198 16.6913C15.0247 13.3853 17.2465 11.9612 19.5389 11.6291L19.2522 9.64972ZM12.2766 16.2182C12.0306 17.2282 11.9532 18.2527 11.9242 19.2329C11.9097 19.7233 11.9072 20.215 11.9037 20.6893C11.9002 21.1683 11.8958 21.6319 11.8783 22.0886L13.8769 22.1649C13.8956 21.6736 13.9002 21.1818 13.9037 20.704C13.9072 20.2215 13.9097 19.7551 13.9234 19.292C13.9507 18.3655 14.0224 17.502 14.2198 16.6914L12.2766 16.2182ZM11.8783 22.0886C11.8673 22.378 11.858 22.6832 11.8875 22.9444C11.9175 23.2102 12.0044 23.6106 12.3408 23.9296C12.6627 24.2348 13.0541 24.3112 13.3009 24.3413C13.5559 24.3723 13.8616 24.3733 14.1608 24.3734L14.1619 22.3734C14.0041 22.3734 13.8772 22.3727 13.7696 22.3697C13.661 22.3667 13.59 22.3617 13.5428 22.356C13.4939 22.35 13.497 22.3462 13.5277 22.3573C13.5645 22.3706 13.6393 22.4047 13.7169 22.4783C13.8843 22.637 13.8841 22.8015 13.8749 22.7202C13.8711 22.6863 13.8676 22.6275 13.8677 22.5289C13.8678 22.4316 13.8712 22.314 13.8769 22.165L11.8783 22.0886ZM14.1606 24.3734C18.6758 24.3766 21.5674 24.3747 26.0816 24.3747V22.3747C21.5663 22.3747 18.6763 22.3766 14.162 22.3734L14.1606 24.3734ZM26.0816 24.3747C28.8883 24.3747 31.6923 24.3722 34.4968 24.376L34.4996 22.376C31.6932 22.3722 28.8858 22.3747 26.0816 22.3747V24.3747ZM34.4968 24.376C34.7821 24.3764 34.9488 24.3922 35.0466 24.4125C35.1371 24.4314 35.0969 24.4399 35.0307 24.3789C34.958 24.3121 34.9526 24.2536 34.9651 24.3041C34.9815 24.3703 34.9987 24.5036 35 24.7597L37 24.7498C36.9973 24.2085 36.9582 23.4346 36.3847 22.907C36.0973 22.6426 35.7596 22.5181 35.4542 22.4545C35.156 22.3924 34.8286 22.3765 34.4995 22.376L34.4968 24.376ZM34.9334 44.4021C34.9334 44.856 34.9518 45.475 34.8156 45.9957C34.7498 46.247 34.67 46.3783 34.6145 46.4364C34.5881 46.464 34.5528 46.5 34.4148 46.5V48.5C35.0886 48.5 35.6491 48.2481 36.0597 47.8189C36.4411 47.4202 36.6395 46.9259 36.7504 46.502C36.9676 45.6722 36.9334 44.7423 36.9334 44.4021H34.9334ZM17.6174 38.3674C17.6174 38.6213 17.6098 38.8051 17.606 39.0239C17.6024 39.227 17.6026 39.4497 17.6299 39.6848L19.6166 39.4541C19.6052 39.3559 19.6025 39.2416 19.6057 39.059C19.6086 38.892 19.6174 38.6414 19.6174 38.3674H17.6174ZM17.63 39.6853C17.8323 41.42 19.2808 42.6881 21.0078 42.6821L21.0009 40.6821C20.2851 40.6846 19.7002 40.1713 19.6165 39.4536L17.63 39.6853ZM21.0079 42.6821C22.7853 42.6758 24.246 41.3291 24.3838 39.5452L22.3898 39.3912C22.3325 40.1324 21.7398 40.6795 21.0008 40.6821L21.0079 42.6821ZM24.3838 39.5452C24.4098 39.2093 24.4391 38.7696 24.3775 38.321L22.3961 38.5928C22.4255 38.8074 22.4157 39.0554 22.3898 39.3912L24.3838 39.5452ZM24.3776 38.3215C24.3419 38.0603 24.3817 37.9086 24.4443 37.7871C24.5195 37.6413 24.6704 37.4592 24.9811 37.2118L23.7354 35.6471C23.3214 35.9767 22.9262 36.3673 22.6668 36.8705C22.3947 37.398 22.3112 37.9715 22.396 38.5923L24.3776 38.3215ZM24.9811 37.2118C25.6877 36.6493 26.4469 35.7113 26.651 34.6894L24.6898 34.2977C24.6106 34.6942 24.2266 35.2561 23.7354 35.6471L24.9811 37.2118ZM26.651 34.6896C26.8749 33.5695 26.7749 32.4864 26.333 31.5101C25.8928 30.5374 25.1416 29.7329 24.1618 29.1165L23.0968 30.8093C23.8012 31.2525 24.258 31.7758 24.511 32.3348C24.7623 32.8902 24.8407 33.5426 24.6898 34.2975L26.651 34.6896ZM24.1618 29.1164C22.1591 27.8566 19.9629 27.8589 17.9399 29.0478L18.9533 30.7721C20.3511 29.9506 21.7452 29.9591 23.0968 30.8093L24.1618 29.1164ZM17.9399 29.0478C14.9162 30.8249 14.1452 35.1003 17.0238 37.2525L18.2214 35.6507C16.7543 34.5538 16.861 32.0018 18.9533 30.7721L17.9399 29.0478ZM17.0239 37.2526C17.3549 37.4999 17.5216 37.695 17.598 37.8347C17.6582 37.9449 17.6695 38.0282 17.6432 38.1421L19.5917 38.5927C19.8967 37.2738 19.106 36.3119 18.2213 35.6506L17.0239 37.2526ZM35 24.7494C34.9335 37.1258 34.9334 31.754 34.9334 44.4021H36.9334C36.9334 31.7609 36.9334 37.1401 37 24.7601L35 24.7494ZM33 14.2495C33 13.2495 33 13.2495 33 13.2495C33 13.2495 33 13.2495 32.9999 13.2495C32.9999 13.2495 32.9999 13.2495 32.9998 13.2495C32.9996 13.2495 32.9994 13.2495 32.9992 13.2495C32.9986 13.2495 32.9977 13.2495 32.9966 13.2495C32.9943 13.2495 32.9909 13.2495 32.9862 13.2495C32.977 13.2495 32.963 13.2495 32.944 13.2495C32.9059 13.2495 32.8478 13.2495 32.7677 13.2495C32.6073 13.2495 32.3587 13.2495 32.0055 13.2495C31.2989 13.2495 30.1739 13.2495 28.5 13.2495V15.2495C30.1739 15.2495 31.2989 15.2495 32.0055 15.2495C32.3587 15.2495 32.6073 15.2495 32.7677 15.2495C32.8478 15.2495 32.9059 15.2495 32.944 15.2495C32.963 15.2495 32.977 15.2495 32.9862 15.2495C32.9909 15.2495 32.9943 15.2495 32.9966 15.2495C32.9977 15.2495 32.9986 15.2495 32.9992 15.2495C32.9994 15.2495 32.9996 15.2495 32.9998 15.2495C32.9999 15.2495 32.9999 15.2495 32.9999 15.2495C33 15.2495 33 15.2495 33 15.2495C33 15.2495 33 15.2495 33 14.2495ZM28.5 13.2495C28.5025 13.2495 28.4865 13.2494 28.4529 13.2486C28.4215 13.2477 28.3789 13.2463 28.3287 13.2439C28.2269 13.2391 28.1021 13.2307 27.9811 13.2171C27.8524 13.2025 27.763 13.1857 27.7174 13.1729C27.6936 13.1662 27.7149 13.1696 27.7594 13.1933C27.7834 13.2061 27.8277 13.2318 27.8797 13.2756C27.9312 13.3191 28.006 13.3935 28.07 13.5065L26.33 14.4926C26.483 14.7625 26.7087 14.8998 26.8206 14.9593C26.9499 15.028 27.0783 15.0708 27.1762 15.0983C27.3741 15.1539 27.5865 15.1852 27.7565 15.2044C28.1033 15.2436 28.4352 15.2495 28.5 15.2495V13.2495ZM28.07 13.5065C26.0861 10.006 22.0064 9.25072 19.2522 9.64972L19.5389 11.6291C21.8587 11.293 24.9139 11.994 26.33 14.4926L28.07 13.5065Z" fill="#F31CED"/>
</g>
<defs>
<filter id="filter0_d_7853_73431" x="0" y="-0.000488281" width="42" height="53.5005" filterUnits="userSpaceOnUse" color-interpolation-filters="sRGB">
<feFlood flood-opacity="0" result="BackgroundImageFix"/>
<feColorMatrix in="SourceAlpha" type="matrix" values="0 0 0 0 0 0 0 0 0 0 0 0 0 0 0 0 0 0 127 0" result="hardAlpha"/>
<feOffset/>
<feGaussianBlur stdDeviation="2.5"/>
<feComposite in2="hardAlpha" operator="out"/>
<feColorMatrix type="matrix" values="0 0 0 0 0.784314 0 0 0 0 0.164706 0 0 0 0 0.760784 0 0 0 1 0"/>
<feBlend mode="normal" in2="BackgroundImageFix" result="effect1_dropShadow_7853_73431"/>
<feBlend mode="normal" in="SourceGraphic" in2="effect1_dropShadow_7853_73431" result="shape"/>
</filter>
</defs>
</svg>
