<svg width="36" height="33" viewBox="0 0 36 33" fill="none" xmlns="http://www.w3.org/2000/svg">
<path d="M32.9927 27.9642C32.9927 27.9642 30.1629 29.7499 29.7927 25.9849C29.3381 26.1896 28.861 26.3057 28.3599 26.1397C28.2104 25.9619 28.2602 25.7477 28.2602 25.5471C28.2575 20.0321 28.258 14.5171 28.2581 9.0022C28.2581 8.1977 28.2952 8.29236 27.5721 8.274C26.7508 8.2531 26.1775 7.83776 25.9871 7.15231C25.8585 6.68933 25.9375 6.25384 26.2368 5.89115C27.5754 4.26901 28.9443 2.67203 30.3019 1.06557C30.3682 0.98713 30.4436 0.916187 30.5297 0.859199C30.7211 0.748591 30.7998 0.917356 30.8896 1.01889C31.5549 1.77019 32.1922 2.54534 32.8394 3.31196C33.516 4.11337 34.1998 4.90874 34.8711 5.71468C35.059 5.94023 35.187 6.17946 35.2379 6.46399C35.2774 6.69105 35.2838 6.8528 35.2379 7.08123C35.042 7.87309 34.5592 8.26115 33.722 8.28294C32.9939 8.30191 33.007 8.1922 33.007 9.02454C33.0075 14.4269 32.9927 27.9642 32.9927 27.9642Z" fill="#D45BFF"/>
<path d="M30.6302 0.842696C29.679 1.96143 28.7271 3.07961 27.7768 4.19916C27.2832 4.78066 26.787 5.36003 26.3016 5.94834C25.7305 6.64065 26.078 7.76901 26.9317 8.06055C27.3002 8.18642 27.6738 8.19006 28.0497 8.17336C28.289 8.16277 28.367 8.24189 28.3639 8.48346C28.352 9.43184 28.359 10.3804 28.3591 11.329C28.3595 16.2658 28.3599 21.2028 28.3603 26.1397C26.9826 25.9514 26.1257 24.3754 26.6716 23.0244C26.8251 22.6448 26.9826 22.2686 27.0519 21.8617C27.2832 20.5027 26.8111 19.3844 25.8738 18.4239C25.8766 15.0912 25.8781 11.7585 25.8859 8.42571C25.8863 8.23481 25.8326 8.16985 25.6355 8.16944C25.3058 8.16868 24.9748 8.20883 24.6452 8.12716C23.6107 7.87095 23.1876 6.72438 23.8612 5.90496C24.9197 4.61733 26.0073 3.35348 27.0831 2.07994C27.3852 1.72227 27.701 1.37532 27.9888 1.00665C28.3248 0.576453 28.6929 0.203726 29.2532 0.0856934C29.3679 0.0856934 29.4825 0.0856934 29.5972 0.0856934C29.9904 0.117315 30.3021 0.296323 30.5417 0.60505C30.5957 0.674618 30.672 0.737175 30.6302 0.842696Z" fill="#AA1BCE"/>
<path d="M19.3356 20.8517C18.4227 21.7053 17.1871 21.8167 16.2363 21.1283C16.1638 21.0758 16.1056 21.0036 16.0408 20.9406C15.9301 20.7648 15.9478 20.5677 15.9478 20.374C15.9474 17.5278 15.9476 14.6816 15.9475 11.8354C15.9475 11.7326 15.9427 11.6294 15.9474 11.5268C15.9575 11.3042 15.845 11.2186 15.6331 11.2241C15.4842 11.228 15.335 11.2244 15.186 11.2234C14.5539 11.2191 14.0824 10.9318 13.7869 10.3859C13.4775 9.81447 13.6068 9.27332 13.993 8.78793C14.4917 8.16133 15.0187 7.55769 15.5352 6.94553C16.3394 5.99241 17.1451 5.04045 17.9518 4.08945C18.0501 3.97362 18.1268 3.80836 18.3301 3.85325C18.953 4.4916 19.4937 5.20062 20.0745 5.8752C20.887 6.81898 21.675 7.78372 22.4878 8.72736C22.9068 9.21386 23.0667 9.73212 22.7857 10.3338C22.5107 10.9224 22.0183 11.1374 21.3903 11.1302C20.5847 11.121 20.5839 11.1288 20.5847 11.9232C20.5871 14.1743 20.59 16.4253 20.5927 18.6764C20.5996 18.6987 20.6095 18.7266 20.5981 18.7426C20.1716 19.3386 19.9409 20.0398 19.5602 20.6601C19.5082 20.7448 19.4565 20.8417 19.3356 20.8517Z" fill="#02C5FF"/>
<path d="M7.92854 25.6684C7.1379 26.282 6.28802 26.3821 5.37808 25.9606C5.13982 25.9683 4.92583 25.9184 4.77811 25.7098C4.71446 25.5328 4.73543 25.3486 4.73536 25.167C4.73405 22.2682 4.7346 19.3695 4.73426 16.4708C4.73419 15.9584 4.73322 15.9564 4.22049 15.9571C3.91045 15.9576 3.60522 15.9537 3.31221 15.8222C2.42847 15.4255 2.1358 14.4375 2.70018 13.651C3.09284 13.1037 3.56102 12.6147 3.99568 12.0999C4.90942 11.0175 5.81929 9.93182 6.73792 8.85358C6.83481 8.73988 6.9037 8.5663 7.10562 8.58892C7.89288 9.50823 8.68201 10.426 9.46685 11.3473C10.0894 12.0782 10.7084 12.8122 11.3258 13.5475C11.7312 14.0303 11.8357 14.5604 11.5367 15.1343C11.3022 15.5844 10.9239 15.8297 10.4133 15.8637C10.322 15.8698 10.2301 15.8698 10.1385 15.8704C9.36693 15.8754 9.36541 15.8753 9.36741 16.6292C9.36893 17.2228 9.37465 17.8164 9.37851 18.4101C9.39603 18.5415 9.30341 18.6194 9.23025 18.7041C8.15411 19.9508 7.93874 21.326 8.59511 22.8389C8.95571 23.6701 8.94109 24.48 8.40658 25.243C8.28238 25.42 8.14659 25.5923 7.92854 25.6684Z" fill="#AECC50"/>
<path d="M7.10505 8.58872C6.46895 9.32991 5.8303 10.069 5.19744 10.813C4.62258 11.4887 4.04041 12.159 3.48769 12.8525C3.15192 13.2739 2.7025 13.6108 2.55064 14.1753C2.32942 14.9979 2.99772 15.8421 3.86856 15.8592C4.0862 15.8635 4.30502 15.8733 4.52142 15.8564C4.76044 15.8379 4.84015 15.923 4.83581 16.1649C4.82236 16.9072 4.83098 17.6498 4.83091 18.3923C4.83078 20.8367 4.83064 23.2812 4.8305 25.7257C4.73237 25.8207 4.82491 26.4277 4.79843 26.5343C4.52486 27.6366 3.01055 27.4143 2.41058 27.6018C2.30418 27.635 2.39348 26.5028 2.35783 25.8549C2.35652 22.6558 2.35107 19.4568 2.36086 16.2577C2.36176 15.9639 2.30314 15.8397 1.98902 15.8801C1.78655 15.9061 1.57733 15.8822 1.3712 15.877C0.770757 15.8617 0.347335 15.5669 0.117695 15.0263C-0.107808 14.4956 -0.00126331 13.9988 0.368782 13.56C1.23852 12.5288 2.1104 11.4995 2.98117 10.4691C3.56417 9.77929 4.1453 9.08794 4.72968 8.39933C5.43832 7.56445 6.5455 7.65361 7.10505 8.58872Z" fill="#7CAF01"/>
<path d="M18.3302 3.85306C17.9226 4.17203 17.6478 4.61089 17.3103 4.99228C16.6025 5.79259 15.9253 6.61991 15.2394 7.43933C14.8163 7.94494 14.3876 8.4467 13.985 8.96832C13.6484 9.4045 13.606 9.89395 13.884 10.3761C14.1579 10.8512 14.5701 11.1259 15.1403 11.128C16.0447 11.1314 16.045 11.1332 16.0446 12.0371C16.0435 15.0048 16.0421 17.9726 16.0408 20.9403C15.8128 20.7914 15.6578 20.5703 15.5705 20.3298C15.1864 19.2703 14.549 18.425 13.5599 17.8595C13.5626 15.6996 13.5635 13.5397 13.5717 11.3798C13.5724 11.1913 13.5253 11.1104 13.3235 11.124C13.0953 11.1394 12.8652 11.1251 12.6359 11.1278C12.0783 11.1343 11.6616 10.8858 11.4024 10.4052C11.129 9.89842 11.1496 9.38237 11.5124 8.92701C12.0109 8.30138 12.5371 7.69767 13.0533 7.08606C14.0119 5.95015 14.9897 4.82963 15.9254 3.67522C16.618 2.82088 17.8647 2.94998 18.3302 3.85306Z" fill="#0299DA"/>
<path d="M0.786621 30.7193C0.789586 29.7813 0.791173 28.8433 0.791931 27.9052C0.792069 27.6946 0.863996 27.614 1.0855 27.5663C2.04909 27.3586 3.00455 27.1137 3.96628 26.8973C4.15882 26.854 4.26123 26.7928 4.32267 26.5861C4.52445 25.9075 4.78451 25.2482 5.12317 24.6243C5.27358 24.3473 5.30344 24.1153 5.10793 23.8244C4.621 23.0997 4.18648 22.3401 3.70671 21.6103C3.51597 21.3201 3.49997 21.1275 3.77188 20.8639C4.96912 19.703 6.14945 18.5246 7.32028 17.3372C7.54999 17.1042 7.7157 17.0828 7.98775 17.2647C8.73881 17.767 9.51738 18.2282 10.2688 18.73C10.5279 18.9031 10.7483 18.8939 11.0019 18.7604C11.6437 18.4224 12.3075 18.1388 13.0093 17.9454C13.4311 17.8291 13.3825 17.4206 13.4584 17.1233C13.6695 16.2974 13.8334 15.4594 14.0116 14.6253C14.0486 14.4524 14.1739 14.4362 14.3098 14.4363C16.1118 14.4372 17.9137 14.4394 19.7157 14.4419C20.0808 14.4424 20.1322 14.55 20.3626 14.8434C20.9386 15.6006 21.2453 15.8657 21.5424 16.4687C21.5786 16.6451 20.8065 17.9016 20.9764 17.9462C21.723 18.1423 22.4194 18.4583 23.1013 18.8119C23.3093 18.9197 23.5079 18.9097 23.7182 18.7737C24.4893 18.2751 25.5308 17.6509 26.3023 17.1528C26.5558 16.9891 26.7314 16.9741 26.969 17.2179C28.2021 18.2984 29.8856 19.9385 31.0839 21.1193C31.3115 21.3435 31.9793 23.0669 31.9793 23.0669C31.9793 23.0669 29.3919 23.1311 28.8971 23.886C28.7422 24.1224 28.7206 24.3199 28.8488 24.573C29.1751 25.2175 29.4712 25.8736 29.6681 26.5749C29.8008 27.0473 30.2865 26.9954 30.6439 27.0883C31.4293 27.2925 32.2261 27.4528 33.0174 27.6348C33.278 27.6948 33.298 27.6895 33.4537 27.8156C34.0768 28.7473 34.437 29.1258 34.7542 29.6493L34.7569 30.9891C31.9144 30.9878 27.3938 32.6549 24.5513 32.6416L22.841 30.5718C22.912 30.0665 23.0162 29.7566 22.8556 29.0964C22.4444 27.3147 21.503 27.2914 19.9203 26.3404C18.8521 25.6986 17.8083 24.4623 16.5874 24.5484C14.7522 24.6779 13.2627 25.486 12.1288 26.9393C11.6635 27.5358 11.3842 28.2257 11.101 28.9154C10.9331 29.5061 10.9257 30.7209 10.9257 30.7209C10.9257 30.7209 10.2479 30.7562 9.92066 30.7569C8.76301 30.7596 7.60536 30.7555 6.44764 30.7535C4.87967 30.7507 3.87146 32.6434 2.30349 32.643L0.786621 30.7193Z" fill="#4F6B96"/>
<path d="M2.30469 32.6428C2.30765 31.7048 2.30924 30.6992 2.31 29.7612C2.31014 29.5506 2.38206 29.47 2.60357 29.4222C3.56716 29.2146 4.52262 28.9696 5.48435 28.7532C5.67689 28.7099 5.7793 28.6488 5.84074 28.4421C6.04252 27.7635 6.30257 27.1041 6.64124 26.4802C6.79165 26.2032 6.82151 25.9712 6.626 25.6803C6.13907 24.9556 5.70454 24.196 5.22478 23.4662C5.03403 23.1761 5.01803 22.9834 5.28995 22.7198C6.48718 21.5589 7.66752 20.3805 8.83834 19.1931C9.06805 18.9602 9.23377 18.9388 9.50582 19.1207C10.2569 19.6229 11.0354 20.0841 11.7868 20.5859C12.046 20.759 12.2664 20.7499 12.52 20.6163C13.1617 20.2784 13.8256 19.9948 14.5274 19.8013C14.9491 19.6851 14.9006 19.2765 14.9765 18.9792C15.1875 18.1533 15.3514 17.3153 15.5297 16.4813C15.5667 16.3084 15.692 16.2922 15.8279 16.2922C17.6299 16.2931 19.4318 16.2954 21.2338 16.2979C21.5988 16.2984 21.5864 16.6285 21.6362 16.8328C21.8481 17.7023 22.0201 18.5816 22.2001 19.4587C22.2363 19.6351 22.3247 19.7575 22.4945 19.8021C23.2412 19.9982 23.9375 20.3141 24.6195 20.6678C24.8274 20.7755 25.0261 20.7656 25.2363 20.6296C26.0075 20.1309 26.7916 19.6522 27.563 19.1541C27.8165 18.9904 27.9921 18.9754 28.2297 19.2192C29.4037 20.4239 30.5952 21.6119 31.7936 22.7927C32.0212 23.0169 32.059 23.1788 31.8709 23.4586C31.3674 24.2074 30.9101 24.987 30.4153 25.7418C30.2604 25.9783 30.2388 26.1758 30.367 26.4289C30.6933 27.0734 30.9894 27.7295 31.1863 28.4308C31.319 28.9032 31.8047 28.8512 32.1621 28.9442C32.9475 29.1484 33.7443 29.3087 34.5356 29.4907C34.7962 29.5506 34.7561 29.7697 34.7553 29.9528C34.7494 31.3405 34.7593 31.247 34.742 32.6346L24.5525 32.6415C24.6672 32.0639 24.6613 31.7297 24.5816 31.3092C24.1705 29.5275 23.1367 28.1523 21.554 27.2014C20.4857 26.5595 19.3266 26.3183 18.1058 26.4044C16.2705 26.5339 14.781 27.342 13.6471 28.7953C13.1818 29.3917 12.9026 30.0816 12.6193 30.7714C12.3278 31.6334 12.4727 32.6429 12.4727 32.6429H2.30469V32.6428Z" fill="#8FA3C1"/>
</svg>
