<svg width="24" height="26" viewBox="0 0 24 26" fill="none" xmlns="http://www.w3.org/2000/svg">
<path d="M3.03203 15.1668L1.58758 5.77793L11.6987 1.44459L21.8098 5.77793L20.3654 15.1668L11.6987 24.5557L3.03203 15.1668Z" fill="black"/>
<path d="M11.9972 26H11.7792C11.5484 26 11.3226 25.9316 11.1322 25.8011C11.113 25.788 11.0935 25.7759 11.0733 25.7646C5.22011 22.531 1.86771 17.529 0.610206 11.0231C0.388273 9.8751 0.237599 9.06714 0.109616 7.56359C0.041192 6.30255 -0.0818285 5.06951 0.0794808 4.36294C0.0972071 4.28529 0.13266 4.21262 0.180875 4.14951C0.453506 3.79215 0.792432 3.55674 1.27636 3.49541C4.75426 3.05332 7.96591 1.80999 11.0446 0.188039C11.5711 -0.0892004 12.0281 -0.0448847 12.5425 0.222782C15.6272 1.82772 18.83 3.08983 22.3054 3.56206C23.179 3.68083 23.4098 3.99742 23.4211 4.89153C23.4477 6.99458 23.2928 9.08416 22.8971 11.1496C21.9477 16.1059 19.6901 20.3116 15.7651 23.5637C14.6888 24.4557 13.6224 25.0772 12.4507 25.8227C12.3542 25.8844 12.1117 26 11.9972 26ZM20.3321 7.57423C20.3413 7.39626 20.3442 7.21758 20.3523 7.03961C20.3761 6.51491 20.0106 6.05651 19.4951 5.95617C16.9308 5.45665 14.5211 4.50333 12.1862 3.34438C11.8497 3.1774 11.6062 3.22703 11.3013 3.37735C8.85612 4.58097 6.33367 5.56903 3.63289 6.03027C3.23192 6.09869 3.13159 6.28695 3.15003 6.67693C3.22838 8.33752 3.35459 9.99103 3.72011 11.6176C4.7454 16.1814 7.06506 19.8458 10.9996 22.398C11.47 22.7033 12.0802 22.7004 12.5478 22.3906C14.3768 21.1777 15.9548 19.7068 17.1956 17.8757C19.3036 14.7644 20.1545 11.2726 20.3321 7.57423Z" fill="#D7DD26"/>
<path d="M11.7825 6.90093C12.0913 6.90093 12.4005 6.89668 12.7093 6.90164C13.4719 6.91405 13.9136 7.38521 13.7991 8.1244C13.475 10.2133 13.1329 12.2997 12.7876 14.3853C12.6915 14.9664 12.3856 15.3808 11.7432 15.3734C11.1345 15.3663 10.8324 14.966 10.7434 14.413C10.4098 12.3479 10.0883 10.281 9.77309 8.21268C9.63305 7.2941 9.98226 6.90731 10.9221 6.90129C11.2089 6.89951 11.4957 6.90093 11.7825 6.90093Z" fill="#D7DD26"/>
<path d="M11.7752 19.1012C10.9867 19.1019 10.4103 18.512 10.4238 17.7186C10.4365 16.9772 11.0385 16.3774 11.7709 16.3756C12.5275 16.3738 13.1334 17.0045 13.1199 17.7803C13.1068 18.5421 12.5385 19.1005 11.7752 19.1012Z" fill="#D7DD26"/>
</svg>
