<svg width="19" height="20" viewBox="0 0 19 20" fill="none" xmlns="http://www.w3.org/2000/svg">
<path d="M0.000315743 6.12342C0.661269 6.12342 1.32222 6.12342 2.08597 6.12342C2.08597 5.0199 2.10614 3.98016 2.07808 2.94169C2.06229 2.35786 2.27664 2.13545 2.84007 2.15235C3.82097 2.1816 17.7805 2.16052 18.8889 2.16052C18.8889 1.4117 18.8889 0.70594 18.8889 0C17.498 1.27407e-09 3.12985 2.54809e-09 1.739 3.82215e-09C1.15944 0.600367 0.579878 1.20073 0.000315747 1.8011C0.000315746 3.24187 0.000315745 4.68265 0.000315743 6.12342Z" fill="#A065FF"/>
<path d="M0.000175419 13.8766C0.661129 13.8766 1.32208 13.8766 2.08583 13.8766C2.08583 14.9801 2.106 16.0199 2.07793 17.0583C2.06215 17.6422 2.2765 17.8646 2.83993 17.8477C3.82083 17.8184 17.7803 17.8395 18.8888 17.8395C18.8888 18.5883 18.8888 19.2941 18.8888 20C17.4979 20 3.12971 20 1.73869 20C1.15912 19.3997 0.579562 18.7993 0 18.1989C0.000175415 16.7581 0.000175417 15.3174 0.000175419 13.8766Z" fill="#A065FF"/>
<path d="M10.7768 15.087C10.0575 15.087 9.43195 15.087 8.71171 15.087C8.71171 13.8086 8.71171 12.537 8.71171 11.2011C7.41436 11.2011 6.2091 11.2011 4.93368 11.2011C4.93368 10.4675 4.93368 9.79849 4.93368 9.03041C6.13648 9.03041 7.36384 9.03041 8.65365 9.03041C8.65365 7.68649 8.65365 6.43796 8.65365 5.11694C9.36179 5.11694 10.0077 5.11694 10.7491 5.11694C10.7491 6.36292 10.7491 7.63452 10.7491 8.97044C12.0465 8.97044 13.2517 8.97044 14.527 8.97044C14.527 9.70401 14.527 10.3731 14.527 11.1411C13.3242 11.1411 12.0966 11.1411 10.7767 11.1411C10.7768 12.5069 10.7768 13.7785 10.7768 15.087Z" fill="#A065FF"/>
<path d="M10.7768 15.087C10.0575 15.087 9.43195 15.087 8.71171 15.087C8.71171 13.8086 8.71171 12.537 8.71171 11.2011C7.41436 11.2011 6.2091 11.2011 4.93368 11.2011C4.93368 10.4675 4.93368 9.79849 4.93368 9.03041C6.13648 9.03041 7.36384 9.03041 8.65365 9.03041C8.65365 7.68649 8.65365 6.43796 8.65365 5.11694C9.36179 5.11694 10.0077 5.11694 10.7491 5.11694C10.7491 6.36292 10.7491 7.63452 10.7491 8.97044C12.0465 8.97044 13.2517 8.97044 14.527 8.97044C14.527 9.70401 14.527 10.3731 14.527 11.1411C13.3242 11.1411 12.0966 11.1411 10.7767 11.1411C10.7768 12.5069 10.7768 13.7785 10.7768 15.087Z" fill="#A065FF"/>
</svg>
