<svg width="19" height="20" viewBox="0 0 19 20" fill="none" xmlns="http://www.w3.org/2000/svg">
<path d="M19 6.12342C18.2903 6.12342 17.5806 6.12342 16.7605 6.12342C16.7605 5.0199 16.7388 3.98016 16.769 2.94169C16.7859 2.35786 16.5558 2.13545 15.9508 2.15235C14.8975 2.1816 1.30163 2.16052 0.111429 2.16052C0.111429 1.4117 0.111429 0.70594 0.111429 3.82238e-09C1.60488 2.54831e-09 15.6396 1.27423e-09 17.1333 0C17.7556 0.600367 18.3779 1.20073 19.0002 1.8011C19 3.24187 19 4.68265 19 6.12342Z" fill="#A065FF"/>
<path d="M18.9999 13.8766C18.2902 13.8766 17.5805 13.8766 16.7604 13.8766C16.7604 14.9802 16.7387 16.0199 16.7689 17.0584C16.7858 17.6422 16.5557 17.8646 15.9507 17.8477C14.8974 17.8185 1.30153 17.8395 0.111328 17.8395C0.111328 18.5884 0.111328 19.2941 0.111328 20.0001C1.60478 20.0001 15.6395 20.0001 17.1332 20.0001C17.7555 19.3997 18.3778 18.7993 19.0001 18.199C18.9999 16.7582 18.9999 15.3174 18.9999 13.8766Z" fill="#A065FF"/>
<path d="M3.39498 11.2011V9.03039L13.696 8.97043V11.1411L3.39498 11.2011Z" fill="#A065FF"/>
</svg>
